<svg width="247" height="71" viewBox="0 0 247 71" fill="none" xmlns="http://www.w3.org/2000/svg">
<g opacity="0.1" filter="url(#filter0_d_3425_1851)">
<path d="M42.4895 38.5305C42.0309 38.5152 41.6335 38.6222 41.2513 38.6834C37.491 39.3101 33.7306 39.9827 30.0008 40.7623C29.1601 40.9304 28.3346 41.1444 27.4939 41.282C27.1117 41.3431 26.8519 41.5419 26.6073 41.8017C25.0481 43.4526 23.4737 45.1035 21.9145 46.7697C19.7133 49.0932 17.5121 51.4166 15.2039 53.6331C15.0816 53.7554 14.9593 53.8624 14.837 53.9694C14.7148 54.0917 14.5619 54.1681 14.3937 54.107C14.1797 54.0306 14.0422 53.8624 14.0116 53.6331C13.9963 53.5873 13.9963 53.5414 14.0116 53.4956C14.1033 52.9605 14.195 52.4255 14.2867 51.8905C14.2867 51.8447 14.3479 51.8294 14.3785 51.7988C14.6995 51.7377 14.837 51.9975 15.0358 52.1504C15.0663 52.1351 15.0816 52.1351 15.1122 52.1198C15.1275 52.1045 15.1581 52.1045 15.1733 52.0892C18.093 48.8486 21.0126 45.5927 23.9322 42.352C23.9628 42.3215 23.9781 42.2756 23.9934 42.2297C24.0087 42.2145 23.9934 42.1839 23.9934 42.1227C23.7641 42.1686 23.5348 42.1839 23.3208 42.245C16.9312 43.7583 10.5875 45.4551 4.32024 47.4117C4.18267 47.4576 4.0451 47.4881 3.90752 47.534C3.21965 47.7939 2.37892 47.32 2.0732 46.571C1.88976 46.1277 2.05791 45.7761 2.50121 45.608C2.69992 45.5315 2.91393 45.4704 3.11265 45.4092C10.1442 43.3456 17.2522 41.5724 24.4214 40.0897C24.8647 39.998 25.308 39.891 25.7513 39.8298C26.1487 39.784 26.4392 39.6005 26.7143 39.2948C27.9983 37.8579 29.2976 36.4516 30.597 35.03C37.0324 28.029 43.4831 21.028 49.9185 14.027C53.4649 10.1596 57.0112 6.30752 60.5576 2.44015C60.9856 1.96629 61.3983 1.47713 61.8263 0.98798C62.1779 0.590543 62.4684 0.529398 62.9575 0.743403C63.2785 0.880977 63.5384 1.06441 63.7371 1.35484C63.997 1.737 64.0581 2.13444 63.783 2.54716C63.248 3.32675 62.7435 4.13691 62.2085 4.9165C59.7627 8.40171 57.531 12.0092 55.4521 15.7084C51.8293 22.1592 48.8332 28.885 46.3722 35.8555C46.2957 36.0542 46.2499 36.2529 46.1734 36.5128C46.3416 36.528 46.4792 36.5586 46.6014 36.5433C47.7173 36.4363 48.8179 36.314 49.9338 36.207C50.8051 36.1153 51.6764 36.0236 52.5477 35.9625C52.8534 35.9472 53.0827 35.8402 53.2967 35.6262C53.9387 34.9841 54.6266 34.4033 55.4062 33.9294C55.8648 33.6543 56.3692 33.4097 56.8584 33.1804C57.3628 32.9511 57.9131 32.9052 58.4634 32.9511C59.136 32.997 59.7016 33.2721 60.1143 33.8071C60.3895 34.1587 60.634 34.5409 60.9245 34.9383C61.0315 34.7396 61.1538 34.5714 61.2455 34.388C63.2174 30.5206 65.1281 26.6227 66.9625 22.6942C67.421 21.7006 67.9102 20.7376 68.4146 19.7592C68.5369 19.5147 68.7356 19.2854 68.9191 19.0714C69.0719 18.8879 69.2859 18.8727 69.5152 18.9338C70.035 19.0561 70.3712 19.4688 70.4018 20.0038C70.4324 20.4471 70.2795 20.8446 70.1267 21.242C69.4541 23.0763 68.6745 24.8495 67.8796 26.6227C65.2657 32.4772 62.3002 38.1484 59.1513 43.7278C58.8303 44.3086 58.5093 44.8895 58.2036 45.4857C57.9437 45.9901 57.7603 46.5251 57.638 47.0907C57.531 47.6104 57.5768 48.1301 57.745 48.6346C57.8367 48.925 57.959 49.2155 58.28 49.4142C58.7844 49.1237 59.2124 48.7416 59.5793 48.283C60.3589 47.3047 61.1538 46.3264 61.9333 45.3328C64.6237 41.8934 67.1306 38.3165 69.4847 34.6326C69.6681 34.3574 69.8668 34.0823 69.8362 33.7154C69.8362 33.6543 69.8668 33.5778 69.8821 33.5167C70.356 32.1104 71.0744 30.8263 72.0069 29.6799C72.2361 29.3895 72.5419 29.2825 72.9699 29.4659C73.1686 29.5423 73.3367 29.6799 73.4896 29.8175C73.9329 30.2455 73.9635 30.6429 73.5966 31.1321C73.0769 31.8199 72.6489 32.5537 72.2973 33.3333C72.2209 33.5014 72.175 33.6848 72.0986 33.8988C72.4654 34.067 72.8017 34.2198 73.138 34.388C73.4896 34.5714 73.8717 34.7396 74.1928 34.9689C75.0335 35.5344 75.2934 36.1917 75.0335 37.1853C74.8348 37.9496 74.6208 38.6987 74.422 39.4477C74.3762 39.6005 74.3915 39.7534 74.3609 39.9827C74.5443 39.891 74.6819 39.8451 74.7889 39.7687C75.1405 39.4782 75.4921 39.2031 75.8131 38.8974C77.5098 37.2771 79.2066 35.6567 80.9186 34.0364C81.3008 33.6695 81.6829 33.3333 82.0651 32.9664C82.2026 32.8441 82.3402 32.6912 82.4166 32.5231C82.6154 32.0187 82.8599 31.5295 82.9364 30.9792C82.9975 30.5818 83.2574 30.4136 83.6395 30.49C84.3121 30.6123 84.8013 31.3155 84.7248 32.0339C84.6943 32.3549 84.6026 32.6912 84.5261 33.0123C84.3121 33.9141 83.9605 34.7701 83.5478 35.6109C83.0434 36.635 82.5237 37.6439 82.0192 38.6681C81.3466 40.0285 80.7505 41.4196 80.3989 42.9176C80.3072 43.3303 80.1543 43.7278 80.1849 44.1711C80.4447 44.2016 80.6282 44.0946 80.7963 43.9723C81.1021 43.7431 81.4231 43.5291 81.6829 43.2539C83.2421 41.6336 84.8013 39.998 86.3452 38.3624C86.5286 38.1636 86.6662 37.8885 86.7885 37.6439C87.5528 36.0083 88.6075 34.5867 89.968 33.3944C90.4724 32.9511 90.9921 32.5537 91.5883 32.2327C92.0316 31.9881 92.4902 31.8199 92.9946 31.7588C93.6672 31.6824 94.2633 31.8199 94.7525 32.3091C95.0582 32.6301 95.2111 32.9664 94.9512 33.3944C94.8289 33.5931 94.7678 33.8377 94.6761 34.0517C94.5538 34.3116 94.3245 34.3574 94.0952 34.2046C93.8965 34.067 93.7436 33.8836 93.7283 33.6237C93.7283 33.5167 93.7283 33.3944 93.7283 33.2874C93.4226 33.2415 93.2392 33.4097 93.0405 33.532C91.7717 34.3116 90.6864 35.2899 89.8151 36.4975C89.0814 37.5063 88.5311 38.5917 88.0725 39.8145C88.2406 39.8145 88.3782 39.8604 88.4852 39.8145C88.7298 39.7228 88.9591 39.6005 89.1731 39.4477C89.5705 39.1572 89.968 38.8515 90.3501 38.5305C91.9246 37.1548 93.4532 35.7332 94.9206 34.2504C95.0582 34.1128 95.1805 33.9753 95.3334 33.853C95.5779 33.639 95.8531 33.6237 96.113 33.8071C96.4034 34.0058 96.5562 34.2963 96.5715 34.6479C96.5868 35.3052 96.6174 35.9777 96.6327 36.635C96.648 36.8949 96.6174 37.1548 96.7855 37.4299C97.0148 37.3382 97.2288 37.2618 97.4428 37.1548C99.5217 36.1765 101.402 34.923 103.099 33.3638C103.848 32.6607 104.52 31.9117 105.147 31.0862C105.269 30.9181 105.407 30.7346 105.544 30.5818C105.774 30.3066 105.972 30.276 106.293 30.4595C106.752 30.7193 106.874 31.0403 106.676 31.5295C106.248 32.6148 105.82 33.6848 105.392 34.7701C105.315 34.9689 105.254 35.1676 105.193 35.351C105.346 35.4886 105.437 35.3816 105.544 35.3357C106.385 34.9536 107.226 34.5867 108.082 34.2046C108.495 34.0211 108.877 34.0976 109.198 34.4033C109.381 34.5714 109.473 34.7854 109.412 35.0453C109.397 35.1217 109.366 35.1829 109.351 35.244C109.198 35.9777 109.442 36.5433 110.084 36.9255C110.512 37.1853 111.002 37.3229 111.491 37.3993C113.921 37.7815 116.306 37.6745 118.675 36.9408C118.828 36.8949 118.996 36.8338 119.149 36.7879C119.562 36.6809 119.974 36.8643 120.173 37.2312C120.357 37.5981 120.28 37.8732 119.883 38.0108C118.324 38.5305 116.719 38.8515 115.068 38.8821C113.829 38.9127 112.607 38.8515 111.399 38.5611C110.849 38.4235 110.298 38.2554 109.809 37.9649C109.091 37.5522 108.541 36.9866 108.189 36.2223C108.143 36.1153 108.097 36.0083 108.036 35.9013C108.021 35.886 108.005 35.8707 107.944 35.8249C107.853 35.8555 107.715 35.8707 107.593 35.9319C107.088 36.1917 106.569 36.4363 106.079 36.7115C105.529 37.0325 105.04 37.4605 104.612 37.9496C104.322 38.3012 104.092 38.6681 103.985 39.1267C103.832 39.7687 103.634 40.4107 103.481 41.0527C103.404 41.3431 103.252 41.4807 102.9 41.4349C102.441 41.3737 102.059 41.0374 101.998 40.5636C101.937 40.105 101.983 39.6617 102.105 39.2184C102.182 38.9432 102.258 38.6681 102.396 38.4235C103.022 37.1701 103.359 35.8096 103.848 34.495C103.848 34.4797 103.832 34.4491 103.802 34.388C103.695 34.4644 103.573 34.5256 103.481 34.6173C101.723 36.0847 99.8275 37.3382 97.7333 38.2859C97.3664 38.4541 97.0148 38.6528 96.6632 38.8362C96.1282 39.1114 95.5474 38.8668 95.3945 38.2706C95.3486 38.0719 95.3334 37.8426 95.3334 37.6286C95.3181 37.1853 95.3334 36.7268 95.3181 36.2835C95.3181 36.1306 95.3028 35.9625 95.3028 35.8096C95.0582 35.7332 94.9665 35.886 94.8442 35.993C93.606 37.0172 92.3526 38.0414 91.1297 39.0961C90.396 39.7381 89.6011 40.2884 88.7451 40.7776C88.3018 41.0221 87.8432 41.175 87.3235 41.0833C86.5439 40.9457 86.2382 40.6094 86.177 39.7381C86.0547 39.8298 85.9172 39.8757 85.8407 39.9674C85.1223 40.7317 84.4191 41.496 83.7007 42.245C83.2421 42.7342 82.7835 43.208 82.3249 43.6819C81.7441 44.2934 81.0256 44.7061 80.2613 45.0424C79.9403 45.1799 79.6346 45.2411 79.2983 45.1035C78.9773 44.9659 78.7633 44.7519 78.6563 44.4004C78.32 43.2845 78.32 42.1533 78.6104 41.0374C78.8856 39.9827 79.3136 38.9738 79.8027 37.9955C80.032 37.5369 80.2613 37.0783 80.3989 36.5586C80.2613 36.6809 80.1237 36.7879 80.0015 36.9102C79.0231 37.8885 78.0601 38.8515 77.0818 39.8298C76.5927 40.319 76.0729 40.7776 75.4768 41.1291C74.8501 41.496 74.1928 41.7406 73.459 41.71C73.2144 41.6947 72.9852 41.6336 72.7864 41.5113C72.4196 41.282 72.175 40.9763 72.2667 40.5177C72.389 39.8145 72.496 39.1114 72.6489 38.4235C72.7712 37.8426 72.9393 37.2771 73.0769 36.6962C73.1074 36.5433 73.1227 36.3752 73.1533 36.1765C72.389 35.7637 71.5941 35.458 70.8604 35.1064C70.5547 35.2593 70.463 35.5192 70.3254 35.7332C67.9713 39.249 65.4797 42.6425 62.8199 45.929C62.1779 46.7238 61.5359 47.5034 60.8633 48.283C60.3589 48.8792 59.8697 49.4906 59.4723 50.1632C59.0749 50.8358 58.9067 50.8816 58.2188 50.5453C56.996 49.9645 56.2928 48.9709 55.9565 47.6869C55.6508 46.5251 55.7578 45.3787 56.1552 44.2628C56.3845 43.6361 56.6902 43.0399 56.996 42.459C57.5157 41.4807 58.0813 40.5024 58.6163 39.5394C58.708 39.3865 58.815 39.2337 58.8303 38.9585C58.6468 39.1114 58.5246 39.2031 58.4176 39.3101C56.6444 41.0068 54.7948 42.5813 52.884 44.1099C52.5171 44.4004 52.135 44.7061 51.7376 44.9507C50.9885 45.4245 50.3312 45.3787 49.6587 44.7825C48.9096 44.1252 48.6803 43.2845 48.8944 42.3367C48.9861 41.9546 49.1695 41.5877 49.3682 41.2361C50.0408 40.0133 50.7745 38.8209 51.6153 37.6898C51.6917 37.5828 51.7376 37.4605 51.8446 37.2618C51.5235 37.2923 51.2943 37.2923 51.065 37.3229C49.4752 37.5522 47.8702 37.7968 46.2804 37.9802C45.8219 38.0414 45.6231 38.2248 45.5161 38.6528C44.8741 40.854 44.1862 43.0552 43.5595 45.2717C42.4589 49.246 41.5876 53.2815 40.8998 57.3476C40.6246 58.9374 40.3953 60.5271 40.166 62.1322C39.952 63.5843 39.7227 65.0365 39.524 66.4887C39.4781 66.7944 39.4629 67.1001 39.417 67.4059C39.3406 67.8797 39.0654 68.0479 38.6068 67.9409C38.3164 67.8644 38.0871 67.7269 37.8731 67.5281C37.6285 67.2989 37.5521 67.0237 37.5521 66.6874C37.5827 65.9995 37.5827 65.3117 37.6133 64.6238C37.8731 60.2367 38.5151 55.8955 39.3559 51.5848C40.166 47.4117 41.2208 43.2998 42.4589 39.249C42.3978 38.9891 42.4284 38.7751 42.4895 38.5305ZM43.0398 36.956C43.1468 36.6503 43.2232 36.4363 43.2997 36.207C45.134 30.7346 47.3046 25.3998 49.8879 20.2484C50.958 18.1236 52.1044 16.06 53.2203 13.9658C53.2814 13.8435 53.4343 13.7213 53.312 13.5225C45.3327 22.0063 37.3992 30.4442 29.4505 38.8974C29.4199 38.928 29.4352 38.9891 29.4199 39.0502C29.4811 39.0655 29.5422 39.0961 29.6034 39.0961C34.0363 38.2706 38.4998 37.5369 43.0398 36.956ZM59.7627 34.8771C58.922 34.602 58.6163 34.5867 57.9284 34.923C57.3934 35.1829 56.889 35.5039 56.4151 35.8402C55.6966 36.3446 55.0852 36.9713 54.5043 37.6439C52.9757 39.4171 51.814 41.4196 50.6522 43.4373C50.5452 43.6208 50.4841 43.8348 50.4382 44.0335C50.3924 44.1863 50.5452 44.3392 50.6828 44.2781C50.9427 44.1558 51.2025 44.0335 51.4165 43.8653C54.382 41.5572 57.1488 39.0502 59.7016 36.2988C59.8239 36.1612 59.9462 36.0083 60.0532 35.886C59.9462 35.5344 59.8544 35.2134 59.7627 34.8771Z" fill="white"/>
<path d="M221.688 34.1892C220.832 35.0146 219.991 35.8401 219.135 36.6655C218.707 37.0782 218.264 37.4757 217.805 37.8425C217.392 38.1788 216.934 38.4081 216.414 38.5304C215.589 38.7291 214.87 38.5304 214.213 38.026C213.846 37.7508 213.678 37.384 213.678 36.9254C213.678 36.3751 213.754 35.8401 213.923 35.3203C214.091 34.8006 214.289 34.2962 214.473 33.7765C214.565 33.5319 214.672 33.3026 214.763 33.058C214.626 32.9052 214.534 33.0274 214.458 33.0886C213.433 33.8682 212.424 34.6478 211.4 35.4273C211.171 35.5955 210.957 35.7789 210.712 35.9165C210.453 36.0694 210.162 36.2069 209.872 36.2834C209.016 36.5127 208.221 36.0541 207.992 35.2133C207.9 34.8923 207.869 34.556 207.885 34.235C207.915 33.2873 207.992 32.3396 208.053 31.3918C208.068 31.2543 208.068 31.1167 208.083 30.9027C207.93 30.9485 207.808 30.9638 207.732 31.0097C205.683 32.3243 203.834 33.8682 202.198 35.6719C202.015 35.8706 201.877 36.1458 201.755 36.3904C201.021 38.0413 200.303 39.6922 199.584 41.3431C199.493 41.5418 199.416 41.7405 199.294 41.9086C199.049 42.2908 198.667 42.4131 198.239 42.2755C197.307 41.9851 197.016 41.0679 197.307 40.4106C197.368 40.2577 197.444 40.1049 197.505 39.952C198.988 36.7725 200.456 33.593 201.938 30.3982C202.015 30.2301 202.076 30.0619 202.152 29.8785C201.969 29.8174 201.923 29.9397 201.847 30.0161C201.77 30.0772 201.709 30.1537 201.648 30.2301C200.211 31.8351 198.759 33.4402 197.322 35.0452C197.016 35.3815 196.726 35.7331 196.405 36.0388C196.114 36.3139 195.793 36.5585 195.472 36.8031C195.105 37.0782 194.677 37.1088 194.249 37.0018C193.21 36.7419 192.4 35.7942 192.293 34.7089C192.247 34.235 192.262 33.7612 192.43 33.3026C192.491 33.1344 192.537 32.951 192.614 32.6606C192.43 32.8287 192.339 32.9052 192.262 32.9816C191.406 33.914 190.428 34.7089 189.45 35.5038C189.266 35.6566 189.067 35.7942 188.853 35.9012C187.921 36.3904 186.897 36.0235 186.499 35.0452C186.377 34.77 186.346 34.449 186.255 34.1127C186.087 34.2045 185.918 34.2809 185.781 34.3879C185.261 34.7548 184.757 35.1522 184.222 35.5038C183.748 35.8248 183.259 36.1152 182.754 36.3751C182.403 36.5585 182.005 36.6808 181.623 36.7878C179.957 37.2311 178.749 35.9318 178.505 34.8159C178.352 34.128 178.398 33.4402 178.596 32.7829C178.719 32.3243 178.917 31.8963 179.07 31.4377C179.147 31.239 179.208 31.0403 179.254 30.8263C179.269 30.7957 179.238 30.7345 179.208 30.6581C179.086 30.7192 178.948 30.7804 178.841 30.8415C176.869 32.1409 175.081 33.6542 173.537 35.4426C173.323 35.7025 173.139 35.9624 173.048 36.2987C172.543 37.9495 172.023 39.6004 171.488 41.2513C171.412 41.4806 171.351 41.7099 171.244 41.9239C170.984 42.4436 170.541 42.5965 169.99 42.3825C169.257 42.0921 168.829 41.4195 168.92 40.6399C168.951 40.3342 169.043 40.0285 169.134 39.738C169.945 37.3075 170.77 34.8923 171.58 32.4619C171.611 32.3701 171.626 32.2784 171.672 32.1256C171.397 32.202 171.29 32.3701 171.152 32.5077C169.41 34.1586 167.682 35.8095 165.94 37.4451C165.527 37.8273 165.084 38.1941 164.64 38.5457C163.952 39.096 163.173 39.2489 162.149 38.5457C161.629 38.1788 161.277 37.6744 161.125 37.0477C161.079 36.8337 161.018 36.6044 160.941 36.3292C160.773 36.4668 160.635 36.5585 160.513 36.6502C159.749 37.2922 158.984 37.9343 158.22 38.561C157.823 38.8973 157.41 39.2183 156.967 39.4934C155.851 40.166 154.735 40.0743 153.711 39.2947C152.702 38.5304 152.106 37.491 152.029 36.2069C152.029 36.1152 152.014 36.0235 152.014 35.9165C152.014 35.8859 151.999 35.8706 151.999 35.8401C151.861 35.7484 151.785 35.8401 151.693 35.9165C151.448 36.1458 151.204 36.3751 150.975 36.6044C149.675 37.919 148.376 39.2336 147.077 40.5482C146.878 40.7469 146.664 40.9456 146.435 41.1138C145.67 41.6182 144.799 41.4959 144.203 40.7927C143.607 40.0743 143.423 39.2336 143.714 38.3317C143.821 37.9954 143.989 37.6744 144.172 37.3687C145.456 35.1216 147.061 33.1497 148.987 31.4224C149.507 30.9638 150.042 30.5358 150.654 30.2301C151.51 29.8021 152.396 29.6034 153.344 29.8938C154.124 30.1231 154.735 30.5817 155.178 31.2695C155.438 31.6517 155.56 32.0797 155.545 32.5536C155.53 32.8899 155.301 33.0122 154.995 32.844C154.75 32.7217 154.567 32.5383 154.536 32.2478C154.521 32.1561 154.506 32.0644 154.49 31.9727C154.399 31.5906 154.139 31.3765 153.757 31.2848C153.374 31.2084 153.008 31.2695 152.641 31.4071C152.121 31.6058 151.678 31.9268 151.265 32.2784C149.996 33.3943 148.85 34.6325 147.872 36.0082C147.245 36.8948 146.664 37.8273 146.098 38.7597C145.9 39.0807 145.777 39.4476 145.624 39.7992C145.594 39.8756 145.624 39.9673 145.624 40.1049C146.037 39.9367 146.312 39.631 146.603 39.3559C147.321 38.6374 148.04 37.9037 148.758 37.1852C149.171 36.7572 149.599 36.3445 150.027 35.9318C150.761 35.2133 151.433 34.4643 152.045 33.6389C152.32 33.272 152.595 32.9204 152.87 32.5689C153.069 32.2937 153.329 32.2631 153.634 32.3549C154.307 32.5841 154.597 33.1192 154.399 33.807C154.2 34.4949 153.986 35.1675 153.818 35.8554C153.68 36.4362 153.68 37.0324 153.894 37.6133C153.971 37.812 154.062 38.0107 154.169 38.1788C154.628 38.8361 155.27 39.0196 155.973 38.6527C156.309 38.4846 156.63 38.2553 156.921 38.026C158.709 36.5432 160.483 35.0452 162.256 33.5319C162.485 33.3332 162.684 33.0886 162.867 32.844C163.708 31.7434 164.518 30.6428 165.359 29.5422C165.512 29.3282 165.68 29.1295 165.863 28.9461C166.092 28.7321 166.322 28.5333 166.597 28.3805C166.979 28.1512 167.407 28.1359 167.835 28.3041C168.309 28.4875 168.706 28.7779 168.997 29.2059C169.211 29.5269 169.257 29.8632 169.104 30.2148C169.012 30.4288 168.798 30.5205 168.569 30.4441C168.309 30.3524 168.11 30.1842 168.08 29.8938C168.064 29.8021 168.064 29.7257 168.049 29.5728C167.56 29.8174 167.132 30.0467 167.147 30.6581C167.147 30.7804 167.056 30.9332 166.964 31.0097C166.276 31.5447 165.833 32.2784 165.343 32.9816C164.778 33.807 164.182 34.6019 163.631 35.4273C163.387 35.7789 163.173 36.1458 163.005 36.5432C162.882 36.8184 162.837 37.1394 162.821 37.4451C162.791 37.8731 162.959 38.0107 163.372 37.9495C163.754 37.8884 164.105 37.7661 164.411 37.5215C164.64 37.3534 164.854 37.17 165.053 36.9712C166.826 35.2592 168.599 33.5319 170.357 31.8198C170.953 31.239 171.534 30.6428 172.146 30.0772C172.451 29.8021 172.665 29.4811 172.803 29.0836C173.766 26.485 174.806 23.917 175.921 21.3642C177.068 18.735 178.291 16.1364 179.605 13.5836C179.865 13.0791 180.156 12.59 180.461 12.1008C180.568 11.9174 180.706 11.7493 180.859 11.6117C181.149 11.3365 181.379 11.3213 181.669 11.5658C181.975 11.8104 182.128 12.1161 182.021 12.4983C181.929 12.8651 181.837 13.232 181.7 13.5836C181.18 14.8829 180.645 16.1669 180.11 17.4662C178.138 22.2966 176.227 27.1423 174.485 32.0644C174.408 32.2784 174.332 32.5077 174.255 32.7217C174.393 32.8134 174.439 32.7064 174.5 32.6606C174.576 32.5994 174.637 32.523 174.699 32.4619C176.013 31.1473 177.45 29.9855 178.994 28.9614C179.086 28.9002 179.193 28.8238 179.284 28.7626C179.804 28.4416 180.309 28.5486 180.599 29.0836C180.798 29.4658 180.889 29.8785 180.92 30.3065C180.951 30.8415 180.844 31.346 180.706 31.8504C180.584 32.2784 180.431 32.7064 180.278 33.1344C180.095 33.6847 180.003 34.235 180.064 34.8159C180.125 35.4273 180.4 35.6414 181.012 35.5955C181.47 35.5649 181.898 35.4121 182.296 35.1828C182.785 34.9076 183.289 34.6172 183.763 34.2962C184.94 33.5013 186.117 32.6911 187.279 31.881C187.493 31.7281 187.661 31.5294 187.814 31.3307C188.395 30.597 189.006 29.9244 189.771 29.3741C190.336 28.9766 190.932 28.6403 191.635 28.5181C191.666 28.5181 191.681 28.5028 191.712 28.5028C192.522 28.3652 193.225 28.5181 193.669 29.3435C193.913 29.2212 194.158 29.0989 194.402 28.9766C194.586 28.8849 194.769 28.9155 194.953 28.9919C195.274 29.1295 195.472 29.3894 195.61 29.7104C195.778 30.1231 195.778 30.5358 195.686 30.9638C195.579 31.5294 195.35 32.0491 195.09 32.5536C194.861 32.9969 194.632 33.4402 194.433 33.8987C194.311 34.1739 194.234 34.4796 194.188 34.7853C194.142 35.0452 194.188 35.3051 194.295 35.5496C194.463 35.9165 194.754 36.0388 195.105 35.8706C195.335 35.7636 195.549 35.5955 195.747 35.4273C195.946 35.2592 196.114 35.0452 196.282 34.8618C198.254 32.5841 200.226 30.3065 202.198 28.0289C202.382 27.8149 202.55 27.5703 202.779 27.4022C203.192 27.0965 203.36 26.6837 203.467 26.2099C203.528 25.9347 203.635 25.6596 203.757 25.3997C203.849 25.1857 204.063 25.1093 204.292 25.1704C204.705 25.2621 204.965 25.5679 205.041 26.0111C205.164 26.699 205.072 27.3869 204.95 28.0595C204.736 29.1295 204.369 30.1537 203.971 31.1778C203.696 31.881 203.39 32.5841 203.1 33.272C203.069 33.3484 203.054 33.4402 203.024 33.5319C203.161 33.6236 203.222 33.5166 203.268 33.4554C204.629 32.1561 206.081 30.9944 207.671 29.9855C207.93 29.8174 208.144 29.5881 208.374 29.3894C208.542 29.2518 208.725 29.2365 208.893 29.3588C209.169 29.5422 209.337 29.7868 209.367 30.1231C209.398 30.4594 209.413 30.7804 209.398 31.1167C209.337 32.2479 209.245 33.3943 209.184 34.5255C209.169 34.7548 209.092 34.9993 209.245 35.2286C209.612 35.2592 209.933 35.1063 210.239 34.9229C210.636 34.663 211.033 34.4032 211.416 34.128C212.898 33.0274 214.381 31.9116 215.849 30.7957C216.047 30.6428 216.215 30.4288 216.384 30.2301C216.796 29.7409 217.178 29.2212 217.591 28.7321C217.882 28.3958 218.233 28.1818 218.676 28.09C219.502 27.9066 220.45 28.6098 220.541 29.4352C220.572 29.7257 220.496 29.9549 220.251 30.1078C220.022 30.2454 219.792 30.1995 219.578 30.0772C219.441 29.9855 219.319 29.8785 219.166 29.7562C219.059 29.8785 218.936 29.9855 218.829 30.1078C217.515 31.8657 216.491 33.7765 215.818 35.8859C215.665 36.3751 215.482 36.8642 215.283 37.3992C215.421 37.4451 215.543 37.5063 215.665 37.5215C216.063 37.5521 216.429 37.4298 216.735 37.2005C217.224 36.8337 217.713 36.4515 218.157 36.0235C219.242 34.9993 220.297 33.9446 221.367 32.8899C222.009 32.2631 222.666 31.6364 223.308 31.0097C223.66 30.6734 224.027 30.383 224.5 30.3982C225.433 29.4964 226.335 28.6251 227.237 27.7538C227.42 27.5703 227.634 27.4022 227.833 27.2493C228.184 27.0047 228.582 26.8672 229.025 26.8519C229.667 26.8213 230.294 27.2646 230.279 28.09C230.279 28.4111 230.202 28.7473 230.08 29.0531C229.377 30.918 227.986 31.988 226.06 32.4007C225.922 32.4313 225.784 32.4313 225.616 32.4619C224.852 33.4554 224.088 34.449 223.568 35.6108C223.385 36.0388 223.262 36.5127 223.14 36.956C223.094 37.0935 223.094 37.2311 223.109 37.384C223.14 38.1024 223.492 38.454 224.21 38.5304C224.791 38.5916 225.356 38.5151 225.892 38.3011C226.472 38.0871 227.038 37.8425 227.588 37.5674C229.285 36.7114 230.859 35.6566 232.403 34.5408C235.14 32.5689 237.86 30.597 240.597 28.6251C241.499 27.9678 242.416 27.341 243.333 26.7143C243.608 26.5309 243.898 26.3627 244.189 26.2099C244.418 26.0876 244.647 26.1181 244.846 26.3016C245.03 26.4697 245.06 26.6684 244.877 26.8672C244.617 27.1423 244.342 27.4175 244.051 27.662C243.532 28.1053 242.981 28.5333 242.446 28.9614C239.144 31.5906 235.782 34.1433 232.327 36.5738C231.119 37.4298 229.896 38.2247 228.597 38.9126C227.802 39.3406 226.977 39.7074 226.09 39.8756C225.295 40.0437 224.485 40.0437 223.69 39.8144C223.048 39.6157 222.467 39.2947 222.009 38.775C221.168 37.8273 220.969 36.7267 221.275 35.5191C221.367 35.1522 221.52 34.8006 221.657 34.449C221.703 34.342 221.734 34.235 221.78 34.1433C221.764 34.235 221.718 34.2045 221.688 34.1892ZM192.293 30.276C192.002 30.3982 191.742 30.4594 191.544 30.597C191.131 30.8721 190.718 31.1625 190.367 31.4988C189.618 32.202 189.006 33.0122 188.456 33.8682C188.242 34.2045 188.104 34.5866 187.952 34.9535C187.906 35.0758 187.86 35.2286 187.997 35.3509C188.257 35.4426 188.487 35.3509 188.731 35.2439C189.129 35.0758 189.48 34.8312 189.786 34.5255C190.779 33.5472 191.712 32.5077 192.522 31.3765C192.644 31.2084 192.751 31.025 192.874 30.8263C192.675 30.6581 192.507 30.49 192.293 30.276ZM229.453 27.876C229.117 27.9983 229.132 27.9983 228.995 28.1512C228.658 28.5792 228.307 28.9919 227.97 29.4199C227.481 30.0314 227.007 30.6581 226.549 31.2848C226.488 31.3613 226.381 31.453 226.457 31.5753C228.184 31.1625 229.698 29.2824 229.453 27.876Z" fill="white"/>
<path d="M128.596 47.9313C129.467 47.8396 130.186 47.7632 130.919 47.6868C132.096 47.5645 133.273 47.4422 134.45 47.3199C135.826 47.1823 137.187 47.06 138.562 46.9377C139.908 46.8155 141.253 46.7085 142.598 46.6167C144.539 46.4792 146.481 46.3416 148.422 46.2193C149.339 46.1582 150.271 46.097 151.189 46.0664C154.2 45.9442 157.211 45.8066 160.223 45.7301C163.234 45.6537 166.245 45.6231 169.257 45.562C173.262 45.4856 177.267 45.5926 181.287 45.6537C182.051 45.669 182.8 45.7149 183.564 45.7301C183.931 45.7454 184.206 45.883 184.359 46.2193C184.497 46.5097 184.375 46.7543 184.038 46.7543C183.656 46.7696 183.274 46.7543 182.907 46.7543C179.04 46.7696 175.172 46.739 171.305 46.8002C167.789 46.8613 164.289 47.0142 160.788 47.1365C159.367 47.1823 157.945 47.2435 156.523 47.3352C154.613 47.4422 152.687 47.5798 150.776 47.702C149.232 47.809 147.703 47.9161 146.16 48.0383C144.723 48.1453 143.27 48.2829 141.834 48.4052C140.626 48.5122 139.418 48.6192 138.226 48.7415C136.621 48.9096 135.016 49.0778 133.411 49.2459C131.989 49.3988 130.583 49.5669 129.177 49.7351C128.795 49.7809 128.428 49.8268 128.03 49.888C127.969 50.0408 127.893 50.1937 127.847 50.3465C127.327 52.0739 126.93 53.8317 126.578 55.5896C126.486 56.0482 126.364 56.5221 126.242 56.9654C126.15 57.3017 125.905 57.3934 125.569 57.2711C125.263 57.1488 125.049 56.9348 125.019 56.5985C124.988 56.2164 124.973 55.8342 124.988 55.4674C125.019 54.2598 125.202 53.0522 125.37 51.8599C125.432 51.4777 125.508 51.1108 125.554 50.744C125.569 50.5911 125.554 50.423 125.554 50.2242C125.416 50.2395 125.294 50.2395 125.187 50.2548C120.51 50.851 115.847 51.5541 111.185 52.3337C107.837 52.8993 104.505 53.4649 101.188 54.168C100.118 54.3973 99.0632 54.6572 98.0238 55.0088C97.825 55.0699 97.6416 55.1616 97.4123 55.2534C97.5652 55.4521 97.718 55.6049 97.825 55.7731C98.0237 56.1094 97.8862 56.3998 97.504 56.4304C96.434 56.5221 95.3793 56.6138 94.3092 56.6597C93.6061 56.6902 93.0099 56.2164 92.8112 55.5744C92.7042 55.2228 92.7348 55.0241 93.0252 54.8253C93.4379 54.5502 93.8659 54.275 94.3092 54.061C95.7767 53.3273 97.3359 52.8229 98.9409 52.4866C100.928 52.0739 102.946 51.6917 104.948 51.3401C107.471 50.8968 109.993 50.4841 112.53 50.102C114.64 49.781 116.749 49.4752 118.859 49.1848C120.876 48.9096 122.894 48.6498 124.927 48.3746C125.294 48.3288 125.691 48.3593 126.058 48.1912C126.135 47.8855 126.211 47.5798 126.288 47.2893C126.823 45.3021 127.342 43.2997 128.091 41.3736C129.345 38.0871 130.766 34.8923 132.326 31.7434C134.298 27.769 136.3 23.8252 138.287 19.8509C139.999 16.4115 141.635 12.9416 143.026 9.34936C143.439 8.29462 143.836 7.2246 144.249 6.15457C144.34 5.94057 144.432 5.71128 144.539 5.49727C144.692 5.19155 144.906 5.08455 145.242 5.13041C145.93 5.22212 146.526 5.97114 146.404 6.6743C146.312 7.20931 146.16 7.74432 146.007 8.26405C145.426 10.2207 144.646 12.1008 143.882 13.9963C142.43 17.5732 140.764 21.0585 139.052 24.5284C137.095 28.4875 135.092 32.4007 133.243 36.4057C131.653 39.8603 130.247 43.3761 128.947 46.9377C128.81 47.2282 128.718 47.5186 128.596 47.9313Z" fill="white"/>
<path d="M90.5335 27.1881C90.717 27.0505 90.8851 26.9283 91.0533 26.806C91.8328 26.2557 92.536 25.6442 93.1322 24.8799C93.3767 24.5589 93.6519 24.2685 93.9423 23.9781C94.6608 23.2443 95.3181 22.48 95.8989 21.624C96.1741 21.2113 96.4187 21.1349 96.862 21.2877C97.3205 21.4559 97.6874 21.7463 97.8708 22.2202C98.0084 22.5717 97.9625 22.8163 97.6721 23.0456C96.2658 24.2073 94.9053 25.4302 93.2239 26.2098C92.6277 26.485 92.0621 26.8518 91.4966 27.1881C91.3284 27.2798 91.1755 27.3868 91.0074 27.4633C90.7934 27.5703 90.6558 27.4938 90.5335 27.1881Z" fill="white"/>
<path d="M83.4408 26.1183C82.4625 26.103 81.7746 25.033 82.2026 24.2076C82.4778 23.6725 83.0892 23.4433 83.6548 23.642C84.0675 23.7948 84.4038 24.0547 84.6178 24.4368C84.8624 24.8801 84.786 25.247 84.3427 25.5222C84.1898 25.6139 84.1134 25.7362 84.0064 25.8585C83.8076 26.0725 83.7006 26.1183 83.4408 26.1183Z" fill="white"/>
</g>
<g filter="url(#filter1_d_3425_1851)">
<path d="M50.0918 41.0397H45.3718L44.6718 43.1797H40.0118L45.1918 29.0197H50.3118L55.4718 43.1797H50.7918L50.0918 41.0397ZM49.0118 37.6997L47.7318 33.7597L46.4518 37.6997H49.0118ZM55.8806 37.5397C55.8806 36.353 56.0806 35.3264 56.4806 34.4597C56.8939 33.5797 57.4539 32.913 58.1606 32.4597C58.8673 31.993 59.6606 31.7597 60.5406 31.7597C61.2739 31.7597 61.9006 31.913 62.4206 32.2197C62.9539 32.513 63.3606 32.9197 63.6406 33.4397V28.3797H68.0806V43.1797H63.6406V41.6397C63.3606 42.1597 62.9539 42.573 62.4206 42.8797C61.9006 43.173 61.2739 43.3197 60.5406 43.3197C59.6606 43.3197 58.8673 43.093 58.1606 42.6397C57.4539 42.173 56.8939 41.5064 56.4806 40.6397C56.0806 39.7597 55.8806 38.7264 55.8806 37.5397ZM63.6606 37.5397C63.6606 36.9397 63.5073 36.473 63.2006 36.1397C62.8939 35.8064 62.5006 35.6397 62.0206 35.6397C61.5406 35.6397 61.1473 35.8064 60.8406 36.1397C60.5339 36.473 60.3806 36.9397 60.3806 37.5397C60.3806 38.1397 60.5339 38.6064 60.8406 38.9397C61.1473 39.273 61.5406 39.4397 62.0206 39.4397C62.5006 39.4397 62.8939 39.273 63.2006 38.9397C63.5073 38.6064 63.6606 38.1397 63.6606 37.5397ZM74.5143 33.9797C74.9677 33.3264 75.521 32.8064 76.1743 32.4197C76.8277 32.0197 77.5077 31.8197 78.2143 31.8197V36.5597H76.9543C76.1143 36.5597 75.4943 36.7064 75.0943 36.9997C74.7077 37.293 74.5143 37.813 74.5143 38.5597V43.1797H70.0743V31.8997H74.5143V33.9797ZM81.6503 30.9997C80.8769 30.9997 80.2569 30.793 79.7903 30.3797C79.3236 29.9664 79.0903 29.4464 79.0903 28.8197C79.0903 28.1797 79.3236 27.653 79.7903 27.2397C80.2569 26.813 80.8769 26.5997 81.6503 26.5997C82.4103 26.5997 83.0236 26.813 83.4903 27.2397C83.9569 27.653 84.1903 28.1797 84.1903 28.8197C84.1903 29.4464 83.9569 29.9664 83.4903 30.3797C83.0236 30.793 82.4103 30.9997 81.6503 30.9997ZM83.8503 31.8997V43.1797H79.4103V31.8997H83.8503ZM85.2556 37.5397C85.2556 36.353 85.4556 35.3264 85.8556 34.4597C86.2689 33.5797 86.8289 32.913 87.5356 32.4597C88.2423 31.993 89.0356 31.7597 89.9156 31.7597C90.6489 31.7597 91.2823 31.913 91.8156 32.2197C92.3489 32.513 92.7556 32.9197 93.0356 33.4397V31.8997H97.4556V43.1797H93.0356V41.6397C92.7556 42.1597 92.3489 42.573 91.8156 42.8797C91.2823 43.173 90.6489 43.3197 89.9156 43.3197C89.0356 43.3197 88.2423 43.093 87.5356 42.6397C86.8289 42.173 86.2689 41.5064 85.8556 40.6397C85.4556 39.7597 85.2556 38.7264 85.2556 37.5397ZM93.0356 37.5397C93.0356 36.9397 92.8823 36.473 92.5756 36.1397C92.2689 35.8064 91.8756 35.6397 91.3956 35.6397C90.9156 35.6397 90.5223 35.8064 90.2156 36.1397C89.9089 36.473 89.7556 36.9397 89.7556 37.5397C89.7556 38.1397 89.9089 38.6064 90.2156 38.9397C90.5223 39.273 90.9156 39.4397 91.3956 39.4397C91.8756 39.4397 92.2689 39.273 92.5756 38.9397C92.8823 38.6064 93.0356 38.1397 93.0356 37.5397ZM107.349 31.8197C108.643 31.8197 109.649 32.253 110.369 33.1197C111.103 33.9864 111.469 35.1597 111.469 36.6397V43.1797H107.049V37.1997C107.049 36.6664 106.903 36.2464 106.609 35.9397C106.329 35.6197 105.949 35.4597 105.469 35.4597C104.976 35.4597 104.589 35.6197 104.309 35.9397C104.029 36.2464 103.889 36.6664 103.889 37.1997V43.1797H99.4493V31.8997H103.889V33.6197C104.236 33.0864 104.696 32.653 105.269 32.3197C105.856 31.9864 106.549 31.8197 107.349 31.8197ZM121.233 39.8197H125.513V43.1797H116.793V29.0197H121.233V39.8197ZM126.31 37.5397C126.31 36.353 126.51 35.3264 126.91 34.4597C127.324 33.5797 127.884 32.913 128.59 32.4597C129.297 31.993 130.09 31.7597 130.97 31.7597C131.704 31.7597 132.337 31.913 132.87 32.2197C133.404 32.513 133.81 32.9197 134.09 33.4397V31.8997H138.51V43.1797H134.09V41.6397C133.81 42.1597 133.404 42.573 132.87 42.8797C132.337 43.173 131.704 43.3197 130.97 43.3197C130.09 43.3197 129.297 43.093 128.59 42.6397C127.884 42.173 127.324 41.5064 126.91 40.6397C126.51 39.7597 126.31 38.7264 126.31 37.5397ZM134.09 37.5397C134.09 36.9397 133.937 36.473 133.63 36.1397C133.324 35.8064 132.93 35.6397 132.45 35.6397C131.97 35.6397 131.577 35.8064 131.27 36.1397C130.964 36.473 130.81 36.9397 130.81 37.5397C130.81 38.1397 130.964 38.6064 131.27 38.9397C131.577 39.273 131.97 39.4397 132.45 39.4397C132.93 39.4397 133.324 39.273 133.63 38.9397C133.937 38.6064 134.09 38.1397 134.09 37.5397ZM139.904 37.5397C139.904 36.3664 140.144 35.3464 140.624 34.4797C141.117 33.5997 141.797 32.9264 142.664 32.4597C143.544 31.993 144.544 31.7597 145.664 31.7597C147.131 31.7597 148.364 32.173 149.364 32.9997C150.377 33.8264 151.017 34.973 151.284 36.4397H146.584C146.411 35.853 146.071 35.5597 145.564 35.5597C145.204 35.5597 144.917 35.7264 144.704 36.0597C144.504 36.393 144.404 36.8864 144.404 37.5397C144.404 38.193 144.504 38.6864 144.704 39.0197C144.917 39.353 145.204 39.5197 145.564 39.5197C146.071 39.5197 146.411 39.2264 146.584 38.6397H151.284C151.017 40.1064 150.377 41.253 149.364 42.0797C148.364 42.9064 147.131 43.3197 145.664 43.3197C144.544 43.3197 143.544 43.0864 142.664 42.6197C141.797 42.153 141.117 41.4864 140.624 40.6197C140.144 39.7397 139.904 38.713 139.904 37.5397ZM160.592 31.8197C161.885 31.8197 162.892 32.253 163.612 33.1197C164.345 33.9864 164.712 35.1597 164.712 36.6397V43.1797H160.292V37.1997C160.292 36.6664 160.145 36.2464 159.852 35.9397C159.572 35.6197 159.192 35.4597 158.712 35.4597C158.218 35.4597 157.832 35.6197 157.552 35.9397C157.272 36.2464 157.132 36.6664 157.132 37.1997V43.1797H152.692V28.3797H157.132V33.6197C157.478 33.0864 157.938 32.653 158.512 32.3197C159.098 31.9864 159.792 31.8197 160.592 31.8197ZM166.037 37.5397C166.037 36.353 166.237 35.3264 166.637 34.4597C167.05 33.5797 167.61 32.913 168.317 32.4597C169.024 31.993 169.817 31.7597 170.697 31.7597C171.43 31.7597 172.064 31.913 172.597 32.2197C173.13 32.513 173.537 32.9197 173.817 33.4397V31.8997H178.237V43.1797H173.817V41.6397C173.537 42.1597 173.13 42.573 172.597 42.8797C172.064 43.173 171.43 43.3197 170.697 43.3197C169.817 43.3197 169.024 43.093 168.317 42.6397C167.61 42.173 167.05 41.5064 166.637 40.6397C166.237 39.7597 166.037 38.7264 166.037 37.5397ZM173.817 37.5397C173.817 36.9397 173.664 36.473 173.357 36.1397C173.05 35.8064 172.657 35.6397 172.177 35.6397C171.697 35.6397 171.304 35.8064 170.997 36.1397C170.69 36.473 170.537 36.9397 170.537 37.5397C170.537 38.1397 170.69 38.6064 170.997 38.9397C171.304 39.273 171.697 39.4397 172.177 39.4397C172.657 39.4397 173.05 39.273 173.357 38.9397C173.664 38.6064 173.817 38.1397 173.817 37.5397ZM188.131 31.8197C189.424 31.8197 190.431 32.253 191.151 33.1197C191.884 33.9864 192.251 35.1597 192.251 36.6397V43.1797H187.831V37.1997C187.831 36.6664 187.684 36.2464 187.391 35.9397C187.111 35.6197 186.731 35.4597 186.251 35.4597C185.757 35.4597 185.371 35.6197 185.091 35.9397C184.811 36.2464 184.671 36.6664 184.671 37.1997V43.1797H180.231V31.8997H184.671V33.6197C185.017 33.0864 185.477 32.653 186.051 32.3197C186.637 31.9864 187.331 31.8197 188.131 31.8197ZM193.576 37.5397C193.576 36.3664 193.816 35.3464 194.296 34.4797C194.789 33.5997 195.469 32.9264 196.336 32.4597C197.216 31.993 198.216 31.7597 199.336 31.7597C200.803 31.7597 202.036 32.173 203.036 32.9997C204.049 33.8264 204.689 34.973 204.956 36.4397H200.256C200.083 35.853 199.743 35.5597 199.236 35.5597C198.876 35.5597 198.589 35.7264 198.376 36.0597C198.176 36.393 198.076 36.8864 198.076 37.5397C198.076 38.193 198.176 38.6864 198.376 39.0197C198.589 39.353 198.876 39.5197 199.236 39.5197C199.743 39.5197 200.083 39.2264 200.256 38.6397H204.956C204.689 40.1064 204.049 41.253 203.036 42.0797C202.036 42.9064 200.803 43.3197 199.336 43.3197C198.216 43.3197 197.216 43.0864 196.336 42.6197C195.469 42.153 194.789 41.4864 194.296 40.6197C193.816 39.7397 193.576 38.713 193.576 37.5397ZM217.283 37.4397C217.283 37.7464 217.263 38.0397 217.223 38.3197H210.083C210.15 39.293 210.557 39.7797 211.303 39.7797C211.783 39.7797 212.13 39.5597 212.343 39.1197H217.043C216.883 39.9197 216.543 40.6397 216.023 41.2797C215.517 41.9064 214.87 42.4064 214.083 42.7797C213.31 43.1397 212.457 43.3197 211.523 43.3197C210.403 43.3197 209.403 43.0864 208.523 42.6197C207.657 42.153 206.977 41.4864 206.483 40.6197C206.003 39.7397 205.763 38.713 205.763 37.5397C205.763 36.3664 206.003 35.3464 206.483 34.4797C206.977 33.5997 207.657 32.9264 208.523 32.4597C209.403 31.993 210.403 31.7597 211.523 31.7597C212.643 31.7597 213.637 31.993 214.503 32.4597C215.383 32.913 216.063 33.5664 216.543 34.4197C217.037 35.273 217.283 36.2797 217.283 37.4397ZM212.783 36.3797C212.783 36.0064 212.663 35.7264 212.423 35.5397C212.183 35.3397 211.883 35.2397 211.523 35.2397C210.737 35.2397 210.277 35.6197 210.143 36.3797H212.783Z" fill="white"/>
</g>
<defs>
<filter id="filter0_d_3425_1851" x="0.634951" y="0.621948" width="245.73" height="70.08" filterUnits="userSpaceOnUse" color-interpolation-filters="sRGB">
<feFlood flood-opacity="0" result="BackgroundImageFix"/>
<feColorMatrix in="SourceAlpha" type="matrix" values="0 0 0 0 0 0 0 0 0 0 0 0 0 0 0 0 0 0 127 0" result="hardAlpha"/>
<feOffset dy="1.36505"/>
<feGaussianBlur stdDeviation="0.682524"/>
<feComposite in2="hardAlpha" operator="out"/>
<feColorMatrix type="matrix" values="0 0 0 0 0 0 0 0 0 0 0 0 0 0 0 0 0 0 0.25 0"/>
<feBlend mode="normal" in2="BackgroundImageFix" result="effect1_dropShadow_3425_1851"/>
<feBlend mode="normal" in="SourceGraphic" in2="effect1_dropShadow_3425_1851" result="shape"/>
</filter>
<filter id="filter1_d_3425_1851" x="36.0118" y="26.5997" width="185.272" height="24.72" filterUnits="userSpaceOnUse" color-interpolation-filters="sRGB">
<feFlood flood-opacity="0" result="BackgroundImageFix"/>
<feColorMatrix in="SourceAlpha" type="matrix" values="0 0 0 0 0 0 0 0 0 0 0 0 0 0 0 0 0 0 127 0" result="hardAlpha"/>
<feOffset dy="4"/>
<feGaussianBlur stdDeviation="2"/>
<feComposite in2="hardAlpha" operator="out"/>
<feColorMatrix type="matrix" values="0 0 0 0 0 0 0 0 0 0 0 0 0 0 0 0 0 0 0.25 0"/>
<feBlend mode="normal" in2="BackgroundImageFix" result="effect1_dropShadow_3425_1851"/>
<feBlend mode="normal" in="SourceGraphic" in2="effect1_dropShadow_3425_1851" result="shape"/>
</filter>
</defs>
</svg>
