<svg width="1022" height="285" viewBox="0 0 1022 285" fill="none" xmlns="http://www.w3.org/2000/svg">
<path d="M170.289 160.335C168.361 160.271 166.689 160.721 165.082 160.978C149.267 163.614 133.451 166.443 117.765 169.722C114.229 170.429 110.757 171.329 107.221 171.907C105.614 172.165 104.521 173 103.492 174.093C96.9349 181.036 90.3131 187.98 83.7556 194.987C74.4979 204.759 65.2402 214.531 55.5325 223.853C55.0182 224.368 54.5039 224.818 53.9896 225.268C53.4752 225.782 52.8323 226.103 52.1252 225.846C51.2251 225.525 50.6465 224.818 50.5179 223.853C50.4536 223.66 50.4536 223.468 50.5179 223.275C50.9037 221.025 51.2894 218.774 51.6751 216.524C51.6751 216.331 51.9323 216.267 52.0609 216.139C53.4109 215.881 53.9896 216.974 54.8253 217.617C54.9539 217.553 55.0182 217.553 55.1468 217.489C55.2111 217.424 55.3396 217.424 55.4039 217.36C67.6832 203.731 79.9625 190.037 92.2418 176.408C92.3704 176.279 92.4347 176.086 92.4989 175.893C92.5632 175.829 92.4989 175.7 92.4989 175.443C91.5346 175.636 90.5703 175.7 89.6702 175.958C62.7972 182.322 36.1171 189.458 9.75839 197.687C9.17979 197.88 8.60119 198.009 8.02258 198.202C5.12955 199.295 1.59363 197.302 0.307845 194.152C-0.463629 192.287 0.243557 190.808 2.10795 190.101C2.94371 189.78 3.84377 189.523 4.67953 189.266C34.2527 180.586 64.1473 173.129 94.299 166.893C96.1634 166.507 98.0278 166.057 99.8922 165.8C101.564 165.607 102.785 164.836 103.942 163.55C109.343 157.507 114.807 151.592 120.272 145.613C147.338 116.168 174.468 86.7238 201.534 57.2793C216.449 41.014 231.364 24.8131 246.279 8.54782C248.079 6.55485 249.815 4.49759 251.615 2.44032C253.094 0.768796 254.316 0.511635 256.373 1.41169C257.723 1.99029 258.816 2.76177 259.652 3.98327C260.744 5.5905 261.002 7.26204 259.844 8.99786C257.594 12.2766 255.473 15.684 253.223 18.9627C242.936 33.6207 233.55 48.793 224.807 64.3511C209.57 91.4813 196.969 119.769 186.619 149.085C186.297 149.92 186.104 150.756 185.783 151.849C186.49 151.913 187.069 152.042 187.583 151.978C192.276 151.528 196.905 151.013 201.598 150.563C205.263 150.178 208.927 149.792 212.592 149.535C213.877 149.47 214.842 149.02 215.742 148.12C218.442 145.42 221.335 142.977 224.614 140.984C226.542 139.827 228.664 138.798 230.721 137.834C232.843 136.87 235.157 136.677 237.472 136.87C240.3 137.062 242.679 138.22 244.415 140.47C245.572 141.948 246.601 143.556 247.822 145.227C248.272 144.391 248.787 143.684 249.172 142.913C257.466 126.648 265.502 110.254 273.217 93.7314C275.145 89.5525 277.203 85.5023 279.324 81.3878C279.838 80.3592 280.674 79.3948 281.446 78.4948C282.089 77.7233 282.989 77.659 283.953 77.9162C286.139 78.4305 287.553 80.1663 287.682 82.4164C287.81 84.2808 287.167 85.9523 286.525 87.6239C283.696 95.3386 280.417 102.796 277.074 110.254C266.081 134.877 253.608 158.728 240.365 182.194C239.015 184.637 237.665 187.08 236.379 189.587C235.286 191.709 234.514 193.959 234 196.337C233.55 198.523 233.743 200.709 234.45 202.831C234.836 204.052 235.35 205.274 236.7 206.109C238.822 204.888 240.622 203.281 242.165 201.352C245.444 197.237 248.787 193.123 252.065 188.944C263.38 174.479 273.924 159.435 283.824 143.941C284.596 142.784 285.432 141.627 285.303 140.084C285.303 139.827 285.432 139.505 285.496 139.248C287.489 133.334 290.511 127.933 294.432 123.112C295.397 121.89 296.682 121.44 298.482 122.212C299.318 122.533 300.025 123.112 300.668 123.69C302.533 125.49 302.661 127.162 301.118 129.219C298.932 132.112 297.132 135.198 295.654 138.477C295.332 139.184 295.139 139.956 294.818 140.856C296.361 141.563 297.775 142.206 299.19 142.913C300.668 143.684 302.275 144.391 303.626 145.356C307.161 147.735 308.254 150.499 307.161 154.678C306.326 157.892 305.426 161.042 304.59 164.193C304.397 164.836 304.461 165.478 304.333 166.443C305.104 166.057 305.683 165.864 306.133 165.543C307.612 164.321 309.09 163.164 310.44 161.878C317.576 155.064 324.713 148.249 331.913 141.434C333.52 139.891 335.127 138.477 336.735 136.934C337.313 136.42 337.892 135.777 338.213 135.07C339.049 132.948 340.078 130.891 340.399 128.576C340.656 126.905 341.749 126.198 343.356 126.519C346.185 127.033 348.242 129.991 347.921 133.012C347.792 134.362 347.407 135.777 347.085 137.127C346.185 140.92 344.707 144.52 342.971 148.056C340.849 152.363 338.663 156.606 336.542 160.914C333.713 166.636 331.206 172.486 329.727 178.786C329.341 180.522 328.698 182.194 328.827 184.058C329.92 184.187 330.691 183.737 331.399 183.222C332.684 182.258 334.034 181.358 335.127 180.201C341.685 173.386 348.242 166.507 354.736 159.628C355.507 158.792 356.086 157.635 356.6 156.606C359.815 149.728 364.251 143.749 369.972 138.734C372.094 136.87 374.28 135.198 376.787 133.848C378.651 132.819 380.58 132.112 382.702 131.855C385.53 131.534 388.038 132.112 390.095 134.169C391.381 135.52 392.024 136.934 390.931 138.734C390.416 139.57 390.159 140.598 389.773 141.498C389.259 142.591 388.295 142.784 387.33 142.141C386.495 141.563 385.852 140.791 385.788 139.698C385.788 139.248 385.788 138.734 385.788 138.284C384.502 138.091 383.73 138.798 382.894 139.313C377.558 142.591 372.994 146.706 369.329 151.785C366.244 156.028 363.929 160.592 362 165.736C362.708 165.736 363.286 165.928 363.736 165.736C364.765 165.35 365.729 164.836 366.629 164.193C368.301 162.971 369.972 161.685 371.58 160.335C378.201 154.549 384.63 148.57 390.802 142.334C391.381 141.756 391.895 141.177 392.538 140.663C393.567 139.763 394.724 139.698 395.817 140.47C397.038 141.306 397.681 142.527 397.745 144.006C397.81 146.77 397.938 149.599 398.003 152.363C398.067 153.456 397.938 154.549 398.645 155.706C399.61 155.321 400.51 154.999 401.41 154.549C410.153 150.435 418.061 145.163 425.197 138.605C428.347 135.648 431.176 132.498 433.812 129.026C434.326 128.319 434.905 127.548 435.483 126.905C436.448 125.748 437.283 125.619 438.633 126.39C440.562 127.483 441.076 128.833 440.241 130.891C438.441 135.455 436.64 139.956 434.84 144.52C434.519 145.356 434.262 146.192 434.005 146.963C434.648 147.542 435.033 147.092 435.483 146.899C439.019 145.292 442.555 143.749 446.155 142.141C447.891 141.37 449.498 141.691 450.848 142.977C451.62 143.684 452.006 144.584 451.749 145.677C451.684 145.999 451.556 146.256 451.491 146.513C450.848 149.599 451.877 151.978 454.577 153.585C456.377 154.678 458.435 155.256 460.492 155.578C470.714 157.185 480.743 156.735 490.708 153.649C491.351 153.456 492.058 153.199 492.701 153.006C494.437 152.556 496.173 153.328 497.008 154.871C497.78 156.414 497.458 157.571 495.787 158.149C489.229 160.335 482.479 161.685 475.536 161.814C470.328 161.942 465.185 161.685 460.106 160.464C457.792 159.885 455.477 159.178 453.42 157.957C450.398 156.221 448.084 153.842 446.605 150.628C446.413 150.178 446.22 149.727 445.962 149.277C445.898 149.213 445.834 149.149 445.577 148.956C445.191 149.085 444.612 149.149 444.098 149.406C441.977 150.499 439.791 151.528 437.733 152.685C435.419 154.035 433.362 155.835 431.562 157.892C430.34 159.371 429.376 160.914 428.926 162.843C428.283 165.543 427.447 168.243 426.804 170.943C426.483 172.165 425.84 172.743 424.361 172.55C422.433 172.293 420.825 170.879 420.568 168.886C420.311 166.957 420.504 165.093 421.018 163.228C421.34 162.071 421.661 160.914 422.24 159.885C424.876 154.613 426.29 148.892 428.347 143.363C428.347 143.299 428.283 143.17 428.154 142.913C427.704 143.234 427.19 143.491 426.804 143.877C419.411 150.049 411.439 155.321 402.631 159.307C401.088 160.014 399.61 160.85 398.131 161.621C395.881 162.778 393.438 161.75 392.795 159.242C392.602 158.407 392.538 157.442 392.538 156.542C392.474 154.678 392.538 152.749 392.474 150.885C392.474 150.242 392.409 149.535 392.409 148.892C391.381 148.57 390.995 149.213 390.481 149.663C385.273 153.971 380.001 158.278 374.858 162.714C371.772 165.414 368.429 167.729 364.829 169.786C362.965 170.814 361.036 171.457 358.85 171.072C355.571 170.493 354.286 169.079 354.029 165.414C353.514 165.8 352.936 165.993 352.614 166.378C349.593 169.593 346.635 172.807 343.614 175.958C341.685 178.015 339.756 180.008 337.828 182.001C335.385 184.572 332.363 186.308 329.148 187.723C327.798 188.301 326.513 188.558 325.098 187.98C323.748 187.401 322.848 186.501 322.398 185.022C320.984 180.329 320.984 175.572 322.205 170.879C323.362 166.443 325.163 162.2 327.22 158.085C328.184 156.156 329.148 154.228 329.727 152.042C329.148 152.556 328.57 153.006 328.056 153.521C323.941 157.635 319.891 161.685 315.776 165.8C313.719 167.857 311.533 169.786 309.026 171.264C306.39 172.807 303.626 173.836 300.54 173.707C299.511 173.643 298.547 173.386 297.711 172.872C296.168 171.907 295.139 170.622 295.525 168.693C296.039 165.736 296.489 162.778 297.132 159.885C297.647 157.442 298.354 155.064 298.932 152.621C299.061 151.978 299.125 151.27 299.254 150.435C296.039 148.699 292.696 147.413 289.61 145.934C288.325 146.577 287.939 147.67 287.36 148.57C277.46 163.357 266.981 177.629 255.794 191.451C253.094 194.794 250.394 198.073 247.565 201.352C245.444 203.859 243.386 206.431 241.715 209.26C240.043 212.088 239.336 212.281 236.443 210.867C231.3 208.424 228.343 204.245 226.928 198.845C225.642 193.959 226.092 189.137 227.764 184.444C228.728 181.808 230.014 179.301 231.3 176.858C233.486 172.743 235.864 168.629 238.115 164.578C238.5 163.935 238.95 163.293 239.015 162.135C238.243 162.778 237.729 163.164 237.279 163.614C229.821 170.75 222.042 177.372 214.006 183.801C212.463 185.022 210.856 186.308 209.184 187.337C206.034 189.33 203.27 189.137 200.441 186.63C197.291 183.865 196.326 180.329 197.226 176.343C197.612 174.736 198.384 173.193 199.219 171.715C202.048 166.571 205.134 161.557 208.67 156.799C208.991 156.349 209.184 155.835 209.634 154.999C208.284 155.128 207.32 155.128 206.356 155.256C199.669 156.221 192.919 157.249 186.233 158.021C184.304 158.278 183.469 159.049 183.019 160.85C180.318 170.107 177.425 179.365 174.789 188.687C170.161 205.402 166.496 222.375 163.603 239.476C162.446 246.162 161.482 252.848 160.517 259.598C159.617 265.706 158.653 271.813 157.817 277.921C157.624 279.207 157.56 280.492 157.367 281.778C157.046 283.771 155.888 284.478 153.96 284.028C152.738 283.707 151.774 283.128 150.874 282.292C149.845 281.328 149.524 280.171 149.524 278.756C149.652 275.863 149.652 272.97 149.781 270.077C150.874 251.626 153.574 233.368 157.11 215.238C160.517 197.687 164.953 180.394 170.161 163.357C169.903 162.264 170.032 161.364 170.289 160.335ZM172.604 153.713C173.054 152.428 173.375 151.528 173.697 150.563C181.411 127.548 190.54 105.111 201.405 83.4451C205.906 74.5088 210.727 65.8297 215.42 57.0221C215.678 56.5078 216.32 55.9935 215.806 55.1577C182.247 90.8383 148.881 126.326 115.45 161.878C115.322 162.007 115.386 162.264 115.322 162.521C115.579 162.585 115.836 162.714 116.093 162.714C134.737 159.242 153.51 156.156 172.604 153.713ZM242.936 144.97C239.4 143.813 238.115 143.749 235.222 145.163C232.971 146.256 230.85 147.606 228.857 149.02C225.835 151.142 223.264 153.778 220.821 156.606C214.392 164.064 209.506 172.486 204.62 180.972C204.17 181.744 203.913 182.644 203.72 183.479C203.527 184.122 204.17 184.765 204.748 184.508C205.841 183.994 206.934 183.479 207.834 182.772C220.306 173.065 231.943 162.521 242.679 150.949C243.193 150.37 243.708 149.728 244.158 149.213C243.708 147.735 243.322 146.384 242.936 144.97Z" fill="white"/>
<path d="M923.955 142.076C920.354 145.548 916.818 149.02 913.218 152.491C911.418 154.227 909.554 155.899 907.625 157.442C905.889 158.856 903.96 159.82 901.775 160.335C898.303 161.17 895.281 160.335 892.517 158.213C890.974 157.056 890.267 155.513 890.267 153.584C890.267 151.27 890.588 149.02 891.295 146.834C892.003 144.648 892.838 142.526 893.61 140.341C893.996 139.312 894.446 138.348 894.831 137.319C894.253 136.676 893.867 137.19 893.546 137.448C889.238 140.726 884.995 144.005 880.688 147.284C879.723 147.991 878.823 148.763 877.795 149.341C876.702 149.984 875.48 150.563 874.259 150.884C870.659 151.848 867.316 149.92 866.351 146.384C865.965 145.034 865.837 143.619 865.901 142.269C866.03 138.283 866.351 134.297 866.608 130.311C866.673 129.733 866.673 129.154 866.737 128.254C866.094 128.447 865.58 128.511 865.258 128.704C856.643 134.233 848.864 140.726 841.985 148.312C841.214 149.148 840.635 150.305 840.121 151.334C837.035 158.277 834.014 165.221 830.992 172.164C830.606 173 830.285 173.835 829.77 174.543C828.742 176.15 827.135 176.664 825.334 176.086C821.413 174.864 820.191 171.007 821.413 168.242C821.67 167.599 821.991 166.956 822.249 166.314C828.485 152.941 834.656 139.569 840.892 126.133C841.214 125.425 841.471 124.718 841.793 123.947C841.021 123.69 840.828 124.204 840.507 124.525C840.185 124.783 839.928 125.104 839.671 125.425C833.628 132.176 827.52 138.926 821.477 145.677C820.191 147.091 818.97 148.57 817.62 149.855C816.398 151.013 815.048 152.041 813.698 153.07C812.155 154.227 810.355 154.356 808.555 153.906C804.183 152.813 800.776 148.827 800.326 144.262C800.133 142.269 800.197 140.276 800.904 138.348C801.162 137.64 801.354 136.869 801.676 135.647C800.904 136.355 800.519 136.676 800.197 136.998C796.597 140.919 792.483 144.262 788.368 147.605C787.597 148.248 786.761 148.827 785.861 149.277C781.939 151.334 777.632 149.791 775.96 145.677C775.446 144.519 775.317 143.169 774.931 141.755C774.224 142.141 773.517 142.462 772.939 142.912C770.753 144.455 768.631 146.127 766.381 147.605C764.388 148.955 762.331 150.177 760.209 151.27C758.731 152.041 757.059 152.556 755.452 153.006C748.444 154.87 743.365 149.405 742.337 144.712C741.694 141.819 741.887 138.926 742.722 136.162C743.237 134.233 744.073 132.433 744.715 130.504C745.037 129.669 745.294 128.833 745.487 127.933C745.551 127.804 745.423 127.547 745.294 127.226C744.78 127.483 744.201 127.74 743.751 127.997C735.458 133.462 727.936 139.826 721.443 147.348C720.543 148.441 719.771 149.534 719.385 150.948C717.264 157.892 715.078 164.835 712.828 171.778C712.506 172.742 712.249 173.707 711.799 174.607C710.706 176.793 708.842 177.436 706.527 176.536C703.442 175.314 701.641 172.485 702.027 169.207C702.156 167.921 702.542 166.635 702.927 165.414C706.335 155.191 709.806 145.034 713.214 134.812C713.342 134.426 713.406 134.04 713.599 133.397C712.442 133.719 711.992 134.426 711.414 135.005C704.085 141.948 696.82 148.891 689.491 155.77C687.755 157.377 685.891 158.92 684.026 160.399C681.133 162.713 677.854 163.356 673.547 160.399C671.361 158.856 669.882 156.734 669.24 154.099C669.047 153.198 668.79 152.234 668.468 151.077C667.761 151.656 667.182 152.041 666.668 152.427C663.454 155.127 660.239 157.827 657.025 160.463C655.353 161.878 653.617 163.228 651.753 164.385C647.06 167.214 642.367 166.828 638.059 163.549C633.816 160.335 631.309 155.963 630.987 150.563C630.987 150.177 630.923 149.791 630.923 149.341C630.923 149.213 630.859 149.148 630.859 149.02C630.28 148.634 629.959 149.02 629.573 149.341C628.544 150.305 627.516 151.27 626.551 152.234C621.087 157.763 615.622 163.292 610.158 168.821C609.322 169.657 608.422 170.492 607.457 171.2C604.243 173.321 600.578 172.807 598.071 169.849C595.564 166.828 594.792 163.292 596.014 159.499C596.464 158.085 597.171 156.734 597.943 155.449C603.343 145.998 610.093 137.705 618.194 130.44C620.38 128.511 622.63 126.711 625.201 125.425C628.802 123.625 632.53 122.79 636.516 124.011C639.795 124.975 642.367 126.904 644.231 129.797C645.324 131.404 645.838 133.204 645.774 135.197C645.71 136.612 644.745 137.126 643.46 136.419C642.431 135.905 641.659 135.133 641.531 133.912C641.467 133.526 641.402 133.14 641.338 132.754C640.952 131.147 639.859 130.247 638.252 129.861C636.645 129.54 635.102 129.797 633.559 130.376C631.373 131.211 629.509 132.562 627.773 134.04C622.437 138.733 617.615 143.941 613.501 149.727C610.865 153.456 608.422 157.377 606.043 161.299C605.207 162.649 604.693 164.192 604.05 165.671C603.922 165.992 604.05 166.378 604.05 166.956C605.786 166.249 606.943 164.963 608.165 163.806C611.186 160.785 614.208 157.699 617.229 154.677C618.965 152.877 620.765 151.141 622.565 149.405C625.651 146.384 628.48 143.234 631.052 139.762C632.209 138.219 633.366 136.74 634.523 135.262C635.359 134.105 636.452 133.976 637.738 134.362C640.566 135.326 641.788 137.576 640.952 140.469C640.116 143.362 639.216 146.191 638.509 149.084C637.931 151.527 637.931 154.034 638.831 156.477C639.152 157.313 639.538 158.149 639.988 158.856C641.917 161.62 644.617 162.392 647.574 160.849C648.988 160.142 650.338 159.177 651.56 158.213C659.082 151.977 666.539 145.677 673.997 139.312C674.961 138.476 675.797 137.448 676.569 136.419C680.105 131.79 683.512 127.161 687.048 122.532C687.691 121.632 688.398 120.797 689.169 120.025C690.134 119.125 691.098 118.289 692.255 117.646C693.862 116.682 695.663 116.618 697.463 117.325C699.456 118.096 701.127 119.318 702.349 121.118C703.249 122.468 703.442 123.883 702.799 125.361C702.413 126.261 701.513 126.647 700.549 126.326C699.456 125.94 698.62 125.233 698.491 124.011C698.427 123.625 698.427 123.304 698.363 122.661C696.305 123.69 694.505 124.654 694.57 127.226C694.57 127.74 694.184 128.383 693.798 128.704C690.905 130.954 689.041 134.04 686.984 136.998C684.605 140.469 682.098 143.812 679.783 147.284C678.754 148.763 677.854 150.305 677.147 151.977C676.633 153.134 676.44 154.484 676.376 155.77C676.247 157.57 676.954 158.149 678.69 157.892C680.297 157.634 681.776 157.12 683.062 156.092C684.026 155.384 684.926 154.613 685.762 153.777C693.22 146.577 700.677 139.312 708.07 132.112C710.578 129.669 713.021 127.161 715.592 124.783C716.878 123.625 717.778 122.275 718.357 120.604C722.407 109.675 726.779 98.8739 731.472 88.1376C736.294 77.0798 741.437 66.1505 746.966 55.4142C748.059 53.2926 749.28 51.2354 750.566 49.1781C751.016 48.4067 751.594 47.6995 752.237 47.1209C753.459 45.9637 754.423 45.8994 755.645 46.928C756.93 47.9566 757.573 49.2424 757.123 50.8497C756.738 52.3926 756.352 53.9355 755.773 55.4142C753.587 60.8788 751.337 66.2791 749.087 71.7437C740.794 92.0592 732.758 112.439 725.429 133.14C725.107 134.04 724.786 135.005 724.464 135.905C725.043 136.29 725.236 135.84 725.493 135.647C725.814 135.39 726.072 135.069 726.329 134.812C731.858 129.283 737.901 124.397 744.394 120.089C744.78 119.832 745.23 119.511 745.616 119.254C747.801 117.904 749.923 118.354 751.144 120.604C751.98 122.211 752.366 123.947 752.494 125.747C752.623 127.997 752.173 130.119 751.594 132.24C751.08 134.04 750.437 135.84 749.794 137.64C749.023 139.955 748.637 142.269 748.894 144.712C749.151 147.284 750.309 148.184 752.88 147.991C754.809 147.862 756.609 147.22 758.281 146.255C760.338 145.098 762.459 143.877 764.452 142.526C769.403 139.183 774.353 135.776 779.239 132.369C780.139 131.726 780.846 130.89 781.489 130.054C783.932 126.968 786.504 124.14 789.718 121.825C792.097 120.154 794.604 118.739 797.561 118.225C797.69 118.225 797.754 118.161 797.883 118.161C801.29 117.582 804.247 118.225 806.112 121.697C807.141 121.182 808.169 120.668 809.198 120.154C809.969 119.768 810.741 119.897 811.512 120.218C812.862 120.797 813.698 121.89 814.277 123.24C814.984 124.975 814.984 126.711 814.598 128.511C814.148 130.89 813.184 133.076 812.091 135.197C811.126 137.062 810.162 138.926 809.326 140.855C808.812 142.012 808.491 143.298 808.298 144.584C808.105 145.677 808.298 146.77 808.748 147.798C809.455 149.341 810.676 149.855 812.155 149.148C813.119 148.698 814.019 147.991 814.855 147.284C815.691 146.577 816.398 145.677 817.105 144.905C825.399 135.326 833.692 125.747 841.985 116.168C842.757 115.268 843.464 114.239 844.428 113.532C846.164 112.246 846.871 110.51 847.321 108.517C847.579 107.36 848.029 106.203 848.543 105.11C848.929 104.21 849.829 103.888 850.793 104.146C852.529 104.531 853.622 105.817 853.943 107.682C854.458 110.575 854.072 113.468 853.558 116.296C852.657 120.797 851.115 125.104 849.443 129.411C848.286 132.369 847 135.326 845.779 138.219C845.65 138.54 845.586 138.926 845.457 139.312C846.036 139.698 846.293 139.248 846.486 138.991C852.207 133.526 858.315 128.64 865.001 124.397C866.094 123.69 866.994 122.725 867.958 121.89C868.666 121.311 869.437 121.247 870.144 121.761C871.301 122.532 872.009 123.561 872.137 124.975C872.266 126.39 872.33 127.74 872.266 129.154C872.009 133.912 871.623 138.733 871.366 143.491C871.301 144.455 870.98 145.484 871.623 146.448C873.166 146.577 874.516 145.934 875.802 145.162C877.473 144.069 879.145 142.976 880.752 141.819C886.988 137.19 893.224 132.497 899.396 127.804C900.232 127.161 900.939 126.261 901.646 125.425C903.382 123.368 904.989 121.182 906.725 119.125C907.946 117.711 909.425 116.811 911.289 116.425C914.761 115.653 918.747 118.611 919.133 122.082C919.261 123.304 918.94 124.268 917.911 124.911C916.947 125.49 915.983 125.297 915.083 124.783C914.504 124.397 913.99 123.947 913.347 123.432C912.897 123.947 912.382 124.397 911.932 124.911C906.403 132.304 902.096 140.341 899.267 149.213C898.624 151.27 897.853 153.327 897.017 155.577C897.596 155.77 898.11 156.027 898.624 156.092C900.296 156.22 901.839 155.706 903.125 154.741C905.182 153.198 907.239 151.591 909.104 149.791C913.668 145.484 918.104 141.048 922.604 136.612C925.305 133.976 928.069 131.34 930.769 128.704C932.248 127.29 933.791 126.068 935.784 126.133C939.705 122.34 943.498 118.675 947.292 115.011C948.063 114.239 948.963 113.532 949.799 112.889C951.278 111.86 952.949 111.282 954.813 111.217C957.514 111.089 960.149 112.953 960.085 116.425C960.085 117.775 959.764 119.189 959.249 120.475C956.292 128.318 950.442 132.819 942.341 134.555C941.763 134.683 941.184 134.683 940.477 134.812C937.262 138.991 934.048 143.169 931.862 148.055C931.091 149.855 930.576 151.848 930.062 153.713C929.869 154.291 929.869 154.87 929.933 155.513C930.062 158.535 931.541 160.013 934.562 160.335C937.005 160.592 939.384 160.27 941.634 159.37C944.077 158.47 946.456 157.442 948.77 156.284C955.906 152.684 962.528 148.248 969.021 143.555C980.529 135.262 991.973 126.968 1003.48 118.675C1007.27 115.911 1011.13 113.275 1014.99 110.639C1016.15 109.867 1017.37 109.16 1018.59 108.517C1019.55 108.003 1020.52 108.132 1021.35 108.903C1022.12 109.61 1022.25 110.446 1021.48 111.282C1020.39 112.439 1019.23 113.596 1018.01 114.625C1015.82 116.489 1013.51 118.289 1011.26 120.089C997.373 131.147 983.229 141.884 968.7 152.106C963.621 155.706 958.478 159.049 953.013 161.942C949.67 163.742 946.199 165.285 942.47 165.992C939.127 166.699 935.719 166.699 932.376 165.735C929.676 164.899 927.233 163.549 925.305 161.363C921.769 157.377 920.933 152.748 922.219 147.67C922.604 146.127 923.247 144.648 923.826 143.169C924.019 142.719 924.147 142.269 924.34 141.884C924.276 142.269 924.083 142.141 923.955 142.076ZM800.326 125.618C799.104 126.133 798.011 126.39 797.176 126.968C795.44 128.126 793.704 129.347 792.225 130.761C789.075 133.719 786.504 137.126 784.189 140.726C783.289 142.141 782.711 143.748 782.068 145.291C781.875 145.805 781.682 146.448 782.261 146.962C783.353 147.348 784.318 146.962 785.346 146.512C787.018 145.805 788.497 144.777 789.782 143.491C793.961 139.376 797.883 135.005 801.29 130.247C801.804 129.54 802.255 128.769 802.769 127.933C801.933 127.226 801.226 126.518 800.326 125.618ZM956.614 115.525C955.199 116.039 955.263 116.039 954.685 116.682C953.27 118.482 951.792 120.218 950.377 122.018C948.32 124.59 946.327 127.226 944.399 129.861C944.141 130.183 943.691 130.569 944.013 131.083C951.278 129.347 957.642 121.439 956.614 115.525Z" fill="white"/>
<path d="M532.432 199.873C536.097 199.487 539.118 199.166 542.204 198.844C547.154 198.33 552.105 197.816 557.055 197.301C562.841 196.723 568.563 196.208 574.349 195.694C580.006 195.18 585.664 194.73 591.321 194.344C599.486 193.765 607.651 193.187 615.816 192.672C619.673 192.415 623.595 192.158 627.452 192.03C640.117 191.515 652.782 190.937 665.447 190.615C678.112 190.294 690.777 190.165 703.442 189.908C720.286 189.587 737.13 190.037 754.038 190.294C757.252 190.358 760.403 190.551 763.617 190.615C765.16 190.679 766.317 191.258 766.96 192.672C767.539 193.894 767.024 194.923 765.61 194.923C764.003 194.987 762.396 194.923 760.853 194.923C744.587 194.987 728.322 194.858 712.057 195.115C697.27 195.373 682.548 196.015 667.826 196.53C661.847 196.723 655.868 196.98 649.889 197.366C641.853 197.816 633.752 198.394 625.716 198.909C619.223 199.359 612.794 199.809 606.301 200.323C600.258 200.773 594.15 201.352 588.107 201.866C583.028 202.316 577.949 202.766 572.935 203.28C566.184 203.987 559.434 204.695 552.683 205.402C546.704 206.045 540.79 206.752 534.875 207.459C533.268 207.652 531.725 207.845 530.053 208.102C529.796 208.745 529.475 209.388 529.282 210.031C527.096 217.295 525.425 224.689 523.946 232.082C523.56 234.011 523.046 236.004 522.532 237.868C522.146 239.282 521.117 239.668 519.703 239.154C518.417 238.639 517.517 237.739 517.388 236.325C517.26 234.718 517.196 233.111 517.26 231.568C517.388 226.489 518.16 221.41 518.867 216.395C519.124 214.788 519.446 213.245 519.639 211.702C519.703 211.059 519.639 210.352 519.639 209.516C519.06 209.581 518.546 209.581 518.096 209.645C498.423 212.152 478.815 215.109 459.206 218.388C445.127 220.767 431.112 223.146 417.161 226.103C412.661 227.067 408.225 228.16 403.853 229.639C403.018 229.896 402.246 230.282 401.282 230.668C401.925 231.503 402.567 232.146 403.017 232.853C403.853 234.268 403.275 235.489 401.667 235.618C397.167 236.004 392.731 236.389 388.231 236.582C385.274 236.711 382.766 234.718 381.931 232.018C381.481 230.539 381.609 229.703 382.831 228.867C384.566 227.71 386.367 226.553 388.231 225.653C394.403 222.567 400.96 220.445 407.711 219.031C416.068 217.295 424.554 215.688 432.976 214.209C443.584 212.345 454.192 210.609 464.864 209.002C473.736 207.652 482.608 206.366 491.48 205.145C499.966 203.987 508.452 202.894 517.003 201.737C518.546 201.544 520.217 201.673 521.76 200.966C522.082 199.68 522.403 198.394 522.724 197.173C524.975 188.815 527.16 180.393 530.311 172.293C535.582 158.47 541.561 145.034 548.119 131.79C556.412 115.075 564.834 98.4884 573.192 81.7731C580.392 67.308 587.271 52.7143 593.121 37.6062C594.857 33.1703 596.529 28.67 598.265 24.1697C598.65 23.2697 599.036 22.3053 599.486 21.4053C600.129 20.1195 601.029 19.6695 602.443 19.8623C605.336 20.2481 607.844 23.3983 607.329 26.3556C606.944 28.6057 606.301 30.8558 605.658 33.0417C603.215 41.2707 599.936 49.1783 596.722 57.1502C590.614 72.194 583.607 86.852 576.406 101.446C568.177 118.097 559.755 134.555 551.976 151.399C545.29 165.928 539.375 180.715 533.911 195.694C533.332 196.916 532.947 198.137 532.432 199.873Z" fill="white"/>
<path d="M372.351 112.632C373.123 112.053 373.83 111.539 374.537 111.024C377.816 108.71 380.773 106.138 383.28 102.924C384.309 101.574 385.466 100.352 386.688 99.1309C389.709 96.045 392.474 92.8306 394.917 89.2303C396.074 87.4945 397.102 87.1731 398.967 87.816C400.896 88.5232 402.439 89.7447 403.21 91.7376C403.789 93.2163 403.596 94.2449 402.374 95.2093C396.46 100.095 390.738 105.238 383.666 108.517C381.159 109.674 378.78 111.217 376.401 112.632C375.694 113.017 375.051 113.467 374.344 113.789C373.444 114.239 372.865 113.918 372.351 112.632Z" fill="white"/>
<path d="M342.52 108.132C338.406 108.068 335.513 103.568 337.313 100.096C338.47 97.846 341.042 96.8817 343.42 97.7175C345.156 98.3604 346.571 99.4533 347.471 101.061C348.499 102.925 348.178 104.468 346.313 105.625C345.671 106.011 345.349 106.525 344.899 107.039C344.063 107.94 343.613 108.132 342.52 108.132Z" fill="white"/>
</svg>
