<svg width="1440" height="529" viewBox="0 0 1440 529" fill="none" xmlns="http://www.w3.org/2000/svg">
<g opacity="0.01" filter="url(#filter0_d_3499_1860)">
<path d="M100.088 286.43C96.6322 286.315 93.6375 287.121 90.758 287.582C62.4237 292.304 34.0894 297.372 5.98546 303.246C-0.349457 304.513 -6.56917 306.126 -12.9041 307.162C-15.7836 307.623 -17.7416 309.12 -19.5845 311.078C-31.3329 323.518 -43.1964 335.957 -54.9448 348.512C-71.5307 366.019 -88.1166 383.527 -105.509 400.228C-106.43 401.149 -107.352 401.955 -108.273 402.762C-109.195 403.683 -110.346 404.259 -111.613 403.798C-113.226 403.222 -114.262 401.955 -114.493 400.228C-114.608 399.882 -114.608 399.537 -114.493 399.191C-113.802 395.16 -113.111 391.129 -112.42 387.097C-112.42 386.752 -111.959 386.636 -111.729 386.406C-109.31 385.945 -108.273 387.903 -106.776 389.055C-106.545 388.94 -106.43 388.94 -106.2 388.825C-106.085 388.71 -105.854 388.71 -105.739 388.595C-83.7398 364.176 -61.7404 339.643 -39.741 315.225C-39.5106 314.994 -39.3955 314.649 -39.2803 314.303C-39.1651 314.188 -39.2803 313.958 -39.2803 313.497C-41.008 313.843 -42.7357 313.958 -44.3482 314.419C-92.4935 325.821 -140.293 338.606 -187.517 353.349C-188.554 353.695 -189.59 353.925 -190.627 354.271C-195.81 356.229 -202.145 352.658 -204.448 347.014C-205.831 343.674 -204.564 341.025 -201.223 339.758C-199.726 339.182 -198.114 338.722 -196.616 338.261C-143.633 322.712 -90.0747 309.351 -36.0553 298.178C-32.715 297.487 -29.3748 296.681 -26.0346 296.22C-23.0399 295.875 -20.8515 294.492 -18.7783 292.189C-9.10313 281.362 0.687164 270.765 10.4775 260.054C58.9683 207.301 107.574 154.549 156.065 101.796C182.787 72.6557 209.509 43.6303 236.23 14.4897C239.455 10.9191 242.565 7.23336 245.79 3.5476C248.439 0.552914 250.628 0.0921867 254.314 1.70471C256.732 2.74133 258.69 4.12349 260.188 6.31191C262.146 9.19141 262.607 12.1861 260.533 15.296C256.502 21.1702 252.701 27.2747 248.67 33.1489C230.241 59.4099 213.425 86.5924 197.76 114.466C170.463 163.072 147.887 213.751 129.343 266.273C128.767 267.771 128.422 269.268 127.846 271.226C129.113 271.341 130.15 271.572 131.071 271.456C139.479 270.65 147.772 269.729 156.18 268.922C162.745 268.231 169.311 267.54 175.876 267.08C178.18 266.964 179.907 266.158 181.52 264.546C186.357 259.708 191.54 255.331 197.415 251.761C200.87 249.687 204.671 247.844 208.357 246.117C212.158 244.389 216.304 244.044 220.451 244.389C225.519 244.735 229.78 246.808 232.89 250.839C234.963 253.488 236.806 256.368 238.995 259.362C239.801 257.865 240.722 256.598 241.413 255.216C256.272 226.075 270.669 196.705 284.491 167.103C287.946 159.617 291.632 152.36 295.433 144.989C296.354 143.146 297.852 141.418 299.234 139.806C300.386 138.423 301.998 138.308 303.726 138.769C307.642 139.69 310.176 142.8 310.406 146.832C310.637 150.172 309.485 153.166 308.333 156.161C303.265 169.983 297.391 183.344 291.402 196.705C271.706 240.819 249.361 283.55 225.634 325.591C223.215 329.968 220.796 334.345 218.493 338.837C216.535 342.638 215.152 346.669 214.231 350.931C213.425 354.847 213.77 358.763 215.037 362.564C215.728 364.752 216.65 366.941 219.069 368.438C222.87 366.25 226.095 363.37 228.859 359.915C234.733 352.543 240.722 345.172 246.597 337.685C266.868 311.769 285.758 284.817 303.496 257.059C304.878 254.986 306.375 252.912 306.145 250.148C306.145 249.687 306.375 249.111 306.49 248.651C310.061 238.054 315.474 228.379 322.5 219.741C324.228 217.552 326.531 216.746 329.757 218.128C331.254 218.704 332.521 219.741 333.673 220.777C337.013 224.002 337.243 226.997 334.479 230.683C330.563 235.866 327.338 241.394 324.689 247.269C324.113 248.536 323.767 249.918 323.191 251.53C325.956 252.797 328.49 253.949 331.023 255.216C333.673 256.598 336.552 257.865 338.971 259.593C345.306 263.855 347.264 268.807 345.306 276.294C343.809 282.053 342.196 287.697 340.699 293.341C340.353 294.492 340.468 295.644 340.238 297.372C341.62 296.681 342.657 296.335 343.463 295.759C346.112 293.571 348.761 291.498 351.18 289.194C363.965 276.985 376.75 264.776 389.65 252.567C392.53 249.803 395.409 247.269 398.289 244.504C399.325 243.583 400.362 242.431 400.938 241.164C402.435 237.363 404.278 233.677 404.854 229.531C405.315 226.536 407.273 225.269 410.152 225.845C415.22 226.767 418.906 232.065 418.33 237.478C418.1 239.897 417.409 242.431 416.833 244.85C415.22 251.645 412.571 258.096 409.461 264.43C405.66 272.147 401.744 279.749 397.943 287.466C392.875 297.717 388.383 308.199 385.734 319.487C385.043 322.596 383.891 325.591 384.122 328.931C386.08 329.162 387.462 328.355 388.729 327.434C391.032 325.706 393.451 324.094 395.409 322.02C407.158 309.811 418.906 297.487 430.539 285.163C431.921 283.665 432.958 281.592 433.879 279.749C439.638 267.425 447.586 256.713 457.837 247.729C461.638 244.389 465.554 241.394 470.046 238.976C473.386 237.133 476.841 235.866 480.642 235.405C485.71 234.829 490.202 235.866 493.888 239.552C496.192 241.97 497.344 244.504 495.385 247.729C494.464 249.227 494.003 251.07 493.312 252.682C492.391 254.64 490.663 254.986 488.935 253.834C487.438 252.797 486.286 251.415 486.171 249.457C486.171 248.651 486.171 247.729 486.171 246.923C483.867 246.578 482.485 247.844 480.988 248.766C471.428 254.64 463.25 262.012 456.685 271.111C451.156 278.713 447.01 286.891 443.554 296.105C444.821 296.105 445.858 296.451 446.664 296.105C448.507 295.414 450.235 294.492 451.847 293.341C454.842 291.152 457.837 288.849 460.716 286.43C472.58 276.064 484.098 265.352 495.155 254.179C496.192 253.143 497.113 252.106 498.265 251.185C500.108 249.572 502.181 249.457 504.139 250.839C506.328 252.336 507.479 254.525 507.595 257.174C507.71 262.127 507.94 267.195 508.055 272.147C508.17 274.105 507.94 276.064 509.207 278.137C510.935 277.446 512.547 276.87 514.16 276.064C529.824 268.692 543.991 259.247 556.776 247.499C562.42 242.201 567.488 236.557 572.211 230.337C573.132 229.07 574.169 227.688 575.205 226.536C576.933 224.463 578.43 224.233 580.849 225.615C584.304 227.573 585.226 229.992 583.729 233.677C580.504 241.855 577.278 249.918 574.053 258.096C573.478 259.593 573.017 261.09 572.556 262.472C573.708 263.509 574.399 262.703 575.205 262.357C581.54 259.478 587.875 256.713 594.325 253.834C597.435 252.452 600.315 253.028 602.733 255.331C604.115 256.598 604.807 258.211 604.346 260.169C604.231 260.745 604 261.205 603.885 261.666C602.733 267.195 604.576 271.456 609.414 274.336C612.639 276.294 616.325 277.331 620.01 277.906C638.324 280.786 656.292 279.98 674.145 274.451C675.297 274.105 676.564 273.645 677.715 273.299C680.825 272.493 683.935 273.875 685.433 276.639C686.815 279.404 686.239 281.477 683.244 282.514C671.496 286.43 659.402 288.849 646.962 289.079C637.633 289.309 628.418 288.849 619.319 286.66C615.173 285.624 611.026 284.357 607.34 282.168C601.927 279.058 597.781 274.797 595.131 269.038C594.786 268.231 594.44 267.425 593.98 266.619C593.864 266.504 593.749 266.388 593.289 266.043C592.597 266.273 591.561 266.388 590.639 266.849C586.838 268.807 582.922 270.65 579.237 272.723C575.09 275.142 571.404 278.367 568.179 282.053C565.991 284.702 564.263 287.466 563.457 290.922C562.305 295.759 560.808 300.597 559.656 305.435C559.08 307.623 557.928 308.66 555.279 308.314C551.824 307.853 548.944 305.319 548.484 301.749C548.023 298.293 548.368 294.953 549.29 291.613C549.866 289.54 550.442 287.466 551.478 285.624C556.201 276.179 558.734 265.928 562.42 256.022C562.42 255.907 562.305 255.677 562.075 255.216C561.268 255.792 560.347 256.253 559.656 256.944C546.41 268.001 532.128 277.446 516.348 284.587C513.584 285.854 510.935 287.351 508.286 288.733C504.254 290.807 499.878 288.964 498.726 284.472C498.38 282.974 498.265 281.247 498.265 279.634C498.15 276.294 498.265 272.839 498.15 269.498C498.15 268.347 498.035 267.08 498.035 265.928C496.192 265.352 495.501 266.504 494.579 267.31C485.25 275.027 475.805 282.744 466.59 290.691C461.062 295.529 455.073 299.676 448.622 303.361C445.282 305.204 441.827 306.356 437.911 305.665C432.036 304.628 429.733 302.094 429.272 295.529C428.351 296.22 427.314 296.566 426.738 297.257C421.325 303.016 416.026 308.775 410.613 314.419C407.158 318.104 403.702 321.675 400.247 325.246C395.87 329.853 390.456 332.963 384.697 335.496C382.279 336.533 379.975 336.994 377.441 335.957C375.022 334.921 373.41 333.308 372.604 330.659C370.07 322.251 370.07 313.728 372.258 305.319C374.331 297.372 377.556 289.77 381.242 282.398C382.97 278.943 384.697 275.488 385.734 271.572C384.697 272.493 383.661 273.299 382.739 274.221C375.368 281.592 368.112 288.849 360.74 296.22C357.054 299.906 353.138 303.361 348.646 306.01C343.924 308.775 338.971 310.618 333.442 310.387C331.599 310.272 329.872 309.811 328.374 308.89C325.61 307.162 323.767 304.859 324.458 301.403C325.38 296.105 326.186 290.807 327.338 285.624C328.259 281.247 329.526 276.985 330.563 272.608C330.793 271.456 330.908 270.189 331.139 268.692C325.38 265.582 319.39 263.279 313.862 260.629C311.558 261.781 310.867 263.739 309.83 265.352C292.093 291.843 273.318 317.413 253.277 342.177C248.439 348.166 243.602 354.04 238.534 359.915C234.733 364.407 231.047 369.014 228.053 374.082C225.058 379.15 223.791 379.495 218.608 376.961C209.393 372.584 204.095 365.098 201.561 355.423C199.258 346.669 200.064 338.03 203.059 329.622C204.786 324.9 207.09 320.408 209.393 316.031C213.31 308.66 217.571 301.288 221.602 294.032C222.294 292.88 223.1 291.728 223.215 289.655C221.833 290.807 220.911 291.498 220.105 292.304C206.744 305.089 192.807 316.953 178.41 328.471C175.646 330.659 172.766 332.963 169.771 334.805C164.128 338.376 159.175 338.031 154.107 333.538C148.463 328.586 146.735 322.251 148.348 315.11C149.039 312.23 150.421 309.466 151.919 306.817C156.987 297.602 162.515 288.618 168.85 280.095C169.426 279.289 169.771 278.367 170.578 276.87C168.159 277.1 166.431 277.1 164.704 277.331C152.725 279.058 140.631 280.901 128.652 282.283C125.197 282.744 123.699 284.126 122.893 287.351C118.056 303.937 112.873 320.523 108.15 337.224C99.8572 367.171 93.2919 397.579 88.1089 428.216C86.0356 440.195 84.3079 452.174 82.5802 464.268C80.9677 475.21 79.24 486.152 77.7426 497.094C77.3971 499.398 77.2819 501.701 76.9364 504.005C76.3605 507.576 74.2872 508.843 70.8318 508.036C68.6434 507.46 66.9157 506.424 65.3032 504.926C63.4603 503.199 62.8844 501.125 62.8844 498.591C63.1147 493.408 63.1148 488.225 63.3451 483.042C65.3032 449.986 70.1407 417.274 76.4756 384.794C82.5802 353.349 90.5276 322.366 99.8572 291.843C99.3965 289.885 99.6268 288.273 100.088 286.43ZM104.234 274.566C105.04 272.263 105.616 270.65 106.192 268.922C120.014 227.688 136.369 187.49 155.835 148.674C163.897 132.664 172.536 117.115 180.944 101.335C181.405 100.414 182.556 99.4926 181.635 97.9952C121.511 161.92 61.7326 225.5 1.83896 289.194C1.6086 289.424 1.7238 289.885 1.60863 290.346C2.06935 290.461 2.53004 290.691 2.99077 290.691C36.393 284.472 70.0256 278.943 104.234 274.566ZM230.241 258.902C223.906 256.828 221.602 256.713 216.419 259.247C212.388 261.205 208.587 263.624 205.017 266.158C199.603 269.959 194.996 274.681 190.619 279.749C179.101 293.11 170.347 308.199 161.594 323.403C160.787 324.785 160.327 326.397 159.981 327.895C159.636 329.046 160.787 330.198 161.824 329.737C163.782 328.816 165.74 327.895 167.353 326.628C189.698 309.236 210.545 290.346 229.78 269.614C230.702 268.577 231.623 267.425 232.429 266.504C231.623 263.855 230.932 261.436 230.241 258.902Z" fill="white"/>
<path d="M1450.34 253.718C1443.89 259.938 1437.56 266.157 1431.11 272.377C1427.88 275.487 1424.54 278.482 1421.09 281.246C1417.98 283.78 1414.52 285.508 1410.61 286.429C1404.39 287.926 1398.97 286.429 1394.02 282.628C1391.26 280.555 1389.99 277.791 1389.99 274.335C1389.99 270.189 1390.56 266.157 1391.83 262.241C1393.1 258.325 1394.6 254.524 1395.98 250.608C1396.67 248.765 1397.48 247.037 1398.17 245.195C1397.13 244.043 1396.44 244.964 1395.86 245.425C1388.15 251.299 1380.54 257.173 1372.83 263.047C1371.1 264.314 1369.49 265.697 1367.64 266.733C1365.69 267.885 1363.5 268.922 1361.31 269.498C1354.86 271.225 1348.87 267.77 1347.14 261.435C1346.45 259.016 1346.22 256.482 1346.34 254.063C1346.57 246.922 1347.14 239.781 1347.6 232.64C1347.72 231.603 1347.72 230.567 1347.83 228.954C1346.68 229.3 1345.76 229.415 1345.18 229.76C1329.75 239.666 1315.81 251.299 1303.49 264.89C1302.11 266.388 1301.07 268.461 1300.15 270.304C1294.62 282.743 1289.21 295.183 1283.79 307.622C1283.1 309.12 1282.53 310.617 1281.6 311.884C1279.76 314.763 1276.88 315.685 1273.66 314.648C1266.63 312.46 1264.44 305.549 1266.63 300.596C1267.09 299.444 1267.67 298.293 1268.13 297.141C1279.3 273.183 1290.36 249.226 1301.53 225.153C1302.11 223.886 1302.57 222.619 1303.14 221.237C1301.76 220.776 1301.42 221.698 1300.84 222.274C1300.26 222.734 1299.8 223.31 1299.34 223.886C1288.52 235.98 1277.57 248.074 1266.75 260.168C1264.44 262.702 1262.25 265.351 1259.84 267.655C1257.65 269.728 1255.23 271.571 1252.81 273.414C1250.05 275.487 1246.82 275.717 1243.6 274.911C1235.76 272.953 1229.66 265.812 1228.85 257.634C1228.51 254.063 1228.62 250.493 1229.89 247.037C1230.35 245.77 1230.69 244.388 1231.27 242.2C1229.89 243.467 1229.2 244.043 1228.62 244.619C1222.17 251.645 1214.8 257.634 1207.43 263.623C1206.05 264.775 1204.55 265.812 1202.94 266.618C1195.91 270.304 1188.19 267.54 1185.2 260.168C1184.28 258.095 1184.05 255.676 1183.36 253.142C1182.09 253.833 1180.82 254.409 1179.79 255.215C1175.87 257.98 1172.07 260.974 1168.04 263.623C1164.47 266.042 1160.78 268.231 1156.98 270.189C1154.33 271.571 1151.34 272.492 1148.46 273.298C1135.9 276.639 1126.8 266.848 1124.96 258.44C1123.81 253.257 1124.15 248.074 1125.65 243.121C1126.57 239.666 1128.07 236.441 1129.22 232.985C1129.8 231.488 1130.26 229.991 1130.6 228.378C1130.72 228.148 1130.49 227.687 1130.26 227.111C1129.34 227.572 1128.3 228.033 1127.49 228.493C1112.64 238.284 1099.16 249.687 1087.53 263.163C1085.91 265.121 1084.53 267.079 1083.84 269.613C1080.04 282.052 1076.12 294.492 1072.09 306.931C1071.52 308.659 1071.06 310.386 1070.25 311.999C1068.29 315.915 1064.95 317.067 1060.8 315.454C1055.28 313.266 1052.05 308.198 1052.74 302.324C1052.97 300.02 1053.66 297.717 1054.35 295.528C1060.46 277.215 1066.68 259.016 1072.78 240.703C1073.01 240.011 1073.13 239.32 1073.47 238.169C1071.4 238.744 1070.59 240.011 1069.56 241.048C1056.43 253.488 1043.41 265.927 1030.28 278.251C1027.17 281.131 1023.83 283.895 1020.49 286.544C1015.31 290.691 1009.43 291.842 1001.72 286.544C997.801 283.78 995.152 279.979 994 275.257C993.654 273.644 993.194 271.916 992.618 269.843C991.351 270.88 990.314 271.571 989.393 272.262C983.634 277.099 977.875 281.937 972.116 286.659C969.121 289.193 966.011 291.612 962.671 293.685C954.263 298.753 945.855 298.062 938.138 292.188C930.536 286.429 926.044 278.597 925.468 268.922C925.468 268.231 925.353 267.54 925.353 266.733C925.353 266.503 925.237 266.388 925.237 266.157C924.201 265.466 923.625 266.157 922.934 266.733C921.091 268.461 919.248 270.189 917.52 271.916C907.73 281.822 897.94 291.727 888.15 301.633C886.652 303.13 885.04 304.628 883.312 305.894C877.553 309.695 870.988 308.774 866.496 303.476C862.004 298.062 860.622 291.727 862.81 284.932C863.616 282.398 864.883 279.979 866.265 277.675C875.94 260.744 888.034 245.886 902.547 232.87C906.463 229.415 910.494 226.19 915.102 223.886C921.552 220.661 928.232 219.164 935.373 221.352C941.248 223.08 945.855 226.535 949.195 231.718C951.153 234.598 952.074 237.823 951.959 241.394C951.844 243.928 950.116 244.849 947.813 243.582C945.97 242.661 944.588 241.278 944.357 239.09C944.242 238.399 944.127 237.708 944.012 237.017C943.321 234.137 941.363 232.525 938.483 231.834C935.604 231.258 932.839 231.718 930.075 232.755C926.159 234.252 922.819 236.671 919.709 239.32C910.149 247.729 901.51 257.058 894.139 267.424C889.416 274.105 885.04 281.131 880.778 288.157C879.281 290.576 878.359 293.34 877.207 295.989C876.977 296.565 877.207 297.256 877.207 298.293C880.317 297.026 882.39 294.722 884.579 292.649C889.992 287.235 895.406 281.707 900.819 276.293C903.929 273.068 907.154 269.958 910.379 266.848C915.908 261.435 920.976 255.791 925.583 249.571C927.656 246.807 929.729 244.158 931.803 241.509C933.3 239.436 935.258 239.205 937.562 239.896C942.63 241.624 944.818 245.655 943.321 250.838C941.823 256.021 940.211 261.089 938.944 266.273C937.907 270.649 937.907 275.141 939.52 279.518C940.096 281.016 940.787 282.513 941.593 283.78C945.048 288.733 949.886 290.115 955.184 287.35C957.718 286.083 960.137 284.356 962.325 282.628C975.801 271.456 989.162 260.168 1002.52 248.765C1004.25 247.268 1005.75 245.425 1007.13 243.582C1013.47 235.289 1019.57 226.996 1025.9 218.703C1027.06 217.091 1028.32 215.593 1029.71 214.211C1031.43 212.599 1033.16 211.101 1035.23 209.949C1038.11 208.222 1041.34 208.107 1044.56 209.374C1048.13 210.756 1051.13 212.944 1053.32 216.169C1054.93 218.588 1055.28 221.122 1054.12 223.771C1053.43 225.384 1051.82 226.075 1050.09 225.499C1048.13 224.808 1046.64 223.541 1046.41 221.352C1046.29 220.661 1046.29 220.085 1046.18 218.934C1042.49 220.776 1039.27 222.504 1039.38 227.111C1039.38 228.033 1038.69 229.185 1038 229.76C1032.82 233.792 1029.48 239.32 1025.79 244.619C1021.53 250.838 1017.04 256.828 1012.89 263.047C1011.05 265.697 1009.43 268.461 1008.17 271.456C1007.25 273.529 1006.9 275.948 1006.79 278.251C1006.55 281.476 1007.82 282.513 1010.93 282.052C1013.81 281.591 1016.46 280.67 1018.76 278.827C1020.49 277.56 1022.1 276.178 1023.6 274.681C1036.96 261.78 1050.32 248.765 1063.57 235.865C1068.06 231.488 1072.44 226.996 1077.04 222.734C1079.35 220.661 1080.96 218.242 1082 215.248C1089.25 195.667 1097.09 176.317 1105.49 157.082C1114.13 137.271 1123.35 117.69 1133.25 98.4552C1135.21 94.6542 1137.4 90.9685 1139.7 87.2827C1140.51 85.9006 1141.55 84.6336 1142.7 83.597C1144.89 81.5237 1146.61 81.4085 1148.8 83.2514C1151.11 85.0943 1152.26 87.3979 1151.45 90.2774C1150.76 93.0417 1150.07 95.806 1149.03 98.4552C1145.12 108.245 1141.08 117.921 1137.05 127.711C1122.2 164.108 1107.8 200.62 1094.67 237.708C1094.09 239.32 1093.52 241.048 1092.94 242.661C1093.98 243.352 1094.32 242.545 1094.78 242.2C1095.36 241.739 1095.82 241.163 1096.28 240.703C1106.19 230.797 1117.01 222.043 1128.65 214.326C1129.34 213.866 1130.14 213.29 1130.83 212.829C1134.75 210.41 1138.55 211.216 1140.74 215.248C1142.24 218.127 1142.93 221.237 1143.16 224.462C1143.39 228.493 1142.58 232.294 1141.55 236.095C1140.62 239.32 1139.47 242.545 1138.32 245.77C1136.94 249.917 1136.25 254.063 1136.71 258.44C1137.17 263.047 1139.24 264.66 1143.85 264.314C1147.3 264.084 1150.53 262.932 1153.52 261.205C1157.21 259.131 1161.01 256.943 1164.58 254.524C1173.45 248.535 1182.32 242.43 1191.07 236.326C1192.69 235.174 1193.95 233.677 1195.1 232.179C1199.48 226.651 1204.09 221.583 1209.85 217.436C1214.11 214.441 1218.6 211.908 1223.9 210.986C1224.13 210.986 1224.24 210.871 1224.48 210.871C1230.58 209.834 1235.88 210.986 1239.22 217.206C1241.06 216.284 1242.9 215.363 1244.75 214.441C1246.13 213.75 1247.51 213.981 1248.89 214.557C1251.31 215.593 1252.81 217.551 1253.85 219.97C1255.11 223.08 1255.11 226.19 1254.42 229.415C1253.62 233.677 1251.89 237.593 1249.93 241.394C1248.2 244.734 1246.47 248.074 1244.98 251.529C1244.06 253.603 1243.48 255.906 1243.13 258.21C1242.79 260.168 1243.13 262.126 1243.94 263.969C1245.21 266.733 1247.4 267.655 1250.05 266.388C1251.77 265.581 1253.39 264.314 1254.88 263.047C1256.38 261.781 1257.65 260.168 1258.91 258.786C1273.77 241.624 1288.63 224.462 1303.49 207.3C1304.87 205.688 1306.14 203.845 1307.87 202.578C1310.98 200.274 1312.24 197.164 1313.05 193.594C1313.51 191.521 1314.32 189.447 1315.24 187.489C1315.93 185.877 1317.54 185.301 1319.27 185.762C1322.38 186.453 1324.34 188.756 1324.91 192.097C1325.83 197.28 1325.14 202.463 1324.22 207.531C1322.61 215.593 1319.84 223.31 1316.85 231.027C1314.78 236.326 1312.47 241.624 1310.28 246.807C1310.05 247.383 1309.94 248.074 1309.71 248.765C1310.75 249.456 1311.21 248.65 1311.55 248.189C1321.8 238.399 1332.74 229.645 1344.72 222.043C1346.68 220.776 1348.29 219.049 1350.02 217.551C1351.29 216.515 1352.67 216.4 1353.94 217.321C1356.01 218.703 1357.28 220.546 1357.51 223.08C1357.74 225.614 1357.85 228.033 1357.74 230.567C1357.28 239.09 1356.59 247.729 1356.13 256.252C1356.01 257.98 1355.43 259.822 1356.59 261.55C1359.35 261.781 1361.77 260.629 1364.07 259.247C1367.07 257.288 1370.06 255.33 1372.94 253.257C1384.11 244.964 1395.29 236.556 1406.34 228.148C1407.84 226.996 1409.11 225.384 1410.38 223.886C1413.49 220.201 1416.37 216.284 1419.48 212.599C1421.66 210.065 1424.31 208.452 1427.65 207.761C1433.87 206.379 1441.01 211.677 1441.7 217.897C1441.94 220.085 1441.36 221.813 1439.52 222.965C1437.79 224.001 1436.06 223.656 1434.45 222.734C1433.41 222.043 1432.49 221.237 1431.34 220.316C1430.53 221.237 1429.61 222.043 1428.8 222.965C1418.9 236.211 1411.18 250.608 1406.11 266.503C1404.96 270.189 1403.58 273.874 1402.08 277.906C1403.12 278.251 1404.04 278.712 1404.96 278.827C1407.96 279.058 1410.72 278.136 1413.02 276.408C1416.71 273.644 1420.4 270.765 1423.74 267.539C1431.91 259.822 1439.86 251.875 1447.92 243.928C1452.76 239.205 1457.71 234.483 1462.55 229.76C1465.2 227.226 1467.97 225.038 1471.54 225.153C1478.56 218.358 1485.36 211.792 1492.15 205.227C1493.54 203.845 1495.15 202.578 1496.65 201.426C1499.29 199.583 1502.29 198.547 1505.63 198.431C1510.47 198.201 1515.19 201.541 1515.07 207.761C1515.07 210.18 1514.5 212.714 1513.58 215.017C1508.28 229.069 1497.8 237.132 1483.28 240.242C1482.25 240.472 1481.21 240.472 1479.94 240.703C1474.19 248.189 1468.43 255.676 1464.51 264.43C1463.13 267.655 1462.21 271.225 1461.29 274.565C1460.94 275.602 1460.94 276.639 1461.05 277.791C1461.29 283.204 1463.93 285.853 1469.35 286.429C1473.72 286.89 1477.99 286.314 1482.02 284.701C1486.39 283.089 1490.66 281.246 1494.8 279.173C1507.59 272.723 1519.45 264.775 1531.08 256.367C1551.7 241.509 1572.2 226.651 1592.82 211.792C1599.62 206.84 1606.53 202.117 1613.44 197.395C1615.51 196.013 1617.7 194.746 1619.89 193.594C1621.62 192.672 1623.34 192.903 1624.84 194.285C1626.22 195.552 1626.45 197.049 1625.07 198.547C1623.11 200.62 1621.04 202.693 1618.85 204.536C1614.94 207.876 1610.79 211.101 1606.76 214.326C1581.88 234.137 1556.54 253.372 1530.51 271.686C1521.41 278.136 1512.19 284.125 1502.4 289.309C1496.42 292.534 1490.2 295.298 1483.52 296.565C1477.53 297.832 1471.42 297.832 1465.43 296.104C1460.59 294.607 1456.22 292.188 1452.76 288.272C1446.43 281.131 1444.93 272.838 1447.23 263.739C1447.92 260.974 1449.08 258.325 1450.11 255.676C1450.46 254.87 1450.69 254.063 1451.03 253.372C1450.92 254.063 1450.57 253.833 1450.34 253.718ZM1228.85 224.232C1226.66 225.153 1224.71 225.614 1223.21 226.651C1220.1 228.724 1216.99 230.912 1214.34 233.446C1208.7 238.744 1204.09 244.849 1199.94 251.299C1198.33 253.833 1197.29 256.713 1196.14 259.477C1195.8 260.398 1195.45 261.55 1196.49 262.472C1198.44 263.163 1200.17 262.472 1202.02 261.665C1205.01 260.398 1207.66 258.555 1209.96 256.252C1217.45 248.88 1224.48 241.048 1230.58 232.525C1231.5 231.258 1232.31 229.876 1233.23 228.378C1231.73 227.111 1230.46 225.844 1228.85 224.232ZM1508.85 206.149C1506.32 207.07 1506.44 207.07 1505.4 208.222C1502.87 211.447 1500.22 214.557 1497.68 217.782C1494 222.389 1490.43 227.111 1486.97 231.834C1486.51 232.41 1485.7 233.101 1486.28 234.022C1499.29 230.912 1510.7 216.745 1508.85 206.149Z" fill="white"/>
<path d="M748.897 357.265C755.462 356.574 760.876 355.998 766.404 355.422C775.273 354.501 784.142 353.579 793.011 352.658C803.377 351.621 813.628 350.7 823.994 349.778C834.13 348.857 844.266 348.05 854.402 347.359C869.03 346.323 883.658 345.286 898.286 344.365C905.196 343.904 912.222 343.443 919.133 343.213C941.824 342.291 964.514 341.255 987.205 340.679C1009.9 340.103 1032.59 339.873 1055.28 339.412C1085.45 338.836 1115.63 339.642 1145.92 340.103C1151.68 340.218 1157.33 340.564 1163.08 340.679C1165.85 340.794 1167.92 341.831 1169.07 344.365C1170.11 346.553 1169.19 348.396 1166.65 348.396C1163.78 348.511 1160.9 348.396 1158.13 348.396C1128.99 348.511 1099.85 348.281 1070.71 348.741C1044.22 349.202 1017.84 350.354 991.466 351.275C980.754 351.621 970.043 352.082 959.331 352.773C944.933 353.579 930.421 354.616 916.023 355.537C904.39 356.343 892.872 357.15 881.239 358.071C870.412 358.877 859.47 359.914 848.643 360.835C839.544 361.642 830.445 362.448 821.46 363.369C809.367 364.636 797.273 365.903 785.179 367.17C774.467 368.322 763.87 369.589 753.274 370.856C750.394 371.202 747.63 371.547 744.635 372.008C744.175 373.16 743.599 374.311 743.253 375.463C739.337 388.479 736.342 401.724 733.693 414.97C733.002 418.425 732.081 421.996 731.159 425.336C730.468 427.87 728.625 428.561 726.091 427.64C723.788 426.718 722.175 425.106 721.945 422.572C721.715 419.692 721.599 416.813 721.715 414.049C721.945 404.949 723.327 395.85 724.594 386.866C725.055 383.987 725.631 381.222 725.976 378.458C726.091 377.306 725.976 376.039 725.976 374.542C724.94 374.657 724.018 374.657 723.212 374.772C687.967 379.264 652.837 384.562 617.707 390.437C592.483 394.698 567.373 398.96 542.379 404.258C534.317 405.986 526.369 407.944 518.537 410.593C517.04 411.054 515.657 411.745 513.93 412.436C515.082 413.933 516.233 415.085 517.04 416.352C518.537 418.886 517.5 421.075 514.621 421.305C506.558 421.996 498.611 422.687 490.548 423.033C485.25 423.263 480.758 419.692 479.261 414.855C478.454 412.206 478.685 410.708 480.873 409.211C483.983 407.138 487.208 405.065 490.548 403.452C501.605 397.923 513.354 394.122 525.448 391.588C540.421 388.479 555.625 385.599 570.714 382.95C589.718 379.61 608.723 376.5 627.843 373.62C643.738 371.202 659.633 368.898 675.527 366.71C690.731 364.636 705.935 362.678 721.254 360.605C724.018 360.26 727.013 360.49 729.777 359.223C730.353 356.919 730.929 354.616 731.505 352.427C735.536 337.454 739.452 322.365 745.096 307.853C754.541 283.089 765.253 259.016 777.001 235.289C791.859 205.342 806.948 175.626 821.921 145.679C834.821 119.764 847.146 93.6177 857.627 66.5504C860.737 58.603 863.732 50.5404 866.841 42.4778C867.533 40.8653 868.224 39.1375 869.03 37.525C870.182 35.2214 871.794 34.4152 874.328 34.7607C879.511 35.4518 884.003 41.0956 883.082 46.3939C882.391 50.4252 881.239 54.4565 880.087 58.3726C875.71 73.1157 869.836 87.2828 864.077 101.565C853.135 128.517 840.58 154.778 827.68 180.924C812.937 210.756 797.849 240.242 783.912 270.419C771.933 296.45 761.336 322.941 751.546 349.778C750.51 351.967 749.818 354.155 748.897 357.265Z" fill="white"/>
<path d="M462.098 200.965C463.481 199.928 464.747 199.007 466.014 198.086C471.889 193.939 477.187 189.332 481.679 183.573C483.522 181.154 485.595 178.966 487.784 176.777C493.197 171.249 498.15 165.49 502.527 159.04C504.6 155.93 506.443 155.354 509.783 156.506C513.238 157.773 516.003 159.961 517.385 163.532C518.421 166.181 518.076 168.024 515.887 169.751C505.291 178.505 495.04 187.719 482.37 193.594C477.878 195.667 473.616 198.431 469.355 200.965C468.088 201.656 466.936 202.462 465.669 203.038C464.056 203.845 463.02 203.269 462.098 200.965Z" fill="white"/>
<path d="M408.655 192.904C401.283 192.789 396.1 184.726 399.325 178.507C401.398 174.475 406.005 172.748 410.267 174.245C413.377 175.397 415.911 177.355 417.523 180.234C419.366 183.574 418.79 186.339 415.45 188.412C414.298 189.103 413.722 190.025 412.916 190.946C411.419 192.559 410.613 192.904 408.655 192.904Z" fill="white"/>
</g>
<defs>
<filter id="filter0_d_3499_1860" x="-215.286" y="0.789551" width="1851.57" height="528.051" filterUnits="userSpaceOnUse" color-interpolation-filters="sRGB">
<feFlood flood-opacity="0" result="BackgroundImageFix"/>
<feColorMatrix in="SourceAlpha" type="matrix" values="0 0 0 0 0 0 0 0 0 0 0 0 0 0 0 0 0 0 127 0" result="hardAlpha"/>
<feOffset dy="10.2856"/>
<feGaussianBlur stdDeviation="5.14281"/>
<feComposite in2="hardAlpha" operator="out"/>
<feColorMatrix type="matrix" values="0 0 0 0 0 0 0 0 0 0 0 0 0 0 0 0 0 0 0.25 0"/>
<feBlend mode="normal" in2="BackgroundImageFix" result="effect1_dropShadow_3499_1860"/>
<feBlend mode="normal" in="SourceGraphic" in2="effect1_dropShadow_3499_1860" result="shape"/>
</filter>
</defs>
</svg>
