<svg width="608" height="170" viewBox="0 0 608 170" fill="none" xmlns="http://www.w3.org/2000/svg">
<path d="M101.783 95.568C100.639 95.5298 99.6465 95.7969 98.6926 95.9496C89.306 97.514 79.9194 99.1929 70.6092 101.139C68.5106 101.559 66.4501 102.093 64.3515 102.436C63.3976 102.589 62.7489 103.085 62.1384 103.734C58.2464 107.854 54.3163 111.975 50.4243 116.134C44.9297 121.934 39.4352 127.734 33.6735 133.267C33.3683 133.572 33.063 133.839 32.7577 134.106C32.4525 134.412 32.0709 134.602 31.6512 134.45C31.117 134.259 30.7736 133.839 30.6973 133.267C30.6591 133.152 30.6591 133.038 30.6973 132.923C30.9262 131.588 31.1552 130.252 31.3841 128.917C31.3841 128.803 31.5367 128.764 31.613 128.688C32.4143 128.535 32.7577 129.184 33.2538 129.566C33.3301 129.527 33.3683 129.528 33.4446 129.489C33.4827 129.451 33.559 129.451 33.5972 129.413C40.8851 121.324 48.1731 113.196 55.461 105.107C55.5373 105.031 55.5755 104.916 55.6136 104.802C55.6518 104.764 55.6136 104.687 55.6136 104.535C55.0413 104.649 54.4689 104.687 53.9347 104.84C37.9852 108.618 22.1502 112.853 6.50592 117.737C6.16251 117.852 5.8191 117.928 5.47569 118.042C3.75864 118.691 1.66002 117.508 0.896883 115.638C0.439002 114.532 0.858727 113.654 1.96527 113.235C2.46131 113.044 2.9955 112.891 3.49154 112.739C21.0436 107.587 38.7865 103.161 56.682 99.46C57.7886 99.2311 58.8951 98.964 60.0016 98.8113C60.9937 98.6969 61.7187 98.239 62.4055 97.4758C65.6107 93.8891 68.854 90.3787 72.0973 86.8301C88.1613 69.3543 104.263 51.8786 120.327 34.4028C129.18 24.7491 138.032 15.1336 146.884 5.47998C147.953 4.29712 148.983 3.0761 150.051 1.85509C150.929 0.863013 151.654 0.710384 152.875 1.24458C153.676 1.58799 154.325 2.04587 154.821 2.77085C155.47 3.72477 155.622 4.71685 154.936 5.74708C153.6 7.69307 152.341 9.71538 151.005 11.6614C144.9 20.3611 139.329 29.3661 134.14 38.6C125.097 54.7022 117.618 71.4911 111.475 88.8906C111.284 89.3866 111.17 89.8826 110.979 90.5313C111.399 90.5695 111.742 90.6458 112.047 90.6076C114.833 90.3405 117.58 90.0353 120.366 89.7682C122.541 89.5392 124.715 89.3103 126.89 89.1577C127.654 89.1195 128.226 88.8524 128.76 88.3182C130.363 86.7156 132.08 85.2657 134.026 84.0828C135.17 83.396 136.43 82.7855 137.651 82.2131C138.91 81.6408 140.283 81.5263 141.657 81.6408C143.336 81.7553 144.748 82.4421 145.778 83.7776C146.465 84.6552 147.075 85.6091 147.8 86.6012C148.067 86.1051 148.373 85.6854 148.602 85.2275C153.524 75.5739 158.293 65.8439 162.872 56.0376C164.017 53.5574 165.238 51.1536 166.497 48.7116C166.802 48.101 167.298 47.5287 167.756 46.9945C168.138 46.5366 168.672 46.4985 169.244 46.6511C170.542 46.9563 171.381 47.9866 171.457 49.3221C171.534 50.4286 171.152 51.4207 170.771 52.4127C169.092 56.9916 167.146 61.4177 165.162 65.8439C158.637 80.4579 151.234 94.6141 143.374 108.541C142.573 109.991 141.772 111.441 141.008 112.929C140.36 114.188 139.902 115.524 139.597 116.936C139.329 118.233 139.444 119.53 139.864 120.79C140.093 121.515 140.398 122.24 141.199 122.736C142.458 122.011 143.527 121.057 144.442 119.912C146.388 117.47 148.373 115.028 150.319 112.548C157.034 103.962 163.292 95.0338 169.168 85.838C169.626 85.1512 170.122 84.4644 170.046 83.5486C170.046 83.396 170.122 83.2052 170.16 83.0526C171.343 79.5422 173.136 76.337 175.464 73.4753C176.036 72.7503 176.799 72.4832 177.868 72.9411C178.364 73.1319 178.784 73.4753 179.165 73.8187C180.272 74.8871 180.348 75.8791 179.432 77.1002C178.135 78.8172 177.066 80.6487 176.189 82.5947C175.998 83.0144 175.884 83.4723 175.693 84.0065C176.609 84.4262 177.448 84.8078 178.287 85.2275C179.165 85.6854 180.119 86.1051 180.92 86.6775C183.019 88.0893 183.668 89.73 183.019 92.2102C182.523 94.1181 181.989 95.9877 181.493 97.8574C181.378 98.239 181.416 98.6205 181.34 99.1929C181.798 98.964 182.141 98.8495 182.408 98.6587C183.286 97.9337 184.164 97.2469 184.965 96.4838C189.2 92.4392 193.436 88.3945 197.709 84.3499C198.663 83.4342 199.617 82.5947 200.571 81.6789C200.914 81.3737 201.258 80.9921 201.449 80.5724C201.945 79.3132 202.555 78.0922 202.746 76.7186C202.899 75.7265 203.547 75.3068 204.501 75.4976C206.18 75.8028 207.401 77.558 207.21 79.3514C207.134 80.1527 206.905 80.9921 206.714 81.7934C206.18 84.0447 205.302 86.1815 204.272 88.2801C203.013 90.8366 201.716 93.3549 200.457 95.9114C198.778 99.3074 197.29 102.78 196.412 106.519C196.183 107.549 195.801 108.541 195.878 109.648C196.526 109.724 196.984 109.457 197.404 109.152C198.167 108.579 198.968 108.045 199.617 107.358C203.509 103.314 207.401 99.2311 211.255 95.1483C211.713 94.6523 212.056 93.9654 212.361 93.3549C214.269 89.2721 216.902 85.7236 220.298 82.7474C221.557 81.6408 222.855 80.6487 224.343 79.8474C225.449 79.2369 226.594 78.8172 227.853 78.6646C229.532 78.4738 231.02 78.8172 232.241 80.0382C233.004 80.8395 233.386 81.679 232.737 82.7474C232.432 83.2434 232.279 83.8539 232.05 84.3881C231.745 85.0368 231.173 85.1512 230.6 84.7697C230.104 84.4262 229.723 83.9684 229.685 83.3197C229.685 83.0526 229.685 82.7473 229.685 82.4803C228.921 82.3658 228.464 82.7855 227.968 83.0907C224.801 85.0367 222.091 87.4788 219.916 90.4932C218.085 93.0115 216.711 95.7206 215.567 98.7732C215.986 98.7732 216.33 98.8877 216.597 98.7732C217.207 98.5442 217.78 98.239 218.314 97.8574C219.306 97.1324 220.298 96.3693 221.252 95.568C225.182 92.1339 228.998 88.5853 232.661 84.8841C233.004 84.5407 233.309 84.1973 233.691 83.8921C234.302 83.3579 234.988 83.3197 235.637 83.7776C236.362 84.2736 236.744 84.9986 236.782 85.8762C236.82 87.5169 236.896 89.1958 236.934 90.8366C236.973 91.4852 236.896 92.1339 237.316 92.8207C237.888 92.5918 238.422 92.401 238.957 92.1339C244.146 89.6919 248.839 86.563 253.075 82.671C254.944 80.9158 256.623 79.0461 258.188 76.9857C258.493 76.5659 258.836 76.1081 259.18 75.7265C259.752 75.0397 260.248 74.9634 261.049 75.4213C262.194 76.0699 262.499 76.8712 262.003 78.0922C260.935 80.8014 259.867 83.4723 258.798 86.1815C258.607 86.6775 258.455 87.1735 258.302 87.6314C258.684 87.9748 258.913 87.7077 259.18 87.5932C261.278 86.6393 263.377 85.7236 265.514 84.7697C266.544 84.3118 267.498 84.5026 268.299 85.2657C268.757 85.6854 268.986 86.2196 268.833 86.8683C268.795 87.0591 268.719 87.2117 268.681 87.3643C268.299 89.1958 268.91 90.6076 270.512 91.5615C271.581 92.2102 272.802 92.5536 274.023 92.7444C280.09 93.6983 286.042 93.4312 291.956 91.5997C292.338 91.4852 292.758 91.3326 293.139 91.2181C294.169 90.951 295.2 91.4089 295.696 92.3247C296.154 93.2404 295.963 93.9273 294.971 94.2707C291.079 95.568 287.072 96.3693 282.951 96.4456C279.861 96.5219 276.808 96.3693 273.794 95.6443C272.42 95.3009 271.046 94.8812 269.825 94.1562C268.032 93.126 266.658 91.7142 265.781 89.8063C265.666 89.5393 265.552 89.2721 265.399 89.005C265.361 88.9669 265.323 88.9287 265.17 88.8143C264.941 88.8906 264.598 88.9287 264.293 89.0814C263.034 89.73 261.736 90.3405 260.515 91.0273C259.142 91.8286 257.921 92.897 256.852 94.1181C256.127 94.9957 255.555 95.9114 255.288 97.0561C254.906 98.6587 254.41 100.261 254.029 101.864C253.838 102.589 253.456 102.932 252.579 102.818C251.434 102.665 250.48 101.826 250.327 100.643C250.175 99.4981 250.289 98.3916 250.594 97.2851C250.785 96.5982 250.976 95.9114 251.319 95.3009C252.884 92.1721 253.723 88.7761 254.944 85.4946C254.944 85.4565 254.906 85.3802 254.83 85.2275C254.563 85.4183 254.258 85.571 254.029 85.7999C249.641 89.4629 244.909 92.5918 239.682 94.9575C238.766 95.3772 237.888 95.8733 237.011 96.3311C235.675 97.018 234.225 96.4074 233.844 94.9193C233.729 94.4233 233.691 93.8509 233.691 93.3167C233.653 92.2102 233.691 91.0655 233.653 89.959C233.653 89.5774 233.615 89.1577 233.615 88.7761C233.004 88.5853 232.775 88.9669 232.47 89.234C229.379 91.7905 226.25 94.347 223.198 96.9798C221.366 98.5824 219.382 99.956 217.246 101.177C216.139 101.788 214.994 102.169 213.697 101.94C211.751 101.597 210.988 100.757 210.835 98.5824C210.53 98.8113 210.187 98.9258 209.996 99.1548C208.202 101.063 206.447 102.97 204.654 104.84C203.509 106.061 202.364 107.244 201.22 108.427C199.77 109.953 197.976 110.983 196.069 111.823C195.267 112.166 194.504 112.319 193.665 111.975C192.863 111.632 192.329 111.098 192.062 110.22C191.223 107.435 191.223 104.611 191.948 101.826C192.634 99.1929 193.703 96.6745 194.924 94.2325C195.496 93.0878 196.069 91.9431 196.412 90.6458C196.069 90.951 195.725 91.2181 195.42 91.5234C192.978 93.9654 190.574 96.3693 188.132 98.8113C186.911 100.032 185.614 101.177 184.125 102.055C182.561 102.97 180.92 103.581 179.089 103.505C178.478 103.466 177.906 103.314 177.41 103.009C176.494 102.436 175.884 101.673 176.113 100.528C176.418 98.7732 176.685 97.018 177.066 95.3009C177.372 93.8509 177.791 92.4392 178.135 90.9892C178.211 90.6076 178.249 90.1879 178.326 89.6919C176.418 88.6616 174.434 87.8985 172.602 87.0209C171.839 87.4025 171.61 88.0511 171.267 88.5853C165.391 97.3614 159.171 105.832 152.532 114.036C150.929 116.02 149.327 117.966 147.648 119.912C146.388 121.4 145.167 122.926 144.175 124.605C143.183 126.284 142.764 126.399 141.047 125.559C137.994 124.109 136.239 121.629 135.399 118.424C134.636 115.524 134.903 112.662 135.895 109.877C136.468 108.312 137.231 106.824 137.994 105.374C139.291 102.932 140.703 100.49 142.039 98.0863C142.268 97.7048 142.535 97.3232 142.573 96.6364C142.115 97.018 141.81 97.2469 141.543 97.514C137.116 101.749 132.499 105.68 127.73 109.495C126.814 110.22 125.86 110.983 124.868 111.594C122.998 112.777 121.358 112.662 119.679 111.174C117.809 109.533 117.237 107.435 117.771 105.069C118 104.115 118.458 103.199 118.954 102.322C120.633 99.2692 122.464 96.293 124.563 93.4694C124.754 93.2023 124.868 92.897 125.135 92.401C124.334 92.4773 123.762 92.4773 123.189 92.5536C119.221 93.126 115.214 93.7365 111.246 94.1944C110.101 94.347 109.605 94.8049 109.338 95.8733C107.736 101.368 106.019 106.862 104.454 112.395C101.707 122.316 99.532 132.389 97.815 142.539C97.1281 146.507 96.5558 150.476 95.9834 154.482C95.4492 158.107 94.8769 161.732 94.3809 165.357C94.2664 166.12 94.2282 166.883 94.1138 167.646C93.923 168.829 93.2362 169.249 92.0914 168.982C91.3665 168.791 90.7941 168.447 90.2599 167.951C89.6494 167.379 89.4586 166.692 89.4586 165.853C89.5349 164.136 89.5349 162.419 89.6113 160.702C90.2599 149.751 91.8625 138.914 93.9611 128.154C95.9834 117.737 98.6162 107.473 101.707 97.3614C101.554 96.7127 101.631 96.1785 101.783 95.568ZM103.157 91.6379C103.424 90.8747 103.615 90.3405 103.806 89.7682C108.384 76.1081 113.803 62.7914 120.251 49.9326C122.922 44.6288 125.784 39.4776 128.569 34.2501C128.722 33.9449 129.103 33.6396 128.798 33.1436C108.88 54.3206 89.0771 75.3831 69.2356 96.4838C69.1593 96.5601 69.1974 96.7127 69.1593 96.8653C69.3119 96.9035 69.4645 96.9798 69.6171 96.9798C80.6826 94.9193 91.8244 93.0878 103.157 91.6379ZM144.9 86.4485C142.802 85.7617 142.039 85.7236 140.322 86.563C138.986 87.2117 137.727 88.013 136.544 88.8524C134.751 90.1116 133.224 91.676 131.774 93.3549C127.959 97.7811 125.059 102.78 122.159 107.816C121.892 108.274 121.739 108.808 121.625 109.304C121.51 109.686 121.892 110.068 122.235 109.915C122.884 109.61 123.533 109.304 124.067 108.885C131.469 103.123 138.376 96.8653 144.748 89.9971C145.053 89.6537 145.358 89.2721 145.625 88.9669C145.358 88.0893 145.129 87.288 144.9 86.4485Z" fill="white"/>
<path d="M549.095 84.7315C546.958 86.792 544.859 88.8524 542.722 90.9129C541.654 91.9431 540.547 92.9352 539.403 93.851C538.372 94.6904 537.228 95.2628 535.93 95.568C533.87 96.0641 532.077 95.568 530.436 94.3089C529.52 93.622 529.1 92.7063 529.1 91.5616C529.1 90.1879 529.291 88.8524 529.711 87.5551C530.131 86.2578 530.627 84.9986 531.085 83.7013C531.313 83.0908 531.581 82.5184 531.81 81.9079C531.466 81.5263 531.237 81.8316 531.046 81.9842C528.49 83.9302 525.972 85.8762 523.415 87.8222C522.843 88.2419 522.308 88.6998 521.698 89.0432C521.049 89.4248 520.324 89.7682 519.599 89.959C517.463 90.5313 515.478 89.3866 514.906 87.288C514.677 86.4867 514.601 85.6473 514.639 84.846C514.715 82.4803 514.906 80.1145 515.059 77.7488C515.097 77.4054 515.097 77.062 515.135 76.5278C514.753 76.6423 514.448 76.6804 514.257 76.7949C509.144 80.0764 504.527 83.9302 500.445 88.4327C499.987 88.9287 499.643 89.6156 499.338 90.2261C497.507 94.347 495.713 98.4679 493.92 102.589C493.691 103.085 493.5 103.581 493.195 104.001C492.584 104.955 491.63 105.26 490.562 104.916C488.235 104.191 487.51 101.902 488.235 100.261C488.387 99.8797 488.578 99.4982 488.731 99.1166C492.432 91.18 496.095 83.2434 499.796 75.2686C499.987 74.8489 500.139 74.4292 500.33 73.9713C499.872 73.8187 499.758 74.1239 499.567 74.3147C499.376 74.4673 499.224 74.6581 499.071 74.8489C495.484 78.8554 491.859 82.8618 488.273 86.8683C487.51 87.7077 486.785 88.5853 485.983 89.3485C485.258 90.0353 484.457 90.6458 483.656 91.2563C482.74 91.9431 481.672 92.0194 480.603 91.7523C478.009 91.1037 475.986 88.738 475.719 86.0288C475.605 84.846 475.643 83.6631 476.063 82.5184C476.215 82.0987 476.33 81.6408 476.52 80.9158C476.063 81.3356 475.834 81.5263 475.643 81.7171C473.506 84.0447 471.064 86.0288 468.622 88.013C468.164 88.3946 467.668 88.738 467.134 89.0051C464.806 90.2261 462.25 89.3103 461.258 86.8683C460.952 86.1815 460.876 85.3802 460.647 84.5407C460.227 84.7697 459.808 84.9605 459.464 85.2276C458.167 86.1433 456.908 87.1354 455.572 88.013C454.39 88.8143 453.168 89.5393 451.909 90.1879C451.032 90.6458 450.04 90.951 449.086 91.2181C444.927 92.3247 441.912 89.0814 441.302 86.2959C440.92 84.5789 441.035 82.8618 441.531 81.2211C441.836 80.0764 442.332 79.008 442.714 77.8633C442.904 77.3673 443.057 76.8712 443.171 76.337C443.21 76.2607 443.133 76.1081 443.057 75.9173C442.752 76.0699 442.408 76.2226 442.141 76.3752C437.219 79.6185 432.755 83.396 428.901 87.8604C428.367 88.509 427.909 89.1577 427.68 89.9971C426.421 94.1181 425.123 98.239 423.788 102.36C423.597 102.932 423.444 103.505 423.177 104.039C422.529 105.336 421.422 105.718 420.048 105.184C418.217 104.459 417.149 102.78 417.377 100.834C417.454 100.071 417.683 99.3074 417.912 98.5824C419.934 92.5155 421.994 86.4867 424.017 80.4198C424.093 80.1909 424.131 79.9619 424.246 79.5804C423.559 79.7711 423.292 80.1909 422.948 80.5343C418.599 84.6552 414.287 88.7761 409.937 92.8589C408.907 93.8128 407.8 94.7286 406.694 95.6062C404.977 96.9798 403.031 97.3614 400.474 95.6062C399.177 94.6904 398.299 93.4312 397.918 91.8668C397.803 91.3326 397.65 90.7603 397.46 90.0734C397.04 90.4169 396.697 90.6458 396.391 90.8747C394.483 92.4773 392.576 94.0799 390.668 95.6443C389.676 96.4838 388.645 97.2851 387.539 97.9719C384.754 99.6508 381.968 99.4218 379.412 97.4759C376.893 95.568 375.405 92.9734 375.214 89.7682C375.214 89.5393 375.176 89.3103 375.176 89.0432C375.176 88.9669 375.138 88.9288 375.138 88.8524C374.795 88.6235 374.604 88.8524 374.375 89.0432C373.764 89.6156 373.154 90.1879 372.582 90.7603C369.338 94.0418 366.095 97.3232 362.852 100.605C362.356 101.101 361.821 101.597 361.249 102.017C359.341 103.276 357.166 102.97 355.678 101.215C354.19 99.4218 353.732 97.3232 354.457 95.072C354.724 94.2325 355.144 93.4313 355.602 92.6681C358.807 87.0591 362.813 82.1369 367.621 77.8251C368.918 76.6804 370.254 75.6121 371.78 74.8489C373.917 73.7805 376.13 73.2845 378.496 74.0095C380.442 74.5818 381.968 75.7265 383.075 77.4436C383.723 78.3975 384.029 79.4659 383.99 80.6487C383.952 81.4882 383.38 81.7934 382.617 81.3737C382.006 81.0685 381.548 80.6106 381.472 79.8856C381.434 79.6567 381.396 79.4277 381.358 79.1988C381.129 78.2449 380.48 77.7107 379.526 77.4817C378.572 77.2909 377.656 77.4436 376.741 77.787C375.443 78.283 374.337 79.0843 373.306 79.9619C370.139 82.7474 367.278 85.8381 364.836 89.2722C363.271 91.4852 361.821 93.8128 360.41 96.1404C359.913 96.9417 359.608 97.8574 359.227 98.735C359.15 98.9258 359.227 99.1547 359.227 99.4982C360.257 99.0784 360.944 98.3153 361.669 97.6285C363.462 95.8351 365.255 94.0036 367.049 92.2102C368.079 91.1418 369.147 90.1116 370.216 89.0814C372.047 87.288 373.726 85.4183 375.252 83.3579C375.939 82.4421 376.626 81.5645 377.313 80.6869C377.809 80.0001 378.458 79.9238 379.221 80.1527C380.9 80.7251 381.625 82.0605 381.129 83.7776C380.633 85.4946 380.098 87.1735 379.679 88.8906C379.335 90.3405 379.335 91.8287 379.869 93.2786C380.06 93.7747 380.289 94.2707 380.556 94.6904C381.701 96.3312 383.304 96.789 385.059 95.8733C385.898 95.4535 386.699 94.8812 387.424 94.3089C391.889 90.6076 396.315 86.8683 400.741 83.0908C401.314 82.5947 401.81 81.9842 402.267 81.3737C404.366 78.6264 406.388 75.8792 408.487 73.1319C408.869 72.5977 409.288 72.1016 409.746 71.6438C410.318 71.1096 410.891 70.6135 411.578 70.232C412.532 69.6596 413.6 69.6215 414.668 70.0412C415.851 70.4991 416.843 71.224 417.568 72.2924C418.102 73.0937 418.217 73.9332 417.835 74.8108C417.606 75.345 417.072 75.5739 416.5 75.3831C415.851 75.1542 415.355 74.7344 415.279 74.0095C415.241 73.7805 415.241 73.5897 415.203 73.2082C413.982 73.8187 412.913 74.391 412.951 75.9173C412.951 76.2226 412.722 76.6041 412.493 76.7949C410.776 78.1304 409.67 79.9619 408.449 81.7171C407.037 83.7776 405.549 85.7617 404.175 87.8222C403.565 88.6998 403.031 89.6156 402.611 90.6076C402.306 91.2945 402.191 92.0958 402.153 92.8589C402.077 93.9273 402.496 94.2707 403.527 94.1181C404.481 93.9654 405.358 93.6602 406.121 93.0497C406.694 92.63 407.228 92.1721 407.724 91.676C412.15 87.4025 416.576 83.0908 420.964 78.8172C422.452 77.3673 423.902 75.8792 425.429 74.4674C426.192 73.7805 426.726 72.9792 427.069 71.9872C429.473 65.5005 432.068 59.0902 434.853 52.718C437.715 46.1551 440.768 39.6684 444.049 33.2962C444.698 32.0371 445.423 30.8161 446.186 29.595C446.453 29.1372 446.796 28.7174 447.178 28.374C447.903 27.6872 448.475 27.6491 449.2 28.2596C449.963 28.8701 450.345 29.6332 450.078 30.5871C449.849 31.5029 449.62 32.4186 449.277 33.2962C447.979 36.5396 446.644 39.7447 445.308 42.9881C440.386 55.0456 435.616 67.1413 431.267 79.4277C431.076 79.9619 430.885 80.5343 430.694 81.0685C431.038 81.2974 431.152 81.0303 431.305 80.9158C431.495 80.7632 431.648 80.5724 431.801 80.4198C435.082 77.1383 438.669 74.2384 442.523 71.6819C442.752 71.5293 443.019 71.3385 443.248 71.1859C444.545 70.3846 445.804 70.6517 446.529 71.9872C447.025 72.9411 447.254 73.9713 447.331 75.0397C447.407 76.3752 447.14 77.6344 446.796 78.8935C446.491 79.9619 446.11 81.0303 445.728 82.0987C445.27 83.4723 445.041 84.846 445.194 86.2959C445.346 87.8222 446.033 88.3564 447.559 88.2419C448.704 88.1656 449.773 87.784 450.765 87.2117C451.986 86.5249 453.245 85.7999 454.428 84.9986C457.366 83.0145 460.304 80.9921 463.204 78.9698C463.738 78.5883 464.158 78.0922 464.539 77.5962C465.989 75.7647 467.515 74.0858 469.423 72.7121C470.835 71.7201 472.323 70.8806 474.078 70.5754C474.155 70.5754 474.193 70.5372 474.269 70.5372C476.291 70.1938 478.047 70.5754 479.153 72.6358C479.764 72.3306 480.374 72.0253 480.985 71.7201C481.443 71.4911 481.901 71.5674 482.358 71.7582C483.16 72.1016 483.656 72.7503 483.999 73.5516C484.419 74.5818 484.419 75.6121 484.19 76.6804C483.923 78.0922 483.35 79.3896 482.702 80.6487C482.129 81.7553 481.557 82.8618 481.061 84.0065C480.756 84.6934 480.565 85.4565 480.451 86.2196C480.336 86.8683 480.451 87.5169 480.718 88.1275C481.137 89.0432 481.862 89.3485 482.74 88.9287C483.312 88.6616 483.846 88.2419 484.343 87.8222C484.839 87.4025 485.258 86.8683 485.678 86.4104C490.6 80.7251 495.522 75.0397 500.445 69.3543C500.903 68.8202 501.322 68.2097 501.895 67.7899C502.925 67.0268 503.345 65.9966 503.612 64.8137C503.764 64.1269 504.031 63.4401 504.337 62.7914C504.566 62.2572 505.1 62.0664 505.672 62.219C506.702 62.448 507.351 63.2111 507.542 64.3177C507.847 66.0347 507.618 67.7518 507.313 69.4307C506.779 72.1016 505.863 74.6581 504.871 77.2146C504.184 78.9698 503.421 80.725 502.696 82.4421C502.62 82.6329 502.581 82.8618 502.505 83.0908C502.849 83.3197 503.001 83.0526 503.116 82.9C506.512 79.6567 510.136 76.7568 514.105 74.2384C514.753 73.8187 515.288 73.2463 515.86 72.7503C516.28 72.4069 516.738 72.3687 517.157 72.674C517.844 73.1319 518.264 73.7424 518.34 74.5818C518.417 75.4213 518.455 76.2226 518.417 77.062C518.264 79.8856 518.035 82.7474 517.882 85.571C517.844 86.1433 517.653 86.7538 518.035 87.3262C518.951 87.4025 519.752 87.0209 520.515 86.563C521.507 85.9144 522.499 85.2657 523.453 84.5789C527.154 81.8316 530.856 79.0462 534.519 76.2607C535.015 75.8791 535.434 75.345 535.854 74.8489C536.884 73.6279 537.838 72.3306 538.868 71.1096C539.593 70.2701 540.471 69.7359 541.578 69.507C543.638 69.0491 546.004 70.8043 546.233 72.8648C546.309 73.5897 546.118 74.1621 545.508 74.5437C544.935 74.8871 544.363 74.7726 543.829 74.4674C543.485 74.2384 543.18 73.9713 542.799 73.6661C542.532 73.9713 542.226 74.2384 541.959 74.5437C538.678 78.9317 536.121 83.7013 534.442 88.9669C534.061 90.1879 533.603 91.4089 533.107 92.7444C533.45 92.8589 533.756 93.0115 534.061 93.0497C535.053 93.126 535.969 92.8207 536.732 92.2484C537.953 91.3326 539.174 90.3787 540.28 89.3103C542.989 86.7538 545.622 84.121 548.293 81.4882C549.896 79.9238 551.537 78.3593 553.139 76.7949C554.017 75.9555 554.933 75.2305 556.115 75.2686C558.443 73.0174 560.694 70.8425 562.945 68.6675C563.403 68.2096 563.937 67.7899 564.434 67.4084C565.311 66.7979 566.303 66.4544 567.41 66.4163C569.012 66.34 570.577 67.4465 570.539 69.507C570.539 70.3083 570.348 71.1477 570.043 71.9109C568.287 76.566 564.815 79.2369 560.007 80.2672C559.664 80.3435 559.321 80.3435 558.901 80.4198C556.993 82.9 555.085 85.3802 553.788 88.2801C553.33 89.3485 553.025 90.5313 552.719 91.6379C552.605 91.9813 552.605 92.3247 552.643 92.7063C552.719 94.4996 553.597 95.3772 555.39 95.568C556.84 95.7206 558.252 95.5299 559.588 94.9957C561.038 94.4615 562.449 93.851 563.823 93.1641C568.058 91.0274 571.989 88.3946 575.842 85.6091C582.672 80.6869 589.464 75.7647 596.294 70.8425C598.546 69.2017 600.835 67.6373 603.124 66.0729C603.811 65.615 604.536 65.1953 605.261 64.8137C605.834 64.5084 606.406 64.5848 606.902 65.0426C607.36 65.4624 607.436 65.9584 606.978 66.4544C606.33 67.1413 605.643 67.8281 604.918 68.4386C603.62 69.5451 602.247 70.6135 600.911 71.6819C592.669 78.2449 584.275 84.617 575.652 90.684C572.637 92.8207 569.585 94.8049 566.341 96.5219C564.357 97.5903 562.297 98.5061 560.084 98.9258C558.099 99.3455 556.077 99.3455 554.093 98.7732C552.49 98.2772 551.041 97.4758 549.896 96.1785C547.797 93.8128 547.301 91.0655 548.064 88.0511C548.293 87.1354 548.675 86.2578 549.018 85.3802C549.133 85.1131 549.209 84.846 549.323 84.617C549.285 84.846 549.171 84.7697 549.095 84.7315ZM475.719 74.9634C474.994 75.2686 474.345 75.4213 473.849 75.7647C472.819 76.4515 471.789 77.1765 470.911 78.0159C469.042 79.7711 467.515 81.7934 466.142 83.9302C465.608 84.7697 465.264 85.7236 464.883 86.6393C464.768 86.9446 464.654 87.3262 464.997 87.6314C465.646 87.8604 466.218 87.6314 466.829 87.3643C467.821 86.9446 468.698 86.3341 469.461 85.571C471.942 83.1289 474.269 80.5343 476.291 77.7107C476.597 77.291 476.864 76.8331 477.169 76.337C476.673 75.9173 476.253 75.4976 475.719 74.9634ZM568.478 68.9728C567.639 69.278 567.677 69.278 567.333 69.6596C566.494 70.728 565.616 71.7582 564.777 72.8266C563.556 74.3529 562.373 75.9173 561.228 77.4817C561.076 77.6725 560.809 77.9015 560.999 78.2067C565.311 77.1765 569.089 72.4832 568.478 68.9728Z" fill="white"/>
<path d="M316.72 119.034C318.895 118.805 320.688 118.615 322.52 118.424C325.458 118.119 328.396 117.813 331.334 117.508C334.768 117.165 338.164 116.859 341.598 116.554C344.956 116.249 348.314 115.982 351.672 115.753C356.518 115.409 361.364 115.066 366.209 114.761C368.499 114.608 370.826 114.456 373.116 114.379C380.633 114.074 388.15 113.731 395.666 113.54C403.183 113.349 410.7 113.273 418.217 113.12C428.214 112.929 438.211 113.196 448.246 113.349C450.154 113.387 452.024 113.502 453.932 113.54C454.847 113.578 455.534 113.921 455.916 114.761C456.259 115.486 455.954 116.096 455.115 116.096C454.161 116.134 453.207 116.096 452.291 116.096C442.637 116.134 432.984 116.058 423.33 116.211C414.554 116.363 405.816 116.745 397.078 117.05C393.53 117.165 389.981 117.317 386.432 117.546C381.663 117.813 376.855 118.157 372.086 118.462C368.232 118.729 364.416 118.996 360.562 119.301C356.976 119.569 353.351 119.912 349.764 120.217C346.749 120.484 343.735 120.751 340.759 121.057C336.752 121.476 332.746 121.896 328.74 122.316C325.191 122.697 321.681 123.117 318.17 123.537C317.216 123.651 316.3 123.766 315.308 123.918C315.156 124.3 314.965 124.682 314.85 125.063C313.553 129.375 312.561 133.763 311.683 138.151C311.455 139.296 311.149 140.478 310.844 141.585C310.615 142.424 310.005 142.653 309.165 142.348C308.402 142.043 307.868 141.509 307.791 140.669C307.715 139.715 307.677 138.761 307.715 137.846C307.791 134.831 308.249 131.817 308.669 128.841C308.822 127.887 309.012 126.971 309.127 126.055C309.165 125.674 309.127 125.254 309.127 124.758C308.784 124.796 308.478 124.796 308.211 124.834C296.535 126.322 284.897 128.078 273.26 130.024C264.903 131.435 256.585 132.847 248.305 134.602C245.634 135.175 243.001 135.823 240.407 136.701C239.911 136.854 239.453 137.083 238.88 137.311C239.262 137.807 239.644 138.189 239.911 138.609C240.407 139.448 240.063 140.173 239.109 140.25C236.438 140.478 233.806 140.707 231.135 140.822C229.379 140.898 227.891 139.715 227.395 138.113C227.128 137.235 227.204 136.739 227.929 136.243C228.96 135.556 230.028 134.869 231.135 134.335C234.798 132.504 238.69 131.245 242.696 130.405C247.656 129.375 252.693 128.421 257.692 127.543C263.988 126.437 270.283 125.407 276.617 124.453C281.883 123.651 287.149 122.888 292.414 122.163C297.451 121.476 302.488 120.828 307.563 120.141C308.478 120.026 309.47 120.103 310.386 119.683C310.577 118.92 310.768 118.157 310.958 117.432C312.294 112.471 313.591 107.473 315.461 102.665C318.59 94.4614 322.138 86.4867 326.03 78.6264C330.953 68.7057 335.951 58.8612 340.912 48.9405C345.185 40.3552 349.268 31.6936 352.74 22.7268C353.77 20.094 354.762 17.423 355.793 14.7521C356.022 14.2179 356.25 13.6455 356.518 13.1113C356.899 12.3482 357.433 12.0811 358.273 12.1955C359.99 12.4245 361.478 14.2942 361.173 16.0494C360.944 17.3849 360.562 18.7203 360.181 20.0177C358.731 24.9017 356.785 29.595 354.877 34.3264C351.252 43.2551 347.093 51.9549 342.819 60.6164C337.935 70.499 332.937 80.2671 328.32 90.2642C324.351 98.8876 320.841 107.664 317.598 116.554C317.254 117.279 317.025 118.004 316.72 119.034Z" fill="white"/>
<path d="M221.71 67.2558C222.168 66.9124 222.587 66.6072 223.007 66.3019C224.953 64.9283 226.708 63.402 228.196 61.4942C228.807 60.6929 229.494 59.9679 230.219 59.2429C232.012 57.4114 233.653 55.5036 235.103 53.3668C235.79 52.3366 236.4 52.1458 237.507 52.5274C238.651 52.9471 239.567 53.672 240.025 54.8549C240.368 55.7325 240.254 56.343 239.529 56.9154C236.018 59.8153 232.623 62.8678 228.425 64.8138C226.937 65.5006 225.525 66.4164 224.114 67.2558C223.694 67.4848 223.312 67.7519 222.893 67.9427C222.358 68.2098 222.015 68.019 221.71 67.2558Z" fill="white"/>
<path d="M204.005 64.5847C201.563 64.5465 199.846 61.8756 200.914 59.8151C201.601 58.4796 203.127 57.9073 204.539 58.4033C205.569 58.7849 206.409 59.4335 206.943 60.3875C207.554 61.494 207.363 62.4098 206.256 63.0966C205.875 63.3255 205.684 63.6308 205.417 63.936C204.921 64.4702 204.654 64.5847 204.005 64.5847Z" fill="white"/>
</svg>
