<svg width="81" height="52" viewBox="0 0 81 52" fill="none" xmlns="http://www.w3.org/2000/svg">
<path fill-rule="evenodd" clip-rule="evenodd" d="M30.1983 27.9131C30.1354 27.9339 30.0735 27.9544 30.012 27.9729C27.5259 28.7392 25.044 29.5365 22.5925 30.4034C22.3813 30.476 22.1723 30.5529 21.9637 30.6297C21.6255 30.7541 21.2882 30.8783 20.9443 30.9831C20.6915 31.0593 20.5338 31.2174 20.3921 31.4154C20.0852 31.8424 19.7772 32.2697 19.4689 32.6974C18.8686 33.53 18.2671 34.3643 17.6707 35.2026L17.6706 35.2027C16.3935 36.9745 15.1164 38.7463 13.7572 40.4555C13.6857 40.5493 13.6128 40.6327 13.5399 40.7162L13.5398 40.7162L13.5397 40.7163C13.4682 40.8102 13.3718 40.8758 13.2525 40.8497C13.1008 40.8175 12.9924 40.7163 12.9509 40.564C12.9364 40.5344 12.9322 40.5034 12.9383 40.471L12.9783 39.3605C12.9755 39.3398 12.9923 39.3258 13.0091 39.3118C13.0176 39.3049 13.026 39.2979 13.0319 39.2901C13.1906 39.2371 13.2959 39.3157 13.4012 39.3943C13.4363 39.4205 13.4714 39.4467 13.5085 39.468C13.5181 39.4614 13.5255 39.4578 13.5329 39.4542C13.5404 39.4505 13.5478 39.4469 13.5574 39.4404C13.5619 39.4345 13.5693 39.4309 13.5767 39.4272C13.5841 39.4236 13.5915 39.42 13.596 39.4141C14.4358 38.1852 15.2753 36.9538 16.1147 35.7223C16.954 34.491 17.7933 33.2598 18.633 32.0311C18.6509 32.0077 18.6571 31.9753 18.6632 31.9429C18.6686 31.9358 18.666 31.9261 18.6619 31.9105C18.6591 31.9 18.6557 31.887 18.6535 31.8705C18.5949 31.8907 18.5358 31.9077 18.4774 31.9246C18.3854 31.9511 18.2948 31.9772 18.2097 32.0144C14.0262 33.6198 9.89042 35.345 5.82998 37.239C5.78555 37.2607 5.74076 37.2799 5.69598 37.2991C5.6512 37.3183 5.60642 37.3375 5.56199 37.3592C5.12044 37.5976 4.50869 37.3537 4.23372 36.875C4.0693 36.5919 4.151 36.3388 4.43549 36.1847C4.53886 36.1281 4.64994 36.0774 4.75697 36.0285C4.78189 36.0171 4.80659 36.0059 4.83092 35.9946C9.39853 33.9587 14.0443 32.1122 18.7578 30.4566C18.8307 30.431 18.9034 30.4047 18.9762 30.3785C19.1945 30.2997 19.4129 30.221 19.6336 30.1597C19.8982 30.0925 20.0779 29.942 20.2361 29.7102C20.7935 28.8875 21.3583 28.0758 21.9244 27.2623C22.1074 26.9993 22.2906 26.7361 22.4737 26.4723C24.3308 23.8122 26.1905 21.1518 28.0503 18.4914C29.9105 15.8303 31.7708 13.1691 33.6284 10.5083C34.6514 9.03933 35.6746 7.57296 36.6979 6.10659C37.7216 4.63966 38.7453 3.17272 39.7686 1.7032C39.9289 1.46927 40.0842 1.23156 40.2407 0.992138C40.3246 0.863657 40.4089 0.734684 40.4944 0.605542C40.696 0.304736 40.8869 0.236934 41.2372 0.337124C41.4668 0.400935 41.6593 0.501328 41.8201 0.679656C42.0307 0.914445 42.1082 1.17767 41.9597 1.48185C41.8143 1.76985 41.6747 2.06232 41.5351 2.35479C41.3956 2.64723 41.256 2.93967 41.1106 3.22764C39.7739 5.80744 37.5239 11.1416 37.5239 11.1416C37.5239 11.1416 34.2474 20.6557 33.2177 25.594C33.1945 25.6919 33.1811 25.7885 33.1658 25.8993C33.159 25.9485 33.1518 26.0005 33.1432 26.0567C33.1781 26.0551 33.2112 26.0548 33.2427 26.0546C33.3151 26.0539 33.3788 26.0533 33.4354 26.0384C33.8079 25.9514 34.1775 25.8621 34.547 25.7729C34.9165 25.6837 35.2861 25.5945 35.6585 25.5075C36.2394 25.3661 38.1581 25.3014 38.351 25.402C38.4697 25.464 36.6775 26.1176 36.5252 26.1591C36.3338 26.2136 36.1421 26.2684 35.9503 26.3232C35.0851 26.5707 34.2155 26.8193 33.3492 27.0394C33.0446 27.1225 32.9269 27.2646 32.8935 27.5638C32.7975 28.1996 32.6962 28.8362 32.5948 29.4734C32.4494 30.3868 32.3038 31.3018 32.173 32.2184C31.7906 35.0065 31.5688 37.8151 31.4738 40.6277C31.4325 41.7279 31.4222 42.824 31.4133 43.9304C31.4091 44.2642 31.4038 44.5982 31.3985 44.9322C31.3879 45.6003 31.3772 46.2683 31.3758 46.9352C31.3742 47.0406 31.3778 47.1454 31.3814 47.2502C31.385 47.355 31.3885 47.4597 31.387 47.5652C31.3784 47.8926 31.2076 48.0314 30.8878 48.0008C30.6844 47.9756 30.5168 47.9034 30.3539 47.7885C30.1677 47.6557 30.0909 47.4766 30.0603 47.2491C30.0393 47.0151 30.0131 46.7818 29.987 46.5485C29.9608 46.3152 29.9347 46.0819 29.9137 45.8479C29.69 42.8572 29.7288 39.8627 29.9049 36.8708C30.0728 33.9748 30.4117 31.0978 30.8802 28.2454C30.8152 28.0753 30.8164 27.9277 30.8355 27.7568C30.5997 27.7805 30.394 27.8485 30.1983 27.9131ZM31.1016 26.4927C31.0925 26.5371 31.0827 26.5842 31.0723 26.6347C28.0548 27.441 25.1029 28.3437 22.18 29.3056C22.1524 29.3093 22.1236 29.3039 22.0948 29.2984C22.0804 29.2957 22.066 29.2929 22.0518 29.2913C22.0537 29.2746 22.0523 29.2583 22.0511 29.2432C22.0493 29.2198 22.0476 29.1994 22.0585 29.1852C23.2179 27.5639 24.3768 25.9434 25.5356 24.3229C28.9806 19.5056 32.4256 14.6882 35.8856 9.85104C35.9643 9.94723 35.9254 10.0272 35.8901 10.0996C35.8802 10.12 35.8706 10.1398 35.864 10.1592C35.6943 10.6157 35.5226 11.0706 35.3509 11.5253C34.9518 12.5825 34.5531 13.6386 34.1824 14.7116C32.9043 18.4308 31.9221 22.2364 31.1799 26.1045C31.1562 26.2287 31.1318 26.3468 31.1016 26.4927Z" fill="#EEEEEE"/>
<path d="M41.7779 34.0403C42.3588 33.899 42.8377 33.7819 43.327 33.6634C44.1119 33.4735 44.8968 33.2836 45.6817 33.0937C46.5996 32.8754 47.5086 32.6688 48.4278 32.4608C49.3265 32.2556 50.2265 32.0607 51.1279 31.8762C52.4283 31.6064 53.7287 31.3366 55.0305 31.0771C55.6452 30.9522 56.2703 30.8259 56.8878 30.7217C58.9132 30.3648 60.9373 29.9976 62.967 29.6716C64.9966 29.3457 67.0304 29.0508 69.0615 28.7353C71.7631 28.3189 74.4814 28.0265 77.2059 27.7018C77.7242 27.6425 78.2349 27.6053 78.7532 27.5461C79.0027 27.523 79.2013 27.591 79.3353 27.8045C79.4548 27.9884 79.3944 28.165 79.167 28.1956C78.9099 28.2407 78.6501 28.2652 78.4019 28.2986C75.7878 28.6611 73.1695 28.9926 70.5595 29.3861C68.1873 29.7476 65.8338 30.1698 63.4775 30.5712C62.5203 30.7317 61.5644 30.9025 60.6113 31.094C59.3288 31.3404 58.0387 31.6088 56.7576 31.8655C55.7232 32.0785 54.6991 32.29 53.6661 32.5133C52.7041 32.7165 51.7345 32.9418 50.7738 33.1554C49.9669 33.3377 49.1599 33.52 48.3647 33.7113C47.2945 33.9712 46.2243 34.2311 45.1541 34.4909C44.2066 34.7238 43.2708 34.9656 42.335 35.2073C42.0807 35.2731 41.8368 35.3376 41.5736 35.4151C41.5461 35.5241 41.5084 35.6344 41.4913 35.742C41.2971 36.9575 41.1883 38.1826 41.1106 39.4035C41.0904 39.722 41.0508 40.0536 41.0085 40.3645C40.9771 40.6003 40.82 40.6846 40.5814 40.6325C40.3635 40.5777 40.1993 40.4524 40.148 40.2278C40.0926 39.9721 40.0474 39.715 40.0243 39.4655C39.9351 38.646 39.9491 37.8126 39.9543 36.9909C39.9608 36.7269 39.9791 36.4718 39.9767 36.2196C39.9732 36.1148 39.9475 36.0024 39.9294 35.8681C39.8378 35.8909 39.755 35.9021 39.6841 35.9221C36.5749 36.7513 33.4858 37.6514 30.4037 38.6032C28.1912 39.2905 25.989 39.9765 23.8096 40.7541C23.1068 41.0066 22.4172 41.2784 21.7462 41.6108C21.6174 41.6703 21.5017 41.749 21.3549 41.8319C21.4764 41.9524 21.5937 42.0419 21.6814 42.1458C21.8464 42.3552 21.7798 42.5641 21.5242 42.6196C20.8088 42.7791 20.1039 42.9371 19.3844 43.0656C18.9116 43.1503 18.4653 42.8841 18.2724 42.468C18.168 42.24 18.1706 42.1028 18.3489 41.942C18.603 41.7183 18.8674 41.4932 19.1477 41.3081C20.0734 40.6783 21.0819 40.1951 22.1368 39.8215C23.4432 39.3614 24.773 38.9193 26.0953 38.4991C27.7607 37.9696 29.4289 37.4608 31.1102 36.9713C32.5076 36.5621 33.9065 36.1633 35.3067 35.7748C36.6462 35.4049 37.9872 35.0454 39.3371 34.6742C39.5811 34.6098 39.8526 34.5943 40.0854 34.4472C40.1093 34.2334 40.1331 34.0197 40.1584 33.8163C40.3392 32.4237 40.5084 31.022 40.8396 29.6512C41.388 27.3144 42.0585 25.0243 42.8263 22.7527C43.798 19.8852 44.7931 17.0356 45.7752 14.1667C46.6199 11.6848 47.41 9.18908 48.0237 6.63296C48.2068 5.88205 48.3781 5.12219 48.5598 4.36094C48.6024 4.20786 48.6435 4.04444 48.6964 3.88996C48.7719 3.66928 48.9069 3.57742 49.1385 3.57781C49.6121 3.5772 50.0835 4.02948 50.0648 4.51617C50.0515 4.88635 49.9968 5.26211 49.9408 5.62752C49.7261 7.00369 49.3701 8.34627 49.0258 9.69779C48.3694 12.2491 47.5599 14.758 46.718 17.2606C45.7553 20.1163 44.7573 22.9452 43.8711 25.8222C43.1105 28.3034 42.4796 30.8093 41.9252 33.3363C41.8586 33.5453 41.823 33.7501 41.7779 34.0403Z" fill="#EEEEEE"/>
</svg>
