<svg width="428" height="73" viewBox="0 0 428 73" fill="none" xmlns="http://www.w3.org/2000/svg">
<g filter="url(#filter0_d_3680_3616)">
<path d="M201.075 47.8909C199.926 47.8909 198.898 47.7865 197.99 47.5777C197.092 47.3689 196.293 47.0661 195.594 46.6694V43.2243C196.398 43.6523 197.248 44.0125 198.146 44.3048C199.054 44.5867 200.041 44.7276 201.106 44.7276C201.732 44.7276 202.322 44.665 202.875 44.5397C203.429 44.404 203.919 44.1952 204.347 43.9133C204.775 43.6314 205.109 43.2765 205.35 42.8485C205.59 42.41 205.71 41.8932 205.71 41.2982C205.71 40.6927 205.585 40.1707 205.334 39.7322C205.083 39.2937 204.713 38.8814 204.222 38.4951C203.731 38.0984 203.116 37.6704 202.374 37.211C201.664 36.7517 201.001 36.2453 200.386 35.692C199.77 35.1387 199.274 34.4967 198.898 33.7659C198.522 33.0247 198.334 32.1477 198.334 31.1351C198.334 30.0911 198.522 29.1515 198.898 28.3163C199.284 27.4812 199.822 26.7713 200.511 26.1866C201.21 25.5916 202.025 25.1374 202.954 24.8243C203.893 24.5111 204.911 24.3545 206.007 24.3545C207.197 24.3545 208.268 24.4797 209.218 24.7303C210.168 24.9704 211.086 25.3254 211.974 25.7951L210.611 28.7392C209.912 28.3946 209.171 28.1128 208.388 27.8935C207.615 27.6639 206.822 27.549 206.007 27.549C205.464 27.549 204.958 27.6221 204.488 27.7683C204.029 27.9144 203.627 28.1284 203.283 28.4103C202.938 28.6922 202.667 29.0419 202.468 29.4595C202.28 29.8666 202.186 30.3364 202.186 30.8689C202.186 31.4744 202.306 31.9859 202.547 32.4035C202.787 32.8211 203.136 33.2074 203.596 33.5623C204.055 33.9068 204.614 34.2827 205.271 34.6898C206.159 35.2431 206.921 35.8121 207.558 36.3967C208.194 36.9813 208.68 37.6338 209.014 38.3542C209.348 39.0745 209.515 39.9253 209.515 40.9067C209.515 42.0864 209.301 43.1147 208.873 43.9916C208.455 44.8581 207.86 45.5837 207.088 46.1683C206.326 46.7425 205.433 47.1757 204.41 47.468C203.387 47.7499 202.275 47.8909 201.075 47.8909ZM217.689 47.8909C216.76 47.8909 215.967 47.7082 215.309 47.3428C214.662 46.9774 214.166 46.4502 213.821 45.7612C213.487 45.0617 213.32 44.2265 213.32 43.2556C213.32 42.8276 213.352 42.3578 213.414 41.8462C213.487 41.3243 213.576 40.7866 213.681 40.2333L215.81 30.2425H219.475L217.235 40.7657C217.162 41.1729 217.1 41.5435 217.047 41.8776C217.006 42.2012 216.985 42.4987 216.985 42.7702C216.985 43.4696 217.147 44.0021 217.47 44.3674C217.804 44.7224 218.321 44.8999 219.02 44.8999C219.772 44.8999 220.503 44.618 221.213 44.0543C221.933 43.4801 222.586 42.6501 223.17 41.5644C223.755 40.4786 224.209 39.1685 224.533 37.6338L226.099 30.2425H229.732L226.067 47.5777H223.186L223.562 44.2891H223.405C222.988 44.9051 222.502 45.4897 221.949 46.043C221.395 46.5859 220.769 47.0296 220.07 47.3741C219.37 47.7186 218.577 47.8909 217.689 47.8909ZM229.638 55.2665L234.946 30.2425H237.812L237.467 33.2335H237.593C238.021 32.6593 238.501 32.1216 239.033 31.6205C239.566 31.1194 240.161 30.7123 240.819 30.3991C241.487 30.0859 242.218 29.9293 243.011 29.9293C243.898 29.9293 244.702 30.1485 245.423 30.587C246.153 31.015 246.733 31.6832 247.161 32.5914C247.599 33.4892 247.818 34.648 247.818 36.0679C247.818 37.258 247.693 38.4272 247.443 39.5756C247.203 40.7135 246.848 41.7836 246.378 42.7858C245.908 43.788 245.334 44.6754 244.655 45.448C243.987 46.2101 243.225 46.8103 242.369 47.2488C241.513 47.6768 240.573 47.8909 239.55 47.8909C238.799 47.8909 238.151 47.7656 237.608 47.515C237.076 47.254 236.627 46.9095 236.262 46.4815C235.896 46.0535 235.588 45.5837 235.338 45.0721H235.197C235.145 45.6881 235.072 46.3301 234.978 46.9983C234.884 47.6664 234.769 48.3032 234.633 48.9087L233.286 55.2665H229.638ZM239.065 44.8999C239.66 44.8999 240.213 44.7381 240.725 44.4144C241.236 44.0804 241.701 43.6262 242.118 43.052C242.536 42.4779 242.891 41.8149 243.183 41.0633C243.476 40.3116 243.7 39.5182 243.857 38.683C244.013 37.8374 244.091 36.9865 244.091 36.1305C244.091 35.0656 243.883 34.267 243.465 33.7346C243.058 33.1917 242.442 32.9203 241.617 32.9203C241.116 32.9203 240.636 33.0508 240.177 33.3118C239.717 33.5623 239.289 33.9068 238.892 34.3453C238.496 34.7838 238.136 35.2953 237.812 35.8799C237.488 36.4541 237.212 37.0701 236.982 37.7278C236.752 38.3855 236.575 39.0536 236.45 39.7322C236.335 40.4108 236.277 41.0685 236.277 41.7053C236.277 42.6658 236.512 43.4383 236.982 44.0229C237.462 44.6076 238.156 44.8999 239.065 44.8999ZM248.461 55.2665L253.769 30.2425H256.635L256.29 33.2335H256.416C256.844 32.6593 257.324 32.1216 257.856 31.6205C258.389 31.1194 258.984 30.7123 259.641 30.3991C260.31 30.0859 261.04 29.9293 261.834 29.9293C262.721 29.9293 263.525 30.1485 264.245 30.587C264.976 31.015 265.556 31.6832 265.984 32.5914C266.422 33.4892 266.641 34.648 266.641 36.0679C266.641 37.258 266.516 38.4272 266.265 39.5756C266.025 40.7135 265.67 41.7836 265.201 42.7858C264.731 43.788 264.157 44.6754 263.478 45.448C262.81 46.2101 262.048 46.8103 261.192 47.2488C260.336 47.6768 259.396 47.8909 258.373 47.8909C257.621 47.8909 256.974 47.7656 256.431 47.515C255.899 47.254 255.45 46.9095 255.085 46.4815C254.719 46.0535 254.411 45.5837 254.161 45.0721H254.02C253.967 45.6881 253.894 46.3301 253.8 46.9983C253.706 47.6664 253.592 48.3032 253.456 48.9087L252.109 55.2665H248.461ZM257.888 44.8999C258.483 44.8999 259.036 44.7381 259.548 44.4144C260.059 44.0804 260.524 43.6262 260.941 43.052C261.359 42.4779 261.714 41.8149 262.006 41.0633C262.298 40.3116 262.523 39.5182 262.679 38.683C262.836 37.8374 262.914 36.9865 262.914 36.1305C262.914 35.0656 262.706 34.267 262.288 33.7346C261.881 33.1917 261.265 32.9203 260.44 32.9203C259.939 32.9203 259.459 33.0508 258.999 33.3118C258.54 33.5623 258.112 33.9068 257.715 34.3453C257.319 34.7838 256.958 35.2953 256.635 35.8799C256.311 36.4541 256.035 37.0701 255.805 37.7278C255.575 38.3855 255.398 39.0536 255.272 39.7322C255.158 40.4108 255.1 41.0685 255.1 41.7053C255.1 42.6658 255.335 43.4383 255.805 44.0229C256.285 44.6076 256.979 44.8999 257.888 44.8999ZM268.896 47.5777L274.08 23.2113H277.728L272.561 47.5777H268.896ZM277.744 47.5777L281.424 30.2425H285.088L281.408 47.5777H277.744ZM284.07 27.643C283.528 27.643 283.073 27.5125 282.708 27.2515C282.343 26.9801 282.16 26.5572 282.16 25.9831C282.16 25.5028 282.249 25.0852 282.426 24.7303C282.614 24.3753 282.88 24.1039 283.225 23.916C283.58 23.7176 284.003 23.6185 284.493 23.6185C285.036 23.6185 285.48 23.749 285.824 24.01C286.169 24.2605 286.341 24.6677 286.341 25.2314C286.341 25.9622 286.138 26.5468 285.73 26.9853C285.323 27.4237 284.77 27.643 284.07 27.643ZM293.889 47.8909C292.563 47.8909 291.404 47.6403 290.413 47.1392C289.431 46.6277 288.669 45.8812 288.126 44.8999C287.594 43.9081 287.328 42.6971 287.328 41.2668C287.328 39.847 287.531 38.4638 287.938 37.117C288.346 35.7599 288.946 34.5384 289.739 33.4527C290.533 32.367 291.498 31.5057 292.636 30.8689C293.774 30.232 295.069 29.9136 296.52 29.9136C298.295 29.9136 299.626 30.3156 300.513 31.1194C301.411 31.9128 301.86 32.9672 301.86 34.2827C301.86 35.1805 301.656 36 301.249 36.7412C300.842 37.4824 300.221 38.1245 299.386 38.6673C298.561 39.1998 297.512 39.6121 296.238 39.9045C294.975 40.1968 293.487 40.3429 291.775 40.3429H291.07C291.06 40.4995 291.049 40.6613 291.039 40.8284C291.029 40.985 291.023 41.1416 291.023 41.2982C291.023 42.457 291.326 43.3705 291.932 44.0386C292.537 44.6963 293.419 45.0252 294.578 45.0252C295.455 45.0252 296.264 44.9155 297.005 44.6963C297.747 44.4771 298.576 44.1482 299.495 43.7097V46.6068C298.65 47.0139 297.794 47.3323 296.927 47.562C296.061 47.7812 295.048 47.8909 293.889 47.8909ZM291.524 37.6808H292.057C293.331 37.6808 294.437 37.5607 295.377 37.3206C296.316 37.0701 297.042 36.7047 297.553 36.2244C298.065 35.7338 298.321 35.1387 298.321 34.4393C298.321 33.8964 298.148 33.4736 297.804 33.1708C297.47 32.8576 296.969 32.701 296.301 32.701C295.643 32.701 294.996 32.9046 294.359 33.3118C293.722 33.7085 293.153 34.2827 292.652 35.0343C292.151 35.7755 291.775 36.6577 291.524 37.6808ZM303.52 47.5777L307.2 30.2425H310.065L309.69 33.5153H309.862C310.311 32.8472 310.796 32.2417 311.318 31.6988C311.851 31.156 312.44 30.7227 313.088 30.3991C313.735 30.0754 314.455 29.9136 315.249 29.9136C315.531 29.9136 315.823 29.9345 316.126 29.9763C316.439 30.0076 316.71 30.0546 316.94 30.1172L316.141 33.5623C315.912 33.4997 315.661 33.4475 315.39 33.4057C315.118 33.364 314.831 33.3431 314.528 33.3431C313.839 33.3431 313.192 33.5049 312.587 33.8285C311.981 34.1522 311.433 34.6011 310.942 35.1753C310.452 35.7494 310.029 36.4228 309.674 37.1953C309.319 37.9574 309.042 38.7874 308.844 39.6852L307.184 47.5777H303.52ZM325.287 47.5777L330.125 24.6833H335.888C337.632 24.6833 339.03 24.9443 340.085 25.4663C341.15 25.9883 341.922 26.7243 342.403 27.6743C342.893 28.6139 343.139 29.7153 343.139 30.9785C343.139 32.2939 342.904 33.4527 342.434 34.4549C341.974 35.4467 341.312 36.2819 340.445 36.9605C339.579 37.6286 338.529 38.1349 337.297 38.4794C336.076 38.8135 334.703 38.9805 333.179 38.9805H330.799L328.982 47.5777H325.287ZM331.472 35.8799H333.571C334.761 35.8799 335.789 35.7025 336.655 35.3475C337.522 34.9821 338.19 34.4445 338.66 33.7346C339.14 33.0142 339.38 32.1321 339.38 31.0881C339.38 29.9502 339.067 29.1202 338.441 28.5982C337.814 28.0658 336.869 27.7996 335.606 27.7996H333.179L331.472 35.8799ZM351.062 47.8595C349.747 47.8595 348.599 47.5881 347.617 47.0452C346.636 46.5024 345.874 45.7351 345.331 44.7433C344.798 43.7411 344.532 42.5562 344.532 41.1885C344.532 40.0297 344.652 38.9022 344.892 37.8061C345.143 36.7099 345.508 35.6868 345.989 34.7368C346.469 33.7868 347.069 32.9568 347.789 32.2469C348.51 31.5266 349.345 30.968 350.295 30.5713C351.245 30.1642 352.31 29.9606 353.49 29.9606C354.836 29.9606 355.995 30.232 356.966 30.7749C357.937 31.3178 358.683 32.0955 359.205 33.1082C359.727 34.1208 359.988 35.3319 359.988 36.7412C359.988 37.8687 359.868 38.9701 359.628 40.0454C359.398 41.1207 359.049 42.1333 358.579 43.0834C358.109 44.0229 357.514 44.8529 356.794 45.5732C356.084 46.2831 355.249 46.8417 354.288 47.2488C353.338 47.656 352.263 47.8595 351.062 47.8595ZM351.329 44.8529C351.913 44.8529 352.456 44.7224 352.957 44.4614C353.469 44.19 353.928 43.8089 354.335 43.3183C354.742 42.8171 355.087 42.2273 355.369 41.5487C355.661 40.8597 355.885 40.0976 356.042 39.2624C356.199 38.4272 356.277 37.5346 356.277 36.5846C356.277 35.9478 356.183 35.358 355.995 34.8151C355.807 34.2618 355.494 33.8181 355.055 33.484C354.627 33.1395 354.053 32.9672 353.333 32.9672C352.686 32.9672 352.091 33.1238 351.548 33.437C351.015 33.7398 350.54 34.1626 350.123 34.7055C349.716 35.2483 349.371 35.8747 349.089 36.5846C348.807 37.2841 348.593 38.0357 348.447 38.8396C348.301 39.633 348.228 40.4369 348.228 41.2512C348.228 42.41 348.489 43.3026 349.011 43.929C349.543 44.5449 350.316 44.8529 351.329 44.8529ZM362.212 47.5777L365.892 30.2425H368.758L368.382 33.5153H368.554C369.003 32.8472 369.488 32.2417 370.01 31.6988C370.543 31.156 371.133 30.7227 371.78 30.3991C372.427 30.0754 373.148 29.9136 373.941 29.9136C374.223 29.9136 374.515 29.9345 374.818 29.9763C375.131 30.0076 375.403 30.0546 375.632 30.1172L374.834 33.5623C374.604 33.4997 374.353 33.4475 374.082 33.4057C373.81 33.364 373.523 33.3431 373.221 33.3431C372.532 33.3431 371.884 33.5049 371.279 33.8285C370.673 34.1522 370.125 34.6011 369.635 35.1753C369.144 35.7494 368.721 36.4228 368.366 37.1953C368.011 37.9574 367.735 38.7874 367.536 39.6852L365.876 47.5777H362.212ZM380.659 47.8909C379.396 47.8909 378.367 47.609 377.574 47.0452C376.791 46.4711 376.4 45.4688 376.4 44.0386C376.4 43.7567 376.415 43.4487 376.447 43.1147C376.488 42.7702 376.546 42.4152 376.619 42.0498L378.529 33.0299H376.024L376.368 31.276L379.328 30.0702L381.301 26.4059H383.603L382.789 30.2425H387.205L386.61 33.0299H382.209L380.283 42.0655C380.231 42.2847 380.184 42.5196 380.142 42.7702C380.111 43.0103 380.095 43.2295 380.095 43.4279C380.095 43.8977 380.226 44.263 380.487 44.524C380.748 44.785 381.144 44.9155 381.677 44.9155C382.084 44.9155 382.475 44.8738 382.851 44.7903C383.227 44.7067 383.64 44.5867 384.088 44.4301V47.2018C383.702 47.3793 383.201 47.5359 382.585 47.6716C381.969 47.8178 381.327 47.8909 380.659 47.8909ZM392.701 47.8909C391.814 47.8909 391.005 47.6768 390.274 47.2488C389.554 46.8103 388.979 46.1422 388.551 45.2444C388.123 44.3361 387.909 43.1825 387.909 41.7836C387.909 40.5726 388.035 39.3929 388.285 38.2445C388.546 37.0962 388.912 36.0209 389.381 35.0187C389.862 34.0164 390.441 33.1343 391.12 32.3722C391.798 31.5996 392.565 30.9994 393.422 30.5713C394.278 30.1329 395.202 29.9136 396.193 29.9136C396.945 29.9136 397.603 30.0441 398.166 30.3051C398.73 30.5557 399.205 30.895 399.591 31.323C399.978 31.751 400.291 32.226 400.531 32.748H400.672L401.612 30.2425H404.43L400.75 47.5777H397.947L398.292 44.7746H398.166C397.717 45.3488 397.216 45.8708 396.663 46.3406C396.12 46.8103 395.52 47.1862 394.862 47.468C394.205 47.7499 393.484 47.8909 392.701 47.8909ZM394.048 44.8999C394.779 44.8999 395.478 44.6284 396.146 44.0856C396.814 43.5323 397.404 42.8015 397.916 41.8932C398.438 40.985 398.824 39.988 399.075 38.9022C399.2 38.3803 399.283 37.8844 399.325 37.4146C399.377 36.9448 399.404 36.475 399.404 36.0052C399.404 35.097 399.163 34.3557 398.683 33.7815C398.203 33.2074 397.545 32.9203 396.71 32.9203C396.136 32.9203 395.588 33.0821 395.066 33.4057C394.554 33.7294 394.09 34.1783 393.672 34.7524C393.255 35.3162 392.889 35.9687 392.576 36.7099C392.273 37.4511 392.038 38.2498 391.871 39.1058C391.715 39.9514 391.636 40.8127 391.636 41.6897C391.636 42.7441 391.845 43.5427 392.263 44.0856C392.691 44.6284 393.286 44.8999 394.048 44.8999ZM405.761 47.5777L410.945 23.2113H414.593L409.426 47.5777H405.761Z" fill="#ECF1FE"/>
<path opacity="0.95" d="M5.757 45.6412C5.81685 51.8356 9.85665 58.7182 22.9935 58.7182C34.6042 58.7182 40.4395 53.0625 40.4395 45.1026C40.4395 36.8434 34.7239 33.9407 29.0083 33.0131L23.592 32.1153C20.2105 31.5468 18.2056 30.5293 18.2056 28.6441C18.2056 26.6392 19.7916 25.0831 23.173 25.0831C27.0034 25.0831 28.7988 27.3274 28.8886 29.2725H39.6315C39.6016 22.7191 34.2451 16.4648 23.173 16.4648C13.268 16.4648 6.47519 21.2228 6.47519 29.6017C6.47519 37.0529 11.3529 40.4044 17.8764 41.6014L23.0533 42.559C26.8238 43.2772 28.8587 44.1151 28.8587 46.3594C28.8587 48.3045 27.3026 49.9503 23.2927 49.9503C19.1332 49.9503 16.9787 47.7658 16.8889 45.6412H5.757ZM64.0798 17.1531H45.8259V58H57.6161V46.509H63.9302C74.0147 46.509 78.9223 39.8658 78.9223 31.9358C78.9223 24.1554 74.1643 17.1531 64.0798 17.1531ZM66.9824 31.9358C66.9824 35.9157 64.4987 37.9207 60.6684 37.9207H57.5562V25.9509H60.9676C64.6184 25.9509 66.9824 28.0456 66.9824 31.9358ZM118.662 17.1531H105.495L99.4206 29.9009H98.9118L92.8372 17.1531H79.042L90.8023 37.4419L79.0719 58H91.5804L98.2535 45.731H98.7024L105.405 58H118.602L106.363 37.4718L118.662 17.1531Z" fill="#F6F9FE"/>
<path opacity="0.9" d="M133.933 17.9138C133.123 17.4398 132.104 18.0238 132.104 18.9622V39.8368C132.104 40.776 133.125 41.36 133.935 40.8843L151.734 30.4293C152.534 29.9593 152.533 28.8023 151.732 28.3335L133.933 17.9138Z" fill="white"/>
<path d="M176.184 23.3388C176.184 21.921 174.636 21.0463 173.421 21.778L154.985 32.8858V57.8397L175.881 45.7283C176.068 45.6196 176.184 45.4193 176.184 45.2027V23.3388Z" fill="#ECF1FE"/>
<path d="M136.434 43.9626C135.244 44.6769 135.258 46.4055 136.458 47.1013L154.985 57.8396V32.8228L136.434 43.9626Z" fill="#B3CAFB"/>
</g>
<defs>
<filter id="filter0_d_3680_3616" x="0.546836" y="10.2548" width="426.836" height="60.2533" filterUnits="userSpaceOnUse" color-interpolation-filters="sRGB">
<feFlood flood-opacity="0" result="BackgroundImageFix"/>
<feColorMatrix in="SourceAlpha" type="matrix" values="0 0 0 0 0 0 0 0 0 0 0 0 0 0 0 0 0 0 127 0" result="hardAlpha"/>
<feOffset dx="3.79" dy="2.79"/>
<feGaussianBlur stdDeviation="4.5"/>
<feComposite in2="hardAlpha" operator="out"/>
<feColorMatrix type="matrix" values="0 0 0 0 0 0 0 0 0 0 0 0 0 0 0 0 0 0 0.66 0"/>
<feBlend mode="normal" in2="BackgroundImageFix" result="effect1_dropShadow_3680_3616"/>
<feBlend mode="normal" in="SourceGraphic" in2="effect1_dropShadow_3680_3616" result="shape"/>
</filter>
</defs>
</svg>
