<svg width="420" height="131" viewBox="0 0 420 131" fill="none" xmlns="http://www.w3.org/2000/svg">
<g filter="url(#filter0_d_3186_5083)">
<rect x="2" y="2" width="406" height="117" rx="8.82051" fill="#2461CA"/>
</g>
<path d="M264.845 48.0817L256.623 68.5807H252.316L244.107 48.0817H247.931C248.285 48.0652 248.635 48.1662 248.926 48.3688C249.18 48.5597 249.38 48.812 249.509 49.1019L253.473 60.0815C253.662 60.5581 253.839 61.0847 254.02 61.6455C254.201 62.2063 254.371 62.8099 254.532 63.427C254.654 62.8099 254.806 62.2137 254.975 61.6455C255.143 61.0773 255.312 60.5581 255.501 60.0815L259.437 49.1019C259.56 48.8236 259.753 48.582 259.998 48.4006C260.281 48.1843 260.631 48.0729 260.987 48.0853L264.845 48.0817Z" fill="white"/>
<path d="M270.259 49.9853C270.26 50.2472 270.202 50.506 270.09 50.7428C269.984 50.9749 269.834 51.1843 269.648 51.3599C269.456 51.5365 269.236 51.6786 268.996 51.7802C268.742 51.8844 268.47 51.9367 268.195 51.9341C267.932 51.9373 267.672 51.8848 267.431 51.7802C267.196 51.6767 266.98 51.5346 266.793 51.3599C266.612 51.1837 266.466 50.9742 266.365 50.7428C266.258 50.5032 266.203 50.2438 266.203 49.9816C266.203 49.7193 266.258 49.46 266.365 49.2204C266.464 48.9835 266.61 48.7688 266.793 48.5887C266.977 48.4093 267.193 48.2666 267.431 48.1684C267.673 48.067 267.933 48.0146 268.195 48.0144C268.469 48.0152 268.741 48.0674 268.996 48.1684C269.238 48.2647 269.46 48.4074 269.648 48.5887C269.836 48.7682 269.986 48.9828 270.09 49.2204C270.203 49.4595 270.261 49.7209 270.259 49.9853ZM270.413 53.9844V68.5758H266.05V53.9881L270.413 53.9844Z" fill="white"/>
<path d="M282.734 57.1869C282.644 57.3385 282.522 57.4679 282.376 57.5657C282.225 57.6445 282.057 57.6833 281.887 57.6781C281.674 57.6744 281.465 57.6292 281.27 57.545L280.604 57.2578C280.339 57.1434 280.067 57.0451 279.79 56.9634C279.457 56.8722 279.112 56.8274 278.766 56.8302C278.317 56.7983 277.87 56.9114 277.489 57.1527C277.347 57.2493 277.232 57.3805 277.154 57.534C277.077 57.6875 277.04 57.8583 277.047 58.03C277.039 58.161 277.061 58.292 277.111 58.4134C277.161 58.5347 277.237 58.6434 277.334 58.7314C277.561 58.9331 277.823 59.0925 278.106 59.2018C278.459 59.3526 278.82 59.4839 279.187 59.5952C279.586 59.7174 280 59.8482 280.421 60.0021C280.846 60.1499 281.26 60.3258 281.662 60.5287C282.055 60.725 282.419 60.9755 282.742 61.2728C283.07 61.5766 283.333 61.9442 283.514 62.3529C283.716 62.8319 283.814 63.3484 283.802 63.8681C283.807 64.5542 283.673 65.2343 283.408 65.867C283.142 66.477 282.738 67.0172 282.229 67.4456C281.658 67.9086 281.003 68.2564 280.3 68.4696C279.445 68.7277 278.555 68.8513 277.662 68.8361C277.163 68.8342 276.665 68.7872 276.175 68.6956C275.684 68.6058 275.201 68.4792 274.729 68.3168C274.286 68.1643 273.856 67.9742 273.445 67.7487C273.083 67.5495 272.742 67.3146 272.427 67.0473L273.445 65.4479C273.548 65.2668 273.695 65.1146 273.873 65.0056C274.074 64.8861 274.305 64.8275 274.539 64.837C274.784 64.8305 275.027 64.8913 275.24 65.0129L275.892 65.3795C276.156 65.5231 276.431 65.6456 276.714 65.7461C277.099 65.8691 277.502 65.9261 277.906 65.9147C278.195 65.9204 278.483 65.8851 278.761 65.8096C278.966 65.7529 279.157 65.6552 279.322 65.5225C279.454 65.4109 279.559 65.272 279.631 65.1156C279.698 64.9678 279.731 64.8072 279.729 64.6452C279.731 64.5143 279.705 64.3845 279.655 64.2639C279.604 64.1432 279.529 64.0343 279.435 63.9438C279.207 63.7373 278.946 63.572 278.662 63.4551C278.304 63.3052 277.937 63.1787 277.563 63.0763C277.155 62.9598 276.742 62.8266 276.321 62.6767C275.893 62.5223 275.476 62.3394 275.073 62.1294C274.669 61.9229 274.302 61.6526 273.985 61.329C273.656 60.9857 273.394 60.5837 273.213 60.1438C273.003 59.5987 272.903 59.0173 272.918 58.4332C272.917 57.8257 273.038 57.2241 273.276 56.6652C273.52 56.1026 273.887 55.6016 274.349 55.199C274.879 54.7487 275.492 54.4055 276.153 54.1885C276.971 53.9289 277.827 53.805 278.686 53.822C279.685 53.821 280.676 54.0015 281.611 54.3547C282.024 54.5147 282.419 54.7169 282.79 54.9583C283.133 55.172 283.45 55.4237 283.737 55.7085L282.734 57.1869Z" fill="white"/>
<path d="M290.457 53.988V68.5794H286.102V53.988H290.457Z" fill="white"/>
<path d="M298.735 68.8055C298.111 68.8179 297.49 68.7156 296.902 68.5036C296.399 68.3258 295.942 68.0352 295.568 67.654C295.193 67.2728 294.911 66.8112 294.742 66.3043C294.547 65.7382 294.452 65.1424 294.461 64.5436V57.0097H293.209C293.097 57.016 292.984 56.9978 292.88 56.9564C292.776 56.9151 292.681 56.8516 292.604 56.7702C292.527 56.6888 292.468 56.5916 292.432 56.4853C292.396 56.3789 292.383 56.266 292.395 56.1544V54.4438L294.716 53.9953L295.572 50.4385C295.613 50.2213 295.735 50.028 295.914 49.8977C296.092 49.7674 296.314 49.71 296.533 49.7372H298.813V53.9953H302.426V57.0048H298.813V64.2516C298.8 64.5515 298.886 64.8475 299.058 65.0935C299.139 65.2011 299.246 65.2873 299.368 65.3448C299.49 65.4022 299.624 65.4292 299.759 65.4234C299.894 65.4244 300.028 65.408 300.159 65.3745C300.255 65.345 300.349 65.3074 300.44 65.2621L300.664 65.1497C300.741 65.1148 300.825 65.0981 300.909 65.1008C301.024 65.0948 301.137 65.1271 301.231 65.1924C301.329 65.2728 301.412 65.37 301.476 65.4796L302.794 67.5836C302.222 68.0105 301.578 68.3312 300.893 68.5305C300.191 68.7263 299.464 68.8189 298.735 68.8055Z" fill="white"/>
<g opacity="0.6">
<path d="M205.867 65.8805C205.391 66.3522 204.885 66.7925 204.352 67.1988C203.88 67.5543 203.372 67.8598 202.837 68.1103C202.306 68.3527 201.747 68.5296 201.174 68.637C200.54 68.7537 199.896 68.8101 199.252 68.8056C198.438 68.8145 197.63 68.6642 196.874 68.3633C196.173 68.079 195.54 67.6511 195.015 67.1072C194.483 66.5488 194.07 65.8878 193.802 65.1644C193.513 64.3467 193.373 63.484 193.387 62.6169C193.384 61.8494 193.471 61.0842 193.646 60.3369C193.811 59.6081 194.063 58.9018 194.396 58.2329C194.716 57.5853 195.114 56.9796 195.581 56.4294C196.044 55.891 196.578 55.419 197.17 55.0267C197.764 54.6293 198.411 54.3175 199.092 54.1005C199.814 53.8787 200.567 53.7674 201.323 53.7706C202.039 53.7553 202.751 53.8696 203.427 54.1079C203.986 54.306 204.505 54.6054 204.956 54.9913C205.348 55.3287 205.667 55.7413 205.896 56.2046C206.105 56.6254 206.216 57.0884 206.219 57.5584C206.225 58.1858 206.09 58.8065 205.825 59.3753C205.501 59.9856 205.016 60.4953 204.422 60.8489C203.614 61.3554 202.731 61.7318 201.805 61.9644C200.442 62.3108 199.053 62.5453 197.651 62.6658C197.599 63.4457 197.831 64.2181 198.303 64.8407C198.543 65.085 198.832 65.2742 199.152 65.3953C199.472 65.5164 199.815 65.5665 200.156 65.542C200.475 65.5345 200.792 65.4936 201.103 65.4198C201.344 65.357 201.578 65.2724 201.804 65.1669C202.003 65.0727 202.195 64.9649 202.38 64.8443L202.868 64.5144C203.024 64.4161 203.187 64.3315 203.357 64.2615C203.541 64.1943 203.736 64.1612 203.933 64.1637C204.075 64.1635 204.215 64.1997 204.339 64.2688C204.473 64.3393 204.594 64.4318 204.697 64.5425L205.867 65.8805ZM201.054 56.7605C200.693 56.7618 200.337 56.8401 200.009 56.9902C199.681 57.1402 199.389 57.3585 199.153 57.6305C198.557 58.3071 198.142 59.1227 197.945 60.0021C198.687 59.8946 199.422 59.7424 200.145 59.5463C200.6 59.4336 201.039 59.2628 201.451 59.0381C201.709 58.9025 201.927 58.7015 202.083 58.4552C202.195 58.2388 202.25 57.9975 202.244 57.7539C202.242 57.4919 202.139 57.2406 201.957 57.0525C201.84 56.937 201.698 56.8488 201.543 56.7943C201.388 56.7398 201.222 56.7204 201.059 56.7373L201.054 56.7605Z" fill="#F9FAFB"/>
<path d="M215.646 66.1248C215.112 66.8973 214.436 67.5608 213.653 68.0797C212.929 68.5448 212.086 68.7886 211.225 68.7811C210.702 68.7816 210.183 68.6743 209.703 68.4659C209.21 68.2525 208.769 67.9339 208.413 67.5324C208.008 67.0523 207.702 66.4966 207.514 65.8975C207.27 65.141 207.154 64.3489 207.171 63.554C207.157 62.267 207.396 60.9898 207.872 59.7944C208.599 57.9969 209.851 56.46 211.463 55.3839C213.076 54.3077 214.975 53.7421 216.914 53.7608C217.618 53.7632 218.321 53.8102 219.018 53.9013C219.734 54.0009 220.439 54.1699 221.122 54.406L219.347 68.5795H217.049C216.81 68.5888 216.572 68.5531 216.347 68.4744C216.181 68.4149 216.032 68.3164 215.912 68.1873C215.802 68.0632 215.725 67.9137 215.687 67.7523C215.644 67.5707 215.622 67.3844 215.624 67.1976L215.646 66.1248ZM216.347 56.7385C215.664 56.7309 214.991 56.8992 214.392 57.2272C213.804 57.5487 213.29 57.9909 212.885 58.5248C212.447 59.0993 212.115 59.7478 211.907 60.4395C211.672 61.1932 211.557 61.9789 211.564 62.7683C211.556 63.1688 211.594 63.5689 211.676 63.9609C211.732 64.2401 211.834 64.5081 211.978 64.7538C212.088 64.9379 212.242 65.0919 212.426 65.2023C212.604 65.2956 212.801 65.3439 213.002 65.3428C213.343 65.3336 213.67 65.2072 213.928 64.9848C214.262 64.7074 214.549 64.3772 214.777 64.0073C215.07 63.5499 215.319 63.0659 215.521 62.5619C215.753 61.9837 215.945 61.3905 216.097 60.7865L216.616 56.7458L216.347 56.7385Z" fill="#F9FAFB"/>
<path d="M232.145 57.0611C232.042 57.2006 231.918 57.3241 231.779 57.4277C231.643 57.5056 231.487 57.5445 231.331 57.5401C231.137 57.5406 230.946 57.4989 230.77 57.4179L230.181 57.1307C229.956 57.0117 229.722 56.9131 229.479 56.8363C229.179 56.7487 228.866 56.7075 228.553 56.7141C228.057 56.6625 227.558 56.7927 227.151 57.0806C227.016 57.2026 226.909 57.3523 226.838 57.5193C226.766 57.6863 226.732 57.8668 226.736 58.0484C226.73 58.2847 226.812 58.5148 226.967 58.6935C227.14 58.8881 227.347 59.0495 227.578 59.17C227.856 59.3245 228.147 59.4538 228.448 59.5561C228.774 59.6775 229.104 59.8107 229.438 59.9557C229.779 60.0993 230.109 60.2658 230.428 60.4542C230.751 60.6433 231.044 60.8797 231.298 61.1555C231.557 61.4394 231.764 61.7671 231.908 62.1233C232.073 62.5519 232.151 63.0085 232.139 63.4673C232.145 64.1916 231.997 64.9088 231.704 65.5713C231.413 66.225 230.985 66.8084 230.448 67.2819C229.868 67.7834 229.2 68.1736 228.477 68.4329C227.64 68.7292 226.756 68.874 225.868 68.8606C225.396 68.862 224.926 68.8149 224.465 68.72C224.031 68.6341 223.606 68.5073 223.195 68.3413C222.811 68.1892 222.442 67.9989 222.096 67.7731C221.796 67.5795 221.527 67.3432 221.295 67.0718L222.404 65.4369C222.524 65.2605 222.679 65.1101 222.859 64.9946C223.053 64.8767 223.278 64.8181 223.505 64.826C223.719 64.8194 223.931 64.881 224.108 65.0019L224.656 65.3685C224.878 65.5104 225.113 65.6331 225.357 65.7351C225.7 65.859 226.065 65.9163 226.43 65.9037C226.933 65.9491 227.435 65.801 227.832 65.4895C227.973 65.3683 228.086 65.2183 228.163 65.0496C228.241 64.8809 228.281 64.6976 228.281 64.512C228.287 64.2586 228.205 64.0108 228.05 63.8106C227.881 63.608 227.674 63.4417 227.439 63.3219C227.166 63.1737 226.879 63.051 226.584 62.9553L225.594 62.5973C225.26 62.4638 224.933 62.3117 224.616 62.1416C224.299 61.9671 224.01 61.7446 223.761 61.4818C223.496 61.2011 223.287 60.8727 223.144 60.5141C222.978 60.0655 222.9 59.5894 222.913 59.1114C222.913 58.4383 223.041 57.7713 223.292 57.1466C223.537 56.509 223.915 55.9307 224.4 55.4495C224.925 54.9338 225.549 54.5283 226.233 54.257C227.051 53.9438 227.923 53.7916 228.799 53.8085C229.694 53.7926 230.584 53.9645 231.409 54.3131C232.107 54.6102 232.746 55.0308 233.295 55.5546L232.145 57.0611Z" fill="#F9FAFB"/>
<path d="M248.155 53.9905L238.698 72.3782C238.58 72.6329 238.389 72.8475 238.151 72.9957C237.912 73.1439 237.635 73.2193 237.354 73.2127H234.076L237.408 67.2708L233.795 53.9905H237.478C237.732 53.9711 237.983 54.0518 238.179 54.2153C238.331 54.3635 238.44 54.5501 238.494 54.7554L239.764 61.0687C239.82 61.3424 239.869 61.6161 239.918 61.8825C239.967 62.1488 240.002 62.4298 240.03 62.7035L240.397 61.8617L240.775 61.0406L243.476 54.7835C243.592 54.5639 243.759 54.376 243.964 54.2361C244.171 54.0941 244.415 54.0183 244.666 54.0186L248.155 53.9905Z" fill="#F9FAFB"/>
</g>
<path d="M290.549 49.092C290.424 48.8278 290.251 48.5897 290.037 48.3907C289.767 48.1261 289.438 47.9308 289.076 47.8216C288.714 47.7123 288.332 47.6923 287.961 47.7633C287.59 47.8343 287.241 47.9942 286.946 48.2292C286.65 48.4642 286.416 48.7674 286.263 49.1128C286.142 49.3942 286.08 49.6973 286.081 50.0035C286.08 50.3062 286.145 50.6054 286.27 50.8808C286.389 51.1448 286.558 51.3831 286.768 51.5822C286.971 51.7821 287.209 51.9436 287.47 52.0587C287.75 52.1836 288.054 52.2457 288.361 52.2407C288.673 52.2427 288.983 52.1829 289.272 52.0648C289.548 51.949 289.8 51.7833 290.016 51.576C290.23 51.3767 290.403 51.1387 290.528 50.8747C290.65 50.5927 290.714 50.2894 290.718 49.9824C290.721 49.6753 290.664 49.3706 290.549 49.0859V49.092Z" fill="#0ABAEC"/>
<path d="M171.423 89.0684V84.633C171.421 82.5305 170.87 80.465 169.824 78.641C168.778 76.817 167.274 75.2978 165.46 74.2338L159.189 70.7185L152.917 67.1984L147.418 80.5056L145.279 71.4761L146.806 69.7911H141.308L142.835 71.4761L140.696 80.4995L135.327 67.1923L129.06 70.7124L122.788 74.2277C120.974 75.2909 119.47 76.8099 118.424 78.6341C117.378 80.4582 116.827 82.5242 116.826 84.6269V89.0622L171.423 89.0684Z" fill="white"/>
<path d="M152.915 67.197L152.612 80.0436L144.027 85.8548L135.605 80.1951L135.145 67.1958C135.145 67.1958 137.896 64.5957 137.132 61.9968H150.608C150.164 64.5982 152.915 67.197 152.915 67.197Z" fill="white"/>
<path d="M158.536 44.5244C158.559 45.3742 158.499 46.2242 158.356 47.0622C157.266 55.5688 151.293 69.3366 144.049 69.3366C136.806 69.3366 130.825 55.5688 129.741 46.8765C129.588 46.102 129.526 45.3122 129.556 44.5232C129.556 40.6799 131.083 36.994 133.8 34.2764C136.518 31.5587 140.204 30.032 144.047 30.032C147.89 30.032 151.576 31.5587 154.294 34.2764C157.011 36.994 158.538 40.6799 158.538 44.5232L158.536 44.5244Z" fill="#2461CA"/>
<path d="M134.196 53.6888C135.289 53.2381 135.651 51.606 135.007 50.0434C134.362 48.4808 132.954 47.5793 131.862 48.03C130.769 48.4806 130.406 50.1127 131.051 51.6753C131.696 53.238 133.104 54.1394 134.196 53.6888Z" fill="white"/>
<path d="M156.914 51.6821C157.559 50.1194 157.196 48.4874 156.103 48.0367C155.011 47.5861 153.603 48.4875 152.958 50.0501C152.314 51.6128 152.676 53.2448 153.769 53.6955C154.861 54.1461 156.269 53.2447 156.914 51.6821Z" fill="white"/>
<path d="M156.284 45.7877C156.305 46.5044 156.252 47.2213 156.127 47.9272C155.212 55.1142 150.164 66.7377 144.049 66.7377C137.933 66.7377 132.886 55.1142 131.966 47.7757C131.84 47.1209 131.789 46.454 131.814 45.7877C131.798 44.1707 132.103 42.5665 132.71 41.0679C133.318 39.5693 134.217 38.206 135.354 37.0569C136.492 35.9077 137.846 34.9955 139.339 34.3729C140.831 33.7504 142.432 33.4298 144.049 33.4298C145.666 33.4298 147.267 33.7504 148.76 34.3729C150.252 34.9955 151.607 35.9077 152.744 37.0569C153.882 38.206 154.781 39.5693 155.388 41.0679C155.996 42.5665 156.301 44.1707 156.284 45.7877Z" fill="white"/>
<path d="M132.275 50.0714C132.068 49.188 132.043 48.2718 132.2 47.3783C132.358 46.4848 132.694 45.6324 133.19 44.8725C133.19 44.8725 132.275 37.0734 137.929 37.5279C137.929 37.5279 142.516 39.0613 151.085 37.5279C151.533 37.4857 151.985 37.554 152.401 37.7267C152.816 37.8993 153.183 38.1712 153.47 38.5185C153.756 38.8657 153.953 39.2778 154.044 39.7188C154.134 40.1597 154.115 40.6161 153.988 41.0481C153.988 41.0481 153.073 44.4167 154.91 45.1755L155.673 49.9151L156.437 46.3998C157.813 39.9765 156.285 33.5532 150.317 30.6501H150.165C150.449 30.3389 150.817 30.1159 151.224 30.0075C151.631 29.8992 152.061 29.9102 152.462 30.0391C142.355 23.6158 135.618 29.5785 135.618 29.5785C128.431 36.1533 130.722 43.8009 130.722 43.8009C129.989 46.5513 132.275 50.0714 132.275 50.0714Z" fill="white"/>
<path opacity="0.5" d="M121.084 72.3972L127.355 68.882L133.01 65.6697V65.5182C133.608 64.7058 134.122 63.8346 134.544 62.9181C133.071 60.6247 131.889 58.1577 131.023 55.5735C129.902 54.9119 129.04 53.8879 128.58 52.6704C127.996 51.3117 127.94 49.7844 128.422 48.3866C127.791 46.9455 127.579 45.3557 127.811 43.7997C127.504 42.0837 127.453 40.3317 127.66 38.6007C125.395 38.4613 123.161 39.172 121.393 40.5936C119.83 41.8865 118.649 43.5802 117.975 45.4933C117.301 47.4063 117.161 49.4666 117.568 51.4534C117.357 52.7277 117.63 54.035 118.332 55.119C118.076 55.4697 117.927 55.8872 117.903 56.3209C117.879 56.7547 117.981 57.186 118.198 57.5627C118.322 57.945 118.542 58.2892 118.837 58.5625C119.132 58.8358 119.492 59.0292 119.883 59.1242C120.621 61.3876 121.647 63.5465 122.937 65.5475C123.398 67.5355 121.404 69.5234 121.404 69.5234L116.514 72.2457L111.46 74.8483C110.053 75.6379 108.884 76.7922 108.076 78.1897C107.269 79.5873 106.853 81.1765 106.872 82.7903V84.3238H113.897C113.985 81.8895 114.691 79.5177 115.948 77.4313C117.205 75.345 118.973 73.6126 121.084 72.3972Z" fill="white"/>
<path opacity="0.5" d="M176.646 74.8459L171.902 72.0943L167.014 69.3378C167.014 69.3378 165.026 67.3498 165.487 65.3618C166.778 63.3615 167.805 61.2024 168.541 58.9385C168.916 58.8211 169.261 58.6237 169.552 58.36C169.843 58.0963 170.073 57.7726 170.226 57.4112C170.687 56.1894 170.384 54.9675 169.615 54.6596L169.925 53.4378C170.997 48.5418 169.773 43.4992 165.337 41.3548C165.256 41.2677 165.146 41.2136 165.027 41.2033C165.239 40.9799 165.508 40.8188 165.806 40.7376C166.103 40.6564 166.416 40.6581 166.712 40.7427C164.562 39.2389 161.998 38.4385 159.374 38.4517C159.931 41.2847 159.877 44.2039 159.216 47.0145V47.3346C159.72 48.0975 160.014 48.9798 160.069 49.8926C160.123 50.8054 159.936 51.7164 159.525 52.5336C159.064 53.7518 158.202 54.7771 157.082 55.4416C156.222 58.0184 155.044 60.4775 153.574 62.7617C153.989 63.6805 154.501 64.5521 155.101 65.3618V65.5195L166.893 72.258C169.044 73.4663 170.84 75.2184 172.102 77.3389C173.363 79.4594 174.045 81.8739 174.08 84.3409H181.267V82.8075C181.235 81.1975 180.794 79.622 179.986 78.2292C179.178 76.8365 178.028 75.6722 176.646 74.8459Z" fill="white"/>
<path d="M167.329 93.8749C173.243 93.8749 178.038 89.0806 178.038 83.1666C178.038 77.2525 173.243 72.4583 167.329 72.4583C161.415 72.4583 156.621 77.2525 156.621 83.1666C156.621 89.0806 161.415 93.8749 167.329 93.8749Z" fill="#0ABAEC"/>
<path d="M173.192 77.9725C172.997 77.8377 172.756 77.7857 172.523 77.8279C172.289 77.87 172.082 78.0028 171.946 78.1973L166.955 85.3672L163.435 82.4751C163.25 82.3496 163.025 82.298 162.803 82.3305C162.582 82.363 162.381 82.4772 162.24 82.6506C162.099 82.824 162.028 83.044 162.042 83.2671C162.055 83.4902 162.151 83.7002 162.312 83.8557L166.588 87.36C166.746 87.4919 166.945 87.5634 167.15 87.5616H167.273C167.395 87.5452 167.513 87.5032 167.618 87.4384C167.723 87.3736 167.814 87.2873 167.884 87.1853L173.426 79.2176C173.493 79.1211 173.541 79.0122 173.566 78.8973C173.591 78.7823 173.593 78.6635 173.572 78.5477C173.552 78.4319 173.508 78.3214 173.444 78.2224C173.381 78.1235 173.298 78.0382 173.201 77.9713L173.192 77.9725Z" fill="white"/>
<defs>
<filter id="filter0_d_3186_5083" x="0" y="0" width="420" height="131" filterUnits="userSpaceOnUse" color-interpolation-filters="sRGB">
<feFlood flood-opacity="0" result="BackgroundImageFix"/>
<feColorMatrix in="SourceAlpha" type="matrix" values="0 0 0 0 0 0 0 0 0 0 0 0 0 0 0 0 0 0 127 0" result="hardAlpha"/>
<feOffset dx="5" dy="5"/>
<feGaussianBlur stdDeviation="3.5"/>
<feColorMatrix type="matrix" values="0 0 0 0 0.184314 0 0 0 0 0.501961 0 0 0 0 0.929412 0 0 0 0.3 0"/>
<feBlend mode="normal" in2="BackgroundImageFix" result="effect1_dropShadow_3186_5083"/>
<feBlend mode="normal" in="SourceGraphic" in2="effect1_dropShadow_3186_5083" result="shape"/>
</filter>
</defs>
</svg>
