<svg width="358" height="86" viewBox="0 0 358 86" fill="none" xmlns="http://www.w3.org/2000/svg">
<path d="M259.35 3.02895H285.208C287.794 3.02895 290.144 4.44477 291.32 6.56851L302.368 26.1541C302.603 26.39 302.838 26.39 303.073 26.1541L325.64 4.44477C327.051 3.26492 328.696 2.55701 330.577 2.55701H357.61C358.08 2.55701 358.08 3.02895 357.845 3.26492L317.883 41.4921C317.648 41.7281 317.648 41.9641 317.883 41.9641L345.857 80.8992C346.327 81.3712 345.857 82.315 345.151 82.315L319.529 82.787C317.648 82.787 316.002 81.8431 315.062 80.4273L300.253 56.8302L274.63 80.4273C272.984 82.0791 270.633 82.787 268.518 82.787L242.895 82.551C242.425 82.551 242.425 82.0791 242.66 81.8431L283.092 43.3799C284.033 42.436 284.033 41.2562 283.562 40.0763L259.115 3.73686C258.88 3.50089 259.115 3.02895 259.35 3.02895Z" fill="white"/>
<path d="M176.134 2.55701H170.493H159.209C167.202 6.09656 174.254 11.7599 178.955 18.839C183.892 25.4461 186.713 33.7051 186.713 42.436C186.713 51.4029 183.892 59.4259 178.955 66.0331C174.254 73.3482 167.437 79.0114 159.209 82.315H173.784H176.134C195.175 82.315 210.455 66.741 210.455 47.8633V37.0087C210.69 18.1311 195.175 2.55701 176.134 2.55701Z" fill="white"/>
<path d="M170.962 62.9675H135.231C134.291 62.9675 133.586 62.2595 133.586 61.3157V24.2683C133.586 23.3244 134.291 22.6165 135.231 22.6165H170.727C171.197 22.6165 171.432 22.1446 171.197 21.9086C169.787 19.3129 167.906 17.1892 165.791 15.0654C165.791 15.0654 163.91 12.2338 158.503 9.16619C152.627 5.15469 145.574 2.79498 137.817 2.79498C134.056 2.32304 129.589 2.08707 124.888 2.32304C124.653 2.32304 124.183 2.32304 123.948 2.32304C117.366 2.08707 113.84 2.55901 112.194 3.03095C111.724 3.03095 111.254 3.26692 110.784 3.73886C110.078 4.2108 110.313 4.91872 110.313 4.91872V81.1372C110.313 82.0811 111.019 82.789 111.959 82.789H121.127L123.478 83.025C126.063 83.2609 130.295 83.2609 135.231 83.025C141.813 82.553 149.806 81.3732 156.388 78.0696C156.388 78.0696 156.623 78.0696 156.623 77.8336C157.328 77.5976 157.798 77.1257 158.268 76.8897L158.503 76.6537C158.974 76.4178 159.444 76.1818 159.914 75.7099C160.149 75.7099 160.149 75.4739 160.384 75.4739C160.854 75.2379 161.089 75.002 161.559 74.53C161.794 74.53 161.794 74.294 162.029 74.294C162.5 73.8221 162.97 73.3502 163.44 72.8782C163.91 72.4063 164.38 71.9343 164.85 71.4624C167.201 69.1027 169.317 66.507 171.197 63.6754C171.432 63.4394 171.197 62.9675 170.962 62.9675Z" fill="white"/>
<path d="M61.4177 0.434326H38.8507C17.4591 0.434326 0.298828 17.6602 0.298828 39.1335V46.6845C0.298828 67.9219 17.4591 85.3837 38.8507 85.3837H61.4177C82.8093 85.3837 99.9696 68.1579 99.9696 46.6845V39.1335C99.9696 17.6602 82.5743 0.434326 61.4177 0.434326ZM75.5221 49.7522C75.5221 57.7752 68.94 64.3823 60.9476 64.3823H39.3209C31.3284 64.3823 24.7464 57.7752 24.7464 49.7522V35.8299C24.7464 27.8069 31.3284 21.1997 39.3209 21.1997H60.9476C68.94 21.1997 75.5221 27.8069 75.5221 35.8299V49.7522Z" fill="white"/>
<path d="M243.13 23.5588C243.13 22.6149 242.189 21.671 241.249 21.671H222.208C221.268 21.671 220.328 22.6149 220.328 23.5588V80.8996C220.328 81.8435 221.268 82.7874 222.208 82.7874H228.555C229.26 82.7874 229.731 82.5514 230.201 82.0795L242.424 70.7529C242.895 70.2809 243.13 69.573 243.13 68.8651V23.5588Z" fill="white"/>
<path fill-rule="evenodd" clip-rule="evenodd" d="M159.931 62.9671H170.961C171.196 62.9671 171.431 63.439 171.196 63.675C169.315 66.5067 167.2 69.1023 164.849 71.462L163.438 72.8779L162.028 74.2937C161.91 74.2937 161.852 74.3527 161.793 74.4117C161.734 74.4707 161.675 74.5297 161.558 74.5297C161.088 75.0016 160.853 75.2376 160.382 75.4735C160.265 75.4735 160.206 75.5325 160.147 75.5915C160.089 75.6505 160.03 75.7095 159.912 75.7095C159.442 76.1814 158.972 76.4174 158.502 76.6534L158.267 76.8894C158.092 76.9772 157.917 77.0978 157.73 77.2267C157.414 77.444 157.064 77.6851 156.621 77.8332C156.621 78.0692 156.386 78.0692 156.386 78.0692C151.896 80.323 146.749 81.5883 141.842 82.3147H138.11C146.337 79.0112 153.155 73.3479 157.856 66.0328C158.596 65.0422 159.289 64.0198 159.931 62.9671ZM160.344 22.6161H170.726C171.196 22.6161 171.431 22.1442 171.196 21.9082C169.785 19.3126 167.905 17.1888 165.789 15.0651C165.789 15.0651 163.909 12.2334 158.502 9.16583C152.839 5.30023 146.084 2.96846 138.659 2.80396C146.425 6.35717 153.262 11.9222 157.856 18.8387C158.757 20.0452 159.588 21.3067 160.344 22.6161Z" fill="#D2D1D6"/>
<path d="M221.737 0.434082H241.483C242.424 0.434082 243.129 1.14199 243.129 2.08588C243.129 5.62544 243.129 8.92903 242.894 12.2326C242.894 12.7046 241.954 13.8844 241.248 13.8844C234.901 14.1204 228.319 14.1204 221.972 13.8844C221.502 13.8844 220.327 12.9405 220.327 12.2326C220.092 8.69306 220.092 5.38947 220.092 2.08588C220.327 1.14199 221.032 0.434082 221.737 0.434082Z" fill="url(#paint0_linear_3411_2117)"/>
<defs>
<linearGradient id="paint0_linear_3411_2117" x1="220.067" y1="7.25246" x2="243.154" y2="7.25246" gradientUnits="userSpaceOnUse">
<stop stop-color="#11E0D4"/>
<stop offset="0.625" stop-color="#007AFF"/>
</linearGradient>
</defs>
</svg>
