<svg width="1041" height="276" viewBox="0 0 1041 276" fill="none" xmlns="http://www.w3.org/2000/svg">
<path opacity="0.03" d="M39.8661 110.654C33.3863 110.654 27.5296 109.533 22.296 107.29C17.3115 104.798 13.324 101.308 10.3333 96.8224C7.84113 93.3333 5.59814 88.4735 3.60437 82.243C1.85982 76.0124 0.987549 69.0343 0.987549 61.3084C0.987549 48.8473 4.22742 37.1339 10.7072 26.1682C17.1869 14.9533 27.1558 6.23052 40.6137 0L43.9782 6.72897C37.4985 9.71962 31.6418 14.081 26.4081 19.8131C21.4237 25.2959 17.9346 31.1526 15.9408 37.3832C13.6978 44.3614 13.324 51.2149 14.8193 57.9439C21.2991 50.2181 30.3956 46.3551 42.109 46.3551C52.0779 46.3551 60.053 49.2212 66.0343 54.9533C72.0156 60.4361 75.0062 68.2866 75.0062 78.5047C75.0062 88.2243 71.7664 96.0748 65.2866 102.056C58.8069 107.788 50.3333 110.654 39.8661 110.654ZM125.847 110.654C119.368 110.654 113.511 109.533 108.277 107.29C103.293 104.798 99.3053 101.308 96.3147 96.8224C93.8224 93.3333 91.5794 88.4735 89.5857 82.243C87.8411 76.0124 86.9689 69.0343 86.9689 61.3084C86.9689 48.8473 90.2087 37.1339 96.6885 26.1682C103.168 14.9533 113.137 6.23052 126.595 0L129.96 6.72897C123.48 9.71962 117.623 14.081 112.389 19.8131C107.405 25.2959 103.916 31.1526 101.922 37.3832C99.6791 44.3614 99.3053 51.2149 100.801 57.9439C107.28 50.2181 116.377 46.3551 128.09 46.3551C138.059 46.3551 146.034 49.2212 152.016 54.9533C157.997 60.4361 160.988 68.2866 160.988 78.5047C160.988 88.2243 157.748 96.0748 151.268 102.056C144.788 107.788 136.315 110.654 125.847 110.654Z" fill="#1B252C"/>
<path opacity="0.03" d="M1001.26 275.309C1007.74 275.309 1013.6 274.187 1018.83 271.944C1023.82 269.452 1027.8 265.963 1030.79 261.477C1033.29 257.988 1035.53 253.128 1037.52 246.897C1039.27 240.667 1040.14 233.689 1040.14 225.963C1040.14 213.502 1036.9 201.788 1030.42 190.823C1023.94 179.608 1013.97 170.885 1000.51 164.654L997.15 171.383C1003.63 174.374 1009.49 178.735 1014.72 184.467C1019.7 189.95 1023.19 195.807 1025.19 202.037C1027.43 209.016 1027.8 215.869 1026.31 222.598C1019.83 214.872 1010.73 211.009 999.019 211.009C989.05 211.009 981.075 213.875 975.094 219.608C969.113 225.09 966.122 232.941 966.122 243.159C966.122 252.879 969.362 260.729 975.842 266.71C982.321 272.442 990.795 275.309 1001.26 275.309ZM915.281 275.309C921.761 275.309 927.617 274.187 932.851 271.944C937.835 269.452 941.823 265.963 944.814 261.477C947.306 257.988 949.549 253.128 951.542 246.897C953.287 240.667 954.159 233.689 954.159 225.963C954.159 213.502 950.919 201.788 944.44 190.823C937.96 179.608 927.991 170.885 914.533 164.654L911.169 171.383C917.648 174.374 923.505 178.735 928.739 184.467C933.723 189.95 937.212 195.807 939.206 202.037C941.449 209.016 941.823 215.869 940.328 222.598C933.848 214.872 924.751 211.009 913.038 211.009C903.069 211.009 895.094 213.875 889.113 219.608C883.131 225.09 880.141 232.941 880.141 243.159C880.141 252.879 883.38 260.729 889.86 266.71C896.34 272.442 904.814 275.309 915.281 275.309Z" fill="#1B252C"/>
<path opacity="0.03" d="M1000.26 275.309C1006.74 275.309 1012.6 274.187 1017.83 271.944C1022.82 269.452 1026.8 265.963 1029.79 261.477C1032.29 257.988 1034.53 253.128 1036.52 246.897C1038.27 240.667 1039.14 233.689 1039.14 225.963C1039.14 213.502 1035.9 201.788 1029.42 190.823C1022.94 179.608 1012.97 170.885 999.514 164.654L996.15 171.383C1002.63 174.374 1008.49 178.735 1013.72 184.467C1018.7 189.95 1022.19 195.807 1024.19 202.037C1026.43 209.016 1026.8 215.869 1025.31 222.598C1018.83 214.872 1009.73 211.009 998.019 211.009C988.05 211.009 980.075 213.875 974.094 219.608C968.113 225.09 965.122 232.941 965.122 243.159C965.122 252.879 968.362 260.729 974.842 266.71C981.321 272.442 989.795 275.309 1000.26 275.309ZM914.281 275.309C920.761 275.309 926.617 274.187 931.851 271.944C936.835 269.452 940.823 265.963 943.814 261.477C946.306 257.988 948.549 253.128 950.542 246.897C952.287 240.667 953.159 233.689 953.159 225.963C953.159 213.502 949.919 201.788 943.44 190.823C936.96 179.608 926.991 170.885 913.533 164.654L910.169 171.383C916.648 174.374 922.505 178.735 927.739 184.467C932.723 189.95 936.212 195.807 938.206 202.037C940.449 209.016 940.823 215.869 939.328 222.598C932.848 214.872 923.751 211.009 912.038 211.009C902.069 211.009 894.094 213.875 888.113 219.608C882.131 225.09 879.141 232.941 879.141 243.159C879.141 252.879 882.38 260.729 888.86 266.71C895.34 272.442 903.814 275.309 914.281 275.309Z" fill="#1B252C"/>
<path d="M129.218 111.866H130.338L130.018 101.882H109.058L108.738 111.866H109.89C110.754 107.322 112.93 103.418 116.29 103.034V122.906H112.45V124.154H126.594V122.906H122.786V103.034C126.146 103.418 128.322 107.322 129.218 111.866ZM151.068 122.874V112.09C151.068 109.178 149.468 107.322 146.268 107.322C143.708 107.322 141.5 108.506 140.444 110.554V100.954H132.092V102.234H134.3V122.874H132.092V124.154H141.948V122.874H140.444V112.762C141.18 111.066 142.012 110.298 143.196 110.298C144.284 110.298 144.924 111.162 144.924 112.058V122.874H143.708V124.154H153.276V122.874H151.068ZM172.899 119.002C172.803 121.082 172.387 122.33 171.683 122.33C171.203 122.33 170.947 122.042 170.947 121.178V113.242C170.947 109.402 168.515 107.322 162.691 107.322C158.147 107.322 155.459 109.082 155.459 111.77C155.459 113.21 156.451 114.394 158.211 114.394C159.971 114.394 161.027 113.338 161.027 111.802C161.027 110.426 160.291 109.498 158.787 109.37C159.523 109.018 160.387 108.858 161.187 108.858C163.395 108.858 164.835 109.53 164.835 111.898V114.554C157.731 115.066 154.691 116.442 154.691 120.218C154.691 123.034 156.739 124.57 159.747 124.57C162.883 124.57 164.419 123.514 165.091 122.138C165.635 123.77 166.979 124.57 169.411 124.57C173.123 124.57 174.051 122.266 174.051 119.034L172.899 119.002ZM162.691 122.234C161.443 122.234 160.835 121.402 160.835 119.482C160.835 117.018 161.955 116.442 164.835 115.93V119.226C164.835 121.146 163.843 122.234 162.691 122.234ZM185.989 118.266C185.573 121.242 185.093 122.682 183.877 122.682C183.141 122.682 182.693 122.298 182.693 120.41V109.05H186.693V107.738H182.693V102.81H176.581V107.738H173.669V109.05H176.581V118.874C176.581 123.45 178.597 124.57 181.733 124.57C185.893 124.57 186.757 123.066 187.237 118.362L185.989 118.266ZM191.569 101.466C189.553 101.466 188.081 102.81 188.081 104.73C188.081 106.65 189.393 107.962 191.441 107.962C191.857 107.962 192.209 107.93 192.529 107.866C191.825 109.114 190.609 110.33 188.721 111.002L189.169 111.994C192.593 111.226 195.057 108.186 195.057 104.986C195.057 102.81 193.553 101.466 191.569 101.466ZM203.985 124.57C206.609 124.57 210.097 123.002 210.097 118.874C210.097 115.45 208.081 113.754 203.889 112.538C201.265 111.866 199.665 111.45 199.665 110.234C199.665 109.242 200.625 108.634 202.065 108.634C204.337 108.634 206.705 110.49 208.113 112.698H208.945L208.785 107.418H207.985C207.889 107.994 207.473 108.282 206.705 108.282C205.553 108.282 204.305 107.322 201.745 107.322C198.929 107.322 195.761 108.762 195.761 112.506C195.761 115.61 197.201 117.498 201.425 118.586C205.073 119.482 206.257 120.058 206.257 121.434C206.257 122.586 205.425 123.13 203.793 123.13C201.329 123.13 198.225 121.146 196.849 118.362H195.953V124.41H196.945C197.169 123.642 197.585 123.29 198.417 123.29C199.537 123.29 201.169 124.57 203.985 124.57ZM237.536 122.874V112.09C237.536 109.178 235.936 107.322 232.736 107.322C230.176 107.322 227.968 108.506 226.912 110.554V100.954H218.56V102.234H220.768V122.874H218.56V124.154H228.416V122.874H226.912V112.762C227.648 111.066 228.48 110.298 229.664 110.298C230.752 110.298 231.392 111.162 231.392 112.058V122.874H230.176V124.154H239.744V122.874H237.536ZM250.792 124.57C255.176 124.57 260.136 121.946 260.136 115.93C260.136 109.946 255.144 107.322 250.792 107.322C246.408 107.322 241.448 109.946 241.448 115.93C241.448 121.946 246.408 124.57 250.792 124.57ZM250.792 123.226C248.808 123.226 247.944 121.018 247.944 115.93C247.944 110.874 248.808 108.698 250.792 108.698C252.744 108.698 253.64 110.874 253.64 115.93C253.64 121.018 252.744 123.226 250.792 123.226ZM284.385 107.738V109.018H285.377C286.497 109.018 286.817 109.882 286.593 110.746L283.937 120.058L280.513 109.018H282.305V107.738H272.353V109.018H274.049L274.817 111.29L272.321 120.058L268.481 109.018H270.273V107.738H259.809V109.018H261.729L267.713 124.378H272.705L275.777 114.074L279.265 124.378H284.289L288.353 110.906C288.705 109.754 289.601 109.018 290.913 109.018H291.361V107.738H284.385ZM309.291 107.738V108.986H310.379C311.531 108.986 311.979 109.53 311.371 111.098L309.291 116.346L305.611 108.986H307.499V107.738H296.715V108.986H298.731L306.379 124.122L305.771 125.978C305.003 128.282 303.755 129.306 302.091 129.306C300.811 129.306 299.595 128.698 299.147 127.546C299.531 127.93 300.107 128.186 300.875 128.186C302.155 128.186 303.211 127.45 303.211 125.882C303.211 124.314 302.155 123.514 300.715 123.514C298.987 123.514 297.867 124.666 297.867 126.522C297.867 129.146 299.979 130.458 302.251 130.458C304.491 130.458 305.963 129.178 307.083 126.362L313.163 111.034C313.835 109.306 314.667 108.986 315.531 108.986H316.523V107.738H309.291ZM325.511 124.57C329.895 124.57 334.855 121.946 334.855 115.93C334.855 109.946 329.863 107.322 325.511 107.322C321.127 107.322 316.167 109.946 316.167 115.93C316.167 121.946 321.127 124.57 325.511 124.57ZM325.511 123.226C323.527 123.226 322.663 121.018 322.663 115.93C322.663 110.874 323.527 108.698 325.511 108.698C327.463 108.698 328.359 110.874 328.359 115.93C328.359 121.018 327.463 123.226 325.511 123.226ZM354.929 122.906V107.738H346.929V109.018H348.817V119.034C348.081 120.762 347.217 121.498 346.065 121.498C344.977 121.498 344.337 120.634 344.337 119.738V107.738H335.953V109.018H338.161V119.802C338.161 122.682 339.761 124.57 342.993 124.57C345.521 124.57 347.729 123.322 348.817 121.21V124.154H357.137V122.906H354.929ZM383.939 122.906V100.954H375.171V102.266H377.827V109.69C376.803 107.93 375.075 107.354 372.771 107.354C369.411 107.354 365.667 110.042 365.667 115.962C365.667 121.882 369.379 124.57 372.835 124.57C375.075 124.57 376.803 123.994 377.827 122.234V124.154H386.147V122.906H383.939ZM375.107 122.01C373.731 122.01 372.195 120.89 372.195 115.962C372.195 111.034 373.731 109.882 375.107 109.882C376.707 109.882 377.923 111.162 377.923 115.962C377.923 120.762 376.675 122.01 375.107 122.01ZM404.466 118.714C403.538 120.794 401.682 122.362 399.058 122.362C396.146 122.362 394.386 120.538 394.226 116.09H405.17V114.746C405.17 109.818 401.394 107.322 396.722 107.322C391.986 107.322 387.698 109.978 387.698 115.834C387.698 121.882 392.178 124.57 397.202 124.57C402.13 124.57 404.722 122.298 405.778 119.29L404.466 118.714ZM396.69 108.826C398.162 108.826 399.09 110.074 399.154 114.522H394.226C394.354 110.042 395.25 108.826 396.69 108.826ZM418.011 107.738V109.018H419.003C420.123 109.018 420.443 109.882 420.219 110.746L417.595 120.282L413.979 109.018H415.803V107.738H405.403V109.018H407.259L412.827 124.378H417.851L421.979 110.906C422.331 109.754 423.227 109.018 424.539 109.018H424.987V107.738H418.011ZM434.073 124.57C438.457 124.57 443.417 121.946 443.417 115.93C443.417 109.946 438.425 107.322 434.073 107.322C429.689 107.322 424.729 109.946 424.729 115.93C424.729 121.946 429.689 124.57 434.073 124.57ZM434.073 123.226C432.089 123.226 431.225 121.018 431.225 115.93C431.225 110.874 432.089 108.698 434.073 108.698C436.025 108.698 436.921 110.874 436.921 115.93C436.921 121.018 436.025 123.226 434.073 123.226ZM463.492 122.906V107.738H455.492V109.018H457.38V119.034C456.644 120.762 455.78 121.498 454.628 121.498C453.54 121.498 452.9 120.634 452.9 119.738V107.738H444.516V109.018H446.724V119.802C446.724 122.682 448.324 124.57 451.556 124.57C454.084 124.57 456.292 123.322 457.38 121.21V124.154H465.7V122.906H463.492ZM479.767 107.322C477.591 107.322 476.055 108.506 475.287 110.426V107.738H466.935V108.986H469.143V122.874H466.935V124.154H478.423V122.874H475.287V115.066C475.287 110.33 477.559 108.506 479.831 108.506C480.663 108.506 481.943 108.762 482.359 110.33C481.911 109.914 481.303 109.69 480.599 109.69C478.935 109.69 477.879 110.778 477.879 112.282C477.879 113.786 478.935 114.97 480.663 114.97C482.583 114.97 483.671 113.658 483.671 111.194C483.671 108.346 481.783 107.322 479.767 107.322ZM510.118 119.002C510.022 121.082 509.606 122.33 508.902 122.33C508.422 122.33 508.166 122.042 508.166 121.178V113.242C508.166 109.402 505.734 107.322 499.91 107.322C495.366 107.322 492.678 109.082 492.678 111.77C492.678 113.21 493.67 114.394 495.43 114.394C497.19 114.394 498.246 113.338 498.246 111.802C498.246 110.426 497.51 109.498 496.006 109.37C496.742 109.018 497.606 108.858 498.406 108.858C500.614 108.858 502.054 109.53 502.054 111.898V114.554C494.95 115.066 491.91 116.442 491.91 120.218C491.91 123.034 493.958 124.57 496.966 124.57C500.102 124.57 501.638 123.514 502.31 122.138C502.854 123.77 504.198 124.57 506.63 124.57C510.342 124.57 511.27 122.266 511.27 119.034L510.118 119.002ZM499.91 122.234C498.662 122.234 498.054 121.402 498.054 119.482C498.054 117.018 499.174 116.442 502.054 115.93V119.226C502.054 121.146 501.062 122.234 499.91 122.234ZM541.698 107.738V109.018H542.69C543.81 109.018 544.13 109.882 543.906 110.746L541.25 120.058L537.826 109.018H539.618V107.738H529.666V109.018H531.362L532.13 111.29L529.634 120.058L525.794 109.018H527.586V107.738H517.122V109.018H519.042L525.026 124.378H530.018L533.09 114.074L536.578 124.378H541.602L545.666 110.906C546.018 109.754 546.914 109.018 548.226 109.018H548.674V107.738H541.698ZM567.036 122.874V112.09C567.036 109.178 565.436 107.322 562.236 107.322C559.676 107.322 557.468 108.506 556.412 110.554V100.954H548.06V102.234H550.268V122.874H548.06V124.154H557.916V122.874H556.412V112.762C557.148 111.066 557.98 110.298 559.164 110.298C560.252 110.298 560.892 111.162 560.892 112.058V122.874H559.676V124.154H569.244V122.874H567.036ZM588.868 119.002C588.772 121.082 588.356 122.33 587.652 122.33C587.172 122.33 586.916 122.042 586.916 121.178V113.242C586.916 109.402 584.484 107.322 578.66 107.322C574.116 107.322 571.428 109.082 571.428 111.77C571.428 113.21 572.42 114.394 574.18 114.394C575.94 114.394 576.996 113.338 576.996 111.802C576.996 110.426 576.26 109.498 574.756 109.37C575.492 109.018 576.356 108.858 577.156 108.858C579.364 108.858 580.804 109.53 580.804 111.898V114.554C573.7 115.066 570.66 116.442 570.66 120.218C570.66 123.034 572.708 124.57 575.716 124.57C578.852 124.57 580.388 123.514 581.06 122.138C581.604 123.77 582.948 124.57 585.38 124.57C589.092 124.57 590.02 122.266 590.02 119.034L588.868 119.002ZM578.66 122.234C577.412 122.234 576.804 121.402 576.804 119.482C576.804 117.018 577.924 116.442 580.804 115.93V119.226C580.804 121.146 579.812 122.234 578.66 122.234ZM598.85 122.874V100.954H590.498V102.234H592.706V122.874H590.498V124.154H601.09V122.874H598.85ZM619.24 118.714C618.312 120.794 616.456 122.362 613.992 122.362C611.24 122.362 609.48 120.538 609.32 116.09H620.264V114.746C620.264 109.818 616.488 107.322 611.816 107.322C607.08 107.322 602.792 109.978 602.792 115.834C602.792 121.882 607.272 124.57 612.136 124.57C616.904 124.57 619.496 122.298 620.552 119.29L619.24 118.714ZM611.784 108.826C613.256 108.826 614.184 110.074 614.248 114.522H609.32C609.448 110.042 610.344 108.826 611.784 108.826ZM625.568 124.57C627.68 124.57 629.12 123.13 629.12 121.274C629.12 119.354 627.68 117.914 625.568 117.914C623.52 117.914 622.144 119.354 622.144 121.274C622.144 123.13 623.52 124.57 625.568 124.57ZM650 124.538C654.832 124.538 661.552 121.402 661.552 113.05C661.552 104.634 654.896 101.53 650 101.53C645.168 101.53 638.544 104.698 638.544 113.05C638.544 121.37 645.168 124.538 650 124.538ZM650 123.098C647.312 123.098 645.712 120.474 645.712 113.05C645.712 105.754 647.28 102.906 650 102.906C652.752 102.906 654.416 105.754 654.416 113.05C654.416 120.474 652.72 123.098 650 123.098ZM682.446 122.874V112.09C682.446 109.178 680.878 107.322 677.614 107.322C674.926 107.322 672.622 108.666 671.662 110.97V107.738H663.31V108.986H665.518V122.874H663.31V124.154H673.038V122.874H671.662V113.146C672.334 111.194 673.39 110.298 674.638 110.298C675.662 110.298 676.302 111.162 676.302 112.058V122.874H674.958V124.154H684.654V122.874H682.446ZM702.802 118.714C701.874 120.794 700.018 122.362 697.554 122.362C694.802 122.362 693.042 120.538 692.882 116.09H703.826V114.746C703.826 109.818 700.05 107.322 695.378 107.322C690.642 107.322 686.354 109.978 686.354 115.834C686.354 121.882 690.834 124.57 695.698 124.57C700.466 124.57 703.058 122.298 704.114 119.29L702.802 118.714ZM695.346 108.826C696.818 108.826 697.746 110.074 697.81 114.522H692.882C693.01 110.042 693.906 108.826 695.346 108.826ZM725.497 107.354C723.193 107.354 721.497 107.93 720.473 109.626V100.954H712.185V102.266H714.329V122.906H712.185V124.154H720.473V122.266C721.529 124.026 723.193 124.57 725.433 124.57C728.889 124.57 732.601 121.882 732.601 115.962C732.601 110.042 728.857 107.354 725.497 107.354ZM723.161 122.01C721.593 122.01 720.345 120.762 720.345 115.962C720.345 111.162 721.561 109.882 723.161 109.882C724.537 109.882 726.073 111.034 726.073 115.962C726.073 120.89 724.537 122.01 723.161 122.01ZM739.367 105.402C741.447 105.402 742.983 104.154 742.983 102.234C742.983 100.314 741.447 99.0343 739.367 99.0343C737.255 99.0343 735.751 100.314 735.751 102.234C735.751 104.154 737.255 105.402 739.367 105.402ZM742.599 122.874V107.738H734.279V109.018H736.487V122.874H734.279V124.154H744.839V122.874H742.599ZM757.614 118.266C757.198 121.242 756.718 122.682 755.502 122.682C754.766 122.682 754.318 122.298 754.318 120.41V109.05H758.318V107.738H754.318V102.81H748.206V107.738H745.294V109.05H748.206V118.874C748.206 123.45 750.222 124.57 753.358 124.57C757.518 124.57 758.382 123.066 758.862 118.362L757.614 118.266ZM776.771 118.714C775.843 120.794 773.987 122.362 771.523 122.362C768.771 122.362 767.011 120.538 766.851 116.09H777.795V114.746C777.795 109.818 774.019 107.322 769.347 107.322C764.611 107.322 760.323 109.978 760.323 115.834C760.323 121.882 764.803 124.57 769.667 124.57C774.435 124.57 777.027 122.298 778.083 119.29L776.771 118.714ZM769.315 108.826C770.787 108.826 771.715 110.074 771.779 114.522H766.851C766.979 110.042 767.875 108.826 769.315 108.826ZM804.618 119.002C804.522 121.082 804.106 122.33 803.402 122.33C802.922 122.33 802.666 122.042 802.666 121.178V113.242C802.666 109.402 800.234 107.322 794.41 107.322C789.866 107.322 787.178 109.082 787.178 111.77C787.178 113.21 788.17 114.394 789.93 114.394C791.69 114.394 792.746 113.338 792.746 111.802C792.746 110.426 792.01 109.498 790.506 109.37C791.242 109.018 792.106 108.858 792.906 108.858C795.114 108.858 796.554 109.53 796.554 111.898V114.554C789.45 115.066 786.41 116.442 786.41 120.218C786.41 123.034 788.458 124.57 791.466 124.57C794.602 124.57 796.138 123.514 796.81 122.138C797.354 123.77 798.698 124.57 801.13 124.57C804.842 124.57 805.77 122.266 805.77 119.034L804.618 119.002ZM794.41 122.234C793.162 122.234 792.554 121.402 792.554 119.482C792.554 117.018 793.674 116.442 796.554 115.93V119.226C796.554 121.146 795.562 122.234 794.41 122.234ZM817.708 118.266C817.292 121.242 816.812 122.682 815.596 122.682C814.86 122.682 814.412 122.298 814.412 120.41V109.05H818.412V107.738H814.412V102.81H808.3V107.738H805.388V109.05H808.3V118.874C808.3 123.45 810.316 124.57 813.452 124.57C817.612 124.57 818.476 123.066 818.956 118.362L817.708 118.266ZM845.712 119.002C845.616 121.082 845.2 122.33 844.496 122.33C844.016 122.33 843.76 122.042 843.76 121.178V113.242C843.76 109.402 841.328 107.322 835.504 107.322C830.96 107.322 828.272 109.082 828.272 111.77C828.272 113.21 829.264 114.394 831.024 114.394C832.784 114.394 833.84 113.338 833.84 111.802C833.84 110.426 833.104 109.498 831.6 109.37C832.336 109.018 833.2 108.858 834 108.858C836.208 108.858 837.648 109.53 837.648 111.898V114.554C830.544 115.066 827.504 116.442 827.504 120.218C827.504 123.034 829.552 124.57 832.56 124.57C835.696 124.57 837.232 123.514 837.904 122.138C838.448 123.77 839.792 124.57 842.224 124.57C845.936 124.57 846.864 122.266 846.864 119.034L845.712 119.002ZM835.504 122.234C834.256 122.234 833.648 121.402 833.648 119.482C833.648 117.018 834.768 116.442 837.648 115.93V119.226C837.648 121.146 836.656 122.234 835.504 122.234ZM865.708 118.266C865.292 121.242 864.812 122.682 863.596 122.682C862.86 122.682 862.412 122.298 862.412 120.41V109.05H866.412V107.738H862.412V102.81H856.3V107.738H853.388V109.05H856.3V118.874C856.3 123.45 858.316 124.57 861.452 124.57C865.612 124.57 866.476 123.066 866.956 118.362L865.708 118.266ZM873.586 105.402C875.666 105.402 877.202 104.154 877.202 102.234C877.202 100.314 875.666 99.0343 873.586 99.0343C871.474 99.0343 869.97 100.314 869.97 102.234C869.97 104.154 871.474 105.402 873.586 105.402ZM876.818 122.874V107.738H868.498V109.018H870.706V122.874H868.498V124.154H879.058V122.874H876.818ZM910.329 122.874V112.442C910.329 108.922 908.569 107.322 905.465 107.322C903.033 107.322 900.537 108.57 899.353 111.066C898.937 108.602 897.241 107.322 894.649 107.322C892.185 107.322 889.689 108.346 888.569 110.81V107.738H880.217V108.986H882.425V122.874H880.217V124.154H889.977V122.874H888.569V113.05C889.241 111.13 890.425 110.298 891.641 110.298C892.569 110.298 893.305 110.97 893.305 112.474V122.874H891.897V124.154H900.697V122.874H899.449V113.306C900.121 111.13 901.401 110.33 902.617 110.33C903.577 110.33 904.185 110.97 904.185 112.57V122.874H902.745V124.154H912.569V122.874H910.329ZM930.709 118.714C929.781 120.794 927.925 122.362 925.461 122.362C922.709 122.362 920.949 120.538 920.789 116.09H931.733V114.746C931.733 109.818 927.957 107.322 923.285 107.322C918.549 107.322 914.261 109.978 914.261 115.834C914.261 121.882 918.741 124.57 923.605 124.57C928.373 124.57 930.965 122.298 932.021 119.29L930.709 118.714ZM923.253 108.826C924.725 108.826 925.653 110.074 925.717 114.522H920.789C920.917 110.042 921.813 108.826 923.253 108.826Z" fill="#1B252C"/>
<path opacity="0.8" d="M732.82 167.814H738.96V166.754H732.82V167.814ZM752.353 159.234H740.593V160.014H742.213V172.354H740.593V173.154H748.433V172.354H746.313V166.834H746.873C748.353 166.834 749.053 167.894 749.253 169.734H749.833V163.294H749.253C749.053 164.894 748.393 165.974 746.873 165.974H746.313V160.014H747.493C749.933 160.014 751.193 161.134 751.653 164.194H752.373L752.353 159.234ZM761.122 162.634C759.762 162.634 758.802 163.374 758.322 164.574V162.894H753.102V163.674H754.482V172.354H753.102V173.154H760.282V172.354H758.322V167.474C758.322 164.514 759.742 163.374 761.162 163.374C761.682 163.374 762.482 163.534 762.742 164.514C762.462 164.254 762.082 164.114 761.642 164.114C760.602 164.114 759.942 164.794 759.942 165.734C759.942 166.674 760.602 167.414 761.682 167.414C762.882 167.414 763.562 166.594 763.562 165.054C763.562 163.274 762.382 162.634 761.122 162.634ZM775.58 169.934C775.52 171.234 775.26 172.014 774.82 172.014C774.52 172.014 774.36 171.834 774.36 171.294V166.334C774.36 163.934 772.84 162.634 769.2 162.634C766.36 162.634 764.68 163.734 764.68 165.414C764.68 166.314 765.3 167.054 766.4 167.054C767.5 167.054 768.16 166.394 768.16 165.434C768.16 164.574 767.7 163.994 766.76 163.914C767.22 163.694 767.76 163.594 768.26 163.594C769.64 163.594 770.54 164.014 770.54 165.494V167.154C766.1 167.474 764.2 168.334 764.2 170.694C764.2 172.454 765.48 173.414 767.36 173.414C769.32 173.414 770.28 172.754 770.7 171.894C771.04 172.914 771.88 173.414 773.4 173.414C775.72 173.414 776.3 171.974 776.3 169.954L775.58 169.934ZM769.2 171.954C768.42 171.954 768.04 171.434 768.04 170.234C768.04 168.694 768.74 168.334 770.54 168.014V170.074C770.54 171.274 769.92 171.954 769.2 171.954ZM788.558 172.354V165.614C788.558 163.794 787.578 162.634 785.538 162.634C783.858 162.634 782.418 163.474 781.818 164.914V162.894H776.598V163.674H777.978V172.354H776.598V173.154H782.678V172.354H781.818V166.274C782.238 165.054 782.898 164.494 783.678 164.494C784.318 164.494 784.718 165.034 784.718 165.594V172.354H783.878V173.154H789.938V172.354H788.558ZM803.301 172.334L799.221 165.714L799.941 165.074C800.921 164.194 801.721 163.674 802.701 163.674H803.101V162.894H797.901V163.694H798.501C799.361 163.694 799.521 164.394 798.821 164.974L795.861 167.554V158.654H790.661V159.454H792.041V172.354H790.661V173.154H796.821V172.354H795.861V168.714L796.381 168.254L798.821 172.334H797.741V173.154H804.201V172.334H803.301ZM817.673 159.234V159.994H818.413C819.133 159.994 819.713 160.934 819.713 161.794V168.694C819.713 171.294 819.033 172.374 816.993 172.374C815.253 172.374 814.393 171.454 814.393 169.294V159.994H815.993V159.234H808.673V159.994H810.293V168.494C810.293 171.714 811.813 173.394 816.113 173.394C819.713 173.394 821.053 172.094 821.053 168.734V161.794C821.053 160.934 821.613 159.994 822.393 159.994H823.173V159.234H817.673ZM834.965 172.354V165.614C834.965 163.794 833.985 162.634 831.945 162.634C830.265 162.634 828.825 163.474 828.225 164.914V162.894H823.005V163.674H824.385V172.354H823.005V173.154H829.085V172.354H828.225V166.274C828.645 165.054 829.305 164.494 830.085 164.494C830.725 164.494 831.125 165.034 831.125 165.594V172.354H830.285V173.154H836.345V172.354H834.965ZM848.827 172.374V158.654H843.347V159.474H845.007V164.114C844.367 163.014 843.287 162.654 841.847 162.654C839.747 162.654 837.407 164.334 837.407 168.034C837.407 171.734 839.727 173.414 841.887 173.414C843.287 173.414 844.367 173.054 845.007 171.954V173.154H850.207V172.374H848.827ZM843.307 171.814C842.447 171.814 841.487 171.114 841.487 168.034C841.487 164.954 842.447 164.234 843.307 164.234C844.307 164.234 845.067 165.034 845.067 168.034C845.067 171.034 844.287 171.814 843.307 171.814ZM861.457 169.754C860.877 171.054 859.717 172.034 858.177 172.034C856.457 172.034 855.357 170.894 855.257 168.114H862.097V167.274C862.097 164.194 859.737 162.634 856.817 162.634C853.857 162.634 851.177 164.294 851.177 167.954C851.177 171.734 853.977 173.414 857.017 173.414C859.997 173.414 861.617 171.994 862.277 170.114L861.457 169.754ZM856.797 163.574C857.717 163.574 858.297 164.354 858.337 167.134H855.257C855.337 164.334 855.897 163.574 856.797 163.574ZM871.022 162.634C869.702 162.634 868.782 163.354 868.322 164.514V162.894H863.102V163.674H864.482V172.354H863.102V173.154H870.282V172.354H868.322V167.474C868.322 164.514 869.642 163.374 871.062 163.374C871.582 163.374 872.382 163.534 872.642 164.514C872.362 164.254 871.982 164.114 871.542 164.114C870.502 164.114 869.842 164.794 869.842 165.734C869.842 166.674 870.502 167.414 871.582 167.414C872.782 167.414 873.462 166.594 873.462 165.054C873.462 163.274 872.282 162.634 871.022 162.634ZM888.735 162.894V163.694H889.355C890.055 163.694 890.255 164.234 890.115 164.774L888.455 170.594L886.315 163.694H887.435V162.894H881.215V163.694H882.275L882.755 165.114L881.195 170.594L878.795 163.694H879.915V162.894H873.375V163.694H874.575L878.315 173.294H881.435L883.355 166.854L885.535 173.294H888.675L891.215 164.874C891.435 164.154 891.995 163.694 892.815 163.694H893.095V162.894H888.735ZM898.774 173.414C901.514 173.414 904.614 171.774 904.614 168.014C904.614 164.274 901.494 162.634 898.774 162.634C896.034 162.634 892.934 164.274 892.934 168.014C892.934 171.774 896.034 173.414 898.774 173.414ZM898.774 172.574C897.534 172.574 896.994 171.194 896.994 168.014C896.994 164.854 897.534 163.494 898.774 163.494C899.994 163.494 900.554 164.854 900.554 168.014C900.554 171.194 899.994 172.574 898.774 172.574ZM911.841 173.414C914.581 173.414 917.681 171.774 917.681 168.014C917.681 164.274 914.561 162.634 911.841 162.634C909.101 162.634 906.001 164.274 906.001 168.014C906.001 171.774 909.101 173.414 911.841 173.414ZM911.841 172.574C910.601 172.574 910.061 171.194 910.061 168.014C910.061 164.854 910.601 163.494 911.841 163.494C913.061 163.494 913.621 164.854 913.621 168.014C913.621 171.194 913.061 172.574 911.841 172.574ZM930.487 172.374V158.654H925.007V159.474H926.667V164.114C926.027 163.014 924.947 162.654 923.507 162.654C921.407 162.654 919.067 164.334 919.067 168.034C919.067 171.734 921.387 173.414 923.547 173.414C924.947 173.414 926.027 173.054 926.667 171.954V173.154H931.867V172.374H930.487ZM924.967 171.814C924.107 171.814 923.147 171.114 923.147 168.034C923.147 164.954 924.107 164.234 924.967 164.234C925.967 164.234 926.727 165.034 926.727 168.034C926.727 171.034 925.947 171.814 924.967 171.814Z" fill="#1B252C"/>
</svg>
