<svg width="495" height="113" viewBox="0 0 495 113" fill="none" xmlns="http://www.w3.org/2000/svg">
<path d="M0 44.3008C0 37.6734 5.37258 32.3008 12 32.3008L120 32.3008C126.627 32.3008 132 37.6734 132 44.3008C132 50.9282 126.627 56.3008 120 56.3008L12 56.3008C5.37258 56.3008 0 50.9282 0 44.3008Z" fill="url(#paint0_linear_3543_2401)"/>
<path d="M37.7691 40.7344C38.8746 40.7344 39.6813 40.9727 40.1891 41.4492C40.6969 41.9219 40.9508 42.5742 40.9508 43.4062C40.9508 43.7812 40.8941 44.1406 40.7809 44.4844C40.6676 44.8242 40.482 45.127 40.2242 45.3926C39.9703 45.6582 39.6305 45.8691 39.2047 46.0254C38.7789 46.1777 38.2535 46.2539 37.6285 46.2539H36.8492V49.3008H35.0328V40.7344H37.7691ZM37.6754 42.2227H36.8492V44.7656H37.4469C37.7867 44.7656 38.0816 44.7207 38.3316 44.6309C38.5816 44.541 38.775 44.4004 38.9117 44.209C39.0484 44.0176 39.1168 43.7715 39.1168 43.4707C39.1168 43.0488 38.9996 42.7363 38.7652 42.5332C38.5309 42.3262 38.1676 42.2227 37.6754 42.2227ZM45.8641 40.7344C46.6414 40.7344 47.282 40.8281 47.7859 41.0156C48.2938 41.2031 48.6707 41.4863 48.9168 41.8652C49.1629 42.2441 49.2859 42.7227 49.2859 43.3008C49.2859 43.6914 49.2117 44.0332 49.0633 44.3262C48.9148 44.6191 48.7195 44.8672 48.4773 45.0703C48.2352 45.2734 47.9734 45.4395 47.6922 45.5684L50.2117 49.3008H48.1961L46.1512 46.0137H45.1844V49.3008H43.368V40.7344H45.8641ZM45.7352 42.2227H45.1844V44.5371H45.7703C46.3719 44.5371 46.8016 44.4375 47.0594 44.2383C47.3211 44.0352 47.452 43.7383 47.452 43.3477C47.452 42.9414 47.3113 42.6523 47.0301 42.4805C46.7527 42.3086 46.3211 42.2227 45.7352 42.2227ZM52.0898 49.3008V40.7344H53.9063V49.3008H52.0898ZM60.4895 49.3008L58.427 42.5801H58.3742C58.382 42.7402 58.3938 42.9824 58.4094 43.3066C58.4289 43.627 58.4465 43.9688 58.4621 44.332C58.4777 44.6953 58.4855 45.0234 58.4855 45.3164V49.3008H56.8625V40.7344H59.3352L61.3625 47.2852H61.3977L63.548 40.7344H66.0207V49.3008H64.3273V45.2461C64.3273 44.9766 64.3313 44.666 64.3391 44.3145C64.3508 43.9629 64.3645 43.6289 64.3801 43.3125C64.3957 42.9922 64.4074 42.752 64.4152 42.5918H64.3625L62.1535 49.3008H60.4895ZM74.227 49.3008L73.6059 47.2617H70.4828L69.8617 49.3008H67.9047L70.9281 40.6992H73.1488L76.184 49.3008H74.227ZM73.1723 45.7383L72.5512 43.7461C72.5121 43.6133 72.4594 43.4434 72.393 43.2363C72.3305 43.0254 72.266 42.8125 72.1996 42.5977C72.1371 42.3789 72.0863 42.1895 72.0473 42.0293C72.0082 42.1895 71.9535 42.3887 71.8832 42.627C71.8168 42.8613 71.7523 43.084 71.6898 43.2949C71.6273 43.5059 71.5824 43.6562 71.5551 43.7461L70.9398 45.7383H73.1723ZM80.5641 40.7344C81.3414 40.7344 81.982 40.8281 82.4859 41.0156C82.9938 41.2031 83.3707 41.4863 83.6168 41.8652C83.8629 42.2441 83.9859 42.7227 83.9859 43.3008C83.9859 43.6914 83.9117 44.0332 83.7633 44.3262C83.6148 44.6191 83.4195 44.8672 83.1773 45.0703C82.9352 45.2734 82.6734 45.4395 82.3922 45.5684L84.9117 49.3008H82.8961L80.8512 46.0137H79.8844V49.3008H78.068V40.7344H80.5641ZM80.4352 42.2227H79.8844V44.5371H80.4703C81.0719 44.5371 81.5016 44.4375 81.7594 44.2383C82.0211 44.0352 82.152 43.7383 82.152 43.3477C82.152 42.9414 82.0113 42.6523 81.7301 42.4805C81.4527 42.3086 81.0211 42.2227 80.4352 42.2227ZM89.4559 44.2617L91.243 40.7344H93.2L90.3582 45.9668V49.3008H88.5535V46.0254L85.7117 40.7344H87.6805L89.4559 44.2617Z" fill="white"/>
<path fill-rule="evenodd" clip-rule="evenodd" d="M115.134 42.8741C114.841 42.5812 114.841 42.1063 115.134 41.8134C115.427 41.5205 115.901 41.5205 116.194 41.8134L119.47 45.089C119.616 45.2354 119.69 45.4274 119.69 45.6193C119.69 45.8113 119.616 46.0032 119.47 46.1497L116.194 49.4252C115.901 49.7181 115.427 49.7181 115.134 49.4252C114.841 49.1323 114.841 48.6575 115.134 48.3646L117.879 45.6193L115.134 42.8741Z" fill="white"/>
<path d="M0 100.301C0 93.6734 5.37258 88.3008 12 88.3008L120 88.3008C126.627 88.3008 132 93.6734 132 100.301C132 106.928 126.627 112.301 120 112.301L12 112.301C5.37258 112.301 0 106.928 0 100.301Z" fill="#272936"/>
<path opacity="0.3" d="M40.5785 101.061C40.5785 102.025 40.393 102.832 40.0219 103.48C39.6547 104.125 39.1215 104.611 38.4223 104.939C37.723 105.264 36.8812 105.426 35.8969 105.426H33.4711V96.8594H36.1605C37.059 96.8594 37.8383 97.0195 38.4984 97.3398C39.1586 97.6562 39.6703 98.127 40.0336 98.752C40.3969 99.373 40.5785 100.143 40.5785 101.061ZM38.6918 101.107C38.6918 100.475 38.598 99.9551 38.4105 99.5488C38.227 99.1387 37.9535 98.8359 37.5902 98.6406C37.2309 98.4453 36.7855 98.3477 36.2543 98.3477H35.2875V103.926H36.0668C36.9535 103.926 37.6117 103.689 38.0414 103.217C38.475 102.744 38.6918 102.041 38.6918 101.107ZM43.1539 105.426V96.8594H44.9703V105.426H43.1539ZM52.9832 103.047C52.9832 103.555 52.8602 103.996 52.6141 104.371C52.368 104.746 52.0086 105.035 51.5359 105.238C51.0672 105.441 50.4969 105.543 49.825 105.543C49.5281 105.543 49.2371 105.523 48.952 105.484C48.6707 105.445 48.3992 105.389 48.1375 105.314C47.8797 105.236 47.6336 105.141 47.3992 105.027V103.34C47.8055 103.52 48.2273 103.682 48.6648 103.826C49.1023 103.971 49.5359 104.043 49.9656 104.043C50.2625 104.043 50.5008 104.004 50.6805 103.926C50.8641 103.848 50.9969 103.74 51.0789 103.604C51.1609 103.467 51.202 103.311 51.202 103.135C51.202 102.92 51.1297 102.736 50.9852 102.584C50.8406 102.432 50.6414 102.289 50.3875 102.156C50.1375 102.023 49.8543 101.881 49.5379 101.729C49.3387 101.635 49.1219 101.521 48.8875 101.389C48.6531 101.252 48.4305 101.086 48.2195 100.891C48.0086 100.695 47.8348 100.459 47.698 100.182C47.5652 99.9004 47.4988 99.5645 47.4988 99.1738C47.4988 98.6621 47.616 98.2246 47.8504 97.8613C48.0848 97.498 48.4187 97.2207 48.8523 97.0293C49.2898 96.834 49.8055 96.7363 50.3992 96.7363C50.8445 96.7363 51.2684 96.7891 51.6707 96.8945C52.077 96.9961 52.5008 97.1445 52.9422 97.3398L52.3562 98.752C51.9617 98.5918 51.6082 98.4688 51.2957 98.3828C50.9832 98.293 50.6648 98.248 50.3406 98.248C50.1141 98.248 49.9207 98.2852 49.7605 98.3594C49.6004 98.4297 49.4793 98.5312 49.3973 98.6641C49.3152 98.793 49.2742 98.9434 49.2742 99.1152C49.2742 99.3184 49.3328 99.4902 49.45 99.6309C49.5711 99.7676 49.7508 99.9004 49.9891 100.029C50.2312 100.158 50.532 100.309 50.8914 100.48C51.3289 100.688 51.702 100.904 52.0105 101.131C52.323 101.354 52.5633 101.617 52.7312 101.922C52.8992 102.223 52.9832 102.598 52.9832 103.047ZM60.5801 105.426L59.959 103.387H56.8359L56.2148 105.426H54.2578L57.2812 96.8242H59.502L62.5371 105.426H60.5801ZM59.5254 101.863L58.9043 99.8711C58.8652 99.7383 58.8125 99.5684 58.7461 99.3613C58.6836 99.1504 58.6191 98.9375 58.5527 98.7227C58.4902 98.5039 58.4395 98.3145 58.4004 98.1543C58.3613 98.3145 58.3066 98.5137 58.2363 98.752C58.1699 98.9863 58.1055 99.209 58.043 99.4199C57.9805 99.6309 57.9355 99.7812 57.9082 99.8711L57.293 101.863H59.5254ZM64.4211 96.8594H67.0871C68.2277 96.8594 69.091 97.0195 69.677 97.3398C70.2629 97.6602 70.5559 98.2227 70.5559 99.0273C70.5559 99.3516 70.5031 99.6445 70.3977 99.9062C70.2961 100.168 70.1477 100.383 69.9523 100.551C69.757 100.719 69.5187 100.828 69.2375 100.879V100.938C69.5227 100.996 69.7805 101.098 70.0109 101.242C70.2414 101.383 70.425 101.59 70.5617 101.863C70.7023 102.133 70.7727 102.492 70.7727 102.941C70.7727 103.461 70.6457 103.906 70.3918 104.277C70.1379 104.648 69.7746 104.934 69.302 105.133C68.8332 105.328 68.2746 105.426 67.6262 105.426H64.4211V96.8594ZM66.2375 100.252H67.2922C67.8195 100.252 68.1848 100.17 68.3879 100.006C68.591 99.8379 68.6926 99.5918 68.6926 99.2676C68.6926 98.9395 68.5715 98.7051 68.3293 98.5645C68.091 98.4199 67.7121 98.3477 67.1926 98.3477H66.2375V100.252ZM66.2375 101.693V103.926H67.4211C67.968 103.926 68.3488 103.82 68.5637 103.609C68.7785 103.398 68.8859 103.115 68.8859 102.76C68.8859 102.549 68.8391 102.363 68.7453 102.203C68.6516 102.043 68.4934 101.918 68.2707 101.828C68.052 101.738 67.7492 101.693 67.3625 101.693H66.2375ZM73.2836 105.426V96.8594H75.1V103.926H78.5746V105.426H73.2836ZM85.8023 105.426H80.8687V96.8594H85.8023V98.3477H82.6852V100.229H85.5855V101.717H82.6852V103.926H85.8023V105.426ZM95.5027 101.061C95.5027 102.025 95.3172 102.832 94.9461 103.48C94.5789 104.125 94.0457 104.611 93.3465 104.939C92.6473 105.264 91.8055 105.426 90.8211 105.426H88.3953V96.8594H91.0848C91.9832 96.8594 92.7625 97.0195 93.4227 97.3398C94.0828 97.6562 94.5945 98.127 94.9578 98.752C95.3211 99.373 95.5027 100.143 95.5027 101.061ZM93.616 101.107C93.616 100.475 93.5223 99.9551 93.3348 99.5488C93.1512 99.1387 92.8777 98.8359 92.5145 98.6406C92.1551 98.4453 91.7098 98.3477 91.1785 98.3477H90.2117V103.926H90.991C91.8777 103.926 92.5359 103.689 92.9656 103.217C93.3992 102.744 93.616 102.041 93.616 101.107Z" fill="white"/>
<path opacity="0.3" fill-rule="evenodd" clip-rule="evenodd" d="M115.134 96.8741C114.841 96.5812 114.841 96.1063 115.134 95.8134C115.427 95.5205 115.901 95.5205 116.194 95.8134L119.47 99.089C119.598 99.2171 119.67 99.3801 119.686 99.5474C119.692 99.6108 119.69 99.6748 119.68 99.7377C119.656 99.8885 119.586 100.033 119.47 100.15L116.194 103.425C115.901 103.718 115.427 103.718 115.134 103.425C114.841 103.132 114.841 102.657 115.134 102.365L117.879 99.6193L115.134 96.8741Z" fill="white"/>
<path d="M171 44.3008C171 37.6734 176.373 32.3008 183 32.3008L312 32.3008C318.627 32.3008 324 37.6734 324 44.3008C324 50.9282 318.627 56.3008 312 56.3008L183 56.3008C176.373 56.3008 171 50.9282 171 44.3008Z" fill="url(#paint1_linear_3543_2401)"/>
<path d="M290.312 51.3448C289.825 51.1192 289.656 50.7391 289.656 50.2042C289.676 47.8523 289.663 45.5004 289.663 43.1484C289.663 43.084 289.663 43.0195 289.663 42.9551C289.676 42.401 290.052 42.0014 290.552 42.0079C291.046 42.0143 291.41 42.4138 291.41 42.9487C291.41 45.1588 291.41 47.3755 291.41 49.5857C291.41 49.7596 291.403 49.9272 291.41 50.1011C291.423 50.6617 291.26 51.1128 290.695 51.3448C290.572 51.3448 290.442 51.3448 290.312 51.3448Z" fill="white"/>
<path d="M282 45.5453C282.13 45.2038 282.312 44.9074 282.714 44.8301C283.26 44.727 283.741 45.0878 283.76 45.642C283.779 46.3186 283.773 46.9887 283.766 47.6653C283.76 48.1421 283.474 48.4965 283.052 48.561C282.604 48.6318 282.253 48.4256 282.065 47.9681C282.052 47.9295 282.026 47.8908 282.006 47.8586C282 47.0918 282 46.3186 282 45.5453Z" fill="white"/>
<path d="M295.573 45.2309C295.573 46.3585 295.554 47.4862 295.58 48.6138C295.599 49.7479 294.658 50.2827 293.703 50.0057C293.359 49.9026 293.021 49.793 292.683 49.6835C292.482 49.619 292.365 49.4902 292.443 49.2711C292.521 49.0649 292.664 49.0005 292.878 49.0713C293.196 49.1744 293.521 49.2646 293.839 49.3613C294.476 49.5482 294.917 49.2389 294.917 48.5752C294.924 46.5003 294.917 44.4319 294.917 42.357C294.917 41.1521 294.917 41.1521 293.748 40.8041C290.592 39.8633 287.442 38.9161 284.286 37.9689C283.533 37.7433 283.136 38.0269 283.136 38.8066C283.136 40.2564 283.136 41.7062 283.136 43.156C283.136 43.2656 283.162 43.3945 283.11 43.4718C283.039 43.5813 282.909 43.7231 282.805 43.7231C282.701 43.7231 282.571 43.5813 282.494 43.4782C282.448 43.4138 282.468 43.2914 282.468 43.1947C282.468 41.732 282.468 40.2757 282.468 38.813C282.481 37.6209 283.312 37.0023 284.468 37.3503C287.773 38.3426 291.086 39.3349 294.391 40.3337C295.229 40.585 295.573 41.049 295.573 41.9124C295.573 43.0207 295.573 44.129 295.573 45.2309Z" fill="white"/>
<path d="M287.143 46.6992C287.143 45.7648 287.137 44.8305 287.143 43.9026C287.15 43.2196 287.76 42.7943 288.364 43.0456C288.734 43.2003 288.89 43.4967 288.89 43.8897C288.89 44.9852 288.89 46.0741 288.89 47.1696C288.89 47.8848 288.897 48.6065 288.884 49.3217C288.877 49.7341 288.78 50.1143 288.364 50.3205C287.773 50.6234 287.15 50.2303 287.137 49.5279C287.13 48.5872 287.143 47.6399 287.143 46.6992Z" fill="white"/>
<path d="M286.337 46.6918C286.337 47.2911 286.35 47.8904 286.337 48.4896C286.324 49.1727 285.714 49.5979 285.116 49.3466C284.772 49.2049 284.597 48.9342 284.597 48.5669C284.59 47.3104 284.59 46.0604 284.597 44.8038C284.603 44.3012 284.967 43.9404 285.441 43.9339C285.948 43.9211 286.318 44.2626 286.331 44.791C286.35 45.4289 286.337 46.0604 286.337 46.6918Z" fill="white"/>
<path d="M201.056 46.9219C201.056 47.4297 200.933 47.8711 200.687 48.2461C200.441 48.6211 200.081 48.9102 199.609 49.1133C199.14 49.3164 198.57 49.418 197.898 49.418C197.601 49.418 197.31 49.3984 197.025 49.3594C196.743 49.3203 196.472 49.2637 196.21 49.1895C195.952 49.1113 195.706 49.0156 195.472 48.9023V47.2148C195.878 47.3945 196.3 47.5566 196.738 47.7012C197.175 47.8457 197.609 47.918 198.038 47.918C198.335 47.918 198.573 47.8789 198.753 47.8008C198.937 47.7227 199.07 47.6152 199.152 47.4785C199.234 47.3418 199.275 47.1855 199.275 47.0098C199.275 46.7949 199.202 46.6113 199.058 46.459C198.913 46.3066 198.714 46.1641 198.46 46.0312C198.21 45.8984 197.927 45.7559 197.611 45.6035C197.411 45.5098 197.195 45.3965 196.96 45.2637C196.726 45.127 196.503 44.9609 196.292 44.7656C196.081 44.5703 195.907 44.334 195.771 44.0566C195.638 43.7754 195.571 43.4395 195.571 43.0488C195.571 42.5371 195.689 42.0996 195.923 41.7363C196.157 41.373 196.491 41.0957 196.925 40.9043C197.363 40.709 197.878 40.6113 198.472 40.6113C198.917 40.6113 199.341 40.6641 199.743 40.7695C200.15 40.8711 200.573 41.0195 201.015 41.2148L200.429 42.627C200.034 42.4668 199.681 42.3438 199.368 42.2578C199.056 42.168 198.738 42.123 198.413 42.123C198.187 42.123 197.993 42.1602 197.833 42.2344C197.673 42.3047 197.552 42.4062 197.47 42.5391C197.388 42.668 197.347 42.8184 197.347 42.9902C197.347 43.1934 197.405 43.3652 197.523 43.5059C197.644 43.6426 197.823 43.7754 198.062 43.9043C198.304 44.0332 198.605 44.1836 198.964 44.3555C199.402 44.5625 199.775 44.7793 200.083 45.0059C200.396 45.2285 200.636 45.4922 200.804 45.7969C200.972 46.0977 201.056 46.4727 201.056 46.9219ZM208.342 49.3008H203.409V40.7344H208.342V42.2227H205.225V44.1035H208.125V45.5918H205.225V47.8008H208.342V49.3008ZM214.574 42.123C214.226 42.123 213.918 42.1914 213.648 42.3281C213.382 42.4609 213.158 42.6543 212.974 42.9082C212.795 43.1621 212.658 43.4688 212.564 43.8281C212.47 44.1875 212.423 44.5918 212.423 45.041C212.423 45.6465 212.498 46.1641 212.646 46.5938C212.798 47.0195 213.033 47.3457 213.349 47.5723C213.666 47.7949 214.074 47.9062 214.574 47.9062C214.921 47.9062 215.269 47.8672 215.617 47.7891C215.968 47.7109 216.349 47.5996 216.759 47.4551V48.9785C216.38 49.1348 216.007 49.2461 215.64 49.3125C215.273 49.3828 214.861 49.418 214.404 49.418C213.521 49.418 212.795 49.2363 212.224 48.873C211.658 48.5059 211.238 47.9941 210.964 47.3379C210.691 46.6777 210.554 45.9082 210.554 45.0293C210.554 44.3809 210.642 43.7871 210.818 43.248C210.994 42.709 211.252 42.2422 211.591 41.8477C211.931 41.4531 212.351 41.1484 212.851 40.9336C213.351 40.7188 213.925 40.6113 214.574 40.6113C215 40.6113 215.425 40.666 215.851 40.7754C216.281 40.8809 216.691 41.0273 217.082 41.2148L216.496 42.6914C216.175 42.5391 215.853 42.4062 215.529 42.293C215.205 42.1797 214.886 42.123 214.574 42.123ZM227.163 45.0059C227.163 45.666 227.081 46.2676 226.917 46.8105C226.753 47.3496 226.503 47.8145 226.167 48.2051C225.835 48.5957 225.413 48.8965 224.901 49.1074C224.389 49.3145 223.784 49.418 223.085 49.418C222.386 49.418 221.78 49.3145 221.268 49.1074C220.757 48.8965 220.333 48.5957 219.997 48.2051C219.665 47.8145 219.417 47.3477 219.253 46.8047C219.089 46.2617 219.007 45.6582 219.007 44.9941C219.007 44.1074 219.151 43.3359 219.44 42.6797C219.733 42.0195 220.182 41.5078 220.788 41.1445C221.393 40.7812 222.163 40.5996 223.096 40.5996C224.026 40.5996 224.79 40.7812 225.388 41.1445C225.989 41.5078 226.434 42.0195 226.723 42.6797C227.016 43.3398 227.163 44.1152 227.163 45.0059ZM220.911 45.0059C220.911 45.6035 220.985 46.1191 221.134 46.5527C221.286 46.9824 221.522 47.3145 221.843 47.5488C222.163 47.7793 222.577 47.8945 223.085 47.8945C223.6 47.8945 224.018 47.7793 224.339 47.5488C224.659 47.3145 224.891 46.9824 225.036 46.5527C225.184 46.1191 225.259 45.6035 225.259 45.0059C225.259 44.1074 225.091 43.4004 224.755 42.8848C224.419 42.3691 223.866 42.1113 223.096 42.1113C222.585 42.1113 222.167 42.2285 221.843 42.4629C221.522 42.6934 221.286 43.0254 221.134 43.459C220.985 43.8887 220.911 44.4043 220.911 45.0059ZM237.338 49.3008H235.029L231.303 42.8203H231.25C231.266 43.0898 231.279 43.3613 231.291 43.6348C231.303 43.9082 231.314 44.1816 231.326 44.4551C231.338 44.7246 231.35 44.9961 231.361 45.2695V49.3008H229.738V40.7344H232.029L235.75 47.1504H235.791C235.783 46.8848 235.773 46.6211 235.762 46.3594C235.75 46.0977 235.738 45.8359 235.727 45.5742C235.719 45.3125 235.711 45.0508 235.703 44.7891V40.7344H237.338V49.3008ZM247.407 44.9355C247.407 45.9004 247.222 46.707 246.851 47.3555C246.484 48 245.95 48.4863 245.251 48.8145C244.552 49.1387 243.71 49.3008 242.726 49.3008H240.3V40.7344H242.989C243.888 40.7344 244.667 40.8945 245.327 41.2148C245.988 41.5312 246.499 42.002 246.863 42.627C247.226 43.248 247.407 44.0176 247.407 44.9355ZM245.521 44.9824C245.521 44.3496 245.427 43.8301 245.239 43.4238C245.056 43.0137 244.782 42.7109 244.419 42.5156C244.06 42.3203 243.614 42.2227 243.083 42.2227H242.116V47.8008H242.896C243.782 47.8008 244.441 47.5645 244.87 47.0918C245.304 46.6191 245.521 45.916 245.521 44.9824ZM255.227 49.3008L254.606 47.2617H251.483L250.862 49.3008H248.905L251.928 40.6992H254.149L257.184 49.3008H255.227ZM254.172 45.7383L253.551 43.7461C253.512 43.6133 253.459 43.4434 253.393 43.2363C253.33 43.0254 253.266 42.8125 253.2 42.5977C253.137 42.3789 253.086 42.1895 253.047 42.0293C253.008 42.1895 252.954 42.3887 252.883 42.627C252.817 42.8613 252.752 43.084 252.69 43.2949C252.627 43.5059 252.582 43.6562 252.555 43.7461L251.94 45.7383H254.172ZM261.564 40.7344C262.341 40.7344 262.982 40.8281 263.486 41.0156C263.994 41.2031 264.371 41.4863 264.617 41.8652C264.863 42.2441 264.986 42.7227 264.986 43.3008C264.986 43.6914 264.912 44.0332 264.763 44.3262C264.615 44.6191 264.42 44.8672 264.177 45.0703C263.935 45.2734 263.673 45.4395 263.392 45.5684L265.912 49.3008H263.896L261.851 46.0137H260.884V49.3008H259.068V40.7344H261.564ZM261.435 42.2227H260.884V44.5371H261.47C262.072 44.5371 262.502 44.4375 262.759 44.2383C263.021 44.0352 263.152 43.7383 263.152 43.3477C263.152 42.9414 263.011 42.6523 262.73 42.4805C262.453 42.3086 262.021 42.2227 261.435 42.2227ZM270.456 44.2617L272.243 40.7344H274.2L271.358 45.9668V49.3008H269.554V46.0254L266.712 40.7344H268.68L270.456 44.2617Z" fill="white"/>
<path fill-rule="evenodd" clip-rule="evenodd" d="M306.724 41.8741C306.431 41.5812 306.431 41.1063 306.724 40.8134C307.016 40.5205 307.491 40.5205 307.784 40.8134L311.06 44.089C311.206 44.2354 311.279 44.4274 311.279 44.6193C311.279 44.8113 311.206 45.0032 311.06 45.1497L307.784 48.4252C307.491 48.7181 307.016 48.7181 306.724 48.4252C306.431 48.1323 306.431 47.6575 306.724 47.3646L309.469 44.6193L306.724 41.8741Z" fill="white"/>
<path d="M363 44.3008C363 37.6734 368.373 32.3008 375 32.3008L483 32.3008C489.627 32.3008 495 37.6734 495 44.3008C495 50.9282 489.627 56.3008 483 56.3008L375 56.3008C368.373 56.3008 363 50.9282 363 44.3008Z" fill="url(#paint2_linear_3543_2401)"/>
<path d="M395.595 46.9219C395.595 47.4297 395.472 47.8711 395.226 48.2461C394.98 48.6211 394.621 48.9102 394.148 49.1133C393.679 49.3164 393.109 49.418 392.437 49.418C392.14 49.418 391.849 49.3984 391.564 49.3594C391.283 49.3203 391.011 49.2637 390.75 49.1895C390.492 49.1113 390.246 49.0156 390.011 48.9023V47.2148C390.418 47.3945 390.839 47.5566 391.277 47.7012C391.714 47.8457 392.148 47.918 392.578 47.918C392.875 47.918 393.113 47.8789 393.293 47.8008C393.476 47.7227 393.609 47.6152 393.691 47.4785C393.773 47.3418 393.814 47.1855 393.814 47.0098C393.814 46.7949 393.742 46.6113 393.597 46.459C393.453 46.3066 393.254 46.1641 393 46.0312C392.75 45.8984 392.466 45.7559 392.15 45.6035C391.951 45.5098 391.734 45.3965 391.5 45.2637C391.265 45.127 391.043 44.9609 390.832 44.7656C390.621 44.5703 390.447 44.334 390.31 44.0566C390.177 43.7754 390.111 43.4395 390.111 43.0488C390.111 42.5371 390.228 42.0996 390.463 41.7363C390.697 41.373 391.031 41.0957 391.464 40.9043C391.902 40.709 392.418 40.6113 393.011 40.6113C393.457 40.6113 393.88 40.6641 394.283 40.7695C394.689 40.8711 395.113 41.0195 395.554 41.2148L394.968 42.627C394.574 42.4668 394.22 42.3438 393.908 42.2578C393.595 42.168 393.277 42.123 392.953 42.123C392.726 42.123 392.533 42.1602 392.373 42.2344C392.213 42.3047 392.091 42.4062 392.009 42.5391C391.927 42.668 391.886 42.8184 391.886 42.9902C391.886 43.1934 391.945 43.3652 392.062 43.5059C392.183 43.6426 392.363 43.7754 392.601 43.9043C392.843 44.0332 393.144 44.1836 393.504 44.3555C393.941 44.5625 394.314 44.7793 394.623 45.0059C394.935 45.2285 395.175 45.4922 395.343 45.7969C395.511 46.0977 395.595 46.4727 395.595 46.9219ZM402.882 49.3008H397.948V40.7344H402.882V42.2227H399.764V44.1035H402.665V45.5918H399.764V47.8008H402.882V49.3008ZM409.113 42.123C408.766 42.123 408.457 42.1914 408.188 42.3281C407.922 42.4609 407.697 42.6543 407.514 42.9082C407.334 43.1621 407.197 43.4688 407.104 43.8281C407.01 44.1875 406.963 44.5918 406.963 45.041C406.963 45.6465 407.037 46.1641 407.186 46.5938C407.338 47.0195 407.572 47.3457 407.889 47.5723C408.205 47.7949 408.613 47.9062 409.113 47.9062C409.461 47.9062 409.809 47.8672 410.156 47.7891C410.508 47.7109 410.889 47.5996 411.299 47.4551V48.9785C410.92 49.1348 410.547 49.2461 410.18 49.3125C409.813 49.3828 409.4 49.418 408.943 49.418C408.061 49.418 407.334 49.2363 406.764 48.873C406.197 48.5059 405.777 47.9941 405.504 47.3379C405.23 46.6777 405.094 45.9082 405.094 45.0293C405.094 44.3809 405.182 43.7871 405.357 43.248C405.533 42.709 405.791 42.2422 406.131 41.8477C406.471 41.4531 406.891 41.1484 407.391 40.9336C407.891 40.7188 408.465 40.6113 409.113 40.6113C409.539 40.6113 409.965 40.666 410.391 40.7754C410.82 40.8809 411.23 41.0273 411.621 41.2148L411.035 42.6914C410.715 42.5391 410.393 42.4062 410.068 42.293C409.744 42.1797 409.426 42.123 409.113 42.123ZM421.702 45.0059C421.702 45.666 421.62 46.2676 421.456 46.8105C421.292 47.3496 421.042 47.8145 420.706 48.2051C420.374 48.5957 419.952 48.8965 419.441 49.1074C418.929 49.3145 418.323 49.418 417.624 49.418C416.925 49.418 416.32 49.3145 415.808 49.1074C415.296 48.8965 414.872 48.5957 414.536 48.2051C414.204 47.8145 413.956 47.3477 413.792 46.8047C413.628 46.2617 413.546 45.6582 413.546 44.9941C413.546 44.1074 413.691 43.3359 413.98 42.6797C414.273 42.0195 414.722 41.5078 415.327 41.1445C415.933 40.7812 416.702 40.5996 417.636 40.5996C418.566 40.5996 419.329 40.7812 419.927 41.1445C420.529 41.5078 420.974 42.0195 421.263 42.6797C421.556 43.3398 421.702 44.1152 421.702 45.0059ZM415.45 45.0059C415.45 45.6035 415.525 46.1191 415.673 46.5527C415.825 46.9824 416.062 47.3145 416.382 47.5488C416.702 47.7793 417.116 47.8945 417.624 47.8945C418.14 47.8945 418.558 47.7793 418.878 47.5488C419.198 47.3145 419.431 46.9824 419.575 46.5527C419.724 46.1191 419.798 45.6035 419.798 45.0059C419.798 44.1074 419.63 43.4004 419.294 42.8848C418.958 42.3691 418.405 42.1113 417.636 42.1113C417.124 42.1113 416.706 42.2285 416.382 42.4629C416.062 42.6934 415.825 43.0254 415.673 43.459C415.525 43.8887 415.45 44.4043 415.45 45.0059ZM431.877 49.3008H429.569L425.842 42.8203H425.789C425.805 43.0898 425.819 43.3613 425.83 43.6348C425.842 43.9082 425.854 44.1816 425.866 44.4551C425.877 44.7246 425.889 44.9961 425.901 45.2695V49.3008H424.278V40.7344H426.569L430.289 47.1504H430.33C430.323 46.8848 430.313 46.6211 430.301 46.3594C430.289 46.0977 430.278 45.8359 430.266 45.5742C430.258 45.3125 430.25 45.0508 430.243 44.7891V40.7344H431.877V49.3008ZM441.947 44.9355C441.947 45.9004 441.761 46.707 441.39 47.3555C441.023 48 440.49 48.4863 439.791 48.8145C439.091 49.1387 438.25 49.3008 437.265 49.3008H434.839V40.7344H437.529C438.427 40.7344 439.207 40.8945 439.867 41.2148C440.527 41.5312 441.039 42.002 441.402 42.627C441.765 43.248 441.947 44.0176 441.947 44.9355ZM440.06 44.9824C440.06 44.3496 439.966 43.8301 439.779 43.4238C439.595 43.0137 439.322 42.7109 438.959 42.5156C438.599 42.3203 438.154 42.2227 437.623 42.2227H436.656V47.8008H437.435C438.322 47.8008 438.98 47.5645 439.41 47.0918C439.843 46.6191 440.06 45.916 440.06 44.9824ZM449.766 49.3008L449.145 47.2617H446.022L445.401 49.3008H443.444L446.468 40.6992H448.688L451.723 49.3008H449.766ZM448.712 45.7383L448.091 43.7461C448.052 43.6133 447.999 43.4434 447.932 43.2363C447.87 43.0254 447.805 42.8125 447.739 42.5977C447.677 42.3789 447.626 42.1895 447.587 42.0293C447.548 42.1895 447.493 42.3887 447.423 42.627C447.356 42.8613 447.292 43.084 447.229 43.2949C447.167 43.5059 447.122 43.6562 447.095 43.7461L446.479 45.7383H448.712ZM456.104 40.7344C456.881 40.7344 457.521 40.8281 458.025 41.0156C458.533 41.2031 458.91 41.4863 459.156 41.8652C459.402 42.2441 459.525 42.7227 459.525 43.3008C459.525 43.6914 459.451 44.0332 459.303 44.3262C459.154 44.6191 458.959 44.8672 458.717 45.0703C458.475 45.2734 458.213 45.4395 457.932 45.5684L460.451 49.3008H458.436L456.391 46.0137H455.424V49.3008H453.607V40.7344H456.104ZM455.975 42.2227H455.424V44.5371H456.01C456.611 44.5371 457.041 44.4375 457.299 44.2383C457.561 44.0352 457.691 43.7383 457.691 43.3477C457.691 42.9414 457.551 42.6523 457.27 42.4805C456.992 42.3086 456.561 42.2227 455.975 42.2227ZM464.995 44.2617L466.782 40.7344H468.739L465.898 45.9668V49.3008H464.093V46.0254L461.251 40.7344H463.22L464.995 44.2617Z" fill="white"/>
<path fill-rule="evenodd" clip-rule="evenodd" d="M479.724 41.8741C479.431 41.5812 479.431 41.1063 479.724 40.8134C480.016 40.5205 480.491 40.5205 480.784 40.8134L484.06 44.089C484.206 44.2354 484.279 44.4274 484.279 44.6193C484.279 44.8113 484.206 45.0032 484.06 45.1497L480.784 48.4252C480.491 48.7181 480.016 48.7181 479.724 48.4252C479.431 48.1323 479.431 47.6575 479.724 47.3646L482.469 44.6193L479.724 41.8741Z" fill="white"/>
<path d="M9.17334 4.18848C8.3016 4.18848 7.61605 4.4974 7.1167 5.11523C6.61735 5.73307 6.36768 6.58577 6.36768 7.67334C6.36768 8.81169 6.60677 9.67285 7.08496 10.2568C7.56738 10.8408 8.26351 11.1328 9.17334 11.1328C9.56689 11.1328 9.94775 11.0947 10.3159 11.0186C10.6841 10.9382 11.0671 10.8366 11.4648 10.7139V12.0151C10.737 12.2902 9.91178 12.4277 8.98926 12.4277C7.63086 12.4277 6.58773 12.0173 5.85986 11.1963C5.132 10.3711 4.76807 9.19255 4.76807 7.66064C4.76807 6.6958 4.94368 5.85156 5.29492 5.12793C5.65039 4.4043 6.16243 3.84993 6.83105 3.46484C7.49967 3.07975 8.28467 2.88721 9.18604 2.88721C10.134 2.88721 11.0099 3.0861 11.814 3.48389L11.2681 4.74707C10.9549 4.59896 10.6227 4.46989 10.2715 4.35986C9.92448 4.24561 9.55843 4.18848 9.17334 4.18848ZM20.2217 12.3008L19.2949 9.72363H15.7466L14.8389 12.3008H13.2393L16.7114 2.98242H18.3618L21.834 12.3008H20.2217ZM18.895 8.41602L18.0254 5.88965C17.9619 5.72038 17.873 5.45378 17.7588 5.08984C17.6488 4.72591 17.5726 4.45931 17.5303 4.29004C17.416 4.81055 17.2489 5.37972 17.0288 5.99756L16.1909 8.41602H18.895ZM24.0591 12.3008V3.02051H25.5762V10.9995H29.5054V12.3008H24.0591ZM32.105 12.3008V3.02051H33.6221V10.9995H37.5513V12.3008H32.105ZM47.7334 12.3008H46.2163V4.32178H43.4868V3.02051H50.4629V4.32178H47.7334V12.3008ZM61.1304 7.64795C61.1304 9.15869 60.7516 10.333 59.9941 11.1709C59.2409 12.0088 58.1724 12.4277 56.7886 12.4277C55.3879 12.4277 54.3109 12.013 53.5576 11.1836C52.8086 10.3499 52.4341 9.16715 52.4341 7.63525C52.4341 6.10335 52.8107 4.92692 53.564 4.10596C54.3215 3.28499 55.4006 2.87451 56.8013 2.87451C58.1808 2.87451 59.2472 3.29134 60.0005 4.125C60.7537 4.95866 61.1304 6.13298 61.1304 7.64795ZM54.0464 7.64795C54.0464 8.79053 54.277 9.65804 54.7383 10.2505C55.1995 10.8387 55.883 11.1328 56.7886 11.1328C57.6899 11.1328 58.3691 10.8408 58.8262 10.2568C59.2874 9.67285 59.5181 8.80322 59.5181 7.64795C59.5181 6.5096 59.2896 5.64632 58.8325 5.05811C58.3797 4.46989 57.7026 4.17578 56.8013 4.17578C55.8914 4.17578 55.2038 4.46989 54.7383 5.05811C54.277 5.64632 54.0464 6.5096 54.0464 7.64795ZM74.2578 12.3008L73.3311 9.72363H69.7827L68.875 12.3008H67.2754L70.7476 2.98242H72.3979L75.8701 12.3008H74.2578ZM72.9312 8.41602L72.0615 5.88965C71.998 5.72038 71.9092 5.45378 71.7949 5.08984C71.6849 4.72591 71.6087 4.45931 71.5664 4.29004C71.4521 4.81055 71.285 5.37972 71.0649 5.99756L70.2271 8.41602H72.9312ZM82.0435 4.18848C81.1717 4.18848 80.4862 4.4974 79.9868 5.11523C79.4875 5.73307 79.2378 6.58577 79.2378 7.67334C79.2378 8.81169 79.4769 9.67285 79.9551 10.2568C80.4375 10.8408 81.1336 11.1328 82.0435 11.1328C82.437 11.1328 82.8179 11.0947 83.186 11.0186C83.5542 10.9382 83.9372 10.8366 84.335 10.7139V12.0151C83.6071 12.2902 82.7819 12.4277 81.8594 12.4277C80.501 12.4277 79.4578 12.0173 78.73 11.1963C78.0021 10.3711 77.6382 9.19255 77.6382 7.66064C77.6382 6.6958 77.8138 5.85156 78.165 5.12793C78.5205 4.4043 79.0326 3.84993 79.7012 3.46484C80.3698 3.07975 81.1548 2.88721 82.0562 2.88721C83.0041 2.88721 83.88 3.0861 84.6841 3.48389L84.1382 4.74707C83.825 4.59896 83.4928 4.46989 83.1416 4.35986C82.7946 4.24561 82.4285 4.18848 82.0435 4.18848ZM90.54 12.3008H89.0229V4.32178H86.2935V3.02051H93.2695V4.32178H90.54V12.3008ZM95.6978 12.3008V3.02051H97.2148V12.3008H95.6978ZM108.911 7.64795C108.911 9.15869 108.532 10.333 107.774 11.1709C107.021 12.0088 105.953 12.4277 104.569 12.4277C103.168 12.4277 102.091 12.013 101.338 11.1836C100.589 10.3499 100.214 9.16715 100.214 7.63525C100.214 6.10335 100.591 4.92692 101.344 4.10596C102.102 3.28499 103.181 2.87451 104.582 2.87451C105.961 2.87451 107.028 3.29134 107.781 4.125C108.534 4.95866 108.911 6.13298 108.911 7.64795ZM101.827 7.64795C101.827 8.79053 102.057 9.65804 102.519 10.2505C102.98 10.8387 103.663 11.1328 104.569 11.1328C105.47 11.1328 106.149 10.8408 106.606 10.2568C107.068 9.67285 107.298 8.80322 107.298 7.64795C107.298 6.5096 107.07 5.64632 106.613 5.05811C106.16 4.46989 105.483 4.17578 104.582 4.17578C103.672 4.17578 102.984 4.46989 102.519 5.05811C102.057 5.64632 101.827 6.5096 101.827 7.64795ZM119.635 12.3008H117.775L113.211 4.90576H113.161L113.192 5.31836C113.252 6.10547 113.281 6.82487 113.281 7.47656V12.3008H111.904V3.02051H113.745L118.296 10.3774H118.334C118.326 10.2801 118.309 9.92676 118.283 9.31738C118.258 8.70378 118.245 8.22559 118.245 7.88281V3.02051H119.635V12.3008ZM127.462 3.02051H130.217C131.495 3.02051 132.418 3.20671 132.985 3.5791C133.556 3.9515 133.842 4.53971 133.842 5.34375C133.842 5.88542 133.702 6.3361 133.423 6.6958C133.144 7.0555 132.742 7.2819 132.217 7.375V7.43848C132.868 7.5612 133.347 7.80452 133.651 8.16846C133.96 8.52816 134.115 9.01693 134.115 9.63477C134.115 10.4684 133.823 11.1222 133.239 11.5962C132.659 12.0659 131.851 12.3008 130.814 12.3008H127.462V3.02051ZM128.979 6.85449H130.439C131.074 6.85449 131.538 6.75505 131.83 6.55615C132.122 6.35303 132.268 6.01025 132.268 5.52783C132.268 5.09196 132.109 4.77669 131.792 4.58203C131.478 4.38737 130.979 4.29004 130.293 4.29004H128.979V6.85449ZM128.979 8.08594V11.0249H130.592C131.227 11.0249 131.705 10.9043 132.026 10.6631C132.352 10.4176 132.515 10.0326 132.515 9.50781C132.515 9.02539 132.35 8.66781 132.02 8.43506C131.69 8.20231 131.188 8.08594 130.516 8.08594H128.979ZM144.319 3.02051V9.02539C144.319 9.71094 144.171 10.3118 143.875 10.8281C143.583 11.3402 143.157 11.7358 142.599 12.0151C142.044 12.2902 141.38 12.4277 140.605 12.4277C139.454 12.4277 138.559 12.123 137.92 11.5137C137.281 10.9043 136.962 10.0664 136.962 9V3.02051H138.485V8.89209C138.485 9.65804 138.663 10.223 139.019 10.5869C139.374 10.9508 139.92 11.1328 140.656 11.1328C142.087 11.1328 142.802 10.3817 142.802 8.87939V3.02051H144.319ZM150.898 12.3008H149.381V4.32178H146.652V3.02051H153.628V4.32178H150.898V12.3008ZM159.262 12.3008H157.745V4.32178H155.015V3.02051H161.991V4.32178H159.262V12.3008ZM172.659 7.64795C172.659 9.15869 172.28 10.333 171.522 11.1709C170.769 12.0088 169.701 12.4277 168.317 12.4277C166.916 12.4277 165.839 12.013 165.086 11.1836C164.337 10.3499 163.962 9.16715 163.962 7.63525C163.962 6.10335 164.339 4.92692 165.092 4.10596C165.85 3.28499 166.929 2.87451 168.33 2.87451C169.709 2.87451 170.776 3.29134 171.529 4.125C172.282 4.95866 172.659 6.13298 172.659 7.64795ZM165.575 7.64795C165.575 8.79053 165.805 9.65804 166.267 10.2505C166.728 10.8387 167.411 11.1328 168.317 11.1328C169.218 11.1328 169.897 10.8408 170.354 10.2568C170.816 9.67285 171.046 8.80322 171.046 7.64795C171.046 6.5096 170.818 5.64632 170.361 5.05811C169.908 4.46989 169.231 4.17578 168.33 4.17578C167.42 4.17578 166.732 4.46989 166.267 5.05811C165.805 5.64632 165.575 6.5096 165.575 7.64795ZM183.383 12.3008H181.523L176.959 4.90576H176.909L176.94 5.31836C177 6.10547 177.029 6.82487 177.029 7.47656V12.3008H175.652V3.02051H177.493L182.044 10.3774H182.082C182.074 10.2801 182.057 9.92676 182.031 9.31738C182.006 8.70378 181.993 8.22559 181.993 7.88281V3.02051H183.383V12.3008ZM192.185 9.78076C192.185 10.606 191.886 11.2534 191.29 11.7231C190.693 12.1929 189.87 12.4277 188.82 12.4277C187.771 12.4277 186.912 12.2648 186.243 11.939V10.5044C186.666 10.7033 187.115 10.8599 187.589 10.9741C188.067 11.0884 188.511 11.1455 188.922 11.1455C189.523 11.1455 189.965 11.0312 190.249 10.8027C190.536 10.5742 190.68 10.2674 190.68 9.88232C190.68 9.53532 190.549 9.24121 190.287 9C190.024 8.75879 189.483 8.47314 188.662 8.14307C187.815 7.80029 187.219 7.40885 186.872 6.96875C186.525 6.52865 186.351 5.99967 186.351 5.38184C186.351 4.60742 186.626 3.99805 187.176 3.55371C187.726 3.10938 188.465 2.88721 189.392 2.88721C190.28 2.88721 191.165 3.08187 192.045 3.47119L191.562 4.70898C190.737 4.36198 190.001 4.18848 189.354 4.18848C188.863 4.18848 188.49 4.29639 188.236 4.51221C187.982 4.7238 187.855 5.00521 187.855 5.35645C187.855 5.59766 187.906 5.80501 188.008 5.97852C188.109 6.14779 188.277 6.30859 188.509 6.46094C188.742 6.61328 189.161 6.81429 189.766 7.06396C190.447 7.34749 190.947 7.61198 191.264 7.85742C191.582 8.10286 191.814 8.38005 191.962 8.68896C192.111 8.99788 192.185 9.36182 192.185 9.78076Z" fill="#A4A8B9"/>
<defs>
<linearGradient id="paint0_linear_3543_2401" x1="-0.141429" y1="44.3091" x2="132.144" y2="44.3091" gradientUnits="userSpaceOnUse">
<stop stop-color="#00B7F1"/>
<stop offset="1" stop-color="#007AFF"/>
</linearGradient>
<linearGradient id="paint1_linear_3543_2401" x1="324" y1="44.3008" x2="171" y2="44.3008" gradientUnits="userSpaceOnUse">
<stop stop-color="#473CB3"/>
<stop offset="0.0001" stop-color="#6152FF"/>
<stop offset="1" stop-color="#B352FF"/>
</linearGradient>
<linearGradient id="paint2_linear_3543_2401" x1="495" y1="56.3009" x2="479.197" y2="99.1528" gradientUnits="userSpaceOnUse">
<stop stop-color="#FF7B21"/>
<stop offset="1" stop-color="#FFB627"/>
</linearGradient>
</defs>
</svg>
