<svg width="485" height="245" viewBox="0 0 485 245" fill="none" xmlns="http://www.w3.org/2000/svg">
<path d="M6.98242 36.3008L6.05566 33.7236H2.50732L1.59961 36.3008H0L3.47217 26.9824H5.12256L8.59473 36.3008H6.98242ZM5.65576 32.416L4.78613 29.8896C4.72266 29.7204 4.63379 29.4538 4.51953 29.0898C4.40951 28.7259 4.33333 28.4593 4.29102 28.29C4.17676 28.8105 4.0096 29.3797 3.78955 29.9976L2.95166 32.416H5.65576ZM14.7681 28.1885C13.8963 28.1885 13.2108 28.4974 12.7114 29.1152C12.2121 29.7331 11.9624 30.5858 11.9624 31.6733C11.9624 32.8117 12.2015 33.6729 12.6797 34.2568C13.1621 34.8408 13.8582 35.1328 14.7681 35.1328C15.1616 35.1328 15.5425 35.0947 15.9106 35.0186C16.2788 34.9382 16.6618 34.8366 17.0596 34.7139V36.0151C16.3317 36.2902 15.5065 36.4277 14.584 36.4277C13.2256 36.4277 12.1825 36.0173 11.4546 35.1963C10.7267 34.3711 10.3628 33.1925 10.3628 31.6606C10.3628 30.6958 10.5384 29.8516 10.8896 29.1279C11.2451 28.4043 11.7572 27.8499 12.4258 27.4648C13.0944 27.0798 13.8794 26.8872 14.7808 26.8872C15.7287 26.8872 16.6047 27.0861 17.4087 27.4839L16.8628 28.7471C16.5496 28.599 16.2174 28.4699 15.8662 28.3599C15.5192 28.2456 15.1532 28.1885 14.7681 28.1885ZM23.2646 36.3008H21.7476V28.3218H19.0181V27.0205H25.9941V28.3218H23.2646V36.3008ZM28.4224 36.3008V27.0205H29.9395V36.3008H28.4224ZM38.6836 27.0205H40.2578L37.0078 36.3008H35.4082L32.1709 27.0205H33.7324L35.6685 32.7905C35.77 33.0656 35.8779 33.4211 35.9922 33.8569C36.1064 34.2886 36.1805 34.6102 36.2144 34.8218C36.2694 34.5002 36.354 34.1278 36.4683 33.7046C36.5825 33.2814 36.6756 32.9683 36.7476 32.7651L38.6836 27.0205ZM47.7324 36.3008H42.4829V27.0205H47.7324V28.3027H44V30.8291H47.4976V32.0986H44V35.0122H47.7324V36.3008Z" fill="#A4A8B9"/>
<path d="M6.57617 9.78076C6.57617 10.606 6.27783 11.2534 5.68115 11.7231C5.08447 12.1929 4.26139 12.4277 3.21191 12.4277C2.16243 12.4277 1.30339 12.2648 0.634766 11.939V10.5044C1.05794 10.7033 1.50651 10.8599 1.98047 10.9741C2.45866 11.0884 2.90299 11.1455 3.31348 11.1455C3.91439 11.1455 4.35661 11.0312 4.64014 10.8027C4.9279 10.5742 5.07178 10.2674 5.07178 9.88232C5.07178 9.53532 4.94059 9.24121 4.67822 9C4.41585 8.75879 3.87419 8.47314 3.05322 8.14307C2.20687 7.80029 1.61019 7.40885 1.26318 6.96875C0.916178 6.52865 0.742676 5.99967 0.742676 5.38184C0.742676 4.60742 1.01774 3.99805 1.56787 3.55371C2.118 3.10938 2.85645 2.88721 3.7832 2.88721C4.67188 2.88721 5.55632 3.08187 6.43652 3.47119L5.9541 4.70898C5.12891 4.36198 4.39258 4.18848 3.74512 4.18848C3.25423 4.18848 2.88184 4.29639 2.62793 4.51221C2.37402 4.7238 2.24707 5.00521 2.24707 5.35645C2.24707 5.59766 2.29785 5.80501 2.39941 5.97852C2.50098 6.14779 2.66813 6.30859 2.90088 6.46094C3.13363 6.61328 3.55257 6.81429 4.15771 7.06396C4.83903 7.34749 5.33838 7.61198 5.65576 7.85742C5.97314 8.10286 6.20589 8.38005 6.354 8.68896C6.50212 8.99788 6.57617 9.36182 6.57617 9.78076ZM14.6221 12.3008H9.37256V3.02051H14.6221V4.30273H10.8896V6.8291H14.3872V8.09863H10.8896V11.0122H14.6221V12.3008ZM21.5825 4.18848C20.7108 4.18848 20.0252 4.4974 19.5259 5.11523C19.0265 5.73307 18.7769 6.58577 18.7769 7.67334C18.7769 8.81169 19.016 9.67285 19.4941 10.2568C19.9766 10.8408 20.6727 11.1328 21.5825 11.1328C21.9761 11.1328 22.3569 11.0947 22.7251 11.0186C23.0933 10.9382 23.4762 10.8366 23.874 10.7139V12.0151C23.1462 12.2902 22.321 12.4277 21.3984 12.4277C20.04 12.4277 18.9969 12.0173 18.269 11.1963C17.5412 10.3711 17.1772 9.19255 17.1772 7.66064C17.1772 6.6958 17.3529 5.85156 17.7041 5.12793C18.0596 4.4043 18.5716 3.84993 19.2402 3.46484C19.9089 3.07975 20.6938 2.88721 21.5952 2.88721C22.5431 2.88721 23.4191 3.0861 24.2231 3.48389L23.6772 4.74707C23.3641 4.59896 23.0319 4.46989 22.6807 4.35986C22.3337 4.24561 21.9676 4.18848 21.5825 4.18848ZM35.1128 7.64795C35.1128 9.15869 34.734 10.333 33.9766 11.1709C33.2233 12.0088 32.1548 12.4277 30.771 12.4277C29.3703 12.4277 28.2933 12.013 27.54 11.1836C26.791 10.3499 26.4165 9.16715 26.4165 7.63525C26.4165 6.10335 26.7931 4.92692 27.5464 4.10596C28.3039 3.28499 29.383 2.87451 30.7837 2.87451C32.1632 2.87451 33.2297 3.29134 33.9829 4.125C34.7362 4.95866 35.1128 6.13298 35.1128 7.64795ZM28.0288 7.64795C28.0288 8.79053 28.2594 9.65804 28.7207 10.2505C29.182 10.8387 29.8654 11.1328 30.771 11.1328C31.6724 11.1328 32.3516 10.8408 32.8086 10.2568C33.2699 9.67285 33.5005 8.80322 33.5005 7.64795C33.5005 6.5096 33.272 5.64632 32.8149 5.05811C32.3621 4.46989 31.6851 4.17578 30.7837 4.17578C29.8739 4.17578 29.1862 4.46989 28.7207 5.05811C28.2594 5.64632 28.0288 6.5096 28.0288 7.64795ZM45.8374 12.3008H43.9775L39.4136 4.90576H39.3628L39.3945 5.31836C39.4538 6.10547 39.4834 6.82487 39.4834 7.47656V12.3008H38.106V3.02051H39.9468L44.498 10.3774H44.5361C44.5277 10.2801 44.5107 9.92676 44.4854 9.31738C44.46 8.70378 44.4473 8.22559 44.4473 7.88281V3.02051H45.8374V12.3008ZM56.835 7.57178C56.835 9.10368 56.4097 10.2759 55.5591 11.0884C54.7085 11.8966 53.4834 12.3008 51.8838 12.3008H49.2876V3.02051H52.1567C53.6336 3.02051 54.7826 3.41829 55.6035 4.21387C56.4245 5.00944 56.835 6.12874 56.835 7.57178ZM55.2354 7.62256C55.2354 5.40088 54.1965 4.29004 52.1187 4.29004H50.8047V11.0249H51.8838C54.1182 11.0249 55.2354 9.89079 55.2354 7.62256ZM65.5918 12.3008L64.665 9.72363H61.1167L60.209 12.3008H58.6094L62.0815 2.98242H63.7319L67.2041 12.3008H65.5918ZM64.2651 8.41602L63.3955 5.88965C63.332 5.72038 63.2432 5.45378 63.1289 5.08984C63.0189 4.72591 62.9427 4.45931 62.9004 4.29004C62.7861 4.81055 62.619 5.37972 62.3989 5.99756L61.561 8.41602H64.2651ZM70.9463 7.33691H72C72.7067 7.33691 73.2188 7.20573 73.5361 6.94336C73.8535 6.68099 74.0122 6.29167 74.0122 5.77539C74.0122 5.25065 73.8408 4.87402 73.498 4.64551C73.1553 4.41699 72.639 4.30273 71.9492 4.30273H70.9463V7.33691ZM70.9463 8.59375V12.3008H69.4292V3.02051H72.0508C73.2484 3.02051 74.1349 3.24479 74.7104 3.69336C75.286 4.14193 75.5737 4.81901 75.5737 5.72461C75.5737 6.87988 74.9728 7.70296 73.771 8.19385L76.3926 12.3008H74.666L72.4443 8.59375H70.9463ZM81.3662 7.25439L83.5625 3.02051H85.2129L82.1216 8.70166V12.3008H80.5981V8.75244L77.5195 3.02051H79.1699L81.3662 7.25439ZM91.8149 3.02051H94.5698C95.8478 3.02051 96.7703 3.20671 97.3374 3.5791C97.9087 3.9515 98.1943 4.53971 98.1943 5.34375C98.1943 5.88542 98.0547 6.3361 97.7754 6.6958C97.4961 7.0555 97.0941 7.2819 96.5693 7.375V7.43848C97.221 7.5612 97.6992 7.80452 98.0039 8.16846C98.3128 8.52816 98.4673 9.01693 98.4673 9.63477C98.4673 10.4684 98.1753 11.1222 97.5913 11.5962C97.0116 12.0659 96.2033 12.3008 95.1665 12.3008H91.8149V3.02051ZM93.332 6.85449H94.792C95.4268 6.85449 95.8901 6.75505 96.1821 6.55615C96.4741 6.35303 96.6201 6.01025 96.6201 5.52783C96.6201 5.09196 96.4614 4.77669 96.144 4.58203C95.8309 4.38737 95.3315 4.29004 94.646 4.29004H93.332V6.85449ZM93.332 8.08594V11.0249H94.9443C95.5791 11.0249 96.0573 10.9043 96.3789 10.6631C96.7048 10.4176 96.8677 10.0326 96.8677 9.50781C96.8677 9.02539 96.7026 8.66781 96.3726 8.43506C96.0425 8.20231 95.541 8.08594 94.8682 8.08594H93.332ZM108.671 3.02051V9.02539C108.671 9.71094 108.523 10.3118 108.227 10.8281C107.935 11.3402 107.51 11.7358 106.951 12.0151C106.397 12.2902 105.732 12.4277 104.958 12.4277C103.807 12.4277 102.912 12.123 102.273 11.5137C101.634 10.9043 101.314 10.0664 101.314 9V3.02051H102.838V8.89209C102.838 9.65804 103.016 10.223 103.371 10.5869C103.727 10.9508 104.272 11.1328 105.009 11.1328C106.439 11.1328 107.154 10.3817 107.154 8.87939V3.02051H108.671ZM115.251 12.3008H113.734V4.32178H111.004V3.02051H117.98V4.32178H115.251V12.3008ZM123.614 12.3008H122.097V4.32178H119.368V3.02051H126.344V4.32178H123.614V12.3008ZM137.011 7.64795C137.011 9.15869 136.632 10.333 135.875 11.1709C135.122 12.0088 134.053 12.4277 132.669 12.4277C131.269 12.4277 130.192 12.013 129.438 11.1836C128.689 10.3499 128.315 9.16715 128.315 7.63525C128.315 6.10335 128.692 4.92692 129.445 4.10596C130.202 3.28499 131.281 2.87451 132.682 2.87451C134.062 2.87451 135.128 3.29134 135.881 4.125C136.635 4.95866 137.011 6.13298 137.011 7.64795ZM129.927 7.64795C129.927 8.79053 130.158 9.65804 130.619 10.2505C131.08 10.8387 131.764 11.1328 132.669 11.1328C133.571 11.1328 134.25 10.8408 134.707 10.2568C135.168 9.67285 135.399 8.80322 135.399 7.64795C135.399 6.5096 135.17 5.64632 134.713 5.05811C134.261 4.46989 133.583 4.17578 132.682 4.17578C131.772 4.17578 131.085 4.46989 130.619 5.05811C130.158 5.64632 129.927 6.5096 129.927 7.64795ZM147.736 12.3008H145.876L141.312 4.90576H141.261L141.293 5.31836C141.352 6.10547 141.382 6.82487 141.382 7.47656V12.3008H140.004V3.02051H141.845L146.396 10.3774H146.435C146.426 10.2801 146.409 9.92676 146.384 9.31738C146.358 8.70378 146.346 8.22559 146.346 7.88281V3.02051H147.736V12.3008ZM156.537 9.78076C156.537 10.606 156.239 11.2534 155.642 11.7231C155.045 12.1929 154.222 12.4277 153.173 12.4277C152.123 12.4277 151.264 12.2648 150.596 11.939V10.5044C151.019 10.7033 151.467 10.8599 151.941 10.9741C152.42 11.0884 152.864 11.1455 153.274 11.1455C153.875 11.1455 154.318 11.0312 154.601 10.8027C154.889 10.5742 155.033 10.2674 155.033 9.88232C155.033 9.53532 154.902 9.24121 154.639 9C154.377 8.75879 153.835 8.47314 153.014 8.14307C152.168 7.80029 151.571 7.40885 151.224 6.96875C150.877 6.52865 150.704 5.99967 150.704 5.38184C150.704 4.60742 150.979 3.99805 151.529 3.55371C152.079 3.10938 152.817 2.88721 153.744 2.88721C154.633 2.88721 155.517 3.08187 156.397 3.47119L155.915 4.70898C155.09 4.36198 154.354 4.18848 153.706 4.18848C153.215 4.18848 152.843 4.29639 152.589 4.51221C152.335 4.7238 152.208 5.00521 152.208 5.35645C152.208 5.59766 152.259 5.80501 152.36 5.97852C152.462 6.14779 152.629 6.30859 152.862 6.46094C153.095 6.61328 153.514 6.81429 154.119 7.06396C154.8 7.34749 155.299 7.61198 155.617 7.85742C155.934 8.10286 156.167 8.38005 156.315 8.68896C156.463 8.99788 156.537 9.36182 156.537 9.78076Z" fill="#A4A8B9"/>
<path d="M8.54395 116.301H7.02051V112.118H2.74219V116.301H1.2251V107.021H2.74219V110.816H7.02051V107.021H8.54395V116.301ZM20.2271 111.648C20.2271 113.159 19.8483 114.333 19.0908 115.171C18.3376 116.009 17.269 116.428 15.8853 116.428C14.4845 116.428 13.4076 116.013 12.6543 115.184C11.9053 114.35 11.5308 113.167 11.5308 111.635C11.5308 110.103 11.9074 108.927 12.6606 108.106C13.4181 107.285 14.4972 106.875 15.8979 106.875C17.2775 106.875 18.3439 107.291 19.0972 108.125C19.8504 108.959 20.2271 110.133 20.2271 111.648ZM13.1431 111.648C13.1431 112.791 13.3737 113.658 13.835 114.25C14.2962 114.839 14.9797 115.133 15.8853 115.133C16.7866 115.133 17.4658 114.841 17.9229 114.257C18.3841 113.673 18.6147 112.803 18.6147 111.648C18.6147 110.51 18.3862 109.646 17.9292 109.058C17.4764 108.47 16.7993 108.176 15.8979 108.176C14.9881 108.176 14.3005 108.47 13.835 109.058C13.3737 109.646 13.1431 110.51 13.1431 111.648ZM28.5078 107.021H30.082L26.832 116.301H25.2324L21.9951 107.021H23.5566L25.4927 112.791C25.5942 113.066 25.7021 113.421 25.8164 113.857C25.9307 114.289 26.0047 114.61 26.0386 114.822C26.0936 114.5 26.1782 114.128 26.2925 113.705C26.4067 113.281 26.4998 112.968 26.5718 112.765L28.5078 107.021ZM37.5566 116.301H32.3071V107.021H37.5566V108.303H33.8242V110.829H37.3218V112.099H33.8242V115.012H37.5566V116.301ZM42.0859 111.337H43.1396C43.8464 111.337 44.3584 111.206 44.6758 110.943C44.9932 110.681 45.1519 110.292 45.1519 109.775C45.1519 109.251 44.9805 108.874 44.6377 108.646C44.2949 108.417 43.7786 108.303 43.0889 108.303H42.0859V111.337ZM42.0859 112.594V116.301H40.5688V107.021H43.1904C44.388 107.021 45.2746 107.245 45.8501 107.693C46.4256 108.142 46.7134 108.819 46.7134 109.725C46.7134 110.88 46.1125 111.703 44.9106 112.194L47.5322 116.301H45.8057L43.584 112.594H42.0859Z" fill="#A4A8B9"/>
<path d="M8.77246 191.572C8.77246 193.104 8.34717 194.276 7.49658 195.088C6.646 195.897 5.4209 196.301 3.82129 196.301H1.2251V187.021H4.09424C5.57113 187.021 6.72005 187.418 7.54102 188.214C8.36198 189.009 8.77246 190.129 8.77246 191.572ZM7.17285 191.623C7.17285 189.401 6.13395 188.29 4.05615 188.29H2.74219V195.025H3.82129C6.05566 195.025 7.17285 193.891 7.17285 191.623ZM11.772 196.301V187.021H13.2891V196.301H11.772ZM22.0967 193.781C22.0967 194.606 21.7983 195.253 21.2017 195.723C20.605 196.193 19.7819 196.428 18.7324 196.428C17.6829 196.428 16.8239 196.265 16.1553 195.939V194.504C16.5785 194.703 17.027 194.86 17.501 194.974C17.9792 195.088 18.4235 195.146 18.834 195.146C19.4349 195.146 19.8771 195.031 20.1606 194.803C20.4484 194.574 20.5923 194.267 20.5923 193.882C20.5923 193.535 20.4611 193.241 20.1987 193C19.9364 192.759 19.3947 192.473 18.5737 192.143C17.7274 191.8 17.1307 191.409 16.7837 190.969C16.4367 190.529 16.2632 190 16.2632 189.382C16.2632 188.607 16.5382 187.998 17.0884 187.554C17.6385 187.109 18.377 186.887 19.3037 186.887C20.1924 186.887 21.0768 187.082 21.957 187.471L21.4746 188.709C20.6494 188.362 19.9131 188.188 19.2656 188.188C18.7747 188.188 18.4023 188.296 18.1484 188.512C17.8945 188.724 17.7676 189.005 17.7676 189.356C17.7676 189.598 17.8184 189.805 17.9199 189.979C18.0215 190.148 18.1886 190.309 18.4214 190.461C18.6541 190.613 19.0731 190.814 19.6782 191.064C20.3595 191.347 20.8589 191.612 21.1763 191.857C21.4937 192.103 21.7264 192.38 21.8745 192.689C22.0226 192.998 22.0967 193.362 22.0967 193.781ZM30.6504 196.301L29.7236 193.724H26.1753L25.2676 196.301H23.668L27.1401 186.982H28.7905L32.2627 196.301H30.6504ZM29.3237 192.416L28.4541 189.89C28.3906 189.72 28.3018 189.454 28.1875 189.09C28.0775 188.726 28.0013 188.459 27.959 188.29C27.8447 188.811 27.6776 189.38 27.4575 189.998L26.6196 192.416H29.3237ZM34.4878 187.021H37.2427C38.5207 187.021 39.4432 187.207 40.0103 187.579C40.5815 187.951 40.8672 188.54 40.8672 189.344C40.8672 189.885 40.7275 190.336 40.4482 190.696C40.1689 191.056 39.7669 191.282 39.2422 191.375V191.438C39.8939 191.561 40.3721 191.805 40.6768 192.168C40.9857 192.528 41.1401 193.017 41.1401 193.635C41.1401 194.468 40.8481 195.122 40.2642 195.596C39.6844 196.066 38.8761 196.301 37.8394 196.301H34.4878V187.021ZM36.0049 190.854H37.4648C38.0996 190.854 38.563 190.755 38.855 190.556C39.147 190.353 39.293 190.01 39.293 189.528C39.293 189.092 39.1343 188.777 38.8169 188.582C38.5037 188.387 38.0044 188.29 37.3188 188.29H36.0049V190.854ZM36.0049 192.086V195.025H37.6172C38.252 195.025 38.7301 194.904 39.0518 194.663C39.3776 194.418 39.5405 194.033 39.5405 193.508C39.5405 193.025 39.3755 192.668 39.0454 192.435C38.7153 192.202 38.2139 192.086 37.541 192.086H36.0049ZM44.0698 196.301V187.021H45.5869V195H49.5161V196.301H44.0698ZM57.3652 196.301H52.1157V187.021H57.3652V188.303H53.6328V190.829H57.1304V192.099H53.6328V195.012H57.3652V196.301ZM67.9248 191.572C67.9248 193.104 67.4995 194.276 66.6489 195.088C65.7983 195.897 64.5732 196.301 62.9736 196.301H60.3774V187.021H63.2466C64.7235 187.021 65.8724 187.418 66.6934 188.214C67.5143 189.009 67.9248 190.129 67.9248 191.572ZM66.3252 191.623C66.3252 189.401 65.2863 188.29 63.2085 188.29H61.8945V195.025H62.9736C65.208 195.025 66.3252 193.891 66.3252 191.623Z" fill="#A4A8B9"/>
<rect x="1" y="51.3008" width="126" height="30" rx="3" stroke="url(#paint0_linear_3543_2400)" stroke-width="2"/>
<path d="M49.6377 70.0156L48.9131 67.6367H45.2695L44.5449 70.0156H42.2617L45.7891 59.9805H48.3799L51.9209 70.0156H49.6377ZM48.4072 65.8594L47.6826 63.5352C47.637 63.3802 47.5755 63.182 47.498 62.9404C47.4251 62.6943 47.3499 62.446 47.2725 62.1953C47.1995 61.9401 47.1403 61.7191 47.0947 61.5322C47.0492 61.7191 46.9854 61.9515 46.9033 62.2295C46.8258 62.5029 46.7507 62.7627 46.6777 63.0088C46.6048 63.2549 46.5524 63.4303 46.5205 63.5352L45.8027 65.8594H48.4072ZM56.125 70.1523C55.3685 70.1523 54.7236 70.0156 54.1904 69.7422C53.6572 69.4642 53.2516 69.0358 52.9736 68.457C52.6956 67.8783 52.5566 67.1377 52.5566 66.2354C52.5566 65.3011 52.7139 64.54 53.0283 63.9521C53.3473 63.3597 53.7871 62.9245 54.3477 62.6465C54.9128 62.3685 55.5667 62.2295 56.3096 62.2295C56.8382 62.2295 57.2939 62.2819 57.6768 62.3867C58.0641 62.487 58.4014 62.6077 58.6885 62.749L58.0732 64.3623C57.7451 64.2301 57.4398 64.123 57.1572 64.041C56.8747 63.9544 56.5921 63.9111 56.3096 63.9111C55.945 63.9111 55.6419 63.9977 55.4004 64.1709C55.1589 64.3395 54.9788 64.5947 54.8604 64.9365C54.7419 65.2783 54.6826 65.7067 54.6826 66.2217C54.6826 66.7275 54.7464 67.1468 54.874 67.4795C55.0016 67.8122 55.1862 68.0605 55.4277 68.2246C55.6693 68.3841 55.9632 68.4639 56.3096 68.4639C56.7425 68.4639 57.1276 68.4069 57.4648 68.293C57.8021 68.1745 58.1302 68.0104 58.4492 67.8008V69.585C58.1302 69.7855 57.7952 69.929 57.4443 70.0156C57.098 70.1068 56.6582 70.1523 56.125 70.1523ZM63.4463 68.4912C63.6742 68.4912 63.8952 68.4684 64.1094 68.4229C64.3281 68.3773 64.5446 68.3203 64.7588 68.252V69.8037C64.5355 69.904 64.2575 69.986 63.9248 70.0498C63.5967 70.1182 63.2367 70.1523 62.8447 70.1523C62.389 70.1523 61.9788 70.0794 61.6143 69.9336C61.2542 69.7832 60.9694 69.5257 60.7598 69.1611C60.5547 68.792 60.4521 68.2793 60.4521 67.623V63.9385H59.4541V63.0566L60.6025 62.3594L61.2041 60.7461H62.5371V62.373H64.6768V63.9385H62.5371V67.623C62.5371 67.9147 62.6191 68.1335 62.7832 68.2793C62.9518 68.4206 63.1729 68.4912 63.4463 68.4912ZM68.3955 62.373V70.0156H66.3105V62.373H68.3955ZM67.3564 59.3789C67.6663 59.3789 67.9329 59.4518 68.1562 59.5977C68.3796 59.7389 68.4912 60.0055 68.4912 60.3975C68.4912 60.7848 68.3796 61.0537 68.1562 61.2041C67.9329 61.3499 67.6663 61.4229 67.3564 61.4229C67.042 61.4229 66.7731 61.3499 66.5498 61.2041C66.3311 61.0537 66.2217 60.7848 66.2217 60.3975C66.2217 60.0055 66.3311 59.7389 66.5498 59.5977C66.7731 59.4518 67.042 59.3789 67.3564 59.3789ZM72.4082 70.0156L69.4961 62.373H71.6768L73.1533 66.7275C73.2354 66.9827 73.2992 67.2516 73.3447 67.5342C73.3949 67.8167 73.429 68.0697 73.4473 68.293H73.502C73.5156 68.0514 73.5475 67.7939 73.5977 67.5205C73.6523 67.2471 73.723 66.9827 73.8096 66.7275L75.2793 62.373H77.46L74.5479 70.0156H72.4082ZM81.7119 62.2295C82.4183 62.2295 83.0267 62.3662 83.5371 62.6396C84.0475 62.9085 84.4417 63.3005 84.7197 63.8154C84.9977 64.3304 85.1367 64.9593 85.1367 65.7021V66.7139H80.208C80.2308 67.3018 80.4062 67.7643 80.7344 68.1016C81.0671 68.4342 81.5273 68.6006 82.1152 68.6006C82.6029 68.6006 83.0495 68.5505 83.4551 68.4502C83.8607 68.3499 84.2777 68.1995 84.7061 67.999V69.6123C84.3278 69.7992 83.9313 69.9359 83.5166 70.0225C83.1064 70.109 82.6074 70.1523 82.0195 70.1523C81.2539 70.1523 80.5749 70.0111 79.9824 69.7285C79.3945 69.446 78.932 69.0153 78.5947 68.4365C78.262 67.8577 78.0957 67.1286 78.0957 66.249C78.0957 65.3558 78.2461 64.613 78.5469 64.0205C78.8522 63.4235 79.276 62.9769 79.8184 62.6807C80.3607 62.3799 80.9919 62.2295 81.7119 62.2295ZM81.7256 63.7129C81.32 63.7129 80.9827 63.8428 80.7139 64.1025C80.4495 64.3623 80.2969 64.7702 80.2559 65.3262H83.1816C83.1771 65.0163 83.1201 64.7406 83.0107 64.499C82.9059 64.2575 82.7464 64.0661 82.5322 63.9248C82.3226 63.7835 82.0537 63.7129 81.7256 63.7129Z" fill="white"/>
<path opacity="0.6" d="M45.4551 226.923C45.4551 228.049 45.25 228.99 44.8398 229.746C44.4297 230.498 43.835 231.065 43.0557 231.448C42.2809 231.826 41.3398 232.016 40.2324 232.016H37.5186V222.021H40.5332C41.5495 222.021 42.4245 222.208 43.1582 222.582C43.8919 222.951 44.457 223.5 44.8535 224.229C45.2546 224.954 45.4551 225.852 45.4551 226.923ZM44.2314 226.964C44.2314 226.066 44.0811 225.326 43.7803 224.742C43.484 224.159 43.0465 223.726 42.4678 223.443C41.8936 223.156 41.1895 223.013 40.3555 223.013H38.6807V231.018H40.0957C41.472 231.018 42.5042 230.678 43.1924 229.999C43.8851 229.32 44.2314 228.308 44.2314 226.964ZM48.6406 224.523V232.016H47.5059V224.523H48.6406ZM48.0869 221.721C48.2738 221.721 48.4333 221.782 48.5654 221.905C48.7021 222.024 48.7705 222.211 48.7705 222.466C48.7705 222.716 48.7021 222.903 48.5654 223.026C48.4333 223.149 48.2738 223.211 48.0869 223.211C47.891 223.211 47.7269 223.149 47.5947 223.026C47.4671 222.903 47.4033 222.716 47.4033 222.466C47.4033 222.211 47.4671 222.024 47.5947 221.905C47.7269 221.782 47.891 221.721 48.0869 221.721ZM55.8936 229.965C55.8936 230.443 55.7728 230.847 55.5312 231.175C55.2943 231.498 54.9525 231.742 54.5059 231.906C54.0638 232.07 53.5352 232.152 52.9199 232.152C52.3958 232.152 51.9424 232.111 51.5596 232.029C51.1768 231.947 50.8418 231.831 50.5547 231.681V230.635C50.86 230.785 51.2246 230.922 51.6484 231.045C52.0723 231.168 52.5052 231.229 52.9473 231.229C53.5944 231.229 54.0638 231.125 54.3555 230.915C54.6471 230.705 54.793 230.421 54.793 230.061C54.793 229.855 54.7337 229.675 54.6152 229.521C54.5013 229.361 54.3076 229.208 54.0342 229.062C53.7607 228.912 53.3825 228.748 52.8994 228.57C52.4209 228.388 52.0062 228.208 51.6553 228.03C51.3089 227.848 51.04 227.627 50.8486 227.367C50.6618 227.107 50.5684 226.77 50.5684 226.355C50.5684 225.722 50.8236 225.237 51.334 224.899C51.849 224.558 52.5234 224.387 53.3574 224.387C53.8086 224.387 54.2301 224.432 54.6221 224.523C55.0186 224.61 55.3877 224.729 55.7295 224.879L55.3467 225.788C55.0368 225.656 54.7064 225.544 54.3555 225.453C54.0046 225.362 53.6468 225.316 53.2822 225.316C52.7581 225.316 52.3548 225.403 52.0723 225.576C51.7943 225.749 51.6553 225.986 51.6553 226.287C51.6553 226.52 51.7191 226.711 51.8467 226.861C51.9788 227.012 52.1885 227.153 52.4756 227.285C52.7627 227.417 53.141 227.572 53.6104 227.75C54.0798 227.923 54.4854 228.103 54.8271 228.29C55.1689 228.472 55.431 228.696 55.6133 228.96C55.8001 229.22 55.8936 229.555 55.8936 229.965ZM60.5215 224.4C61.4147 224.4 62.0778 224.601 62.5107 225.002C62.9437 225.403 63.1602 226.043 63.1602 226.923V232.016H62.333L62.1143 230.908H62.0596C61.8499 231.182 61.6312 231.412 61.4033 231.599C61.1755 231.781 60.9111 231.92 60.6104 232.016C60.3141 232.107 59.9495 232.152 59.5166 232.152C59.0609 232.152 58.6553 232.073 58.2998 231.913C57.9489 231.754 57.6709 231.512 57.4658 231.188C57.2653 230.865 57.165 230.455 57.165 229.958C57.165 229.211 57.4613 228.636 58.0537 228.235C58.6462 227.834 59.5485 227.616 60.7607 227.579L62.0527 227.524V227.066C62.0527 226.419 61.9137 225.966 61.6357 225.706C61.3577 225.446 60.9658 225.316 60.46 225.316C60.068 225.316 59.6943 225.373 59.3389 225.487C58.9834 225.601 58.6462 225.736 58.3271 225.891L57.9785 225.029C58.3158 224.856 58.7031 224.708 59.1406 224.585C59.5781 224.462 60.0384 224.4 60.5215 224.4ZM62.0391 228.324L60.8975 228.372C59.9632 228.409 59.3047 228.561 58.9219 228.83C58.5391 229.099 58.3477 229.479 58.3477 229.972C58.3477 230.4 58.4775 230.717 58.7373 230.922C58.9971 231.127 59.3411 231.229 59.7695 231.229C60.4349 231.229 60.9795 231.045 61.4033 230.676C61.8271 230.307 62.0391 229.753 62.0391 229.015V228.324ZM66.6328 221.379V224.038C66.6328 224.343 66.6237 224.64 66.6055 224.927C66.5918 225.214 66.5804 225.437 66.5713 225.597H66.6328C66.8379 225.259 67.1341 224.975 67.5215 224.742C67.9089 224.51 68.4033 224.394 69.0049 224.394C69.9437 224.394 70.6911 224.719 71.2471 225.371C71.8076 226.018 72.0879 226.982 72.0879 228.263C72.0879 229.106 71.9603 229.817 71.7051 230.396C71.4499 230.974 71.0898 231.412 70.625 231.708C70.1602 232.004 69.611 232.152 68.9775 232.152C68.3851 232.152 67.8975 232.043 67.5146 231.824C67.1364 231.601 66.8447 231.33 66.6396 231.011H66.5508L66.3184 232.016H65.498V221.379H66.6328ZM68.8203 225.344C68.278 225.344 67.8473 225.451 67.5283 225.665C67.2093 225.875 66.9792 226.194 66.8379 226.622C66.7012 227.046 66.6328 227.584 66.6328 228.235V228.297C66.6328 229.24 66.79 229.963 67.1045 230.464C67.4189 230.961 67.9909 231.209 68.8203 231.209C69.5176 231.209 70.0394 230.954 70.3857 230.443C70.7367 229.933 70.9121 229.204 70.9121 228.256C70.9121 227.29 70.7389 226.563 70.3926 226.075C70.0508 225.588 69.5267 225.344 68.8203 225.344ZM75.2119 232.016H74.0703V221.379H75.2119V232.016ZM80.4961 224.387C81.1341 224.387 81.681 224.528 82.1367 224.811C82.5924 225.093 82.9411 225.49 83.1826 226C83.4242 226.506 83.5449 227.098 83.5449 227.777V228.481H78.3701C78.3838 229.361 78.6025 230.031 79.0264 230.491C79.4502 230.951 80.0472 231.182 80.8174 231.182C81.2913 231.182 81.7106 231.138 82.0752 231.052C82.4398 230.965 82.818 230.838 83.21 230.669V231.667C82.8317 231.836 82.4557 231.959 82.082 232.036C81.7129 232.114 81.2754 232.152 80.7695 232.152C80.0495 232.152 79.4206 232.007 78.8828 231.715C78.3496 231.419 77.9349 230.986 77.6387 230.416C77.3424 229.846 77.1943 229.149 77.1943 228.324C77.1943 227.518 77.3288 226.82 77.5977 226.232C77.8711 225.64 78.2539 225.184 78.7461 224.865C79.2428 224.546 79.8262 224.387 80.4961 224.387ZM80.4824 225.316C79.8763 225.316 79.3932 225.515 79.0332 225.911C78.6732 226.308 78.459 226.861 78.3906 227.572H82.3555C82.3509 227.126 82.2803 226.734 82.1436 226.396C82.0114 226.055 81.8086 225.79 81.5352 225.604C81.2617 225.412 80.9108 225.316 80.4824 225.316ZM88.1387 232.152C87.1908 232.152 86.4388 231.829 85.8828 231.182C85.3314 230.535 85.0557 229.573 85.0557 228.297C85.0557 227.007 85.3382 226.034 85.9033 225.378C86.4684 224.717 87.2204 224.387 88.1592 224.387C88.5557 224.387 88.902 224.439 89.1982 224.544C89.4945 224.649 89.7497 224.79 89.9639 224.968C90.1781 225.141 90.3581 225.339 90.5039 225.562H90.5859C90.5677 225.421 90.5495 225.228 90.5312 224.981C90.513 224.735 90.5039 224.535 90.5039 224.38V221.379H91.6387V232.016H90.7227L90.5518 230.949H90.5039C90.3626 231.173 90.1826 231.375 89.9639 231.558C89.7497 231.74 89.4922 231.886 89.1914 231.995C88.8952 232.1 88.5443 232.152 88.1387 232.152ZM88.3164 231.209C89.1185 231.209 89.6859 230.981 90.0186 230.525C90.3512 230.07 90.5176 229.393 90.5176 228.495V228.29C90.5176 227.338 90.3581 226.606 90.0391 226.096C89.7246 225.585 89.1504 225.33 88.3164 225.33C87.6191 225.33 87.0973 225.599 86.751 226.137C86.4046 226.67 86.2314 227.399 86.2314 228.324C86.2314 229.245 86.4023 229.956 86.7441 230.457C87.0905 230.958 87.6146 231.209 88.3164 231.209Z" fill="white"/>
<rect opacity="0.6" x="0.5" y="212.801" width="127" height="31" rx="3.5" stroke="#A4A8B9"/>
<rect x="1" y="133.301" width="126" height="30" rx="3" fill="#4E586E" fill-opacity="0.5" stroke="url(#paint1_linear_3543_2400)" stroke-width="2"/>
<path d="M53.2744 152.016H52.1123V147.306H46.8623V152.016H45.7002V142.021H46.8623V146.28H52.1123V142.021H53.2744V152.016ZM62.3115 148.256C62.3115 148.871 62.2318 149.42 62.0723 149.903C61.9128 150.386 61.6826 150.794 61.3818 151.127C61.0811 151.46 60.7165 151.715 60.2881 151.893C59.8643 152.066 59.3835 152.152 58.8457 152.152C58.3444 152.152 57.8841 152.066 57.4648 151.893C57.0501 151.715 56.6901 151.46 56.3848 151.127C56.084 150.794 55.8493 150.386 55.6807 149.903C55.5166 149.42 55.4346 148.871 55.4346 148.256C55.4346 147.436 55.5736 146.738 55.8516 146.164C56.1296 145.585 56.526 145.146 57.041 144.845C57.5605 144.539 58.1781 144.387 58.8936 144.387C59.5771 144.387 60.1742 144.539 60.6846 144.845C61.1995 145.15 61.5983 145.592 61.8809 146.171C62.168 146.745 62.3115 147.44 62.3115 148.256ZM56.6104 148.256C56.6104 148.857 56.6901 149.379 56.8496 149.821C57.0091 150.263 57.2552 150.605 57.5879 150.847C57.9206 151.088 58.349 151.209 58.873 151.209C59.3926 151.209 59.8187 151.088 60.1514 150.847C60.4886 150.605 60.737 150.263 60.8965 149.821C61.056 149.379 61.1357 148.857 61.1357 148.256C61.1357 147.659 61.056 147.144 60.8965 146.711C60.737 146.273 60.4909 145.936 60.1582 145.699C59.8255 145.462 59.3949 145.344 58.8662 145.344C58.0869 145.344 57.515 145.601 57.1504 146.116C56.7904 146.631 56.6104 147.344 56.6104 148.256ZM65.9209 152.016L63.0771 144.523H64.2939L65.9414 149.056C66.0553 149.366 66.1715 149.707 66.29 150.081C66.4085 150.455 66.4906 150.756 66.5361 150.983H66.584C66.6387 150.756 66.7298 150.455 66.8574 150.081C66.985 149.703 67.1012 149.361 67.2061 149.056L68.8535 144.523H70.0703L67.2197 152.016H65.9209ZM74.1582 144.387C74.7962 144.387 75.3431 144.528 75.7988 144.811C76.2546 145.093 76.6032 145.49 76.8447 146C77.0863 146.506 77.207 147.098 77.207 147.777V148.481H72.0322C72.0459 149.361 72.2646 150.031 72.6885 150.491C73.1123 150.951 73.7093 151.182 74.4795 151.182C74.9535 151.182 75.3727 151.138 75.7373 151.052C76.1019 150.965 76.4801 150.838 76.8721 150.669V151.667C76.4938 151.836 76.1178 151.959 75.7441 152.036C75.375 152.114 74.9375 152.152 74.4316 152.152C73.7116 152.152 73.0827 152.007 72.5449 151.715C72.0117 151.419 71.597 150.986 71.3008 150.416C71.0046 149.846 70.8564 149.149 70.8564 148.324C70.8564 147.518 70.9909 146.82 71.2598 146.232C71.5332 145.64 71.916 145.184 72.4082 144.865C72.9049 144.546 73.4883 144.387 74.1582 144.387ZM74.1445 145.316C73.5384 145.316 73.0553 145.515 72.6953 145.911C72.3353 146.308 72.1211 146.861 72.0527 147.572H76.0176C76.013 147.126 75.9424 146.734 75.8057 146.396C75.6735 146.055 75.4707 145.79 75.1973 145.604C74.9238 145.412 74.5729 145.316 74.1445 145.316ZM82.5391 144.387C82.6895 144.387 82.8467 144.396 83.0107 144.414C83.1748 144.428 83.3206 144.448 83.4482 144.476L83.3047 145.528C83.1816 145.496 83.0449 145.471 82.8945 145.453C82.7441 145.435 82.6029 145.426 82.4707 145.426C82.1699 145.426 81.8851 145.487 81.6162 145.61C81.3519 145.729 81.1195 145.902 80.9189 146.13C80.7184 146.353 80.5612 146.624 80.4473 146.943C80.3333 147.258 80.2764 147.609 80.2764 147.996V152.016H79.1348V144.523H80.0781L80.2012 145.904H80.249C80.404 145.626 80.5908 145.373 80.8096 145.146C81.0283 144.913 81.2812 144.729 81.5684 144.592C81.86 144.455 82.1836 144.387 82.5391 144.387Z" fill="white" fill-opacity="0.8"/>
<path d="M185.982 36.3008L185.056 33.7236H181.507L180.6 36.3008H179L182.472 26.9824H184.123L187.595 36.3008H185.982ZM184.656 32.416L183.786 29.8896C183.723 29.7204 183.634 29.4538 183.52 29.0898C183.41 28.7259 183.333 28.4593 183.291 28.29C183.177 28.8105 183.01 29.3797 182.79 29.9976L181.952 32.416H184.656ZM193.768 28.1885C192.896 28.1885 192.211 28.4974 191.711 29.1152C191.212 29.7331 190.962 30.5858 190.962 31.6733C190.962 32.8117 191.201 33.6729 191.68 34.2568C192.162 34.8408 192.858 35.1328 193.768 35.1328C194.162 35.1328 194.542 35.0947 194.911 35.0186C195.279 34.9382 195.662 34.8366 196.06 34.7139V36.0151C195.332 36.2902 194.507 36.4277 193.584 36.4277C192.226 36.4277 191.182 36.0173 190.455 35.1963C189.727 34.3711 189.363 33.1925 189.363 31.6606C189.363 30.6958 189.538 29.8516 189.89 29.1279C190.245 28.4043 190.757 27.8499 191.426 27.4648C192.094 27.0798 192.879 26.8872 193.781 26.8872C194.729 26.8872 195.605 27.0861 196.409 27.4839L195.863 28.7471C195.55 28.599 195.217 28.4699 194.866 28.3599C194.519 28.2456 194.153 28.1885 193.768 28.1885ZM202.265 36.3008H200.748V28.3218H198.018V27.0205H204.994V28.3218H202.265V36.3008ZM207.422 36.3008V27.0205H208.939V36.3008H207.422ZM217.684 27.0205H219.258L216.008 36.3008H214.408L211.171 27.0205H212.732L214.668 32.7905C214.77 33.0656 214.878 33.4211 214.992 33.8569C215.106 34.2886 215.181 34.6102 215.214 34.8218C215.269 34.5002 215.354 34.1278 215.468 33.7046C215.583 33.2814 215.676 32.9683 215.748 32.7651L217.684 27.0205ZM226.732 36.3008H221.483V27.0205H226.732V28.3027H223V30.8291H226.498V32.0986H223V35.0122H226.732V36.3008Z" fill="#A4A8B9"/>
<path d="M187.544 116.301H186.021V112.118H181.742V116.301H180.225V107.021H181.742V110.816H186.021V107.021H187.544V116.301ZM199.227 111.648C199.227 113.159 198.848 114.333 198.091 115.171C197.338 116.009 196.269 116.428 194.885 116.428C193.485 116.428 192.408 116.013 191.654 115.184C190.905 114.35 190.531 113.167 190.531 111.635C190.531 110.103 190.907 108.927 191.661 108.106C192.418 107.285 193.497 106.875 194.898 106.875C196.278 106.875 197.344 107.291 198.097 108.125C198.85 108.959 199.227 110.133 199.227 111.648ZM192.143 111.648C192.143 112.791 192.374 113.658 192.835 114.25C193.296 114.839 193.98 115.133 194.885 115.133C195.787 115.133 196.466 114.841 196.923 114.257C197.384 113.673 197.615 112.803 197.615 111.648C197.615 110.51 197.386 109.646 196.929 109.058C196.476 108.47 195.799 108.176 194.898 108.176C193.988 108.176 193.3 108.47 192.835 109.058C192.374 109.646 192.143 110.51 192.143 111.648ZM207.508 107.021H209.082L205.832 116.301H204.232L200.995 107.021H202.557L204.493 112.791C204.594 113.066 204.702 113.421 204.816 113.857C204.931 114.289 205.005 114.61 205.039 114.822C205.094 114.5 205.178 114.128 205.292 113.705C205.407 113.281 205.5 112.968 205.572 112.765L207.508 107.021ZM216.557 116.301H211.307V107.021H216.557V108.303H212.824V110.829H216.322V112.099H212.824V115.012H216.557V116.301ZM221.086 111.337H222.14C222.846 111.337 223.358 111.206 223.676 110.943C223.993 110.681 224.152 110.292 224.152 109.775C224.152 109.251 223.98 108.874 223.638 108.646C223.295 108.417 222.779 108.303 222.089 108.303H221.086V111.337ZM221.086 112.594V116.301H219.569V107.021H222.19C223.388 107.021 224.275 107.245 224.85 107.693C225.426 108.142 225.713 108.819 225.713 109.725C225.713 110.88 225.112 111.703 223.911 112.194L226.532 116.301H224.806L222.584 112.594H221.086Z" fill="#A4A8B9"/>
<path d="M187.772 191.572C187.772 193.104 187.347 194.276 186.497 195.088C185.646 195.897 184.421 196.301 182.821 196.301H180.225V187.021H183.094C184.571 187.021 185.72 187.418 186.541 188.214C187.362 189.009 187.772 190.129 187.772 191.572ZM186.173 191.623C186.173 189.401 185.134 188.29 183.056 188.29H181.742V195.025H182.821C185.056 195.025 186.173 193.891 186.173 191.623ZM190.772 196.301V187.021H192.289V196.301H190.772ZM201.097 193.781C201.097 194.606 200.798 195.253 200.202 195.723C199.605 196.193 198.782 196.428 197.732 196.428C196.683 196.428 195.824 196.265 195.155 195.939V194.504C195.578 194.703 196.027 194.86 196.501 194.974C196.979 195.088 197.424 195.146 197.834 195.146C198.435 195.146 198.877 195.031 199.161 194.803C199.448 194.574 199.592 194.267 199.592 193.882C199.592 193.535 199.461 193.241 199.199 193C198.936 192.759 198.395 192.473 197.574 192.143C196.727 191.8 196.131 191.409 195.784 190.969C195.437 190.529 195.263 190 195.263 189.382C195.263 188.607 195.538 187.998 196.088 187.554C196.639 187.109 197.377 186.887 198.304 186.887C199.192 186.887 200.077 187.082 200.957 187.471L200.475 188.709C199.649 188.362 198.913 188.188 198.266 188.188C197.775 188.188 197.402 188.296 197.148 188.512C196.895 188.724 196.768 189.005 196.768 189.356C196.768 189.598 196.818 189.805 196.92 189.979C197.021 190.148 197.189 190.309 197.421 190.461C197.654 190.613 198.073 190.814 198.678 191.064C199.36 191.347 199.859 191.612 200.176 191.857C200.494 192.103 200.726 192.38 200.875 192.689C201.023 192.998 201.097 193.362 201.097 193.781ZM209.65 196.301L208.724 193.724H205.175L204.268 196.301H202.668L206.14 186.982H207.791L211.263 196.301H209.65ZM208.324 192.416L207.454 189.89C207.391 189.72 207.302 189.454 207.188 189.09C207.077 188.726 207.001 188.459 206.959 188.29C206.845 188.811 206.678 189.38 206.458 189.998L205.62 192.416H208.324ZM213.488 187.021H216.243C217.521 187.021 218.443 187.207 219.01 187.579C219.582 187.951 219.867 188.54 219.867 189.344C219.867 189.885 219.728 190.336 219.448 190.696C219.169 191.056 218.767 191.282 218.242 191.375V191.438C218.894 191.561 219.372 191.805 219.677 192.168C219.986 192.528 220.14 193.017 220.14 193.635C220.14 194.468 219.848 195.122 219.264 195.596C218.684 196.066 217.876 196.301 216.839 196.301H213.488V187.021ZM215.005 190.854H216.465C217.1 190.854 217.563 190.755 217.855 190.556C218.147 190.353 218.293 190.01 218.293 189.528C218.293 189.092 218.134 188.777 217.817 188.582C217.504 188.387 217.004 188.29 216.319 188.29H215.005V190.854ZM215.005 192.086V195.025H216.617C217.252 195.025 217.73 194.904 218.052 194.663C218.378 194.418 218.541 194.033 218.541 193.508C218.541 193.025 218.375 192.668 218.045 192.435C217.715 192.202 217.214 192.086 216.541 192.086H215.005ZM223.07 196.301V187.021H224.587V195H228.516V196.301H223.07ZM236.365 196.301H231.116V187.021H236.365V188.303H232.633V190.829H236.13V192.099H232.633V195.012H236.365V196.301ZM246.925 191.572C246.925 193.104 246.5 194.276 245.649 195.088C244.798 195.897 243.573 196.301 241.974 196.301H239.377V187.021H242.247C243.723 187.021 244.872 187.418 245.693 188.214C246.514 189.009 246.925 190.129 246.925 191.572ZM245.325 191.623C245.325 189.401 244.286 188.29 242.208 188.29H240.895V195.025H241.974C244.208 195.025 245.325 193.891 245.325 191.623Z" fill="#A4A8B9"/>
<rect x="180" y="51.3008" width="126" height="30" rx="3" stroke="url(#paint2_linear_3543_2400)" stroke-width="2"/>
<path d="M228.638 70.0156L227.913 67.6367H224.27L223.545 70.0156H221.262L224.789 59.9805H227.38L230.921 70.0156H228.638ZM227.407 65.8594L226.683 63.5352C226.637 63.3802 226.576 63.182 226.498 62.9404C226.425 62.6943 226.35 62.446 226.272 62.1953C226.2 61.9401 226.14 61.7191 226.095 61.5322C226.049 61.7191 225.985 61.9515 225.903 62.2295C225.826 62.5029 225.751 62.7627 225.678 63.0088C225.605 63.2549 225.552 63.4303 225.521 63.5352L224.803 65.8594H227.407ZM235.125 70.1523C234.368 70.1523 233.724 70.0156 233.19 69.7422C232.657 69.4642 232.252 69.0358 231.974 68.457C231.696 67.8783 231.557 67.1377 231.557 66.2354C231.557 65.3011 231.714 64.54 232.028 63.9521C232.347 63.3597 232.787 62.9245 233.348 62.6465C233.913 62.3685 234.567 62.2295 235.31 62.2295C235.838 62.2295 236.294 62.2819 236.677 62.3867C237.064 62.487 237.401 62.6077 237.688 62.749L237.073 64.3623C236.745 64.2301 236.44 64.123 236.157 64.041C235.875 63.9544 235.592 63.9111 235.31 63.9111C234.945 63.9111 234.642 63.9977 234.4 64.1709C234.159 64.3395 233.979 64.5947 233.86 64.9365C233.742 65.2783 233.683 65.7067 233.683 66.2217C233.683 66.7275 233.746 67.1468 233.874 67.4795C234.002 67.8122 234.186 68.0605 234.428 68.2246C234.669 68.3841 234.963 68.4639 235.31 68.4639C235.743 68.4639 236.128 68.4069 236.465 68.293C236.802 68.1745 237.13 68.0104 237.449 67.8008V69.585C237.13 69.7855 236.795 69.929 236.444 70.0156C236.098 70.1068 235.658 70.1523 235.125 70.1523ZM242.446 68.4912C242.674 68.4912 242.895 68.4684 243.109 68.4229C243.328 68.3773 243.545 68.3203 243.759 68.252V69.8037C243.535 69.904 243.257 69.986 242.925 70.0498C242.597 70.1182 242.237 70.1523 241.845 70.1523C241.389 70.1523 240.979 70.0794 240.614 69.9336C240.254 69.7832 239.969 69.5257 239.76 69.1611C239.555 68.792 239.452 68.2793 239.452 67.623V63.9385H238.454V63.0566L239.603 62.3594L240.204 60.7461H241.537V62.373H243.677V63.9385H241.537V67.623C241.537 67.9147 241.619 68.1335 241.783 68.2793C241.952 68.4206 242.173 68.4912 242.446 68.4912ZM247.396 62.373V70.0156H245.311V62.373H247.396ZM246.356 59.3789C246.666 59.3789 246.933 59.4518 247.156 59.5977C247.38 59.7389 247.491 60.0055 247.491 60.3975C247.491 60.7848 247.38 61.0537 247.156 61.2041C246.933 61.3499 246.666 61.4229 246.356 61.4229C246.042 61.4229 245.773 61.3499 245.55 61.2041C245.331 61.0537 245.222 60.7848 245.222 60.3975C245.222 60.0055 245.331 59.7389 245.55 59.5977C245.773 59.4518 246.042 59.3789 246.356 59.3789ZM251.408 70.0156L248.496 62.373H250.677L252.153 66.7275C252.235 66.9827 252.299 67.2516 252.345 67.5342C252.395 67.8167 252.429 68.0697 252.447 68.293H252.502C252.516 68.0514 252.548 67.7939 252.598 67.5205C252.652 67.2471 252.723 66.9827 252.81 66.7275L254.279 62.373H256.46L253.548 70.0156H251.408ZM260.712 62.2295C261.418 62.2295 262.027 62.3662 262.537 62.6396C263.048 62.9085 263.442 63.3005 263.72 63.8154C263.998 64.3304 264.137 64.9593 264.137 65.7021V66.7139H259.208C259.231 67.3018 259.406 67.7643 259.734 68.1016C260.067 68.4342 260.527 68.6006 261.115 68.6006C261.603 68.6006 262.049 68.5505 262.455 68.4502C262.861 68.3499 263.278 68.1995 263.706 67.999V69.6123C263.328 69.7992 262.931 69.9359 262.517 70.0225C262.106 70.109 261.607 70.1523 261.02 70.1523C260.254 70.1523 259.575 70.0111 258.982 69.7285C258.395 69.446 257.932 69.0153 257.595 68.4365C257.262 67.8577 257.096 67.1286 257.096 66.249C257.096 65.3558 257.246 64.613 257.547 64.0205C257.852 63.4235 258.276 62.9769 258.818 62.6807C259.361 62.3799 259.992 62.2295 260.712 62.2295ZM260.726 63.7129C260.32 63.7129 259.983 63.8428 259.714 64.1025C259.45 64.3623 259.297 64.7702 259.256 65.3262H262.182C262.177 65.0163 262.12 64.7406 262.011 64.499C261.906 64.2575 261.746 64.0661 261.532 63.9248C261.323 63.7835 261.054 63.7129 260.726 63.7129Z" fill="white"/>
<path opacity="0.6" d="M224.455 226.923C224.455 228.049 224.25 228.99 223.84 229.746C223.43 230.498 222.835 231.065 222.056 231.448C221.281 231.826 220.34 232.016 219.232 232.016H216.519V222.021H219.533C220.549 222.021 221.424 222.208 222.158 222.582C222.892 222.951 223.457 223.5 223.854 224.229C224.255 224.954 224.455 225.852 224.455 226.923ZM223.231 226.964C223.231 226.066 223.081 225.326 222.78 224.742C222.484 224.159 222.047 223.726 221.468 223.443C220.894 223.156 220.189 223.013 219.355 223.013H217.681V231.018H219.096C220.472 231.018 221.504 230.678 222.192 229.999C222.885 229.32 223.231 228.308 223.231 226.964ZM227.641 224.523V232.016H226.506V224.523H227.641ZM227.087 221.721C227.274 221.721 227.433 221.782 227.565 221.905C227.702 222.024 227.771 222.211 227.771 222.466C227.771 222.716 227.702 222.903 227.565 223.026C227.433 223.149 227.274 223.211 227.087 223.211C226.891 223.211 226.727 223.149 226.595 223.026C226.467 222.903 226.403 222.716 226.403 222.466C226.403 222.211 226.467 222.024 226.595 221.905C226.727 221.782 226.891 221.721 227.087 221.721ZM234.894 229.965C234.894 230.443 234.773 230.847 234.531 231.175C234.294 231.498 233.952 231.742 233.506 231.906C233.064 232.07 232.535 232.152 231.92 232.152C231.396 232.152 230.942 232.111 230.56 232.029C230.177 231.947 229.842 231.831 229.555 231.681V230.635C229.86 230.785 230.225 230.922 230.648 231.045C231.072 231.168 231.505 231.229 231.947 231.229C232.594 231.229 233.064 231.125 233.355 230.915C233.647 230.705 233.793 230.421 233.793 230.061C233.793 229.855 233.734 229.675 233.615 229.521C233.501 229.361 233.308 229.208 233.034 229.062C232.761 228.912 232.382 228.748 231.899 228.57C231.421 228.388 231.006 228.208 230.655 228.03C230.309 227.848 230.04 227.627 229.849 227.367C229.662 227.107 229.568 226.77 229.568 226.355C229.568 225.722 229.824 225.237 230.334 224.899C230.849 224.558 231.523 224.387 232.357 224.387C232.809 224.387 233.23 224.432 233.622 224.523C234.019 224.61 234.388 224.729 234.729 224.879L234.347 225.788C234.037 225.656 233.706 225.544 233.355 225.453C233.005 225.362 232.647 225.316 232.282 225.316C231.758 225.316 231.355 225.403 231.072 225.576C230.794 225.749 230.655 225.986 230.655 226.287C230.655 226.52 230.719 226.711 230.847 226.861C230.979 227.012 231.188 227.153 231.476 227.285C231.763 227.417 232.141 227.572 232.61 227.75C233.08 227.923 233.485 228.103 233.827 228.29C234.169 228.472 234.431 228.696 234.613 228.96C234.8 229.22 234.894 229.555 234.894 229.965ZM239.521 224.4C240.415 224.4 241.078 224.601 241.511 225.002C241.944 225.403 242.16 226.043 242.16 226.923V232.016H241.333L241.114 230.908H241.06C240.85 231.182 240.631 231.412 240.403 231.599C240.175 231.781 239.911 231.92 239.61 232.016C239.314 232.107 238.95 232.152 238.517 232.152C238.061 232.152 237.655 232.073 237.3 231.913C236.949 231.754 236.671 231.512 236.466 231.188C236.265 230.865 236.165 230.455 236.165 229.958C236.165 229.211 236.461 228.636 237.054 228.235C237.646 227.834 238.549 227.616 239.761 227.579L241.053 227.524V227.066C241.053 226.419 240.914 225.966 240.636 225.706C240.358 225.446 239.966 225.316 239.46 225.316C239.068 225.316 238.694 225.373 238.339 225.487C237.983 225.601 237.646 225.736 237.327 225.891L236.979 225.029C237.316 224.856 237.703 224.708 238.141 224.585C238.578 224.462 239.038 224.4 239.521 224.4ZM241.039 228.324L239.897 228.372C238.963 228.409 238.305 228.561 237.922 228.83C237.539 229.099 237.348 229.479 237.348 229.972C237.348 230.4 237.478 230.717 237.737 230.922C237.997 231.127 238.341 231.229 238.77 231.229C239.435 231.229 239.979 231.045 240.403 230.676C240.827 230.307 241.039 229.753 241.039 229.015V228.324ZM245.633 221.379V224.038C245.633 224.343 245.624 224.64 245.605 224.927C245.592 225.214 245.58 225.437 245.571 225.597H245.633C245.838 225.259 246.134 224.975 246.521 224.742C246.909 224.51 247.403 224.394 248.005 224.394C248.944 224.394 249.691 224.719 250.247 225.371C250.808 226.018 251.088 226.982 251.088 228.263C251.088 229.106 250.96 229.817 250.705 230.396C250.45 230.974 250.09 231.412 249.625 231.708C249.16 232.004 248.611 232.152 247.978 232.152C247.385 232.152 246.897 232.043 246.515 231.824C246.136 231.601 245.845 231.33 245.64 231.011H245.551L245.318 232.016H244.498V221.379H245.633ZM247.82 225.344C247.278 225.344 246.847 225.451 246.528 225.665C246.209 225.875 245.979 226.194 245.838 226.622C245.701 227.046 245.633 227.584 245.633 228.235V228.297C245.633 229.24 245.79 229.963 246.104 230.464C246.419 230.961 246.991 231.209 247.82 231.209C248.518 231.209 249.039 230.954 249.386 230.443C249.737 229.933 249.912 229.204 249.912 228.256C249.912 227.29 249.739 226.563 249.393 226.075C249.051 225.588 248.527 225.344 247.82 225.344ZM254.212 232.016H253.07V221.379H254.212V232.016ZM259.496 224.387C260.134 224.387 260.681 224.528 261.137 224.811C261.592 225.093 261.941 225.49 262.183 226C262.424 226.506 262.545 227.098 262.545 227.777V228.481H257.37C257.384 229.361 257.603 230.031 258.026 230.491C258.45 230.951 259.047 231.182 259.817 231.182C260.291 231.182 260.711 231.138 261.075 231.052C261.44 230.965 261.818 230.838 262.21 230.669V231.667C261.832 231.836 261.456 231.959 261.082 232.036C260.713 232.114 260.275 232.152 259.77 232.152C259.049 232.152 258.421 232.007 257.883 231.715C257.35 231.419 256.935 230.986 256.639 230.416C256.342 229.846 256.194 229.149 256.194 228.324C256.194 227.518 256.329 226.82 256.598 226.232C256.871 225.64 257.254 225.184 257.746 224.865C258.243 224.546 258.826 224.387 259.496 224.387ZM259.482 225.316C258.876 225.316 258.393 225.515 258.033 225.911C257.673 226.308 257.459 226.861 257.391 227.572H261.355C261.351 227.126 261.28 226.734 261.144 226.396C261.011 226.055 260.809 225.79 260.535 225.604C260.262 225.412 259.911 225.316 259.482 225.316ZM267.139 232.152C266.191 232.152 265.439 231.829 264.883 231.182C264.331 230.535 264.056 229.573 264.056 228.297C264.056 227.007 264.338 226.034 264.903 225.378C265.468 224.717 266.22 224.387 267.159 224.387C267.556 224.387 267.902 224.439 268.198 224.544C268.494 224.649 268.75 224.79 268.964 224.968C269.178 225.141 269.358 225.339 269.504 225.562H269.586C269.568 225.421 269.549 225.228 269.531 224.981C269.513 224.735 269.504 224.535 269.504 224.38V221.379H270.639V232.016H269.723L269.552 230.949H269.504C269.363 231.173 269.183 231.375 268.964 231.558C268.75 231.74 268.492 231.886 268.191 231.995C267.895 232.1 267.544 232.152 267.139 232.152ZM267.316 231.209C268.118 231.209 268.686 230.981 269.019 230.525C269.351 230.07 269.518 229.393 269.518 228.495V228.29C269.518 227.338 269.358 226.606 269.039 226.096C268.725 225.585 268.15 225.33 267.316 225.33C266.619 225.33 266.097 225.599 265.751 226.137C265.405 226.67 265.231 227.399 265.231 228.324C265.231 229.245 265.402 229.956 265.744 230.457C266.09 230.958 266.615 231.209 267.316 231.209Z" fill="white"/>
<rect opacity="0.6" x="179.5" y="212.801" width="127" height="31" rx="3.5" stroke="#A4A8B9"/>
<rect x="180" y="133.301" width="126" height="30" rx="3" fill="#4E586E" fill-opacity="0.5" stroke="url(#paint3_linear_3543_2400)" stroke-width="2"/>
<path d="M232.274 152.016H231.112V147.306H225.862V152.016H224.7V142.021H225.862V146.28H231.112V142.021H232.274V152.016ZM241.312 148.256C241.312 148.871 241.232 149.42 241.072 149.903C240.913 150.386 240.683 150.794 240.382 151.127C240.081 151.46 239.716 151.715 239.288 151.893C238.864 152.066 238.383 152.152 237.846 152.152C237.344 152.152 236.884 152.066 236.465 151.893C236.05 151.715 235.69 151.46 235.385 151.127C235.084 150.794 234.849 150.386 234.681 149.903C234.517 149.42 234.435 148.871 234.435 148.256C234.435 147.436 234.574 146.738 234.852 146.164C235.13 145.585 235.526 145.146 236.041 144.845C236.561 144.539 237.178 144.387 237.894 144.387C238.577 144.387 239.174 144.539 239.685 144.845C240.2 145.15 240.598 145.592 240.881 146.171C241.168 146.745 241.312 147.44 241.312 148.256ZM235.61 148.256C235.61 148.857 235.69 149.379 235.85 149.821C236.009 150.263 236.255 150.605 236.588 150.847C236.921 151.088 237.349 151.209 237.873 151.209C238.393 151.209 238.819 151.088 239.151 150.847C239.489 150.605 239.737 150.263 239.896 149.821C240.056 149.379 240.136 148.857 240.136 148.256C240.136 147.659 240.056 147.144 239.896 146.711C239.737 146.273 239.491 145.936 239.158 145.699C238.826 145.462 238.395 145.344 237.866 145.344C237.087 145.344 236.515 145.601 236.15 146.116C235.79 146.631 235.61 147.344 235.61 148.256ZM244.921 152.016L242.077 144.523H243.294L244.941 149.056C245.055 149.366 245.172 149.707 245.29 150.081C245.409 150.455 245.491 150.756 245.536 150.983H245.584C245.639 150.756 245.73 150.455 245.857 150.081C245.985 149.703 246.101 149.361 246.206 149.056L247.854 144.523H249.07L246.22 152.016H244.921ZM253.158 144.387C253.796 144.387 254.343 144.528 254.799 144.811C255.255 145.093 255.603 145.49 255.845 146C256.086 146.506 256.207 147.098 256.207 147.777V148.481H251.032C251.046 149.361 251.265 150.031 251.688 150.491C252.112 150.951 252.709 151.182 253.479 151.182C253.953 151.182 254.373 151.138 254.737 151.052C255.102 150.965 255.48 150.838 255.872 150.669V151.667C255.494 151.836 255.118 151.959 254.744 152.036C254.375 152.114 253.938 152.152 253.432 152.152C252.712 152.152 252.083 152.007 251.545 151.715C251.012 151.419 250.597 150.986 250.301 150.416C250.005 149.846 249.856 149.149 249.856 148.324C249.856 147.518 249.991 146.82 250.26 146.232C250.533 145.64 250.916 145.184 251.408 144.865C251.905 144.546 252.488 144.387 253.158 144.387ZM253.145 145.316C252.538 145.316 252.055 145.515 251.695 145.911C251.335 146.308 251.121 146.861 251.053 147.572H255.018C255.013 147.126 254.942 146.734 254.806 146.396C254.674 146.055 254.471 145.79 254.197 145.604C253.924 145.412 253.573 145.316 253.145 145.316ZM261.539 144.387C261.689 144.387 261.847 144.396 262.011 144.414C262.175 144.428 262.321 144.448 262.448 144.476L262.305 145.528C262.182 145.496 262.045 145.471 261.895 145.453C261.744 145.435 261.603 145.426 261.471 145.426C261.17 145.426 260.885 145.487 260.616 145.61C260.352 145.729 260.119 145.902 259.919 146.13C259.718 146.353 259.561 146.624 259.447 146.943C259.333 147.258 259.276 147.609 259.276 147.996V152.016H258.135V144.523H259.078L259.201 145.904H259.249C259.404 145.626 259.591 145.373 259.81 145.146C260.028 144.913 260.281 144.729 260.568 144.592C260.86 144.455 261.184 144.387 261.539 144.387Z" fill="white" fill-opacity="0.8"/>
<path d="M363.982 36.3008L363.056 33.7236H359.507L358.6 36.3008H357L360.472 26.9824H362.123L365.595 36.3008H363.982ZM362.656 32.416L361.786 29.8896C361.723 29.7204 361.634 29.4538 361.52 29.0898C361.41 28.7259 361.333 28.4593 361.291 28.29C361.177 28.8105 361.01 29.3797 360.79 29.9976L359.952 32.416H362.656ZM371.768 28.1885C370.896 28.1885 370.211 28.4974 369.711 29.1152C369.212 29.7331 368.962 30.5858 368.962 31.6733C368.962 32.8117 369.201 33.6729 369.68 34.2568C370.162 34.8408 370.858 35.1328 371.768 35.1328C372.162 35.1328 372.542 35.0947 372.911 35.0186C373.279 34.9382 373.662 34.8366 374.06 34.7139V36.0151C373.332 36.2902 372.507 36.4277 371.584 36.4277C370.226 36.4277 369.182 36.0173 368.455 35.1963C367.727 34.3711 367.363 33.1925 367.363 31.6606C367.363 30.6958 367.538 29.8516 367.89 29.1279C368.245 28.4043 368.757 27.8499 369.426 27.4648C370.094 27.0798 370.879 26.8872 371.781 26.8872C372.729 26.8872 373.605 27.0861 374.409 27.4839L373.863 28.7471C373.55 28.599 373.217 28.4699 372.866 28.3599C372.519 28.2456 372.153 28.1885 371.768 28.1885ZM380.265 36.3008H378.748V28.3218H376.018V27.0205H382.994V28.3218H380.265V36.3008ZM385.422 36.3008V27.0205H386.939V36.3008H385.422ZM395.684 27.0205H397.258L394.008 36.3008H392.408L389.171 27.0205H390.732L392.668 32.7905C392.77 33.0656 392.878 33.4211 392.992 33.8569C393.106 34.2886 393.181 34.6102 393.214 34.8218C393.269 34.5002 393.354 34.1278 393.468 33.7046C393.583 33.2814 393.676 32.9683 393.748 32.7651L395.684 27.0205ZM404.732 36.3008H399.483V27.0205H404.732V28.3027H401V30.8291H404.498V32.0986H401V35.0122H404.732V36.3008Z" fill="#A4A8B9"/>
<path d="M365.544 116.301H364.021V112.118H359.742V116.301H358.225V107.021H359.742V110.816H364.021V107.021H365.544V116.301ZM377.227 111.648C377.227 113.159 376.848 114.333 376.091 115.171C375.338 116.009 374.269 116.428 372.885 116.428C371.485 116.428 370.408 116.013 369.654 115.184C368.905 114.35 368.531 113.167 368.531 111.635C368.531 110.103 368.907 108.927 369.661 108.106C370.418 107.285 371.497 106.875 372.898 106.875C374.278 106.875 375.344 107.291 376.097 108.125C376.85 108.959 377.227 110.133 377.227 111.648ZM370.143 111.648C370.143 112.791 370.374 113.658 370.835 114.25C371.296 114.839 371.98 115.133 372.885 115.133C373.787 115.133 374.466 114.841 374.923 114.257C375.384 113.673 375.615 112.803 375.615 111.648C375.615 110.51 375.386 109.646 374.929 109.058C374.476 108.47 373.799 108.176 372.898 108.176C371.988 108.176 371.3 108.47 370.835 109.058C370.374 109.646 370.143 110.51 370.143 111.648ZM385.508 107.021H387.082L383.832 116.301H382.232L378.995 107.021H380.557L382.493 112.791C382.594 113.066 382.702 113.421 382.816 113.857C382.931 114.289 383.005 114.61 383.039 114.822C383.094 114.5 383.178 114.128 383.292 113.705C383.407 113.281 383.5 112.968 383.572 112.765L385.508 107.021ZM394.557 116.301H389.307V107.021H394.557V108.303H390.824V110.829H394.322V112.099H390.824V115.012H394.557V116.301ZM399.086 111.337H400.14C400.846 111.337 401.358 111.206 401.676 110.943C401.993 110.681 402.152 110.292 402.152 109.775C402.152 109.251 401.98 108.874 401.638 108.646C401.295 108.417 400.779 108.303 400.089 108.303H399.086V111.337ZM399.086 112.594V116.301H397.569V107.021H400.19C401.388 107.021 402.275 107.245 402.85 107.693C403.426 108.142 403.713 108.819 403.713 109.725C403.713 110.88 403.112 111.703 401.911 112.194L404.532 116.301H402.806L400.584 112.594H399.086Z" fill="#A4A8B9"/>
<path d="M365.772 191.572C365.772 193.104 365.347 194.276 364.497 195.088C363.646 195.897 362.421 196.301 360.821 196.301H358.225V187.021H361.094C362.571 187.021 363.72 187.418 364.541 188.214C365.362 189.009 365.772 190.129 365.772 191.572ZM364.173 191.623C364.173 189.401 363.134 188.29 361.056 188.29H359.742V195.025H360.821C363.056 195.025 364.173 193.891 364.173 191.623ZM368.772 196.301V187.021H370.289V196.301H368.772ZM379.097 193.781C379.097 194.606 378.798 195.253 378.202 195.723C377.605 196.193 376.782 196.428 375.732 196.428C374.683 196.428 373.824 196.265 373.155 195.939V194.504C373.578 194.703 374.027 194.86 374.501 194.974C374.979 195.088 375.424 195.146 375.834 195.146C376.435 195.146 376.877 195.031 377.161 194.803C377.448 194.574 377.592 194.267 377.592 193.882C377.592 193.535 377.461 193.241 377.199 193C376.936 192.759 376.395 192.473 375.574 192.143C374.727 191.8 374.131 191.409 373.784 190.969C373.437 190.529 373.263 190 373.263 189.382C373.263 188.607 373.538 187.998 374.088 187.554C374.639 187.109 375.377 186.887 376.304 186.887C377.192 186.887 378.077 187.082 378.957 187.471L378.475 188.709C377.649 188.362 376.913 188.188 376.266 188.188C375.775 188.188 375.402 188.296 375.148 188.512C374.895 188.724 374.768 189.005 374.768 189.356C374.768 189.598 374.818 189.805 374.92 189.979C375.021 190.148 375.189 190.309 375.421 190.461C375.654 190.613 376.073 190.814 376.678 191.064C377.36 191.347 377.859 191.612 378.176 191.857C378.494 192.103 378.726 192.38 378.875 192.689C379.023 192.998 379.097 193.362 379.097 193.781ZM387.65 196.301L386.724 193.724H383.175L382.268 196.301H380.668L384.14 186.982H385.791L389.263 196.301H387.65ZM386.324 192.416L385.454 189.89C385.391 189.72 385.302 189.454 385.188 189.09C385.077 188.726 385.001 188.459 384.959 188.29C384.845 188.811 384.678 189.38 384.458 189.998L383.62 192.416H386.324ZM391.488 187.021H394.243C395.521 187.021 396.443 187.207 397.01 187.579C397.582 187.951 397.867 188.54 397.867 189.344C397.867 189.885 397.728 190.336 397.448 190.696C397.169 191.056 396.767 191.282 396.242 191.375V191.438C396.894 191.561 397.372 191.805 397.677 192.168C397.986 192.528 398.14 193.017 398.14 193.635C398.14 194.468 397.848 195.122 397.264 195.596C396.684 196.066 395.876 196.301 394.839 196.301H391.488V187.021ZM393.005 190.854H394.465C395.1 190.854 395.563 190.755 395.855 190.556C396.147 190.353 396.293 190.01 396.293 189.528C396.293 189.092 396.134 188.777 395.817 188.582C395.504 188.387 395.004 188.29 394.319 188.29H393.005V190.854ZM393.005 192.086V195.025H394.617C395.252 195.025 395.73 194.904 396.052 194.663C396.378 194.418 396.541 194.033 396.541 193.508C396.541 193.025 396.375 192.668 396.045 192.435C395.715 192.202 395.214 192.086 394.541 192.086H393.005ZM401.07 196.301V187.021H402.587V195H406.516V196.301H401.07ZM414.365 196.301H409.116V187.021H414.365V188.303H410.633V190.829H414.13V192.099H410.633V195.012H414.365V196.301ZM424.925 191.572C424.925 193.104 424.5 194.276 423.649 195.088C422.798 195.897 421.573 196.301 419.974 196.301H417.377V187.021H420.247C421.723 187.021 422.872 187.418 423.693 188.214C424.514 189.009 424.925 190.129 424.925 191.572ZM423.325 191.623C423.325 189.401 422.286 188.29 420.208 188.29H418.895V195.025H419.974C422.208 195.025 423.325 193.891 423.325 191.623Z" fill="#A4A8B9"/>
<rect x="358" y="51.3008" width="126" height="30" rx="3" stroke="url(#paint4_linear_3543_2400)" stroke-width="2"/>
<path d="M406.638 70.0156L405.913 67.6367H402.27L401.545 70.0156H399.262L402.789 59.9805H405.38L408.921 70.0156H406.638ZM405.407 65.8594L404.683 63.5352C404.637 63.3802 404.576 63.182 404.498 62.9404C404.425 62.6943 404.35 62.446 404.272 62.1953C404.2 61.9401 404.14 61.7191 404.095 61.5322C404.049 61.7191 403.985 61.9515 403.903 62.2295C403.826 62.5029 403.751 62.7627 403.678 63.0088C403.605 63.2549 403.552 63.4303 403.521 63.5352L402.803 65.8594H405.407ZM413.125 70.1523C412.368 70.1523 411.724 70.0156 411.19 69.7422C410.657 69.4642 410.252 69.0358 409.974 68.457C409.696 67.8783 409.557 67.1377 409.557 66.2354C409.557 65.3011 409.714 64.54 410.028 63.9521C410.347 63.3597 410.787 62.9245 411.348 62.6465C411.913 62.3685 412.567 62.2295 413.31 62.2295C413.838 62.2295 414.294 62.2819 414.677 62.3867C415.064 62.487 415.401 62.6077 415.688 62.749L415.073 64.3623C414.745 64.2301 414.44 64.123 414.157 64.041C413.875 63.9544 413.592 63.9111 413.31 63.9111C412.945 63.9111 412.642 63.9977 412.4 64.1709C412.159 64.3395 411.979 64.5947 411.86 64.9365C411.742 65.2783 411.683 65.7067 411.683 66.2217C411.683 66.7275 411.746 67.1468 411.874 67.4795C412.002 67.8122 412.186 68.0605 412.428 68.2246C412.669 68.3841 412.963 68.4639 413.31 68.4639C413.743 68.4639 414.128 68.4069 414.465 68.293C414.802 68.1745 415.13 68.0104 415.449 67.8008V69.585C415.13 69.7855 414.795 69.929 414.444 70.0156C414.098 70.1068 413.658 70.1523 413.125 70.1523ZM420.446 68.4912C420.674 68.4912 420.895 68.4684 421.109 68.4229C421.328 68.3773 421.545 68.3203 421.759 68.252V69.8037C421.535 69.904 421.257 69.986 420.925 70.0498C420.597 70.1182 420.237 70.1523 419.845 70.1523C419.389 70.1523 418.979 70.0794 418.614 69.9336C418.254 69.7832 417.969 69.5257 417.76 69.1611C417.555 68.792 417.452 68.2793 417.452 67.623V63.9385H416.454V63.0566L417.603 62.3594L418.204 60.7461H419.537V62.373H421.677V63.9385H419.537V67.623C419.537 67.9147 419.619 68.1335 419.783 68.2793C419.952 68.4206 420.173 68.4912 420.446 68.4912ZM425.396 62.373V70.0156H423.311V62.373H425.396ZM424.356 59.3789C424.666 59.3789 424.933 59.4518 425.156 59.5977C425.38 59.7389 425.491 60.0055 425.491 60.3975C425.491 60.7848 425.38 61.0537 425.156 61.2041C424.933 61.3499 424.666 61.4229 424.356 61.4229C424.042 61.4229 423.773 61.3499 423.55 61.2041C423.331 61.0537 423.222 60.7848 423.222 60.3975C423.222 60.0055 423.331 59.7389 423.55 59.5977C423.773 59.4518 424.042 59.3789 424.356 59.3789ZM429.408 70.0156L426.496 62.373H428.677L430.153 66.7275C430.235 66.9827 430.299 67.2516 430.345 67.5342C430.395 67.8167 430.429 68.0697 430.447 68.293H430.502C430.516 68.0514 430.548 67.7939 430.598 67.5205C430.652 67.2471 430.723 66.9827 430.81 66.7275L432.279 62.373H434.46L431.548 70.0156H429.408ZM438.712 62.2295C439.418 62.2295 440.027 62.3662 440.537 62.6396C441.048 62.9085 441.442 63.3005 441.72 63.8154C441.998 64.3304 442.137 64.9593 442.137 65.7021V66.7139H437.208C437.231 67.3018 437.406 67.7643 437.734 68.1016C438.067 68.4342 438.527 68.6006 439.115 68.6006C439.603 68.6006 440.049 68.5505 440.455 68.4502C440.861 68.3499 441.278 68.1995 441.706 67.999V69.6123C441.328 69.7992 440.931 69.9359 440.517 70.0225C440.106 70.109 439.607 70.1523 439.02 70.1523C438.254 70.1523 437.575 70.0111 436.982 69.7285C436.395 69.446 435.932 69.0153 435.595 68.4365C435.262 67.8577 435.096 67.1286 435.096 66.249C435.096 65.3558 435.246 64.613 435.547 64.0205C435.852 63.4235 436.276 62.9769 436.818 62.6807C437.361 62.3799 437.992 62.2295 438.712 62.2295ZM438.726 63.7129C438.32 63.7129 437.983 63.8428 437.714 64.1025C437.45 64.3623 437.297 64.7702 437.256 65.3262H440.182C440.177 65.0163 440.12 64.7406 440.011 64.499C439.906 64.2575 439.746 64.0661 439.532 63.9248C439.323 63.7835 439.054 63.7129 438.726 63.7129Z" fill="white"/>
<path opacity="0.6" d="M402.455 226.923C402.455 228.049 402.25 228.99 401.84 229.746C401.43 230.498 400.835 231.065 400.056 231.448C399.281 231.826 398.34 232.016 397.232 232.016H394.519V222.021H397.533C398.549 222.021 399.424 222.208 400.158 222.582C400.892 222.951 401.457 223.5 401.854 224.229C402.255 224.954 402.455 225.852 402.455 226.923ZM401.231 226.964C401.231 226.066 401.081 225.326 400.78 224.742C400.484 224.159 400.047 223.726 399.468 223.443C398.894 223.156 398.189 223.013 397.355 223.013H395.681V231.018H397.096C398.472 231.018 399.504 230.678 400.192 229.999C400.885 229.32 401.231 228.308 401.231 226.964ZM405.641 224.523V232.016H404.506V224.523H405.641ZM405.087 221.721C405.274 221.721 405.433 221.782 405.565 221.905C405.702 222.024 405.771 222.211 405.771 222.466C405.771 222.716 405.702 222.903 405.565 223.026C405.433 223.149 405.274 223.211 405.087 223.211C404.891 223.211 404.727 223.149 404.595 223.026C404.467 222.903 404.403 222.716 404.403 222.466C404.403 222.211 404.467 222.024 404.595 221.905C404.727 221.782 404.891 221.721 405.087 221.721ZM412.894 229.965C412.894 230.443 412.773 230.847 412.531 231.175C412.294 231.498 411.952 231.742 411.506 231.906C411.064 232.07 410.535 232.152 409.92 232.152C409.396 232.152 408.942 232.111 408.56 232.029C408.177 231.947 407.842 231.831 407.555 231.681V230.635C407.86 230.785 408.225 230.922 408.648 231.045C409.072 231.168 409.505 231.229 409.947 231.229C410.594 231.229 411.064 231.125 411.355 230.915C411.647 230.705 411.793 230.421 411.793 230.061C411.793 229.855 411.734 229.675 411.615 229.521C411.501 229.361 411.308 229.208 411.034 229.062C410.761 228.912 410.382 228.748 409.899 228.57C409.421 228.388 409.006 228.208 408.655 228.03C408.309 227.848 408.04 227.627 407.849 227.367C407.662 227.107 407.568 226.77 407.568 226.355C407.568 225.722 407.824 225.237 408.334 224.899C408.849 224.558 409.523 224.387 410.357 224.387C410.809 224.387 411.23 224.432 411.622 224.523C412.019 224.61 412.388 224.729 412.729 224.879L412.347 225.788C412.037 225.656 411.706 225.544 411.355 225.453C411.005 225.362 410.647 225.316 410.282 225.316C409.758 225.316 409.355 225.403 409.072 225.576C408.794 225.749 408.655 225.986 408.655 226.287C408.655 226.52 408.719 226.711 408.847 226.861C408.979 227.012 409.188 227.153 409.476 227.285C409.763 227.417 410.141 227.572 410.61 227.75C411.08 227.923 411.485 228.103 411.827 228.29C412.169 228.472 412.431 228.696 412.613 228.96C412.8 229.22 412.894 229.555 412.894 229.965ZM417.521 224.4C418.415 224.4 419.078 224.601 419.511 225.002C419.944 225.403 420.16 226.043 420.16 226.923V232.016H419.333L419.114 230.908H419.06C418.85 231.182 418.631 231.412 418.403 231.599C418.175 231.781 417.911 231.92 417.61 232.016C417.314 232.107 416.95 232.152 416.517 232.152C416.061 232.152 415.655 232.073 415.3 231.913C414.949 231.754 414.671 231.512 414.466 231.188C414.265 230.865 414.165 230.455 414.165 229.958C414.165 229.211 414.461 228.636 415.054 228.235C415.646 227.834 416.549 227.616 417.761 227.579L419.053 227.524V227.066C419.053 226.419 418.914 225.966 418.636 225.706C418.358 225.446 417.966 225.316 417.46 225.316C417.068 225.316 416.694 225.373 416.339 225.487C415.983 225.601 415.646 225.736 415.327 225.891L414.979 225.029C415.316 224.856 415.703 224.708 416.141 224.585C416.578 224.462 417.038 224.4 417.521 224.4ZM419.039 228.324L417.897 228.372C416.963 228.409 416.305 228.561 415.922 228.83C415.539 229.099 415.348 229.479 415.348 229.972C415.348 230.4 415.478 230.717 415.737 230.922C415.997 231.127 416.341 231.229 416.77 231.229C417.435 231.229 417.979 231.045 418.403 230.676C418.827 230.307 419.039 229.753 419.039 229.015V228.324ZM423.633 221.379V224.038C423.633 224.343 423.624 224.64 423.605 224.927C423.592 225.214 423.58 225.437 423.571 225.597H423.633C423.838 225.259 424.134 224.975 424.521 224.742C424.909 224.51 425.403 224.394 426.005 224.394C426.944 224.394 427.691 224.719 428.247 225.371C428.808 226.018 429.088 226.982 429.088 228.263C429.088 229.106 428.96 229.817 428.705 230.396C428.45 230.974 428.09 231.412 427.625 231.708C427.16 232.004 426.611 232.152 425.978 232.152C425.385 232.152 424.897 232.043 424.515 231.824C424.136 231.601 423.845 231.33 423.64 231.011H423.551L423.318 232.016H422.498V221.379H423.633ZM425.82 225.344C425.278 225.344 424.847 225.451 424.528 225.665C424.209 225.875 423.979 226.194 423.838 226.622C423.701 227.046 423.633 227.584 423.633 228.235V228.297C423.633 229.24 423.79 229.963 424.104 230.464C424.419 230.961 424.991 231.209 425.82 231.209C426.518 231.209 427.039 230.954 427.386 230.443C427.737 229.933 427.912 229.204 427.912 228.256C427.912 227.29 427.739 226.563 427.393 226.075C427.051 225.588 426.527 225.344 425.82 225.344ZM432.212 232.016H431.07V221.379H432.212V232.016ZM437.496 224.387C438.134 224.387 438.681 224.528 439.137 224.811C439.592 225.093 439.941 225.49 440.183 226C440.424 226.506 440.545 227.098 440.545 227.777V228.481H435.37C435.384 229.361 435.603 230.031 436.026 230.491C436.45 230.951 437.047 231.182 437.817 231.182C438.291 231.182 438.711 231.138 439.075 231.052C439.44 230.965 439.818 230.838 440.21 230.669V231.667C439.832 231.836 439.456 231.959 439.082 232.036C438.713 232.114 438.275 232.152 437.77 232.152C437.049 232.152 436.421 232.007 435.883 231.715C435.35 231.419 434.935 230.986 434.639 230.416C434.342 229.846 434.194 229.149 434.194 228.324C434.194 227.518 434.329 226.82 434.598 226.232C434.871 225.64 435.254 225.184 435.746 224.865C436.243 224.546 436.826 224.387 437.496 224.387ZM437.482 225.316C436.876 225.316 436.393 225.515 436.033 225.911C435.673 226.308 435.459 226.861 435.391 227.572H439.355C439.351 227.126 439.28 226.734 439.144 226.396C439.011 226.055 438.809 225.79 438.535 225.604C438.262 225.412 437.911 225.316 437.482 225.316ZM445.139 232.152C444.191 232.152 443.439 231.829 442.883 231.182C442.331 230.535 442.056 229.573 442.056 228.297C442.056 227.007 442.338 226.034 442.903 225.378C443.468 224.717 444.22 224.387 445.159 224.387C445.556 224.387 445.902 224.439 446.198 224.544C446.494 224.649 446.75 224.79 446.964 224.968C447.178 225.141 447.358 225.339 447.504 225.562H447.586C447.568 225.421 447.549 225.228 447.531 224.981C447.513 224.735 447.504 224.535 447.504 224.38V221.379H448.639V232.016H447.723L447.552 230.949H447.504C447.363 231.173 447.183 231.375 446.964 231.558C446.75 231.74 446.492 231.886 446.191 231.995C445.895 232.1 445.544 232.152 445.139 232.152ZM445.316 231.209C446.118 231.209 446.686 230.981 447.019 230.525C447.351 230.07 447.518 229.393 447.518 228.495V228.29C447.518 227.338 447.358 226.606 447.039 226.096C446.725 225.585 446.15 225.33 445.316 225.33C444.619 225.33 444.097 225.599 443.751 226.137C443.405 226.67 443.231 227.399 443.231 228.324C443.231 229.245 443.402 229.956 443.744 230.457C444.09 230.958 444.615 231.209 445.316 231.209Z" fill="white"/>
<rect opacity="0.6" x="357.5" y="212.801" width="127" height="31" rx="3.5" stroke="#A4A8B9"/>
<rect x="358" y="133.301" width="126" height="30" rx="3" fill="#4E586E" fill-opacity="0.5" stroke="url(#paint5_linear_3543_2400)" stroke-width="2"/>
<path d="M410.274 152.016H409.112V147.306H403.862V152.016H402.7V142.021H403.862V146.28H409.112V142.021H410.274V152.016ZM419.312 148.256C419.312 148.871 419.232 149.42 419.072 149.903C418.913 150.386 418.683 150.794 418.382 151.127C418.081 151.46 417.716 151.715 417.288 151.893C416.864 152.066 416.383 152.152 415.846 152.152C415.344 152.152 414.884 152.066 414.465 151.893C414.05 151.715 413.69 151.46 413.385 151.127C413.084 150.794 412.849 150.386 412.681 149.903C412.517 149.42 412.435 148.871 412.435 148.256C412.435 147.436 412.574 146.738 412.852 146.164C413.13 145.585 413.526 145.146 414.041 144.845C414.561 144.539 415.178 144.387 415.894 144.387C416.577 144.387 417.174 144.539 417.685 144.845C418.2 145.15 418.598 145.592 418.881 146.171C419.168 146.745 419.312 147.44 419.312 148.256ZM413.61 148.256C413.61 148.857 413.69 149.379 413.85 149.821C414.009 150.263 414.255 150.605 414.588 150.847C414.921 151.088 415.349 151.209 415.873 151.209C416.393 151.209 416.819 151.088 417.151 150.847C417.489 150.605 417.737 150.263 417.896 149.821C418.056 149.379 418.136 148.857 418.136 148.256C418.136 147.659 418.056 147.144 417.896 146.711C417.737 146.273 417.491 145.936 417.158 145.699C416.826 145.462 416.395 145.344 415.866 145.344C415.087 145.344 414.515 145.601 414.15 146.116C413.79 146.631 413.61 147.344 413.61 148.256ZM422.921 152.016L420.077 144.523H421.294L422.941 149.056C423.055 149.366 423.172 149.707 423.29 150.081C423.409 150.455 423.491 150.756 423.536 150.983H423.584C423.639 150.756 423.73 150.455 423.857 150.081C423.985 149.703 424.101 149.361 424.206 149.056L425.854 144.523H427.07L424.22 152.016H422.921ZM431.158 144.387C431.796 144.387 432.343 144.528 432.799 144.811C433.255 145.093 433.603 145.49 433.845 146C434.086 146.506 434.207 147.098 434.207 147.777V148.481H429.032C429.046 149.361 429.265 150.031 429.688 150.491C430.112 150.951 430.709 151.182 431.479 151.182C431.953 151.182 432.373 151.138 432.737 151.052C433.102 150.965 433.48 150.838 433.872 150.669V151.667C433.494 151.836 433.118 151.959 432.744 152.036C432.375 152.114 431.938 152.152 431.432 152.152C430.712 152.152 430.083 152.007 429.545 151.715C429.012 151.419 428.597 150.986 428.301 150.416C428.005 149.846 427.856 149.149 427.856 148.324C427.856 147.518 427.991 146.82 428.26 146.232C428.533 145.64 428.916 145.184 429.408 144.865C429.905 144.546 430.488 144.387 431.158 144.387ZM431.145 145.316C430.538 145.316 430.055 145.515 429.695 145.911C429.335 146.308 429.121 146.861 429.053 147.572H433.018C433.013 147.126 432.942 146.734 432.806 146.396C432.674 146.055 432.471 145.79 432.197 145.604C431.924 145.412 431.573 145.316 431.145 145.316ZM439.539 144.387C439.689 144.387 439.847 144.396 440.011 144.414C440.175 144.428 440.321 144.448 440.448 144.476L440.305 145.528C440.182 145.496 440.045 145.471 439.895 145.453C439.744 145.435 439.603 145.426 439.471 145.426C439.17 145.426 438.885 145.487 438.616 145.61C438.352 145.729 438.119 145.902 437.919 146.13C437.718 146.353 437.561 146.624 437.447 146.943C437.333 147.258 437.276 147.609 437.276 147.996V152.016H436.135V144.523H437.078L437.201 145.904H437.249C437.404 145.626 437.591 145.373 437.81 145.146C438.028 144.913 438.281 144.729 438.568 144.592C438.86 144.455 439.184 144.387 439.539 144.387Z" fill="white"/>
<defs>
<linearGradient id="paint0_linear_3543_2400" x1="128" y1="66.3008" x2="-3.42596e-07" y2="66.3008" gradientUnits="userSpaceOnUse">
<stop stop-color="#473CB3"/>
<stop offset="0.0001" stop-color="#6152FF"/>
<stop offset="1" stop-color="#B352FF"/>
</linearGradient>
<linearGradient id="paint1_linear_3543_2400" x1="128" y1="148.301" x2="-3.42596e-07" y2="148.301" gradientUnits="userSpaceOnUse">
<stop stop-color="#473CB3"/>
<stop offset="0.0001" stop-color="#6152FF"/>
<stop offset="1" stop-color="#B352FF"/>
</linearGradient>
<linearGradient id="paint2_linear_3543_2400" x1="307" y1="82.301" x2="280.819" y2="133.932" gradientUnits="userSpaceOnUse">
<stop stop-color="#FF7B21"/>
<stop offset="1" stop-color="#FFB627"/>
</linearGradient>
<linearGradient id="paint3_linear_3543_2400" x1="307" y1="164.301" x2="280.819" y2="215.932" gradientUnits="userSpaceOnUse">
<stop stop-color="#FF7B21"/>
<stop offset="1" stop-color="#FFB627"/>
</linearGradient>
<linearGradient id="paint4_linear_3543_2400" x1="356.863" y1="66.3119" x2="485.14" y2="66.3119" gradientUnits="userSpaceOnUse">
<stop stop-color="#00B7F1"/>
<stop offset="1" stop-color="#007AFF"/>
</linearGradient>
<linearGradient id="paint5_linear_3543_2400" x1="356.863" y1="148.312" x2="485.14" y2="148.312" gradientUnits="userSpaceOnUse">
<stop stop-color="#00B7F1"/>
<stop offset="1" stop-color="#007AFF"/>
</linearGradient>
</defs>
</svg>
