<svg width="308" height="245" viewBox="0 0 308 245" fill="none" xmlns="http://www.w3.org/2000/svg">
<rect x="176" y="50.3008" width="132" height="32" rx="4" fill="url(#paint0_linear_3543_2399)"/>
<path d="M280.498 72.3241C280.426 72.3241 280.353 72.3061 280.286 72.2694L276.442 70.1436L272.598 72.2694C272.452 72.351 272.271 72.3407 272.134 72.2442C271.997 72.1477 271.927 71.9815 271.954 71.8165L272.693 67.2864L269.566 64.0799C269.452 63.9624 269.412 63.7911 269.465 63.6355C269.517 63.48 269.651 63.3667 269.813 63.342L274.118 62.6843L276.046 58.5758C276.119 58.422 276.273 58.3242 276.442 58.3242C276.612 58.3242 276.766 58.422 276.839 58.5758L278.767 62.6841L283.071 63.342C283.233 63.3667 283.368 63.48 283.42 63.6355C283.472 63.7911 283.433 63.9624 283.318 64.0799L280.191 67.2864L280.931 71.8165C280.957 71.9815 280.887 72.1477 280.751 72.2442C280.675 72.2971 280.587 72.3241 280.498 72.3241Z" fill="white"/>
<path d="M206.725 70.0859H205.22V60.8057H210.457V62.0879H206.725V64.9888H210.222V66.2773H206.725V70.0859ZM216.373 70.0859L216.075 69.1084H216.024C215.685 69.5358 215.345 69.8278 215.002 69.9844C214.659 70.1367 214.219 70.2129 213.682 70.2129C212.992 70.2129 212.452 70.0267 212.063 69.6543C211.678 69.2819 211.485 68.755 211.485 68.0737C211.485 67.3501 211.754 66.8042 212.292 66.436C212.829 66.0679 213.648 65.8669 214.748 65.833L215.96 65.7949V65.4204C215.96 64.9718 215.855 64.6375 215.643 64.4175C215.436 64.1932 215.112 64.0811 214.672 64.0811C214.312 64.0811 213.967 64.134 213.637 64.2397C213.307 64.3455 212.99 64.4704 212.685 64.6143L212.203 63.5479C212.583 63.349 213 63.1987 213.453 63.0972C213.906 62.9914 214.333 62.9385 214.735 62.9385C215.628 62.9385 216.301 63.1331 216.754 63.5225C217.211 63.9118 217.439 64.5233 217.439 65.3569V70.0859H216.373ZM214.151 69.0703C214.693 69.0703 215.127 68.9201 215.453 68.6196C215.783 68.3149 215.948 67.8896 215.948 67.3438V66.7344L215.046 66.7725C214.344 66.7979 213.832 66.9163 213.51 67.1279C213.193 67.3353 213.034 67.6548 213.034 68.0864C213.034 68.3996 213.127 68.6429 213.313 68.8164C213.5 68.9857 213.779 69.0703 214.151 69.0703ZM221.121 70.0859L218.455 63.0654H220.029L221.458 67.147C221.703 67.8325 221.851 68.3869 221.902 68.8101H221.953C221.991 68.5054 222.139 67.951 222.397 67.147L223.825 63.0654H225.412L222.733 70.0859H221.121ZM232.706 66.563C232.706 67.7098 232.411 68.6048 231.823 69.248C231.235 69.8913 230.416 70.2129 229.367 70.2129C228.711 70.2129 228.131 70.0648 227.627 69.7686C227.124 69.4723 226.737 69.047 226.466 68.4927C226.195 67.9383 226.06 67.2951 226.06 66.563C226.06 65.4246 226.352 64.536 226.936 63.897C227.52 63.258 228.343 62.9385 229.405 62.9385C230.42 62.9385 231.224 63.2664 231.817 63.9224C232.409 64.5741 232.706 65.4543 232.706 66.563ZM227.596 66.563C227.596 68.1838 228.194 68.9941 229.392 68.9941C230.577 68.9941 231.169 68.1838 231.169 66.563C231.169 64.9591 230.573 64.1572 229.379 64.1572C228.753 64.1572 228.298 64.3646 228.015 64.7793C227.735 65.194 227.596 65.7886 227.596 66.563ZM237.987 62.9385C238.287 62.9385 238.535 62.9596 238.729 63.002L238.583 64.3921C238.372 64.3413 238.152 64.3159 237.923 64.3159C237.327 64.3159 236.842 64.5106 236.47 64.8999C236.102 65.2892 235.917 65.7949 235.917 66.417V70.0859H234.426V63.0654H235.594L235.791 64.3032H235.867C236.099 63.8843 236.402 63.5521 236.774 63.3066C237.151 63.0612 237.555 62.9385 237.987 62.9385ZM241.529 70.0859H240.037V63.0654H241.529V70.0859ZM239.948 61.2056C239.948 60.939 240.02 60.7337 240.164 60.5898C240.312 60.446 240.522 60.374 240.792 60.374C241.055 60.374 241.258 60.446 241.402 60.5898C241.55 60.7337 241.624 60.939 241.624 61.2056C241.624 61.4595 241.55 61.6605 241.402 61.8086C241.258 61.9525 241.055 62.0244 240.792 62.0244C240.522 62.0244 240.312 61.9525 240.164 61.8086C240.02 61.6605 239.948 61.4595 239.948 61.2056ZM246.283 69.0068C246.647 69.0068 247.011 68.9497 247.375 68.8354V69.959C247.21 70.0309 246.996 70.0902 246.734 70.1367C246.476 70.1875 246.207 70.2129 245.928 70.2129C244.514 70.2129 243.808 69.4681 243.808 67.9785V64.1953H242.849V63.5352L243.877 62.9893L244.385 61.5039H245.306V63.0654H247.305V64.1953H245.306V67.9531C245.306 68.3128 245.395 68.5794 245.572 68.7529C245.754 68.9222 245.991 69.0068 246.283 69.0068ZM255.011 66.563C255.011 67.7098 254.717 68.6048 254.129 69.248C253.541 69.8913 252.722 70.2129 251.672 70.2129C251.016 70.2129 250.437 70.0648 249.933 69.7686C249.43 69.4723 249.042 69.047 248.771 68.4927C248.501 67.9383 248.365 67.2951 248.365 66.563C248.365 65.4246 248.657 64.536 249.241 63.897C249.825 63.258 250.648 62.9385 251.71 62.9385C252.726 62.9385 253.53 63.2664 254.123 63.9224C254.715 64.5741 255.011 65.4543 255.011 66.563ZM249.901 66.563C249.901 68.1838 250.5 68.9941 251.698 68.9941C252.883 68.9941 253.475 68.1838 253.475 66.563C253.475 64.9591 252.878 64.1572 251.685 64.1572C251.059 64.1572 250.604 64.3646 250.32 64.7793C250.041 65.194 249.901 65.7886 249.901 66.563ZM261.448 68.0864C261.448 68.772 261.198 69.2988 260.699 69.667C260.199 70.0309 259.484 70.2129 258.553 70.2129C257.618 70.2129 256.867 70.0711 256.3 69.7876V68.499C257.125 68.8799 257.893 69.0703 258.604 69.0703C259.522 69.0703 259.981 68.7931 259.981 68.2388C259.981 68.061 259.931 67.9129 259.829 67.7944C259.728 67.6759 259.56 67.5532 259.328 67.4263C259.095 67.2993 258.771 67.1554 258.356 66.9946C257.548 66.6815 257 66.3683 256.712 66.0552C256.429 65.742 256.287 65.3358 256.287 64.8364C256.287 64.2355 256.528 63.77 257.011 63.4399C257.497 63.1056 258.158 62.9385 258.991 62.9385C259.816 62.9385 260.597 63.1056 261.333 63.4399L260.851 64.5635C260.094 64.2503 259.457 64.0938 258.94 64.0938C258.153 64.0938 257.76 64.318 257.76 64.7666C257.76 64.9867 257.861 65.1729 258.064 65.3252C258.272 65.4775 258.72 65.687 259.41 65.9536C259.99 66.1779 260.411 66.3831 260.673 66.5693C260.936 66.7555 261.13 66.9714 261.257 67.2168C261.384 67.458 261.448 67.7479 261.448 68.0864Z" fill="white"/>
<rect x="176" y="132.301" width="132" height="32" rx="4" fill="url(#paint1_linear_3543_2399)"/>
<path d="M280.498 154.324C280.426 154.324 280.353 154.306 280.286 154.269L276.442 152.144L272.598 154.269C272.452 154.351 272.271 154.341 272.134 154.244C271.997 154.148 271.927 153.981 271.954 153.817L272.693 149.286L269.566 146.08C269.452 145.962 269.412 145.791 269.465 145.636C269.517 145.48 269.651 145.367 269.813 145.342L274.118 144.684L276.046 140.576C276.119 140.422 276.273 140.324 276.442 140.324C276.612 140.324 276.766 140.422 276.839 140.576L278.767 144.684L283.071 145.342C283.233 145.367 283.368 145.48 283.42 145.636C283.472 145.791 283.433 145.962 283.318 146.08L280.191 149.286L280.931 153.817C280.957 153.981 280.887 154.148 280.751 154.244C280.675 154.297 280.587 154.324 280.498 154.324Z" fill="white"/>
<path d="M207.725 152.086H206.22V142.806H211.457V144.088H207.725V146.989H211.222V148.277H207.725V152.086ZM217.373 152.086L217.075 151.108H217.024C216.685 151.536 216.345 151.828 216.002 151.984C215.659 152.137 215.219 152.213 214.682 152.213C213.992 152.213 213.452 152.027 213.063 151.654C212.678 151.282 212.485 150.755 212.485 150.074C212.485 149.35 212.754 148.804 213.292 148.436C213.829 148.068 214.648 147.867 215.748 147.833L216.96 147.795V147.42C216.96 146.972 216.855 146.638 216.643 146.417C216.436 146.193 216.112 146.081 215.672 146.081C215.312 146.081 214.967 146.134 214.637 146.24C214.307 146.346 213.99 146.47 213.685 146.614L213.203 145.548C213.583 145.349 214 145.199 214.453 145.097C214.906 144.991 215.333 144.938 215.735 144.938C216.628 144.938 217.301 145.133 217.754 145.522C218.211 145.912 218.439 146.523 218.439 147.357V152.086H217.373ZM215.151 151.07C215.693 151.07 216.127 150.92 216.453 150.62C216.783 150.315 216.948 149.89 216.948 149.344V148.734L216.046 148.772C215.344 148.798 214.832 148.916 214.51 149.128C214.193 149.335 214.034 149.655 214.034 150.086C214.034 150.4 214.127 150.643 214.313 150.816C214.5 150.986 214.779 151.07 215.151 151.07ZM222.121 152.086L219.455 145.065H221.029L222.458 149.147C222.703 149.833 222.851 150.387 222.902 150.81H222.953C222.991 150.505 223.139 149.951 223.397 149.147L224.825 145.065H226.412L223.733 152.086H222.121ZM233.706 148.563C233.706 149.71 233.411 150.605 232.823 151.248C232.235 151.891 231.416 152.213 230.367 152.213C229.711 152.213 229.131 152.065 228.627 151.769C228.124 151.472 227.737 151.047 227.466 150.493C227.195 149.938 227.06 149.295 227.06 148.563C227.06 147.425 227.352 146.536 227.936 145.897C228.52 145.258 229.343 144.938 230.405 144.938C231.42 144.938 232.224 145.266 232.817 145.922C233.409 146.574 233.706 147.454 233.706 148.563ZM228.596 148.563C228.596 150.184 229.194 150.994 230.392 150.994C231.577 150.994 232.169 150.184 232.169 148.563C232.169 146.959 231.573 146.157 230.379 146.157C229.753 146.157 229.298 146.365 229.015 146.779C228.735 147.194 228.596 147.789 228.596 148.563ZM238.987 144.938C239.287 144.938 239.535 144.96 239.729 145.002L239.583 146.392C239.372 146.341 239.152 146.316 238.923 146.316C238.327 146.316 237.842 146.511 237.47 146.9C237.102 147.289 236.917 147.795 236.917 148.417V152.086H235.426V145.065H236.594L236.791 146.303H236.867C237.099 145.884 237.402 145.552 237.774 145.307C238.151 145.061 238.555 144.938 238.987 144.938ZM242.529 152.086H241.037V145.065H242.529V152.086ZM240.948 143.206C240.948 142.939 241.02 142.734 241.164 142.59C241.312 142.446 241.522 142.374 241.792 142.374C242.055 142.374 242.258 142.446 242.402 142.59C242.55 142.734 242.624 142.939 242.624 143.206C242.624 143.459 242.55 143.66 242.402 143.809C242.258 143.952 242.055 144.024 241.792 144.024C241.522 144.024 241.312 143.952 241.164 143.809C241.02 143.66 240.948 143.459 240.948 143.206ZM247.283 151.007C247.647 151.007 248.011 150.95 248.375 150.835V151.959C248.21 152.031 247.996 152.09 247.734 152.137C247.476 152.188 247.207 152.213 246.928 152.213C245.514 152.213 244.808 151.468 244.808 149.979V146.195H243.849V145.535L244.877 144.989L245.385 143.504H246.306V145.065H248.305V146.195H246.306V149.953C246.306 150.313 246.395 150.579 246.572 150.753C246.754 150.922 246.991 151.007 247.283 151.007ZM256.011 148.563C256.011 149.71 255.717 150.605 255.129 151.248C254.541 151.891 253.722 152.213 252.672 152.213C252.016 152.213 251.437 152.065 250.933 151.769C250.43 151.472 250.042 151.047 249.771 150.493C249.501 149.938 249.365 149.295 249.365 148.563C249.365 147.425 249.657 146.536 250.241 145.897C250.825 145.258 251.648 144.938 252.71 144.938C253.726 144.938 254.53 145.266 255.123 145.922C255.715 146.574 256.011 147.454 256.011 148.563ZM250.901 148.563C250.901 150.184 251.5 150.994 252.698 150.994C253.883 150.994 254.475 150.184 254.475 148.563C254.475 146.959 253.878 146.157 252.685 146.157C252.059 146.157 251.604 146.365 251.32 146.779C251.041 147.194 250.901 147.789 250.901 148.563ZM262.448 150.086C262.448 150.772 262.198 151.299 261.699 151.667C261.199 152.031 260.484 152.213 259.553 152.213C258.618 152.213 257.867 152.071 257.3 151.788V150.499C258.125 150.88 258.893 151.07 259.604 151.07C260.522 151.07 260.981 150.793 260.981 150.239C260.981 150.061 260.931 149.913 260.829 149.794C260.728 149.676 260.56 149.553 260.328 149.426C260.095 149.299 259.771 149.155 259.356 148.995C258.548 148.681 258 148.368 257.712 148.055C257.429 147.742 257.287 147.336 257.287 146.836C257.287 146.236 257.528 145.77 258.011 145.44C258.497 145.106 259.158 144.938 259.991 144.938C260.816 144.938 261.597 145.106 262.333 145.44L261.851 146.563C261.094 146.25 260.457 146.094 259.94 146.094C259.153 146.094 258.76 146.318 258.76 146.767C258.76 146.987 258.861 147.173 259.064 147.325C259.272 147.478 259.72 147.687 260.41 147.954C260.99 148.178 261.411 148.383 261.673 148.569C261.936 148.756 262.13 148.971 262.257 149.217C262.384 149.458 262.448 149.748 262.448 150.086Z" fill="white"/>
<path d="M6.98242 36.3008L6.05566 33.7236H2.50732L1.59961 36.3008H0L3.47217 26.9824H5.12256L8.59473 36.3008H6.98242ZM5.65576 32.416L4.78613 29.8896C4.72266 29.7204 4.63379 29.4538 4.51953 29.0898C4.40951 28.7259 4.33333 28.4593 4.29102 28.29C4.17676 28.8105 4.0096 29.3797 3.78955 29.9976L2.95166 32.416H5.65576ZM14.7681 28.1885C13.8963 28.1885 13.2108 28.4974 12.7114 29.1152C12.2121 29.7331 11.9624 30.5858 11.9624 31.6733C11.9624 32.8117 12.2015 33.6729 12.6797 34.2568C13.1621 34.8408 13.8582 35.1328 14.7681 35.1328C15.1616 35.1328 15.5425 35.0947 15.9106 35.0186C16.2788 34.9382 16.6618 34.8366 17.0596 34.7139V36.0151C16.3317 36.2902 15.5065 36.4277 14.584 36.4277C13.2256 36.4277 12.1825 36.0173 11.4546 35.1963C10.7267 34.3711 10.3628 33.1925 10.3628 31.6606C10.3628 30.6958 10.5384 29.8516 10.8896 29.1279C11.2451 28.4043 11.7572 27.8499 12.4258 27.4648C13.0944 27.0798 13.8794 26.8872 14.7808 26.8872C15.7287 26.8872 16.6047 27.0861 17.4087 27.4839L16.8628 28.7471C16.5496 28.599 16.2174 28.4699 15.8662 28.3599C15.5192 28.2456 15.1532 28.1885 14.7681 28.1885ZM23.2646 36.3008H21.7476V28.3218H19.0181V27.0205H25.9941V28.3218H23.2646V36.3008ZM28.4224 36.3008V27.0205H29.9395V36.3008H28.4224ZM38.6836 27.0205H40.2578L37.0078 36.3008H35.4082L32.1709 27.0205H33.7324L35.6685 32.7905C35.77 33.0656 35.8779 33.4211 35.9922 33.8569C36.1064 34.2886 36.1805 34.6102 36.2144 34.8218C36.2694 34.5002 36.354 34.1278 36.4683 33.7046C36.5825 33.2814 36.6756 32.9683 36.7476 32.7651L38.6836 27.0205ZM47.7324 36.3008H42.4829V27.0205H47.7324V28.3027H44V30.8291H47.4976V32.0986H44V35.0122H47.7324V36.3008Z" fill="#A4A8B9"/>
<path d="M7.36963 5.82617C7.36963 6.79525 7.05225 7.53792 6.41748 8.0542C5.78271 8.57048 4.87923 8.82861 3.70703 8.82861H2.74219V12.3008H1.2251V3.02051H3.89746C5.05697 3.02051 5.92448 3.25749 6.5 3.73145C7.07975 4.2054 7.36963 4.90365 7.36963 5.82617ZM2.74219 7.55273H3.54834C4.32699 7.55273 4.89827 7.41732 5.26221 7.14648C5.62614 6.87565 5.80811 6.45247 5.80811 5.87695C5.80811 5.34375 5.64518 4.94596 5.31934 4.68359C4.99349 4.42122 4.48568 4.29004 3.7959 4.29004H2.74219V7.55273ZM11.7402 7.33691H12.7939C13.5007 7.33691 14.0127 7.20573 14.3301 6.94336C14.6475 6.68099 14.8062 6.29167 14.8062 5.77539C14.8062 5.25065 14.6348 4.87402 14.292 4.64551C13.9492 4.41699 13.4329 4.30273 12.7432 4.30273H11.7402V7.33691ZM11.7402 8.59375V12.3008H10.2231V3.02051H12.8447C14.0423 3.02051 14.9289 3.24479 15.5044 3.69336C16.0799 4.14193 16.3677 4.81901 16.3677 5.72461C16.3677 6.87988 15.7668 7.70296 14.5649 8.19385L17.1865 12.3008H15.46L13.2383 8.59375H11.7402ZM19.5386 12.3008V3.02051H21.0557V12.3008H19.5386ZM28.5239 12.3008L25.8325 4.55029H25.7817C25.8537 5.70133 25.8896 6.78044 25.8896 7.7876V12.3008H24.5122V3.02051H26.6514L29.2285 10.4028H29.2666L31.9199 3.02051H34.0654V12.3008H32.6055V7.71143C32.6055 7.25016 32.616 6.64925 32.6372 5.90869C32.6626 5.16813 32.6838 4.71956 32.7007 4.56299H32.6499L29.8633 12.3008H28.5239ZM43.2666 12.3008L42.3398 9.72363H38.7915L37.8838 12.3008H36.2842L39.7563 2.98242H41.4067L44.8789 12.3008H43.2666ZM41.9399 8.41602L41.0703 5.88965C41.0068 5.72038 40.918 5.45378 40.8037 5.08984C40.6937 4.72591 40.6175 4.45931 40.5752 4.29004C40.4609 4.81055 40.2938 5.37972 40.0737 5.99756L39.2358 8.41602H41.9399ZM48.6211 7.33691H49.6748C50.3815 7.33691 50.8936 7.20573 51.2109 6.94336C51.5283 6.68099 51.687 6.29167 51.687 5.77539C51.687 5.25065 51.5156 4.87402 51.1729 4.64551C50.8301 4.41699 50.3138 4.30273 49.624 4.30273H48.6211V7.33691ZM48.6211 8.59375V12.3008H47.104V3.02051H49.7256C50.9232 3.02051 51.8097 3.24479 52.3853 3.69336C52.9608 4.14193 53.2485 4.81901 53.2485 5.72461C53.2485 6.87988 52.6476 7.70296 51.4458 8.19385L54.0674 12.3008H52.3408L50.1191 8.59375H48.6211ZM59.041 7.25439L61.2373 3.02051H62.8877L59.7964 8.70166V12.3008H58.2729V8.75244L55.1943 3.02051H56.8447L59.041 7.25439ZM69.4897 3.02051H72.2446C73.5226 3.02051 74.4451 3.20671 75.0122 3.5791C75.5835 3.9515 75.8691 4.53971 75.8691 5.34375C75.8691 5.88542 75.7295 6.3361 75.4502 6.6958C75.1709 7.0555 74.7689 7.2819 74.2441 7.375V7.43848C74.8958 7.5612 75.374 7.80452 75.6787 8.16846C75.9876 8.52816 76.1421 9.01693 76.1421 9.63477C76.1421 10.4684 75.8501 11.1222 75.2661 11.5962C74.6864 12.0659 73.8781 12.3008 72.8413 12.3008H69.4897V3.02051ZM71.0068 6.85449H72.4668C73.1016 6.85449 73.5649 6.75505 73.8569 6.55615C74.1489 6.35303 74.2949 6.01025 74.2949 5.52783C74.2949 5.09196 74.1362 4.77669 73.8188 4.58203C73.5057 4.38737 73.0063 4.29004 72.3208 4.29004H71.0068V6.85449ZM71.0068 8.08594V11.0249H72.6191C73.2539 11.0249 73.7321 10.9043 74.0537 10.6631C74.3796 10.4176 74.5425 10.0326 74.5425 9.50781C74.5425 9.02539 74.3774 8.66781 74.0474 8.43506C73.7173 8.20231 73.2158 8.08594 72.543 8.08594H71.0068ZM86.3462 3.02051V9.02539C86.3462 9.71094 86.1981 10.3118 85.9019 10.8281C85.6099 11.3402 85.1846 11.7358 84.626 12.0151C84.0716 12.2902 83.4072 12.4277 82.6328 12.4277C81.4818 12.4277 80.5868 12.123 79.9478 11.5137C79.3088 10.9043 78.9893 10.0664 78.9893 9V3.02051H80.5127V8.89209C80.5127 9.65804 80.6904 10.223 81.0459 10.5869C81.4014 10.9508 81.9473 11.1328 82.6836 11.1328C84.1139 11.1328 84.8291 10.3817 84.8291 8.87939V3.02051H86.3462ZM92.9258 12.3008H91.4087V4.32178H88.6792V3.02051H95.6553V4.32178H92.9258V12.3008ZM101.289 12.3008H99.772V4.32178H97.0425V3.02051H104.019V4.32178H101.289V12.3008ZM114.686 7.64795C114.686 9.15869 114.307 10.333 113.55 11.1709C112.797 12.0088 111.728 12.4277 110.344 12.4277C108.944 12.4277 107.867 12.013 107.113 11.1836C106.364 10.3499 105.99 9.16715 105.99 7.63525C105.99 6.10335 106.366 4.92692 107.12 4.10596C107.877 3.28499 108.956 2.87451 110.357 2.87451C111.736 2.87451 112.803 3.29134 113.556 4.125C114.309 4.95866 114.686 6.13298 114.686 7.64795ZM107.602 7.64795C107.602 8.79053 107.833 9.65804 108.294 10.2505C108.755 10.8387 109.439 11.1328 110.344 11.1328C111.246 11.1328 111.925 10.8408 112.382 10.2568C112.843 9.67285 113.074 8.80322 113.074 7.64795C113.074 6.5096 112.845 5.64632 112.388 5.05811C111.935 4.46989 111.258 4.17578 110.357 4.17578C109.447 4.17578 108.759 4.46989 108.294 5.05811C107.833 5.64632 107.602 6.5096 107.602 7.64795ZM125.411 12.3008H123.551L118.987 4.90576H118.936L118.968 5.31836C119.027 6.10547 119.057 6.82487 119.057 7.47656V12.3008H117.679V3.02051H119.52L124.071 10.3774H124.109C124.101 10.2801 124.084 9.92676 124.059 9.31738C124.033 8.70378 124.021 8.22559 124.021 7.88281V3.02051H125.411V12.3008Z" fill="#A4A8B9"/>
<path d="M8.54395 116.301H7.02051V112.118H2.74219V116.301H1.2251V107.021H2.74219V110.816H7.02051V107.021H8.54395V116.301ZM20.2271 111.648C20.2271 113.159 19.8483 114.333 19.0908 115.171C18.3376 116.009 17.269 116.428 15.8853 116.428C14.4845 116.428 13.4076 116.013 12.6543 115.184C11.9053 114.35 11.5308 113.167 11.5308 111.635C11.5308 110.103 11.9074 108.927 12.6606 108.106C13.4181 107.285 14.4972 106.875 15.8979 106.875C17.2775 106.875 18.3439 107.291 19.0972 108.125C19.8504 108.959 20.2271 110.133 20.2271 111.648ZM13.1431 111.648C13.1431 112.791 13.3737 113.658 13.835 114.25C14.2962 114.839 14.9797 115.133 15.8853 115.133C16.7866 115.133 17.4658 114.841 17.9229 114.257C18.3841 113.673 18.6147 112.803 18.6147 111.648C18.6147 110.51 18.3862 109.646 17.9292 109.058C17.4764 108.47 16.7993 108.176 15.8979 108.176C14.9881 108.176 14.3005 108.47 13.835 109.058C13.3737 109.646 13.1431 110.51 13.1431 111.648ZM28.5078 107.021H30.082L26.832 116.301H25.2324L21.9951 107.021H23.5566L25.4927 112.791C25.5942 113.066 25.7021 113.421 25.8164 113.857C25.9307 114.289 26.0047 114.61 26.0386 114.822C26.0936 114.5 26.1782 114.128 26.2925 113.705C26.4067 113.281 26.4998 112.968 26.5718 112.765L28.5078 107.021ZM37.5566 116.301H32.3071V107.021H37.5566V108.303H33.8242V110.829H37.3218V112.099H33.8242V115.012H37.5566V116.301ZM42.0859 111.337H43.1396C43.8464 111.337 44.3584 111.206 44.6758 110.943C44.9932 110.681 45.1519 110.292 45.1519 109.775C45.1519 109.251 44.9805 108.874 44.6377 108.646C44.2949 108.417 43.7786 108.303 43.0889 108.303H42.0859V111.337ZM42.0859 112.594V116.301H40.5688V107.021H43.1904C44.388 107.021 45.2746 107.245 45.8501 107.693C46.4256 108.142 46.7134 108.819 46.7134 109.725C46.7134 110.88 46.1125 111.703 44.9106 112.194L47.5322 116.301H45.8057L43.584 112.594H42.0859Z" fill="#A4A8B9"/>
<path d="M8.77246 191.572C8.77246 193.104 8.34717 194.276 7.49658 195.088C6.646 195.897 5.4209 196.301 3.82129 196.301H1.2251V187.021H4.09424C5.57113 187.021 6.72005 187.418 7.54102 188.214C8.36198 189.009 8.77246 190.129 8.77246 191.572ZM7.17285 191.623C7.17285 189.401 6.13395 188.29 4.05615 188.29H2.74219V195.025H3.82129C6.05566 195.025 7.17285 193.891 7.17285 191.623ZM11.772 196.301V187.021H13.2891V196.301H11.772ZM22.0967 193.781C22.0967 194.606 21.7983 195.253 21.2017 195.723C20.605 196.193 19.7819 196.428 18.7324 196.428C17.6829 196.428 16.8239 196.265 16.1553 195.939V194.504C16.5785 194.703 17.027 194.86 17.501 194.974C17.9792 195.088 18.4235 195.146 18.834 195.146C19.4349 195.146 19.8771 195.031 20.1606 194.803C20.4484 194.574 20.5923 194.267 20.5923 193.882C20.5923 193.535 20.4611 193.241 20.1987 193C19.9364 192.759 19.3947 192.473 18.5737 192.143C17.7274 191.8 17.1307 191.409 16.7837 190.969C16.4367 190.529 16.2632 190 16.2632 189.382C16.2632 188.607 16.5382 187.998 17.0884 187.554C17.6385 187.109 18.377 186.887 19.3037 186.887C20.1924 186.887 21.0768 187.082 21.957 187.471L21.4746 188.709C20.6494 188.362 19.9131 188.188 19.2656 188.188C18.7747 188.188 18.4023 188.296 18.1484 188.512C17.8945 188.724 17.7676 189.005 17.7676 189.356C17.7676 189.598 17.8184 189.805 17.9199 189.979C18.0215 190.148 18.1886 190.309 18.4214 190.461C18.6541 190.613 19.0731 190.814 19.6782 191.064C20.3595 191.347 20.8589 191.612 21.1763 191.857C21.4937 192.103 21.7264 192.38 21.8745 192.689C22.0226 192.998 22.0967 193.362 22.0967 193.781ZM30.6504 196.301L29.7236 193.724H26.1753L25.2676 196.301H23.668L27.1401 186.982H28.7905L32.2627 196.301H30.6504ZM29.3237 192.416L28.4541 189.89C28.3906 189.72 28.3018 189.454 28.1875 189.09C28.0775 188.726 28.0013 188.459 27.959 188.29C27.8447 188.811 27.6776 189.38 27.4575 189.998L26.6196 192.416H29.3237ZM34.4878 187.021H37.2427C38.5207 187.021 39.4432 187.207 40.0103 187.579C40.5815 187.951 40.8672 188.54 40.8672 189.344C40.8672 189.885 40.7275 190.336 40.4482 190.696C40.1689 191.056 39.7669 191.282 39.2422 191.375V191.438C39.8939 191.561 40.3721 191.805 40.6768 192.168C40.9857 192.528 41.1401 193.017 41.1401 193.635C41.1401 194.468 40.8481 195.122 40.2642 195.596C39.6844 196.066 38.8761 196.301 37.8394 196.301H34.4878V187.021ZM36.0049 190.854H37.4648C38.0996 190.854 38.563 190.755 38.855 190.556C39.147 190.353 39.293 190.01 39.293 189.528C39.293 189.092 39.1343 188.777 38.8169 188.582C38.5037 188.387 38.0044 188.29 37.3188 188.29H36.0049V190.854ZM36.0049 192.086V195.025H37.6172C38.252 195.025 38.7301 194.904 39.0518 194.663C39.3776 194.418 39.5405 194.033 39.5405 193.508C39.5405 193.025 39.3755 192.668 39.0454 192.435C38.7153 192.202 38.2139 192.086 37.541 192.086H36.0049ZM44.0698 196.301V187.021H45.5869V195H49.5161V196.301H44.0698ZM57.3652 196.301H52.1157V187.021H57.3652V188.303H53.6328V190.829H57.1304V192.099H53.6328V195.012H57.3652V196.301ZM67.9248 191.572C67.9248 193.104 67.4995 194.276 66.6489 195.088C65.7983 195.897 64.5732 196.301 62.9736 196.301H60.3774V187.021H63.2466C64.7235 187.021 65.8724 187.418 66.6934 188.214C67.5143 189.009 67.9248 190.129 67.9248 191.572ZM66.3252 191.623C66.3252 189.401 65.2863 188.29 63.2085 188.29H61.8945V195.025H62.9736C65.208 195.025 66.3252 193.891 66.3252 191.623Z" fill="#A4A8B9"/>
<path d="M182.982 36.3008L182.056 33.7236H178.507L177.6 36.3008H176L179.472 26.9824H181.123L184.595 36.3008H182.982ZM181.656 32.416L180.786 29.8896C180.723 29.7204 180.634 29.4538 180.52 29.0898C180.41 28.7259 180.333 28.4593 180.291 28.29C180.177 28.8105 180.01 29.3797 179.79 29.9976L178.952 32.416H181.656ZM190.768 28.1885C189.896 28.1885 189.211 28.4974 188.711 29.1152C188.212 29.7331 187.962 30.5858 187.962 31.6733C187.962 32.8117 188.201 33.6729 188.68 34.2568C189.162 34.8408 189.858 35.1328 190.768 35.1328C191.162 35.1328 191.542 35.0947 191.911 35.0186C192.279 34.9382 192.662 34.8366 193.06 34.7139V36.0151C192.332 36.2902 191.507 36.4277 190.584 36.4277C189.226 36.4277 188.182 36.0173 187.455 35.1963C186.727 34.3711 186.363 33.1925 186.363 31.6606C186.363 30.6958 186.538 29.8516 186.89 29.1279C187.245 28.4043 187.757 27.8499 188.426 27.4648C189.094 27.0798 189.879 26.8872 190.781 26.8872C191.729 26.8872 192.605 27.0861 193.409 27.4839L192.863 28.7471C192.55 28.599 192.217 28.4699 191.866 28.3599C191.519 28.2456 191.153 28.1885 190.768 28.1885ZM199.265 36.3008H197.748V28.3218H195.018V27.0205H201.994V28.3218H199.265V36.3008ZM204.422 36.3008V27.0205H205.939V36.3008H204.422ZM214.684 27.0205H216.258L213.008 36.3008H211.408L208.171 27.0205H209.732L211.668 32.7905C211.77 33.0656 211.878 33.4211 211.992 33.8569C212.106 34.2886 212.181 34.6102 212.214 34.8218C212.269 34.5002 212.354 34.1278 212.468 33.7046C212.583 33.2814 212.676 32.9683 212.748 32.7651L214.684 27.0205ZM223.732 36.3008H218.483V27.0205H223.732V28.3027H220V30.8291H223.498V32.0986H220V35.0122H223.732V36.3008Z" fill="#A4A8B9"/>
<path d="M184.544 116.301H183.021V112.118H178.742V116.301H177.225V107.021H178.742V110.816H183.021V107.021H184.544V116.301ZM196.227 111.648C196.227 113.159 195.848 114.333 195.091 115.171C194.338 116.009 193.269 116.428 191.885 116.428C190.485 116.428 189.408 116.013 188.654 115.184C187.905 114.35 187.531 113.167 187.531 111.635C187.531 110.103 187.907 108.927 188.661 108.106C189.418 107.285 190.497 106.875 191.898 106.875C193.278 106.875 194.344 107.291 195.097 108.125C195.85 108.959 196.227 110.133 196.227 111.648ZM189.143 111.648C189.143 112.791 189.374 113.658 189.835 114.25C190.296 114.839 190.98 115.133 191.885 115.133C192.787 115.133 193.466 114.841 193.923 114.257C194.384 113.673 194.615 112.803 194.615 111.648C194.615 110.51 194.386 109.646 193.929 109.058C193.476 108.47 192.799 108.176 191.898 108.176C190.988 108.176 190.3 108.47 189.835 109.058C189.374 109.646 189.143 110.51 189.143 111.648ZM204.508 107.021H206.082L202.832 116.301H201.232L197.995 107.021H199.557L201.493 112.791C201.594 113.066 201.702 113.421 201.816 113.857C201.931 114.289 202.005 114.61 202.039 114.822C202.094 114.5 202.178 114.128 202.292 113.705C202.407 113.281 202.5 112.968 202.572 112.765L204.508 107.021ZM213.557 116.301H208.307V107.021H213.557V108.303H209.824V110.829H213.322V112.099H209.824V115.012H213.557V116.301ZM218.086 111.337H219.14C219.846 111.337 220.358 111.206 220.676 110.943C220.993 110.681 221.152 110.292 221.152 109.775C221.152 109.251 220.98 108.874 220.638 108.646C220.295 108.417 219.779 108.303 219.089 108.303H218.086V111.337ZM218.086 112.594V116.301H216.569V107.021H219.19C220.388 107.021 221.275 107.245 221.85 107.693C222.426 108.142 222.713 108.819 222.713 109.725C222.713 110.88 222.112 111.703 220.911 112.194L223.532 116.301H221.806L219.584 112.594H218.086Z" fill="#A4A8B9"/>
<rect y="50.3008" width="128" height="32" rx="4" fill="url(#paint2_linear_3543_2399)"/>
<path d="M49.6377 70.0156L48.9131 67.6367H45.2695L44.5449 70.0156H42.2617L45.7891 59.9805H48.3799L51.9209 70.0156H49.6377ZM48.4072 65.8594L47.6826 63.5352C47.637 63.3802 47.5755 63.182 47.498 62.9404C47.4251 62.6943 47.3499 62.446 47.2725 62.1953C47.1995 61.9401 47.1403 61.7191 47.0947 61.5322C47.0492 61.7191 46.9854 61.9515 46.9033 62.2295C46.8258 62.5029 46.7507 62.7627 46.6777 63.0088C46.6048 63.2549 46.5524 63.4303 46.5205 63.5352L45.8027 65.8594H48.4072ZM56.125 70.1523C55.3685 70.1523 54.7236 70.0156 54.1904 69.7422C53.6572 69.4642 53.2516 69.0358 52.9736 68.457C52.6956 67.8783 52.5566 67.1377 52.5566 66.2354C52.5566 65.3011 52.7139 64.54 53.0283 63.9521C53.3473 63.3597 53.7871 62.9245 54.3477 62.6465C54.9128 62.3685 55.5667 62.2295 56.3096 62.2295C56.8382 62.2295 57.2939 62.2819 57.6768 62.3867C58.0641 62.487 58.4014 62.6077 58.6885 62.749L58.0732 64.3623C57.7451 64.2301 57.4398 64.123 57.1572 64.041C56.8747 63.9544 56.5921 63.9111 56.3096 63.9111C55.945 63.9111 55.6419 63.9977 55.4004 64.1709C55.1589 64.3395 54.9788 64.5947 54.8604 64.9365C54.7419 65.2783 54.6826 65.7067 54.6826 66.2217C54.6826 66.7275 54.7464 67.1468 54.874 67.4795C55.0016 67.8122 55.1862 68.0605 55.4277 68.2246C55.6693 68.3841 55.9632 68.4639 56.3096 68.4639C56.7425 68.4639 57.1276 68.4069 57.4648 68.293C57.8021 68.1745 58.1302 68.0104 58.4492 67.8008V69.585C58.1302 69.7855 57.7952 69.929 57.4443 70.0156C57.098 70.1068 56.6582 70.1523 56.125 70.1523ZM63.4463 68.4912C63.6742 68.4912 63.8952 68.4684 64.1094 68.4229C64.3281 68.3773 64.5446 68.3203 64.7588 68.252V69.8037C64.5355 69.904 64.2575 69.986 63.9248 70.0498C63.5967 70.1182 63.2367 70.1523 62.8447 70.1523C62.389 70.1523 61.9788 70.0794 61.6143 69.9336C61.2542 69.7832 60.9694 69.5257 60.7598 69.1611C60.5547 68.792 60.4521 68.2793 60.4521 67.623V63.9385H59.4541V63.0566L60.6025 62.3594L61.2041 60.7461H62.5371V62.373H64.6768V63.9385H62.5371V67.623C62.5371 67.9147 62.6191 68.1335 62.7832 68.2793C62.9518 68.4206 63.1729 68.4912 63.4463 68.4912ZM68.3955 62.373V70.0156H66.3105V62.373H68.3955ZM67.3564 59.3789C67.6663 59.3789 67.9329 59.4518 68.1562 59.5977C68.3796 59.7389 68.4912 60.0055 68.4912 60.3975C68.4912 60.7848 68.3796 61.0537 68.1562 61.2041C67.9329 61.3499 67.6663 61.4229 67.3564 61.4229C67.042 61.4229 66.7731 61.3499 66.5498 61.2041C66.3311 61.0537 66.2217 60.7848 66.2217 60.3975C66.2217 60.0055 66.3311 59.7389 66.5498 59.5977C66.7731 59.4518 67.042 59.3789 67.3564 59.3789ZM72.4082 70.0156L69.4961 62.373H71.6768L73.1533 66.7275C73.2354 66.9827 73.2992 67.2516 73.3447 67.5342C73.3949 67.8167 73.429 68.0697 73.4473 68.293H73.502C73.5156 68.0514 73.5475 67.7939 73.5977 67.5205C73.6523 67.2471 73.723 66.9827 73.8096 66.7275L75.2793 62.373H77.46L74.5479 70.0156H72.4082ZM81.7119 62.2295C82.4183 62.2295 83.0267 62.3662 83.5371 62.6396C84.0475 62.9085 84.4417 63.3005 84.7197 63.8154C84.9977 64.3304 85.1367 64.9593 85.1367 65.7021V66.7139H80.208C80.2308 67.3018 80.4062 67.7643 80.7344 68.1016C81.0671 68.4342 81.5273 68.6006 82.1152 68.6006C82.6029 68.6006 83.0495 68.5505 83.4551 68.4502C83.8607 68.3499 84.2777 68.1995 84.7061 67.999V69.6123C84.3278 69.7992 83.9313 69.9359 83.5166 70.0225C83.1064 70.109 82.6074 70.1523 82.0195 70.1523C81.2539 70.1523 80.5749 70.0111 79.9824 69.7285C79.3945 69.446 78.932 69.0153 78.5947 68.4365C78.262 67.8577 78.0957 67.1286 78.0957 66.249C78.0957 65.3558 78.2461 64.613 78.5469 64.0205C78.8522 63.4235 79.276 62.9769 79.8184 62.6807C80.3607 62.3799 80.9919 62.2295 81.7119 62.2295ZM81.7256 63.7129C81.32 63.7129 80.9827 63.8428 80.7139 64.1025C80.4495 64.3623 80.2969 64.7702 80.2559 65.3262H83.1816C83.1771 65.0163 83.1201 64.7406 83.0107 64.499C82.9059 64.2575 82.7464 64.0661 82.5322 63.9248C82.3226 63.7835 82.0537 63.7129 81.7256 63.7129Z" fill="white"/>
<rect opacity="0.6" x="0.5" y="212.801" width="127" height="31" rx="3.5" stroke="#A4A8B9"/>
<path opacity="0.6" d="M45.4551 226.923C45.4551 228.049 45.25 228.99 44.8398 229.746C44.4297 230.498 43.835 231.065 43.0557 231.448C42.2809 231.826 41.3398 232.016 40.2324 232.016H37.5186V222.021H40.5332C41.5495 222.021 42.4245 222.208 43.1582 222.582C43.8919 222.951 44.457 223.5 44.8535 224.229C45.2546 224.954 45.4551 225.852 45.4551 226.923ZM44.2314 226.964C44.2314 226.066 44.0811 225.326 43.7803 224.742C43.484 224.159 43.0465 223.726 42.4678 223.443C41.8936 223.156 41.1895 223.013 40.3555 223.013H38.6807V231.018H40.0957C41.472 231.018 42.5042 230.678 43.1924 229.999C43.8851 229.32 44.2314 228.308 44.2314 226.964ZM48.6406 224.523V232.016H47.5059V224.523H48.6406ZM48.0869 221.721C48.2738 221.721 48.4333 221.782 48.5654 221.905C48.7021 222.024 48.7705 222.211 48.7705 222.466C48.7705 222.716 48.7021 222.903 48.5654 223.026C48.4333 223.149 48.2738 223.211 48.0869 223.211C47.891 223.211 47.7269 223.149 47.5947 223.026C47.4671 222.903 47.4033 222.716 47.4033 222.466C47.4033 222.211 47.4671 222.024 47.5947 221.905C47.7269 221.782 47.891 221.721 48.0869 221.721ZM55.8936 229.965C55.8936 230.443 55.7728 230.847 55.5312 231.175C55.2943 231.498 54.9525 231.742 54.5059 231.906C54.0638 232.07 53.5352 232.152 52.9199 232.152C52.3958 232.152 51.9424 232.111 51.5596 232.029C51.1768 231.947 50.8418 231.831 50.5547 231.681V230.635C50.86 230.785 51.2246 230.922 51.6484 231.045C52.0723 231.168 52.5052 231.229 52.9473 231.229C53.5944 231.229 54.0638 231.125 54.3555 230.915C54.6471 230.705 54.793 230.421 54.793 230.061C54.793 229.855 54.7337 229.675 54.6152 229.521C54.5013 229.361 54.3076 229.208 54.0342 229.062C53.7607 228.912 53.3825 228.748 52.8994 228.57C52.4209 228.388 52.0062 228.208 51.6553 228.03C51.3089 227.848 51.04 227.627 50.8486 227.367C50.6618 227.107 50.5684 226.77 50.5684 226.355C50.5684 225.722 50.8236 225.237 51.334 224.899C51.849 224.558 52.5234 224.387 53.3574 224.387C53.8086 224.387 54.2301 224.432 54.6221 224.523C55.0186 224.61 55.3877 224.729 55.7295 224.879L55.3467 225.788C55.0368 225.656 54.7064 225.544 54.3555 225.453C54.0046 225.362 53.6468 225.316 53.2822 225.316C52.7581 225.316 52.3548 225.403 52.0723 225.576C51.7943 225.749 51.6553 225.986 51.6553 226.287C51.6553 226.52 51.7191 226.711 51.8467 226.861C51.9788 227.012 52.1885 227.153 52.4756 227.285C52.7627 227.417 53.141 227.572 53.6104 227.75C54.0798 227.923 54.4854 228.103 54.8271 228.29C55.1689 228.472 55.431 228.696 55.6133 228.96C55.8001 229.22 55.8936 229.555 55.8936 229.965ZM60.5215 224.4C61.4147 224.4 62.0778 224.601 62.5107 225.002C62.9437 225.403 63.1602 226.043 63.1602 226.923V232.016H62.333L62.1143 230.908H62.0596C61.8499 231.182 61.6312 231.412 61.4033 231.599C61.1755 231.781 60.9111 231.92 60.6104 232.016C60.3141 232.107 59.9495 232.152 59.5166 232.152C59.0609 232.152 58.6553 232.073 58.2998 231.913C57.9489 231.754 57.6709 231.512 57.4658 231.188C57.2653 230.865 57.165 230.455 57.165 229.958C57.165 229.211 57.4613 228.636 58.0537 228.235C58.6462 227.834 59.5485 227.616 60.7607 227.579L62.0527 227.524V227.066C62.0527 226.419 61.9137 225.966 61.6357 225.706C61.3577 225.446 60.9658 225.316 60.46 225.316C60.068 225.316 59.6943 225.373 59.3389 225.487C58.9834 225.601 58.6462 225.736 58.3271 225.891L57.9785 225.029C58.3158 224.856 58.7031 224.708 59.1406 224.585C59.5781 224.462 60.0384 224.4 60.5215 224.4ZM62.0391 228.324L60.8975 228.372C59.9632 228.409 59.3047 228.561 58.9219 228.83C58.5391 229.099 58.3477 229.479 58.3477 229.972C58.3477 230.4 58.4775 230.717 58.7373 230.922C58.9971 231.127 59.3411 231.229 59.7695 231.229C60.4349 231.229 60.9795 231.045 61.4033 230.676C61.8271 230.307 62.0391 229.753 62.0391 229.015V228.324ZM66.6328 221.379V224.038C66.6328 224.343 66.6237 224.64 66.6055 224.927C66.5918 225.214 66.5804 225.437 66.5713 225.597H66.6328C66.8379 225.259 67.1341 224.975 67.5215 224.742C67.9089 224.51 68.4033 224.394 69.0049 224.394C69.9437 224.394 70.6911 224.719 71.2471 225.371C71.8076 226.018 72.0879 226.982 72.0879 228.263C72.0879 229.106 71.9603 229.817 71.7051 230.396C71.4499 230.974 71.0898 231.412 70.625 231.708C70.1602 232.004 69.611 232.152 68.9775 232.152C68.3851 232.152 67.8975 232.043 67.5146 231.824C67.1364 231.601 66.8447 231.33 66.6396 231.011H66.5508L66.3184 232.016H65.498V221.379H66.6328ZM68.8203 225.344C68.278 225.344 67.8473 225.451 67.5283 225.665C67.2093 225.875 66.9792 226.194 66.8379 226.622C66.7012 227.046 66.6328 227.584 66.6328 228.235V228.297C66.6328 229.24 66.79 229.963 67.1045 230.464C67.4189 230.961 67.9909 231.209 68.8203 231.209C69.5176 231.209 70.0394 230.954 70.3857 230.443C70.7367 229.933 70.9121 229.204 70.9121 228.256C70.9121 227.29 70.7389 226.563 70.3926 226.075C70.0508 225.588 69.5267 225.344 68.8203 225.344ZM75.2119 232.016H74.0703V221.379H75.2119V232.016ZM80.4961 224.387C81.1341 224.387 81.681 224.528 82.1367 224.811C82.5924 225.093 82.9411 225.49 83.1826 226C83.4242 226.506 83.5449 227.098 83.5449 227.777V228.481H78.3701C78.3838 229.361 78.6025 230.031 79.0264 230.491C79.4502 230.951 80.0472 231.182 80.8174 231.182C81.2913 231.182 81.7106 231.138 82.0752 231.052C82.4398 230.965 82.818 230.838 83.21 230.669V231.667C82.8317 231.836 82.4557 231.959 82.082 232.036C81.7129 232.114 81.2754 232.152 80.7695 232.152C80.0495 232.152 79.4206 232.007 78.8828 231.715C78.3496 231.419 77.9349 230.986 77.6387 230.416C77.3424 229.846 77.1943 229.149 77.1943 228.324C77.1943 227.518 77.3288 226.82 77.5977 226.232C77.8711 225.64 78.2539 225.184 78.7461 224.865C79.2428 224.546 79.8262 224.387 80.4961 224.387ZM80.4824 225.316C79.8763 225.316 79.3932 225.515 79.0332 225.911C78.6732 226.308 78.459 226.861 78.3906 227.572H82.3555C82.3509 227.126 82.2803 226.734 82.1436 226.396C82.0114 226.055 81.8086 225.79 81.5352 225.604C81.2617 225.412 80.9108 225.316 80.4824 225.316ZM88.1387 232.152C87.1908 232.152 86.4388 231.829 85.8828 231.182C85.3314 230.535 85.0557 229.573 85.0557 228.297C85.0557 227.007 85.3382 226.034 85.9033 225.378C86.4684 224.717 87.2204 224.387 88.1592 224.387C88.5557 224.387 88.902 224.439 89.1982 224.544C89.4945 224.649 89.7497 224.79 89.9639 224.968C90.1781 225.141 90.3581 225.339 90.5039 225.562H90.5859C90.5677 225.421 90.5495 225.228 90.5312 224.981C90.513 224.735 90.5039 224.535 90.5039 224.38V221.379H91.6387V232.016H90.7227L90.5518 230.949H90.5039C90.3626 231.173 90.1826 231.375 89.9639 231.558C89.7497 231.74 89.4922 231.886 89.1914 231.995C88.8952 232.1 88.5443 232.152 88.1387 232.152ZM88.3164 231.209C89.1185 231.209 89.6859 230.981 90.0186 230.525C90.3512 230.07 90.5176 229.393 90.5176 228.495V228.29C90.5176 227.338 90.3581 226.606 90.0391 226.096C89.7246 225.585 89.1504 225.33 88.3164 225.33C87.6191 225.33 87.0973 225.599 86.751 226.137C86.4046 226.67 86.2314 227.399 86.2314 228.324C86.2314 229.245 86.4023 229.956 86.7441 230.457C87.0905 230.958 87.6146 231.209 88.3164 231.209Z" fill="white"/>
<rect y="132.301" width="128" height="32" rx="4" fill="#4E586E" fill-opacity="0.5"/>
<rect x="0.75" y="133.051" width="126.5" height="30.5" rx="3.25" stroke="#A4A8B9" stroke-opacity="0.6" stroke-width="1.5"/>
<path d="M53.2744 152.016H52.1123V147.306H46.8623V152.016H45.7002V142.021H46.8623V146.28H52.1123V142.021H53.2744V152.016ZM62.3115 148.256C62.3115 148.871 62.2318 149.42 62.0723 149.903C61.9128 150.386 61.6826 150.794 61.3818 151.127C61.0811 151.46 60.7165 151.715 60.2881 151.893C59.8643 152.066 59.3835 152.152 58.8457 152.152C58.3444 152.152 57.8841 152.066 57.4648 151.893C57.0501 151.715 56.6901 151.46 56.3848 151.127C56.084 150.794 55.8493 150.386 55.6807 149.903C55.5166 149.42 55.4346 148.871 55.4346 148.256C55.4346 147.436 55.5736 146.738 55.8516 146.164C56.1296 145.585 56.526 145.146 57.041 144.845C57.5605 144.539 58.1781 144.387 58.8936 144.387C59.5771 144.387 60.1742 144.539 60.6846 144.845C61.1995 145.15 61.5983 145.592 61.8809 146.171C62.168 146.745 62.3115 147.44 62.3115 148.256ZM56.6104 148.256C56.6104 148.857 56.6901 149.379 56.8496 149.821C57.0091 150.263 57.2552 150.605 57.5879 150.847C57.9206 151.088 58.349 151.209 58.873 151.209C59.3926 151.209 59.8187 151.088 60.1514 150.847C60.4886 150.605 60.737 150.263 60.8965 149.821C61.056 149.379 61.1357 148.857 61.1357 148.256C61.1357 147.659 61.056 147.144 60.8965 146.711C60.737 146.273 60.4909 145.936 60.1582 145.699C59.8255 145.462 59.3949 145.344 58.8662 145.344C58.0869 145.344 57.515 145.601 57.1504 146.116C56.7904 146.631 56.6104 147.344 56.6104 148.256ZM65.9209 152.016L63.0771 144.523H64.2939L65.9414 149.056C66.0553 149.366 66.1715 149.707 66.29 150.081C66.4085 150.455 66.4906 150.756 66.5361 150.983H66.584C66.6387 150.756 66.7298 150.455 66.8574 150.081C66.985 149.703 67.1012 149.361 67.2061 149.056L68.8535 144.523H70.0703L67.2197 152.016H65.9209ZM74.1582 144.387C74.7962 144.387 75.3431 144.528 75.7988 144.811C76.2546 145.093 76.6032 145.49 76.8447 146C77.0863 146.506 77.207 147.098 77.207 147.777V148.481H72.0322C72.0459 149.361 72.2646 150.031 72.6885 150.491C73.1123 150.951 73.7093 151.182 74.4795 151.182C74.9535 151.182 75.3727 151.138 75.7373 151.052C76.1019 150.965 76.4801 150.838 76.8721 150.669V151.667C76.4938 151.836 76.1178 151.959 75.7441 152.036C75.375 152.114 74.9375 152.152 74.4316 152.152C73.7116 152.152 73.0827 152.007 72.5449 151.715C72.0117 151.419 71.597 150.986 71.3008 150.416C71.0046 149.846 70.8564 149.149 70.8564 148.324C70.8564 147.518 70.9909 146.82 71.2598 146.232C71.5332 145.64 71.916 145.184 72.4082 144.865C72.9049 144.546 73.4883 144.387 74.1582 144.387ZM74.1445 145.316C73.5384 145.316 73.0553 145.515 72.6953 145.911C72.3353 146.308 72.1211 146.861 72.0527 147.572H76.0176C76.013 147.126 75.9424 146.734 75.8057 146.396C75.6735 146.055 75.4707 145.79 75.1973 145.604C74.9238 145.412 74.5729 145.316 74.1445 145.316ZM82.5391 144.387C82.6895 144.387 82.8467 144.396 83.0107 144.414C83.1748 144.428 83.3206 144.448 83.4482 144.476L83.3047 145.528C83.1816 145.496 83.0449 145.471 82.8945 145.453C82.7441 145.435 82.6029 145.426 82.4707 145.426C82.1699 145.426 81.8851 145.487 81.6162 145.61C81.3519 145.729 81.1195 145.902 80.9189 146.13C80.7184 146.353 80.5612 146.624 80.4473 146.943C80.3333 147.258 80.2764 147.609 80.2764 147.996V152.016H79.1348V144.523H80.0781L80.2012 145.904H80.249C80.404 145.626 80.5908 145.373 80.8096 145.146C81.0283 144.913 81.2812 144.729 81.5684 144.592C81.86 144.455 82.1836 144.387 82.5391 144.387Z" fill="white" fill-opacity="0.8"/>
<defs>
<linearGradient id="paint0_linear_3543_2399" x1="175.859" y1="66.3119" x2="308.144" y2="66.3119" gradientUnits="userSpaceOnUse">
<stop stop-color="#00B7F1"/>
<stop offset="1" stop-color="#007AFF"/>
</linearGradient>
<linearGradient id="paint1_linear_3543_2399" x1="175.859" y1="148.312" x2="308.144" y2="148.312" gradientUnits="userSpaceOnUse">
<stop stop-color="#019ACA"/>
<stop offset="1" stop-color="#005DC1"/>
</linearGradient>
<linearGradient id="paint2_linear_3543_2399" x1="-0.137143" y1="66.3119" x2="128.14" y2="66.3119" gradientUnits="userSpaceOnUse">
<stop stop-color="#00B7F1"/>
<stop offset="1" stop-color="#007AFF"/>
</linearGradient>
</defs>
</svg>
