<svg width="414" height="86" viewBox="0 0 414 86" fill="none" xmlns="http://www.w3.org/2000/svg">
<path d="M4.10938 14.4453H12.1953C15.763 14.4453 18.4453 14.9792 20.2422 16.0469C22.0391 17.1146 22.9375 18.931 22.9375 21.4961C22.9375 22.6029 22.7227 23.599 22.293 24.4844C21.8763 25.3568 21.2643 26.0794 20.457 26.6523C19.6497 27.2253 18.6536 27.6224 17.4688 27.8438V28.0391C18.7188 28.2344 19.8255 28.5924 20.7891 29.1133C21.7526 29.6341 22.5078 30.3633 23.0547 31.3008C23.6016 32.2383 23.875 33.4297 23.875 34.875C23.875 36.6328 23.4648 38.1172 22.6445 39.3281C21.8372 40.5391 20.6914 41.457 19.207 42.082C17.7227 42.694 15.9648 43 13.9336 43H4.10938V14.4453ZM7.42969 26.6914H12.8984C15.3854 26.6914 17.1042 26.2812 18.0547 25.4609C19.0182 24.6406 19.5 23.4427 19.5 21.8672C19.5 20.2396 18.9271 19.0677 17.7812 18.3516C16.6484 17.6354 14.8385 17.2773 12.3516 17.2773H7.42969V26.6914ZM7.42969 29.4844V40.168H13.3672C15.9062 40.168 17.7031 39.6732 18.7578 38.6836C19.8125 37.681 20.3398 36.3333 20.3398 34.6406C20.3398 33.5599 20.099 32.6354 19.6172 31.8672C19.1484 31.099 18.3802 30.513 17.3125 30.1094C16.2578 29.6927 14.8451 29.4844 13.0742 29.4844H7.42969ZM47.1562 21.5938V43H44.5L44.0312 39.9922H43.8555C43.4128 40.7344 42.8398 41.3594 42.1367 41.8672C41.4336 42.375 40.6393 42.7526 39.7539 43C38.8815 43.2604 37.9505 43.3906 36.9609 43.3906C35.2682 43.3906 33.849 43.1172 32.7031 42.5703C31.5573 42.0234 30.6914 41.1771 30.1055 40.0312C29.5326 38.8854 29.2461 37.4141 29.2461 35.6172V21.5938H32.5273V35.3828C32.5273 37.1667 32.931 38.5013 33.7383 39.3867C34.5456 40.2591 35.776 40.6953 37.4297 40.6953C39.0182 40.6953 40.2812 40.3958 41.2188 39.7969C42.1693 39.1979 42.8529 38.319 43.2695 37.1602C43.6862 35.9883 43.8945 34.556 43.8945 32.8633V21.5938H47.1562ZM60.9258 40.7344C61.4596 40.7344 62.0065 40.6888 62.5664 40.5977C63.1263 40.5065 63.582 40.3958 63.9336 40.2656V42.7852C63.556 42.9544 63.0286 43.0977 62.3516 43.2148C61.6875 43.332 61.0365 43.3906 60.3984 43.3906C59.2656 43.3906 58.237 43.1953 57.3125 42.8047C56.388 42.401 55.6458 41.724 55.0859 40.7734C54.5391 39.8229 54.2656 38.5078 54.2656 36.8281V24.1328H51.2188V22.5508L54.2852 21.2812L55.5742 16.6328H57.5273V21.5938H63.7969V24.1328H57.5273V36.7305C57.5273 38.0716 57.8333 39.0742 58.4453 39.7383C59.0703 40.4023 59.8971 40.7344 60.9258 40.7344ZM75.1836 40.7344C75.7174 40.7344 76.2643 40.6888 76.8242 40.5977C77.3841 40.5065 77.8398 40.3958 78.1914 40.2656V42.7852C77.8138 42.9544 77.2865 43.0977 76.6094 43.2148C75.9453 43.332 75.2943 43.3906 74.6562 43.3906C73.5234 43.3906 72.4948 43.1953 71.5703 42.8047C70.6458 42.401 69.9036 41.724 69.3438 40.7734C68.7969 39.8229 68.5234 38.5078 68.5234 36.8281V24.1328H65.4766V22.5508L68.543 21.2812L69.832 16.6328H71.7852V21.5938H78.0547V24.1328H71.7852V36.7305C71.7852 38.0716 72.0911 39.0742 72.7031 39.7383C73.3281 40.4023 74.1549 40.7344 75.1836 40.7344ZM100.984 32.2578C100.984 34.0156 100.757 35.5846 100.301 36.9648C99.8451 38.3451 99.1875 39.5104 98.3281 40.4609C97.4688 41.4115 96.4271 42.1406 95.2031 42.6484C93.9922 43.1432 92.6185 43.3906 91.082 43.3906C89.6497 43.3906 88.3346 43.1432 87.1367 42.6484C85.9518 42.1406 84.9232 41.4115 84.0508 40.4609C83.1914 39.5104 82.5208 38.3451 82.0391 36.9648C81.5703 35.5846 81.3359 34.0156 81.3359 32.2578C81.3359 29.9141 81.7331 27.9219 82.5273 26.2812C83.3216 24.6276 84.4544 23.3711 85.9258 22.5117C87.4102 21.6393 89.1745 21.2031 91.2188 21.2031C93.1719 21.2031 94.8776 21.6393 96.3359 22.5117C97.8073 23.3841 98.9466 24.6471 99.7539 26.3008C100.574 27.9414 100.984 29.9271 100.984 32.2578ZM84.6953 32.2578C84.6953 33.9766 84.9232 35.4674 85.3789 36.7305C85.8346 37.9935 86.5378 38.9701 87.4883 39.6602C88.4388 40.3503 89.6628 40.6953 91.1602 40.6953C92.6445 40.6953 93.862 40.3503 94.8125 39.6602C95.776 38.9701 96.4857 37.9935 96.9414 36.7305C97.3971 35.4674 97.625 33.9766 97.625 32.2578C97.625 30.5521 97.3971 29.0807 96.9414 27.8438C96.4857 26.5938 95.7826 25.6302 94.832 24.9531C93.8815 24.276 92.651 23.9375 91.1406 23.9375C88.9141 23.9375 87.2799 24.6732 86.2383 26.1445C85.2096 27.6159 84.6953 29.6536 84.6953 32.2578ZM116.727 21.2031C119.266 21.2031 121.186 21.8281 122.488 23.0781C123.79 24.3151 124.441 26.3073 124.441 29.0547V43H121.238V29.2695C121.238 27.4857 120.828 26.151 120.008 25.2656C119.201 24.3802 117.957 23.9375 116.277 23.9375C113.908 23.9375 112.241 24.6081 111.277 25.9492C110.314 27.2904 109.832 29.237 109.832 31.7891V43H106.59V21.5938H109.207L109.695 24.6797H109.871C110.327 23.9245 110.906 23.293 111.609 22.7852C112.312 22.2643 113.1 21.8737 113.973 21.6133C114.845 21.3398 115.763 21.2031 116.727 21.2031ZM144.969 37.1406C144.969 38.5078 144.624 39.6602 143.934 40.5977C143.257 41.5221 142.28 42.2188 141.004 42.6875C139.741 43.1562 138.23 43.3906 136.473 43.3906C134.975 43.3906 133.68 43.2734 132.586 43.0391C131.492 42.8047 130.535 42.4727 129.715 42.043V39.0547C130.587 39.4844 131.629 39.875 132.84 40.2266C134.051 40.5781 135.288 40.7539 136.551 40.7539C138.4 40.7539 139.741 40.4544 140.574 39.8555C141.408 39.2565 141.824 38.4427 141.824 37.4141C141.824 36.8281 141.655 36.3138 141.316 35.8711C140.991 35.4154 140.438 34.9792 139.656 34.5625C138.875 34.1328 137.794 33.6641 136.414 33.1562C135.047 32.6354 133.862 32.1211 132.859 31.6133C131.87 31.0924 131.102 30.4609 130.555 29.7188C130.021 28.9766 129.754 28.013 129.754 26.8281C129.754 25.0182 130.483 23.6315 131.941 22.668C133.413 21.6914 135.34 21.2031 137.723 21.2031C139.012 21.2031 140.216 21.3333 141.336 21.5938C142.469 21.8411 143.523 22.1797 144.5 22.6094L143.406 25.207C142.521 24.8294 141.577 24.5104 140.574 24.25C139.572 23.9896 138.549 23.8594 137.508 23.8594C136.01 23.8594 134.858 24.1068 134.051 24.6016C133.257 25.0964 132.859 25.7734 132.859 26.6328C132.859 27.2969 133.042 27.8438 133.406 28.2734C133.784 28.7031 134.383 29.1068 135.203 29.4844C136.023 29.862 137.104 30.3047 138.445 30.8125C139.786 31.3073 140.945 31.8216 141.922 32.3555C142.898 32.8763 143.647 33.5143 144.168 34.2695C144.702 35.0117 144.969 35.9688 144.969 37.1406ZM169.324 13.9961C170.73 13.9961 171.941 14.2435 172.957 14.7383C173.986 15.2201 174.773 15.9167 175.32 16.8281C175.88 17.7396 176.16 18.8398 176.16 20.1289C176.16 21.8216 175.607 23.2539 174.5 24.4258C173.406 25.5977 172.013 26.6654 170.32 27.6289L178.25 35.3242C178.966 34.4909 179.552 33.5273 180.008 32.4336C180.464 31.3268 180.848 30.1289 181.16 28.8398H184.441C184.025 30.5586 183.484 32.1406 182.82 33.5859C182.169 35.0312 181.349 36.3008 180.359 37.3945L186.082 43H181.688L178.152 39.543C177.319 40.3112 176.421 40.9883 175.457 41.5742C174.507 42.1471 173.445 42.5964 172.273 42.9219C171.115 43.2344 169.786 43.3906 168.289 43.3906C166.466 43.3906 164.884 43.0911 163.543 42.4922C162.202 41.8932 161.16 41.0143 160.418 39.8555C159.689 38.6966 159.324 37.2773 159.324 35.5977C159.324 34.2174 159.578 33.0326 160.086 32.043C160.594 31.0534 161.316 30.1745 162.254 29.4062C163.191 28.638 164.311 27.8893 165.613 27.1602C165.001 26.4831 164.422 25.7995 163.875 25.1094C163.328 24.4062 162.885 23.6576 162.547 22.8633C162.208 22.056 162.039 21.1706 162.039 20.207C162.039 18.9049 162.332 17.7917 162.918 16.8672C163.517 15.9427 164.357 15.2331 165.438 14.7383C166.531 14.2435 167.827 13.9961 169.324 13.9961ZM167.566 29.2109C166.551 29.7969 165.678 30.3763 164.949 30.9492C164.233 31.5221 163.68 32.1667 163.289 32.8828C162.911 33.599 162.723 34.4648 162.723 35.4805C162.723 37.0039 163.237 38.2279 164.266 39.1523C165.294 40.0638 166.668 40.5195 168.387 40.5195C170.158 40.5195 171.661 40.2266 172.898 39.6406C174.148 39.0547 175.21 38.3451 176.082 37.5117L167.566 29.2109ZM169.207 16.6719C168.022 16.6719 167.059 16.9844 166.316 17.6094C165.587 18.2214 165.223 19.0807 165.223 20.1875C165.223 21.1771 165.49 22.0885 166.023 22.9219C166.557 23.7552 167.319 24.6797 168.309 25.6953C169.936 24.7969 171.115 23.931 171.844 23.0977C172.586 22.2513 172.957 21.2617 172.957 20.1289C172.957 19.1003 172.612 18.2669 171.922 17.6289C171.245 16.9909 170.34 16.6719 169.207 16.6719ZM223.27 28.4492C223.27 31.6654 222.684 34.3542 221.512 36.5156C220.34 38.6641 218.641 40.2852 216.414 41.3789C214.201 42.4596 211.512 43 208.348 43H200.594V14.4453H209.207C212.111 14.4453 214.611 14.9792 216.707 16.0469C218.803 17.1016 220.418 18.6706 221.551 20.7539C222.697 22.8242 223.27 25.3893 223.27 28.4492ZM219.773 28.5664C219.773 26.0013 219.344 23.8854 218.484 22.2188C217.638 20.5521 216.388 19.3151 214.734 18.5078C213.094 17.6875 211.082 17.2773 208.699 17.2773H203.914V40.1484H207.957C211.889 40.1484 214.839 39.1784 216.805 37.2383C218.784 35.2982 219.773 32.4076 219.773 28.5664ZM238.855 21.2031C239.285 21.2031 239.734 21.2292 240.203 21.2812C240.672 21.3203 241.089 21.3789 241.453 21.457L241.043 24.4648C240.691 24.3737 240.301 24.3021 239.871 24.25C239.441 24.1979 239.038 24.1719 238.66 24.1719C237.801 24.1719 236.987 24.3477 236.219 24.6992C235.464 25.0378 234.799 25.5326 234.227 26.1836C233.654 26.8216 233.204 27.5964 232.879 28.5078C232.553 29.4062 232.391 30.4089 232.391 31.5156V43H229.129V21.5938H231.824L232.176 25.5391H232.312C232.755 24.7448 233.289 24.0221 233.914 23.3711C234.539 22.707 235.262 22.1797 236.082 21.7891C236.915 21.3984 237.84 21.2031 238.855 21.2031ZM263.953 32.2578C263.953 34.0156 263.725 35.5846 263.27 36.9648C262.814 38.3451 262.156 39.5104 261.297 40.4609C260.438 41.4115 259.396 42.1406 258.172 42.6484C256.961 43.1432 255.587 43.3906 254.051 43.3906C252.618 43.3906 251.303 43.1432 250.105 42.6484C248.921 42.1406 247.892 41.4115 247.02 40.4609C246.16 39.5104 245.49 38.3451 245.008 36.9648C244.539 35.5846 244.305 34.0156 244.305 32.2578C244.305 29.9141 244.702 27.9219 245.496 26.2812C246.29 24.6276 247.423 23.3711 248.895 22.5117C250.379 21.6393 252.143 21.2031 254.188 21.2031C256.141 21.2031 257.846 21.6393 259.305 22.5117C260.776 23.3841 261.915 24.6471 262.723 26.3008C263.543 27.9414 263.953 29.9271 263.953 32.2578ZM247.664 32.2578C247.664 33.9766 247.892 35.4674 248.348 36.7305C248.803 37.9935 249.507 38.9701 250.457 39.6602C251.408 40.3503 252.632 40.6953 254.129 40.6953C255.613 40.6953 256.831 40.3503 257.781 39.6602C258.745 38.9701 259.454 37.9935 259.91 36.7305C260.366 35.4674 260.594 33.9766 260.594 32.2578C260.594 30.5521 260.366 29.0807 259.91 27.8438C259.454 26.5938 258.751 25.6302 257.801 24.9531C256.85 24.276 255.62 23.9375 254.109 23.9375C251.883 23.9375 250.249 24.6732 249.207 26.1445C248.178 27.6159 247.664 29.6536 247.664 32.2578ZM279.617 21.2031C282.286 21.2031 284.415 22.1211 286.004 23.957C287.592 25.793 288.387 28.5534 288.387 32.2383C288.387 34.6732 288.022 36.7174 287.293 38.3711C286.564 40.0247 285.535 41.2747 284.207 42.1211C282.892 42.9674 281.336 43.3906 279.539 43.3906C278.406 43.3906 277.41 43.2409 276.551 42.9414C275.691 42.6419 274.956 42.2383 274.344 41.7305C273.732 41.2227 273.224 40.6693 272.82 40.0703H272.586C272.625 40.5781 272.671 41.1901 272.723 41.9062C272.788 42.6224 272.82 43.2474 272.82 43.7812V52.5703H269.559V21.5938H272.234L272.664 24.7578H272.82C273.237 24.1068 273.745 23.5143 274.344 22.9805C274.943 22.4336 275.672 22.0039 276.531 21.6914C277.404 21.3659 278.432 21.2031 279.617 21.2031ZM279.051 23.9375C277.566 23.9375 276.368 24.224 275.457 24.7969C274.559 25.3698 273.901 26.2292 273.484 27.375C273.068 28.5078 272.846 29.9336 272.82 31.6523V32.2773C272.82 34.0872 273.016 35.6172 273.406 36.8672C273.81 38.1172 274.467 39.0677 275.379 39.7188C276.303 40.3698 277.54 40.6953 279.09 40.6953C280.418 40.6953 281.525 40.3372 282.41 39.6211C283.296 38.9049 283.953 37.9089 284.383 36.6328C284.826 35.3438 285.047 33.8659 285.047 32.1992C285.047 29.6732 284.552 27.668 283.562 26.1836C282.586 24.6862 281.082 23.9375 279.051 23.9375ZM301.668 43.3906C298.96 43.3906 296.811 42.4661 295.223 40.6172C293.647 38.7682 292.859 36.0208 292.859 32.375C292.859 28.6901 293.667 25.9102 295.281 24.0352C296.896 22.1471 299.044 21.2031 301.727 21.2031C302.859 21.2031 303.849 21.3529 304.695 21.6523C305.542 21.9518 306.271 22.3555 306.883 22.8633C307.495 23.3581 308.009 23.9245 308.426 24.5625H308.66C308.608 24.1589 308.556 23.6055 308.504 22.9023C308.452 22.1992 308.426 21.6263 308.426 21.1836V12.6094H311.668V43H309.051L308.562 39.9531H308.426C308.022 40.5911 307.508 41.1706 306.883 41.6914C306.271 42.2122 305.535 42.6289 304.676 42.9414C303.829 43.2409 302.827 43.3906 301.668 43.3906ZM302.176 40.6953C304.467 40.6953 306.089 40.0443 307.039 38.7422C307.99 37.4401 308.465 35.5065 308.465 32.9414V32.3555C308.465 29.6341 308.009 27.5443 307.098 26.0859C306.199 24.6276 304.559 23.8984 302.176 23.8984C300.184 23.8984 298.693 24.6667 297.703 26.2031C296.714 27.7266 296.219 29.8099 296.219 32.4531C296.219 35.0833 296.707 37.1146 297.684 38.5469C298.673 39.9792 300.171 40.6953 302.176 40.6953ZM337 32.2578C337 34.0156 336.772 35.5846 336.316 36.9648C335.861 38.3451 335.203 39.5104 334.344 40.4609C333.484 41.4115 332.443 42.1406 331.219 42.6484C330.008 43.1432 328.634 43.3906 327.098 43.3906C325.665 43.3906 324.35 43.1432 323.152 42.6484C321.967 42.1406 320.939 41.4115 320.066 40.4609C319.207 39.5104 318.536 38.3451 318.055 36.9648C317.586 35.5846 317.352 34.0156 317.352 32.2578C317.352 29.9141 317.749 27.9219 318.543 26.2812C319.337 24.6276 320.47 23.3711 321.941 22.5117C323.426 21.6393 325.19 21.2031 327.234 21.2031C329.188 21.2031 330.893 21.6393 332.352 22.5117C333.823 23.3841 334.962 24.6471 335.77 26.3008C336.59 27.9414 337 29.9271 337 32.2578ZM320.711 32.2578C320.711 33.9766 320.939 35.4674 321.395 36.7305C321.85 37.9935 322.553 38.9701 323.504 39.6602C324.454 40.3503 325.678 40.6953 327.176 40.6953C328.66 40.6953 329.878 40.3503 330.828 39.6602C331.792 38.9701 332.501 37.9935 332.957 36.7305C333.413 35.4674 333.641 33.9766 333.641 32.2578C333.641 30.5521 333.413 29.0807 332.957 27.8438C332.501 26.5938 331.798 25.6302 330.848 24.9531C329.897 24.276 328.667 23.9375 327.156 23.9375C324.93 23.9375 323.296 24.6732 322.254 26.1445C321.225 27.6159 320.711 29.6536 320.711 32.2578ZM360.027 42.9609L356.219 30.5C356.049 29.9661 355.887 29.4453 355.73 28.9375C355.587 28.4167 355.451 27.9219 355.32 27.4531C355.203 26.9714 355.092 26.5286 354.988 26.125C354.897 25.7083 354.819 25.3503 354.754 25.0508H354.617C354.565 25.3503 354.493 25.7083 354.402 26.125C354.311 26.5286 354.201 26.9714 354.07 27.4531C353.953 27.9349 353.823 28.4427 353.68 28.9766C353.536 29.4974 353.374 30.0247 353.191 30.5586L349.207 42.9609H345.555L339.656 21.5547H343.016L346.102 33.3711C346.31 34.1523 346.505 34.9271 346.688 35.6953C346.883 36.4505 347.046 37.1667 347.176 37.8438C347.319 38.5078 347.423 39.0872 347.488 39.582H347.645C347.723 39.2565 347.807 38.8659 347.898 38.4102C348.003 37.9544 348.113 37.4727 348.23 36.9648C348.361 36.444 348.497 35.9297 348.641 35.4219C348.784 34.901 348.927 34.4128 349.07 33.957L353.016 21.5547H356.512L360.32 33.9375C360.516 34.5625 360.704 35.2135 360.887 35.8906C361.082 36.5677 361.258 37.2253 361.414 37.8633C361.57 38.4883 361.681 39.0482 361.746 39.543H361.902C361.954 39.1003 362.052 38.5534 362.195 37.9023C362.339 37.2513 362.501 36.5352 362.684 35.7539C362.879 34.9727 363.081 34.1784 363.289 33.3711L366.414 21.5547H369.715L363.797 42.9609H360.027ZM383.758 21.2031C386.297 21.2031 388.217 21.8281 389.52 23.0781C390.822 24.3151 391.473 26.3073 391.473 29.0547V43H388.27V29.2695C388.27 27.4857 387.859 26.151 387.039 25.2656C386.232 24.3802 384.988 23.9375 383.309 23.9375C380.939 23.9375 379.272 24.6081 378.309 25.9492C377.345 27.2904 376.863 29.237 376.863 31.7891V43H373.621V21.5938H376.238L376.727 24.6797H376.902C377.358 23.9245 377.938 23.293 378.641 22.7852C379.344 22.2643 380.132 21.8737 381.004 21.6133C381.876 21.3398 382.794 21.2031 383.758 21.2031ZM412 37.1406C412 38.5078 411.655 39.6602 410.965 40.5977C410.288 41.5221 409.311 42.2188 408.035 42.6875C406.772 43.1562 405.262 43.3906 403.504 43.3906C402.007 43.3906 400.711 43.2734 399.617 43.0391C398.523 42.8047 397.566 42.4727 396.746 42.043V39.0547C397.618 39.4844 398.66 39.875 399.871 40.2266C401.082 40.5781 402.319 40.7539 403.582 40.7539C405.431 40.7539 406.772 40.4544 407.605 39.8555C408.439 39.2565 408.855 38.4427 408.855 37.4141C408.855 36.8281 408.686 36.3138 408.348 35.8711C408.022 35.4154 407.469 34.9792 406.688 34.5625C405.906 34.1328 404.826 33.6641 403.445 33.1562C402.078 32.6354 400.893 32.1211 399.891 31.6133C398.901 31.0924 398.133 30.4609 397.586 29.7188C397.052 28.9766 396.785 28.013 396.785 26.8281C396.785 25.0182 397.514 23.6315 398.973 22.668C400.444 21.6914 402.371 21.2031 404.754 21.2031C406.043 21.2031 407.247 21.3333 408.367 21.5938C409.5 21.8411 410.555 22.1797 411.531 22.6094L410.438 25.207C409.552 24.8294 408.608 24.5104 407.605 24.25C406.603 23.9896 405.581 23.8594 404.539 23.8594C403.042 23.8594 401.889 24.1068 401.082 24.6016C400.288 25.0964 399.891 25.7734 399.891 26.6328C399.891 27.2969 400.073 27.8438 400.438 28.2734C400.815 28.7031 401.414 29.1068 402.234 29.4844C403.055 29.862 404.135 30.3047 405.477 30.8125C406.818 31.3073 407.977 31.8216 408.953 32.3555C409.93 32.8763 410.678 33.5143 411.199 34.2695C411.733 35.0117 412 35.9688 412 37.1406Z" fill="white"/>
<path d="M11.1758 80L9.23242 74.9512H3.23633L1.25391 80H0.228516L5.84375 65.6738H6.76172L12.2305 80H11.1758ZM8.91016 74.043L6.9375 68.6914C6.88542 68.5547 6.82031 68.3789 6.74219 68.1641C6.67057 67.9492 6.59245 67.7214 6.50781 67.4805C6.42969 67.2396 6.35156 67.0117 6.27344 66.7969C6.20833 67.0247 6.13672 67.2526 6.05859 67.4805C5.98047 67.7083 5.9056 67.9297 5.83398 68.1445C5.76237 68.3529 5.69401 68.5417 5.62891 68.7109L3.57812 74.043H8.91016ZM18.7559 80.1953C17.7012 80.1953 16.8092 79.9772 16.0801 79.541C15.3574 79.0983 14.8105 78.4701 14.4395 77.6562C14.0749 76.8359 13.8926 75.8659 13.8926 74.7461C13.8926 73.5807 14.1042 72.5846 14.5273 71.7578C14.9505 70.9245 15.5462 70.2865 16.3145 69.8438C17.0827 69.401 17.9844 69.1797 19.0195 69.1797C19.5273 69.1797 19.9993 69.2253 20.4355 69.3164C20.8717 69.4076 21.2656 69.5345 21.6172 69.6973L21.3535 70.5664C20.9889 70.4036 20.6016 70.2799 20.1914 70.1953C19.7812 70.1107 19.3874 70.0684 19.0098 70.0684C18.1374 70.0684 17.3952 70.2604 16.7832 70.6445C16.1777 71.0221 15.7122 71.5625 15.3867 72.2656C15.0677 72.9622 14.9082 73.7858 14.9082 74.7363C14.9082 75.6283 15.0449 76.4193 15.3184 77.1094C15.5918 77.793 16.0117 78.3333 16.5781 78.7305C17.1445 79.1211 17.8704 79.3164 18.7559 79.3164C19.2702 79.3164 19.7585 79.2643 20.2207 79.1602C20.6895 79.056 21.1159 78.9225 21.5 78.7598V79.6582C21.1549 79.8145 20.7546 79.9414 20.2988 80.0391C19.8496 80.1432 19.3353 80.1953 18.7559 80.1953ZM27.3809 79.3457C27.6868 79.3457 27.9701 79.3229 28.2305 79.2773C28.4974 79.2318 28.7318 79.1732 28.9336 79.1016V79.9219C28.7253 79.9935 28.4811 80.0553 28.2012 80.1074C27.9212 80.166 27.612 80.1953 27.2734 80.1953C26.6745 80.1953 26.1764 80.0846 25.7793 79.8633C25.3822 79.6354 25.0827 79.2936 24.8809 78.8379C24.679 78.3757 24.5781 77.7897 24.5781 77.0801V70.2051H22.9961V69.6191L24.5684 69.3164L24.9102 66.8164H25.5645V69.3848H28.875V70.2051H25.5645V77.0215C25.5645 77.7832 25.7044 78.3626 25.9844 78.7598C26.2708 79.1504 26.7363 79.3457 27.3809 79.3457ZM32.6953 69.3848V80H31.709V69.3848H32.6953ZM32.2168 65.459C32.4642 65.459 32.6465 65.5339 32.7637 65.6836C32.8809 65.8268 32.9395 66.0221 32.9395 66.2695C32.9395 66.5169 32.8809 66.7122 32.7637 66.8555C32.6465 66.9987 32.4642 67.0703 32.2168 67.0703C31.9824 67.0703 31.8066 66.9987 31.6895 66.8555C31.5723 66.7122 31.5137 66.5169 31.5137 66.2695C31.5137 66.0221 31.5723 65.8268 31.6895 65.6836C31.8066 65.5339 31.9824 65.459 32.2168 65.459ZM39.0547 80L34.9824 69.3848H36.0273L38.752 76.6211C38.9212 77.0573 39.071 77.4772 39.2012 77.8809C39.3379 78.278 39.4518 78.6393 39.543 78.9648H39.5918C39.696 78.6393 39.8132 78.2747 39.9434 77.8711C40.0801 77.4674 40.2298 77.0508 40.3926 76.6211L43.1172 69.3848H44.1719L40.0898 80H39.0547ZM50.4629 69.1797C51.3678 69.1797 52.1198 69.3913 52.7188 69.8145C53.3242 70.2376 53.7734 70.8171 54.0664 71.5527C54.3659 72.2884 54.5156 73.1315 54.5156 74.082V74.7949H46.8496C46.8496 76.2533 47.1849 77.373 47.8555 78.1543C48.5326 78.9355 49.4993 79.3262 50.7559 79.3262C51.4134 79.3262 51.9831 79.2741 52.4648 79.1699C52.9531 79.0592 53.4935 78.8737 54.0859 78.6133V79.5215C53.5651 79.7559 53.0443 79.9251 52.5234 80.0293C52.0026 80.14 51.4036 80.1953 50.7266 80.1953C49.6523 80.1953 48.7507 79.974 48.0215 79.5312C47.2988 79.082 46.752 78.4505 46.3809 77.6367C46.0163 76.8229 45.834 75.8724 45.834 74.7852C45.834 73.724 46.0098 72.7702 46.3613 71.9238C46.7194 71.0775 47.2402 70.4102 47.9238 69.9219C48.6139 69.4271 49.4603 69.1797 50.4629 69.1797ZM50.4531 70.0293C49.4375 70.0293 48.6139 70.3678 47.9824 71.0449C47.3574 71.7155 46.9896 72.6855 46.8789 73.9551H53.4902C53.4902 73.1803 53.3796 72.4967 53.1582 71.9043C52.9368 71.3118 52.6016 70.8529 52.1523 70.5273C51.7096 70.1953 51.1432 70.0293 50.4531 70.0293ZM59.0879 77.6758L59.1758 77.9102C59.0716 78.3984 58.9414 78.9128 58.7852 79.4531C58.6354 79.9935 58.4694 80.5306 58.2871 81.0645C58.1113 81.6048 57.9225 82.1094 57.7207 82.5781H56.959C57.1283 81.9857 57.2812 81.4062 57.418 80.8398C57.5547 80.2799 57.6751 79.7363 57.7793 79.209C57.8835 78.6751 57.9681 78.1641 58.0332 77.6758H59.0879ZM79.0332 80H78.0273V72.9688H69.6875V80H68.6816V65.7227H69.6875V72.0508H78.0273V65.7227H79.0332V80ZM92.1309 74.6777C92.1309 75.498 92.0299 76.2467 91.8281 76.9238C91.6263 77.5944 91.3268 78.1738 90.9297 78.6621C90.5326 79.1504 90.0378 79.528 89.4453 79.7949C88.8594 80.0618 88.1758 80.1953 87.3945 80.1953C86.6523 80.1953 85.9915 80.0651 85.4121 79.8047C84.8327 79.5378 84.3411 79.1602 83.9375 78.6719C83.5404 78.1836 83.2376 77.6042 83.0293 76.9336C82.821 76.2565 82.7168 75.5046 82.7168 74.6777C82.7168 73.5384 82.9056 72.5586 83.2832 71.7383C83.6673 70.9115 84.2142 70.2799 84.9238 69.8438C85.64 69.401 86.4961 69.1797 87.4922 69.1797C88.5208 69.1797 89.377 69.4141 90.0605 69.8828C90.7507 70.3451 91.2682 70.9896 91.6133 71.8164C91.9583 72.6432 92.1309 73.597 92.1309 74.6777ZM83.7324 74.6777C83.7324 75.6087 83.8659 76.4225 84.1328 77.1191C84.3997 77.8158 84.8034 78.3594 85.3438 78.75C85.8906 79.1406 86.5807 79.3359 87.4141 79.3359C88.2669 79.3359 88.9668 79.1406 89.5137 78.75C90.0605 78.3594 90.4642 77.8125 90.7246 77.1094C90.985 76.4062 91.1152 75.5957 91.1152 74.6777C91.1152 73.7858 90.9915 72.9915 90.7441 72.2949C90.4967 71.5983 90.1061 71.0514 89.5723 70.6543C89.0384 70.2507 88.3418 70.0488 87.4824 70.0488C86.252 70.0488 85.3177 70.459 84.6797 71.2793C84.0482 72.0996 83.7324 73.2324 83.7324 74.6777ZM97.875 80L93.8027 69.3848H94.8477L97.5723 76.6211C97.7415 77.0573 97.8913 77.4772 98.0215 77.8809C98.1582 78.278 98.2721 78.6393 98.3633 78.9648H98.4121C98.5163 78.6393 98.6335 78.2747 98.7637 77.8711C98.9004 77.4674 99.0501 77.0508 99.2129 76.6211L101.938 69.3848H102.992L98.9102 80H97.875ZM109.283 69.1797C110.188 69.1797 110.94 69.3913 111.539 69.8145C112.145 70.2376 112.594 70.8171 112.887 71.5527C113.186 72.2884 113.336 73.1315 113.336 74.082V74.7949H105.67C105.67 76.2533 106.005 77.373 106.676 78.1543C107.353 78.9355 108.32 79.3262 109.576 79.3262C110.234 79.3262 110.803 79.2741 111.285 79.1699C111.773 79.0592 112.314 78.8737 112.906 78.6133V79.5215C112.385 79.7559 111.865 79.9251 111.344 80.0293C110.823 80.14 110.224 80.1953 109.547 80.1953C108.473 80.1953 107.571 79.974 106.842 79.5312C106.119 79.082 105.572 78.4505 105.201 77.6367C104.837 76.8229 104.654 75.8724 104.654 74.7852C104.654 73.724 104.83 72.7702 105.182 71.9238C105.54 71.0775 106.061 70.4102 106.744 69.9219C107.434 69.4271 108.281 69.1797 109.283 69.1797ZM109.273 70.0293C108.258 70.0293 107.434 70.3678 106.803 71.0449C106.178 71.7155 105.81 72.6855 105.699 73.9551H112.311C112.311 73.1803 112.2 72.4967 111.979 71.9043C111.757 71.3118 111.422 70.8529 110.973 70.5273C110.53 70.1953 109.964 70.0293 109.273 70.0293ZM120.984 69.1992C121.264 69.1992 121.528 69.2155 121.775 69.248C122.023 69.2806 122.254 69.3262 122.469 69.3848L122.312 70.293C122.098 70.2344 121.88 70.1921 121.658 70.166C121.437 70.1335 121.199 70.1172 120.945 70.1172C120.444 70.1172 119.995 70.2116 119.598 70.4004C119.207 70.5892 118.875 70.8594 118.602 71.2109C118.328 71.5625 118.12 71.9857 117.977 72.4805C117.833 72.9753 117.762 73.5286 117.762 74.1406V80H116.766V69.3848H117.615L117.713 71.3867H117.771C117.934 70.9766 118.162 70.6087 118.455 70.2832C118.755 69.9512 119.116 69.6875 119.539 69.4922C119.962 69.2969 120.444 69.1992 120.984 69.1992ZM134.455 69.1992C135.62 69.1992 136.493 69.4922 137.072 70.0781C137.652 70.6641 137.941 71.5983 137.941 72.8809V80H137.18L137.004 78.1445H136.945C136.717 78.5417 136.441 78.8965 136.115 79.209C135.79 79.515 135.389 79.7559 134.914 79.9316C134.445 80.1074 133.872 80.1953 133.195 80.1953C132.512 80.1953 131.926 80.0814 131.438 79.8535C130.956 79.6257 130.581 79.2936 130.314 78.8574C130.054 78.4212 129.924 77.8906 129.924 77.2656C129.924 76.2109 130.36 75.4102 131.232 74.8633C132.105 74.3099 133.358 73.9974 134.992 73.9258L136.965 73.8281V73.0566C136.965 71.9694 136.75 71.1947 136.32 70.7324C135.891 70.2702 135.256 70.0391 134.416 70.0391C133.869 70.0391 133.342 70.1107 132.834 70.2539C132.333 70.3906 131.822 70.5892 131.301 70.8496L130.988 70.0293C131.496 69.7884 132.04 69.5898 132.619 69.4336C133.205 69.2773 133.817 69.1992 134.455 69.1992ZM136.955 74.5996L135.1 74.6777C133.752 74.7428 132.727 74.9837 132.023 75.4004C131.32 75.8171 130.969 76.4421 130.969 77.2754C130.969 77.946 131.177 78.4603 131.594 78.8184C132.017 79.1764 132.603 79.3555 133.352 79.3555C134.517 79.3555 135.406 79.0234 136.018 78.3594C136.636 77.6953 136.949 76.7904 136.955 75.6445V74.5996ZM146.527 69.1797C147.719 69.1797 148.633 69.4922 149.271 70.1172C149.91 70.7422 150.229 71.722 150.229 73.0566V80H149.252V73.1152C149.252 72.0605 149.011 71.2858 148.529 70.791C148.048 70.2962 147.348 70.0488 146.43 70.0488C145.264 70.0488 144.372 70.3906 143.754 71.0742C143.142 71.7513 142.836 72.7767 142.836 74.1504V80H141.85V69.3848H142.65L142.797 71.3184H142.855C143.044 70.9212 143.301 70.5632 143.627 70.2441C143.959 69.9186 144.366 69.6615 144.848 69.4727C145.329 69.2773 145.889 69.1797 146.527 69.1797ZM158.014 80.1953C156.562 80.1953 155.455 79.7396 154.693 78.8281C153.938 77.9102 153.561 76.5755 153.561 74.8242C153.561 72.9883 153.961 71.5885 154.762 70.625C155.562 69.6615 156.679 69.1797 158.111 69.1797C158.723 69.1797 159.254 69.2741 159.703 69.4629C160.159 69.6517 160.54 69.9089 160.846 70.2344C161.158 70.5534 161.399 70.918 161.568 71.3281H161.646C161.62 70.9831 161.601 70.612 161.588 70.2148C161.575 69.8177 161.568 69.4531 161.568 69.1211V64.8047H162.555V80H161.754L161.627 78.0566H161.568C161.393 78.4473 161.148 78.8053 160.836 79.1309C160.53 79.4564 160.146 79.7168 159.684 79.9121C159.221 80.1009 158.665 80.1953 158.014 80.1953ZM158.121 79.3359C159.371 79.3359 160.26 78.9486 160.787 78.1738C161.314 77.3926 161.578 76.2793 161.578 74.834V74.6777C161.578 73.1803 161.314 72.0345 160.787 71.2402C160.26 70.4395 159.4 70.0391 158.209 70.0391C157.031 70.0391 156.129 70.4492 155.504 71.2695C154.885 72.0898 154.576 73.2812 154.576 74.8438C154.576 76.3151 154.866 77.4316 155.445 78.1934C156.031 78.9551 156.923 79.3359 158.121 79.3359ZM183.389 72.7246C183.389 74.3197 183.105 75.6576 182.539 76.7383C181.979 77.819 181.146 78.6328 180.039 79.1797C178.939 79.7266 177.575 80 175.947 80H172.529V65.7227H176.396C177.92 65.7227 179.199 65.9896 180.234 66.5234C181.27 67.0573 182.054 67.8451 182.588 68.8867C183.122 69.9219 183.389 71.2012 183.389 72.7246ZM182.334 72.7637C182.334 71.403 182.113 70.2669 181.67 69.3555C181.227 68.444 180.55 67.7604 179.639 67.3047C178.727 66.8424 177.572 66.6113 176.172 66.6113H173.535V79.1113H175.898C178.053 79.1113 179.665 78.584 180.732 77.5293C181.8 76.4681 182.334 74.8796 182.334 72.7637ZM187.883 69.3848V80H186.896V69.3848H187.883ZM187.404 65.459C187.652 65.459 187.834 65.5339 187.951 65.6836C188.068 65.8268 188.127 66.0221 188.127 66.2695C188.127 66.5169 188.068 66.7122 187.951 66.8555C187.834 66.9987 187.652 67.0703 187.404 67.0703C187.17 67.0703 186.994 66.9987 186.877 66.8555C186.76 66.7122 186.701 66.5169 186.701 66.2695C186.701 66.0221 186.76 65.8268 186.877 65.6836C186.994 65.5339 187.17 65.459 187.404 65.459ZM198.568 77.2168C198.568 77.8483 198.409 78.3887 198.09 78.8379C197.777 79.2806 197.318 79.6191 196.713 79.8535C196.107 80.0814 195.362 80.1953 194.477 80.1953C193.741 80.1953 193.083 80.1302 192.504 80C191.924 79.8698 191.439 79.7103 191.049 79.5215V78.5449C191.537 78.7858 192.077 78.9811 192.67 79.1309C193.262 79.2806 193.871 79.3555 194.496 79.3555C195.59 79.3555 196.378 79.1699 196.859 78.7988C197.341 78.4277 197.582 77.9199 197.582 77.2754C197.582 76.8522 197.462 76.5039 197.221 76.2305C196.986 75.9505 196.648 75.7096 196.205 75.5078C195.762 75.306 195.229 75.1009 194.604 74.8926C193.952 74.6712 193.373 74.4531 192.865 74.2383C192.364 74.0169 191.97 73.7272 191.684 73.3691C191.397 73.0046 191.254 72.5098 191.254 71.8848C191.254 71.0319 191.596 70.3678 192.279 69.8926C192.963 69.4173 193.881 69.1797 195.033 69.1797C195.671 69.1797 196.264 69.2415 196.811 69.3652C197.364 69.4824 197.865 69.6354 198.314 69.8242L197.963 70.6641C197.559 70.4753 197.094 70.3223 196.566 70.2051C196.039 70.0879 195.512 70.0293 194.984 70.0293C194.118 70.0293 193.441 70.1823 192.953 70.4883C192.465 70.7943 192.221 71.2435 192.221 71.8359C192.221 72.2917 192.338 72.6497 192.572 72.9102C192.807 73.1641 193.142 73.3789 193.578 73.5547C194.014 73.724 194.532 73.9128 195.131 74.1211C195.749 74.3359 196.319 74.5605 196.84 74.7949C197.367 75.0293 197.787 75.332 198.1 75.7031C198.412 76.0742 198.568 76.5788 198.568 77.2168ZM205.455 69.1992C206.62 69.1992 207.493 69.4922 208.072 70.0781C208.652 70.6641 208.941 71.5983 208.941 72.8809V80H208.18L208.004 78.1445H207.945C207.717 78.5417 207.441 78.8965 207.115 79.209C206.79 79.515 206.389 79.7559 205.914 79.9316C205.445 80.1074 204.872 80.1953 204.195 80.1953C203.512 80.1953 202.926 80.0814 202.438 79.8535C201.956 79.6257 201.581 79.2936 201.314 78.8574C201.054 78.4212 200.924 77.8906 200.924 77.2656C200.924 76.2109 201.36 75.4102 202.232 74.8633C203.105 74.3099 204.358 73.9974 205.992 73.9258L207.965 73.8281V73.0566C207.965 71.9694 207.75 71.1947 207.32 70.7324C206.891 70.2702 206.256 70.0391 205.416 70.0391C204.869 70.0391 204.342 70.1107 203.834 70.2539C203.333 70.3906 202.822 70.5892 202.301 70.8496L201.988 70.0293C202.496 69.7884 203.04 69.5898 203.619 69.4336C204.205 69.2773 204.817 69.1992 205.455 69.1992ZM207.955 74.5996L206.1 74.6777C204.752 74.7428 203.727 74.9837 203.023 75.4004C202.32 75.8171 201.969 76.4421 201.969 77.2754C201.969 77.946 202.177 78.4603 202.594 78.8184C203.017 79.1764 203.603 79.3555 204.352 79.3555C205.517 79.3555 206.406 79.0234 207.018 78.3594C207.636 77.6953 207.949 76.7904 207.955 75.6445V74.5996ZM213.826 64.8047V69.1211C213.826 69.4922 213.82 69.8991 213.807 70.3418C213.794 70.7845 213.781 71.1523 213.768 71.4453H213.826C214.08 70.7878 214.523 70.2441 215.154 69.8145C215.786 69.3848 216.574 69.1699 217.518 69.1699C218.898 69.1699 219.962 69.6354 220.711 70.5664C221.466 71.4974 221.844 72.8613 221.844 74.6582C221.844 75.7585 221.674 76.7253 221.336 77.5586C220.997 78.3854 220.493 79.0332 219.822 79.502C219.158 79.9642 218.325 80.1953 217.322 80.1953C216.417 80.1953 215.678 80.0065 215.105 79.6289C214.533 79.2448 214.116 78.7663 213.855 78.1934H213.777L213.592 80H212.84V64.8047H213.826ZM217.41 70.0293C216.57 70.0293 215.887 70.2116 215.359 70.5762C214.832 70.9342 214.445 71.4583 214.197 72.1484C213.95 72.8385 213.826 73.6816 213.826 74.6777V74.834C213.826 76.2988 214.093 77.4154 214.627 78.1836C215.161 78.9518 216.027 79.3359 217.225 79.3359C218.41 79.3359 219.305 78.9323 219.91 78.125C220.522 77.3112 220.828 76.1556 220.828 74.6582C220.828 73.1283 220.545 71.9759 219.979 71.2012C219.412 70.4199 218.556 70.0293 217.41 70.0293ZM226.27 80H225.273V64.8047H226.27V80ZM234.318 69.1797C235.223 69.1797 235.975 69.3913 236.574 69.8145C237.18 70.2376 237.629 70.8171 237.922 71.5527C238.221 72.2884 238.371 73.1315 238.371 74.082V74.7949H230.705C230.705 76.2533 231.04 77.373 231.711 78.1543C232.388 78.9355 233.355 79.3262 234.611 79.3262C235.269 79.3262 235.839 79.2741 236.32 79.1699C236.809 79.0592 237.349 78.8737 237.941 78.6133V79.5215C237.421 79.7559 236.9 79.9251 236.379 80.0293C235.858 80.14 235.259 80.1953 234.582 80.1953C233.508 80.1953 232.606 79.974 231.877 79.5312C231.154 79.082 230.607 78.4505 230.236 77.6367C229.872 76.8229 229.689 75.8724 229.689 74.7852C229.689 73.724 229.865 72.7702 230.217 71.9238C230.575 71.0775 231.096 70.4102 231.779 69.9219C232.469 69.4271 233.316 69.1797 234.318 69.1797ZM234.309 70.0293C233.293 70.0293 232.469 70.3678 231.838 71.0449C231.213 71.7155 230.845 72.6855 230.734 73.9551H237.346C237.346 73.1803 237.235 72.4967 237.014 71.9043C236.792 71.3118 236.457 70.8529 236.008 70.5273C235.565 70.1953 234.999 70.0293 234.309 70.0293ZM255.738 69.3848V80H254.938L254.791 78.0859H254.732C254.55 78.4766 254.293 78.8314 253.961 79.1504C253.629 79.4694 253.222 79.7233 252.74 79.9121C252.258 80.1009 251.699 80.1953 251.061 80.1953C250.247 80.1953 249.563 80.0553 249.01 79.7754C248.463 79.4889 248.049 79.0592 247.77 78.4863C247.49 77.9134 247.35 77.1973 247.35 76.3379V69.3848H248.336V76.2402C248.336 77.3014 248.574 78.0827 249.049 78.584C249.531 79.0853 250.234 79.3359 251.158 79.3359C251.939 79.3359 252.594 79.1862 253.121 78.8867C253.655 78.5872 254.059 78.1348 254.332 77.5293C254.612 76.9173 254.752 76.1556 254.752 75.2441V69.3848H255.738ZM266.443 77.2168C266.443 77.8483 266.284 78.3887 265.965 78.8379C265.652 79.2806 265.193 79.6191 264.588 79.8535C263.982 80.0814 263.237 80.1953 262.352 80.1953C261.616 80.1953 260.958 80.1302 260.379 80C259.799 79.8698 259.314 79.7103 258.924 79.5215V78.5449C259.412 78.7858 259.952 78.9811 260.545 79.1309C261.137 79.2806 261.746 79.3555 262.371 79.3555C263.465 79.3555 264.253 79.1699 264.734 78.7988C265.216 78.4277 265.457 77.9199 265.457 77.2754C265.457 76.8522 265.337 76.5039 265.096 76.2305C264.861 75.9505 264.523 75.7096 264.08 75.5078C263.637 75.306 263.104 75.1009 262.479 74.8926C261.827 74.6712 261.248 74.4531 260.74 74.2383C260.239 74.0169 259.845 73.7272 259.559 73.3691C259.272 73.0046 259.129 72.5098 259.129 71.8848C259.129 71.0319 259.471 70.3678 260.154 69.8926C260.838 69.4173 261.756 69.1797 262.908 69.1797C263.546 69.1797 264.139 69.2415 264.686 69.3652C265.239 69.4824 265.74 69.6354 266.189 69.8242L265.838 70.6641C265.434 70.4753 264.969 70.3223 264.441 70.2051C263.914 70.0879 263.387 70.0293 262.859 70.0293C261.993 70.0293 261.316 70.1823 260.828 70.4883C260.34 70.7943 260.096 71.2435 260.096 71.8359C260.096 72.2917 260.213 72.6497 260.447 72.9102C260.682 73.1641 261.017 73.3789 261.453 73.5547C261.889 73.724 262.407 73.9128 263.006 74.1211C263.624 74.3359 264.194 74.5605 264.715 74.7949C265.242 75.0293 265.662 75.332 265.975 75.7031C266.287 76.0742 266.443 76.5788 266.443 77.2168ZM273.643 69.1797C274.548 69.1797 275.299 69.3913 275.898 69.8145C276.504 70.2376 276.953 70.8171 277.246 71.5527C277.546 72.2884 277.695 73.1315 277.695 74.082V74.7949H270.029C270.029 76.2533 270.365 77.373 271.035 78.1543C271.712 78.9355 272.679 79.3262 273.936 79.3262C274.593 79.3262 275.163 79.2741 275.645 79.1699C276.133 79.0592 276.673 78.8737 277.266 78.6133V79.5215C276.745 79.7559 276.224 79.9251 275.703 80.0293C275.182 80.14 274.583 80.1953 273.906 80.1953C272.832 80.1953 271.93 79.974 271.201 79.5312C270.479 79.082 269.932 78.4505 269.561 77.6367C269.196 76.8229 269.014 75.8724 269.014 74.7852C269.014 73.724 269.189 72.7702 269.541 71.9238C269.899 71.0775 270.42 70.4102 271.104 69.9219C271.794 69.4271 272.64 69.1797 273.643 69.1797ZM273.633 70.0293C272.617 70.0293 271.794 70.3678 271.162 71.0449C270.537 71.7155 270.169 72.6855 270.059 73.9551H276.67C276.67 73.1803 276.559 72.4967 276.338 71.9043C276.117 71.3118 275.781 70.8529 275.332 70.5273C274.889 70.1953 274.323 70.0293 273.633 70.0293ZM284.963 80.1953C283.511 80.1953 282.404 79.7396 281.643 78.8281C280.887 77.9102 280.51 76.5755 280.51 74.8242C280.51 72.9883 280.91 71.5885 281.711 70.625C282.512 69.6615 283.628 69.1797 285.061 69.1797C285.673 69.1797 286.203 69.2741 286.652 69.4629C287.108 69.6517 287.489 69.9089 287.795 70.2344C288.107 70.5534 288.348 70.918 288.518 71.3281H288.596C288.57 70.9831 288.55 70.612 288.537 70.2148C288.524 69.8177 288.518 69.4531 288.518 69.1211V64.8047H289.504V80H288.703L288.576 78.0566H288.518C288.342 78.4473 288.098 78.8053 287.785 79.1309C287.479 79.4564 287.095 79.7168 286.633 79.9121C286.171 80.1009 285.614 80.1953 284.963 80.1953ZM285.07 79.3359C286.32 79.3359 287.209 78.9486 287.736 78.1738C288.264 77.3926 288.527 76.2793 288.527 74.834V74.6777C288.527 73.1803 288.264 72.0345 287.736 71.2402C287.209 70.4395 286.35 70.0391 285.158 70.0391C283.98 70.0391 283.078 70.4492 282.453 71.2695C281.835 72.0898 281.525 73.2812 281.525 74.8438C281.525 76.3151 281.815 77.4316 282.395 78.1934C282.98 78.9551 283.872 79.3359 285.07 79.3359Z" fill="#A4A8B9"/>
</svg>
