<svg width="251" height="164" viewBox="0 0 251 164" fill="none" xmlns="http://www.w3.org/2000/svg">
<g clip-path="url(#clip0_3540_2250)">
<g opacity="0.2" filter="url(#filter0_d_3540_2250)">
<path d="M0 6.43589C0 2.88144 2.88145 0 6.4359 0H244.564C248.119 0 251 2.88145 251 6.4359V141.59C251 145.144 248.119 148.026 244.564 148.026H6.4359C2.88145 148.026 0 145.144 0 141.59V6.43589Z" fill="#4E586E"/>
</g>
<path d="M9.4345 16.7457C10.063 16.7457 10.5386 16.9971 10.8612 17.4999C11.188 17.9985 11.3514 18.7045 11.3514 19.6179C11.3514 20.5314 11.1943 21.2437 10.8801 21.7549C10.5658 22.2619 10.084 22.5153 9.4345 22.5153C8.83113 22.5153 8.36813 22.2619 8.0455 21.7549C7.72705 21.2437 7.56783 20.5314 7.56783 19.6179C7.56783 18.7045 7.72077 17.9985 8.02664 17.4999C8.33252 16.9971 8.8018 16.7457 9.4345 16.7457ZM9.4345 17.4936C9.0951 17.4936 8.84579 17.6717 8.68657 18.0278C8.52735 18.3798 8.44774 18.9098 8.44774 19.6179C8.44774 20.3261 8.52735 20.8603 8.68657 21.2206C8.84579 21.581 9.0951 21.7611 9.4345 21.7611C9.78646 21.7611 10.0483 21.581 10.2201 21.2206C10.3919 20.8603 10.4778 20.3261 10.4778 19.6179C10.4778 18.914 10.3919 18.384 10.2201 18.0278C10.0525 17.6717 9.79065 17.4936 9.4345 17.4936ZM15.2545 16.8777L10.1573 26.0664H9.23966L14.3368 16.8777H15.2545ZM15.0093 20.4287C15.6337 20.4287 16.1092 20.6801 16.436 21.1829C16.7629 21.6815 16.9263 22.3876 16.9263 23.301C16.9263 24.2102 16.7692 24.9204 16.4549 25.4316C16.1406 25.9386 15.6588 26.1921 15.0093 26.1921C14.4018 26.1921 13.9388 25.9386 13.6203 25.4316C13.3019 24.9204 13.1427 24.2102 13.1427 23.301C13.1427 22.3876 13.2935 21.6815 13.5952 21.1829C13.9011 20.6801 14.3725 20.4287 15.0093 20.4287ZM15.0093 21.1829C14.6699 21.1829 14.4206 21.3589 14.2614 21.7109C14.1022 22.0628 14.0226 22.5929 14.0226 23.301C14.0226 24.0091 14.1022 24.5433 14.2614 24.9037C14.4206 25.2598 14.6699 25.4379 15.0093 25.4379C15.3613 25.4379 15.6232 25.2619 15.795 24.91C15.9668 24.5538 16.0527 24.0175 16.0527 23.301C16.0527 22.5971 15.9668 22.0691 15.795 21.7171C15.6274 21.361 15.3655 21.1829 15.0093 21.1829ZM26.8001 21.4595C26.8001 22.1676 26.71 22.8128 26.5298 23.3953C26.3497 23.9735 26.0815 24.4721 25.7254 24.8911C25.3734 25.3059 24.9355 25.6265 24.4118 25.8527C23.888 26.079 23.2805 26.1921 22.5891 26.1921C21.8768 26.1921 21.2546 26.079 20.7225 25.8527C20.1945 25.6265 19.7546 25.3038 19.4026 24.8848C19.0548 24.4658 18.7929 23.9651 18.617 23.3827C18.4452 22.8003 18.3593 22.155 18.3593 21.4469C18.3593 20.5083 18.5143 19.685 18.8244 18.9769C19.1344 18.2687 19.6037 17.7178 20.2322 17.3239C20.8649 16.93 21.6568 16.7331 22.608 16.7331C23.5172 16.7331 24.2819 16.9279 24.902 17.3176C25.5263 17.7073 25.9977 18.2562 26.3162 18.9643C26.6388 19.6682 26.8001 20.4999 26.8001 21.4595ZM19.4843 21.4595C19.4843 22.2388 19.5953 22.9134 19.8174 23.4832C20.0395 24.0531 20.3789 24.493 20.8356 24.8031C21.2965 25.1132 21.881 25.2682 22.5891 25.2682C23.3014 25.2682 23.8838 25.1132 24.3364 24.8031C24.7931 24.493 25.1304 24.0531 25.3483 23.4832C25.5661 22.9134 25.6751 22.2388 25.6751 21.4595C25.6751 20.2737 25.4258 19.3477 24.9272 18.6815C24.4327 18.0111 23.6597 17.6759 22.608 17.6759C21.8957 17.6759 21.3091 17.8288 20.8482 18.1347C20.3873 18.4405 20.0437 18.8763 19.8174 19.442C19.5953 20.0034 19.4843 20.6759 19.4843 21.4595ZM34.6124 26.0664L33.4811 23.1501H29.7981L28.6731 26.0664H27.592L31.1871 16.8399H32.1487L35.7186 26.0664H34.6124ZM33.1606 22.2011L32.0858 19.3037C32.0607 19.2283 32.0188 19.1047 31.9601 18.9329C31.9057 18.7611 31.8491 18.583 31.7904 18.3986C31.7318 18.2143 31.6836 18.0655 31.6459 17.9524C31.604 18.1242 31.5579 18.296 31.5076 18.4678C31.4615 18.6354 31.4154 18.7925 31.3693 18.9392C31.3233 19.0816 31.2834 19.2031 31.2499 19.3037L30.1563 22.2011H33.1606Z" fill="white"/>
<path d="M244.564 -2.81322e-07C248.119 -1.25952e-07 251 2.88145 251 6.4359V6.4359L-3.14234e-06 6.43589V6.43589C-2.98698e-06 2.88144 2.88145 -1.08456e-05 6.43589 -1.06902e-05L244.564 -2.81322e-07Z" fill="#FF3D57"/>
<path d="M95.0387 96.4023H94.0983V89.1871H91.5686V88.3622H97.5575V89.1871H95.0387V96.4023ZM100.89 90.276C101.609 90.276 102.142 90.4373 102.49 90.7599C102.839 91.0826 103.013 91.5977 103.013 92.3053V96.4023H102.347L102.171 95.5114H102.127C101.959 95.7314 101.783 95.9166 101.6 96.0669C101.416 96.2135 101.204 96.3254 100.962 96.4023C100.723 96.4757 100.43 96.5123 100.082 96.5123C99.7151 96.5123 99.3888 96.4482 99.1028 96.3199C98.8205 96.1915 98.5969 95.9972 98.4319 95.7369C98.2706 95.4766 98.1899 95.1466 98.1899 94.747C98.1899 94.1457 98.4282 93.6838 98.9048 93.3612C99.3815 93.0385 100.107 92.8625 101.083 92.8332L102.122 92.7892V92.4208C102.122 91.9001 102.01 91.5354 101.787 91.3264C101.563 91.1174 101.248 91.0129 100.841 91.0129C100.525 91.0129 100.225 91.0587 99.9387 91.1504C99.6528 91.2421 99.3815 91.3502 99.1248 91.4749L98.8443 90.7819C99.1156 90.6426 99.4273 90.5235 99.7792 90.4245C100.131 90.3255 100.502 90.276 100.89 90.276ZM102.111 93.4327L101.193 93.4712C100.441 93.5005 99.9112 93.6233 99.6033 93.8396C99.2953 94.0559 99.1413 94.3621 99.1413 94.758C99.1413 95.1026 99.2458 95.3575 99.4548 95.5224C99.6638 95.6874 99.9406 95.7699 100.285 95.7699C100.82 95.7699 101.259 95.6214 101.6 95.3245C101.941 95.0275 102.111 94.582 102.111 93.9881V93.4327ZM107.632 90.265C107.753 90.265 107.88 90.2723 108.012 90.287C108.144 90.298 108.261 90.3145 108.364 90.3365L108.248 91.1834C108.149 91.1577 108.039 91.1376 107.918 91.1229C107.797 91.1082 107.684 91.1009 107.577 91.1009C107.335 91.1009 107.106 91.1504 106.89 91.2494C106.677 91.3447 106.49 91.484 106.329 91.6673C106.168 91.847 106.041 92.0651 105.95 92.3218C105.858 92.5747 105.812 92.857 105.812 93.1687V96.4023H104.894V90.375H105.653L105.752 91.4859H105.79C105.915 91.2622 106.065 91.0587 106.241 90.8754C106.417 90.6884 106.621 90.54 106.852 90.43C107.086 90.32 107.346 90.265 107.632 90.265ZM111.185 99.1081C110.393 99.1081 109.783 98.9596 109.354 98.6626C108.925 98.3693 108.71 97.9568 108.71 97.4252C108.71 97.0476 108.829 96.725 109.068 96.4573C109.31 96.1897 109.643 96.0119 110.069 95.9239C109.911 95.8506 109.775 95.7406 109.662 95.5939C109.552 95.4473 109.497 95.2786 109.497 95.088C109.497 94.868 109.557 94.6755 109.678 94.5105C109.803 94.3419 109.992 94.1806 110.245 94.0266C109.929 93.8983 109.673 93.682 109.475 93.3777C109.28 93.0697 109.183 92.7122 109.183 92.3053C109.183 91.8727 109.273 91.5042 109.453 91.1999C109.632 90.8919 109.893 90.6573 110.234 90.496C110.575 90.3346 110.987 90.254 111.471 90.254C111.577 90.254 111.684 90.2595 111.79 90.2705C111.9 90.2778 112.004 90.2907 112.103 90.309C112.202 90.3236 112.289 90.342 112.362 90.364H114.43V90.9524L113.319 91.0899C113.429 91.2329 113.52 91.4052 113.594 91.6068C113.667 91.8085 113.704 92.0321 113.704 92.2778C113.704 92.879 113.5 93.3575 113.093 93.7131C112.686 94.0651 112.127 94.2411 111.416 94.2411C111.247 94.2411 111.075 94.2264 110.899 94.1971C110.719 94.2961 110.582 94.4061 110.487 94.527C110.395 94.648 110.349 94.7873 110.349 94.945C110.349 95.0623 110.384 95.1558 110.454 95.2255C110.527 95.2951 110.631 95.3465 110.767 95.3795C110.903 95.4088 111.066 95.4234 111.257 95.4234H112.318C112.974 95.4234 113.476 95.5609 113.825 95.8359C114.177 96.1109 114.353 96.5123 114.353 97.0403C114.353 97.7075 114.081 98.219 113.539 98.5746C112.996 98.9302 112.212 99.1081 111.185 99.1081ZM111.213 98.3931C111.711 98.3931 112.124 98.3418 112.45 98.2392C112.78 98.1402 113.026 97.9953 113.187 97.8047C113.352 97.6177 113.434 97.3941 113.434 97.1338C113.434 96.8918 113.379 96.7085 113.269 96.5838C113.159 96.4628 112.998 96.3822 112.785 96.3419C112.573 96.2979 112.312 96.2759 112.004 96.2759H110.96C110.688 96.2759 110.452 96.318 110.25 96.4023C110.049 96.4867 109.893 96.6113 109.783 96.7763C109.676 96.9413 109.623 97.1466 109.623 97.3922C109.623 97.7185 109.761 97.966 110.036 98.1347C110.311 98.307 110.703 98.3931 111.213 98.3931ZM111.449 93.5756C111.885 93.5756 112.213 93.4657 112.433 93.2457C112.653 93.0257 112.763 92.7049 112.763 92.2833C112.763 91.8323 112.652 91.495 112.428 91.2714C112.204 91.0441 111.874 90.9304 111.438 90.9304C111.02 90.9304 110.697 91.0477 110.47 91.2824C110.246 91.5134 110.135 91.8525 110.135 92.2998C110.135 92.7104 110.248 93.0257 110.476 93.2457C110.703 93.4657 111.027 93.5756 111.449 93.5756ZM117.938 90.265C118.452 90.265 118.892 90.3786 119.258 90.606C119.625 90.8333 119.905 91.1522 120.1 91.5629C120.294 91.9698 120.391 92.4464 120.391 92.9927V93.5591H116.228C116.239 94.2667 116.415 94.8057 116.756 95.176C117.097 95.5463 117.577 95.7314 118.197 95.7314C118.578 95.7314 118.915 95.6966 119.209 95.6269C119.502 95.5573 119.806 95.4546 120.122 95.319V96.1219C119.817 96.2575 119.515 96.3565 119.214 96.4188C118.917 96.4812 118.565 96.5123 118.158 96.5123C117.579 96.5123 117.073 96.395 116.64 96.1604C116.212 95.9221 115.878 95.5738 115.64 95.1155C115.401 94.6572 115.282 94.0963 115.282 93.4327C115.282 92.7837 115.39 92.2228 115.607 91.7498C115.827 91.2732 116.135 90.9066 116.53 90.6499C116.93 90.3933 117.399 90.265 117.938 90.265ZM117.927 91.0129C117.44 91.0129 117.051 91.1724 116.761 91.4914C116.472 91.8103 116.3 92.2558 116.245 92.8277H119.434C119.431 92.4684 119.374 92.1531 119.264 91.8818C119.157 91.6068 118.994 91.3942 118.774 91.2439C118.554 91.0899 118.272 91.0129 117.927 91.0129ZM123.889 95.7644C124.039 95.7644 124.193 95.7516 124.351 95.7259C124.508 95.7003 124.637 95.6691 124.736 95.6324V96.3419C124.629 96.3895 124.481 96.4298 124.29 96.4628C124.103 96.4958 123.92 96.5123 123.74 96.5123C123.421 96.5123 123.132 96.4573 122.871 96.3473C122.611 96.2337 122.402 96.043 122.244 95.7754C122.09 95.5078 122.013 95.1375 122.013 94.6645V91.0899H121.156V90.6444L122.019 90.287L122.382 88.9781H122.932V90.375H124.697V91.0899H122.932V94.637C122.932 95.0147 123.018 95.297 123.19 95.4839C123.366 95.6709 123.599 95.7644 123.889 95.7644ZM125.819 95.8304C125.819 95.5738 125.881 95.3923 126.006 95.286C126.131 95.176 126.283 95.121 126.462 95.121C126.649 95.121 126.807 95.176 126.935 95.286C127.064 95.3923 127.128 95.5738 127.128 95.8304C127.128 96.0834 127.064 96.2685 126.935 96.3858C126.807 96.4995 126.649 96.5563 126.462 96.5563C126.283 96.5563 126.131 96.4995 126.006 96.3858C125.881 96.2685 125.819 96.0834 125.819 95.8304ZM125.819 90.9524C125.819 90.6884 125.881 90.5033 126.006 90.397C126.131 90.287 126.283 90.232 126.462 90.232C126.649 90.232 126.807 90.287 126.935 90.397C127.064 90.5033 127.128 90.6884 127.128 90.9524C127.128 91.2017 127.064 91.3832 126.935 91.4969C126.807 91.6105 126.649 91.6673 126.462 91.6673C126.283 91.6673 126.131 91.6105 126.006 91.4969C125.881 91.3832 125.819 91.2017 125.819 90.9524ZM134.833 96.4023H133.942V90.7049C133.942 90.4886 133.942 90.3035 133.942 90.1495C133.945 89.9918 133.949 89.8489 133.953 89.7205C133.96 89.5886 133.969 89.4547 133.98 89.3191C133.867 89.4364 133.76 89.5372 133.661 89.6216C133.562 89.7022 133.439 89.803 133.293 89.924L132.374 90.6609L131.896 90.0395L134.074 88.3622H134.833V96.4023ZM143.192 92.3713C143.192 93.0239 143.142 93.6068 143.043 94.1201C142.944 94.6334 142.788 95.0678 142.576 95.4234C142.363 95.7791 142.088 96.0504 141.751 96.2374C141.414 96.4207 141.008 96.5123 140.535 96.5123C139.938 96.5123 139.443 96.3492 139.051 96.0229C138.662 95.6966 138.371 95.2255 138.176 94.6095C137.986 93.9899 137.89 93.2438 137.89 92.3713C137.89 91.5134 137.976 90.7764 138.149 90.1605C138.325 89.5409 138.607 89.0661 138.996 88.7361C139.384 88.4025 139.898 88.2357 140.535 88.2357C141.14 88.2357 141.639 88.4007 142.031 88.7306C142.424 89.0569 142.715 89.5299 142.906 90.1495C143.096 90.7654 143.192 91.506 143.192 92.3713ZM138.809 92.3713C138.809 93.1192 138.865 93.7425 138.979 94.2411C139.093 94.7397 139.276 95.1136 139.529 95.363C139.786 95.6086 140.121 95.7314 140.535 95.7314C140.95 95.7314 141.283 95.6086 141.536 95.363C141.793 95.1173 141.978 94.7452 142.092 94.2466C142.209 93.748 142.268 93.1229 142.268 92.3713C142.268 91.6343 142.211 91.0184 142.097 90.5235C141.984 90.0248 141.8 89.6509 141.547 89.4016C141.294 89.1486 140.957 89.0221 140.535 89.0221C140.114 89.0221 139.777 89.1486 139.524 89.4016C139.271 89.6509 139.087 90.0248 138.974 90.5235C138.864 91.0184 138.809 91.6343 138.809 92.3713ZM149.637 92.3713C149.637 93.0239 149.588 93.6068 149.489 94.1201C149.39 94.6334 149.234 95.0678 149.021 95.4234C148.808 95.7791 148.533 96.0504 148.196 96.2374C147.859 96.4207 147.454 96.5123 146.981 96.5123C146.383 96.5123 145.888 96.3492 145.496 96.0229C145.107 95.6966 144.816 95.2255 144.622 94.6095C144.431 93.9899 144.336 93.2438 144.336 92.3713C144.336 91.5134 144.422 90.7764 144.594 90.1605C144.77 89.5409 145.052 89.0661 145.441 88.7361C145.83 88.4025 146.343 88.2357 146.981 88.2357C147.586 88.2357 148.084 88.4007 148.477 88.7306C148.869 89.0569 149.16 89.5299 149.351 90.1495C149.542 90.7654 149.637 91.506 149.637 92.3713ZM145.254 92.3713C145.254 93.1192 145.311 93.7425 145.424 94.2411C145.538 94.7397 145.721 95.1136 145.974 95.363C146.231 95.6086 146.567 95.7314 146.981 95.7314C147.395 95.7314 147.729 95.6086 147.982 95.363C148.238 95.1173 148.423 94.7452 148.537 94.2466C148.654 93.748 148.713 93.1229 148.713 92.3713C148.713 91.6343 148.656 91.0184 148.543 90.5235C148.429 90.0248 148.246 89.6509 147.993 89.4016C147.74 89.1486 147.402 89.0221 146.981 89.0221C146.559 89.0221 146.222 89.1486 145.969 89.4016C145.716 89.6509 145.533 90.0248 145.419 90.5235C145.309 91.0184 145.254 91.6343 145.254 92.3713ZM152.409 88.2467C152.959 88.2467 153.375 88.4667 153.657 88.9066C153.943 89.3429 154.086 89.9607 154.086 90.7599C154.086 91.5592 153.949 92.1825 153.674 92.6297C153.399 93.0734 152.977 93.2952 152.409 93.2952C151.881 93.2952 151.476 93.0734 151.193 92.6297C150.915 92.1825 150.775 91.5592 150.775 90.7599C150.775 89.9607 150.909 89.3429 151.177 88.9066C151.445 88.4667 151.855 88.2467 152.409 88.2467ZM152.409 88.9011C152.112 88.9011 151.894 89.0569 151.754 89.3686C151.615 89.6765 151.545 90.1403 151.545 90.7599C151.545 91.3795 151.615 91.847 151.754 92.1623C151.894 92.4776 152.112 92.6352 152.409 92.6352C152.717 92.6352 152.946 92.4776 153.096 92.1623C153.246 91.847 153.322 91.3795 153.322 90.7599C153.322 90.144 153.246 89.6802 153.096 89.3686C152.95 89.0569 152.72 88.9011 152.409 88.9011ZM157.501 88.3622L153.041 96.4023H152.238L156.698 88.3622H157.501ZM157.287 91.4694C157.833 91.4694 158.249 91.6893 158.535 92.1293C158.821 92.5656 158.964 93.1833 158.964 93.9826C158.964 94.7782 158.827 95.3996 158.552 95.8469C158.277 96.2905 157.855 96.5123 157.287 96.5123C156.755 96.5123 156.35 96.2905 156.071 95.8469C155.793 95.3996 155.653 94.7782 155.653 93.9826C155.653 93.1833 155.785 92.5656 156.049 92.1293C156.317 91.6893 156.729 91.4694 157.287 91.4694ZM157.287 92.1293C156.99 92.1293 156.772 92.2833 156.632 92.5912C156.493 92.8992 156.423 93.363 156.423 93.9826C156.423 94.6022 156.493 95.0697 156.632 95.385C156.772 95.6966 156.99 95.8524 157.287 95.8524C157.595 95.8524 157.824 95.6984 157.974 95.3904C158.124 95.0788 158.2 94.6095 158.2 93.9826C158.2 93.3667 158.124 92.9047 157.974 92.5967C157.827 92.2851 157.598 92.1293 157.287 92.1293Z" fill="#A4A8B9"/>
<path d="M103.577 52.5653C104.908 52.5653 106.086 52.7748 107.113 53.1938C108.139 53.6129 108.941 54.2309 109.517 55.0479C110.103 55.8545 110.397 56.8497 110.397 58.0333C110.397 58.9656 110.192 59.7827 109.784 60.4845C109.386 61.1759 108.846 61.7834 108.165 62.3072C107.485 62.8205 106.73 63.2814 105.903 63.6899C106.887 64.1403 107.773 64.6484 108.558 65.214C109.354 65.7797 109.983 66.4448 110.444 67.2095C110.905 67.9742 111.135 68.8803 111.135 69.9278C111.135 71.2162 110.821 72.3318 110.192 73.2746C109.574 74.2069 108.705 74.9244 107.584 75.4272C106.463 75.93 105.149 76.1814 103.64 76.1814C102.017 76.1814 100.634 75.9405 99.4921 75.4587C98.3608 74.9663 97.4966 74.2645 96.8995 73.3532C96.3129 72.4314 96.0196 71.3262 96.0196 70.0378C96.0196 68.9798 96.2448 68.0632 96.6952 67.2881C97.1457 66.5025 97.7427 65.8268 98.4865 65.2612C99.2302 64.6955 100.042 64.2189 100.922 63.8313C100.157 63.4123 99.4554 62.9357 98.8164 62.4015C98.1879 61.8672 97.6851 61.244 97.308 60.5317C96.9414 59.8089 96.7581 58.9709 96.7581 58.0176C96.7581 56.8549 97.0514 55.8702 97.638 55.0637C98.2351 54.2466 99.0469 53.6286 100.073 53.2096C101.11 52.7801 102.278 52.5653 103.577 52.5653ZM98.5807 70.0535C98.5807 71.2267 98.9945 72.1957 99.822 72.9603C100.65 73.7146 101.901 74.0917 103.577 74.0917C105.17 74.0917 106.4 73.7146 107.27 72.9603C108.139 72.1957 108.574 71.1953 108.574 69.9592C108.574 69.1946 108.375 68.5241 107.977 67.948C107.579 67.3614 107.013 66.8377 106.28 66.3768C105.547 65.9158 104.682 65.4968 103.687 65.1197L103.122 64.9155C102.158 65.3135 101.336 65.7587 100.655 66.2511C99.9844 66.7329 99.4711 67.2828 99.115 67.9009C98.7588 68.5189 98.5807 69.2365 98.5807 70.0535ZM103.546 54.7023C102.31 54.7023 101.299 55.0008 100.513 55.5979C99.7278 56.1845 99.335 57.033 99.335 58.1433C99.335 58.9394 99.5235 59.6151 99.9006 60.1703C100.288 60.715 100.812 61.1863 101.472 61.5844C102.132 61.972 102.87 62.3334 103.687 62.6686C104.483 62.3334 105.191 61.9667 105.809 61.5687C106.427 61.1602 106.914 60.6783 107.27 60.1231C107.626 59.5679 107.804 58.9028 107.804 58.1276C107.804 57.0173 107.411 56.1688 106.626 55.5822C105.85 54.9956 104.824 54.7023 103.546 54.7023ZM124.114 75.8672H121.568V59.5889C121.568 58.9709 121.568 58.4419 121.568 58.0019C121.579 57.5515 121.589 57.143 121.6 56.7763C121.621 56.3992 121.647 56.0169 121.678 55.6293C121.354 55.9645 121.05 56.2526 120.767 56.4935C120.484 56.724 120.133 57.012 119.714 57.3577L117.09 59.4632L115.723 57.6877L121.945 52.8953H124.114V75.8672ZM137.501 52.5653C139.072 52.5653 140.261 53.1938 141.068 54.4509C141.885 55.6974 142.293 57.4624 142.293 59.746C142.293 62.0296 141.9 63.8104 141.115 65.0883C140.329 66.3558 139.125 66.9895 137.501 66.9895C135.993 66.9895 134.835 66.3558 134.028 65.0883C133.232 63.8104 132.834 62.0296 132.834 59.746C132.834 57.4624 133.217 55.6974 133.981 54.4509C134.746 53.1938 135.919 52.5653 137.501 52.5653ZM137.501 54.4351C136.652 54.4351 136.029 54.8803 135.631 55.7707C135.233 56.6506 135.034 57.9757 135.034 59.746C135.034 61.5163 135.233 62.8519 135.631 63.7527C136.029 64.6536 136.652 65.104 137.501 65.104C138.381 65.104 139.036 64.6536 139.465 63.7527C139.895 62.8519 140.109 61.5163 140.109 59.746C140.109 57.9862 139.895 56.6611 139.465 55.7707C139.046 54.8803 138.391 54.4351 137.501 54.4351ZM152.051 52.8953L139.308 75.8672H137.014L149.757 52.8953H152.051ZM151.438 61.773C152.999 61.773 154.188 62.4015 155.005 63.6585C155.822 64.905 156.23 66.6701 156.23 68.9536C156.23 71.2267 155.838 73.0022 155.052 74.2802C154.266 75.5477 153.062 76.1814 151.438 76.1814C149.919 76.1814 148.762 75.5477 147.966 74.2802C147.169 73.0022 146.771 71.2267 146.771 68.9536C146.771 66.6701 147.149 64.905 147.903 63.6585C148.667 62.4015 149.846 61.773 151.438 61.773ZM151.438 63.6585C150.59 63.6585 149.966 64.0984 149.568 64.9783C149.17 65.8582 148.971 67.1833 148.971 68.9536C148.971 70.7239 149.17 72.0595 149.568 72.9603C149.966 73.8507 150.59 74.2959 151.438 74.2959C152.318 74.2959 152.973 73.856 153.402 72.9761C153.832 72.0857 154.046 70.7449 154.046 68.9536C154.046 67.1938 153.832 65.8739 153.402 64.994C152.983 64.1037 152.328 63.6585 151.438 63.6585Z" fill="white"/>
<path d="M110.215 147.22C110.215 141.889 114.537 137.566 119.869 137.566L234.91 137.566C240.242 137.566 244.564 141.889 244.564 147.22V147.22C244.564 152.552 240.242 156.874 234.91 156.874L119.869 156.874C114.537 156.874 110.215 152.552 110.215 147.22V147.22Z" fill="url(#paint0_linear_3540_2250)"/>
<mask id="path-7-inside-1_3540_2250" fill="white">
<path d="M126.295 150.934L124.636 145.527H124.594C124.6 145.656 124.609 145.851 124.622 146.111C124.638 146.369 124.652 146.644 124.664 146.936C124.677 147.229 124.683 147.493 124.683 147.728V150.934H123.377V144.042H125.367L126.998 149.312H127.026L128.756 144.042H130.745V150.934H129.383V147.672C129.383 147.455 129.386 147.205 129.392 146.922C129.402 146.639 129.413 146.371 129.425 146.116C129.438 145.858 129.447 145.665 129.454 145.536H129.411L127.634 150.934H126.295Z"/>
<path d="M135.787 150.934H134.325V145.258H132.454V144.042H137.658V145.258H135.787V150.934Z"/>
<path d="M142.021 150.934H140.56V145.258H138.688V144.042H143.892V145.258H142.021V150.934Z"/>
<path d="M147.604 144.042C148.23 144.042 148.745 144.117 149.151 144.268C149.559 144.419 149.862 144.647 150.06 144.952C150.258 145.257 150.357 145.642 150.357 146.107C150.357 146.421 150.298 146.696 150.178 146.932C150.059 147.167 149.902 147.367 149.707 147.53C149.512 147.694 149.301 147.827 149.075 147.931L151.102 150.934H149.481L147.835 148.289H147.058V150.934H145.596V144.042H147.604ZM147.501 145.239H147.058V147.101H147.529C148.013 147.101 148.359 147.021 148.566 146.861C148.777 146.697 148.882 146.459 148.882 146.144C148.882 145.818 148.769 145.585 148.542 145.447C148.319 145.308 147.972 145.239 147.501 145.239Z"/>
<path d="M161.482 147.422C161.482 148.198 161.333 148.847 161.034 149.369C160.739 149.887 160.31 150.278 159.747 150.542C159.185 150.803 158.508 150.934 157.716 150.934H155.764V144.042H157.928C158.651 144.042 159.278 144.171 159.809 144.429C160.34 144.683 160.752 145.062 161.044 145.565C161.336 146.064 161.482 146.683 161.482 147.422ZM159.964 147.46C159.964 146.95 159.889 146.532 159.738 146.206C159.59 145.876 159.37 145.632 159.078 145.475C158.789 145.318 158.431 145.239 158.003 145.239H157.226V149.727H157.853C158.566 149.727 159.095 149.537 159.441 149.156C159.79 148.776 159.964 148.211 159.964 147.46Z"/>
<path d="M167.773 150.934L167.273 149.293H164.761L164.261 150.934H162.687L165.119 144.014H166.906L169.347 150.934H167.773ZM166.924 148.068L166.425 146.465C166.393 146.358 166.351 146.221 166.297 146.055C166.247 145.885 166.195 145.714 166.142 145.541C166.092 145.365 166.051 145.213 166.019 145.084C165.988 145.213 165.944 145.373 165.887 145.565C165.834 145.753 165.782 145.932 165.732 146.102C165.682 146.272 165.645 146.393 165.623 146.465L165.128 148.068H166.924Z"/>
<path d="M174.931 149.02C174.931 149.428 174.832 149.783 174.634 150.085C174.436 150.387 174.147 150.619 173.767 150.783C173.39 150.946 172.931 151.028 172.39 151.028C172.151 151.028 171.917 151.012 171.688 150.981C171.462 150.949 171.243 150.904 171.033 150.844C170.825 150.781 170.627 150.704 170.439 150.613V149.255C170.766 149.4 171.105 149.53 171.457 149.647C171.809 149.763 172.158 149.821 172.503 149.821C172.742 149.821 172.934 149.79 173.078 149.727C173.226 149.664 173.333 149.578 173.399 149.468C173.465 149.358 173.498 149.232 173.498 149.09C173.498 148.918 173.44 148.77 173.324 148.647C173.207 148.525 173.047 148.41 172.843 148.303C172.642 148.196 172.414 148.082 172.159 147.959C171.999 147.884 171.825 147.793 171.636 147.686C171.447 147.576 171.268 147.442 171.099 147.285C170.929 147.128 170.789 146.938 170.679 146.715C170.572 146.488 170.519 146.218 170.519 145.904C170.519 145.492 170.613 145.14 170.802 144.848C170.99 144.556 171.259 144.333 171.608 144.179C171.96 144.022 172.374 143.943 172.852 143.943C173.21 143.943 173.551 143.985 173.875 144.07C174.202 144.152 174.543 144.271 174.898 144.429L174.427 145.565C174.109 145.436 173.825 145.337 173.573 145.268C173.322 145.195 173.066 145.159 172.805 145.159C172.623 145.159 172.467 145.189 172.338 145.249C172.209 145.305 172.112 145.387 172.046 145.494C171.98 145.598 171.947 145.719 171.947 145.857C171.947 146.02 171.994 146.159 172.089 146.272C172.186 146.382 172.33 146.488 172.522 146.592C172.717 146.696 172.959 146.817 173.248 146.955C173.6 147.122 173.9 147.296 174.148 147.478C174.4 147.657 174.593 147.87 174.728 148.115C174.863 148.357 174.931 148.658 174.931 149.02Z"/>
<path d="M182.471 150.934H181.014V147.959H178.285V150.934H176.824V144.042H178.285V146.743H181.014V144.042H182.471V150.934Z"/>
<path d="M184.858 144.042H187.003C187.921 144.042 188.615 144.171 189.087 144.429C189.558 144.686 189.794 145.139 189.794 145.786C189.794 146.047 189.751 146.283 189.667 146.493C189.585 146.704 189.465 146.877 189.308 147.012C189.151 147.147 188.959 147.235 188.733 147.276V147.323C188.963 147.37 189.17 147.452 189.355 147.568C189.541 147.681 189.689 147.848 189.799 148.068C189.912 148.284 189.968 148.574 189.968 148.935C189.968 149.353 189.866 149.711 189.662 150.01C189.458 150.308 189.165 150.538 188.785 150.698C188.408 150.855 187.959 150.934 187.437 150.934H184.858V144.042ZM186.32 146.771H187.168C187.592 146.771 187.886 146.705 188.05 146.573C188.213 146.438 188.295 146.24 188.295 145.979C188.295 145.715 188.197 145.527 188.003 145.414C187.811 145.297 187.506 145.239 187.088 145.239H186.32V146.771ZM186.32 147.931V149.727H187.272C187.712 149.727 188.018 149.642 188.191 149.472C188.364 149.303 188.45 149.075 188.45 148.789C188.45 148.619 188.413 148.47 188.337 148.341C188.262 148.212 188.135 148.112 187.955 148.039C187.779 147.967 187.536 147.931 187.225 147.931H186.32Z"/>
<path d="M198.243 147.478C198.243 148.009 198.177 148.493 198.045 148.93C197.913 149.364 197.712 149.738 197.442 150.052C197.175 150.366 196.836 150.608 196.424 150.778C196.012 150.945 195.525 151.028 194.963 151.028C194.4 151.028 193.913 150.945 193.501 150.778C193.09 150.608 192.749 150.366 192.478 150.052C192.211 149.738 192.012 149.362 191.88 148.925C191.748 148.489 191.682 148.003 191.682 147.469C191.682 146.756 191.798 146.135 192.031 145.607C192.266 145.076 192.628 144.664 193.115 144.372C193.602 144.08 194.221 143.934 194.972 143.934C195.72 143.934 196.334 144.08 196.815 144.372C197.299 144.664 197.657 145.076 197.89 145.607C198.126 146.138 198.243 146.762 198.243 147.478ZM193.214 147.478C193.214 147.959 193.274 148.374 193.393 148.723C193.516 149.068 193.706 149.336 193.963 149.524C194.221 149.71 194.554 149.802 194.963 149.802C195.377 149.802 195.714 149.71 195.971 149.524C196.229 149.336 196.416 149.068 196.532 148.723C196.652 148.374 196.711 147.959 196.711 147.478C196.711 146.756 196.576 146.187 196.306 145.772C196.036 145.357 195.591 145.15 194.972 145.15C194.56 145.15 194.224 145.244 193.963 145.433C193.706 145.618 193.516 145.885 193.393 146.234C193.274 146.58 193.214 146.994 193.214 147.478Z"/>
<path d="M204.534 150.934L204.035 149.293H201.522L201.022 150.934H199.448L201.88 144.014H203.667L206.109 150.934H204.534ZM203.686 148.068L203.186 146.465C203.155 146.358 203.112 146.221 203.059 146.055C203.008 145.885 202.957 145.714 202.903 145.541C202.853 145.365 202.812 145.213 202.781 145.084C202.749 145.213 202.705 145.373 202.649 145.565C202.595 145.753 202.543 145.932 202.493 146.102C202.443 146.272 202.407 146.393 202.385 146.465L201.89 148.068H203.686Z"/>
<path d="M209.632 144.042C210.258 144.042 210.773 144.117 211.178 144.268C211.587 144.419 211.89 144.647 212.088 144.952C212.286 145.257 212.385 145.642 212.385 146.107C212.385 146.421 212.325 146.696 212.206 146.932C212.087 147.167 211.929 147.367 211.735 147.53C211.54 147.694 211.329 147.827 211.103 147.931L213.13 150.934H211.508L209.863 148.289H209.085V150.934H207.624V144.042H209.632ZM209.529 145.239H209.085V147.101H209.557C210.041 147.101 210.386 147.021 210.594 146.861C210.804 146.697 210.91 146.459 210.91 146.144C210.91 145.818 210.797 145.585 210.57 145.447C210.347 145.308 210 145.239 209.529 145.239Z"/>
<path d="M220.359 147.422C220.359 148.198 220.209 148.847 219.911 149.369C219.615 149.887 219.187 150.278 218.624 150.542C218.061 150.803 217.384 150.934 216.592 150.934H214.641V144.042H216.804C217.527 144.042 218.154 144.171 218.685 144.429C219.216 144.683 219.628 145.062 219.92 145.565C220.213 146.064 220.359 146.683 220.359 147.422ZM218.841 147.46C218.841 146.95 218.765 146.532 218.615 146.206C218.467 145.876 218.247 145.632 217.955 145.475C217.666 145.318 217.307 145.239 216.88 145.239H216.102V149.727H216.729C217.442 149.727 217.972 149.537 218.318 149.156C218.666 148.776 218.841 148.211 218.841 147.46Z"/>
</mask>
<path d="M126.295 150.934L124.636 145.527H124.594C124.6 145.656 124.609 145.851 124.622 146.111C124.638 146.369 124.652 146.644 124.664 146.936C124.677 147.229 124.683 147.493 124.683 147.728V150.934H123.377V144.042H125.367L126.998 149.312H127.026L128.756 144.042H130.745V150.934H129.383V147.672C129.383 147.455 129.386 147.205 129.392 146.922C129.402 146.639 129.413 146.371 129.425 146.116C129.438 145.858 129.447 145.665 129.454 145.536H129.411L127.634 150.934H126.295Z" fill="white"/>
<path d="M135.787 150.934H134.325V145.258H132.454V144.042H137.658V145.258H135.787V150.934Z" fill="white"/>
<path d="M142.021 150.934H140.56V145.258H138.688V144.042H143.892V145.258H142.021V150.934Z" fill="white"/>
<path d="M147.604 144.042C148.23 144.042 148.745 144.117 149.151 144.268C149.559 144.419 149.862 144.647 150.06 144.952C150.258 145.257 150.357 145.642 150.357 146.107C150.357 146.421 150.298 146.696 150.178 146.932C150.059 147.167 149.902 147.367 149.707 147.53C149.512 147.694 149.301 147.827 149.075 147.931L151.102 150.934H149.481L147.835 148.289H147.058V150.934H145.596V144.042H147.604ZM147.501 145.239H147.058V147.101H147.529C148.013 147.101 148.359 147.021 148.566 146.861C148.777 146.697 148.882 146.459 148.882 146.144C148.882 145.818 148.769 145.585 148.542 145.447C148.319 145.308 147.972 145.239 147.501 145.239Z" fill="white"/>
<path d="M161.482 147.422C161.482 148.198 161.333 148.847 161.034 149.369C160.739 149.887 160.31 150.278 159.747 150.542C159.185 150.803 158.508 150.934 157.716 150.934H155.764V144.042H157.928C158.651 144.042 159.278 144.171 159.809 144.429C160.34 144.683 160.752 145.062 161.044 145.565C161.336 146.064 161.482 146.683 161.482 147.422ZM159.964 147.46C159.964 146.95 159.889 146.532 159.738 146.206C159.59 145.876 159.37 145.632 159.078 145.475C158.789 145.318 158.431 145.239 158.003 145.239H157.226V149.727H157.853C158.566 149.727 159.095 149.537 159.441 149.156C159.79 148.776 159.964 148.211 159.964 147.46Z" fill="white"/>
<path d="M167.773 150.934L167.273 149.293H164.761L164.261 150.934H162.687L165.119 144.014H166.906L169.347 150.934H167.773ZM166.924 148.068L166.425 146.465C166.393 146.358 166.351 146.221 166.297 146.055C166.247 145.885 166.195 145.714 166.142 145.541C166.092 145.365 166.051 145.213 166.019 145.084C165.988 145.213 165.944 145.373 165.887 145.565C165.834 145.753 165.782 145.932 165.732 146.102C165.682 146.272 165.645 146.393 165.623 146.465L165.128 148.068H166.924Z" fill="white"/>
<path d="M174.931 149.02C174.931 149.428 174.832 149.783 174.634 150.085C174.436 150.387 174.147 150.619 173.767 150.783C173.39 150.946 172.931 151.028 172.39 151.028C172.151 151.028 171.917 151.012 171.688 150.981C171.462 150.949 171.243 150.904 171.033 150.844C170.825 150.781 170.627 150.704 170.439 150.613V149.255C170.766 149.4 171.105 149.53 171.457 149.647C171.809 149.763 172.158 149.821 172.503 149.821C172.742 149.821 172.934 149.79 173.078 149.727C173.226 149.664 173.333 149.578 173.399 149.468C173.465 149.358 173.498 149.232 173.498 149.09C173.498 148.918 173.44 148.77 173.324 148.647C173.207 148.525 173.047 148.41 172.843 148.303C172.642 148.196 172.414 148.082 172.159 147.959C171.999 147.884 171.825 147.793 171.636 147.686C171.447 147.576 171.268 147.442 171.099 147.285C170.929 147.128 170.789 146.938 170.679 146.715C170.572 146.488 170.519 146.218 170.519 145.904C170.519 145.492 170.613 145.14 170.802 144.848C170.99 144.556 171.259 144.333 171.608 144.179C171.96 144.022 172.374 143.943 172.852 143.943C173.21 143.943 173.551 143.985 173.875 144.07C174.202 144.152 174.543 144.271 174.898 144.429L174.427 145.565C174.109 145.436 173.825 145.337 173.573 145.268C173.322 145.195 173.066 145.159 172.805 145.159C172.623 145.159 172.467 145.189 172.338 145.249C172.209 145.305 172.112 145.387 172.046 145.494C171.98 145.598 171.947 145.719 171.947 145.857C171.947 146.02 171.994 146.159 172.089 146.272C172.186 146.382 172.33 146.488 172.522 146.592C172.717 146.696 172.959 146.817 173.248 146.955C173.6 147.122 173.9 147.296 174.148 147.478C174.4 147.657 174.593 147.87 174.728 148.115C174.863 148.357 174.931 148.658 174.931 149.02Z" fill="white"/>
<path d="M182.471 150.934H181.014V147.959H178.285V150.934H176.824V144.042H178.285V146.743H181.014V144.042H182.471V150.934Z" fill="white"/>
<path d="M184.858 144.042H187.003C187.921 144.042 188.615 144.171 189.087 144.429C189.558 144.686 189.794 145.139 189.794 145.786C189.794 146.047 189.751 146.283 189.667 146.493C189.585 146.704 189.465 146.877 189.308 147.012C189.151 147.147 188.959 147.235 188.733 147.276V147.323C188.963 147.37 189.17 147.452 189.355 147.568C189.541 147.681 189.689 147.848 189.799 148.068C189.912 148.284 189.968 148.574 189.968 148.935C189.968 149.353 189.866 149.711 189.662 150.01C189.458 150.308 189.165 150.538 188.785 150.698C188.408 150.855 187.959 150.934 187.437 150.934H184.858V144.042ZM186.32 146.771H187.168C187.592 146.771 187.886 146.705 188.05 146.573C188.213 146.438 188.295 146.24 188.295 145.979C188.295 145.715 188.197 145.527 188.003 145.414C187.811 145.297 187.506 145.239 187.088 145.239H186.32V146.771ZM186.32 147.931V149.727H187.272C187.712 149.727 188.018 149.642 188.191 149.472C188.364 149.303 188.45 149.075 188.45 148.789C188.45 148.619 188.413 148.47 188.337 148.341C188.262 148.212 188.135 148.112 187.955 148.039C187.779 147.967 187.536 147.931 187.225 147.931H186.32Z" fill="white"/>
<path d="M198.243 147.478C198.243 148.009 198.177 148.493 198.045 148.93C197.913 149.364 197.712 149.738 197.442 150.052C197.175 150.366 196.836 150.608 196.424 150.778C196.012 150.945 195.525 151.028 194.963 151.028C194.4 151.028 193.913 150.945 193.501 150.778C193.09 150.608 192.749 150.366 192.478 150.052C192.211 149.738 192.012 149.362 191.88 148.925C191.748 148.489 191.682 148.003 191.682 147.469C191.682 146.756 191.798 146.135 192.031 145.607C192.266 145.076 192.628 144.664 193.115 144.372C193.602 144.08 194.221 143.934 194.972 143.934C195.72 143.934 196.334 144.08 196.815 144.372C197.299 144.664 197.657 145.076 197.89 145.607C198.126 146.138 198.243 146.762 198.243 147.478ZM193.214 147.478C193.214 147.959 193.274 148.374 193.393 148.723C193.516 149.068 193.706 149.336 193.963 149.524C194.221 149.71 194.554 149.802 194.963 149.802C195.377 149.802 195.714 149.71 195.971 149.524C196.229 149.336 196.416 149.068 196.532 148.723C196.652 148.374 196.711 147.959 196.711 147.478C196.711 146.756 196.576 146.187 196.306 145.772C196.036 145.357 195.591 145.15 194.972 145.15C194.56 145.15 194.224 145.244 193.963 145.433C193.706 145.618 193.516 145.885 193.393 146.234C193.274 146.58 193.214 146.994 193.214 147.478Z" fill="white"/>
<path d="M204.534 150.934L204.035 149.293H201.522L201.022 150.934H199.448L201.88 144.014H203.667L206.109 150.934H204.534ZM203.686 148.068L203.186 146.465C203.155 146.358 203.112 146.221 203.059 146.055C203.008 145.885 202.957 145.714 202.903 145.541C202.853 145.365 202.812 145.213 202.781 145.084C202.749 145.213 202.705 145.373 202.649 145.565C202.595 145.753 202.543 145.932 202.493 146.102C202.443 146.272 202.407 146.393 202.385 146.465L201.89 148.068H203.686Z" fill="white"/>
<path d="M209.632 144.042C210.258 144.042 210.773 144.117 211.178 144.268C211.587 144.419 211.89 144.647 212.088 144.952C212.286 145.257 212.385 145.642 212.385 146.107C212.385 146.421 212.325 146.696 212.206 146.932C212.087 147.167 211.929 147.367 211.735 147.53C211.54 147.694 211.329 147.827 211.103 147.931L213.13 150.934H211.508L209.863 148.289H209.085V150.934H207.624V144.042H209.632ZM209.529 145.239H209.085V147.101H209.557C210.041 147.101 210.386 147.021 210.594 146.861C210.804 146.697 210.91 146.459 210.91 146.144C210.91 145.818 210.797 145.585 210.57 145.447C210.347 145.308 210 145.239 209.529 145.239Z" fill="white"/>
<path d="M220.359 147.422C220.359 148.198 220.209 148.847 219.911 149.369C219.615 149.887 219.187 150.278 218.624 150.542C218.061 150.803 217.384 150.934 216.592 150.934H214.641V144.042H216.804C217.527 144.042 218.154 144.171 218.685 144.429C219.216 144.683 219.628 145.062 219.92 145.565C220.213 146.064 220.359 146.683 220.359 147.422ZM218.841 147.46C218.841 146.95 218.765 146.532 218.615 146.206C218.467 145.876 218.247 145.632 217.955 145.475C217.666 145.318 217.307 145.239 216.88 145.239H216.102V149.727H216.729C217.442 149.727 217.972 149.537 218.318 149.156C218.666 148.776 218.841 148.211 218.841 147.46Z" fill="white"/>
<path d="M126.295 150.934L124.636 145.527H124.594C124.6 145.656 124.609 145.851 124.622 146.111C124.638 146.369 124.652 146.644 124.664 146.936C124.677 147.229 124.683 147.493 124.683 147.728V150.934H123.377V144.042H125.367L126.998 149.312H127.026L128.756 144.042H130.745V150.934H129.383V147.672C129.383 147.455 129.386 147.205 129.392 146.922C129.402 146.639 129.413 146.371 129.425 146.116C129.438 145.858 129.447 145.665 129.454 145.536H129.411L127.634 150.934H126.295Z" stroke="white" stroke-width="2.02836" mask="url(#path-7-inside-1_3540_2250)"/>
<path d="M135.787 150.934H134.325V145.258H132.454V144.042H137.658V145.258H135.787V150.934Z" stroke="white" stroke-width="2.02836" mask="url(#path-7-inside-1_3540_2250)"/>
<path d="M142.021 150.934H140.56V145.258H138.688V144.042H143.892V145.258H142.021V150.934Z" stroke="white" stroke-width="2.02836" mask="url(#path-7-inside-1_3540_2250)"/>
<path d="M147.604 144.042C148.23 144.042 148.745 144.117 149.151 144.268C149.559 144.419 149.862 144.647 150.06 144.952C150.258 145.257 150.357 145.642 150.357 146.107C150.357 146.421 150.298 146.696 150.178 146.932C150.059 147.167 149.902 147.367 149.707 147.53C149.512 147.694 149.301 147.827 149.075 147.931L151.102 150.934H149.481L147.835 148.289H147.058V150.934H145.596V144.042H147.604ZM147.501 145.239H147.058V147.101H147.529C148.013 147.101 148.359 147.021 148.566 146.861C148.777 146.697 148.882 146.459 148.882 146.144C148.882 145.818 148.769 145.585 148.542 145.447C148.319 145.308 147.972 145.239 147.501 145.239Z" stroke="white" stroke-width="2.02836" mask="url(#path-7-inside-1_3540_2250)"/>
<path d="M161.482 147.422C161.482 148.198 161.333 148.847 161.034 149.369C160.739 149.887 160.31 150.278 159.747 150.542C159.185 150.803 158.508 150.934 157.716 150.934H155.764V144.042H157.928C158.651 144.042 159.278 144.171 159.809 144.429C160.34 144.683 160.752 145.062 161.044 145.565C161.336 146.064 161.482 146.683 161.482 147.422ZM159.964 147.46C159.964 146.95 159.889 146.532 159.738 146.206C159.59 145.876 159.37 145.632 159.078 145.475C158.789 145.318 158.431 145.239 158.003 145.239H157.226V149.727H157.853C158.566 149.727 159.095 149.537 159.441 149.156C159.79 148.776 159.964 148.211 159.964 147.46Z" stroke="white" stroke-width="2.02836" mask="url(#path-7-inside-1_3540_2250)"/>
<path d="M167.773 150.934L167.273 149.293H164.761L164.261 150.934H162.687L165.119 144.014H166.906L169.347 150.934H167.773ZM166.924 148.068L166.425 146.465C166.393 146.358 166.351 146.221 166.297 146.055C166.247 145.885 166.195 145.714 166.142 145.541C166.092 145.365 166.051 145.213 166.019 145.084C165.988 145.213 165.944 145.373 165.887 145.565C165.834 145.753 165.782 145.932 165.732 146.102C165.682 146.272 165.645 146.393 165.623 146.465L165.128 148.068H166.924Z" stroke="white" stroke-width="2.02836" mask="url(#path-7-inside-1_3540_2250)"/>
<path d="M174.931 149.02C174.931 149.428 174.832 149.783 174.634 150.085C174.436 150.387 174.147 150.619 173.767 150.783C173.39 150.946 172.931 151.028 172.39 151.028C172.151 151.028 171.917 151.012 171.688 150.981C171.462 150.949 171.243 150.904 171.033 150.844C170.825 150.781 170.627 150.704 170.439 150.613V149.255C170.766 149.4 171.105 149.53 171.457 149.647C171.809 149.763 172.158 149.821 172.503 149.821C172.742 149.821 172.934 149.79 173.078 149.727C173.226 149.664 173.333 149.578 173.399 149.468C173.465 149.358 173.498 149.232 173.498 149.09C173.498 148.918 173.44 148.77 173.324 148.647C173.207 148.525 173.047 148.41 172.843 148.303C172.642 148.196 172.414 148.082 172.159 147.959C171.999 147.884 171.825 147.793 171.636 147.686C171.447 147.576 171.268 147.442 171.099 147.285C170.929 147.128 170.789 146.938 170.679 146.715C170.572 146.488 170.519 146.218 170.519 145.904C170.519 145.492 170.613 145.14 170.802 144.848C170.99 144.556 171.259 144.333 171.608 144.179C171.96 144.022 172.374 143.943 172.852 143.943C173.21 143.943 173.551 143.985 173.875 144.07C174.202 144.152 174.543 144.271 174.898 144.429L174.427 145.565C174.109 145.436 173.825 145.337 173.573 145.268C173.322 145.195 173.066 145.159 172.805 145.159C172.623 145.159 172.467 145.189 172.338 145.249C172.209 145.305 172.112 145.387 172.046 145.494C171.98 145.598 171.947 145.719 171.947 145.857C171.947 146.02 171.994 146.159 172.089 146.272C172.186 146.382 172.33 146.488 172.522 146.592C172.717 146.696 172.959 146.817 173.248 146.955C173.6 147.122 173.9 147.296 174.148 147.478C174.4 147.657 174.593 147.87 174.728 148.115C174.863 148.357 174.931 148.658 174.931 149.02Z" stroke="white" stroke-width="2.02836" mask="url(#path-7-inside-1_3540_2250)"/>
<path d="M182.471 150.934H181.014V147.959H178.285V150.934H176.824V144.042H178.285V146.743H181.014V144.042H182.471V150.934Z" stroke="white" stroke-width="2.02836" mask="url(#path-7-inside-1_3540_2250)"/>
<path d="M184.858 144.042H187.003C187.921 144.042 188.615 144.171 189.087 144.429C189.558 144.686 189.794 145.139 189.794 145.786C189.794 146.047 189.751 146.283 189.667 146.493C189.585 146.704 189.465 146.877 189.308 147.012C189.151 147.147 188.959 147.235 188.733 147.276V147.323C188.963 147.37 189.17 147.452 189.355 147.568C189.541 147.681 189.689 147.848 189.799 148.068C189.912 148.284 189.968 148.574 189.968 148.935C189.968 149.353 189.866 149.711 189.662 150.01C189.458 150.308 189.165 150.538 188.785 150.698C188.408 150.855 187.959 150.934 187.437 150.934H184.858V144.042ZM186.32 146.771H187.168C187.592 146.771 187.886 146.705 188.05 146.573C188.213 146.438 188.295 146.24 188.295 145.979C188.295 145.715 188.197 145.527 188.003 145.414C187.811 145.297 187.506 145.239 187.088 145.239H186.32V146.771ZM186.32 147.931V149.727H187.272C187.712 149.727 188.018 149.642 188.191 149.472C188.364 149.303 188.45 149.075 188.45 148.789C188.45 148.619 188.413 148.47 188.337 148.341C188.262 148.212 188.135 148.112 187.955 148.039C187.779 147.967 187.536 147.931 187.225 147.931H186.32Z" stroke="white" stroke-width="2.02836" mask="url(#path-7-inside-1_3540_2250)"/>
<path d="M198.243 147.478C198.243 148.009 198.177 148.493 198.045 148.93C197.913 149.364 197.712 149.738 197.442 150.052C197.175 150.366 196.836 150.608 196.424 150.778C196.012 150.945 195.525 151.028 194.963 151.028C194.4 151.028 193.913 150.945 193.501 150.778C193.09 150.608 192.749 150.366 192.478 150.052C192.211 149.738 192.012 149.362 191.88 148.925C191.748 148.489 191.682 148.003 191.682 147.469C191.682 146.756 191.798 146.135 192.031 145.607C192.266 145.076 192.628 144.664 193.115 144.372C193.602 144.08 194.221 143.934 194.972 143.934C195.72 143.934 196.334 144.08 196.815 144.372C197.299 144.664 197.657 145.076 197.89 145.607C198.126 146.138 198.243 146.762 198.243 147.478ZM193.214 147.478C193.214 147.959 193.274 148.374 193.393 148.723C193.516 149.068 193.706 149.336 193.963 149.524C194.221 149.71 194.554 149.802 194.963 149.802C195.377 149.802 195.714 149.71 195.971 149.524C196.229 149.336 196.416 149.068 196.532 148.723C196.652 148.374 196.711 147.959 196.711 147.478C196.711 146.756 196.576 146.187 196.306 145.772C196.036 145.357 195.591 145.15 194.972 145.15C194.56 145.15 194.224 145.244 193.963 145.433C193.706 145.618 193.516 145.885 193.393 146.234C193.274 146.58 193.214 146.994 193.214 147.478Z" stroke="white" stroke-width="2.02836" mask="url(#path-7-inside-1_3540_2250)"/>
<path d="M204.534 150.934L204.035 149.293H201.522L201.022 150.934H199.448L201.88 144.014H203.667L206.109 150.934H204.534ZM203.686 148.068L203.186 146.465C203.155 146.358 203.112 146.221 203.059 146.055C203.008 145.885 202.957 145.714 202.903 145.541C202.853 145.365 202.812 145.213 202.781 145.084C202.749 145.213 202.705 145.373 202.649 145.565C202.595 145.753 202.543 145.932 202.493 146.102C202.443 146.272 202.407 146.393 202.385 146.465L201.89 148.068H203.686Z" stroke="white" stroke-width="2.02836" mask="url(#path-7-inside-1_3540_2250)"/>
<path d="M209.632 144.042C210.258 144.042 210.773 144.117 211.178 144.268C211.587 144.419 211.89 144.647 212.088 144.952C212.286 145.257 212.385 145.642 212.385 146.107C212.385 146.421 212.325 146.696 212.206 146.932C212.087 147.167 211.929 147.367 211.735 147.53C211.54 147.694 211.329 147.827 211.103 147.931L213.13 150.934H211.508L209.863 148.289H209.085V150.934H207.624V144.042H209.632ZM209.529 145.239H209.085V147.101H209.557C210.041 147.101 210.386 147.021 210.594 146.861C210.804 146.697 210.91 146.459 210.91 146.144C210.91 145.818 210.797 145.585 210.57 145.447C210.347 145.308 210 145.239 209.529 145.239Z" stroke="white" stroke-width="2.02836" mask="url(#path-7-inside-1_3540_2250)"/>
<path d="M220.359 147.422C220.359 148.198 220.209 148.847 219.911 149.369C219.615 149.887 219.187 150.278 218.624 150.542C218.061 150.803 217.384 150.934 216.592 150.934H214.641V144.042H216.804C217.527 144.042 218.154 144.171 218.685 144.429C219.216 144.683 219.628 145.062 219.92 145.565C220.213 146.064 220.359 146.683 220.359 147.422ZM218.841 147.46C218.841 146.95 218.765 146.532 218.615 146.206C218.467 145.876 218.247 145.632 217.955 145.475C217.666 145.318 217.307 145.239 216.88 145.239H216.102V149.727H216.729C217.442 149.727 217.972 149.537 218.318 149.156C218.666 148.776 218.841 148.211 218.841 147.46Z" stroke="white" stroke-width="2.02836" mask="url(#path-7-inside-1_3540_2250)"/>
<line x1="231.728" y1="149.35" x2="234.363" y2="146.715" stroke="white" stroke-width="1.20673" stroke-linecap="round"/>
<line x1="0.603365" y1="-0.603365" x2="4.33002" y2="-0.603365" transform="matrix(0.707107 0.707107 0.707107 -0.707107 231.728 143.227)" stroke="white" stroke-width="1.20673" stroke-linecap="round"/>
<g filter="url(#filter1_d_3540_2250)">
<path d="M77.1123 64.3614C77.1123 67.2166 74.7977 69.5312 71.9424 69.5312V69.5312C69.0872 69.5312 66.7726 67.2166 66.7726 64.3614V64.3614C66.7726 61.5061 69.0872 59.1915 71.9424 59.1915V59.1915C74.7977 59.1915 77.1123 61.5061 77.1123 64.3614V64.3614Z" fill="#FF3D57"/>
</g>
<circle opacity="0.1" cx="234.91" cy="22.5249" r="9.65385" fill="#C6D0EB"/>
<g opacity="0.5">
<mask id="path-12-inside-2_3540_2250" fill="white">
<path fill-rule="evenodd" clip-rule="evenodd" d="M236.62 17.7305C236.398 17.7305 236.218 17.9106 236.218 18.1327C236.218 18.3549 236.398 18.535 236.62 18.535H239.136L235.9 21.7712C235.743 21.9283 235.743 22.183 235.9 22.3401C236.057 22.4971 236.311 22.4971 236.469 22.3401L239.704 19.105V21.6188C239.704 21.841 239.884 22.0211 240.106 22.0211C240.328 22.0211 240.508 21.841 240.508 21.6188V18.1327V17.7305H240.106H236.62ZM234.726 24.0831C234.883 23.926 234.883 23.6713 234.726 23.5143C234.568 23.3572 234.314 23.3572 234.157 23.5143L230.921 26.7497V24.2324C230.921 24.0102 230.741 23.8301 230.519 23.8301C230.297 23.8301 230.117 24.0102 230.117 24.2324V27.7185V28.1207H230.519H234.005C234.227 28.1207 234.407 27.9406 234.407 27.7185C234.407 27.4963 234.227 27.3162 234.005 27.3162H231.492L234.726 24.0831Z"/>
</mask>
<path d="M239.136 18.535L239.591 18.99L240.69 17.8914H239.136V18.535ZM235.9 21.7712L236.355 22.2263L235.9 21.7712ZM236.469 22.3401L236.924 22.7952L236.469 22.3401ZM239.704 19.105H240.347V17.5512L239.249 18.6499L239.704 19.105ZM240.508 17.7305H241.152V17.0869H240.508V17.7305ZM234.726 24.0831L235.181 24.5382L234.726 24.0831ZM234.157 23.5143L233.702 23.0592L234.157 23.5143ZM230.921 26.7497H230.278V28.3035L231.376 27.2048L230.921 26.7497ZM230.117 28.1207H229.473V28.7643H230.117V28.1207ZM231.492 27.3162L231.037 26.8611L229.939 27.9598H231.492V27.3162ZM236.861 18.1327C236.861 18.266 236.753 18.3741 236.62 18.3741V17.0869C236.042 17.0869 235.574 17.5551 235.574 18.1327H236.861ZM236.62 17.8914C236.753 17.8914 236.861 17.9994 236.861 18.1327H235.574C235.574 18.7103 236.042 19.1785 236.62 19.1785V17.8914ZM239.136 17.8914H236.62V19.1785H239.136V17.8914ZM238.681 18.0799L235.445 21.3161L236.355 22.2263L239.591 18.99L238.681 18.0799ZM235.445 21.3161C235.036 21.7245 235.036 22.3867 235.445 22.7952L236.355 21.885C236.449 21.9792 236.449 22.132 236.355 22.2263L235.445 21.3161ZM235.445 22.7952C235.853 23.2036 236.515 23.2036 236.924 22.7952L236.013 21.885C236.108 21.7907 236.261 21.7907 236.355 21.885L235.445 22.7952ZM236.924 22.7952L240.159 19.5601L239.249 18.6499L236.013 21.885L236.924 22.7952ZM240.347 21.6188V19.105H239.06V21.6188H240.347ZM240.106 21.3775C240.239 21.3775 240.347 21.4855 240.347 21.6188H239.06C239.06 22.1964 239.528 22.6647 240.106 22.6647V21.3775ZM239.865 21.6188C239.865 21.4855 239.973 21.3775 240.106 21.3775V22.6647C240.683 22.6647 241.152 22.1964 241.152 21.6188H239.865ZM239.865 18.1327V21.6188H241.152V18.1327H239.865ZM239.865 17.7305V18.1327H241.152V17.7305H239.865ZM240.106 18.3741H240.508V17.0869H240.106V18.3741ZM236.62 18.3741H240.106V17.0869H236.62V18.3741ZM234.27 23.9693C234.176 23.8751 234.176 23.7223 234.27 23.628L235.181 24.5382C235.589 24.1298 235.589 23.4676 235.181 23.0592L234.27 23.9693ZM234.612 23.9693C234.517 24.0636 234.365 24.0636 234.27 23.9693L235.181 23.0592C234.772 22.6508 234.11 22.6508 233.702 23.0592L234.612 23.9693ZM231.376 27.2048L234.612 23.9693L233.702 23.0592L230.466 26.2946L231.376 27.2048ZM230.278 24.2324V26.7497H231.565V24.2324H230.278ZM230.519 24.4737C230.386 24.4737 230.278 24.3657 230.278 24.2324H231.565C231.565 23.6548 231.097 23.1865 230.519 23.1865V24.4737ZM230.76 24.2324C230.76 24.3657 230.652 24.4737 230.519 24.4737V23.1865C229.941 23.1865 229.473 23.6548 229.473 24.2324H230.76ZM230.76 27.7185V24.2324H229.473V27.7185H230.76ZM230.76 28.1207V27.7185H229.473V28.1207H230.76ZM230.519 27.4771H230.117V28.7643H230.519V27.4771ZM234.005 27.4771H230.519V28.7643H234.005V27.4771ZM233.764 27.7185C233.764 27.5852 233.872 27.4771 234.005 27.4771V28.7643C234.583 28.7643 235.051 28.2961 235.051 27.7185H233.764ZM234.005 27.9598C233.872 27.9598 233.764 27.8518 233.764 27.7185H235.051C235.051 27.1409 234.583 26.6726 234.005 26.6726V27.9598ZM231.492 27.9598H234.005V26.6726H231.492V27.9598ZM234.27 23.628L231.037 26.8611L231.947 27.7713L235.181 24.5382L234.27 23.628Z" fill="white" mask="url(#path-12-inside-2_3540_2250)"/>
</g>
</g>
<defs>
<filter id="filter0_d_3540_2250" x="-12.0673" y="0" width="275.135" height="176.184" filterUnits="userSpaceOnUse" color-interpolation-filters="sRGB">
<feFlood flood-opacity="0" result="BackgroundImageFix"/>
<feColorMatrix in="SourceAlpha" type="matrix" values="0 0 0 0 0 0 0 0 0 0 0 0 0 0 0 0 0 0 127 0" result="hardAlpha"/>
<feOffset dy="16.0897"/>
<feGaussianBlur stdDeviation="6.03365"/>
<feColorMatrix type="matrix" values="0 0 0 0 0.0627451 0 0 0 0 0.0588235 0 0 0 0 0.0745098 0 0 0 1 0"/>
<feBlend mode="normal" in2="BackgroundImageFix" result="effect1_dropShadow_3540_2250"/>
<feBlend mode="normal" in="SourceGraphic" in2="effect1_dropShadow_3540_2250" result="shape"/>
</filter>
<filter id="filter1_d_3540_2250" x="56.4327" y="48.8517" width="31.0193" height="31.0193" filterUnits="userSpaceOnUse" color-interpolation-filters="sRGB">
<feFlood flood-opacity="0" result="BackgroundImageFix"/>
<feColorMatrix in="SourceAlpha" type="matrix" values="0 0 0 0 0 0 0 0 0 0 0 0 0 0 0 0 0 0 127 0" result="hardAlpha"/>
<feOffset/>
<feGaussianBlur stdDeviation="5.16987"/>
<feColorMatrix type="matrix" values="0 0 0 0 1 0 0 0 0 0.239216 0 0 0 0 0.341176 0 0 0 0.9 0"/>
<feBlend mode="normal" in2="BackgroundImageFix" result="effect1_dropShadow_3540_2250"/>
<feBlend mode="normal" in="SourceGraphic" in2="effect1_dropShadow_3540_2250" result="shape"/>
</filter>
<linearGradient id="paint0_linear_3540_2250" x1="110.071" y1="147.227" x2="244.711" y2="147.227" gradientUnits="userSpaceOnUse">
<stop stop-color="#00B7F1"/>
<stop offset="1" stop-color="#007AFF"/>
</linearGradient>
<clipPath id="clip0_3540_2250">
<rect width="251" height="163.311" fill="white"/>
</clipPath>
</defs>
</svg>
