<svg width="302" height="445" viewBox="0 0 302 445" fill="none" xmlns="http://www.w3.org/2000/svg">
<path d="M26.2251 2.71973H28.98C30.258 2.71973 31.1805 2.90592 31.7476 3.27832C32.3188 3.65072 32.6045 4.23893 32.6045 5.04297C32.6045 5.58464 32.4648 6.03532 32.1855 6.39502C31.9062 6.75472 31.5042 6.98112 30.9795 7.07422V7.1377C31.6312 7.26042 32.1094 7.50374 32.4141 7.86768C32.723 8.22738 32.8774 8.71615 32.8774 9.33398C32.8774 10.1676 32.5854 10.8215 32.0015 11.2954C31.4217 11.7651 30.6134 12 29.5767 12H26.2251V2.71973ZM27.7422 6.55371H29.2021C29.8369 6.55371 30.3003 6.45426 30.5923 6.25537C30.8843 6.05225 31.0303 5.70947 31.0303 5.22705C31.0303 4.79118 30.8716 4.47591 30.5542 4.28125C30.241 4.08659 29.7417 3.98926 29.0562 3.98926H27.7422V6.55371ZM27.7422 7.78516V10.7241H29.3545C29.9893 10.7241 30.4674 10.6035 30.7891 10.3623C31.1149 10.1169 31.2778 9.73177 31.2778 9.20703C31.2778 8.72461 31.1128 8.36702 30.7827 8.13428C30.4526 7.90153 29.9512 7.78516 29.2783 7.78516H27.7422ZM38.4287 6.95361L40.625 2.71973H42.2754L39.1841 8.40088V12H37.6606V8.45166L34.582 2.71973H36.2324L38.4287 6.95361ZM55.022 5.52539C55.022 6.49447 54.7046 7.23714 54.0698 7.75342C53.4351 8.26969 52.5316 8.52783 51.3594 8.52783H50.3945V12H48.8774V2.71973H51.5498C52.7093 2.71973 53.5768 2.95671 54.1523 3.43066C54.7321 3.90462 55.022 4.60286 55.022 5.52539ZM50.3945 7.25195H51.2007C51.9793 7.25195 52.5506 7.11654 52.9146 6.8457C53.2785 6.57487 53.4604 6.15169 53.4604 5.57617C53.4604 5.04297 53.2975 4.64518 52.9717 4.38281C52.6458 4.12044 52.138 3.98926 51.4482 3.98926H50.3945V7.25195ZM59.3926 7.03613H60.4463C61.153 7.03613 61.665 6.90495 61.9824 6.64258C62.2998 6.38021 62.4585 5.99089 62.4585 5.47461C62.4585 4.94987 62.2871 4.57324 61.9443 4.34473C61.6016 4.11621 61.0853 4.00195 60.3955 4.00195H59.3926V7.03613ZM59.3926 8.29297V12H57.8755V2.71973H60.4971C61.6947 2.71973 62.5812 2.94401 63.1567 3.39258C63.7323 3.84115 64.02 4.51823 64.02 5.42383C64.02 6.5791 63.4191 7.40218 62.2173 7.89307L64.8389 12H63.1123L60.8906 8.29297H59.3926ZM75.4302 7.34717C75.4302 8.85791 75.0514 10.0322 74.2939 10.8701C73.5407 11.708 72.4722 12.127 71.0884 12.127C69.6877 12.127 68.6107 11.7122 67.8574 10.8828C67.1084 10.0492 66.7339 8.86637 66.7339 7.33447C66.7339 5.80257 67.1105 4.62614 67.8638 3.80518C68.6213 2.98421 69.7004 2.57373 71.1011 2.57373C72.4806 2.57373 73.547 2.99056 74.3003 3.82422C75.0535 4.65788 75.4302 5.83219 75.4302 7.34717ZM68.3462 7.34717C68.3462 8.48975 68.5768 9.35726 69.0381 9.94971C69.4993 10.5379 70.1828 10.832 71.0884 10.832C71.9897 10.832 72.6689 10.54 73.126 9.95605C73.5872 9.37207 73.8179 8.50244 73.8179 7.34717C73.8179 6.20882 73.5894 5.34554 73.1323 4.75732C72.6795 4.16911 72.0024 3.875 71.1011 3.875C70.1912 3.875 69.5036 4.16911 69.0381 4.75732C68.5768 5.34554 68.3462 6.20882 68.3462 7.34717ZM82.3716 3.8877C81.4998 3.8877 80.8143 4.19661 80.3149 4.81445C79.8156 5.43229 79.5659 6.28499 79.5659 7.37256C79.5659 8.5109 79.805 9.37207 80.2832 9.95605C80.7656 10.54 81.4618 10.832 82.3716 10.832C82.7651 10.832 83.146 10.7939 83.5142 10.7178C83.8823 10.6374 84.2653 10.5358 84.6631 10.4131V11.7144C83.9352 11.9894 83.11 12.127 82.1875 12.127C80.8291 12.127 79.786 11.7165 79.0581 10.8955C78.3302 10.0703 77.9663 8.89176 77.9663 7.35986C77.9663 6.39502 78.1419 5.55078 78.4932 4.82715C78.8486 4.10352 79.3607 3.54915 80.0293 3.16406C80.6979 2.77897 81.4829 2.58643 82.3843 2.58643C83.3322 2.58643 84.2082 2.78532 85.0122 3.18311L84.4663 4.44629C84.1532 4.29818 83.821 4.16911 83.4697 4.05908C83.1227 3.94482 82.7567 3.8877 82.3716 3.8877ZM92.9121 12H87.6626V2.71973H92.9121V4.00195H89.1797V6.52832H92.6772V7.79785H89.1797V10.7114H92.9121V12ZM101.275 9.47998C101.275 10.3052 100.977 10.9526 100.38 11.4224C99.7837 11.8921 98.9606 12.127 97.9111 12.127C96.8617 12.127 96.0026 11.964 95.334 11.6382V10.2036C95.7572 10.4025 96.2057 10.5591 96.6797 10.6733C97.1579 10.7876 97.6022 10.8447 98.0127 10.8447C98.6136 10.8447 99.0558 10.7305 99.3394 10.502C99.6271 10.2734 99.771 9.96663 99.771 9.58154C99.771 9.23454 99.6398 8.94043 99.3774 8.69922C99.1151 8.45801 98.5734 8.17236 97.7524 7.84229C96.9061 7.49951 96.3094 7.10807 95.9624 6.66797C95.6154 6.22786 95.4419 5.69889 95.4419 5.08105C95.4419 4.30664 95.717 3.69727 96.2671 3.25293C96.8172 2.80859 97.5557 2.58643 98.4824 2.58643C99.3711 2.58643 100.256 2.78109 101.136 3.17041L100.653 4.4082C99.8281 4.0612 99.0918 3.8877 98.4443 3.8877C97.9535 3.8877 97.5811 3.99561 97.3271 4.21143C97.0732 4.42301 96.9463 4.70443 96.9463 5.05566C96.9463 5.29688 96.9971 5.50423 97.0986 5.67773C97.2002 5.84701 97.3674 6.00781 97.6001 6.16016C97.8328 6.3125 98.2518 6.51351 98.8569 6.76318C99.5382 7.04671 100.038 7.3112 100.355 7.55664C100.672 7.80208 100.905 8.07926 101.053 8.38818C101.201 8.6971 101.275 9.06104 101.275 9.47998ZM109.423 9.47998C109.423 10.3052 109.125 10.9526 108.528 11.4224C107.931 11.8921 107.108 12.127 106.059 12.127C105.009 12.127 104.15 11.964 103.481 11.6382V10.2036C103.905 10.4025 104.353 10.5591 104.827 10.6733C105.305 10.7876 105.75 10.8447 106.16 10.8447C106.761 10.8447 107.203 10.7305 107.487 10.502C107.775 10.2734 107.918 9.96663 107.918 9.58154C107.918 9.23454 107.787 8.94043 107.525 8.69922C107.263 8.45801 106.721 8.17236 105.9 7.84229C105.054 7.49951 104.457 7.10807 104.11 6.66797C103.763 6.22786 103.589 5.69889 103.589 5.08105C103.589 4.30664 103.864 3.69727 104.415 3.25293C104.965 2.80859 105.703 2.58643 106.63 2.58643C107.519 2.58643 108.403 2.78109 109.283 3.17041L108.801 4.4082C107.976 4.0612 107.239 3.8877 106.592 3.8877C106.101 3.8877 105.729 3.99561 105.475 4.21143C105.221 4.42301 105.094 4.70443 105.094 5.05566C105.094 5.29688 105.145 5.50423 105.246 5.67773C105.348 5.84701 105.515 6.00781 105.748 6.16016C105.98 6.3125 106.399 6.51351 107.004 6.76318C107.686 7.04671 108.185 7.3112 108.502 7.55664C108.82 7.80208 109.053 8.07926 109.201 8.38818C109.349 8.6971 109.423 9.06104 109.423 9.47998Z" fill="#A4A8B9"/>
<g opacity="0.2" filter="url(#filter0_d_3545_2407)">
<path d="M25 48C25 43.5817 28.5817 40 33 40H268.2C272.618 40 276.2 43.5817 276.2 48V392C276.2 396.418 272.618 400 268.2 400H33C28.5817 400 25 396.418 25 392V48Z" fill="#4E586E"/>
</g>
<g opacity="0.8">
<line x1="33.2236" y1="123.5" x2="268.424" y2="123.5" stroke="#A4A8B9" stroke-dasharray="1 2"/>
<line x1="33.2236" y1="155.5" x2="268.424" y2="155.5" stroke="#A4A8B9" stroke-dasharray="1 2"/>
<line x1="33.2236" y1="187.5" x2="268.424" y2="187.5" stroke="#A4A8B9" stroke-dasharray="1 2"/>
<line x1="33.2236" y1="219.5" x2="268.424" y2="219.5" stroke="#A4A8B9" stroke-dasharray="1 2"/>
<line x1="33.2236" y1="250.27" x2="268.424" y2="250.27" stroke="#A4A8B9" stroke-dasharray="1 2"/>
<line x1="33.2236" y1="282.27" x2="268.424" y2="282.27" stroke="#A4A8B9" stroke-dasharray="1 2"/>
<line x1="33.2236" y1="314.27" x2="268.424" y2="314.27" stroke="#A4A8B9" stroke-dasharray="1 2"/>
<line x1="145.35" y1="372.066" x2="145.35" y2="332.066" stroke="#A4A8B9" stroke-width="0.5"/>
</g>
<path d="M236.777 113H235.511V104.906C235.511 104.599 235.511 104.336 235.511 104.117C235.516 103.893 235.522 103.69 235.527 103.508C235.537 103.32 235.55 103.13 235.566 102.938C235.404 103.104 235.253 103.247 235.113 103.367C234.972 103.482 234.798 103.625 234.589 103.797L233.285 104.844L232.605 103.961L235.699 101.578H236.777V113ZM241.988 112.188C241.988 111.823 242.076 111.565 242.253 111.414C242.431 111.258 242.647 111.18 242.902 111.18C243.167 111.18 243.391 111.258 243.574 111.414C243.756 111.565 243.847 111.823 243.847 112.188C243.847 112.547 243.756 112.81 243.574 112.977C243.391 113.138 243.167 113.219 242.902 113.219C242.647 113.219 242.431 113.138 242.253 112.977C242.076 112.81 241.988 112.547 241.988 112.188ZM253.371 104.242C253.371 104.753 253.272 105.195 253.074 105.57C252.876 105.945 252.6 106.253 252.246 106.492C251.891 106.727 251.475 106.891 250.996 106.984V107.047C251.902 107.161 252.582 107.453 253.035 107.922C253.493 108.391 253.722 109.005 253.722 109.766C253.722 110.427 253.566 111.013 253.253 111.523C252.946 112.034 252.472 112.435 251.832 112.727C251.196 113.013 250.381 113.156 249.386 113.156C248.782 113.156 248.222 113.107 247.707 113.008C247.196 112.914 246.707 112.755 246.238 112.531V111.312C246.712 111.547 247.227 111.732 247.785 111.867C248.342 111.997 248.881 112.062 249.402 112.062C250.444 112.062 251.196 111.857 251.66 111.445C252.123 111.029 252.355 110.461 252.355 109.742C252.355 109.247 252.225 108.849 251.964 108.547C251.709 108.24 251.339 108.016 250.855 107.875C250.376 107.729 249.798 107.656 249.121 107.656H247.98V106.547H249.128C249.748 106.547 250.274 106.456 250.707 106.273C251.139 106.091 251.467 105.836 251.691 105.508C251.92 105.174 252.035 104.781 252.035 104.328C252.035 103.75 251.842 103.305 251.457 102.992C251.071 102.674 250.548 102.516 249.886 102.516C249.48 102.516 249.11 102.557 248.777 102.641C248.444 102.724 248.131 102.839 247.839 102.984C247.548 103.13 247.256 103.299 246.964 103.492L246.308 102.602C246.725 102.279 247.233 102 247.832 101.766C248.431 101.531 249.11 101.414 249.871 101.414C251.037 101.414 251.912 101.68 252.496 102.211C253.079 102.742 253.371 103.419 253.371 104.242ZM260.792 113H259.527V104.906C259.527 104.599 259.527 104.336 259.527 104.117C259.532 103.893 259.537 103.69 259.542 103.508C259.553 103.32 259.566 103.13 259.582 102.938C259.42 103.104 259.269 103.247 259.128 103.367C258.988 103.482 258.813 103.625 258.605 103.797L257.3 104.844L256.621 103.961L259.714 101.578H260.792V113ZM236.347 165.414C237.009 165.414 237.595 165.518 238.105 165.727C238.615 165.935 239.014 166.242 239.3 166.648C239.592 167.049 239.738 167.544 239.738 168.133C239.738 168.596 239.636 169.003 239.433 169.352C239.235 169.695 238.967 169.997 238.628 170.258C238.29 170.513 237.915 170.742 237.503 170.945C237.993 171.169 238.433 171.422 238.824 171.703C239.22 171.984 239.532 172.315 239.761 172.695C239.99 173.076 240.105 173.526 240.105 174.047C240.105 174.688 239.949 175.242 239.636 175.711C239.329 176.174 238.897 176.531 238.339 176.781C237.782 177.031 237.128 177.156 236.378 177.156C235.571 177.156 234.884 177.036 234.316 176.797C233.753 176.552 233.324 176.203 233.027 175.75C232.735 175.292 232.589 174.742 232.589 174.102C232.589 173.576 232.701 173.12 232.925 172.734C233.149 172.344 233.446 172.008 233.816 171.727C234.186 171.445 234.589 171.208 235.027 171.016C234.647 170.807 234.298 170.57 233.98 170.305C233.667 170.039 233.417 169.729 233.23 169.375C233.048 169.016 232.957 168.599 232.957 168.125C232.957 167.547 233.102 167.057 233.394 166.656C233.691 166.25 234.095 165.943 234.605 165.734C235.121 165.521 235.701 165.414 236.347 165.414ZM233.863 174.109C233.863 174.693 234.069 175.174 234.48 175.555C234.891 175.93 235.514 176.117 236.347 176.117C237.139 176.117 237.751 175.93 238.183 175.555C238.615 175.174 238.832 174.677 238.832 174.062C238.832 173.682 238.733 173.349 238.535 173.062C238.337 172.771 238.056 172.51 237.691 172.281C237.326 172.052 236.897 171.844 236.402 171.656L236.121 171.555C235.641 171.753 235.233 171.974 234.894 172.219C234.561 172.458 234.306 172.732 234.128 173.039C233.951 173.346 233.863 173.703 233.863 174.109ZM236.332 166.477C235.717 166.477 235.214 166.625 234.824 166.922C234.433 167.214 234.238 167.635 234.238 168.188C234.238 168.583 234.332 168.919 234.519 169.195C234.712 169.466 234.972 169.701 235.3 169.898C235.628 170.091 235.996 170.271 236.402 170.438C236.798 170.271 237.149 170.089 237.457 169.891C237.764 169.688 238.006 169.448 238.183 169.172C238.36 168.896 238.449 168.565 238.449 168.18C238.449 167.628 238.253 167.206 237.863 166.914C237.477 166.622 236.967 166.477 236.332 166.477ZM249.777 171.273C249.777 172.201 249.707 173.029 249.566 173.758C249.425 174.487 249.204 175.104 248.902 175.609C248.6 176.115 248.209 176.5 247.73 176.766C247.251 177.026 246.675 177.156 246.003 177.156C245.154 177.156 244.451 176.924 243.894 176.461C243.342 175.997 242.928 175.328 242.652 174.453C242.381 173.573 242.246 172.513 242.246 171.273C242.246 170.055 242.368 169.008 242.613 168.133C242.863 167.253 243.264 166.578 243.816 166.109C244.368 165.635 245.097 165.398 246.003 165.398C246.863 165.398 247.571 165.633 248.128 166.102C248.686 166.565 249.1 167.237 249.371 168.117C249.641 168.992 249.777 170.044 249.777 171.273ZM243.55 171.273C243.55 172.336 243.631 173.221 243.792 173.93C243.954 174.638 244.214 175.169 244.574 175.523C244.938 175.872 245.415 176.047 246.003 176.047C246.592 176.047 247.066 175.872 247.425 175.523C247.79 175.174 248.053 174.646 248.214 173.938C248.381 173.229 248.464 172.341 248.464 171.273C248.464 170.227 248.384 169.352 248.222 168.648C248.061 167.94 247.8 167.409 247.441 167.055C247.082 166.695 246.602 166.516 246.003 166.516C245.404 166.516 244.925 166.695 244.566 167.055C244.207 167.409 243.946 167.94 243.785 168.648C243.628 169.352 243.55 170.227 243.55 171.273ZM254.214 165.414C254.996 165.414 255.587 165.727 255.988 166.352C256.394 166.971 256.597 167.849 256.597 168.984C256.597 170.12 256.402 171.005 256.011 171.641C255.621 172.271 255.022 172.586 254.214 172.586C253.464 172.586 252.889 172.271 252.488 171.641C252.092 171.005 251.894 170.12 251.894 168.984C251.894 167.849 252.084 166.971 252.464 166.352C252.845 165.727 253.428 165.414 254.214 165.414ZM254.214 166.344C253.792 166.344 253.483 166.565 253.285 167.008C253.087 167.445 252.988 168.104 252.988 168.984C252.988 169.865 253.087 170.529 253.285 170.977C253.483 171.424 253.792 171.648 254.214 171.648C254.652 171.648 254.977 171.424 255.191 170.977C255.404 170.529 255.511 169.865 255.511 168.984C255.511 168.109 255.404 167.451 255.191 167.008C254.983 166.565 254.657 166.344 254.214 166.344ZM261.449 165.578L255.113 177H253.972L260.308 165.578H261.449ZM261.144 169.992C261.92 169.992 262.511 170.305 262.917 170.93C263.324 171.549 263.527 172.427 263.527 173.562C263.527 174.693 263.332 175.576 262.941 176.211C262.55 176.841 261.951 177.156 261.144 177.156C260.389 177.156 259.813 176.841 259.417 176.211C259.022 175.576 258.824 174.693 258.824 173.562C258.824 172.427 259.011 171.549 259.386 170.93C259.766 170.305 260.352 169.992 261.144 169.992ZM261.144 170.93C260.722 170.93 260.412 171.148 260.214 171.586C260.016 172.023 259.917 172.682 259.917 173.562C259.917 174.443 260.016 175.107 260.214 175.555C260.412 175.997 260.722 176.219 261.144 176.219C261.582 176.219 261.907 176 262.121 175.562C262.334 175.12 262.441 174.453 262.441 173.562C262.441 172.688 262.334 172.031 262.121 171.594C261.912 171.151 261.587 170.93 261.144 170.93ZM236.347 197.414C237.009 197.414 237.595 197.518 238.105 197.727C238.615 197.935 239.014 198.242 239.3 198.648C239.592 199.049 239.738 199.544 239.738 200.133C239.738 200.596 239.636 201.003 239.433 201.352C239.235 201.695 238.967 201.997 238.628 202.258C238.29 202.513 237.915 202.742 237.503 202.945C237.993 203.169 238.433 203.422 238.824 203.703C239.22 203.984 239.532 204.315 239.761 204.695C239.99 205.076 240.105 205.526 240.105 206.047C240.105 206.688 239.949 207.242 239.636 207.711C239.329 208.174 238.897 208.531 238.339 208.781C237.782 209.031 237.128 209.156 236.378 209.156C235.571 209.156 234.884 209.036 234.316 208.797C233.753 208.552 233.324 208.203 233.027 207.75C232.735 207.292 232.589 206.742 232.589 206.102C232.589 205.576 232.701 205.12 232.925 204.734C233.149 204.344 233.446 204.008 233.816 203.727C234.186 203.445 234.589 203.208 235.027 203.016C234.647 202.807 234.298 202.57 233.98 202.305C233.667 202.039 233.417 201.729 233.23 201.375C233.048 201.016 232.957 200.599 232.957 200.125C232.957 199.547 233.102 199.057 233.394 198.656C233.691 198.25 234.095 197.943 234.605 197.734C235.121 197.521 235.701 197.414 236.347 197.414ZM233.863 206.109C233.863 206.693 234.069 207.174 234.48 207.555C234.891 207.93 235.514 208.117 236.347 208.117C237.139 208.117 237.751 207.93 238.183 207.555C238.615 207.174 238.832 206.677 238.832 206.062C238.832 205.682 238.733 205.349 238.535 205.062C238.337 204.771 238.056 204.51 237.691 204.281C237.326 204.052 236.897 203.844 236.402 203.656L236.121 203.555C235.641 203.753 235.233 203.974 234.894 204.219C234.561 204.458 234.306 204.732 234.128 205.039C233.951 205.346 233.863 205.703 233.863 206.109ZM236.332 198.477C235.717 198.477 235.214 198.625 234.824 198.922C234.433 199.214 234.238 199.635 234.238 200.188C234.238 200.583 234.332 200.919 234.519 201.195C234.712 201.466 234.972 201.701 235.3 201.898C235.628 202.091 235.996 202.271 236.402 202.438C236.798 202.271 237.149 202.089 237.457 201.891C237.764 201.688 238.006 201.448 238.183 201.172C238.36 200.896 238.449 200.565 238.449 200.18C238.449 199.628 238.253 199.206 237.863 198.914C237.477 198.622 236.967 198.477 236.332 198.477ZM247.058 209H245.792V200.906C245.792 200.599 245.792 200.336 245.792 200.117C245.798 199.893 245.803 199.69 245.808 199.508C245.819 199.32 245.832 199.13 245.847 198.938C245.686 199.104 245.535 199.247 245.394 199.367C245.253 199.482 245.079 199.625 244.871 199.797L243.566 200.844L242.886 199.961L245.98 197.578H247.058V209ZM254.214 197.414C254.996 197.414 255.587 197.727 255.988 198.352C256.394 198.971 256.597 199.849 256.597 200.984C256.597 202.12 256.402 203.005 256.011 203.641C255.621 204.271 255.022 204.586 254.214 204.586C253.464 204.586 252.889 204.271 252.488 203.641C252.092 203.005 251.894 202.12 251.894 200.984C251.894 199.849 252.084 198.971 252.464 198.352C252.845 197.727 253.428 197.414 254.214 197.414ZM254.214 198.344C253.792 198.344 253.483 198.565 253.285 199.008C253.087 199.445 252.988 200.104 252.988 200.984C252.988 201.865 253.087 202.529 253.285 202.977C253.483 203.424 253.792 203.648 254.214 203.648C254.652 203.648 254.977 203.424 255.191 202.977C255.404 202.529 255.511 201.865 255.511 200.984C255.511 200.109 255.404 199.451 255.191 199.008C254.983 198.565 254.657 198.344 254.214 198.344ZM261.449 197.578L255.113 209H253.972L260.308 197.578H261.449ZM261.144 201.992C261.92 201.992 262.511 202.305 262.917 202.93C263.324 203.549 263.527 204.427 263.527 205.562C263.527 206.693 263.332 207.576 262.941 208.211C262.55 208.841 261.951 209.156 261.144 209.156C260.389 209.156 259.813 208.841 259.417 208.211C259.022 207.576 258.824 206.693 258.824 205.562C258.824 204.427 259.011 203.549 259.386 202.93C259.766 202.305 260.352 201.992 261.144 201.992ZM261.144 202.93C260.722 202.93 260.412 203.148 260.214 203.586C260.016 204.023 259.917 204.682 259.917 205.562C259.917 206.443 260.016 207.107 260.214 207.555C260.412 207.997 260.722 208.219 261.144 208.219C261.582 208.219 261.907 208 262.121 207.562C262.334 207.12 262.441 206.453 262.441 205.562C262.441 204.688 262.334 204.031 262.121 203.594C261.912 203.151 261.587 202.93 261.144 202.93ZM240.074 234.445C240.074 235.138 240.024 235.812 239.925 236.469C239.832 237.125 239.667 237.737 239.433 238.305C239.204 238.872 238.891 239.37 238.496 239.797C238.1 240.224 237.602 240.56 237.003 240.805C236.41 241.044 235.699 241.164 234.871 241.164C234.647 241.164 234.391 241.148 234.105 241.117C233.819 241.091 233.584 241.052 233.402 241V239.875C233.595 239.943 233.821 239.997 234.082 240.039C234.342 240.076 234.597 240.094 234.847 240.094C235.821 240.094 236.587 239.885 237.144 239.469C237.701 239.047 238.102 238.477 238.347 237.758C238.592 237.034 238.73 236.221 238.761 235.32H238.667C238.511 235.57 238.306 235.802 238.05 236.016C237.8 236.224 237.496 236.393 237.136 236.523C236.777 236.648 236.358 236.711 235.878 236.711C235.217 236.711 234.639 236.576 234.144 236.305C233.654 236.034 233.272 235.641 232.996 235.125C232.725 234.609 232.589 233.987 232.589 233.258C232.589 232.471 232.738 231.792 233.035 231.219C233.337 230.641 233.759 230.195 234.3 229.883C234.842 229.57 235.48 229.414 236.214 229.414C236.777 229.414 237.292 229.521 237.761 229.734C238.23 229.948 238.636 230.268 238.98 230.695C239.329 231.117 239.597 231.641 239.785 232.266C239.977 232.891 240.074 233.617 240.074 234.445ZM236.214 230.516C235.522 230.516 234.959 230.742 234.527 231.195C234.1 231.648 233.886 232.331 233.886 233.242C233.886 233.997 234.071 234.594 234.441 235.031C234.811 235.469 235.381 235.688 236.152 235.688C236.683 235.688 237.141 235.581 237.527 235.367C237.917 235.154 238.217 234.883 238.425 234.555C238.639 234.227 238.746 233.891 238.746 233.547C238.746 233.203 238.694 232.854 238.589 232.5C238.49 232.146 238.337 231.82 238.128 231.523C237.92 231.221 237.657 230.979 237.339 230.797C237.022 230.609 236.647 230.516 236.214 230.516ZM249.73 234.445C249.73 235.138 249.681 235.812 249.582 236.469C249.488 237.125 249.324 237.737 249.089 238.305C248.86 238.872 248.548 239.37 248.152 239.797C247.756 240.224 247.259 240.56 246.66 240.805C246.066 241.044 245.355 241.164 244.527 241.164C244.303 241.164 244.048 241.148 243.761 241.117C243.475 241.091 243.24 241.052 243.058 241V239.875C243.251 239.943 243.477 239.997 243.738 240.039C243.998 240.076 244.253 240.094 244.503 240.094C245.477 240.094 246.243 239.885 246.8 239.469C247.358 239.047 247.759 238.477 248.003 237.758C248.248 237.034 248.386 236.221 248.417 235.32H248.324C248.167 235.57 247.962 235.802 247.707 236.016C247.457 236.224 247.152 236.393 246.792 236.523C246.433 236.648 246.014 236.711 245.535 236.711C244.873 236.711 244.295 236.576 243.8 236.305C243.311 236.034 242.928 235.641 242.652 235.125C242.381 234.609 242.246 233.987 242.246 233.258C242.246 232.471 242.394 231.792 242.691 231.219C242.993 230.641 243.415 230.195 243.957 229.883C244.498 229.57 245.136 229.414 245.871 229.414C246.433 229.414 246.949 229.521 247.417 229.734C247.886 229.948 248.292 230.268 248.636 230.695C248.985 231.117 249.253 231.641 249.441 232.266C249.634 232.891 249.73 233.617 249.73 234.445ZM245.871 230.516C245.178 230.516 244.615 230.742 244.183 231.195C243.756 231.648 243.542 232.331 243.542 233.242C243.542 233.997 243.727 234.594 244.097 235.031C244.467 235.469 245.037 235.688 245.808 235.688C246.339 235.688 246.798 235.581 247.183 235.367C247.574 235.154 247.873 234.883 248.082 234.555C248.295 234.227 248.402 233.891 248.402 233.547C248.402 233.203 248.35 232.854 248.246 232.5C248.147 232.146 247.993 231.82 247.785 231.523C247.576 231.221 247.313 230.979 246.996 230.797C246.678 230.609 246.303 230.516 245.871 230.516ZM254.214 229.414C254.996 229.414 255.587 229.727 255.988 230.352C256.394 230.971 256.597 231.849 256.597 232.984C256.597 234.12 256.402 235.005 256.011 235.641C255.621 236.271 255.022 236.586 254.214 236.586C253.464 236.586 252.889 236.271 252.488 235.641C252.092 235.005 251.894 234.12 251.894 232.984C251.894 231.849 252.084 230.971 252.464 230.352C252.845 229.727 253.428 229.414 254.214 229.414ZM254.214 230.344C253.792 230.344 253.483 230.565 253.285 231.008C253.087 231.445 252.988 232.104 252.988 232.984C252.988 233.865 253.087 234.529 253.285 234.977C253.483 235.424 253.792 235.648 254.214 235.648C254.652 235.648 254.977 235.424 255.191 234.977C255.404 234.529 255.511 233.865 255.511 232.984C255.511 232.109 255.404 231.451 255.191 231.008C254.983 230.565 254.657 230.344 254.214 230.344ZM261.449 229.578L255.113 241H253.972L260.308 229.578H261.449ZM261.144 233.992C261.92 233.992 262.511 234.305 262.917 234.93C263.324 235.549 263.527 236.427 263.527 237.562C263.527 238.693 263.332 239.576 262.941 240.211C262.55 240.841 261.951 241.156 261.144 241.156C260.389 241.156 259.813 240.841 259.417 240.211C259.022 239.576 258.824 238.693 258.824 237.562C258.824 236.427 259.011 235.549 259.386 234.93C259.766 234.305 260.352 233.992 261.144 233.992ZM261.144 234.93C260.722 234.93 260.412 235.148 260.214 235.586C260.016 236.023 259.917 236.682 259.917 237.562C259.917 238.443 260.016 239.107 260.214 239.555C260.412 239.997 260.722 240.219 261.144 240.219C261.582 240.219 261.907 240 262.121 239.562C262.334 239.12 262.441 238.453 262.441 237.562C262.441 236.688 262.334 236.031 262.121 235.594C261.912 235.151 261.587 234.93 261.144 234.93ZM240.003 270.352H238.292V273H237.027V270.352H231.503V269.258L236.941 261.516H238.292V269.18H240.003V270.352ZM237.027 269.18V265.445C237.027 265.159 237.029 264.901 237.035 264.672C237.04 264.438 237.048 264.221 237.058 264.023C237.069 263.82 237.076 263.628 237.082 263.445C237.092 263.263 237.1 263.083 237.105 262.906H237.042C236.944 263.115 236.829 263.336 236.699 263.57C236.574 263.799 236.446 264.005 236.316 264.188L232.792 269.18H237.027ZM249.152 267.273C249.152 268.201 249.082 269.029 248.941 269.758C248.8 270.487 248.579 271.104 248.277 271.609C247.975 272.115 247.584 272.5 247.105 272.766C246.626 273.026 246.05 273.156 245.378 273.156C244.529 273.156 243.826 272.924 243.269 272.461C242.717 271.997 242.303 271.328 242.027 270.453C241.756 269.573 241.621 268.513 241.621 267.273C241.621 266.055 241.743 265.008 241.988 264.133C242.238 263.253 242.639 262.578 243.191 262.109C243.743 261.635 244.472 261.398 245.378 261.398C246.238 261.398 246.946 261.633 247.503 262.102C248.061 262.565 248.475 263.237 248.746 264.117C249.016 264.992 249.152 266.044 249.152 267.273ZM242.925 267.273C242.925 268.336 243.006 269.221 243.167 269.93C243.329 270.638 243.589 271.169 243.949 271.523C244.313 271.872 244.79 272.047 245.378 272.047C245.967 272.047 246.441 271.872 246.8 271.523C247.165 271.174 247.428 270.646 247.589 269.938C247.756 269.229 247.839 268.341 247.839 267.273C247.839 266.227 247.759 265.352 247.597 264.648C247.436 263.94 247.175 263.409 246.816 263.055C246.457 262.695 245.977 262.516 245.378 262.516C244.779 262.516 244.3 262.695 243.941 263.055C243.582 263.409 243.321 263.94 243.16 264.648C243.003 265.352 242.925 266.227 242.925 267.273ZM251.644 272.188C251.644 271.823 251.733 271.565 251.91 271.414C252.087 271.258 252.303 271.18 252.558 271.18C252.824 271.18 253.048 271.258 253.23 271.414C253.412 271.565 253.503 271.823 253.503 272.188C253.503 272.547 253.412 272.81 253.23 272.977C253.048 273.138 252.824 273.219 252.558 273.219C252.303 273.219 252.087 273.138 251.91 272.977C251.733 272.81 251.644 272.547 251.644 272.188ZM263.464 266.445C263.464 267.138 263.415 267.812 263.316 268.469C263.222 269.125 263.058 269.737 262.824 270.305C262.595 270.872 262.282 271.37 261.886 271.797C261.49 272.224 260.993 272.56 260.394 272.805C259.8 273.044 259.089 273.164 258.261 273.164C258.037 273.164 257.782 273.148 257.496 273.117C257.209 273.091 256.975 273.052 256.792 273V271.875C256.985 271.943 257.212 271.997 257.472 272.039C257.733 272.076 257.988 272.094 258.238 272.094C259.212 272.094 259.977 271.885 260.535 271.469C261.092 271.047 261.493 270.477 261.738 269.758C261.983 269.034 262.121 268.221 262.152 267.32H262.058C261.902 267.57 261.696 267.802 261.441 268.016C261.191 268.224 260.886 268.393 260.527 268.523C260.167 268.648 259.748 268.711 259.269 268.711C258.608 268.711 258.029 268.576 257.535 268.305C257.045 268.034 256.662 267.641 256.386 267.125C256.115 266.609 255.98 265.987 255.98 265.258C255.98 264.471 256.128 263.792 256.425 263.219C256.727 262.641 257.149 262.195 257.691 261.883C258.233 261.57 258.871 261.414 259.605 261.414C260.167 261.414 260.683 261.521 261.152 261.734C261.621 261.948 262.027 262.268 262.371 262.695C262.72 263.117 262.988 263.641 263.175 264.266C263.368 264.891 263.464 265.617 263.464 266.445ZM259.605 262.516C258.912 262.516 258.35 262.742 257.917 263.195C257.49 263.648 257.277 264.331 257.277 265.242C257.277 265.997 257.462 266.594 257.832 267.031C258.201 267.469 258.772 267.688 259.542 267.688C260.074 267.688 260.532 267.581 260.917 267.367C261.308 267.154 261.608 266.883 261.816 266.555C262.029 266.227 262.136 265.891 262.136 265.547C262.136 265.203 262.084 264.854 261.98 264.5C261.881 264.146 261.727 263.82 261.519 263.523C261.311 263.221 261.048 262.979 260.73 262.797C260.412 262.609 260.037 262.516 259.605 262.516Z" fill="#FF3D57"/>
<path d="M240.074 138.445C240.074 139.138 240.024 139.812 239.925 140.469C239.832 141.125 239.667 141.737 239.433 142.305C239.204 142.872 238.891 143.37 238.496 143.797C238.1 144.224 237.602 144.56 237.003 144.805C236.41 145.044 235.699 145.164 234.871 145.164C234.647 145.164 234.391 145.148 234.105 145.117C233.819 145.091 233.584 145.052 233.402 145V143.875C233.595 143.943 233.821 143.997 234.082 144.039C234.342 144.076 234.597 144.094 234.847 144.094C235.821 144.094 236.587 143.885 237.144 143.469C237.701 143.047 238.102 142.477 238.347 141.758C238.592 141.034 238.73 140.221 238.761 139.32H238.667C238.511 139.57 238.306 139.802 238.05 140.016C237.8 140.224 237.496 140.393 237.136 140.523C236.777 140.648 236.358 140.711 235.878 140.711C235.217 140.711 234.639 140.576 234.144 140.305C233.654 140.034 233.272 139.641 232.996 139.125C232.725 138.609 232.589 137.987 232.589 137.258C232.589 136.471 232.738 135.792 233.035 135.219C233.337 134.641 233.759 134.195 234.3 133.883C234.842 133.57 235.48 133.414 236.214 133.414C236.777 133.414 237.292 133.521 237.761 133.734C238.23 133.948 238.636 134.268 238.98 134.695C239.329 135.117 239.597 135.641 239.785 136.266C239.977 136.891 240.074 137.617 240.074 138.445ZM236.214 134.516C235.522 134.516 234.959 134.742 234.527 135.195C234.1 135.648 233.886 136.331 233.886 137.242C233.886 137.997 234.071 138.594 234.441 139.031C234.811 139.469 235.381 139.688 236.152 139.688C236.683 139.688 237.141 139.581 237.527 139.367C237.917 139.154 238.217 138.883 238.425 138.555C238.639 138.227 238.746 137.891 238.746 137.547C238.746 137.203 238.694 136.854 238.589 136.5C238.49 136.146 238.337 135.82 238.128 135.523C237.92 135.221 237.657 134.979 237.339 134.797C237.022 134.609 236.647 134.516 236.214 134.516ZM249.73 138.445C249.73 139.138 249.681 139.812 249.582 140.469C249.488 141.125 249.324 141.737 249.089 142.305C248.86 142.872 248.548 143.37 248.152 143.797C247.756 144.224 247.259 144.56 246.66 144.805C246.066 145.044 245.355 145.164 244.527 145.164C244.303 145.164 244.048 145.148 243.761 145.117C243.475 145.091 243.24 145.052 243.058 145V143.875C243.251 143.943 243.477 143.997 243.738 144.039C243.998 144.076 244.253 144.094 244.503 144.094C245.477 144.094 246.243 143.885 246.8 143.469C247.358 143.047 247.759 142.477 248.003 141.758C248.248 141.034 248.386 140.221 248.417 139.32H248.324C248.167 139.57 247.962 139.802 247.707 140.016C247.457 140.224 247.152 140.393 246.792 140.523C246.433 140.648 246.014 140.711 245.535 140.711C244.873 140.711 244.295 140.576 243.8 140.305C243.311 140.034 242.928 139.641 242.652 139.125C242.381 138.609 242.246 137.987 242.246 137.258C242.246 136.471 242.394 135.792 242.691 135.219C242.993 134.641 243.415 134.195 243.957 133.883C244.498 133.57 245.136 133.414 245.871 133.414C246.433 133.414 246.949 133.521 247.417 133.734C247.886 133.948 248.292 134.268 248.636 134.695C248.985 135.117 249.253 135.641 249.441 136.266C249.634 136.891 249.73 137.617 249.73 138.445ZM245.871 134.516C245.178 134.516 244.615 134.742 244.183 135.195C243.756 135.648 243.542 136.331 243.542 137.242C243.542 137.997 243.727 138.594 244.097 139.031C244.467 139.469 245.037 139.688 245.808 139.688C246.339 139.688 246.798 139.581 247.183 139.367C247.574 139.154 247.873 138.883 248.082 138.555C248.295 138.227 248.402 137.891 248.402 137.547C248.402 137.203 248.35 136.854 248.246 136.5C248.147 136.146 247.993 135.82 247.785 135.523C247.576 135.221 247.313 134.979 246.996 134.797C246.678 134.609 246.303 134.516 245.871 134.516ZM254.214 133.414C254.996 133.414 255.587 133.727 255.988 134.352C256.394 134.971 256.597 135.849 256.597 136.984C256.597 138.12 256.402 139.005 256.011 139.641C255.621 140.271 255.022 140.586 254.214 140.586C253.464 140.586 252.889 140.271 252.488 139.641C252.092 139.005 251.894 138.12 251.894 136.984C251.894 135.849 252.084 134.971 252.464 134.352C252.845 133.727 253.428 133.414 254.214 133.414ZM254.214 134.344C253.792 134.344 253.483 134.565 253.285 135.008C253.087 135.445 252.988 136.104 252.988 136.984C252.988 137.865 253.087 138.529 253.285 138.977C253.483 139.424 253.792 139.648 254.214 139.648C254.652 139.648 254.977 139.424 255.191 138.977C255.404 138.529 255.511 137.865 255.511 136.984C255.511 136.109 255.404 135.451 255.191 135.008C254.983 134.565 254.657 134.344 254.214 134.344ZM261.449 133.578L255.113 145H253.972L260.308 133.578H261.449ZM261.144 137.992C261.92 137.992 262.511 138.305 262.917 138.93C263.324 139.549 263.527 140.427 263.527 141.562C263.527 142.693 263.332 143.576 262.941 144.211C262.55 144.841 261.951 145.156 261.144 145.156C260.389 145.156 259.813 144.841 259.417 144.211C259.022 143.576 258.824 142.693 258.824 141.562C258.824 140.427 259.011 139.549 259.386 138.93C259.766 138.305 260.352 137.992 261.144 137.992ZM261.144 138.93C260.722 138.93 260.412 139.148 260.214 139.586C260.016 140.023 259.917 140.682 259.917 141.562C259.917 142.443 260.016 143.107 260.214 143.555C260.412 143.997 260.722 144.219 261.144 144.219C261.582 144.219 261.907 144 262.121 143.562C262.334 143.12 262.441 142.453 262.441 141.562C262.441 140.688 262.334 140.031 262.121 139.594C261.912 139.151 261.587 138.93 261.144 138.93ZM235.558 298.016C236.334 298.016 237.009 298.148 237.582 298.414C238.154 298.674 238.597 299.055 238.91 299.555C239.227 300.055 239.386 300.661 239.386 301.375C239.386 302.156 239.217 302.831 238.878 303.398C238.54 303.961 238.053 304.396 237.417 304.703C236.782 305.005 236.022 305.156 235.136 305.156C234.542 305.156 233.99 305.104 233.48 305C232.97 304.896 232.54 304.74 232.191 304.531V303.297C232.571 303.526 233.032 303.708 233.574 303.844C234.115 303.979 234.641 304.047 235.152 304.047C235.73 304.047 236.235 303.956 236.667 303.773C237.105 303.586 237.444 303.305 237.683 302.93C237.928 302.549 238.05 302.073 238.05 301.5C238.05 300.74 237.816 300.154 237.347 299.742C236.884 299.326 236.149 299.117 235.144 299.117C234.821 299.117 234.467 299.143 234.082 299.195C233.696 299.247 233.378 299.305 233.128 299.367L232.472 298.938L232.91 293.578H238.589V294.766H234.019L233.73 298.211C233.928 298.169 234.183 298.128 234.496 298.086C234.808 298.039 235.162 298.016 235.558 298.016ZM249.152 299.273C249.152 300.201 249.082 301.029 248.941 301.758C248.8 302.487 248.579 303.104 248.277 303.609C247.975 304.115 247.584 304.5 247.105 304.766C246.626 305.026 246.05 305.156 245.378 305.156C244.529 305.156 243.826 304.924 243.269 304.461C242.717 303.997 242.303 303.328 242.027 302.453C241.756 301.573 241.621 300.513 241.621 299.273C241.621 298.055 241.743 297.008 241.988 296.133C242.238 295.253 242.639 294.578 243.191 294.109C243.743 293.635 244.472 293.398 245.378 293.398C246.238 293.398 246.946 293.633 247.503 294.102C248.061 294.565 248.475 295.237 248.746 296.117C249.016 296.992 249.152 298.044 249.152 299.273ZM242.925 299.273C242.925 300.336 243.006 301.221 243.167 301.93C243.329 302.638 243.589 303.169 243.949 303.523C244.313 303.872 244.79 304.047 245.378 304.047C245.967 304.047 246.441 303.872 246.8 303.523C247.165 303.174 247.428 302.646 247.589 301.938C247.756 301.229 247.839 300.341 247.839 299.273C247.839 298.227 247.759 297.352 247.597 296.648C247.436 295.94 247.175 295.409 246.816 295.055C246.457 294.695 245.977 294.516 245.378 294.516C244.779 294.516 244.3 294.695 243.941 295.055C243.582 295.409 243.321 295.94 243.16 296.648C243.003 297.352 242.925 298.227 242.925 299.273ZM251.644 304.188C251.644 303.823 251.733 303.565 251.91 303.414C252.087 303.258 252.303 303.18 252.558 303.18C252.824 303.18 253.048 303.258 253.23 303.414C253.412 303.565 253.503 303.823 253.503 304.188C253.503 304.547 253.412 304.81 253.23 304.977C253.048 305.138 252.824 305.219 252.558 305.219C252.303 305.219 252.087 305.138 251.91 304.977C251.733 304.81 251.644 304.547 251.644 304.188ZM263.027 296.242C263.027 296.753 262.928 297.195 262.73 297.57C262.532 297.945 262.256 298.253 261.902 298.492C261.548 298.727 261.131 298.891 260.652 298.984V299.047C261.558 299.161 262.238 299.453 262.691 299.922C263.149 300.391 263.378 301.005 263.378 301.766C263.378 302.427 263.222 303.013 262.91 303.523C262.602 304.034 262.128 304.435 261.488 304.727C260.852 305.013 260.037 305.156 259.042 305.156C258.438 305.156 257.878 305.107 257.363 305.008C256.852 304.914 256.363 304.755 255.894 304.531V303.312C256.368 303.547 256.884 303.732 257.441 303.867C257.998 303.997 258.537 304.062 259.058 304.062C260.1 304.062 260.852 303.857 261.316 303.445C261.779 303.029 262.011 302.461 262.011 301.742C262.011 301.247 261.881 300.849 261.621 300.547C261.365 300.24 260.996 300.016 260.511 299.875C260.032 299.729 259.454 299.656 258.777 299.656H257.636V298.547H258.785C259.404 298.547 259.931 298.456 260.363 298.273C260.795 298.091 261.123 297.836 261.347 297.508C261.576 297.174 261.691 296.781 261.691 296.328C261.691 295.75 261.498 295.305 261.113 294.992C260.727 294.674 260.204 294.516 259.542 294.516C259.136 294.516 258.766 294.557 258.433 294.641C258.1 294.724 257.787 294.839 257.496 294.984C257.204 295.13 256.912 295.299 256.621 295.492L255.964 294.602C256.381 294.279 256.889 294 257.488 293.766C258.087 293.531 258.766 293.414 259.527 293.414C260.694 293.414 261.569 293.68 262.152 294.211C262.735 294.742 263.027 295.419 263.027 296.242Z" fill="white"/>
<path d="M63.3242 112H60.9023V102.594H57.8008V100.578H66.4258V102.594H63.3242V112ZM71.5917 100.578C72.6282 100.578 73.4823 100.703 74.1542 100.953C74.8313 101.203 75.3339 101.581 75.662 102.086C75.9902 102.591 76.1542 103.229 76.1542 104C76.1542 104.521 76.0553 104.977 75.8573 105.367C75.6594 105.758 75.399 106.089 75.0761 106.359C74.7532 106.63 74.4042 106.852 74.0292 107.023L77.3886 112H74.7011L71.9745 107.617H70.6855V112H68.2636V100.578H71.5917ZM71.4198 102.562H70.6855V105.648H71.4667C72.2688 105.648 72.8417 105.516 73.1855 105.25C73.5344 104.979 73.7089 104.583 73.7089 104.062C73.7089 103.521 73.5214 103.135 73.1464 102.906C72.7766 102.677 72.2011 102.562 71.4198 102.562ZM78.9061 112V100.578H81.328V112H78.9061ZM87.6111 100.578C88.6476 100.578 89.5017 100.703 90.1736 100.953C90.8507 101.203 91.3533 101.581 91.6814 102.086C92.0095 102.591 92.1736 103.229 92.1736 104C92.1736 104.521 92.0746 104.977 91.8767 105.367C91.6788 105.758 91.4184 106.089 91.0955 106.359C90.7726 106.63 90.4236 106.852 90.0486 107.023L93.408 112H90.7205L87.9939 107.617H86.7048V112H84.283V100.578H87.6111ZM87.4392 102.562H86.7048V105.648H87.4861C88.2882 105.648 88.8611 105.516 89.2048 105.25C89.5538 104.979 89.7283 104.583 89.7283 104.062C89.7283 103.521 89.5408 103.135 89.1658 102.906C88.796 102.677 88.2205 102.562 87.4392 102.562ZM69.2852 138.273C69.2852 139.122 69.1836 139.901 68.9805 140.609C68.7826 141.312 68.4753 141.922 68.0586 142.438C67.6419 142.953 67.1133 143.357 66.4727 143.648L69.2227 146.719H66.1211L64.0273 144.156C63.9909 144.156 63.9596 144.156 63.9336 144.156C63.9076 144.156 63.8789 144.156 63.8477 144.156C62.9154 144.156 62.1081 144.018 61.4258 143.742C60.7435 143.461 60.1784 143.06 59.7305 142.539C59.2878 142.018 58.957 141.396 58.7383 140.672C58.5195 139.948 58.4102 139.143 58.4102 138.258C58.4102 137.076 58.6029 136.047 58.9883 135.172C59.3789 134.292 59.9779 133.609 60.7852 133.125C61.5924 132.641 62.6185 132.398 63.8633 132.398C65.1029 132.398 66.1211 132.641 66.918 133.125C67.7201 133.609 68.3138 134.292 68.6992 135.172C69.0898 136.052 69.2852 137.086 69.2852 138.273ZM60.9492 138.273C60.9492 139.07 61.0482 139.758 61.2461 140.336C61.4492 140.909 61.7643 141.352 62.1914 141.664C62.6185 141.971 63.1706 142.125 63.8477 142.125C64.5352 142.125 65.0924 141.971 65.5195 141.664C65.9466 141.352 66.2565 140.909 66.4492 140.336C66.6471 139.758 66.7461 139.07 66.7461 138.273C66.7461 137.076 66.5221 136.133 66.0742 135.445C65.6263 134.758 64.8893 134.414 63.8633 134.414C63.181 134.414 62.6237 134.57 62.1914 134.883C61.7643 135.19 61.4492 135.633 61.2461 136.211C61.0482 136.784 60.9492 137.471 60.9492 138.273ZM75.0605 132.578C76.0969 132.578 76.9511 132.703 77.623 132.953C78.3001 133.203 78.8027 133.581 79.1308 134.086C79.4589 134.591 79.623 135.229 79.623 136C79.623 136.521 79.524 136.977 79.3261 137.367C79.1282 137.758 78.8678 138.089 78.5448 138.359C78.2219 138.63 77.873 138.852 77.498 139.023L80.8573 144H78.1698L75.4433 139.617H74.1542V144H71.7323V132.578H75.0605ZM74.8886 134.562H74.1542V137.648H74.9355C75.7376 137.648 76.3105 137.516 76.6542 137.25C77.0032 136.979 77.1777 136.583 77.1777 136.062C77.1777 135.521 76.9902 135.135 76.6152 134.906C76.2454 134.677 75.6698 134.562 74.8886 134.562ZM60.668 164.414C61.5638 164.414 62.2435 164.727 62.707 165.352C63.1706 165.977 63.4023 166.854 63.4023 167.984C63.4023 169.115 63.1836 169.997 62.7461 170.633C62.3086 171.268 61.6159 171.586 60.668 171.586C59.7878 171.586 59.1185 171.268 58.6602 170.633C58.2018 169.997 57.9727 169.115 57.9727 167.984C57.9727 166.854 58.1862 165.977 58.6133 165.352C59.0456 164.727 59.7305 164.414 60.668 164.414ZM60.6836 166.047C60.4284 166.047 60.2409 166.208 60.1211 166.531C60.0013 166.854 59.9414 167.344 59.9414 168C59.9414 168.656 60.0013 169.148 60.1211 169.477C60.2409 169.805 60.4284 169.969 60.6836 169.969C60.9388 169.969 61.1263 169.807 61.2461 169.484C61.3711 169.156 61.4336 168.661 61.4336 168C61.4336 167.344 61.3711 166.854 61.2461 166.531C61.1263 166.208 60.9388 166.047 60.6836 166.047ZM68.7773 164.578L62.4414 176H60.5664L66.9023 164.578H68.7773ZM68.668 168.977C69.5638 168.977 70.2435 169.289 70.707 169.914C71.1706 170.539 71.4023 171.417 71.4023 172.547C71.4023 173.672 71.1836 174.552 70.7461 175.188C70.3086 175.823 69.6159 176.141 68.668 176.141C67.7878 176.141 67.1185 175.823 66.6602 175.188C66.2018 174.552 65.9727 173.672 65.9727 172.547C65.9727 171.417 66.1862 170.539 66.6133 169.914C67.0456 169.289 67.7305 168.977 68.668 168.977ZM68.6836 170.609C68.4284 170.609 68.2409 170.771 68.1211 171.094C68.0013 171.417 67.9414 171.906 67.9414 172.562C67.9414 173.219 68.0013 173.711 68.1211 174.039C68.2409 174.367 68.4284 174.531 68.6836 174.531C68.9388 174.531 69.1263 174.37 69.2461 174.047C69.3711 173.719 69.4336 173.224 69.4336 172.562C69.4336 171.906 69.3711 171.417 69.2461 171.094C69.1263 170.771 68.9388 170.609 68.6836 170.609ZM83.787 170.273C83.787 171.154 83.6777 171.956 83.4589 172.68C83.2402 173.398 82.9068 174.018 82.4589 174.539C82.0162 175.06 81.4537 175.461 80.7714 175.742C80.0891 176.018 79.2818 176.156 78.3495 176.156C77.4172 176.156 76.6099 176.018 75.9277 175.742C75.2454 175.461 74.6803 175.06 74.2323 174.539C73.7896 174.018 73.4589 173.396 73.2402 172.672C73.0214 171.948 72.912 171.143 72.912 170.258C72.912 169.076 73.1047 168.047 73.4902 167.172C73.8808 166.292 74.4797 165.609 75.287 165.125C76.0943 164.641 77.1204 164.398 78.3652 164.398C79.6047 164.398 80.623 164.641 81.4198 165.125C82.2219 165.609 82.8157 166.292 83.2011 167.172C83.5917 168.052 83.787 169.086 83.787 170.273ZM75.4511 170.273C75.4511 171.07 75.5501 171.758 75.748 172.336C75.9511 172.909 76.2662 173.352 76.6933 173.664C77.1204 173.971 77.6724 174.125 78.3495 174.125C79.037 174.125 79.5943 173.971 80.0214 173.664C80.4485 173.352 80.7584 172.909 80.9511 172.336C81.149 171.758 81.248 171.07 81.248 170.273C81.248 169.076 81.024 168.133 80.5761 167.445C80.1282 166.758 79.3912 166.414 78.3652 166.414C77.6829 166.414 77.1256 166.57 76.6933 166.883C76.2662 167.19 75.9511 167.633 75.748 168.211C75.5501 168.784 75.4511 169.471 75.4511 170.273ZM92.8123 176H86.2342V164.578H92.8123V166.562H88.6561V169.07H92.5233V171.055H88.6561V174H92.8123V176ZM101.861 176H95.283V164.578H101.861V166.562H97.7048V169.07H101.572V171.055H97.7048V174H101.861V176ZM60.668 196.414C61.5638 196.414 62.2435 196.727 62.707 197.352C63.1706 197.977 63.4023 198.854 63.4023 199.984C63.4023 201.115 63.1836 201.997 62.7461 202.633C62.3086 203.268 61.6159 203.586 60.668 203.586C59.7878 203.586 59.1185 203.268 58.6602 202.633C58.2018 201.997 57.9727 201.115 57.9727 199.984C57.9727 198.854 58.1862 197.977 58.6133 197.352C59.0456 196.727 59.7305 196.414 60.668 196.414ZM60.6836 198.047C60.4284 198.047 60.2409 198.208 60.1211 198.531C60.0013 198.854 59.9414 199.344 59.9414 200C59.9414 200.656 60.0013 201.148 60.1211 201.477C60.2409 201.805 60.4284 201.969 60.6836 201.969C60.9388 201.969 61.1263 201.807 61.2461 201.484C61.3711 201.156 61.4336 200.661 61.4336 200C61.4336 199.344 61.3711 198.854 61.2461 198.531C61.1263 198.208 60.9388 198.047 60.6836 198.047ZM68.7773 196.578L62.4414 208H60.5664L66.9023 196.578H68.7773ZM68.668 200.977C69.5638 200.977 70.2435 201.289 70.707 201.914C71.1706 202.539 71.4023 203.417 71.4023 204.547C71.4023 205.672 71.1836 206.552 70.7461 207.188C70.3086 207.823 69.6159 208.141 68.668 208.141C67.7878 208.141 67.1185 207.823 66.6602 207.188C66.2018 206.552 65.9727 205.672 65.9727 204.547C65.9727 203.417 66.1862 202.539 66.6133 201.914C67.0456 201.289 67.7305 200.977 68.668 200.977ZM68.6836 202.609C68.4284 202.609 68.2409 202.771 68.1211 203.094C68.0013 203.417 67.9414 203.906 67.9414 204.562C67.9414 205.219 68.0013 205.711 68.1211 206.039C68.2409 206.367 68.4284 206.531 68.6836 206.531C68.9388 206.531 69.1263 206.37 69.2461 206.047C69.3711 205.719 69.4336 205.224 69.4336 204.562C69.4336 203.906 69.3711 203.417 69.2461 203.094C69.1263 202.771 68.9388 202.609 68.6836 202.609ZM83.787 202.273C83.787 203.154 83.6777 203.956 83.4589 204.68C83.2402 205.398 82.9068 206.018 82.4589 206.539C82.0162 207.06 81.4537 207.461 80.7714 207.742C80.0891 208.018 79.2818 208.156 78.3495 208.156C77.4172 208.156 76.6099 208.018 75.9277 207.742C75.2454 207.461 74.6803 207.06 74.2323 206.539C73.7896 206.018 73.4589 205.396 73.2402 204.672C73.0214 203.948 72.912 203.143 72.912 202.258C72.912 201.076 73.1047 200.047 73.4902 199.172C73.8808 198.292 74.4797 197.609 75.287 197.125C76.0943 196.641 77.1204 196.398 78.3652 196.398C79.6047 196.398 80.623 196.641 81.4198 197.125C82.2219 197.609 82.8157 198.292 83.2011 199.172C83.5917 200.052 83.787 201.086 83.787 202.273ZM75.4511 202.273C75.4511 203.07 75.5501 203.758 75.748 204.336C75.9511 204.909 76.2662 205.352 76.6933 205.664C77.1204 205.971 77.6724 206.125 78.3495 206.125C79.037 206.125 79.5943 205.971 80.0214 205.664C80.4485 205.352 80.7584 204.909 80.9511 204.336C81.149 203.758 81.248 203.07 81.248 202.273C81.248 201.076 81.024 200.133 80.5761 199.445C80.1282 198.758 79.3912 198.414 78.3652 198.414C77.6829 198.414 77.1256 198.57 76.6933 198.883C76.2662 199.19 75.9511 199.633 75.748 200.211C75.5501 200.784 75.4511 201.471 75.4511 202.273ZM93.2264 208L92.3983 205.281H88.2342L87.4061 208H84.7967L88.828 196.531H91.7889L95.8358 208H93.2264ZM91.8202 203.25L90.992 200.594C90.9399 200.417 90.8696 200.19 90.7811 199.914C90.6978 199.633 90.6118 199.349 90.5233 199.062C90.4399 198.771 90.3722 198.518 90.3202 198.305C90.2681 198.518 90.1952 198.784 90.1014 199.102C90.0129 199.414 89.9269 199.711 89.8436 199.992C89.7603 200.273 89.7004 200.474 89.6639 200.594L88.8436 203.25H91.8202ZM62.5664 228.578C64.0404 228.578 65.1159 228.896 65.793 229.531C66.4701 230.161 66.8086 231.031 66.8086 232.141C66.8086 232.641 66.7331 233.12 66.582 233.578C66.431 234.031 66.1836 234.435 65.8398 234.789C65.5013 235.143 65.0482 235.424 64.4805 235.633C63.9128 235.836 63.2122 235.938 62.3789 235.938H61.3398V240H58.918V228.578H62.5664ZM62.4414 230.562H61.3398V233.953H62.1367C62.5898 233.953 62.9831 233.893 63.3164 233.773C63.6497 233.654 63.9076 233.466 64.0898 233.211C64.2721 232.956 64.3633 232.628 64.3633 232.227C64.3633 231.664 64.207 231.247 63.8945 230.977C63.582 230.701 63.0977 230.562 62.4414 230.562ZM72.373 228.578C73.4094 228.578 74.2636 228.703 74.9355 228.953C75.6126 229.203 76.1152 229.581 76.4433 230.086C76.7714 230.591 76.9355 231.229 76.9355 232C76.9355 232.521 76.8365 232.977 76.6386 233.367C76.4407 233.758 76.1803 234.089 75.8573 234.359C75.5344 234.63 75.1855 234.852 74.8105 235.023L78.1698 240H75.4823L72.7558 235.617H71.4667V240H69.0448V228.578H72.373ZM72.2011 230.562H71.4667V233.648H72.248C73.0501 233.648 73.623 233.516 73.9667 233.25C74.3157 232.979 74.4902 232.583 74.4902 232.062C74.4902 231.521 74.3027 231.135 73.9277 230.906C73.5579 230.677 72.9823 230.562 72.2011 230.562ZM63.7695 262.43C63.306 262.43 62.8945 262.521 62.5352 262.703C62.181 262.88 61.8815 263.138 61.6367 263.477C61.3971 263.815 61.2148 264.224 61.0898 264.703C60.9648 265.182 60.9023 265.721 60.9023 266.32C60.9023 267.128 61.0013 267.818 61.1992 268.391C61.4023 268.958 61.7148 269.393 62.1367 269.695C62.5586 269.992 63.1029 270.141 63.7695 270.141C64.2331 270.141 64.6966 270.089 65.1602 269.984C65.6289 269.88 66.1367 269.732 66.6836 269.539V271.57C66.1784 271.779 65.681 271.927 65.1914 272.016C64.7018 272.109 64.1523 272.156 63.543 272.156C62.3659 272.156 61.3971 271.914 60.6367 271.43C59.8815 270.94 59.3216 270.258 58.957 269.383C58.5924 268.503 58.4102 267.477 58.4102 266.305C58.4102 265.44 58.5273 264.648 58.7617 263.93C58.9961 263.211 59.3398 262.589 59.793 262.062C60.2461 261.536 60.806 261.13 61.4727 260.844C62.1393 260.557 62.9049 260.414 63.7695 260.414C64.3372 260.414 64.9049 260.487 65.4727 260.633C66.0456 260.773 66.5924 260.969 67.1133 261.219L66.332 263.188C65.9049 262.984 65.4753 262.807 65.043 262.656C64.6107 262.505 64.1862 262.43 63.7695 262.43ZM77.0292 263.266V272H75.2011L74.8808 270.883H74.7558C74.5683 271.18 74.3339 271.422 74.0527 271.609C73.7714 271.797 73.4615 271.935 73.123 272.023C72.7844 272.112 72.4329 272.156 72.0683 272.156C71.4433 272.156 70.899 272.047 70.4355 271.828C69.9719 271.604 69.6099 271.258 69.3495 270.789C69.0943 270.32 68.9667 269.711 68.9667 268.961V263.266H71.3495V268.367C71.3495 268.992 71.4615 269.464 71.6855 269.781C71.9094 270.099 72.2662 270.258 72.7558 270.258C73.2402 270.258 73.6204 270.148 73.8964 269.93C74.1724 269.706 74.3652 269.38 74.4745 268.953C74.5891 268.521 74.6464 267.995 74.6464 267.375V263.266H77.0292ZM84.4842 263.102C84.604 263.102 84.742 263.109 84.8983 263.125C85.0597 263.135 85.1899 263.151 85.2889 263.172L85.1092 265.406C85.0311 265.38 84.9191 265.362 84.7733 265.352C84.6327 265.336 84.5103 265.328 84.4061 265.328C84.0988 265.328 83.7993 265.367 83.5077 265.445C83.2212 265.523 82.9634 265.651 82.7342 265.828C82.5051 266 82.3228 266.229 82.1873 266.516C82.0571 266.797 81.992 267.143 81.992 267.555V272H79.6092V263.266H81.4139L81.7655 264.734H81.8827C82.0545 264.438 82.2681 264.167 82.5233 263.922C82.7837 263.672 83.078 263.474 83.4061 263.328C83.7394 263.177 84.0988 263.102 84.4842 263.102ZM91.8298 263.102C91.9496 263.102 92.0877 263.109 92.2439 263.125C92.4054 263.135 92.5356 263.151 92.6345 263.172L92.4548 265.406C92.3767 265.38 92.2647 265.362 92.1189 265.352C91.9783 265.336 91.8559 265.328 91.7517 265.328C91.4444 265.328 91.1449 265.367 90.8533 265.445C90.5668 265.523 90.309 265.651 90.0798 265.828C89.8507 266 89.6684 266.229 89.533 266.516C89.4028 266.797 89.3377 267.143 89.3377 267.555V272H86.9548V263.266H88.7595L89.1111 264.734H89.2283C89.4002 264.438 89.6137 264.167 89.8689 263.922C90.1293 263.672 90.4236 263.474 90.7517 263.328C91.0851 263.177 91.4444 263.102 91.8298 263.102ZM97.902 263.102C98.7093 263.102 99.4046 263.258 99.988 263.57C100.571 263.878 101.022 264.326 101.34 264.914C101.657 265.503 101.816 266.221 101.816 267.07V268.227H96.1833C96.2093 268.898 96.4098 269.427 96.7848 269.812C97.1651 270.193 97.6911 270.383 98.363 270.383C98.9203 270.383 99.4307 270.326 99.8942 270.211C100.358 270.096 100.834 269.924 101.324 269.695V271.539C100.892 271.753 100.438 271.909 99.9645 272.008C99.4958 272.107 98.9255 272.156 98.2536 272.156C97.3786 272.156 96.6026 271.995 95.9255 271.672C95.2536 271.349 94.7249 270.857 94.3395 270.195C93.9593 269.534 93.7692 268.701 93.7692 267.695C93.7692 266.674 93.9411 265.826 94.2848 265.148C94.6338 264.466 95.1182 263.956 95.738 263.617C96.3578 263.273 97.0791 263.102 97.902 263.102ZM97.9177 264.797C97.4541 264.797 97.0687 264.945 96.7614 265.242C96.4593 265.539 96.2848 266.005 96.238 266.641H99.5817C99.5765 266.286 99.5114 265.971 99.3864 265.695C99.2666 265.419 99.0843 265.201 98.8395 265.039C98.5999 264.878 98.2927 264.797 97.9177 264.797ZM108.795 263.102C109.727 263.102 110.477 263.357 111.045 263.867C111.612 264.372 111.896 265.185 111.896 266.305V272H109.513V266.898C109.513 266.273 109.399 265.802 109.17 265.484C108.946 265.167 108.591 265.008 108.107 265.008C107.378 265.008 106.88 265.255 106.615 265.75C106.349 266.245 106.216 266.958 106.216 267.891V272H103.834V263.266H105.654L105.974 264.383H106.107C106.295 264.081 106.526 263.836 106.802 263.648C107.084 263.461 107.393 263.323 107.732 263.234C108.076 263.146 108.43 263.102 108.795 263.102ZM118.109 270.258C118.369 270.258 118.622 270.232 118.867 270.18C119.117 270.128 119.364 270.062 119.609 269.984V271.758C119.354 271.872 119.036 271.966 118.656 272.039C118.281 272.117 117.869 272.156 117.421 272.156C116.901 272.156 116.432 272.073 116.015 271.906C115.604 271.734 115.278 271.44 115.039 271.023C114.804 270.602 114.687 270.016 114.687 269.266V265.055H113.546V264.047L114.859 263.25L115.546 261.406H117.07V263.266H119.515V265.055H117.07V269.266C117.07 269.599 117.164 269.849 117.351 270.016C117.544 270.177 117.796 270.258 118.109 270.258ZM132.628 268.828C132.628 269.505 132.464 270.094 132.136 270.594C131.808 271.094 131.329 271.479 130.699 271.75C130.074 272.021 129.313 272.156 128.417 272.156C128.022 272.156 127.633 272.13 127.253 272.078C126.878 272.026 126.516 271.951 126.167 271.852C125.824 271.747 125.495 271.62 125.183 271.469V269.219C125.725 269.458 126.287 269.674 126.87 269.867C127.454 270.06 128.032 270.156 128.605 270.156C129.001 270.156 129.318 270.104 129.558 270C129.803 269.896 129.98 269.753 130.089 269.57C130.199 269.388 130.253 269.18 130.253 268.945C130.253 268.659 130.157 268.414 129.964 268.211C129.772 268.008 129.506 267.818 129.167 267.641C128.834 267.464 128.456 267.273 128.035 267.07C127.769 266.945 127.48 266.794 127.167 266.617C126.855 266.435 126.558 266.214 126.277 265.953C125.995 265.693 125.764 265.378 125.581 265.008C125.404 264.633 125.316 264.185 125.316 263.664C125.316 262.982 125.472 262.398 125.785 261.914C126.097 261.43 126.542 261.06 127.12 260.805C127.704 260.544 128.391 260.414 129.183 260.414C129.777 260.414 130.342 260.484 130.878 260.625C131.42 260.76 131.985 260.958 132.574 261.219L131.792 263.102C131.266 262.888 130.795 262.724 130.378 262.609C129.962 262.49 129.537 262.43 129.105 262.43C128.803 262.43 128.545 262.479 128.331 262.578C128.118 262.672 127.956 262.807 127.847 262.984C127.738 263.156 127.683 263.357 127.683 263.586C127.683 263.857 127.761 264.086 127.917 264.273C128.079 264.456 128.318 264.633 128.636 264.805C128.959 264.977 129.36 265.177 129.839 265.406C130.423 265.682 130.92 265.971 131.331 266.273C131.748 266.57 132.068 266.922 132.292 267.328C132.516 267.729 132.628 268.229 132.628 268.828ZM139.45 263.102C140.435 263.102 141.229 263.484 141.833 264.25C142.443 265.016 142.747 266.138 142.747 267.617C142.747 268.607 142.604 269.44 142.318 270.117C142.031 270.789 141.635 271.297 141.13 271.641C140.625 271.984 140.044 272.156 139.388 272.156C138.966 272.156 138.604 272.104 138.302 272C138 271.891 137.742 271.753 137.529 271.586C137.315 271.414 137.13 271.232 136.974 271.039H136.849C136.891 271.247 136.922 271.461 136.943 271.68C136.963 271.898 136.974 272.112 136.974 272.32V275.844H134.591V263.266H136.529L136.865 264.398H136.974C137.13 264.164 137.32 263.948 137.544 263.75C137.768 263.552 138.036 263.396 138.349 263.281C138.667 263.161 139.034 263.102 139.45 263.102ZM138.685 265.008C138.268 265.008 137.937 265.094 137.693 265.266C137.448 265.438 137.268 265.695 137.154 266.039C137.044 266.383 136.984 266.818 136.974 267.344V267.602C136.974 268.164 137.026 268.641 137.13 269.031C137.24 269.422 137.419 269.719 137.669 269.922C137.924 270.125 138.273 270.227 138.716 270.227C139.081 270.227 139.38 270.125 139.615 269.922C139.849 269.719 140.023 269.422 140.138 269.031C140.258 268.635 140.318 268.154 140.318 267.586C140.318 266.732 140.185 266.089 139.919 265.656C139.654 265.224 139.242 265.008 138.685 265.008ZM148.398 263.102C149.205 263.102 149.9 263.258 150.484 263.57C151.067 263.878 151.517 264.326 151.835 264.914C152.153 265.503 152.312 266.221 152.312 267.07V268.227H146.679C146.705 268.898 146.905 269.427 147.28 269.812C147.661 270.193 148.187 270.383 148.859 270.383C149.416 270.383 149.926 270.326 150.39 270.211C150.853 270.096 151.33 269.924 151.82 269.695V271.539C151.387 271.753 150.934 271.909 150.46 272.008C149.991 272.107 149.421 272.156 148.749 272.156C147.874 272.156 147.098 271.995 146.421 271.672C145.749 271.349 145.221 270.857 144.835 270.195C144.455 269.534 144.265 268.701 144.265 267.695C144.265 266.674 144.437 265.826 144.78 265.148C145.129 264.466 145.614 263.956 146.234 263.617C146.853 263.273 147.575 263.102 148.398 263.102ZM148.413 264.797C147.95 264.797 147.564 264.945 147.257 265.242C146.955 265.539 146.78 266.005 146.734 266.641H150.077C150.072 266.286 150.007 265.971 149.882 265.695C149.762 265.419 149.58 265.201 149.335 265.039C149.096 264.878 148.788 264.797 148.413 264.797ZM157.931 263.102C158.738 263.102 159.433 263.258 160.017 263.57C160.6 263.878 161.051 264.326 161.368 264.914C161.686 265.503 161.845 266.221 161.845 267.07V268.227H156.212C156.238 268.898 156.439 269.427 156.814 269.812C157.194 270.193 157.72 270.383 158.392 270.383C158.949 270.383 159.459 270.326 159.923 270.211C160.387 270.096 160.863 269.924 161.353 269.695V271.539C160.92 271.753 160.467 271.909 159.993 272.008C159.525 272.107 158.954 272.156 158.282 272.156C157.407 272.156 156.631 271.995 155.954 271.672C155.282 271.349 154.754 270.857 154.368 270.195C153.988 269.534 153.798 268.701 153.798 267.695C153.798 266.674 153.97 265.826 154.314 265.148C154.663 264.466 155.147 263.956 155.767 263.617C156.387 263.273 157.108 263.102 157.931 263.102ZM157.946 264.797C157.483 264.797 157.097 264.945 156.79 265.242C156.488 265.539 156.314 266.005 156.267 266.641H159.61C159.605 266.286 159.54 265.971 159.415 265.695C159.295 265.419 159.113 265.201 158.868 265.039C158.629 264.878 158.321 264.797 157.946 264.797ZM166.628 272.156C165.654 272.156 164.86 271.776 164.245 271.016C163.636 270.25 163.331 269.128 163.331 267.648C163.331 266.154 163.641 265.023 164.261 264.258C164.881 263.487 165.69 263.102 166.69 263.102C167.107 263.102 167.474 263.159 167.792 263.273C168.11 263.388 168.383 263.542 168.612 263.734C168.847 263.927 169.045 264.143 169.206 264.383H169.284C169.253 264.216 169.214 263.971 169.167 263.648C169.125 263.32 169.105 262.984 169.105 262.641V259.844H171.495V272H169.667L169.206 270.867H169.105C168.953 271.107 168.763 271.326 168.534 271.523C168.31 271.716 168.042 271.87 167.73 271.984C167.417 272.099 167.05 272.156 166.628 272.156ZM167.464 270.258C168.115 270.258 168.573 270.065 168.839 269.68C169.11 269.289 169.253 268.703 169.269 267.922V267.664C169.269 266.815 169.138 266.167 168.878 265.719C168.618 265.266 168.133 265.039 167.425 265.039C166.899 265.039 166.487 265.266 166.19 265.719C165.894 266.172 165.745 266.826 165.745 267.68C165.745 268.534 165.894 269.177 166.19 269.609C166.493 270.042 166.917 270.258 167.464 270.258ZM68.3945 298.18C68.3945 299.466 68.1471 300.542 67.6523 301.406C67.1628 302.266 66.4518 302.914 65.5195 303.352C64.5872 303.784 63.4648 304 62.1523 304H58.918V292.578H62.5039C63.7018 292.578 64.7409 292.792 65.6211 293.219C66.5013 293.641 67.1836 294.268 67.668 295.102C68.1523 295.93 68.3945 296.956 68.3945 298.18ZM65.8789 298.242C65.8789 297.398 65.7539 296.706 65.5039 296.164C65.2591 295.617 64.8945 295.214 64.4102 294.953C63.931 294.693 63.3372 294.562 62.6289 294.562H61.3398V302H62.3789C63.5612 302 64.4388 301.685 65.0117 301.055C65.5898 300.424 65.8789 299.487 65.8789 298.242ZM74.2558 295.102C75.0631 295.102 75.7584 295.258 76.3417 295.57C76.9251 295.878 77.3756 296.326 77.6933 296.914C78.011 297.503 78.1698 298.221 78.1698 299.07V300.227H72.537C72.5631 300.898 72.7636 301.427 73.1386 301.812C73.5188 302.193 74.0448 302.383 74.7167 302.383C75.274 302.383 75.7844 302.326 76.248 302.211C76.7115 302.096 77.1881 301.924 77.6777 301.695V303.539C77.2454 303.753 76.7922 303.909 76.3183 304.008C75.8495 304.107 75.2792 304.156 74.6073 304.156C73.7323 304.156 72.9563 303.995 72.2792 303.672C71.6073 303.349 71.0787 302.857 70.6933 302.195C70.3131 301.534 70.123 300.701 70.123 299.695C70.123 298.674 70.2948 297.826 70.6386 297.148C70.9876 296.466 71.4719 295.956 72.0917 295.617C72.7115 295.273 73.4329 295.102 74.2558 295.102ZM74.2714 296.797C73.8079 296.797 73.4224 296.945 73.1152 297.242C72.8131 297.539 72.6386 298.005 72.5917 298.641H75.9355C75.9303 298.286 75.8652 297.971 75.7402 297.695C75.6204 297.419 75.4381 297.201 75.1933 297.039C74.9537 296.878 74.6464 296.797 74.2714 296.797ZM86.2811 301.406C86.2811 302 86.1405 302.503 85.8592 302.914C85.5832 303.32 85.1691 303.63 84.617 303.844C84.0649 304.052 83.3774 304.156 82.5545 304.156C81.9452 304.156 81.4217 304.117 80.9842 304.039C80.5519 303.961 80.1144 303.831 79.6717 303.648V301.68C80.1457 301.893 80.6535 302.07 81.1952 302.211C81.742 302.346 82.2212 302.414 82.6327 302.414C83.0962 302.414 83.4269 302.346 83.6248 302.211C83.828 302.07 83.9295 301.888 83.9295 301.664C83.9295 301.518 83.8879 301.388 83.8045 301.273C83.7264 301.154 83.5545 301.021 83.2889 300.875C83.0233 300.724 82.6066 300.529 82.0389 300.289C81.492 300.06 81.0415 299.828 80.6873 299.594C80.3384 299.359 80.078 299.083 79.9061 298.766C79.7394 298.443 79.6561 298.034 79.6561 297.539C79.6561 296.732 79.9686 296.125 80.5936 295.719C81.2238 295.307 82.0649 295.102 83.117 295.102C83.6587 295.102 84.1743 295.156 84.6639 295.266C85.1587 295.375 85.6665 295.549 86.1873 295.789L85.4686 297.508C85.0363 297.32 84.6274 297.167 84.242 297.047C83.8618 296.927 83.4738 296.867 83.078 296.867C82.729 296.867 82.466 296.914 82.2889 297.008C82.1118 297.102 82.0233 297.245 82.0233 297.438C82.0233 297.578 82.0676 297.703 82.1561 297.812C82.2498 297.922 82.4269 298.044 82.6873 298.18C82.953 298.31 83.341 298.479 83.8514 298.688C84.3462 298.891 84.7759 299.104 85.1405 299.328C85.5051 299.547 85.7863 299.82 85.9842 300.148C86.1821 300.471 86.2811 300.891 86.2811 301.406ZM90.6033 295.266V304H88.2205V295.266H90.6033ZM89.4158 291.844C89.7699 291.844 90.0746 291.927 90.3298 292.094C90.5851 292.255 90.7127 292.56 90.7127 293.008C90.7127 293.451 90.5851 293.758 90.3298 293.93C90.0746 294.096 89.7699 294.18 89.4158 294.18C89.0564 294.18 88.7491 294.096 88.4939 293.93C88.2439 293.758 88.1189 293.451 88.1189 293.008C88.1189 292.56 88.2439 292.255 88.4939 292.094C88.7491 291.927 89.0564 291.844 89.4158 291.844ZM95.7458 307.844C94.527 307.844 93.5947 307.63 92.9489 307.203C92.3083 306.781 91.988 306.188 91.988 305.422C91.988 304.896 92.152 304.456 92.4802 304.102C92.8083 303.747 93.2901 303.495 93.9255 303.344C93.6807 303.24 93.4671 303.07 93.2848 302.836C93.1026 302.596 93.0114 302.344 93.0114 302.078C93.0114 301.745 93.1078 301.469 93.3005 301.25C93.4932 301.026 93.7718 300.807 94.1364 300.594C93.6781 300.396 93.3135 300.078 93.0427 299.641C92.777 299.203 92.6442 298.688 92.6442 298.094C92.6442 297.458 92.7822 296.919 93.0583 296.477C93.3395 296.029 93.7458 295.688 94.277 295.453C94.8135 295.219 95.4645 295.102 96.2302 295.102C96.3916 295.102 96.5791 295.112 96.7927 295.133C97.0062 295.154 97.2015 295.177 97.3786 295.203C97.5609 295.229 97.6833 295.25 97.7458 295.266H100.793V296.477L99.4255 296.828C99.5505 297.021 99.6442 297.227 99.7067 297.445C99.7692 297.664 99.8005 297.896 99.8005 298.141C99.8005 299.078 99.4723 299.81 98.8161 300.336C98.1651 300.857 97.2588 301.117 96.0973 301.117C95.8213 301.102 95.5609 301.081 95.3161 301.055C95.1963 301.148 95.1052 301.247 95.0427 301.352C94.9802 301.456 94.9489 301.565 94.9489 301.68C94.9489 301.794 94.9958 301.891 95.0895 301.969C95.1885 302.042 95.3343 302.099 95.527 302.141C95.7249 302.177 95.9697 302.195 96.2614 302.195H97.7458C98.7041 302.195 99.4333 302.401 99.9333 302.812C100.438 303.224 100.691 303.828 100.691 304.625C100.691 305.646 100.264 306.438 99.4098 307C98.5609 307.562 97.3395 307.844 95.7458 307.844ZM95.8473 306.289C96.4151 306.289 96.902 306.234 97.3083 306.125C97.7197 306.021 98.0348 305.87 98.2536 305.672C98.4723 305.479 98.5817 305.247 98.5817 304.977C98.5817 304.758 98.5166 304.583 98.3864 304.453C98.2614 304.328 98.0687 304.24 97.8083 304.188C97.5531 304.135 97.2249 304.109 96.8239 304.109H95.5895C95.2979 304.109 95.0348 304.156 94.8005 304.25C94.5713 304.344 94.389 304.474 94.2536 304.641C94.1182 304.812 94.0505 305.01 94.0505 305.234C94.0505 305.562 94.2067 305.82 94.5192 306.008C94.8369 306.195 95.2796 306.289 95.8473 306.289ZM96.2302 299.664C96.6781 299.664 97.0062 299.526 97.2145 299.25C97.4229 298.974 97.527 298.599 97.527 298.125C97.527 297.599 97.4177 297.206 97.1989 296.945C96.9854 296.68 96.6624 296.547 96.2302 296.547C95.7927 296.547 95.4645 296.68 95.2458 296.945C95.027 297.206 94.9177 297.599 94.9177 298.125C94.9177 298.599 95.0244 298.974 95.238 299.25C95.4567 299.526 95.7874 299.664 96.2302 299.664ZM107.279 295.102C108.211 295.102 108.961 295.357 109.529 295.867C110.097 296.372 110.38 297.185 110.38 298.305V304H107.998V298.898C107.998 298.273 107.883 297.802 107.654 297.484C107.43 297.167 107.076 297.008 106.591 297.008C105.862 297.008 105.365 297.255 105.099 297.75C104.834 298.245 104.701 298.958 104.701 299.891V304H102.318V295.266H104.138L104.459 296.383H104.591C104.779 296.081 105.011 295.836 105.287 295.648C105.568 295.461 105.878 295.323 106.216 295.234C106.56 295.146 106.914 295.102 107.279 295.102ZM124.08 300.828C124.08 301.505 123.915 302.094 123.587 302.594C123.259 303.094 122.78 303.479 122.15 303.75C121.525 304.021 120.764 304.156 119.869 304.156C119.473 304.156 119.085 304.13 118.705 304.078C118.33 304.026 117.968 303.951 117.619 303.852C117.275 303.747 116.947 303.62 116.634 303.469V301.219C117.176 301.458 117.738 301.674 118.322 301.867C118.905 302.06 119.483 302.156 120.056 302.156C120.452 302.156 120.77 302.104 121.009 302C121.254 301.896 121.431 301.753 121.54 301.57C121.65 301.388 121.705 301.18 121.705 300.945C121.705 300.659 121.608 300.414 121.415 300.211C121.223 300.008 120.957 299.818 120.619 299.641C120.285 299.464 119.908 299.273 119.486 299.07C119.22 298.945 118.931 298.794 118.619 298.617C118.306 298.435 118.009 298.214 117.728 297.953C117.447 297.693 117.215 297.378 117.033 297.008C116.856 296.633 116.767 296.185 116.767 295.664C116.767 294.982 116.923 294.398 117.236 293.914C117.548 293.43 117.994 293.06 118.572 292.805C119.155 292.544 119.843 292.414 120.634 292.414C121.228 292.414 121.793 292.484 122.33 292.625C122.871 292.76 123.436 292.958 124.025 293.219L123.244 295.102C122.718 294.888 122.246 294.724 121.83 294.609C121.413 294.49 120.988 294.43 120.556 294.43C120.254 294.43 119.996 294.479 119.783 294.578C119.569 294.672 119.408 294.807 119.298 294.984C119.189 295.156 119.134 295.357 119.134 295.586C119.134 295.857 119.212 296.086 119.369 296.273C119.53 296.456 119.77 296.633 120.087 296.805C120.41 296.977 120.811 297.177 121.29 297.406C121.874 297.682 122.371 297.971 122.783 298.273C123.199 298.57 123.52 298.922 123.744 299.328C123.968 299.729 124.08 300.229 124.08 300.828ZM130.902 295.102C131.886 295.102 132.68 295.484 133.285 296.25C133.894 297.016 134.199 298.138 134.199 299.617C134.199 300.607 134.055 301.44 133.769 302.117C133.482 302.789 133.087 303.297 132.581 303.641C132.076 303.984 131.495 304.156 130.839 304.156C130.417 304.156 130.055 304.104 129.753 304C129.451 303.891 129.193 303.753 128.98 303.586C128.766 303.414 128.581 303.232 128.425 303.039H128.3C128.342 303.247 128.373 303.461 128.394 303.68C128.415 303.898 128.425 304.112 128.425 304.32V307.844H126.042V295.266H127.98L128.316 296.398H128.425C128.581 296.164 128.772 295.948 128.995 295.75C129.219 295.552 129.488 295.396 129.8 295.281C130.118 295.161 130.485 295.102 130.902 295.102ZM130.136 297.008C129.719 297.008 129.389 297.094 129.144 297.266C128.899 297.438 128.719 297.695 128.605 298.039C128.495 298.383 128.436 298.818 128.425 299.344V299.602C128.425 300.164 128.477 300.641 128.581 301.031C128.691 301.422 128.87 301.719 129.12 301.922C129.376 302.125 129.725 302.227 130.167 302.227C130.532 302.227 130.831 302.125 131.066 301.922C131.3 301.719 131.475 301.422 131.589 301.031C131.709 300.635 131.769 300.154 131.769 299.586C131.769 298.732 131.636 298.089 131.37 297.656C131.105 297.224 130.693 297.008 130.136 297.008ZM139.849 295.102C140.656 295.102 141.352 295.258 141.935 295.57C142.518 295.878 142.969 296.326 143.286 296.914C143.604 297.503 143.763 298.221 143.763 299.07V300.227H138.13C138.156 300.898 138.357 301.427 138.732 301.812C139.112 302.193 139.638 302.383 140.31 302.383C140.867 302.383 141.378 302.326 141.841 302.211C142.305 302.096 142.781 301.924 143.271 301.695V303.539C142.838 303.753 142.385 303.909 141.911 304.008C141.443 304.107 140.872 304.156 140.2 304.156C139.325 304.156 138.549 303.995 137.872 303.672C137.2 303.349 136.672 302.857 136.286 302.195C135.906 301.534 135.716 300.701 135.716 299.695C135.716 298.674 135.888 297.826 136.232 297.148C136.581 296.466 137.065 295.956 137.685 295.617C138.305 295.273 139.026 295.102 139.849 295.102ZM139.865 296.797C139.401 296.797 139.016 296.945 138.708 297.242C138.406 297.539 138.232 298.005 138.185 298.641H141.529C141.523 298.286 141.458 297.971 141.333 297.695C141.213 297.419 141.031 297.201 140.786 297.039C140.547 296.878 140.24 296.797 139.865 296.797ZM149.382 295.102C150.189 295.102 150.885 295.258 151.468 295.57C152.051 295.878 152.502 296.326 152.82 296.914C153.137 297.503 153.296 298.221 153.296 299.07V300.227H147.663C147.689 300.898 147.89 301.427 148.265 301.812C148.645 302.193 149.171 302.383 149.843 302.383C150.4 302.383 150.911 302.326 151.374 302.211C151.838 302.096 152.314 301.924 152.804 301.695V303.539C152.372 303.753 151.918 303.909 151.445 304.008C150.976 304.107 150.405 304.156 149.734 304.156C148.859 304.156 148.083 303.995 147.405 303.672C146.734 303.349 146.205 302.857 145.82 302.195C145.439 301.534 145.249 300.701 145.249 299.695C145.249 298.674 145.421 297.826 145.765 297.148C146.114 296.466 146.598 295.956 147.218 295.617C147.838 295.273 148.559 295.102 149.382 295.102ZM149.398 296.797C148.934 296.797 148.549 296.945 148.241 297.242C147.939 297.539 147.765 298.005 147.718 298.641H151.062C151.057 298.286 150.991 297.971 150.866 297.695C150.747 297.419 150.564 297.201 150.32 297.039C150.08 296.878 149.773 296.797 149.398 296.797ZM158.079 304.156C157.105 304.156 156.311 303.776 155.696 303.016C155.087 302.25 154.782 301.128 154.782 299.648C154.782 298.154 155.092 297.023 155.712 296.258C156.332 295.487 157.142 295.102 158.142 295.102C158.558 295.102 158.926 295.159 159.243 295.273C159.561 295.388 159.834 295.542 160.064 295.734C160.298 295.927 160.496 296.143 160.657 296.383H160.735C160.704 296.216 160.665 295.971 160.618 295.648C160.577 295.32 160.556 294.984 160.556 294.641V291.844H162.946V304H161.118L160.657 302.867H160.556C160.405 303.107 160.215 303.326 159.985 303.523C159.762 303.716 159.493 303.87 159.181 303.984C158.868 304.099 158.501 304.156 158.079 304.156ZM158.915 302.258C159.566 302.258 160.025 302.065 160.29 301.68C160.561 301.289 160.704 300.703 160.72 299.922V299.664C160.72 298.815 160.59 298.167 160.329 297.719C160.069 297.266 159.584 297.039 158.876 297.039C158.35 297.039 157.939 297.266 157.642 297.719C157.345 298.172 157.196 298.826 157.196 299.68C157.196 300.534 157.345 301.177 157.642 301.609C157.944 302.042 158.368 302.258 158.915 302.258Z" fill="white"/>
<g filter="url(#filter1_d_3545_2407)">
<path d="M49.2236 108C49.2236 110.209 47.4328 112 45.2236 112C43.0145 112 41.2236 110.209 41.2236 108C41.2236 105.791 43.0145 104 45.2236 104C47.4328 104 49.2236 105.791 49.2236 108Z" fill="#FF3D57"/>
</g>
<path d="M49.2236 140C49.2236 142.209 47.4328 144 45.2236 144C43.0145 144 41.2236 142.209 41.2236 140C41.2236 137.791 43.0145 136 45.2236 136C47.4328 136 49.2236 137.791 49.2236 140Z" fill="#00D647"/>
<g filter="url(#filter2_d_3545_2407)">
<path d="M49.2236 172C49.2236 174.209 47.4328 176 45.2236 176C43.0145 176 41.2236 174.209 41.2236 172C41.2236 169.791 43.0145 168 45.2236 168C47.4328 168 49.2236 169.791 49.2236 172Z" fill="#FF3D57"/>
</g>
<g filter="url(#filter3_d_3545_2407)">
<path d="M49.2236 204C49.2236 206.209 47.4328 208 45.2236 208C43.0145 208 41.2236 206.209 41.2236 204C41.2236 201.791 43.0145 200 45.2236 200C47.4328 200 49.2236 201.791 49.2236 204Z" fill="#FF3D57"/>
</g>
<g filter="url(#filter4_d_3545_2407)">
<path d="M49.2236 236C49.2236 238.209 47.4328 240 45.2236 240C43.0145 240 41.2236 238.209 41.2236 236C41.2236 233.791 43.0145 232 45.2236 232C47.4328 232 49.2236 233.791 49.2236 236Z" fill="#FF3D57"/>
</g>
<g filter="url(#filter5_d_3545_2407)">
<path d="M49.2236 268C49.2236 270.209 47.4328 272 45.2236 272C43.0145 272 41.2236 270.209 41.2236 268C41.2236 265.791 43.0145 264 45.2236 264C47.4328 264 49.2236 265.791 49.2236 268Z" fill="#FF3D57"/>
</g>
<path d="M49.2236 300C49.2236 302.209 47.4328 304 45.2236 304C43.0145 304 41.2236 302.209 41.2236 300C41.2236 297.791 43.0145 296 45.2236 296C47.4328 296 49.2236 297.791 49.2236 300Z" fill="#FFC600"/>
<path d="M41.2788 72.0156L39.8726 68.3906H35.2944L33.896 72.0156H32.5522L37.021 60.5469H38.2163L42.6538 72.0156H41.2788ZM39.4741 67.2109L38.1382 63.6094C38.1069 63.5156 38.0549 63.362 37.9819 63.1484C37.9142 62.9349 37.8439 62.7135 37.771 62.4844C37.6981 62.2552 37.6382 62.0703 37.5913 61.9297C37.5392 62.1432 37.4819 62.3568 37.4194 62.5703C37.3621 62.7786 37.3049 62.974 37.2476 63.1562C37.1903 63.3333 37.1408 63.4844 37.0991 63.6094L35.7397 67.2109H39.4741ZM49.5835 69.6719C49.5835 70.2188 49.4455 70.6797 49.1694 71.0547C48.8986 71.4245 48.508 71.7031 47.9976 71.8906C47.4924 72.0781 46.8882 72.1719 46.1851 72.1719C45.5861 72.1719 45.0679 72.125 44.6304 72.0312C44.1929 71.9375 43.8101 71.8047 43.4819 71.6328V70.4375C43.8309 70.6094 44.2476 70.7656 44.7319 70.9062C45.2163 71.0469 45.7111 71.1172 46.2163 71.1172C46.9559 71.1172 47.4924 70.9974 47.8257 70.7578C48.159 70.5182 48.3257 70.1927 48.3257 69.7812C48.3257 69.5469 48.258 69.3411 48.1226 69.1641C47.9924 68.9818 47.771 68.8073 47.4585 68.6406C47.146 68.4688 46.7137 68.2812 46.1616 68.0781C45.6147 67.8698 45.1408 67.6641 44.7397 67.4609C44.3439 67.2526 44.0366 67 43.8179 66.7031C43.6043 66.4062 43.4976 66.0208 43.4976 65.5469C43.4976 64.8229 43.7892 64.2682 44.3726 63.8828C44.9611 63.4922 45.7319 63.2969 46.6851 63.2969C47.2007 63.2969 47.6825 63.349 48.1304 63.4531C48.5835 63.5521 49.0054 63.6875 49.396 63.8594L48.9585 64.8984C48.6043 64.7474 48.2267 64.6198 47.8257 64.5156C47.4246 64.4115 47.0158 64.3594 46.5991 64.3594C46.0002 64.3594 45.5392 64.4583 45.2163 64.6562C44.8986 64.8542 44.7397 65.125 44.7397 65.4688C44.7397 65.7344 44.8127 65.9531 44.9585 66.125C45.1095 66.2969 45.3491 66.4583 45.6772 66.6094C46.0054 66.7604 46.4377 66.9375 46.9741 67.1406C47.5106 67.3385 47.9741 67.5443 48.3647 67.7578C48.7554 67.9661 49.0549 68.2214 49.2632 68.5234C49.4767 68.8203 49.5835 69.2031 49.5835 69.6719ZM57.2085 69.6719C57.2085 70.2188 57.0705 70.6797 56.7944 71.0547C56.5236 71.4245 56.133 71.7031 55.6226 71.8906C55.1174 72.0781 54.5132 72.1719 53.8101 72.1719C53.2111 72.1719 52.6929 72.125 52.2554 72.0312C51.8179 71.9375 51.4351 71.8047 51.1069 71.6328V70.4375C51.4559 70.6094 51.8726 70.7656 52.3569 70.9062C52.8413 71.0469 53.3361 71.1172 53.8413 71.1172C54.5809 71.1172 55.1174 70.9974 55.4507 70.7578C55.784 70.5182 55.9507 70.1927 55.9507 69.7812C55.9507 69.5469 55.883 69.3411 55.7476 69.1641C55.6174 68.9818 55.396 68.8073 55.0835 68.6406C54.771 68.4688 54.3387 68.2812 53.7866 68.0781C53.2397 67.8698 52.7658 67.6641 52.3647 67.4609C51.9689 67.2526 51.6616 67 51.4429 66.7031C51.2293 66.4062 51.1226 66.0208 51.1226 65.5469C51.1226 64.8229 51.4142 64.2682 51.9976 63.8828C52.5861 63.4922 53.3569 63.2969 54.3101 63.2969C54.8257 63.2969 55.3075 63.349 55.7554 63.4531C56.2085 63.5521 56.6304 63.6875 57.021 63.8594L56.5835 64.8984C56.2293 64.7474 55.8517 64.6198 55.4507 64.5156C55.0496 64.4115 54.6408 64.3594 54.2241 64.3594C53.6252 64.3594 53.1642 64.4583 52.8413 64.6562C52.5236 64.8542 52.3647 65.125 52.3647 65.4688C52.3647 65.7344 52.4377 65.9531 52.5835 66.125C52.7345 66.2969 52.9741 66.4583 53.3022 66.6094C53.6304 66.7604 54.0627 66.9375 54.5991 67.1406C55.1356 67.3385 55.5991 67.5443 55.9897 67.7578C56.3804 67.9661 56.6799 68.2214 56.8882 68.5234C57.1017 68.8203 57.2085 69.2031 57.2085 69.6719ZM62.5913 63.2969C63.3205 63.2969 63.9455 63.4583 64.4663 63.7812C64.9871 64.1042 65.3856 64.5573 65.6616 65.1406C65.9377 65.7188 66.0757 66.3958 66.0757 67.1719V67.9766H60.1616C60.1772 68.9818 60.4272 69.7474 60.9116 70.2734C61.396 70.7995 62.0783 71.0625 62.9585 71.0625C63.5002 71.0625 63.9793 71.013 64.396 70.9141C64.8127 70.8151 65.245 70.6693 65.6929 70.4766V71.6172C65.2606 71.8099 64.8309 71.9505 64.4038 72.0391C63.9819 72.1276 63.4819 72.1719 62.9038 72.1719C62.0809 72.1719 61.3621 72.0052 60.7476 71.6719C60.1382 71.3333 59.6642 70.8385 59.3257 70.1875C58.9871 69.5365 58.8179 68.7396 58.8179 67.7969C58.8179 66.875 58.9715 66.0781 59.2788 65.4062C59.5913 64.7292 60.0288 64.2083 60.5913 63.8438C61.159 63.4792 61.8257 63.2969 62.5913 63.2969ZM62.5757 64.3594C61.883 64.3594 61.3309 64.5859 60.9194 65.0391C60.508 65.4922 60.2632 66.125 60.1851 66.9375H64.7163C64.7111 66.4271 64.6304 65.9792 64.4741 65.5938C64.3231 65.2031 64.0913 64.901 63.7788 64.6875C63.4663 64.4688 63.0653 64.3594 62.5757 64.3594ZM77.5757 63.2969C78.5184 63.2969 79.2293 63.5443 79.7085 64.0391C80.1877 64.5286 80.4272 65.3177 80.4272 66.4062V72.0156H79.146V66.4688C79.146 65.776 78.995 65.2578 78.6929 64.9141C78.396 64.5651 77.9533 64.3906 77.3647 64.3906C76.5366 64.3906 75.9351 64.6302 75.5601 65.1094C75.1851 65.5885 74.9976 66.2943 74.9976 67.2266V72.0156H73.7085V66.4688C73.7085 66.0052 73.6408 65.6198 73.5054 65.3125C73.3752 65.0052 73.1772 64.776 72.9116 64.625C72.6512 64.4688 72.3205 64.3906 71.9194 64.3906C71.3517 64.3906 70.896 64.5078 70.5522 64.7422C70.2085 64.9766 69.9585 65.3255 69.8022 65.7891C69.6512 66.2474 69.5757 66.8125 69.5757 67.4844V72.0156H68.2788V63.4531H69.3257L69.521 64.6641H69.5913C69.7632 64.3672 69.9793 64.1172 70.2397 63.9141C70.5002 63.7109 70.7918 63.5573 71.1147 63.4531C71.4377 63.349 71.7814 63.2969 72.146 63.2969C72.797 63.2969 73.3413 63.4193 73.7788 63.6641C74.2215 63.9036 74.5418 64.2708 74.7397 64.7656H74.8101C75.0913 64.2708 75.4767 63.9036 75.9663 63.6641C76.4559 63.4193 76.9924 63.2969 77.5757 63.2969ZM84.3882 59.8594V62.8984C84.3882 63.2474 84.3778 63.5859 84.3569 63.9141C84.3413 64.2422 84.3283 64.4974 84.3179 64.6797H84.3882C84.6226 64.2943 84.9611 63.9688 85.4038 63.7031C85.8465 63.4375 86.4116 63.3047 87.0991 63.3047C88.172 63.3047 89.0262 63.6771 89.6616 64.4219C90.3022 65.1615 90.6226 66.263 90.6226 67.7266C90.6226 68.6901 90.4767 69.5026 90.1851 70.1641C89.8934 70.8255 89.4819 71.3255 88.9507 71.6641C88.4194 72.0026 87.7918 72.1719 87.0679 72.1719C86.3908 72.1719 85.8335 72.0469 85.396 71.7969C84.9637 71.5417 84.6304 71.2318 84.396 70.8672H84.2944L84.0288 72.0156H83.0913V59.8594H84.3882ZM86.8882 64.3906C86.2684 64.3906 85.7762 64.513 85.4116 64.7578C85.047 64.9974 84.784 65.362 84.6226 65.8516C84.4663 66.3359 84.3882 66.9505 84.3882 67.6953V67.7656C84.3882 68.8438 84.5679 69.6693 84.9272 70.2422C85.2866 70.8099 85.9403 71.0938 86.8882 71.0938C87.6851 71.0938 88.2814 70.8021 88.6772 70.2188C89.0783 69.6354 89.2788 68.8021 89.2788 67.7188C89.2788 66.6146 89.0809 65.7839 88.6851 65.2266C88.2944 64.6693 87.6955 64.3906 86.8882 64.3906ZM94.1929 72.0156H92.8882V59.8594H94.1929V72.0156ZM95.5835 63.4531H96.9741L98.8647 68.4219C98.9741 68.7135 99.0757 68.9948 99.1694 69.2656C99.2632 69.5312 99.3465 69.7865 99.4194 70.0312C99.4924 70.276 99.5496 70.513 99.5913 70.7422H99.646C99.7189 70.4818 99.8231 70.1406 99.9585 69.7188C100.094 69.2917 100.24 68.8568 100.396 68.4141L102.185 63.4531H103.583L99.8569 73.2734C99.659 73.7995 99.4272 74.2578 99.1616 74.6484C98.9012 75.0391 98.5835 75.3385 98.2085 75.5469C97.8335 75.7604 97.3804 75.8672 96.8491 75.8672C96.6043 75.8672 96.3882 75.8516 96.2007 75.8203C96.0132 75.7943 95.8517 75.763 95.7163 75.7266V74.6875C95.8309 74.7135 95.9689 74.737 96.1304 74.7578C96.297 74.7786 96.4689 74.7891 96.646 74.7891C96.9689 74.7891 97.2476 74.7266 97.4819 74.6016C97.7215 74.4818 97.9272 74.3047 98.0991 74.0703C98.271 73.8359 98.4194 73.5573 98.5444 73.2344L99.0132 72.0312L95.5835 63.4531ZM118.373 66.1953C118.373 67.4818 118.138 68.5573 117.669 69.4219C117.201 70.2812 116.521 70.9297 115.63 71.3672C114.745 71.7995 113.669 72.0156 112.404 72.0156H109.302V60.5938H112.748C113.909 60.5938 114.909 60.8073 115.748 61.2344C116.586 61.6562 117.232 62.2839 117.685 63.1172C118.143 63.9453 118.373 64.9714 118.373 66.1953ZM116.974 66.2422C116.974 65.2161 116.802 64.3698 116.458 63.7031C116.12 63.0365 115.62 62.5417 114.958 62.2188C114.302 61.8906 113.498 61.7266 112.544 61.7266H110.63V70.875H112.248C113.82 70.875 115 70.487 115.787 69.7109C116.578 68.9349 116.974 67.7786 116.974 66.2422ZM124.419 72.0156H123.083V61.7656H119.49V60.5938H127.998V61.7656H124.419V72.0156Z" fill="white"/>
<path d="M268.2 40C272.618 40 276.2 43.5817 276.2 48L25.2238 48C25.2238 43.5817 28.8056 40 33.2238 40L268.2 40Z" fill="#FF3D57"/>
<g clip-path="url(#clip0_3545_2407)">
<path opacity="0.18" d="M145 67C145 61.4772 149.477 57 155 57H167C172.523 57 177 61.4772 177 67C177 72.5228 172.523 77 167 77H155C149.477 77 145 72.5228 145 67Z" fill="#FF3D57"/>
<path d="M160.691 65.6152C161.302 65.6152 161.844 65.7314 162.318 65.9639C162.797 66.1963 163.173 66.5381 163.446 66.9893C163.72 67.4404 163.856 67.9964 163.856 68.6572C163.856 69.3773 163.706 69.9993 163.405 70.5234C163.109 71.043 162.665 71.4417 162.072 71.7197C161.484 71.9977 160.751 72.1367 159.871 72.1367C159.347 72.1367 158.853 72.0911 158.388 72C157.927 71.9134 157.524 71.779 157.178 71.5967V69.7715C157.524 69.9538 157.939 70.1087 158.422 70.2363C158.91 70.3594 159.368 70.4209 159.796 70.4209C160.215 70.4209 160.568 70.3662 160.855 70.2568C161.143 70.1429 161.359 69.9697 161.505 69.7373C161.655 69.5003 161.73 69.1995 161.73 68.835C161.73 68.3473 161.566 67.9736 161.238 67.7139C160.91 67.4541 160.407 67.3242 159.728 67.3242C159.468 67.3242 159.197 67.3493 158.914 67.3994C158.636 67.4495 158.404 67.4997 158.217 67.5498L157.376 67.0986L157.752 62.0059H163.173V63.7969H159.605L159.42 65.7588C159.575 65.7269 159.744 65.695 159.926 65.6631C160.108 65.6312 160.363 65.6152 160.691 65.6152Z" fill="#FF3D57"/>
</g>
<path d="M64.345 337.5H66.888C68.0677 337.5 68.9192 337.672 69.4427 338.016C69.97 338.359 70.2337 338.902 70.2337 339.645C70.2337 340.145 70.1048 340.561 69.847 340.893C69.5892 341.225 69.2181 341.434 68.7337 341.52V341.578C69.3353 341.691 69.7767 341.916 70.0579 342.252C70.3431 342.584 70.4856 343.035 70.4856 343.605C70.4856 344.375 70.2161 344.979 69.6771 345.416C69.1419 345.85 68.3958 346.066 67.4388 346.066H64.345V337.5ZM65.7454 341.039H67.0931C67.679 341.039 68.1067 340.947 68.3763 340.764C68.6458 340.576 68.7806 340.26 68.7806 339.814C68.7806 339.412 68.6341 339.121 68.3411 338.941C68.0521 338.762 67.5911 338.672 66.9583 338.672H65.7454V341.039ZM65.7454 342.176V344.889H67.2337C67.8196 344.889 68.261 344.777 68.5579 344.555C68.8587 344.328 69.0091 343.973 69.0091 343.488C69.0091 343.043 68.8567 342.713 68.5521 342.498C68.2474 342.283 67.7845 342.176 67.1634 342.176H65.7454ZM77.9126 346.066H73.0669V337.5H77.9126V338.684H74.4673V341.016H77.6958V342.188H74.4673V344.877H77.9126V346.066ZM85.5095 343.74C85.5095 344.502 85.2341 345.1 84.6833 345.533C84.1325 345.967 83.3728 346.184 82.404 346.184C81.4353 346.184 80.6423 346.033 80.0251 345.732V344.408C80.4157 344.592 80.8298 344.736 81.2673 344.842C81.7087 344.947 82.1189 345 82.4978 345C83.0524 345 83.4606 344.895 83.7224 344.684C83.988 344.473 84.1208 344.189 84.1208 343.834C84.1208 343.514 83.9997 343.242 83.7575 343.02C83.5153 342.797 83.0153 342.533 82.2575 342.229C81.4763 341.912 80.9255 341.551 80.6052 341.145C80.2849 340.738 80.1247 340.25 80.1247 339.68C80.1247 338.965 80.3786 338.402 80.8864 337.992C81.3942 337.582 82.0759 337.377 82.9314 337.377C83.7517 337.377 84.5681 337.557 85.3806 337.916L84.9353 339.059C84.1735 338.738 83.4939 338.578 82.8962 338.578C82.4431 338.578 82.0993 338.678 81.8649 338.877C81.6306 339.072 81.5134 339.332 81.5134 339.656C81.5134 339.879 81.5603 340.07 81.654 340.23C81.7478 340.387 81.9021 340.535 82.1169 340.676C82.3317 340.816 82.7185 341.002 83.2771 341.232C83.906 341.494 84.3669 341.738 84.6599 341.965C84.9528 342.191 85.1677 342.447 85.3044 342.732C85.4411 343.018 85.5095 343.354 85.5095 343.74ZM90.9267 346.066H89.5263V338.701H87.0067V337.5H93.4462V338.701H90.9267V346.066ZM105.154 340.09C105.154 340.984 104.861 341.67 104.275 342.146C103.689 342.623 102.855 342.861 101.773 342.861H100.882V346.066H99.4817V337.5H101.949C103.019 337.5 103.82 337.719 104.351 338.156C104.886 338.594 105.154 339.238 105.154 340.09ZM100.882 341.684H101.626C102.345 341.684 102.872 341.559 103.208 341.309C103.544 341.059 103.712 340.668 103.712 340.137C103.712 339.645 103.562 339.277 103.261 339.035C102.96 338.793 102.492 338.672 101.855 338.672H100.882V341.684ZM109.065 341.484H110.038C110.69 341.484 111.163 341.363 111.456 341.121C111.749 340.879 111.895 340.52 111.895 340.043C111.895 339.559 111.737 339.211 111.42 339C111.104 338.789 110.627 338.684 109.991 338.684H109.065V341.484ZM109.065 342.645V346.066H107.665V337.5H110.084C111.19 337.5 112.008 337.707 112.54 338.121C113.071 338.535 113.336 339.16 113.336 339.996C113.336 341.062 112.782 341.822 111.672 342.275L114.092 346.066H112.499L110.448 342.645H109.065Z" fill="white"/>
<path fill-rule="evenodd" clip-rule="evenodd" d="M50.5208 341.398C50.1817 341.398 49.9964 341.003 50.2136 340.742L52.6929 337.767C52.8528 337.575 53.1475 337.575 53.3075 337.767L55.7868 340.742C56.0039 341.003 55.8186 341.398 55.4795 341.398L50.5208 341.398Z" fill="#00D647"/>
<path fill-rule="evenodd" clip-rule="evenodd" d="M167.479 338.734C167.818 338.734 168.004 339.13 167.786 339.39L165.307 342.366C165.147 342.558 164.852 342.558 164.693 342.366L162.213 339.39C161.996 339.13 162.181 338.734 162.521 338.734H167.479Z" fill="#FF3D57"/>
<path d="M68.4165 368V356.578H69.7446V366.812H74.8149V368H68.4165ZM77.8774 359.438V368H76.5806V359.438H77.8774ZM77.2446 356.234C77.4582 356.234 77.6405 356.305 77.7915 356.445C77.9478 356.581 78.0259 356.794 78.0259 357.086C78.0259 357.372 77.9478 357.586 77.7915 357.727C77.6405 357.867 77.4582 357.938 77.2446 357.938C77.0207 357.938 76.8332 357.867 76.6821 357.727C76.5363 357.586 76.4634 357.372 76.4634 357.086C76.4634 356.794 76.5363 356.581 76.6821 356.445C76.8332 356.305 77.0207 356.234 77.2446 356.234ZM84.6821 359.281C85.6978 359.281 86.466 359.531 86.9868 360.031C87.5076 360.526 87.7681 361.323 87.7681 362.422V368H86.4868V362.508C86.4868 361.794 86.3228 361.26 85.9946 360.906C85.6717 360.552 85.1743 360.375 84.5024 360.375C83.5545 360.375 82.8879 360.643 82.5024 361.18C82.117 361.716 81.9243 362.495 81.9243 363.516V368H80.6274V359.438H81.6743L81.8696 360.672H81.9399C82.1222 360.37 82.354 360.117 82.6353 359.914C82.9165 359.706 83.2316 359.549 83.5806 359.445C83.9295 359.336 84.2967 359.281 84.6821 359.281ZM93.7368 359.281C94.466 359.281 95.091 359.443 95.6118 359.766C96.1326 360.089 96.5311 360.542 96.8071 361.125C97.0832 361.703 97.2212 362.38 97.2212 363.156V363.961H91.3071C91.3228 364.966 91.5728 365.732 92.0571 366.258C92.5415 366.784 93.2238 367.047 94.104 367.047C94.6457 367.047 95.1248 366.997 95.5415 366.898C95.9582 366.799 96.3905 366.654 96.8384 366.461V367.602C96.4061 367.794 95.9764 367.935 95.5493 368.023C95.1274 368.112 94.6274 368.156 94.0493 368.156C93.2264 368.156 92.5076 367.99 91.8931 367.656C91.2837 367.318 90.8097 366.823 90.4712 366.172C90.1326 365.521 89.9634 364.724 89.9634 363.781C89.9634 362.859 90.117 362.062 90.4243 361.391C90.7368 360.714 91.1743 360.193 91.7368 359.828C92.3045 359.464 92.9712 359.281 93.7368 359.281ZM93.7212 360.344C93.0285 360.344 92.4764 360.57 92.0649 361.023C91.6535 361.477 91.4087 362.109 91.3306 362.922H95.8618C95.8566 362.411 95.7759 361.964 95.6196 361.578C95.4686 361.188 95.2368 360.885 94.9243 360.672C94.6118 360.453 94.2108 360.344 93.7212 360.344ZM107.831 368H106.565V359.906C106.565 359.599 106.565 359.336 106.565 359.117C106.57 358.893 106.575 358.69 106.581 358.508C106.591 358.32 106.604 358.13 106.62 357.938C106.458 358.104 106.307 358.247 106.167 358.367C106.026 358.482 105.851 358.625 105.643 358.797L104.338 359.844L103.659 358.961L106.752 356.578H107.831V368Z" fill="white"/>
<path d="M180.812 346.066H179.288L177.835 340.957C177.773 340.734 177.695 340.414 177.601 339.996C177.507 339.574 177.45 339.281 177.431 339.117C177.392 339.367 177.327 339.691 177.237 340.09C177.152 340.488 177.079 340.785 177.021 340.98L175.603 346.066H174.079L172.972 341.777L171.847 337.5H173.277L174.501 342.492C174.693 343.293 174.829 344 174.911 344.613C174.954 344.281 175.019 343.91 175.105 343.5C175.191 343.09 175.269 342.758 175.339 342.504L176.734 337.5H178.122L179.552 342.527C179.689 342.992 179.833 343.688 179.986 344.613C180.044 344.055 180.185 343.344 180.407 342.48L181.626 337.5H183.044L180.812 346.066ZM192.668 341.771C192.668 343.166 192.319 344.25 191.62 345.023C190.924 345.797 189.938 346.184 188.661 346.184C187.368 346.184 186.373 345.801 185.678 345.035C184.987 344.266 184.641 343.174 184.641 341.76C184.641 340.346 184.989 339.26 185.684 338.502C186.383 337.744 187.379 337.365 188.672 337.365C189.946 337.365 190.93 337.75 191.625 338.52C192.321 339.289 192.668 340.373 192.668 341.771ZM186.129 341.771C186.129 342.826 186.342 343.627 186.768 344.174C187.194 344.717 187.825 344.988 188.661 344.988C189.493 344.988 190.12 344.719 190.541 344.18C190.967 343.641 191.18 342.838 191.18 341.771C191.18 340.721 190.969 339.924 190.547 339.381C190.129 338.838 189.504 338.566 188.672 338.566C187.832 338.566 187.198 338.838 186.768 339.381C186.342 339.924 186.129 340.721 186.129 341.771ZM196.709 341.484H197.681C198.334 341.484 198.806 341.363 199.099 341.121C199.392 340.879 199.539 340.52 199.539 340.043C199.539 339.559 199.38 339.211 199.064 339C198.748 338.789 198.271 338.684 197.634 338.684H196.709V341.484ZM196.709 342.645V346.066H195.308V337.5H197.728C198.834 337.5 199.652 337.707 200.183 338.121C200.714 338.535 200.98 339.16 200.98 339.996C200.98 341.062 200.425 341.822 199.316 342.275L201.736 346.066H200.142L198.091 342.645H196.709ZM208.723 343.74C208.723 344.502 208.448 345.1 207.897 345.533C207.346 345.967 206.587 346.184 205.618 346.184C204.649 346.184 203.856 346.033 203.239 345.732V344.408C203.63 344.592 204.044 344.736 204.481 344.842C204.923 344.947 205.333 345 205.712 345C206.266 345 206.675 344.895 206.936 344.684C207.202 344.473 207.335 344.189 207.335 343.834C207.335 343.514 207.214 343.242 206.971 343.02C206.729 342.797 206.229 342.533 205.471 342.229C204.69 341.912 204.139 341.551 203.819 341.145C203.499 340.738 203.339 340.25 203.339 339.68C203.339 338.965 203.593 338.402 204.1 337.992C204.608 337.582 205.29 337.377 206.145 337.377C206.966 337.377 207.782 337.557 208.595 337.916L208.149 339.059C207.387 338.738 206.708 338.578 206.11 338.578C205.657 338.578 205.313 338.678 205.079 338.877C204.845 339.072 204.727 339.332 204.727 339.656C204.727 339.879 204.774 340.07 204.868 340.23C204.962 340.387 205.116 340.535 205.331 340.676C205.546 340.816 205.932 341.002 206.491 341.232C207.12 341.494 207.581 341.738 207.874 341.965C208.167 342.191 208.382 342.447 208.518 342.732C208.655 343.018 208.723 343.354 208.723 343.74ZM214.141 346.066H212.74V338.701H210.221V337.5H216.66V338.701H214.141V346.066ZM228.368 340.09C228.368 340.984 228.075 341.67 227.489 342.146C226.903 342.623 226.069 342.861 224.987 342.861H224.096V346.066H222.696V337.5H225.162C226.233 337.5 227.034 337.719 227.565 338.156C228.1 338.594 228.368 339.238 228.368 340.09ZM224.096 341.684H224.84C225.559 341.684 226.086 341.559 226.422 341.309C226.758 341.059 226.926 340.668 226.926 340.137C226.926 339.645 226.776 339.277 226.475 339.035C226.174 338.793 225.705 338.672 225.069 338.672H224.096V341.684ZM232.279 341.484H233.252C233.904 341.484 234.377 341.363 234.67 341.121C234.962 340.879 235.109 340.52 235.109 340.043C235.109 339.559 234.951 339.211 234.634 339C234.318 338.789 233.841 338.684 233.205 338.684H232.279V341.484ZM232.279 342.645V346.066H230.879V337.5H233.298C234.404 337.5 235.222 337.707 235.754 338.121C236.285 338.535 236.55 339.16 236.55 339.996C236.55 341.062 235.996 341.822 234.886 342.275L237.306 346.066H235.712L233.662 342.645H232.279Z" fill="white"/>
<path d="M184.305 368V356.578H185.633V366.812H190.703V368H184.305ZM193.766 359.438V368H192.469V359.438H193.766ZM193.133 356.234C193.346 356.234 193.529 356.305 193.68 356.445C193.836 356.581 193.914 356.794 193.914 357.086C193.914 357.372 193.836 357.586 193.68 357.727C193.529 357.867 193.346 357.938 193.133 357.938C192.909 357.938 192.721 357.867 192.57 357.727C192.424 357.586 192.352 357.372 192.352 357.086C192.352 356.794 192.424 356.581 192.57 356.445C192.721 356.305 192.909 356.234 193.133 356.234ZM200.57 359.281C201.586 359.281 202.354 359.531 202.875 360.031C203.396 360.526 203.656 361.323 203.656 362.422V368H202.375V362.508C202.375 361.794 202.211 361.26 201.883 360.906C201.56 360.552 201.062 360.375 200.391 360.375C199.443 360.375 198.776 360.643 198.391 361.18C198.005 361.716 197.812 362.495 197.812 363.516V368H196.516V359.438H197.562L197.758 360.672H197.828C198.01 360.37 198.242 360.117 198.523 359.914C198.805 359.706 199.12 359.549 199.469 359.445C199.818 359.336 200.185 359.281 200.57 359.281ZM209.625 359.281C210.354 359.281 210.979 359.443 211.5 359.766C212.021 360.089 212.419 360.542 212.695 361.125C212.971 361.703 213.109 362.38 213.109 363.156V363.961H207.195C207.211 364.966 207.461 365.732 207.945 366.258C208.43 366.784 209.112 367.047 209.992 367.047C210.534 367.047 211.013 366.997 211.43 366.898C211.846 366.799 212.279 366.654 212.727 366.461V367.602C212.294 367.794 211.865 367.935 211.438 368.023C211.016 368.112 210.516 368.156 209.938 368.156C209.115 368.156 208.396 367.99 207.781 367.656C207.172 367.318 206.698 366.823 206.359 366.172C206.021 365.521 205.852 364.724 205.852 363.781C205.852 362.859 206.005 362.062 206.312 361.391C206.625 360.714 207.062 360.193 207.625 359.828C208.193 359.464 208.859 359.281 209.625 359.281ZM209.609 360.344C208.917 360.344 208.365 360.57 207.953 361.023C207.542 361.477 207.297 362.109 207.219 362.922H211.75C211.745 362.411 211.664 361.964 211.508 361.578C211.357 361.188 211.125 360.885 210.812 360.672C210.5 360.453 210.099 360.344 209.609 360.344ZM223.719 368H222.453V359.906C222.453 359.599 222.453 359.336 222.453 359.117C222.458 358.893 222.464 358.69 222.469 358.508C222.479 358.32 222.492 358.13 222.508 357.938C222.346 358.104 222.195 358.247 222.055 358.367C221.914 358.482 221.74 358.625 221.531 358.797L220.227 359.844L219.547 358.961L222.641 356.578H223.719V368Z" fill="white"/>
<defs>
<filter id="filter0_d_3545_2407" x="0" y="35" width="301.2" height="410" filterUnits="userSpaceOnUse" color-interpolation-filters="sRGB">
<feFlood flood-opacity="0" result="BackgroundImageFix"/>
<feColorMatrix in="SourceAlpha" type="matrix" values="0 0 0 0 0 0 0 0 0 0 0 0 0 0 0 0 0 0 127 0" result="hardAlpha"/>
<feOffset dy="20"/>
<feGaussianBlur stdDeviation="12.5"/>
<feColorMatrix type="matrix" values="0 0 0 0 0 0 0 0 0 0 0 0 0 0 0 0 0 0 1 0"/>
<feBlend mode="normal" in2="BackgroundImageFix" result="effect1_dropShadow_3545_2407"/>
<feBlend mode="normal" in="SourceGraphic" in2="effect1_dropShadow_3545_2407" result="shape"/>
</filter>
<filter id="filter1_d_3545_2407" x="33.2236" y="96" width="24" height="24" filterUnits="userSpaceOnUse" color-interpolation-filters="sRGB">
<feFlood flood-opacity="0" result="BackgroundImageFix"/>
<feColorMatrix in="SourceAlpha" type="matrix" values="0 0 0 0 0 0 0 0 0 0 0 0 0 0 0 0 0 0 127 0" result="hardAlpha"/>
<feOffset/>
<feGaussianBlur stdDeviation="4"/>
<feColorMatrix type="matrix" values="0 0 0 0 1 0 0 0 0 0.239216 0 0 0 0 0.341176 0 0 0 0.9 0"/>
<feBlend mode="normal" in2="BackgroundImageFix" result="effect1_dropShadow_3545_2407"/>
<feBlend mode="normal" in="SourceGraphic" in2="effect1_dropShadow_3545_2407" result="shape"/>
</filter>
<filter id="filter2_d_3545_2407" x="33.2236" y="160" width="24" height="24" filterUnits="userSpaceOnUse" color-interpolation-filters="sRGB">
<feFlood flood-opacity="0" result="BackgroundImageFix"/>
<feColorMatrix in="SourceAlpha" type="matrix" values="0 0 0 0 0 0 0 0 0 0 0 0 0 0 0 0 0 0 127 0" result="hardAlpha"/>
<feOffset/>
<feGaussianBlur stdDeviation="4"/>
<feColorMatrix type="matrix" values="0 0 0 0 1 0 0 0 0 0.239216 0 0 0 0 0.341176 0 0 0 0.9 0"/>
<feBlend mode="normal" in2="BackgroundImageFix" result="effect1_dropShadow_3545_2407"/>
<feBlend mode="normal" in="SourceGraphic" in2="effect1_dropShadow_3545_2407" result="shape"/>
</filter>
<filter id="filter3_d_3545_2407" x="33.2236" y="192" width="24" height="24" filterUnits="userSpaceOnUse" color-interpolation-filters="sRGB">
<feFlood flood-opacity="0" result="BackgroundImageFix"/>
<feColorMatrix in="SourceAlpha" type="matrix" values="0 0 0 0 0 0 0 0 0 0 0 0 0 0 0 0 0 0 127 0" result="hardAlpha"/>
<feOffset/>
<feGaussianBlur stdDeviation="4"/>
<feColorMatrix type="matrix" values="0 0 0 0 1 0 0 0 0 0.239216 0 0 0 0 0.341176 0 0 0 0.9 0"/>
<feBlend mode="normal" in2="BackgroundImageFix" result="effect1_dropShadow_3545_2407"/>
<feBlend mode="normal" in="SourceGraphic" in2="effect1_dropShadow_3545_2407" result="shape"/>
</filter>
<filter id="filter4_d_3545_2407" x="33.2236" y="224" width="24" height="24" filterUnits="userSpaceOnUse" color-interpolation-filters="sRGB">
<feFlood flood-opacity="0" result="BackgroundImageFix"/>
<feColorMatrix in="SourceAlpha" type="matrix" values="0 0 0 0 0 0 0 0 0 0 0 0 0 0 0 0 0 0 127 0" result="hardAlpha"/>
<feOffset/>
<feGaussianBlur stdDeviation="4"/>
<feColorMatrix type="matrix" values="0 0 0 0 1 0 0 0 0 0.239216 0 0 0 0 0.341176 0 0 0 0.9 0"/>
<feBlend mode="normal" in2="BackgroundImageFix" result="effect1_dropShadow_3545_2407"/>
<feBlend mode="normal" in="SourceGraphic" in2="effect1_dropShadow_3545_2407" result="shape"/>
</filter>
<filter id="filter5_d_3545_2407" x="33.2236" y="256" width="24" height="24" filterUnits="userSpaceOnUse" color-interpolation-filters="sRGB">
<feFlood flood-opacity="0" result="BackgroundImageFix"/>
<feColorMatrix in="SourceAlpha" type="matrix" values="0 0 0 0 0 0 0 0 0 0 0 0 0 0 0 0 0 0 127 0" result="hardAlpha"/>
<feOffset/>
<feGaussianBlur stdDeviation="4"/>
<feColorMatrix type="matrix" values="0 0 0 0 1 0 0 0 0 0.239216 0 0 0 0 0.341176 0 0 0 0.9 0"/>
<feBlend mode="normal" in2="BackgroundImageFix" result="effect1_dropShadow_3545_2407"/>
<feBlend mode="normal" in="SourceGraphic" in2="effect1_dropShadow_3545_2407" result="shape"/>
</filter>
<clipPath id="clip0_3545_2407">
<rect width="32" height="20" fill="white" transform="translate(145 57)"/>
</clipPath>
</defs>
</svg>
