<svg width="46" height="11" viewBox="0 0 46 11" fill="none" xmlns="http://www.w3.org/2000/svg">
<path d="M5.17334 2.18799C4.3016 2.18799 3.61605 2.49691 3.1167 3.11475C2.61735 3.73258 2.36768 4.58529 2.36768 5.67285C2.36768 6.8112 2.60677 7.67236 3.08496 8.25635C3.56738 8.84033 4.26351 9.13232 5.17334 9.13232C5.56689 9.13232 5.94775 9.09424 6.31592 9.01807C6.68408 8.93766 7.06706 8.8361 7.46484 8.71338V10.0146C6.73698 10.2897 5.91178 10.4272 4.98926 10.4272C3.63086 10.4272 2.58773 10.0168 1.85986 9.1958C1.132 8.37061 0.768066 7.19206 0.768066 5.66016C0.768066 4.69531 0.943685 3.85107 1.29492 3.12744C1.65039 2.40381 2.16243 1.84945 2.83105 1.46436C3.49967 1.07926 4.28467 0.886719 5.18604 0.886719C6.13395 0.886719 7.00993 1.08561 7.81396 1.4834L7.26807 2.74658C6.95492 2.59847 6.62272 2.4694 6.27148 2.35938C5.92448 2.24512 5.55843 2.18799 5.17334 2.18799Z" fill="#A4A8B9"/>
<path d="M16.2217 10.3003L15.2949 7.72314H11.7466L10.8389 10.3003H9.23926L12.7114 0.981934H14.3618L17.834 10.3003H16.2217ZM14.895 6.41553L14.0254 3.88916C13.9619 3.71989 13.873 3.45329 13.7588 3.08936C13.6488 2.72542 13.5726 2.45882 13.5303 2.28955C13.416 2.81006 13.2489 3.37923 13.0288 3.99707L12.1909 6.41553H14.895Z" fill="#A4A8B9"/>
<path d="M21.5762 5.33643H22.6299C23.3366 5.33643 23.8486 5.20524 24.166 4.94287C24.4834 4.6805 24.6421 4.29118 24.6421 3.7749C24.6421 3.25016 24.4707 2.87354 24.1279 2.64502C23.7852 2.4165 23.2689 2.30225 22.5791 2.30225H21.5762V5.33643ZM21.5762 6.59326V10.3003H20.0591V1.02002H22.6807C23.8783 1.02002 24.7648 1.2443 25.3403 1.69287C25.9159 2.14144 26.2036 2.81852 26.2036 3.72412C26.2036 4.87939 25.6027 5.70247 24.4009 6.19336L27.0225 10.3003H25.2959L23.0742 6.59326H21.5762Z" fill="#A4A8B9"/>
<path d="M36.9219 5.57129C36.9219 7.10319 36.4966 8.27539 35.646 9.08789C34.7954 9.89616 33.5703 10.3003 31.9707 10.3003H29.3745V1.02002H32.2437C33.7205 1.02002 34.8695 1.41781 35.6904 2.21338C36.5114 3.00895 36.9219 4.12826 36.9219 5.57129ZM35.3223 5.62207C35.3223 3.40039 34.2834 2.28955 32.2056 2.28955H30.8916V9.02441H31.9707C34.2051 9.02441 35.3223 7.8903 35.3223 5.62207Z" fill="#A4A8B9"/>
<path d="M45.2725 7.78027C45.2725 8.60547 44.9741 9.25293 44.3774 9.72266C43.7808 10.1924 42.9577 10.4272 41.9082 10.4272C40.8587 10.4272 39.9997 10.2643 39.3311 9.93848V8.50391C39.7542 8.7028 40.2028 8.85938 40.6768 8.97363C41.1549 9.08789 41.5993 9.14502 42.0098 9.14502C42.6107 9.14502 43.0529 9.03076 43.3364 8.80225C43.6242 8.57373 43.7681 8.26693 43.7681 7.88184C43.7681 7.53483 43.6369 7.24072 43.3745 6.99951C43.1121 6.7583 42.5705 6.47266 41.7495 6.14258C40.9032 5.7998 40.3065 5.40837 39.9595 4.96826C39.6125 4.52816 39.439 3.99919 39.439 3.38135C39.439 2.60693 39.714 1.99756 40.2642 1.55322C40.8143 1.10889 41.5527 0.886719 42.4795 0.886719C43.3682 0.886719 44.2526 1.08138 45.1328 1.4707L44.6504 2.7085C43.8252 2.36149 43.0889 2.18799 42.4414 2.18799C41.9505 2.18799 41.5781 2.2959 41.3242 2.51172C41.0703 2.72331 40.9434 3.00472 40.9434 3.35596C40.9434 3.59717 40.9941 3.80452 41.0957 3.97803C41.1973 4.1473 41.3644 4.30811 41.5972 4.46045C41.8299 4.61279 42.2489 4.8138 42.854 5.06348C43.5353 5.34701 44.0347 5.61149 44.3521 5.85693C44.6694 6.10238 44.9022 6.37956 45.0503 6.68848C45.1984 6.9974 45.2725 7.36133 45.2725 7.78027Z" fill="#A4A8B9"/>
</svg>
