<svg width="256" height="71" viewBox="0 0 256 71" fill="none" xmlns="http://www.w3.org/2000/svg">
<path d="M15.2695 2.96484C13.694 2.96484 12.2747 3.23828 11.0117 3.78516C9.76172 4.31901 8.69401 5.10026 7.80859 6.12891C6.9362 7.14453 6.26562 8.375 5.79688 9.82031C5.32812 11.2656 5.09375 12.8932 5.09375 14.7031C5.09375 17.099 5.46484 19.1823 6.20703 20.9531C6.96224 22.7109 8.08203 24.0716 9.56641 25.0352C11.0638 25.9987 12.9323 26.4805 15.1719 26.4805C16.4479 26.4805 17.6458 26.3763 18.7656 26.168C19.8984 25.9466 20.9987 25.6732 22.0664 25.3477V28.2383C21.0247 28.6289 19.931 28.9154 18.7852 29.0977C17.6393 29.293 16.2786 29.3906 14.7031 29.3906C11.7995 29.3906 9.37109 28.7917 7.41797 27.5938C5.47786 26.3828 4.01953 24.6771 3.04297 22.4766C2.07943 20.276 1.59766 17.6784 1.59766 14.6836C1.59766 12.5221 1.89714 10.5495 2.49609 8.76562C3.10807 6.96875 3.99349 5.41927 5.15234 4.11719C6.32422 2.8151 7.75651 1.8125 9.44922 1.10938C11.1549 0.393229 13.1081 0.0351562 15.3086 0.0351562C16.7539 0.0351562 18.1471 0.178385 19.4883 0.464844C20.8294 0.751302 22.0404 1.16146 23.1211 1.69531L21.793 4.50781C20.8815 4.09115 19.8789 3.73307 18.7852 3.43359C17.7044 3.12109 16.5326 2.96484 15.2695 2.96484Z" fill="white"/>
<path d="M46.2266 18.2578C46.2266 20.0156 45.9987 21.5846 45.543 22.9648C45.0872 24.3451 44.4297 25.5104 43.5703 26.4609C42.7109 27.4115 41.6693 28.1406 40.4453 28.6484C39.2344 29.1432 37.8607 29.3906 36.3242 29.3906C34.8919 29.3906 33.5768 29.1432 32.3789 28.6484C31.194 28.1406 30.1654 27.4115 29.293 26.4609C28.4336 25.5104 27.763 24.3451 27.2812 22.9648C26.8125 21.5846 26.5781 20.0156 26.5781 18.2578C26.5781 15.9141 26.9753 13.9219 27.7695 12.2812C28.5638 10.6276 29.6966 9.37109 31.168 8.51172C32.6523 7.63932 34.4167 7.20312 36.4609 7.20312C38.4141 7.20312 40.1198 7.63932 41.5781 8.51172C43.0495 9.38411 44.1888 10.6471 44.9961 12.3008C45.8164 13.9414 46.2266 15.9271 46.2266 18.2578ZM29.9375 18.2578C29.9375 19.9766 30.1654 21.4674 30.6211 22.7305C31.0768 23.9935 31.7799 24.9701 32.7305 25.6602C33.681 26.3503 34.9049 26.6953 36.4023 26.6953C37.8867 26.6953 39.1042 26.3503 40.0547 25.6602C41.0182 24.9701 41.7279 23.9935 42.1836 22.7305C42.6393 21.4674 42.8672 19.9766 42.8672 18.2578C42.8672 16.5521 42.6393 15.0807 42.1836 13.8438C41.7279 12.5938 41.0247 11.6302 40.0742 10.9531C39.1237 10.276 37.8932 9.9375 36.3828 9.9375C34.1562 9.9375 32.5221 10.6732 31.4805 12.1445C30.4518 13.6159 29.9375 15.6536 29.9375 18.2578Z" fill="white"/>
<path d="M75.0742 7.20312C77.431 7.20312 79.2083 7.82161 80.4062 9.05859C81.6042 10.2826 82.2031 12.2552 82.2031 14.9766V29H79V15.1328C79 13.401 78.6224 12.1055 77.8672 11.2461C77.125 10.3737 76.0182 9.9375 74.5469 9.9375C72.4766 9.9375 70.9727 10.5365 70.0352 11.7344C69.0977 12.9323 68.6289 14.6966 68.6289 17.0273V29H65.4062V15.1328C65.4062 13.974 65.237 13.0104 64.8984 12.2422C64.5729 11.474 64.0781 10.901 63.4141 10.5234C62.763 10.1328 61.9362 9.9375 60.9336 9.9375C59.5143 9.9375 58.375 10.2305 57.5156 10.8164C56.6562 11.4023 56.0312 12.2747 55.6406 13.4336C55.263 14.5794 55.0742 15.9922 55.0742 17.6719V29H51.832V7.59375H54.4492L54.9375 10.6211H55.1133C55.543 9.87891 56.0833 9.25391 56.7344 8.74609C57.3854 8.23828 58.1146 7.85417 58.9219 7.59375C59.7292 7.33333 60.5885 7.20312 61.5 7.20312C63.1276 7.20312 64.4883 7.50911 65.582 8.12109C66.6888 8.72005 67.4896 9.63802 67.9844 10.875H68.1602C68.8633 9.63802 69.8268 8.72005 71.0508 8.12109C72.2747 7.50911 73.6159 7.20312 75.0742 7.20312Z" fill="white"/>
<path d="M98.9219 7.20312C101.591 7.20312 103.72 8.12109 105.309 9.95703C106.897 11.793 107.691 14.5534 107.691 18.2383C107.691 20.6732 107.327 22.7174 106.598 24.3711C105.868 26.0247 104.84 27.2747 103.512 28.1211C102.197 28.9674 100.641 29.3906 98.8438 29.3906C97.7109 29.3906 96.7148 29.2409 95.8555 28.9414C94.9961 28.6419 94.2604 28.2383 93.6484 27.7305C93.0365 27.2227 92.5286 26.6693 92.125 26.0703H91.8906C91.9297 26.5781 91.9753 27.1901 92.0273 27.9062C92.0924 28.6224 92.125 29.2474 92.125 29.7812V38.5703H88.8633V7.59375H91.5391L91.9688 10.7578H92.125C92.5417 10.1068 93.0495 9.51432 93.6484 8.98047C94.2474 8.43359 94.9766 8.00391 95.8359 7.69141C96.7083 7.36589 97.737 7.20312 98.9219 7.20312ZM98.3555 9.9375C96.8711 9.9375 95.6732 10.224 94.7617 10.7969C93.8633 11.3698 93.2057 12.2292 92.7891 13.375C92.3724 14.5078 92.151 15.9336 92.125 17.6523V18.2773C92.125 20.0872 92.3203 21.6172 92.7109 22.8672C93.1146 24.1172 93.7721 25.0677 94.6836 25.7188C95.6081 26.3698 96.8451 26.6953 98.3945 26.6953C99.7227 26.6953 100.829 26.3372 101.715 25.6211C102.6 24.9049 103.258 23.9089 103.688 22.6328C104.13 21.3438 104.352 19.8659 104.352 18.1992C104.352 15.6732 103.857 13.668 102.867 12.1836C101.891 10.6862 100.387 9.9375 98.3555 9.9375Z" fill="white"/>
<path d="M131.812 18.2578C131.812 20.0156 131.585 21.5846 131.129 22.9648C130.673 24.3451 130.016 25.5104 129.156 26.4609C128.297 27.4115 127.255 28.1406 126.031 28.6484C124.82 29.1432 123.447 29.3906 121.91 29.3906C120.478 29.3906 119.163 29.1432 117.965 28.6484C116.78 28.1406 115.751 27.4115 114.879 26.4609C114.02 25.5104 113.349 24.3451 112.867 22.9648C112.398 21.5846 112.164 20.0156 112.164 18.2578C112.164 15.9141 112.561 13.9219 113.355 12.2812C114.15 10.6276 115.283 9.37109 116.754 8.51172C118.238 7.63932 120.003 7.20312 122.047 7.20312C124 7.20312 125.706 7.63932 127.164 8.51172C128.635 9.38411 129.775 10.6471 130.582 12.3008C131.402 13.9414 131.812 15.9271 131.812 18.2578ZM115.523 18.2578C115.523 19.9766 115.751 21.4674 116.207 22.7305C116.663 23.9935 117.366 24.9701 118.316 25.6602C119.267 26.3503 120.491 26.6953 121.988 26.6953C123.473 26.6953 124.69 26.3503 125.641 25.6602C126.604 24.9701 127.314 23.9935 127.77 22.7305C128.225 21.4674 128.453 19.9766 128.453 18.2578C128.453 16.5521 128.225 15.0807 127.77 13.8438C127.314 12.5938 126.611 11.6302 125.66 10.9531C124.71 10.276 123.479 9.9375 121.969 9.9375C119.742 9.9375 118.108 10.6732 117.066 12.1445C116.038 13.6159 115.523 15.6536 115.523 18.2578Z" fill="white"/>
<path d="M147.555 7.20312C150.094 7.20312 152.014 7.82812 153.316 9.07812C154.618 10.3151 155.27 12.3073 155.27 15.0547V29H152.066V15.2695C152.066 13.4857 151.656 12.151 150.836 11.2656C150.029 10.3802 148.785 9.9375 147.105 9.9375C144.736 9.9375 143.069 10.6081 142.105 11.9492C141.142 13.2904 140.66 15.237 140.66 17.7891V29H137.418V7.59375H140.035L140.523 10.6797H140.699C141.155 9.92448 141.734 9.29297 142.438 8.78516C143.141 8.26432 143.928 7.8737 144.801 7.61328C145.673 7.33984 146.591 7.20312 147.555 7.20312Z" fill="white"/>
<path d="M170.191 7.20312C172.014 7.20312 173.577 7.60677 174.879 8.41406C176.181 9.22135 177.177 10.3542 177.867 11.8125C178.557 13.2578 178.902 14.9505 178.902 16.8906V18.9023H164.117C164.156 21.4154 164.781 23.3294 165.992 24.6445C167.203 25.9596 168.909 26.6172 171.109 26.6172C172.464 26.6172 173.661 26.4935 174.703 26.2461C175.745 25.9987 176.826 25.6341 177.945 25.1523V28.0039C176.865 28.4857 175.79 28.8372 174.723 29.0586C173.668 29.2799 172.418 29.3906 170.973 29.3906C168.915 29.3906 167.118 28.974 165.582 28.1406C164.059 27.2943 162.874 26.0573 162.027 24.4297C161.181 22.8021 160.758 20.8099 160.758 18.4531C160.758 16.1484 161.142 14.1562 161.91 12.4766C162.691 10.7839 163.785 9.48177 165.191 8.57031C166.611 7.65885 168.277 7.20312 170.191 7.20312ZM170.152 9.85938C168.421 9.85938 167.04 10.4258 166.012 11.5586C164.983 12.6914 164.371 14.2734 164.176 16.3047H175.504C175.491 15.0286 175.289 13.9089 174.898 12.9453C174.521 11.9688 173.941 11.2135 173.16 10.6797C172.379 10.1328 171.376 9.85938 170.152 9.85938Z" fill="white"/>
<path d="M194.547 7.20312C197.086 7.20312 199.007 7.82812 200.309 9.07812C201.611 10.3151 202.262 12.3073 202.262 15.0547V29H199.059V15.2695C199.059 13.4857 198.648 12.151 197.828 11.2656C197.021 10.3802 195.777 9.9375 194.098 9.9375C191.728 9.9375 190.061 10.6081 189.098 11.9492C188.134 13.2904 187.652 15.237 187.652 17.7891V29H184.41V7.59375H187.027L187.516 10.6797H187.691C188.147 9.92448 188.727 9.29297 189.43 8.78516C190.133 8.26432 190.921 7.8737 191.793 7.61328C192.665 7.33984 193.583 7.20312 194.547 7.20312Z" fill="white"/>
<path d="M215.855 26.7344C216.389 26.7344 216.936 26.6888 217.496 26.5977C218.056 26.5065 218.512 26.3958 218.863 26.2656V28.7852C218.486 28.9544 217.958 29.0977 217.281 29.2148C216.617 29.332 215.966 29.3906 215.328 29.3906C214.195 29.3906 213.167 29.1953 212.242 28.8047C211.318 28.401 210.576 27.724 210.016 26.7734C209.469 25.8229 209.195 24.5078 209.195 22.8281V10.1328H206.148V8.55078L209.215 7.28125L210.504 2.63281H212.457V7.59375H218.727V10.1328H212.457V22.7305C212.457 24.0716 212.763 25.0742 213.375 25.7383C214 26.4023 214.827 26.7344 215.855 26.7344Z" fill="white"/>
<path d="M237.047 23.1406C237.047 24.5078 236.702 25.6602 236.012 26.5977C235.335 27.5221 234.358 28.2188 233.082 28.6875C231.819 29.1562 230.309 29.3906 228.551 29.3906C227.053 29.3906 225.758 29.2734 224.664 29.0391C223.57 28.8047 222.613 28.4727 221.793 28.043V25.0547C222.665 25.4844 223.707 25.875 224.918 26.2266C226.129 26.5781 227.366 26.7539 228.629 26.7539C230.478 26.7539 231.819 26.4544 232.652 25.8555C233.486 25.2565 233.902 24.4427 233.902 23.4141C233.902 22.8281 233.733 22.3138 233.395 21.8711C233.069 21.4154 232.516 20.9792 231.734 20.5625C230.953 20.1328 229.872 19.6641 228.492 19.1562C227.125 18.6354 225.94 18.1211 224.938 17.6133C223.948 17.0924 223.18 16.4609 222.633 15.7188C222.099 14.9766 221.832 14.013 221.832 12.8281C221.832 11.0182 222.561 9.63151 224.02 8.66797C225.491 7.69141 227.418 7.20312 229.801 7.20312C231.09 7.20312 232.294 7.33333 233.414 7.59375C234.547 7.84115 235.602 8.17969 236.578 8.60938L235.484 11.207C234.599 10.8294 233.655 10.5104 232.652 10.25C231.65 9.98958 230.628 9.85938 229.586 9.85938C228.089 9.85938 226.936 10.1068 226.129 10.6016C225.335 11.0964 224.938 11.7734 224.938 12.6328C224.938 13.2969 225.12 13.8438 225.484 14.2734C225.862 14.7031 226.461 15.1068 227.281 15.4844C228.102 15.862 229.182 16.3047 230.523 16.8125C231.865 17.3073 233.023 17.8216 234 18.3555C234.977 18.8763 235.725 19.5143 236.246 20.2695C236.78 21.0117 237.047 21.9688 237.047 23.1406Z" fill="white"/>
<path d="M0.447266 66V51.7227H1.45312V66H0.447266Z" fill="#A4A8B9"/>
<path d="M10.4102 55.1797C11.6016 55.1797 12.5163 55.4922 13.1543 56.1172C13.7923 56.7422 14.1113 57.722 14.1113 59.0566V66H13.1348V59.1152C13.1348 58.0605 12.8939 57.2858 12.4121 56.791C11.9303 56.2962 11.2305 56.0488 10.3125 56.0488C9.14714 56.0488 8.25521 56.3906 7.63672 57.0742C7.02474 57.7513 6.71875 58.7767 6.71875 60.1504V66H5.73242V55.3848H6.5332L6.67969 57.3184H6.73828C6.92708 56.9212 7.18424 56.5632 7.50977 56.2441C7.8418 55.9186 8.2487 55.6615 8.73047 55.4727C9.21224 55.2773 9.77214 55.1797 10.4102 55.1797Z" fill="#A4A8B9"/>
<path d="M20.9199 65.3457C21.2259 65.3457 21.5091 65.3229 21.7695 65.2773C22.0365 65.2318 22.2708 65.1732 22.4727 65.1016V65.9219C22.2643 65.9935 22.0202 66.0553 21.7402 66.1074C21.4603 66.166 21.151 66.1953 20.8125 66.1953C20.2135 66.1953 19.7155 66.0846 19.3184 65.8633C18.9212 65.6354 18.6217 65.2936 18.4199 64.8379C18.2181 64.3757 18.1172 63.7897 18.1172 63.0801V56.2051H16.5352V55.6191L18.1074 55.3164L18.4492 52.8164H19.1035V55.3848H22.4141V56.2051H19.1035V63.0215C19.1035 63.7832 19.2435 64.3626 19.5234 64.7598C19.8099 65.1504 20.2754 65.3457 20.9199 65.3457Z" fill="#A4A8B9"/>
<path d="M29.2715 55.1797C30.1764 55.1797 30.9284 55.3913 31.5273 55.8145C32.1328 56.2376 32.582 56.8171 32.875 57.5527C33.1745 58.2884 33.3242 59.1315 33.3242 60.082V60.7949H25.6582C25.6582 62.2533 25.9935 63.373 26.6641 64.1543C27.3411 64.9355 28.3079 65.3262 29.5645 65.3262C30.222 65.3262 30.7917 65.2741 31.2734 65.1699C31.7617 65.0592 32.3021 64.8737 32.8945 64.6133V65.5215C32.3737 65.7559 31.8529 65.9251 31.332 66.0293C30.8112 66.14 30.2122 66.1953 29.5352 66.1953C28.4609 66.1953 27.5592 65.974 26.8301 65.5312C26.1074 65.082 25.5605 64.4505 25.1895 63.6367C24.8249 62.8229 24.6426 61.8724 24.6426 60.7852C24.6426 59.724 24.8184 58.7702 25.1699 57.9238C25.528 57.0775 26.0488 56.4102 26.7324 55.9219C27.4225 55.4271 28.2689 55.1797 29.2715 55.1797ZM29.2617 56.0293C28.2461 56.0293 27.4225 56.3678 26.791 57.0449C26.166 57.7155 25.7982 58.6855 25.6875 59.9551H32.2988C32.2988 59.1803 32.1882 58.4967 31.9668 57.9043C31.7454 57.3118 31.4102 56.8529 30.9609 56.5273C30.5182 56.1953 29.9518 56.0293 29.2617 56.0293Z" fill="#A4A8B9"/>
<path d="M40.9727 55.1992C41.2526 55.1992 41.5163 55.2155 41.7637 55.248C42.0111 55.2806 42.2422 55.3262 42.457 55.3848L42.3008 56.293C42.0859 56.2344 41.8678 56.1921 41.6465 56.166C41.4251 56.1335 41.1875 56.1172 40.9336 56.1172C40.4323 56.1172 39.9831 56.2116 39.5859 56.4004C39.1953 56.5892 38.8633 56.8594 38.5898 57.2109C38.3164 57.5625 38.1081 57.9857 37.9648 58.4805C37.8216 58.9753 37.75 59.5286 37.75 60.1406V66H36.7539V55.3848H37.6035L37.7012 57.3867H37.7598C37.9225 56.9766 38.1504 56.6087 38.4434 56.2832C38.7428 55.9512 39.1042 55.6875 39.5273 55.4922C39.9505 55.2969 40.4323 55.1992 40.9727 55.1992Z" fill="#A4A8B9"/>
<path d="M48.9922 56.2051H46.4922V66H45.5059V56.2051H43.5332V55.6191L45.5059 55.3652V54.1934C45.5059 53.4121 45.6165 52.7643 45.8379 52.25C46.0658 51.7292 46.4076 51.3418 46.8633 51.0879C47.3255 50.8275 47.9082 50.6973 48.6113 50.6973C48.9759 50.6973 49.3047 50.7266 49.5977 50.7852C49.8906 50.8372 50.1641 50.9056 50.418 50.9902L50.1934 51.8203C49.9655 51.7422 49.7116 51.6771 49.4316 51.625C49.1582 51.5729 48.888 51.5469 48.6211 51.5469C47.8724 51.5469 47.3288 51.7552 46.9902 52.1719C46.6582 52.582 46.4922 53.2526 46.4922 54.1836V55.3848H48.9922V56.2051Z" fill="#A4A8B9"/>
<path d="M55.2637 55.1992C56.429 55.1992 57.3014 55.4922 57.8809 56.0781C58.4603 56.6641 58.75 57.5983 58.75 58.8809V66H57.9883L57.8125 64.1445H57.7539C57.526 64.5417 57.2493 64.8965 56.9238 65.209C56.5983 65.515 56.1979 65.7559 55.7227 65.9316C55.2539 66.1074 54.681 66.1953 54.0039 66.1953C53.3203 66.1953 52.7344 66.0814 52.2461 65.8535C51.7643 65.6257 51.39 65.2936 51.123 64.8574C50.8626 64.4212 50.7324 63.8906 50.7324 63.2656C50.7324 62.2109 51.1686 61.4102 52.041 60.8633C52.9134 60.3099 54.1667 59.9974 55.8008 59.9258L57.7734 59.8281V59.0566C57.7734 57.9694 57.5586 57.1947 57.1289 56.7324C56.6992 56.2702 56.0645 56.0391 55.2246 56.0391C54.6777 56.0391 54.1504 56.1107 53.6426 56.2539C53.1413 56.3906 52.6302 56.5892 52.1094 56.8496L51.7969 56.0293C52.3047 55.7884 52.8483 55.5898 53.4277 55.4336C54.0137 55.2773 54.6257 55.1992 55.2637 55.1992ZM57.7637 60.5996L55.9082 60.6777C54.5605 60.7428 53.5352 60.9837 52.832 61.4004C52.1289 61.8171 51.7773 62.4421 51.7773 63.2754C51.7773 63.946 51.9857 64.4603 52.4023 64.8184C52.8255 65.1764 53.4115 65.3555 54.1602 65.3555C55.3255 65.3555 56.2142 65.0234 56.8262 64.3594C57.4447 63.6953 57.7572 62.7904 57.7637 61.6445V60.5996Z" fill="#A4A8B9"/>
<path d="M66.916 66.1953C65.8613 66.1953 64.9694 65.9772 64.2402 65.541C63.5176 65.0983 62.9707 64.4701 62.5996 63.6562C62.235 62.8359 62.0527 61.8659 62.0527 60.7461C62.0527 59.5807 62.2643 58.5846 62.6875 57.7578C63.1107 56.9245 63.7064 56.2865 64.4746 55.8438C65.2428 55.401 66.1445 55.1797 67.1797 55.1797C67.6875 55.1797 68.1595 55.2253 68.5957 55.3164C69.0319 55.4076 69.4258 55.5345 69.7773 55.6973L69.5137 56.5664C69.1491 56.4036 68.7617 56.2799 68.3516 56.1953C67.9414 56.1107 67.5475 56.0684 67.1699 56.0684C66.2975 56.0684 65.5553 56.2604 64.9434 56.6445C64.3379 57.0221 63.8724 57.5625 63.5469 58.2656C63.2279 58.9622 63.0684 59.7858 63.0684 60.7363C63.0684 61.6283 63.2051 62.4193 63.4785 63.1094C63.752 63.793 64.1719 64.3333 64.7383 64.7305C65.3047 65.1211 66.0306 65.3164 66.916 65.3164C67.4303 65.3164 67.9186 65.2643 68.3809 65.1602C68.8496 65.056 69.276 64.9225 69.6602 64.7598V65.6582C69.3151 65.8145 68.9147 65.9414 68.459 66.0391C68.0098 66.1432 67.4954 66.1953 66.916 66.1953Z" fill="#A4A8B9"/>
<path d="M76.6934 55.1797C77.5983 55.1797 78.3503 55.3913 78.9492 55.8145C79.5547 56.2376 80.0039 56.8171 80.2969 57.5527C80.5964 58.2884 80.7461 59.1315 80.7461 60.082V60.7949H73.0801C73.0801 62.2533 73.4154 63.373 74.0859 64.1543C74.763 64.9355 75.7298 65.3262 76.9863 65.3262C77.6439 65.3262 78.2135 65.2741 78.6953 65.1699C79.1836 65.0592 79.724 64.8737 80.3164 64.6133V65.5215C79.7956 65.7559 79.2747 65.9251 78.7539 66.0293C78.2331 66.14 77.6341 66.1953 76.957 66.1953C75.8828 66.1953 74.9811 65.974 74.252 65.5312C73.5293 65.082 72.9824 64.4505 72.6113 63.6367C72.2467 62.8229 72.0645 61.8724 72.0645 60.7852C72.0645 59.724 72.2402 58.7702 72.5918 57.9238C72.9499 57.0775 73.4707 56.4102 74.1543 55.9219C74.8444 55.4271 75.6908 55.1797 76.6934 55.1797ZM76.6836 56.0293C75.668 56.0293 74.8444 56.3678 74.2129 57.0449C73.5879 57.7155 73.2201 58.6855 73.1094 59.9551H79.7207C79.7207 59.1803 79.61 58.4967 79.3887 57.9043C79.1673 57.3118 78.832 56.8529 78.3828 56.5273C77.9401 56.1953 77.3737 56.0293 76.6836 56.0293Z" fill="#A4A8B9"/>
<path d="M94.1191 66.1953C93.0645 66.1953 92.1725 65.9772 91.4434 65.541C90.7207 65.0983 90.1738 64.4701 89.8027 63.6562C89.4382 62.8359 89.2559 61.8659 89.2559 60.7461C89.2559 59.5807 89.4674 58.5846 89.8906 57.7578C90.3138 56.9245 90.9095 56.2865 91.6777 55.8438C92.446 55.401 93.3477 55.1797 94.3828 55.1797C94.8906 55.1797 95.3626 55.2253 95.7988 55.3164C96.235 55.4076 96.6289 55.5345 96.9805 55.6973L96.7168 56.5664C96.3522 56.4036 95.9648 56.2799 95.5547 56.1953C95.1445 56.1107 94.7507 56.0684 94.373 56.0684C93.5007 56.0684 92.7585 56.2604 92.1465 56.6445C91.541 57.0221 91.0755 57.5625 90.75 58.2656C90.431 58.9622 90.2715 59.7858 90.2715 60.7363C90.2715 61.6283 90.4082 62.4193 90.6816 63.1094C90.9551 63.793 91.375 64.3333 91.9414 64.7305C92.5078 65.1211 93.2337 65.3164 94.1191 65.3164C94.6335 65.3164 95.1217 65.2643 95.584 65.1602C96.0527 65.056 96.4792 64.9225 96.8633 64.7598V65.6582C96.5182 65.8145 96.1178 65.9414 95.6621 66.0391C95.2129 66.1432 94.6986 66.1953 94.1191 66.1953Z" fill="#A4A8B9"/>
<path d="M108.682 60.6777C108.682 61.498 108.581 62.2467 108.379 62.9238C108.177 63.5944 107.878 64.1738 107.48 64.6621C107.083 65.1504 106.589 65.528 105.996 65.7949C105.41 66.0618 104.727 66.1953 103.945 66.1953C103.203 66.1953 102.542 66.0651 101.963 65.8047C101.383 65.5378 100.892 65.1602 100.488 64.6719C100.091 64.1836 99.7884 63.6042 99.5801 62.9336C99.3717 62.2565 99.2676 61.5046 99.2676 60.6777C99.2676 59.5384 99.4564 58.5586 99.834 57.7383C100.218 56.9115 100.765 56.2799 101.475 55.8438C102.191 55.401 103.047 55.1797 104.043 55.1797C105.072 55.1797 105.928 55.4141 106.611 55.8828C107.301 56.3451 107.819 56.9896 108.164 57.8164C108.509 58.6432 108.682 59.597 108.682 60.6777ZM100.283 60.6777C100.283 61.6087 100.417 62.4225 100.684 63.1191C100.951 63.8158 101.354 64.3594 101.895 64.75C102.441 65.1406 103.132 65.3359 103.965 65.3359C104.818 65.3359 105.518 65.1406 106.064 64.75C106.611 64.3594 107.015 63.8125 107.275 63.1094C107.536 62.4062 107.666 61.5957 107.666 60.6777C107.666 59.7858 107.542 58.9915 107.295 58.2949C107.048 57.5983 106.657 57.0514 106.123 56.6543C105.589 56.2507 104.893 56.0488 104.033 56.0488C102.803 56.0488 101.868 56.459 101.23 57.2793C100.599 58.0996 100.283 59.2324 100.283 60.6777Z" fill="#A4A8B9"/>
<path d="M123.068 55.1797C124.09 55.1797 124.898 55.4759 125.49 56.0684C126.083 56.6608 126.379 57.5951 126.379 58.8711V66H125.412V58.9102C125.412 57.9271 125.188 57.2044 124.738 56.7422C124.289 56.2799 123.697 56.0488 122.961 56.0488C121.952 56.0488 121.161 56.3451 120.588 56.9375C120.021 57.5234 119.738 58.4479 119.738 59.7109V66H118.762V58.9102C118.762 58.2526 118.658 57.7155 118.449 57.2988C118.247 56.8757 117.964 56.5632 117.6 56.3613C117.235 56.153 116.805 56.0488 116.311 56.0488C115.653 56.0488 115.083 56.1855 114.602 56.459C114.12 56.7259 113.749 57.1426 113.488 57.709C113.228 58.2689 113.098 58.9818 113.098 59.8477V66H112.111V55.3848H112.912L113.059 57.123H113.117C113.293 56.778 113.527 56.459 113.82 56.166C114.113 55.873 114.475 55.6354 114.904 55.4531C115.34 55.2708 115.852 55.1797 116.438 55.1797C117.199 55.1797 117.844 55.3522 118.371 55.6973C118.905 56.0358 119.276 56.5404 119.484 57.2109H119.553C119.839 56.5729 120.282 56.0749 120.881 55.7168C121.486 55.3587 122.215 55.1797 123.068 55.1797Z" fill="#A4A8B9"/>
<path d="M134.994 55.1797C136.361 55.1797 137.419 55.6387 138.168 56.5566C138.923 57.4746 139.301 58.8288 139.301 60.6191C139.301 61.8171 139.122 62.8327 138.764 63.666C138.406 64.4928 137.895 65.1211 137.23 65.5508C136.573 65.9805 135.782 66.1953 134.857 66.1953C134.219 66.1953 133.663 66.1009 133.188 65.9121C132.719 65.7168 132.328 65.4564 132.016 65.1309C131.703 64.7988 131.462 64.4342 131.293 64.0371H131.225C131.244 64.4082 131.26 64.7956 131.273 65.1992C131.286 65.6029 131.293 65.9837 131.293 66.3418V70.6973H130.297V55.3848H131.117L131.234 57.5039H131.293C131.469 57.1003 131.716 56.7194 132.035 56.3613C132.354 56.0033 132.758 55.7168 133.246 55.502C133.734 55.2871 134.317 55.1797 134.994 55.1797ZM134.867 56.0488C134.066 56.0488 133.399 56.2246 132.865 56.5762C132.338 56.9212 131.944 57.429 131.684 58.0996C131.43 58.7637 131.299 59.5775 131.293 60.541V60.707C131.293 61.7422 131.42 62.6048 131.674 63.2949C131.934 63.9785 132.322 64.4896 132.836 64.8281C133.357 65.1667 134.001 65.3359 134.77 65.3359C135.525 65.3359 136.163 65.1504 136.684 64.7793C137.204 64.4082 137.602 63.8711 137.875 63.168C138.148 62.4648 138.285 61.612 138.285 60.6094C138.285 59.1185 137.999 57.9857 137.426 57.2109C136.859 56.4362 136.007 56.0488 134.867 56.0488Z" fill="#A4A8B9"/>
<path d="M151.51 60.6777C151.51 61.498 151.409 62.2467 151.207 62.9238C151.005 63.5944 150.706 64.1738 150.309 64.6621C149.911 65.1504 149.417 65.528 148.824 65.7949C148.238 66.0618 147.555 66.1953 146.773 66.1953C146.031 66.1953 145.37 66.0651 144.791 65.8047C144.212 65.5378 143.72 65.1602 143.316 64.6719C142.919 64.1836 142.617 63.6042 142.408 62.9336C142.2 62.2565 142.096 61.5046 142.096 60.6777C142.096 59.5384 142.285 58.5586 142.662 57.7383C143.046 56.9115 143.593 56.2799 144.303 55.8438C145.019 55.401 145.875 55.1797 146.871 55.1797C147.9 55.1797 148.756 55.4141 149.439 55.8828C150.13 56.3451 150.647 56.9896 150.992 57.8164C151.337 58.6432 151.51 59.597 151.51 60.6777ZM143.111 60.6777C143.111 61.6087 143.245 62.4225 143.512 63.1191C143.779 63.8158 144.182 64.3594 144.723 64.75C145.27 65.1406 145.96 65.3359 146.793 65.3359C147.646 65.3359 148.346 65.1406 148.893 64.75C149.439 64.3594 149.843 63.8125 150.104 63.1094C150.364 62.4062 150.494 61.5957 150.494 60.6777C150.494 59.7858 150.37 58.9915 150.123 58.2949C149.876 57.5983 149.485 57.0514 148.951 56.6543C148.417 56.2507 147.721 56.0488 146.861 56.0488C145.631 56.0488 144.697 56.459 144.059 57.2793C143.427 58.0996 143.111 59.2324 143.111 60.6777Z" fill="#A4A8B9"/>
<path d="M159.617 55.1797C160.809 55.1797 161.723 55.4922 162.361 56.1172C162.999 56.7422 163.318 57.722 163.318 59.0566V66H162.342V59.1152C162.342 58.0605 162.101 57.2858 161.619 56.791C161.137 56.2962 160.438 56.0488 159.52 56.0488C158.354 56.0488 157.462 56.3906 156.844 57.0742C156.232 57.7513 155.926 58.7767 155.926 60.1504V66H154.939V55.3848H155.74L155.887 57.3184H155.945C156.134 56.9212 156.391 56.5632 156.717 56.2441C157.049 55.9186 157.456 55.6615 157.938 55.4727C158.419 55.2773 158.979 55.1797 159.617 55.1797Z" fill="#A4A8B9"/>
<path d="M171.279 55.1797C172.184 55.1797 172.936 55.3913 173.535 55.8145C174.141 56.2376 174.59 56.8171 174.883 57.5527C175.182 58.2884 175.332 59.1315 175.332 60.082V60.7949H167.666C167.666 62.2533 168.001 63.373 168.672 64.1543C169.349 64.9355 170.316 65.3262 171.572 65.3262C172.23 65.3262 172.799 65.2741 173.281 65.1699C173.77 65.0592 174.31 64.8737 174.902 64.6133V65.5215C174.382 65.7559 173.861 65.9251 173.34 66.0293C172.819 66.14 172.22 66.1953 171.543 66.1953C170.469 66.1953 169.567 65.974 168.838 65.5312C168.115 65.082 167.568 64.4505 167.197 63.6367C166.833 62.8229 166.65 61.8724 166.65 60.7852C166.65 59.724 166.826 58.7702 167.178 57.9238C167.536 57.0775 168.057 56.4102 168.74 55.9219C169.43 55.4271 170.277 55.1797 171.279 55.1797ZM171.27 56.0293C170.254 56.0293 169.43 56.3678 168.799 57.0449C168.174 57.7155 167.806 58.6855 167.695 59.9551H174.307C174.307 59.1803 174.196 58.4967 173.975 57.9043C173.753 57.3118 173.418 56.8529 172.969 56.5273C172.526 56.1953 171.96 56.0293 171.27 56.0293Z" fill="#A4A8B9"/>
<path d="M183.43 55.1797C184.621 55.1797 185.536 55.4922 186.174 56.1172C186.812 56.7422 187.131 57.722 187.131 59.0566V66H186.154V59.1152C186.154 58.0605 185.913 57.2858 185.432 56.791C184.95 56.2962 184.25 56.0488 183.332 56.0488C182.167 56.0488 181.275 56.3906 180.656 57.0742C180.044 57.7513 179.738 58.7767 179.738 60.1504V66H178.752V55.3848H179.553L179.699 57.3184H179.758C179.947 56.9212 180.204 56.5632 180.529 56.2441C180.861 55.9186 181.268 55.6615 181.75 55.4727C182.232 55.2773 182.792 55.1797 183.43 55.1797Z" fill="#A4A8B9"/>
<path d="M193.939 65.3457C194.245 65.3457 194.529 65.3229 194.789 65.2773C195.056 65.2318 195.29 65.1732 195.492 65.1016V65.9219C195.284 65.9935 195.04 66.0553 194.76 66.1074C194.48 66.166 194.171 66.1953 193.832 66.1953C193.233 66.1953 192.735 66.0846 192.338 65.8633C191.941 65.6354 191.641 65.2936 191.439 64.8379C191.238 64.3757 191.137 63.7897 191.137 63.0801V56.2051H189.555V55.6191L191.127 55.3164L191.469 52.8164H192.123V55.3848H195.434V56.2051H192.123V63.0215C192.123 63.7832 192.263 64.3626 192.543 64.7598C192.829 65.1504 193.295 65.3457 193.939 65.3457Z" fill="#A4A8B9"/>
<path d="M204.908 63.2168C204.908 63.8483 204.749 64.3887 204.43 64.8379C204.117 65.2806 203.658 65.6191 203.053 65.8535C202.447 66.0814 201.702 66.1953 200.816 66.1953C200.081 66.1953 199.423 66.1302 198.844 66C198.264 65.8698 197.779 65.7103 197.389 65.5215V64.5449C197.877 64.7858 198.417 64.9811 199.01 65.1309C199.602 65.2806 200.211 65.3555 200.836 65.3555C201.93 65.3555 202.717 65.1699 203.199 64.7988C203.681 64.4277 203.922 63.9199 203.922 63.2754C203.922 62.8522 203.801 62.5039 203.561 62.2305C203.326 61.9505 202.988 61.7096 202.545 61.5078C202.102 61.306 201.568 61.1009 200.943 60.8926C200.292 60.6712 199.713 60.4531 199.205 60.2383C198.704 60.0169 198.31 59.7272 198.023 59.3691C197.737 59.0046 197.594 58.5098 197.594 57.8848C197.594 57.0319 197.936 56.3678 198.619 55.8926C199.303 55.4173 200.221 55.1797 201.373 55.1797C202.011 55.1797 202.604 55.2415 203.15 55.3652C203.704 55.4824 204.205 55.6354 204.654 55.8242L204.303 56.6641C203.899 56.4753 203.434 56.3223 202.906 56.2051C202.379 56.0879 201.852 56.0293 201.324 56.0293C200.458 56.0293 199.781 56.1823 199.293 56.4883C198.805 56.7943 198.561 57.2435 198.561 57.8359C198.561 58.2917 198.678 58.6497 198.912 58.9102C199.146 59.1641 199.482 59.3789 199.918 59.5547C200.354 59.724 200.872 59.9128 201.471 60.1211C202.089 60.3359 202.659 60.5605 203.18 60.7949C203.707 61.0293 204.127 61.332 204.439 61.7031C204.752 62.0742 204.908 62.5788 204.908 63.2168Z" fill="#A4A8B9"/>
<path d="M222.031 55.3848V66H221.23L221.084 64.0859H221.025C220.843 64.4766 220.586 64.8314 220.254 65.1504C219.922 65.4694 219.515 65.7233 219.033 65.9121C218.551 66.1009 217.992 66.1953 217.354 66.1953C216.54 66.1953 215.856 66.0553 215.303 65.7754C214.756 65.4889 214.342 65.0592 214.062 64.4863C213.783 63.9134 213.643 63.1973 213.643 62.3379V55.3848H214.629V62.2402C214.629 63.3014 214.867 64.0827 215.342 64.584C215.824 65.0853 216.527 65.3359 217.451 65.3359C218.232 65.3359 218.887 65.1862 219.414 64.8867C219.948 64.5872 220.352 64.1348 220.625 63.5293C220.905 62.9173 221.045 62.1556 221.045 61.2441V55.3848H222.031Z" fill="#A4A8B9"/>
<path d="M232.736 63.2168C232.736 63.8483 232.577 64.3887 232.258 64.8379C231.945 65.2806 231.486 65.6191 230.881 65.8535C230.275 66.0814 229.53 66.1953 228.645 66.1953C227.909 66.1953 227.251 66.1302 226.672 66C226.092 65.8698 225.607 65.7103 225.217 65.5215V64.5449C225.705 64.7858 226.245 64.9811 226.838 65.1309C227.43 65.2806 228.039 65.3555 228.664 65.3555C229.758 65.3555 230.546 65.1699 231.027 64.7988C231.509 64.4277 231.75 63.9199 231.75 63.2754C231.75 62.8522 231.63 62.5039 231.389 62.2305C231.154 61.9505 230.816 61.7096 230.373 61.5078C229.93 61.306 229.396 61.1009 228.771 60.8926C228.12 60.6712 227.541 60.4531 227.033 60.2383C226.532 60.0169 226.138 59.7272 225.852 59.3691C225.565 59.0046 225.422 58.5098 225.422 57.8848C225.422 57.0319 225.764 56.3678 226.447 55.8926C227.131 55.4173 228.049 55.1797 229.201 55.1797C229.839 55.1797 230.432 55.2415 230.979 55.3652C231.532 55.4824 232.033 55.6354 232.482 55.8242L232.131 56.6641C231.727 56.4753 231.262 56.3223 230.734 56.2051C230.207 56.0879 229.68 56.0293 229.152 56.0293C228.286 56.0293 227.609 56.1823 227.121 56.4883C226.633 56.7943 226.389 57.2435 226.389 57.8359C226.389 58.2917 226.506 58.6497 226.74 58.9102C226.975 59.1641 227.31 59.3789 227.746 59.5547C228.182 59.724 228.7 59.9128 229.299 60.1211C229.917 60.3359 230.487 60.5605 231.008 60.7949C231.535 61.0293 231.955 61.332 232.268 61.7031C232.58 62.0742 232.736 62.5788 232.736 63.2168Z" fill="#A4A8B9"/>
<path d="M239.936 55.1797C240.84 55.1797 241.592 55.3913 242.191 55.8145C242.797 56.2376 243.246 56.8171 243.539 57.5527C243.839 58.2884 243.988 59.1315 243.988 60.082V60.7949H236.322C236.322 62.2533 236.658 63.373 237.328 64.1543C238.005 64.9355 238.972 65.3262 240.229 65.3262C240.886 65.3262 241.456 65.2741 241.938 65.1699C242.426 65.0592 242.966 64.8737 243.559 64.6133V65.5215C243.038 65.7559 242.517 65.9251 241.996 66.0293C241.475 66.14 240.876 66.1953 240.199 66.1953C239.125 66.1953 238.223 65.974 237.494 65.5312C236.771 65.082 236.225 64.4505 235.854 63.6367C235.489 62.8229 235.307 61.8724 235.307 60.7852C235.307 59.724 235.482 58.7702 235.834 57.9238C236.192 57.0775 236.713 56.4102 237.396 55.9219C238.087 55.4271 238.933 55.1797 239.936 55.1797ZM239.926 56.0293C238.91 56.0293 238.087 56.3678 237.455 57.0449C236.83 57.7155 236.462 58.6855 236.352 59.9551H242.963C242.963 59.1803 242.852 58.4967 242.631 57.9043C242.41 57.3118 242.074 56.8529 241.625 56.5273C241.182 56.1953 240.616 56.0293 239.926 56.0293Z" fill="#A4A8B9"/>
<path d="M251.256 66.1953C249.804 66.1953 248.697 65.7396 247.936 64.8281C247.18 63.9102 246.803 62.5755 246.803 60.8242C246.803 58.9883 247.203 57.5885 248.004 56.625C248.805 55.6615 249.921 55.1797 251.354 55.1797C251.965 55.1797 252.496 55.2741 252.945 55.4629C253.401 55.6517 253.782 55.9089 254.088 56.2344C254.4 56.5534 254.641 56.918 254.811 57.3281H254.889C254.863 56.9831 254.843 56.612 254.83 56.2148C254.817 55.8177 254.811 55.4531 254.811 55.1211V50.8047H255.797V66H254.996L254.869 64.0566H254.811C254.635 64.4473 254.391 64.8053 254.078 65.1309C253.772 65.4564 253.388 65.7168 252.926 65.9121C252.464 66.1009 251.907 66.1953 251.256 66.1953ZM251.363 65.3359C252.613 65.3359 253.502 64.9486 254.029 64.1738C254.557 63.3926 254.82 62.2793 254.82 60.834V60.6777C254.82 59.1803 254.557 58.0345 254.029 57.2402C253.502 56.4395 252.643 56.0391 251.451 56.0391C250.273 56.0391 249.371 56.4492 248.746 57.2695C248.128 58.0898 247.818 59.2812 247.818 60.8438C247.818 62.3151 248.108 63.4316 248.688 64.1934C249.273 64.9551 250.165 65.3359 251.363 65.3359Z" fill="#A4A8B9"/>
</svg>
