<svg width="616" height="85" viewBox="0 0 616 85" fill="none" xmlns="http://www.w3.org/2000/svg">
<path d="M8.54395 10.3008H7.02051V6.11768H2.74219V10.3008H1.2251V1.02051H2.74219V4.81641H7.02051V1.02051H8.54395V10.3008Z" fill="#A4A8B9"/>
<path d="M17.2373 10.3008H11.9878V1.02051H17.2373V2.30273H13.5049V4.8291H17.0024V6.09863H13.5049V9.01221H17.2373V10.3008Z" fill="#A4A8B9"/>
<path d="M26.0068 10.3008L25.0801 7.72363H21.5317L20.624 10.3008H19.0244L22.4966 0.982422H24.147L27.6191 10.3008H26.0068ZM24.6802 6.41602L23.8105 3.88965C23.7471 3.72038 23.6582 3.45378 23.5439 3.08984C23.4339 2.72591 23.3577 2.45931 23.3154 2.29004C23.2012 2.81055 23.034 3.37972 22.814 3.99756L21.9761 6.41602H24.6802Z" fill="#A4A8B9"/>
<path d="M37.3916 5.57178C37.3916 7.10368 36.9663 8.27588 36.1157 9.08838C35.2651 9.89665 34.04 10.3008 32.4404 10.3008H29.8442V1.02051H32.7134C34.1903 1.02051 35.3392 1.41829 36.1602 2.21387C36.9811 3.00944 37.3916 4.12874 37.3916 5.57178ZM35.792 5.62256C35.792 3.40088 34.7531 2.29004 32.6753 2.29004H31.3613V9.0249H32.4404C34.6748 9.0249 35.792 7.89079 35.792 5.62256Z" fill="#A4A8B9"/>
<path d="M45.6406 10.3008H40.3911V1.02051H45.6406V2.30273H41.9082V4.8291H45.4058V6.09863H41.9082V9.01221H45.6406V10.3008Z" fill="#A4A8B9"/>
<path d="M50.1699 5.33691H51.2236C51.9303 5.33691 52.4424 5.20573 52.7598 4.94336C53.0771 4.68099 53.2358 4.29167 53.2358 3.77539C53.2358 3.25065 53.0645 2.87402 52.7217 2.64551C52.3789 2.41699 51.8626 2.30273 51.1729 2.30273H50.1699V5.33691ZM50.1699 6.59375V10.3008H48.6528V1.02051H51.2744C52.472 1.02051 53.3586 1.24479 53.9341 1.69336C54.5096 2.14193 54.7974 2.81901 54.7974 3.72461C54.7974 4.87988 54.1965 5.70296 52.9946 6.19385L55.6162 10.3008H53.8896L51.668 6.59375H50.1699Z" fill="#A4A8B9"/>
<path d="M62.3452 1.02051H65.1001C66.3781 1.02051 67.3006 1.20671 67.8677 1.5791C68.439 1.9515 68.7246 2.53971 68.7246 3.34375C68.7246 3.88542 68.585 4.3361 68.3057 4.6958C68.0264 5.0555 67.6243 5.2819 67.0996 5.375V5.43848C67.7513 5.5612 68.2295 5.80452 68.5342 6.16846C68.8431 6.52816 68.9976 7.01693 68.9976 7.63477C68.9976 8.46842 68.7056 9.12223 68.1216 9.59619C67.5418 10.0659 66.7336 10.3008 65.6968 10.3008H62.3452V1.02051ZM63.8623 4.85449H65.3223C65.957 4.85449 66.4204 4.75505 66.7124 4.55615C67.0044 4.35303 67.1504 4.01025 67.1504 3.52783C67.1504 3.09196 66.9917 2.77669 66.6743 2.58203C66.3612 2.38737 65.8618 2.29004 65.1763 2.29004H63.8623V4.85449ZM63.8623 6.08594V9.0249H65.4746C66.1094 9.0249 66.5876 8.9043 66.9092 8.66309C67.235 8.41764 67.3979 8.03255 67.3979 7.50781C67.3979 7.02539 67.2329 6.66781 66.9028 6.43506C66.5728 6.20231 66.0713 6.08594 65.3984 6.08594H63.8623Z" fill="#A4A8B9"/>
<path d="M77.6846 10.3008L76.7578 7.72363H73.2095L72.3018 10.3008H70.7021L74.1743 0.982422H75.8247L79.2969 10.3008H77.6846ZM76.3579 6.41602L75.4883 3.88965C75.4248 3.72038 75.3359 3.45378 75.2217 3.08984C75.1117 2.72591 75.0355 2.45931 74.9932 2.29004C74.8789 2.81055 74.7118 3.37972 74.4917 3.99756L73.6538 6.41602H76.3579Z" fill="#A4A8B9"/>
<path d="M83.0391 5.33691H84.0928C84.7995 5.33691 85.3115 5.20573 85.6289 4.94336C85.9463 4.68099 86.105 4.29167 86.105 3.77539C86.105 3.25065 85.9336 2.87402 85.5908 2.64551C85.248 2.41699 84.7318 2.30273 84.042 2.30273H83.0391V5.33691ZM83.0391 6.59375V10.3008H81.522V1.02051H84.1436C85.3411 1.02051 86.2277 1.24479 86.8032 1.69336C87.3787 2.14193 87.6665 2.81901 87.6665 3.72461C87.6665 4.87988 87.0656 5.70296 85.8638 6.19385L88.4854 10.3008H86.7588L84.5371 6.59375H83.0391Z" fill="#A4A8B9"/>
<g clip-path="url(#clip0_3545_2411)">
<rect opacity="0.98" y="32.2812" width="610.484" height="51.4866" fill="url(#paint0_linear_3545_2411)"/>
<path d="M119.693 47.7706H126.625C127.318 47.7706 127.948 48.1487 128.263 48.7159L131.225 53.9466C131.288 54.0096 131.351 54.0096 131.414 53.9466L137.464 48.1487C137.842 47.8336 138.284 47.6445 138.788 47.6445H146.035C146.161 47.6445 146.161 47.7706 146.098 47.8336L135.385 58.0429C135.322 58.1059 135.322 58.1689 135.385 58.1689L142.884 68.5673C143.01 68.6934 142.884 68.9454 142.695 68.9454L135.826 69.0715C135.322 69.0715 134.881 68.8194 134.628 68.4413L130.658 62.1392L123.789 68.4413C123.348 68.8824 122.718 69.0715 122.15 69.0715L115.281 69.0085C115.155 69.0085 115.155 68.8824 115.218 68.8194L126.058 58.5471C126.31 58.295 126.31 57.9799 126.184 57.6648L119.63 47.9596C119.567 47.8966 119.63 47.7706 119.693 47.7706Z" fill="white"/>
<path d="M97.7236 48.0547H96.24H93.2729C95.3746 48.9819 97.2291 50.4654 98.4654 52.3199C99.7635 54.0507 100.505 56.2142 100.505 58.5013C100.505 60.8503 99.7635 62.9519 98.4654 64.6827C97.2291 66.599 95.4365 68.0825 93.2729 68.9479H97.1054H97.7236C102.731 68.9479 106.748 64.8682 106.748 59.923V57.0796C106.81 52.1344 102.731 48.0547 97.7236 48.0547Z" fill="white"/>
<path d="M96.3638 63.8793H86.968C86.7207 63.8793 86.5353 63.6938 86.5353 63.4466V53.7417C86.5353 53.4945 86.7207 53.309 86.968 53.309H96.3019C96.4256 53.309 96.4874 53.1854 96.4256 53.1236C96.0547 52.4436 95.5602 51.8873 95.0038 51.331C95.0038 51.331 94.5093 50.5892 93.0876 49.7856C91.5422 48.7348 89.6878 48.1166 87.6479 48.1166C86.6589 47.993 85.4844 47.9312 84.2481 47.993C84.1863 47.993 84.0627 47.993 84.0009 47.993C82.2701 47.9312 81.3429 48.0548 80.9102 48.1784C80.7865 48.1784 80.6629 48.2403 80.5393 48.3639C80.3538 48.4875 80.4157 48.673 80.4157 48.673V68.639C80.4157 68.8863 80.6011 69.0717 80.8484 69.0717H83.2591L83.8773 69.1335C84.5572 69.1953 85.6699 69.1953 86.968 69.1335C88.6988 69.0099 90.8005 68.7008 92.5313 67.8354C92.5313 67.8354 92.5931 67.8354 92.5931 67.7736C92.7785 67.7118 92.9021 67.5882 93.0258 67.5263L93.0876 67.4645C93.2112 67.4027 93.3349 67.3409 93.4585 67.2173C93.5203 67.2173 93.5203 67.1555 93.5821 67.1555C93.7057 67.0936 93.7675 67.0318 93.8912 66.9082C93.953 66.9082 93.953 66.8464 94.0148 66.8464C94.1384 66.7227 94.2621 66.5991 94.3857 66.4755C94.5093 66.3519 94.633 66.2282 94.7566 66.1046C95.3747 65.4865 95.9311 64.8065 96.4256 64.0647C96.4874 64.0029 96.4256 63.8793 96.3638 63.8793Z" fill="white"/>
<path d="M67.5585 47.498H61.6244C55.9993 47.498 51.4868 52.0105 51.4868 57.6356V59.6137C51.4868 65.1769 55.9993 69.7512 61.6244 69.7512H67.5585C73.1837 69.7512 77.6961 65.2388 77.6961 59.6137V57.6356C77.6961 52.0105 73.1218 47.498 67.5585 47.498ZM71.2674 60.4172C71.2674 62.5189 69.5366 64.2497 67.4349 64.2497H61.748C59.6463 64.2497 57.9155 62.5189 57.9155 60.4172V56.7702C57.9155 54.6685 59.6463 52.9377 61.748 52.9377H67.4349C69.5366 52.9377 71.2674 54.6685 71.2674 56.7702V60.4172Z" fill="white"/>
<path d="M115.341 53.5551C115.341 53.3078 115.094 53.0605 114.847 53.0605H109.84C109.592 53.0605 109.345 53.3078 109.345 53.5551V68.5759C109.345 68.8232 109.592 69.0705 109.84 69.0705H111.509C111.694 69.0705 111.818 69.0086 111.941 68.885L115.156 65.9179C115.279 65.7943 115.341 65.6089 115.341 65.4234V53.5551Z" fill="white"/>
<path fill-rule="evenodd" clip-rule="evenodd" d="M93.4651 63.8794H96.3643C96.4262 63.8794 96.488 64.003 96.4262 64.0648C95.9316 64.8066 95.3753 65.4865 94.7572 66.1047L94.3863 66.4756L94.0154 66.8465C93.9845 66.8465 93.969 66.8619 93.9536 66.8774C93.9381 66.8928 93.9227 66.9083 93.8918 66.9083C93.7681 67.0319 93.7063 67.0937 93.5827 67.1555C93.5518 67.1555 93.5363 67.171 93.5209 67.1864C93.5054 67.2019 93.49 67.2174 93.4591 67.2174C93.3354 67.341 93.2118 67.4028 93.0882 67.4646L93.0264 67.5264C92.9803 67.5494 92.9343 67.581 92.8851 67.6148C92.8021 67.6717 92.7101 67.7349 92.5937 67.7737C92.5937 67.8355 92.5319 67.8355 92.5319 67.8355C91.3498 68.4265 89.9947 68.7581 88.7029 68.9483H87.7266C89.8901 68.0829 91.6827 66.5993 92.919 64.6831C93.1137 64.4234 93.296 64.1554 93.4651 63.8794ZM93.5729 53.3091H96.3025C96.4262 53.3091 96.488 53.1855 96.4262 53.1237C96.0553 52.4437 95.5608 51.8874 95.0044 51.3311C95.0044 51.3311 94.5099 50.5893 93.0882 49.7857C91.5988 48.7729 89.8224 48.1621 87.8695 48.1191C89.9123 49.0499 91.7108 50.508 92.919 52.3202C93.1559 52.6361 93.3742 52.9663 93.5729 53.3091Z" fill="#D2D1D6"/>
<path d="M109.716 47.498H114.909C115.156 47.498 115.342 47.6835 115.342 47.9307C115.342 48.858 115.342 49.7234 115.28 50.5888C115.28 50.7124 115.032 51.0215 114.847 51.0215C113.178 51.0833 111.447 51.0833 109.778 51.0215C109.655 51.0215 109.346 50.7742 109.346 50.5888C109.284 49.6616 109.284 48.7961 109.284 47.9307C109.346 47.6835 109.531 47.498 109.716 47.498Z" fill="url(#paint1_linear_3545_2411)"/>
<line opacity="0.4" x1="-353.97" y1="83.3079" x2="256.513" y2="83.3079" stroke="#A4A8B9" stroke-width="0.919403"/>
<rect opacity="0.1" x="320.872" y="43.5918" width="97.4567" height="29.4209" rx="7.35522" fill="#C6D0EB"/>
<path opacity="0.1" fill-rule="evenodd" clip-rule="evenodd" d="M502.914 73.0127C511.038 73.0127 517.624 66.4266 517.624 58.3022C517.624 50.1779 511.038 43.5918 502.914 43.5918C494.789 43.5918 488.203 50.1779 488.203 58.3022C488.203 66.4266 494.789 73.0127 502.914 73.0127Z" fill="#C6D0EB"/>
<path opacity="0.1" fill-rule="evenodd" clip-rule="evenodd" d="M452.346 73.0127C460.471 73.0127 467.057 66.4266 467.057 58.3022C467.057 50.1779 460.471 43.5918 452.346 43.5918C444.222 43.5918 437.636 50.1779 437.636 58.3022C437.636 66.4266 444.222 73.0127 452.346 73.0127Z" fill="#C6D0EB"/>
<path fill-rule="evenodd" clip-rule="evenodd" d="M558.092 73.0127C566.216 73.0127 572.802 66.4266 572.802 58.3022C572.802 50.1779 566.216 43.5918 558.092 43.5918C549.967 43.5918 543.381 50.1779 543.381 58.3022C543.381 66.4266 549.967 73.0127 558.092 73.0127Z" fill="url(#paint2_linear_3545_2411)"/>
<path d="M557.704 63.1074H556.441L553.129 58.6388L552.148 59.5187V63.1074H551.08V53.9188H552.148V58.5005C552.387 58.2282 552.632 57.9579 552.884 57.6898C553.135 57.4174 553.384 57.143 553.632 56.8664L556.315 53.9188H557.566L553.908 57.9035L557.704 63.1074ZM562.889 54.7295C562.382 54.7295 561.926 54.8175 561.519 54.9935C561.117 55.1653 560.773 55.4167 560.489 55.7477C560.208 56.0745 559.992 56.4705 559.841 56.9356C559.69 57.4007 559.615 57.9244 559.615 58.5068C559.615 59.2778 559.734 59.9482 559.973 60.518C560.216 61.0837 560.576 61.5215 561.054 61.8316C561.536 62.1416 562.137 62.2967 562.858 62.2967C563.269 62.2967 563.654 62.2631 564.014 62.1961C564.379 62.1249 564.733 62.0369 565.077 61.9321V62.8623C564.741 62.988 564.389 63.0802 564.021 63.1388C563.652 63.2017 563.214 63.2331 562.707 63.2331C561.773 63.2331 560.991 63.0404 560.363 62.6549C559.738 62.2652 559.269 61.7163 558.955 61.0082C558.645 60.3001 558.49 59.4642 558.49 58.5005C558.49 57.805 558.586 57.1702 558.779 56.5962C558.976 56.018 559.261 55.5194 559.634 55.1004C560.011 54.6814 560.472 54.3587 561.016 54.1325C561.565 53.902 562.194 53.7868 562.902 53.7868C563.367 53.7868 563.815 53.8329 564.247 53.9251C564.678 54.0172 565.068 54.1492 565.416 54.321L564.989 55.2261C564.695 55.092 564.373 54.9768 564.021 54.8804C563.673 54.7798 563.296 54.7295 562.889 54.7295Z" fill="white"/>
<path d="M582.901 56.9238L585.66 59.682L588.418 56.9238" stroke="white" stroke-width="1.3791" stroke-linecap="round"/>
<path d="M334.328 63.5918L333.197 60.6756H329.514L328.389 63.5918H327.308L330.903 54.3654H331.864L335.434 63.5918H334.328ZM332.876 59.7265L331.801 56.8292C331.776 56.7537 331.734 56.6301 331.676 56.4583C331.621 56.2866 331.565 56.1085 331.506 55.9241C331.447 55.7398 331.399 55.591 331.361 55.4779C331.32 55.6497 331.273 55.8215 331.223 55.9933C331.177 56.1609 331.131 56.318 331.085 56.4646C331.039 56.6071 330.999 56.7286 330.965 56.8292L329.872 59.7265H332.876ZM337.602 63.5918H336.553V53.8124H337.602V63.5918ZM340.858 63.5918H339.808V53.8124H340.858V63.5918Z" fill="white"/>
<g opacity="0.8" clip-path="url(#clip1_3545_2411)">
<path d="M392.018 65.3609C387.844 59.309 387.069 58.6879 387.069 56.4637C387.069 53.417 389.539 50.9473 392.585 50.9473C395.632 50.9473 398.102 53.417 398.102 56.4637C398.102 58.6879 397.327 59.309 393.152 65.3609C392.878 65.7567 392.292 65.7566 392.018 65.3609ZM392.585 58.7622C393.855 58.7622 394.884 57.7331 394.884 56.4637C394.884 55.1942 393.855 54.1652 392.585 54.1652C391.316 54.1652 390.287 55.1942 390.287 56.4637C390.287 57.7331 391.316 58.7622 392.585 58.7622Z" fill="white"/>
</g>
<path d="M404.537 56.9238L407.295 59.682L410.054 56.9238" stroke="white" stroke-width="1.3791" stroke-linecap="round"/>
<circle cx="460.621" cy="48.1893" r="3.67761" fill="#0198F8" stroke="#1B1C26" stroke-width="1.3791"/>
<g opacity="0.8" clip-path="url(#clip2_3545_2411)">
<path d="M452.231 66.5766C453.373 66.5766 454.299 65.6505 454.299 64.5079H450.163C450.163 65.6505 451.089 66.5766 452.231 66.5766ZM459.193 61.7376C458.569 61.0665 457.4 60.0571 457.4 56.7505C457.4 54.239 455.639 52.2285 453.265 51.7353V51.0617C453.265 50.4905 452.802 50.0273 452.231 50.0273C451.66 50.0273 451.197 50.4905 451.197 51.0617V51.7353C448.823 52.2285 447.062 54.239 447.062 56.7505C447.062 60.0571 445.894 61.0665 445.269 61.7376C445.075 61.946 444.989 62.1952 444.991 62.4393C444.994 62.9694 445.41 63.4736 446.028 63.4736H458.434C459.052 63.4736 459.468 62.9694 459.471 62.4393C459.473 62.1952 459.387 61.9457 459.193 61.7376Z" fill="white"/>
</g>
</g>
<defs>
<linearGradient id="paint0_linear_3545_2411" x1="3.83785e-06" y1="58.0236" x2="610.484" y2="58.0237" gradientUnits="userSpaceOnUse">
<stop stop-color="#15141B"/>
<stop offset="0.340512" stop-color="#20212F"/>
<stop offset="0.671592" stop-color="#20212E"/>
<stop offset="1" stop-color="#191922"/>
</linearGradient>
<linearGradient id="paint1_linear_3545_2411" x1="109.277" y1="49.2842" x2="115.348" y2="49.2842" gradientUnits="userSpaceOnUse">
<stop stop-color="#00B7F1"/>
<stop offset="1" stop-color="#007AFF"/>
</linearGradient>
<linearGradient id="paint2_linear_3545_2411" x1="543.35" y1="58.3124" x2="572.834" y2="58.3124" gradientUnits="userSpaceOnUse">
<stop stop-color="#00B7F1"/>
<stop offset="1" stop-color="#007AFF"/>
</linearGradient>
<clipPath id="clip0_3545_2411">
<rect width="616" height="51.4866" fill="white" transform="translate(0 32.5566)"/>
</clipPath>
<clipPath id="clip1_3545_2411">
<rect width="11.0328" height="14.7104" fill="white" transform="translate(387.069 50.9473)"/>
</clipPath>
<clipPath id="clip2_3545_2411">
<rect width="14.4806" height="16.5493" fill="white" transform="translate(444.991 50.0273)"/>
</clipPath>
</defs>
</svg>
