<svg width="198" height="86" viewBox="0 0 198 86" fill="none" xmlns="http://www.w3.org/2000/svg">
<path d="M12.9805 43H9.64062V17.375H0.65625V14.4453H21.9258V17.375H12.9805V43ZM33.7617 21.2422C36.3138 21.2422 38.2083 21.8151 39.4453 22.9609C40.6823 24.1068 41.3008 25.9362 41.3008 28.4492V43H38.9375L38.3125 39.8359H38.1562C37.5573 40.6172 36.9323 41.2747 36.2812 41.8086C35.6302 42.3294 34.875 42.7266 34.0156 43C33.1693 43.2604 32.1276 43.3906 30.8906 43.3906C29.5885 43.3906 28.4297 43.1628 27.4141 42.707C26.4115 42.2513 25.6172 41.5612 25.0312 40.6367C24.4583 39.7122 24.1719 38.5404 24.1719 37.1211C24.1719 34.9857 25.0182 33.3451 26.7109 32.1992C28.4036 31.0534 30.9818 30.4284 34.4453 30.3242L38.1367 30.168V28.8594C38.1367 27.0104 37.7396 25.7148 36.9453 24.9727C36.151 24.2305 35.0312 23.8594 33.5859 23.8594C32.4661 23.8594 31.3984 24.0221 30.3828 24.3477C29.3672 24.6732 28.4036 25.0573 27.4922 25.5L26.4961 23.0391C27.4596 22.5443 28.5664 22.1211 29.8164 21.7695C31.0664 21.418 32.3815 21.2422 33.7617 21.2422ZM38.0977 32.4531L34.8359 32.5898C32.1667 32.694 30.2852 33.1302 29.1914 33.8984C28.0977 34.6667 27.5508 35.7539 27.5508 37.1602C27.5508 38.3841 27.9219 39.2891 28.6641 39.875C29.4062 40.4609 30.3893 40.7539 31.6133 40.7539C33.5143 40.7539 35.0703 40.2266 36.2812 39.1719C37.4922 38.1172 38.0977 36.5352 38.0977 34.4258V32.4531ZM51.2227 12.6094V20.207C51.2227 21.0794 51.1966 21.9258 51.1445 22.7461C51.1055 23.5664 51.0729 24.2044 51.0469 24.6602H51.2227C51.8086 23.6966 52.6549 22.8828 53.7617 22.2188C54.8685 21.5547 56.2812 21.2227 58 21.2227C60.6823 21.2227 62.8177 22.1536 64.4062 24.0156C66.0078 25.8646 66.8086 28.6185 66.8086 32.2773C66.8086 34.6862 66.444 36.7174 65.7148 38.3711C64.9857 40.0247 63.957 41.2747 62.6289 42.1211C61.3008 42.9674 59.7318 43.3906 57.9219 43.3906C56.2292 43.3906 54.8359 43.0781 53.7422 42.4531C52.6615 41.8151 51.8281 41.0404 51.2422 40.1289H50.9883L50.3242 43H47.9805V12.6094H51.2227ZM57.4727 23.9375C55.9232 23.9375 54.6927 24.2435 53.7812 24.8555C52.8698 25.4544 52.2122 26.3659 51.8086 27.5898C51.418 28.8008 51.2227 30.3372 51.2227 32.1992V32.375C51.2227 35.0703 51.6719 37.1341 52.5703 38.5664C53.4688 39.9857 55.1029 40.6953 57.4727 40.6953C59.4648 40.6953 60.9557 39.9661 61.9453 38.5078C62.9479 37.0495 63.4492 34.9661 63.4492 32.2578C63.4492 29.4974 62.9544 27.4206 61.9648 26.0273C60.9883 24.6341 59.4909 23.9375 57.4727 23.9375ZM75.7344 43H72.4727V12.6094H75.7344V43ZM90.832 21.2031C92.6549 21.2031 94.2174 21.6068 95.5195 22.4141C96.8216 23.2214 97.8177 24.3542 98.5078 25.8125C99.1979 27.2578 99.543 28.9505 99.543 30.8906V32.9023H84.7578C84.7969 35.4154 85.4219 37.3294 86.6328 38.6445C87.8438 39.9596 89.5495 40.6172 91.75 40.6172C93.1042 40.6172 94.3021 40.4935 95.3438 40.2461C96.3854 39.9987 97.4661 39.6341 98.5859 39.1523V42.0039C97.5052 42.4857 96.431 42.8372 95.3633 43.0586C94.3086 43.2799 93.0586 43.3906 91.6133 43.3906C89.556 43.3906 87.7591 42.974 86.2227 42.1406C84.6992 41.2943 83.5143 40.0573 82.668 38.4297C81.8216 36.8021 81.3984 34.8099 81.3984 32.4531C81.3984 30.1484 81.7826 28.1562 82.5508 26.4766C83.332 24.7839 84.4258 23.4818 85.832 22.5703C87.2513 21.6589 88.918 21.2031 90.832 21.2031ZM90.793 23.8594C89.0612 23.8594 87.681 24.4258 86.6523 25.5586C85.6237 26.6914 85.0117 28.2734 84.8164 30.3047H96.1445C96.1315 29.0286 95.9297 27.9089 95.5391 26.9453C95.1615 25.9688 94.582 25.2135 93.8008 24.6797C93.0195 24.1328 92.0169 23.8594 90.793 23.8594ZM118.898 37.1406C118.898 38.5078 118.553 39.6602 117.863 40.5977C117.186 41.5221 116.21 42.2188 114.934 42.6875C113.671 43.1562 112.16 43.3906 110.402 43.3906C108.905 43.3906 107.609 43.2734 106.516 43.0391C105.422 42.8047 104.465 42.4727 103.645 42.043V39.0547C104.517 39.4844 105.559 39.875 106.77 40.2266C107.98 40.5781 109.217 40.7539 110.48 40.7539C112.329 40.7539 113.671 40.4544 114.504 39.8555C115.337 39.2565 115.754 38.4427 115.754 37.4141C115.754 36.8281 115.585 36.3138 115.246 35.8711C114.921 35.4154 114.367 34.9792 113.586 34.5625C112.805 34.1328 111.724 33.6641 110.344 33.1562C108.977 32.6354 107.792 32.1211 106.789 31.6133C105.799 31.0924 105.031 30.4609 104.484 29.7188C103.951 28.9766 103.684 28.013 103.684 26.8281C103.684 25.0182 104.413 23.6315 105.871 22.668C107.342 21.6914 109.27 21.2031 111.652 21.2031C112.941 21.2031 114.146 21.3333 115.266 21.5938C116.398 21.8411 117.453 22.1797 118.43 22.6094L117.336 25.207C116.451 24.8294 115.507 24.5104 114.504 24.25C113.501 23.9896 112.479 23.8594 111.438 23.8594C109.94 23.8594 108.788 24.1068 107.98 24.6016C107.186 25.0964 106.789 25.7734 106.789 26.6328C106.789 27.2969 106.971 27.8438 107.336 28.2734C107.714 28.7031 108.312 29.1068 109.133 29.4844C109.953 29.862 111.034 30.3047 112.375 30.8125C113.716 31.3073 114.875 31.8216 115.852 32.3555C116.828 32.8763 117.577 33.5143 118.098 34.2695C118.632 35.0117 118.898 35.9688 118.898 37.1406Z" fill="white"/>
<path d="M2.02734 80V65.7227H3.0332V80H2.02734ZM11.9902 69.1797C13.1816 69.1797 14.0964 69.4922 14.7344 70.1172C15.3724 70.7422 15.6914 71.722 15.6914 73.0566V80H14.7148V73.1152C14.7148 72.0605 14.474 71.2858 13.9922 70.791C13.5104 70.2962 12.8105 70.0488 11.8926 70.0488C10.7272 70.0488 9.83529 70.3906 9.2168 71.0742C8.60482 71.7513 8.29883 72.7767 8.29883 74.1504V80H7.3125V69.3848H8.11328L8.25977 71.3184H8.31836C8.50716 70.9212 8.76432 70.5632 9.08984 70.2441C9.42188 69.9186 9.82878 69.6615 10.3105 69.4727C10.7923 69.2773 11.3522 69.1797 11.9902 69.1797ZM22.5 79.3457C22.806 79.3457 23.0892 79.3229 23.3496 79.2773C23.6165 79.2318 23.8509 79.1732 24.0527 79.1016V79.9219C23.8444 79.9935 23.6003 80.0553 23.3203 80.1074C23.0404 80.166 22.7311 80.1953 22.3926 80.1953C21.7936 80.1953 21.2956 80.0846 20.8984 79.8633C20.5013 79.6354 20.2018 79.2936 20 78.8379C19.7982 78.3757 19.6973 77.7897 19.6973 77.0801V70.2051H18.1152V69.6191L19.6875 69.3164L20.0293 66.8164H20.6836V69.3848H23.9941V70.2051H20.6836V77.0215C20.6836 77.7832 20.8236 78.3626 21.1035 78.7598C21.39 79.1504 21.8555 79.3457 22.5 79.3457ZM30.8516 69.1797C31.7565 69.1797 32.5085 69.3913 33.1074 69.8145C33.7129 70.2376 34.1621 70.8171 34.4551 71.5527C34.7546 72.2884 34.9043 73.1315 34.9043 74.082V74.7949H27.2383C27.2383 76.2533 27.5736 77.373 28.2441 78.1543C28.9212 78.9355 29.888 79.3262 31.1445 79.3262C31.8021 79.3262 32.3717 79.2741 32.8535 79.1699C33.3418 79.0592 33.8822 78.8737 34.4746 78.6133V79.5215C33.9538 79.7559 33.4329 79.9251 32.9121 80.0293C32.3913 80.14 31.7923 80.1953 31.1152 80.1953C30.041 80.1953 29.1393 79.974 28.4102 79.5312C27.6875 79.082 27.1406 78.4505 26.7695 77.6367C26.4049 76.8229 26.2227 75.8724 26.2227 74.7852C26.2227 73.724 26.3984 72.7702 26.75 71.9238C27.1081 71.0775 27.6289 70.4102 28.3125 69.9219C29.0026 69.4271 29.849 69.1797 30.8516 69.1797ZM30.8418 70.0293C29.8262 70.0293 29.0026 70.3678 28.3711 71.0449C27.7461 71.7155 27.3783 72.6855 27.2676 73.9551H33.8789C33.8789 73.1803 33.7682 72.4967 33.5469 71.9043C33.3255 71.3118 32.9902 70.8529 32.541 70.5273C32.0983 70.1953 31.5319 70.0293 30.8418 70.0293ZM42.5527 69.1992C42.8327 69.1992 43.0964 69.2155 43.3438 69.248C43.5911 69.2806 43.8223 69.3262 44.0371 69.3848L43.8809 70.293C43.666 70.2344 43.4479 70.1921 43.2266 70.166C43.0052 70.1335 42.7676 70.1172 42.5137 70.1172C42.0124 70.1172 41.5632 70.2116 41.166 70.4004C40.7754 70.5892 40.4434 70.8594 40.1699 71.2109C39.8965 71.5625 39.6882 71.9857 39.5449 72.4805C39.4017 72.9753 39.3301 73.5286 39.3301 74.1406V80H38.334V69.3848H39.1836L39.2812 71.3867H39.3398C39.5026 70.9766 39.7305 70.6087 40.0234 70.2832C40.3229 69.9512 40.6842 69.6875 41.1074 69.4922C41.5306 69.2969 42.0124 69.1992 42.5527 69.1992ZM50.5723 70.2051H48.0723V80H47.0859V70.2051H45.1133V69.6191L47.0859 69.3652V68.1934C47.0859 67.4121 47.1966 66.7643 47.418 66.25C47.6458 65.7292 47.9876 65.3418 48.4434 65.0879C48.9056 64.8275 49.4883 64.6973 50.1914 64.6973C50.556 64.6973 50.8848 64.7266 51.1777 64.7852C51.4707 64.8372 51.7441 64.9056 51.998 64.9902L51.7734 65.8203C51.5456 65.7422 51.2917 65.6771 51.0117 65.625C50.7383 65.5729 50.4681 65.5469 50.2012 65.5469C49.4525 65.5469 48.9089 65.7552 48.5703 66.1719C48.2383 66.582 48.0723 67.2526 48.0723 68.1836V69.3848H50.5723V70.2051ZM56.8438 69.1992C58.0091 69.1992 58.8815 69.4922 59.4609 70.0781C60.0404 70.6641 60.3301 71.5983 60.3301 72.8809V80H59.5684L59.3926 78.1445H59.334C59.1061 78.5417 58.8294 78.8965 58.5039 79.209C58.1784 79.515 57.778 79.7559 57.3027 79.9316C56.834 80.1074 56.2611 80.1953 55.584 80.1953C54.9004 80.1953 54.3145 80.0814 53.8262 79.8535C53.3444 79.6257 52.9701 79.2936 52.7031 78.8574C52.4427 78.4212 52.3125 77.8906 52.3125 77.2656C52.3125 76.2109 52.7487 75.4102 53.6211 74.8633C54.4935 74.3099 55.7467 73.9974 57.3809 73.9258L59.3535 73.8281V73.0566C59.3535 71.9694 59.1387 71.1947 58.709 70.7324C58.2793 70.2702 57.6445 70.0391 56.8047 70.0391C56.2578 70.0391 55.7305 70.1107 55.2227 70.2539C54.7214 70.3906 54.2103 70.5892 53.6895 70.8496L53.377 70.0293C53.8848 69.7884 54.4284 69.5898 55.0078 69.4336C55.5938 69.2773 56.2057 69.1992 56.8438 69.1992ZM59.3438 74.5996L57.4883 74.6777C56.1406 74.7428 55.1152 74.9837 54.4121 75.4004C53.709 75.8171 53.3574 76.4421 53.3574 77.2754C53.3574 77.946 53.5658 78.4603 53.9824 78.8184C54.4056 79.1764 54.9915 79.3555 55.7402 79.3555C56.9056 79.3555 57.7943 79.0234 58.4062 78.3594C59.0247 77.6953 59.3372 76.7904 59.3438 75.6445V74.5996ZM68.4961 80.1953C67.4414 80.1953 66.5495 79.9772 65.8203 79.541C65.0977 79.0983 64.5508 78.4701 64.1797 77.6562C63.8151 76.8359 63.6328 75.8659 63.6328 74.7461C63.6328 73.5807 63.8444 72.5846 64.2676 71.7578C64.6908 70.9245 65.2865 70.2865 66.0547 69.8438C66.8229 69.401 67.7246 69.1797 68.7598 69.1797C69.2676 69.1797 69.7396 69.2253 70.1758 69.3164C70.612 69.4076 71.0059 69.5345 71.3574 69.6973L71.0938 70.5664C70.7292 70.4036 70.3418 70.2799 69.9316 70.1953C69.5215 70.1107 69.1276 70.0684 68.75 70.0684C67.8776 70.0684 67.1354 70.2604 66.5234 70.6445C65.918 71.0221 65.4525 71.5625 65.127 72.2656C64.8079 72.9622 64.6484 73.7858 64.6484 74.7363C64.6484 75.6283 64.7852 76.4193 65.0586 77.1094C65.332 77.793 65.752 78.3333 66.3184 78.7305C66.8848 79.1211 67.6107 79.3164 68.4961 79.3164C69.0104 79.3164 69.4987 79.2643 69.9609 79.1602C70.4297 79.056 70.8561 78.9225 71.2402 78.7598V79.6582C70.8952 79.8145 70.4948 79.9414 70.0391 80.0391C69.5898 80.1432 69.0755 80.1953 68.4961 80.1953ZM78.2734 69.1797C79.1784 69.1797 79.9303 69.3913 80.5293 69.8145C81.1348 70.2376 81.584 70.8171 81.877 71.5527C82.1764 72.2884 82.3262 73.1315 82.3262 74.082V74.7949H74.6602C74.6602 76.2533 74.9954 77.373 75.666 78.1543C76.3431 78.9355 77.3099 79.3262 78.5664 79.3262C79.224 79.3262 79.7936 79.2741 80.2754 79.1699C80.7637 79.0592 81.304 78.8737 81.8965 78.6133V79.5215C81.3757 79.7559 80.8548 79.9251 80.334 80.0293C79.8132 80.14 79.2142 80.1953 78.5371 80.1953C77.4629 80.1953 76.5612 79.974 75.832 79.5312C75.1094 79.082 74.5625 78.4505 74.1914 77.6367C73.8268 76.8229 73.6445 75.8724 73.6445 74.7852C73.6445 73.724 73.8203 72.7702 74.1719 71.9238C74.5299 71.0775 75.0508 70.4102 75.7344 69.9219C76.4245 69.4271 77.2708 69.1797 78.2734 69.1797ZM78.2637 70.0293C77.248 70.0293 76.4245 70.3678 75.793 71.0449C75.168 71.7155 74.8001 72.6855 74.6895 73.9551H81.3008C81.3008 73.1803 81.1901 72.4967 80.9688 71.9043C80.7474 71.3118 80.4121 70.8529 79.9629 70.5273C79.5202 70.1953 78.9538 70.0293 78.2637 70.0293ZM94.3125 79.3457C94.6185 79.3457 94.9017 79.3229 95.1621 79.2773C95.429 79.2318 95.6634 79.1732 95.8652 79.1016V79.9219C95.6569 79.9935 95.4128 80.0553 95.1328 80.1074C94.8529 80.166 94.5436 80.1953 94.2051 80.1953C93.6061 80.1953 93.1081 80.0846 92.7109 79.8633C92.3138 79.6354 92.0143 79.2936 91.8125 78.8379C91.6107 78.3757 91.5098 77.7897 91.5098 77.0801V70.2051H89.9277V69.6191L91.5 69.3164L91.8418 66.8164H92.4961V69.3848H95.8066V70.2051H92.4961V77.0215C92.4961 77.7832 92.6361 78.3626 92.916 78.7598C93.2025 79.1504 93.668 79.3457 94.3125 79.3457ZM102.352 69.1992C103.517 69.1992 104.389 69.4922 104.969 70.0781C105.548 70.6641 105.838 71.5983 105.838 72.8809V80H105.076L104.9 78.1445H104.842C104.614 78.5417 104.337 78.8965 104.012 79.209C103.686 79.515 103.286 79.7559 102.811 79.9316C102.342 80.1074 101.769 80.1953 101.092 80.1953C100.408 80.1953 99.8223 80.0814 99.334 79.8535C98.8522 79.6257 98.4779 79.2936 98.2109 78.8574C97.9505 78.4212 97.8203 77.8906 97.8203 77.2656C97.8203 76.2109 98.2565 75.4102 99.1289 74.8633C100.001 74.3099 101.255 73.9974 102.889 73.9258L104.861 73.8281V73.0566C104.861 71.9694 104.646 71.1947 104.217 70.7324C103.787 70.2702 103.152 70.0391 102.312 70.0391C101.766 70.0391 101.238 70.1107 100.73 70.2539C100.229 70.3906 99.7181 70.5892 99.1973 70.8496L98.8848 70.0293C99.3926 69.7884 99.9362 69.5898 100.516 69.4336C101.102 69.2773 101.714 69.1992 102.352 69.1992ZM104.852 74.5996L102.996 74.6777C101.648 74.7428 100.623 74.9837 99.9199 75.4004C99.2168 75.8171 98.8652 76.4421 98.8652 77.2754C98.8652 77.946 99.0736 78.4603 99.4902 78.8184C99.9134 79.1764 100.499 79.3555 101.248 79.3555C102.413 79.3555 103.302 79.0234 103.914 78.3594C104.533 77.6953 104.845 76.7904 104.852 75.6445V74.5996ZM110.723 64.8047V69.1211C110.723 69.4922 110.716 69.8991 110.703 70.3418C110.69 70.7845 110.677 71.1523 110.664 71.4453H110.723C110.977 70.7878 111.419 70.2441 112.051 69.8145C112.682 69.3848 113.47 69.1699 114.414 69.1699C115.794 69.1699 116.859 69.6354 117.607 70.5664C118.363 71.4974 118.74 72.8613 118.74 74.6582C118.74 75.7585 118.571 76.7253 118.232 77.5586C117.894 78.3854 117.389 79.0332 116.719 79.502C116.055 79.9642 115.221 80.1953 114.219 80.1953C113.314 80.1953 112.575 80.0065 112.002 79.6289C111.429 79.2448 111.012 78.7663 110.752 78.1934H110.674L110.488 80H109.736V64.8047H110.723ZM114.307 70.0293C113.467 70.0293 112.783 70.2116 112.256 70.5762C111.729 70.9342 111.341 71.4583 111.094 72.1484C110.846 72.8385 110.723 73.6816 110.723 74.6777V74.834C110.723 76.2988 110.99 77.4154 111.523 78.1836C112.057 78.9518 112.923 79.3359 114.121 79.3359C115.306 79.3359 116.201 78.9323 116.807 78.125C117.419 77.3112 117.725 76.1556 117.725 74.6582C117.725 73.1283 117.441 71.9759 116.875 71.2012C116.309 70.4199 115.452 70.0293 114.307 70.0293ZM123.166 80H122.17V64.8047H123.166V80ZM131.215 69.1797C132.12 69.1797 132.872 69.3913 133.471 69.8145C134.076 70.2376 134.525 70.8171 134.818 71.5527C135.118 72.2884 135.268 73.1315 135.268 74.082V74.7949H127.602C127.602 76.2533 127.937 77.373 128.607 78.1543C129.285 78.9355 130.251 79.3262 131.508 79.3262C132.165 79.3262 132.735 79.2741 133.217 79.1699C133.705 79.0592 134.245 78.8737 134.838 78.6133V79.5215C134.317 79.7559 133.796 79.9251 133.275 80.0293C132.755 80.14 132.156 80.1953 131.479 80.1953C130.404 80.1953 129.503 79.974 128.773 79.5312C128.051 79.082 127.504 78.4505 127.133 77.6367C126.768 76.8229 126.586 75.8724 126.586 74.7852C126.586 73.724 126.762 72.7702 127.113 71.9238C127.471 71.0775 127.992 70.4102 128.676 69.9219C129.366 69.4271 130.212 69.1797 131.215 69.1797ZM131.205 70.0293C130.189 70.0293 129.366 70.3678 128.734 71.0449C128.109 71.7155 127.742 72.6855 127.631 73.9551H134.242C134.242 73.1803 134.132 72.4967 133.91 71.9043C133.689 71.3118 133.354 70.8529 132.904 70.5273C132.462 70.1953 131.895 70.0293 131.205 70.0293ZM145.328 77.2168C145.328 77.8483 145.169 78.3887 144.85 78.8379C144.537 79.2806 144.078 79.6191 143.473 79.8535C142.867 80.0814 142.122 80.1953 141.236 80.1953C140.501 80.1953 139.843 80.1302 139.264 80C138.684 79.8698 138.199 79.7103 137.809 79.5215V78.5449C138.297 78.7858 138.837 78.9811 139.43 79.1309C140.022 79.2806 140.631 79.3555 141.256 79.3555C142.35 79.3555 143.137 79.1699 143.619 78.7988C144.101 78.4277 144.342 77.9199 144.342 77.2754C144.342 76.8522 144.221 76.5039 143.98 76.2305C143.746 75.9505 143.408 75.7096 142.965 75.5078C142.522 75.306 141.988 75.1009 141.363 74.8926C140.712 74.6712 140.133 74.4531 139.625 74.2383C139.124 74.0169 138.73 73.7272 138.443 73.3691C138.157 73.0046 138.014 72.5098 138.014 71.8848C138.014 71.0319 138.355 70.3678 139.039 69.8926C139.723 69.4173 140.641 69.1797 141.793 69.1797C142.431 69.1797 143.023 69.2415 143.57 69.3652C144.124 69.4824 144.625 69.6354 145.074 69.8242L144.723 70.6641C144.319 70.4753 143.854 70.3223 143.326 70.2051C142.799 70.0879 142.271 70.0293 141.744 70.0293C140.878 70.0293 140.201 70.1823 139.713 70.4883C139.225 70.7943 138.98 71.2435 138.98 71.8359C138.98 72.2917 139.098 72.6497 139.332 72.9102C139.566 73.1641 139.902 73.3789 140.338 73.5547C140.774 73.724 141.292 73.9128 141.891 74.1211C142.509 74.3359 143.079 74.5605 143.6 74.7949C144.127 75.0293 144.547 75.332 144.859 75.7031C145.172 76.0742 145.328 76.5788 145.328 77.2168ZM162.451 69.3848V80H161.65L161.504 78.0859H161.445C161.263 78.4766 161.006 78.8314 160.674 79.1504C160.342 79.4694 159.935 79.7233 159.453 79.9121C158.971 80.1009 158.411 80.1953 157.773 80.1953C156.96 80.1953 156.276 80.0553 155.723 79.7754C155.176 79.4889 154.762 79.0592 154.482 78.4863C154.202 77.9134 154.062 77.1973 154.062 76.3379V69.3848H155.049V76.2402C155.049 77.3014 155.286 78.0827 155.762 78.584C156.243 79.0853 156.947 79.3359 157.871 79.3359C158.652 79.3359 159.307 79.1862 159.834 78.8867C160.368 78.5872 160.771 78.1348 161.045 77.5293C161.325 76.9173 161.465 76.1556 161.465 75.2441V69.3848H162.451ZM173.156 77.2168C173.156 77.8483 172.997 78.3887 172.678 78.8379C172.365 79.2806 171.906 79.6191 171.301 79.8535C170.695 80.0814 169.95 80.1953 169.064 80.1953C168.329 80.1953 167.671 80.1302 167.092 80C166.512 79.8698 166.027 79.7103 165.637 79.5215V78.5449C166.125 78.7858 166.665 78.9811 167.258 79.1309C167.85 79.2806 168.459 79.3555 169.084 79.3555C170.178 79.3555 170.965 79.1699 171.447 78.7988C171.929 78.4277 172.17 77.9199 172.17 77.2754C172.17 76.8522 172.049 76.5039 171.809 76.2305C171.574 75.9505 171.236 75.7096 170.793 75.5078C170.35 75.306 169.816 75.1009 169.191 74.8926C168.54 74.6712 167.961 74.4531 167.453 74.2383C166.952 74.0169 166.558 73.7272 166.271 73.3691C165.985 73.0046 165.842 72.5098 165.842 71.8848C165.842 71.0319 166.184 70.3678 166.867 69.8926C167.551 69.4173 168.469 69.1797 169.621 69.1797C170.259 69.1797 170.852 69.2415 171.398 69.3652C171.952 69.4824 172.453 69.6354 172.902 69.8242L172.551 70.6641C172.147 70.4753 171.682 70.3223 171.154 70.2051C170.627 70.0879 170.1 70.0293 169.572 70.0293C168.706 70.0293 168.029 70.1823 167.541 70.4883C167.053 70.7943 166.809 71.2435 166.809 71.8359C166.809 72.2917 166.926 72.6497 167.16 72.9102C167.395 73.1641 167.73 73.3789 168.166 73.5547C168.602 73.724 169.12 73.9128 169.719 74.1211C170.337 74.3359 170.907 74.5605 171.428 74.7949C171.955 75.0293 172.375 75.332 172.688 75.7031C173 76.0742 173.156 76.5788 173.156 77.2168ZM180.355 69.1797C181.26 69.1797 182.012 69.3913 182.611 69.8145C183.217 70.2376 183.666 70.8171 183.959 71.5527C184.258 72.2884 184.408 73.1315 184.408 74.082V74.7949H176.742C176.742 76.2533 177.077 77.373 177.748 78.1543C178.425 78.9355 179.392 79.3262 180.648 79.3262C181.306 79.3262 181.876 79.2741 182.357 79.1699C182.846 79.0592 183.386 78.8737 183.979 78.6133V79.5215C183.458 79.7559 182.937 79.9251 182.416 80.0293C181.895 80.14 181.296 80.1953 180.619 80.1953C179.545 80.1953 178.643 79.974 177.914 79.5312C177.191 79.082 176.645 78.4505 176.273 77.6367C175.909 76.8229 175.727 75.8724 175.727 74.7852C175.727 73.724 175.902 72.7702 176.254 71.9238C176.612 71.0775 177.133 70.4102 177.816 69.9219C178.507 69.4271 179.353 69.1797 180.355 69.1797ZM180.346 70.0293C179.33 70.0293 178.507 70.3678 177.875 71.0449C177.25 71.7155 176.882 72.6855 176.771 73.9551H183.383C183.383 73.1803 183.272 72.4967 183.051 71.9043C182.829 71.3118 182.494 70.8529 182.045 70.5273C181.602 70.1953 181.036 70.0293 180.346 70.0293ZM191.676 80.1953C190.224 80.1953 189.117 79.7396 188.355 78.8281C187.6 77.9102 187.223 76.5755 187.223 74.8242C187.223 72.9883 187.623 71.5885 188.424 70.625C189.225 69.6615 190.341 69.1797 191.773 69.1797C192.385 69.1797 192.916 69.2741 193.365 69.4629C193.821 69.6517 194.202 69.9089 194.508 70.2344C194.82 70.5534 195.061 70.918 195.23 71.3281H195.309C195.283 70.9831 195.263 70.612 195.25 70.2148C195.237 69.8177 195.23 69.4531 195.23 69.1211V64.8047H196.217V80H195.416L195.289 78.0566H195.23C195.055 78.4473 194.811 78.8053 194.498 79.1309C194.192 79.4564 193.808 79.7168 193.346 79.9121C192.883 80.1009 192.327 80.1953 191.676 80.1953ZM191.783 79.3359C193.033 79.3359 193.922 78.9486 194.449 78.1738C194.977 77.3926 195.24 76.2793 195.24 74.834V74.6777C195.24 73.1803 194.977 72.0345 194.449 71.2402C193.922 70.4395 193.062 70.0391 191.871 70.0391C190.693 70.0391 189.791 70.4492 189.166 71.2695C188.548 72.0898 188.238 73.2812 188.238 74.8438C188.238 76.3151 188.528 77.4316 189.107 78.1934C189.693 78.9551 190.585 79.3359 191.783 79.3359Z" fill="#A4A8B9"/>
</svg>
