<svg width="188" height="459" viewBox="0 0 188 459" fill="none" xmlns="http://www.w3.org/2000/svg">
<path d="M14.0234 69.0371C14.0234 71.3027 13.457 73.0964 12.3242 74.418C11.1914 75.7331 9.62891 76.3906 7.63672 76.3906C5.65104 76.3906 4.0918 75.7331 2.95898 74.418C1.82617 73.0964 1.25977 71.2962 1.25977 69.0176C1.25977 66.7454 1.82943 64.9583 2.96875 63.6562C4.11458 62.3477 5.67708 61.6934 7.65625 61.6934C9.64844 61.6934 11.2077 62.3509 12.334 63.666C13.4603 64.9746 14.0234 66.765 14.0234 69.0371ZM2.34375 69.0371C2.34375 71.0814 2.79948 72.6634 3.71094 73.7832C4.6224 74.8965 5.93099 75.4531 7.63672 75.4531C9.35547 75.4531 10.6673 74.8997 11.5723 73.793C12.4837 72.6862 12.9395 71.1009 12.9395 69.0371C12.9395 66.9798 12.4837 65.4043 11.5723 64.3105C10.6673 63.2103 9.36198 62.6602 7.65625 62.6602C5.95703 62.6602 4.64518 63.2135 3.7207 64.3203C2.80273 65.4271 2.34375 66.9993 2.34375 69.0371ZM21.6113 76.3906C19.9772 76.3906 18.7858 75.7786 18.0371 74.5547H17.9688L17.998 75.375C18.0241 75.8568 18.0371 76.3841 18.0371 76.957V81H17.0703V65.5801H17.8906L18.0762 67.0938H18.1348C18.8639 65.9479 20.0293 65.375 21.6309 65.375C23.0632 65.375 24.1536 65.847 24.9023 66.791C25.6576 67.7285 26.0352 69.0957 26.0352 70.8926C26.0352 72.6374 25.638 73.9915 24.8438 74.9551C24.056 75.9121 22.9785 76.3906 21.6113 76.3906ZM21.5918 75.5312C22.679 75.5312 23.5189 75.1276 24.1113 74.3203C24.7103 73.513 25.0098 72.3835 25.0098 70.9316C25.0098 67.8132 23.8835 66.2539 21.6309 66.2539C20.3939 66.2539 19.4857 66.5957 18.9062 67.2793C18.3268 67.9564 18.0371 69.0632 18.0371 70.5996V70.9121C18.0371 72.5723 18.3138 73.7572 18.8672 74.4668C19.4271 75.1764 20.3353 75.5312 21.5918 75.5312ZM33.2715 76.3906C31.7285 76.3906 30.5241 75.9154 29.6582 74.9648C28.7988 74.0143 28.3691 72.6829 28.3691 70.9707C28.3691 69.278 28.7858 67.9238 29.6191 66.9082C30.4525 65.8861 31.5755 65.375 32.9883 65.375C34.2383 65.375 35.2246 65.8112 35.9473 66.6836C36.6699 67.556 37.0312 68.7409 37.0312 70.2383V71.0195H29.3848C29.3978 72.4779 29.7363 73.5911 30.4004 74.3594C31.071 75.1276 32.028 75.5117 33.2715 75.5117C33.877 75.5117 34.4076 75.4694 34.8633 75.3848C35.3255 75.3001 35.9082 75.1178 36.6113 74.8379V75.7168C36.0124 75.9772 35.459 76.153 34.9512 76.2441C34.4434 76.3418 33.8835 76.3906 33.2715 76.3906ZM32.9883 66.2344C31.9661 66.2344 31.1458 66.5729 30.5273 67.25C29.9089 67.9206 29.5475 68.8906 29.4434 70.1602H36.0059C36.0059 68.9297 35.7389 67.9694 35.2051 67.2793C34.6712 66.5827 33.9323 66.2344 32.9883 66.2344ZM47.3633 76.1953V69.3105C47.3633 68.2428 47.1387 67.4681 46.6895 66.9863C46.2402 66.498 45.5436 66.2539 44.5996 66.2539C43.3301 66.2539 42.3991 66.5762 41.8066 67.2207C41.2207 67.8587 40.9277 68.8971 40.9277 70.3359V76.1953H39.9609V65.5801H40.7812L40.9668 67.0352H41.0254C41.7155 65.9284 42.9427 65.375 44.707 65.375C47.1159 65.375 48.3203 66.6673 48.3203 69.252V76.1953H47.3633ZM65.0781 72.5137C65.0781 73.7051 64.6387 74.6491 63.7598 75.3457C62.8874 76.0423 61.7253 76.3906 60.2734 76.3906C58.5286 76.3906 57.1908 76.1986 56.2598 75.8145V74.8184C57.2884 75.2546 58.6003 75.4727 60.1953 75.4727C61.3672 75.4727 62.2949 75.2057 62.9785 74.6719C63.6686 74.1315 64.0137 73.4251 64.0137 72.5527C64.0137 72.0124 63.8997 71.5664 63.6719 71.2148C63.444 70.8568 63.0729 70.5312 62.5586 70.2383C62.0443 69.9453 61.2891 69.6296 60.293 69.291C58.8346 68.7897 57.8255 68.2493 57.2656 67.6699C56.7122 67.084 56.4355 66.306 56.4355 65.3359C56.4355 64.2682 56.8522 63.3991 57.6855 62.7285C58.5254 62.0514 59.6029 61.7129 60.918 61.7129C62.2591 61.7129 63.5189 61.9668 64.6973 62.4746L64.3359 63.334C63.151 62.8392 62.0182 62.5918 60.9375 62.5918C59.8828 62.5918 59.043 62.8359 58.418 63.3242C57.793 63.8125 57.4805 64.4766 57.4805 65.3164C57.4805 65.8438 57.5749 66.2767 57.7637 66.6152C57.959 66.9538 58.2747 67.2598 58.7109 67.5332C59.1471 67.8001 59.8958 68.1224 60.957 68.5C62.0703 68.8841 62.9069 69.2585 63.4668 69.623C64.0267 69.9811 64.4336 70.3913 64.6875 70.8535C64.9479 71.3092 65.0781 71.8626 65.0781 72.5137ZM74.2969 76.1953L74.0527 74.5156H73.9746C73.4408 75.1992 72.8906 75.6842 72.3242 75.9707C71.7643 76.2507 71.1003 76.3906 70.332 76.3906C69.2904 76.3906 68.4798 76.1237 67.9004 75.5898C67.321 75.056 67.0312 74.3171 67.0312 73.373C67.0312 72.3379 67.4609 71.5339 68.3203 70.9609C69.1862 70.388 70.4362 70.0853 72.0703 70.0527L74.0918 69.9941V69.291C74.0918 68.2819 73.8867 67.5202 73.4766 67.0059C73.0664 66.4915 72.4056 66.2344 71.4941 66.2344C70.5111 66.2344 69.4922 66.5078 68.4375 67.0547L68.0762 66.2148C69.2415 65.668 70.3939 65.3945 71.5332 65.3945C72.6986 65.3945 73.5677 65.6973 74.1406 66.3027C74.7201 66.9082 75.0098 67.8522 75.0098 69.1348V76.1953H74.2969ZM70.3906 75.5117C71.5234 75.5117 72.4154 75.1895 73.0664 74.5449C73.724 73.8939 74.0527 72.9922 74.0527 71.8398V70.7949L72.1973 70.873C70.7064 70.9447 69.6419 71.179 69.0039 71.5762C68.3724 71.9668 68.0566 72.5788 68.0566 73.4121C68.0566 74.0762 68.2585 74.5938 68.6621 74.9648C69.0723 75.3294 69.6484 75.5117 70.3906 75.5117ZM85.8594 76.1953V69.3105C85.8594 68.2428 85.6348 67.4681 85.1855 66.9863C84.7363 66.498 84.0397 66.2539 83.0957 66.2539C81.8262 66.2539 80.8952 66.5762 80.3027 67.2207C79.7168 67.8587 79.4238 68.8971 79.4238 70.3359V76.1953H78.457V65.5801H79.2773L79.4629 67.0352H79.5215C80.2116 65.9284 81.4388 65.375 83.2031 65.375C85.612 65.375 86.8164 66.6673 86.8164 69.252V76.1953H85.8594ZM96.8359 73.4316C96.8359 74.3822 96.4746 75.1146 95.752 75.6289C95.0293 76.1367 94.0039 76.3906 92.6758 76.3906C91.2565 76.3906 90.1302 76.1725 89.2969 75.7363V74.6914C90.3646 75.2253 91.4909 75.4922 92.6758 75.4922C93.724 75.4922 94.5182 75.3197 95.0586 74.9746C95.6055 74.623 95.8789 74.1576 95.8789 73.5781C95.8789 73.0443 95.6608 72.5951 95.2246 72.2305C94.7949 71.8659 94.0853 71.5078 93.0957 71.1562C92.0345 70.7721 91.2891 70.4434 90.8594 70.1699C90.4297 69.89 90.1042 69.5775 89.8828 69.2324C89.668 68.8809 89.5605 68.4544 89.5605 67.9531C89.5605 67.1589 89.8926 66.5306 90.5566 66.0684C91.2272 65.6061 92.1615 65.375 93.3594 65.375C94.5052 65.375 95.5924 65.5898 96.6211 66.0195L96.2598 66.8984C95.2181 66.4688 94.2513 66.2539 93.3594 66.2539C92.4935 66.2539 91.8066 66.3971 91.2988 66.6836C90.791 66.9701 90.5371 67.3672 90.5371 67.875C90.5371 68.4284 90.7324 68.8711 91.123 69.2031C91.5202 69.5352 92.2917 69.9062 93.4375 70.3164C94.3945 70.6615 95.0911 70.974 95.5273 71.2539C95.9635 71.5273 96.2891 71.8398 96.5039 72.1914C96.7253 72.543 96.8359 72.9564 96.8359 73.4316ZM106.006 69.9746V76.1953H105.01V61.918H108.408C110.179 61.918 111.488 62.2467 112.334 62.9043C113.18 63.5553 113.604 64.5384 113.604 65.8535C113.604 66.8105 113.35 67.6178 112.842 68.2754C112.34 68.9329 111.576 69.4049 110.547 69.6914L114.424 76.1953H113.232L109.551 69.9746H106.006ZM106.006 69.1152H108.73C109.935 69.1152 110.869 68.8483 111.533 68.3145C112.197 67.7741 112.529 66.9798 112.529 65.9316C112.529 64.8444 112.204 64.0534 111.553 63.5586C110.902 63.0638 109.84 62.8164 108.369 62.8164H106.006V69.1152ZM120.947 76.3906C119.404 76.3906 118.2 75.9154 117.334 74.9648C116.475 74.0143 116.045 72.6829 116.045 70.9707C116.045 69.278 116.462 67.9238 117.295 66.9082C118.128 65.8861 119.251 65.375 120.664 65.375C121.914 65.375 122.9 65.8112 123.623 66.6836C124.346 67.556 124.707 68.7409 124.707 70.2383V71.0195H117.061C117.074 72.4779 117.412 73.5911 118.076 74.3594C118.747 75.1276 119.704 75.5117 120.947 75.5117C121.553 75.5117 122.083 75.4694 122.539 75.3848C123.001 75.3001 123.584 75.1178 124.287 74.8379V75.7168C123.688 75.9772 123.135 76.153 122.627 76.2441C122.119 76.3418 121.559 76.3906 120.947 76.3906ZM120.664 66.2344C119.642 66.2344 118.822 66.5729 118.203 67.25C117.585 67.9206 117.223 68.8906 117.119 70.1602H123.682C123.682 68.9297 123.415 67.9694 122.881 67.2793C122.347 66.5827 121.608 66.2344 120.664 66.2344ZM135.918 65.5801V66.2539L133.721 66.3906C134.307 67.1198 134.6 67.9206 134.6 68.793C134.6 69.8151 134.258 70.6452 133.574 71.2832C132.897 71.9147 131.986 72.2305 130.84 72.2305C130.358 72.2305 130.02 72.2109 129.824 72.1719C129.44 72.3737 129.147 72.6113 128.945 72.8848C128.743 73.1582 128.643 73.4479 128.643 73.7539C128.643 74.0924 128.77 74.3398 129.023 74.4961C129.284 74.6523 129.717 74.7305 130.322 74.7305H132.178C133.33 74.7305 134.212 74.9648 134.824 75.4336C135.436 75.8958 135.742 76.5827 135.742 77.4941C135.742 78.6139 135.286 79.4766 134.375 80.082C133.47 80.694 132.178 81 130.498 81C129.163 81 128.128 80.7428 127.393 80.2285C126.663 79.7142 126.299 78.998 126.299 78.0801C126.299 77.3509 126.523 76.7454 126.973 76.2637C127.428 75.7819 128.044 75.4531 128.818 75.2773C128.499 75.1406 128.242 74.9486 128.047 74.7012C127.858 74.4473 127.764 74.1576 127.764 73.832C127.764 73.1224 128.216 72.4974 129.121 71.957C128.503 71.7031 128.021 71.306 127.676 70.7656C127.331 70.2188 127.158 69.5938 127.158 68.8906C127.158 67.8294 127.493 66.9798 128.164 66.3418C128.841 65.6973 129.753 65.375 130.898 65.375C131.595 65.375 132.135 65.4434 132.52 65.5801H135.918ZM127.324 77.9922C127.324 79.4505 128.408 80.1797 130.576 80.1797C133.363 80.1797 134.756 79.291 134.756 77.5137C134.756 76.8757 134.538 76.4134 134.102 76.127C133.665 75.8405 132.959 75.6973 131.982 75.6973H130.244C128.298 75.6973 127.324 76.4622 127.324 77.9922ZM128.135 68.8906C128.135 69.7109 128.382 70.349 128.877 70.8047C129.378 71.2539 130.046 71.4785 130.879 71.4785C131.764 71.4785 132.441 71.2539 132.91 70.8047C133.385 70.3555 133.623 69.7044 133.623 68.8516C133.623 67.9466 133.379 67.2695 132.891 66.8203C132.409 66.3646 131.732 66.1367 130.859 66.1367C130.013 66.1367 129.346 66.3809 128.857 66.8691C128.376 67.3509 128.135 68.0247 128.135 68.8906ZM138.945 65.5801V72.4551C138.945 73.5228 139.17 74.3008 139.619 74.7891C140.068 75.2708 140.765 75.5117 141.709 75.5117C142.972 75.5117 143.9 75.1927 144.492 74.5547C145.091 73.9167 145.391 72.8783 145.391 71.4395V65.5801H146.348V76.1953H145.527L145.352 74.7305H145.293C144.603 75.8372 143.376 76.3906 141.611 76.3906C139.196 76.3906 137.988 75.0983 137.988 72.5137V65.5801H138.945ZM150.869 76.1953H149.902V61H150.869V76.1953ZM160.879 76.1953L160.635 74.5156H160.557C160.023 75.1992 159.473 75.6842 158.906 75.9707C158.346 76.2507 157.682 76.3906 156.914 76.3906C155.872 76.3906 155.062 76.1237 154.482 75.5898C153.903 75.056 153.613 74.3171 153.613 73.373C153.613 72.3379 154.043 71.5339 154.902 70.9609C155.768 70.388 157.018 70.0853 158.652 70.0527L160.674 69.9941V69.291C160.674 68.2819 160.469 67.5202 160.059 67.0059C159.648 66.4915 158.988 66.2344 158.076 66.2344C157.093 66.2344 156.074 66.5078 155.02 67.0547L154.658 66.2148C155.824 65.668 156.976 65.3945 158.115 65.3945C159.281 65.3945 160.15 65.6973 160.723 66.3027C161.302 66.9082 161.592 67.8522 161.592 69.1348V76.1953H160.879ZM156.973 75.5117C158.105 75.5117 158.997 75.1895 159.648 74.5449C160.306 73.8939 160.635 72.9922 160.635 71.8398V70.7949L158.779 70.873C157.288 70.9447 156.224 71.179 155.586 71.5762C154.954 71.9668 154.639 72.5788 154.639 73.4121C154.639 74.0762 154.84 74.5938 155.244 74.9648C155.654 75.3294 156.23 75.5117 156.973 75.5117ZM169.219 65.375C169.668 65.375 170.15 65.4206 170.664 65.5117L170.479 66.4395C170.036 66.3288 169.577 66.2734 169.102 66.2734C168.197 66.2734 167.454 66.6576 166.875 67.4258C166.296 68.194 166.006 69.1641 166.006 70.3359V76.1953H165.039V65.5801H165.859L165.957 67.4941H166.025C166.462 66.7129 166.927 66.166 167.422 65.8535C167.917 65.5345 168.516 65.375 169.219 65.375Z" fill="white"/>
<path d="M14.0234 165.404C14.0234 167.67 13.457 169.464 12.3242 170.785C11.1914 172.1 9.62891 172.758 7.63672 172.758C5.65104 172.758 4.0918 172.1 2.95898 170.785C1.82617 169.464 1.25977 167.663 1.25977 165.385C1.25977 163.113 1.82943 161.326 2.96875 160.023C4.11458 158.715 5.67708 158.061 7.65625 158.061C9.64844 158.061 11.2077 158.718 12.334 160.033C13.4603 161.342 14.0234 163.132 14.0234 165.404ZM2.34375 165.404C2.34375 167.449 2.79948 169.031 3.71094 170.15C4.6224 171.264 5.93099 171.82 7.63672 171.82C9.35547 171.82 10.6673 171.267 11.5723 170.16C12.4837 169.053 12.9395 167.468 12.9395 165.404C12.9395 163.347 12.4837 161.771 11.5723 160.678C10.6673 159.577 9.36198 159.027 7.65625 159.027C5.95703 159.027 4.64518 159.581 3.7207 160.688C2.80273 161.794 2.34375 163.367 2.34375 165.404ZM21.6113 172.758C19.9772 172.758 18.7858 172.146 18.0371 170.922H17.9688L17.998 171.742C18.0241 172.224 18.0371 172.751 18.0371 173.324V177.367H17.0703V161.947H17.8906L18.0762 163.461H18.1348C18.8639 162.315 20.0293 161.742 21.6309 161.742C23.0632 161.742 24.1536 162.214 24.9023 163.158C25.6576 164.096 26.0352 165.463 26.0352 167.26C26.0352 169.005 25.638 170.359 24.8438 171.322C24.056 172.279 22.9785 172.758 21.6113 172.758ZM21.5918 171.898C22.679 171.898 23.5189 171.495 24.1113 170.688C24.7103 169.88 25.0098 168.751 25.0098 167.299C25.0098 164.18 23.8835 162.621 21.6309 162.621C20.3939 162.621 19.4857 162.963 18.9062 163.646C18.3268 164.324 18.0371 165.43 18.0371 166.967V167.279C18.0371 168.939 18.3138 170.124 18.8672 170.834C19.4271 171.544 20.3353 171.898 21.5918 171.898ZM33.2715 172.758C31.7285 172.758 30.5241 172.283 29.6582 171.332C28.7988 170.382 28.3691 169.05 28.3691 167.338C28.3691 165.645 28.7858 164.291 29.6191 163.275C30.4525 162.253 31.5755 161.742 32.9883 161.742C34.2383 161.742 35.2246 162.178 35.9473 163.051C36.6699 163.923 37.0312 165.108 37.0312 166.605V167.387H29.3848C29.3978 168.845 29.7363 169.958 30.4004 170.727C31.071 171.495 32.028 171.879 33.2715 171.879C33.877 171.879 34.4076 171.837 34.8633 171.752C35.3255 171.667 35.9082 171.485 36.6113 171.205V172.084C36.0124 172.344 35.459 172.52 34.9512 172.611C34.4434 172.709 33.8835 172.758 33.2715 172.758ZM32.9883 162.602C31.9661 162.602 31.1458 162.94 30.5273 163.617C29.9089 164.288 29.5475 165.258 29.4434 166.527H36.0059C36.0059 165.297 35.7389 164.337 35.2051 163.646C34.6712 162.95 33.9323 162.602 32.9883 162.602ZM47.3633 172.562V165.678C47.3633 164.61 47.1387 163.835 46.6895 163.354C46.2402 162.865 45.5436 162.621 44.5996 162.621C43.3301 162.621 42.3991 162.943 41.8066 163.588C41.2207 164.226 40.9277 165.264 40.9277 166.703V172.562H39.9609V161.947H40.7812L40.9668 163.402H41.0254C41.7155 162.296 42.9427 161.742 44.707 161.742C47.1159 161.742 48.3203 163.035 48.3203 165.619V172.562H47.3633ZM65.0781 168.881C65.0781 170.072 64.6387 171.016 63.7598 171.713C62.8874 172.41 61.7253 172.758 60.2734 172.758C58.5286 172.758 57.1908 172.566 56.2598 172.182V171.186C57.2884 171.622 58.6003 171.84 60.1953 171.84C61.3672 171.84 62.2949 171.573 62.9785 171.039C63.6686 170.499 64.0137 169.792 64.0137 168.92C64.0137 168.38 63.8997 167.934 63.6719 167.582C63.444 167.224 63.0729 166.898 62.5586 166.605C62.0443 166.312 61.2891 165.997 60.293 165.658C58.8346 165.157 57.8255 164.617 57.2656 164.037C56.7122 163.451 56.4355 162.673 56.4355 161.703C56.4355 160.635 56.8522 159.766 57.6855 159.096C58.5254 158.419 59.6029 158.08 60.918 158.08C62.2591 158.08 63.5189 158.334 64.6973 158.842L64.3359 159.701C63.151 159.206 62.0182 158.959 60.9375 158.959C59.8828 158.959 59.043 159.203 58.418 159.691C57.793 160.18 57.4805 160.844 57.4805 161.684C57.4805 162.211 57.5749 162.644 57.7637 162.982C57.959 163.321 58.2747 163.627 58.7109 163.9C59.1471 164.167 59.8958 164.49 60.957 164.867C62.0703 165.251 62.9069 165.626 63.4668 165.99C64.0267 166.348 64.4336 166.758 64.6875 167.221C64.9479 167.676 65.0781 168.23 65.0781 168.881ZM74.2969 172.562L74.0527 170.883H73.9746C73.4408 171.566 72.8906 172.051 72.3242 172.338C71.7643 172.618 71.1003 172.758 70.332 172.758C69.2904 172.758 68.4798 172.491 67.9004 171.957C67.321 171.423 67.0312 170.684 67.0312 169.74C67.0312 168.705 67.4609 167.901 68.3203 167.328C69.1862 166.755 70.4362 166.452 72.0703 166.42L74.0918 166.361V165.658C74.0918 164.649 73.8867 163.887 73.4766 163.373C73.0664 162.859 72.4056 162.602 71.4941 162.602C70.5111 162.602 69.4922 162.875 68.4375 163.422L68.0762 162.582C69.2415 162.035 70.3939 161.762 71.5332 161.762C72.6986 161.762 73.5677 162.064 74.1406 162.67C74.7201 163.275 75.0098 164.219 75.0098 165.502V172.562H74.2969ZM70.3906 171.879C71.5234 171.879 72.4154 171.557 73.0664 170.912C73.724 170.261 74.0527 169.359 74.0527 168.207V167.162L72.1973 167.24C70.7064 167.312 69.6419 167.546 69.0039 167.943C68.3724 168.334 68.0566 168.946 68.0566 169.779C68.0566 170.443 68.2585 170.961 68.6621 171.332C69.0723 171.697 69.6484 171.879 70.3906 171.879ZM85.8594 172.562V165.678C85.8594 164.61 85.6348 163.835 85.1855 163.354C84.7363 162.865 84.0397 162.621 83.0957 162.621C81.8262 162.621 80.8952 162.943 80.3027 163.588C79.7168 164.226 79.4238 165.264 79.4238 166.703V172.562H78.457V161.947H79.2773L79.4629 163.402H79.5215C80.2116 162.296 81.4388 161.742 83.2031 161.742C85.612 161.742 86.8164 163.035 86.8164 165.619V172.562H85.8594ZM96.8359 169.799C96.8359 170.749 96.4746 171.482 95.752 171.996C95.0293 172.504 94.0039 172.758 92.6758 172.758C91.2565 172.758 90.1302 172.54 89.2969 172.104V171.059C90.3646 171.592 91.4909 171.859 92.6758 171.859C93.724 171.859 94.5182 171.687 95.0586 171.342C95.6055 170.99 95.8789 170.525 95.8789 169.945C95.8789 169.411 95.6608 168.962 95.2246 168.598C94.7949 168.233 94.0853 167.875 93.0957 167.523C92.0345 167.139 91.2891 166.811 90.8594 166.537C90.4297 166.257 90.1042 165.945 89.8828 165.6C89.668 165.248 89.5605 164.822 89.5605 164.32C89.5605 163.526 89.8926 162.898 90.5566 162.436C91.2272 161.973 92.1615 161.742 93.3594 161.742C94.5052 161.742 95.5924 161.957 96.6211 162.387L96.2598 163.266C95.2181 162.836 94.2513 162.621 93.3594 162.621C92.4935 162.621 91.8066 162.764 91.2988 163.051C90.791 163.337 90.5371 163.734 90.5371 164.242C90.5371 164.796 90.7324 165.238 91.123 165.57C91.5202 165.902 92.2917 166.273 93.4375 166.684C94.3945 167.029 95.0911 167.341 95.5273 167.621C95.9635 167.895 96.2891 168.207 96.5039 168.559C96.7253 168.91 96.8359 169.324 96.8359 169.799ZM112.891 168.881C112.891 170.072 112.451 171.016 111.572 171.713C110.7 172.41 109.538 172.758 108.086 172.758C106.341 172.758 105.003 172.566 104.072 172.182V171.186C105.101 171.622 106.413 171.84 108.008 171.84C109.18 171.84 110.107 171.573 110.791 171.039C111.481 170.499 111.826 169.792 111.826 168.92C111.826 168.38 111.712 167.934 111.484 167.582C111.257 167.224 110.885 166.898 110.371 166.605C109.857 166.312 109.102 165.997 108.105 165.658C106.647 165.157 105.638 164.617 105.078 164.037C104.525 163.451 104.248 162.673 104.248 161.703C104.248 160.635 104.665 159.766 105.498 159.096C106.338 158.419 107.415 158.08 108.73 158.08C110.072 158.08 111.331 158.334 112.51 158.842L112.148 159.701C110.964 159.206 109.831 158.959 108.75 158.959C107.695 158.959 106.855 159.203 106.23 159.691C105.605 160.18 105.293 160.844 105.293 161.684C105.293 162.211 105.387 162.644 105.576 162.982C105.771 163.321 106.087 163.627 106.523 163.9C106.96 164.167 107.708 164.49 108.77 164.867C109.883 165.251 110.719 165.626 111.279 165.99C111.839 166.348 112.246 166.758 112.5 167.221C112.76 167.676 112.891 168.23 112.891 168.881ZM119.951 172.758C118.408 172.758 117.204 172.283 116.338 171.332C115.479 170.382 115.049 169.05 115.049 167.338C115.049 165.645 115.465 164.291 116.299 163.275C117.132 162.253 118.255 161.742 119.668 161.742C120.918 161.742 121.904 162.178 122.627 163.051C123.35 163.923 123.711 165.108 123.711 166.605V167.387H116.064C116.077 168.845 116.416 169.958 117.08 170.727C117.751 171.495 118.708 171.879 119.951 171.879C120.557 171.879 121.087 171.837 121.543 171.752C122.005 171.667 122.588 171.485 123.291 171.205V172.084C122.692 172.344 122.139 172.52 121.631 172.611C121.123 172.709 120.563 172.758 119.951 172.758ZM119.668 162.602C118.646 162.602 117.826 162.94 117.207 163.617C116.589 164.288 116.227 165.258 116.123 166.527H122.686C122.686 165.297 122.419 164.337 121.885 163.646C121.351 162.95 120.612 162.602 119.668 162.602ZM139.902 172.562V165.6C139.902 164.564 139.701 163.809 139.297 163.334C138.893 162.859 138.275 162.621 137.441 162.621C136.354 162.621 135.55 162.921 135.029 163.52C134.508 164.118 134.248 165.059 134.248 166.342V172.562H133.262V165.307C133.262 163.516 132.441 162.621 130.801 162.621C129.688 162.621 128.877 162.947 128.369 163.598C127.861 164.242 127.607 165.277 127.607 166.703V172.562H126.641V161.947H127.441L127.646 163.402H127.705C127.998 162.875 128.415 162.468 128.955 162.182C129.495 161.889 130.091 161.742 130.742 161.742C132.415 161.742 133.49 162.37 133.965 163.627H134.004C134.349 163.021 134.811 162.556 135.391 162.23C135.977 161.905 136.641 161.742 137.383 161.742C138.542 161.742 139.411 162.051 139.99 162.67C140.57 163.288 140.859 164.271 140.859 165.619V172.562H139.902ZM145.264 172.562H144.297V161.947H145.264V172.562ZM144.16 158.998C144.16 158.373 144.365 158.061 144.775 158.061C144.977 158.061 145.133 158.142 145.244 158.305C145.361 158.467 145.42 158.699 145.42 158.998C145.42 159.291 145.361 159.522 145.244 159.691C145.133 159.861 144.977 159.945 144.775 159.945C144.365 159.945 144.16 159.63 144.16 158.998ZM153.311 161.742C154.795 161.742 155.911 162.211 156.66 163.148C157.415 164.079 157.793 165.443 157.793 167.24C157.793 169.005 157.396 170.365 156.602 171.322C155.814 172.279 154.704 172.758 153.271 172.758C152.516 172.758 151.836 172.602 151.23 172.289C150.625 171.977 150.146 171.534 149.795 170.961H149.707L149.434 172.562H148.828V157.367H149.795V161.186C149.795 161.758 149.782 162.286 149.756 162.768L149.727 163.598H149.795C150.199 162.96 150.684 162.491 151.25 162.191C151.823 161.892 152.51 161.742 153.311 161.742ZM153.291 162.621C152.041 162.621 151.146 162.979 150.605 163.695C150.065 164.411 149.795 165.593 149.795 167.24V167.406C149.795 169.008 150.075 170.157 150.635 170.854C151.201 171.55 152.08 171.898 153.271 171.898C154.43 171.898 155.303 171.495 155.889 170.688C156.475 169.874 156.768 168.718 156.768 167.221C156.768 164.154 155.609 162.621 153.291 162.621ZM169.521 167.24C169.521 168.972 169.102 170.326 168.262 171.303C167.422 172.273 166.263 172.758 164.785 172.758C163.854 172.758 163.034 172.533 162.324 172.084C161.615 171.635 161.071 170.99 160.693 170.15C160.316 169.311 160.127 168.34 160.127 167.24C160.127 165.508 160.547 164.161 161.387 163.197C162.227 162.227 163.379 161.742 164.844 161.742C166.302 161.742 167.445 162.234 168.271 163.217C169.105 164.193 169.521 165.535 169.521 167.24ZM161.143 167.24C161.143 168.699 161.462 169.838 162.1 170.658C162.744 171.472 163.652 171.879 164.824 171.879C165.996 171.879 166.901 171.472 167.539 170.658C168.184 169.838 168.506 168.699 168.506 167.24C168.506 165.775 168.18 164.639 167.529 163.832C166.885 163.025 165.977 162.621 164.805 162.621C163.633 162.621 162.728 163.025 162.09 163.832C161.458 164.633 161.143 165.769 161.143 167.24ZM173.428 172.562H172.461V157.367H173.428V172.562ZM180.879 161.742C181.647 161.742 182.311 161.882 182.871 162.162C183.431 162.442 183.932 162.921 184.375 163.598H184.434C184.395 162.777 184.375 161.973 184.375 161.186V157.367H185.332V172.562H184.697L184.453 170.941H184.375C183.568 172.152 182.409 172.758 180.898 172.758C179.434 172.758 178.314 172.302 177.539 171.391C176.764 170.479 176.377 169.151 176.377 167.406C176.377 165.57 176.761 164.167 177.529 163.197C178.298 162.227 179.414 161.742 180.879 161.742ZM180.879 162.621C179.72 162.621 178.848 163.028 178.262 163.842C177.682 164.656 177.393 165.837 177.393 167.387C177.393 170.395 178.561 171.898 180.898 171.898C182.096 171.898 182.975 171.55 183.535 170.854C184.095 170.157 184.375 169.008 184.375 167.406V167.24C184.375 165.6 184.098 164.421 183.545 163.705C182.998 162.982 182.109 162.621 180.879 162.621Z" fill="white"/>
<path d="M14.0234 245.221C14.0234 247.486 13.457 249.28 12.3242 250.602C11.1914 251.917 9.62891 252.574 7.63672 252.574C5.65104 252.574 4.0918 251.917 2.95898 250.602C1.82617 249.28 1.25977 247.48 1.25977 245.201C1.25977 242.929 1.82943 241.142 2.96875 239.84C4.11458 238.531 5.67708 237.877 7.65625 237.877C9.64844 237.877 11.2077 238.535 12.334 239.85C13.4603 241.158 14.0234 242.949 14.0234 245.221ZM2.34375 245.221C2.34375 247.265 2.79948 248.847 3.71094 249.967C4.6224 251.08 5.93099 251.637 7.63672 251.637C9.35547 251.637 10.6673 251.083 11.5723 249.977C12.4837 248.87 12.9395 247.285 12.9395 245.221C12.9395 243.163 12.4837 241.588 11.5723 240.494C10.6673 239.394 9.36198 238.844 7.65625 238.844C5.95703 238.844 4.64518 239.397 3.7207 240.504C2.80273 241.611 2.34375 243.183 2.34375 245.221ZM21.6113 252.574C19.9772 252.574 18.7858 251.962 18.0371 250.738H17.9688L17.998 251.559C18.0241 252.04 18.0371 252.568 18.0371 253.141V257.184H17.0703V241.764H17.8906L18.0762 243.277H18.1348C18.8639 242.132 20.0293 241.559 21.6309 241.559C23.0632 241.559 24.1536 242.031 24.9023 242.975C25.6576 243.912 26.0352 245.279 26.0352 247.076C26.0352 248.821 25.638 250.175 24.8438 251.139C24.056 252.096 22.9785 252.574 21.6113 252.574ZM21.5918 251.715C22.679 251.715 23.5189 251.311 24.1113 250.504C24.7103 249.697 25.0098 248.567 25.0098 247.115C25.0098 243.997 23.8835 242.438 21.6309 242.438C20.3939 242.438 19.4857 242.779 18.9062 243.463C18.3268 244.14 18.0371 245.247 18.0371 246.783V247.096C18.0371 248.756 18.3138 249.941 18.8672 250.65C19.4271 251.36 20.3353 251.715 21.5918 251.715ZM33.2715 252.574C31.7285 252.574 30.5241 252.099 29.6582 251.148C28.7988 250.198 28.3691 248.867 28.3691 247.154C28.3691 245.462 28.7858 244.107 29.6191 243.092C30.4525 242.07 31.5755 241.559 32.9883 241.559C34.2383 241.559 35.2246 241.995 35.9473 242.867C36.6699 243.74 37.0312 244.924 37.0312 246.422V247.203H29.3848C29.3978 248.661 29.7363 249.775 30.4004 250.543C31.071 251.311 32.028 251.695 33.2715 251.695C33.877 251.695 34.4076 251.653 34.8633 251.568C35.3255 251.484 35.9082 251.301 36.6113 251.021V251.9C36.0124 252.161 35.459 252.337 34.9512 252.428C34.4434 252.525 33.8835 252.574 33.2715 252.574ZM32.9883 242.418C31.9661 242.418 31.1458 242.757 30.5273 243.434C29.9089 244.104 29.5475 245.074 29.4434 246.344H36.0059C36.0059 245.113 35.7389 244.153 35.2051 243.463C34.6712 242.766 33.9323 242.418 32.9883 242.418ZM47.3633 252.379V245.494C47.3633 244.426 47.1387 243.652 46.6895 243.17C46.2402 242.682 45.5436 242.438 44.5996 242.438C43.3301 242.438 42.3991 242.76 41.8066 243.404C41.2207 244.042 40.9277 245.081 40.9277 246.52V252.379H39.9609V241.764H40.7812L40.9668 243.219H41.0254C41.7155 242.112 42.9427 241.559 44.707 241.559C47.1159 241.559 48.3203 242.851 48.3203 245.436V252.379H47.3633ZM65.0781 248.697C65.0781 249.889 64.6387 250.833 63.7598 251.529C62.8874 252.226 61.7253 252.574 60.2734 252.574C58.5286 252.574 57.1908 252.382 56.2598 251.998V251.002C57.2884 251.438 58.6003 251.656 60.1953 251.656C61.3672 251.656 62.2949 251.389 62.9785 250.855C63.6686 250.315 64.0137 249.609 64.0137 248.736C64.0137 248.196 63.8997 247.75 63.6719 247.398C63.444 247.04 63.0729 246.715 62.5586 246.422C62.0443 246.129 61.2891 245.813 60.293 245.475C58.8346 244.973 57.8255 244.433 57.2656 243.854C56.7122 243.268 56.4355 242.49 56.4355 241.52C56.4355 240.452 56.8522 239.583 57.6855 238.912C58.5254 238.235 59.6029 237.896 60.918 237.896C62.2591 237.896 63.5189 238.15 64.6973 238.658L64.3359 239.518C63.151 239.023 62.0182 238.775 60.9375 238.775C59.8828 238.775 59.043 239.02 58.418 239.508C57.793 239.996 57.4805 240.66 57.4805 241.5C57.4805 242.027 57.5749 242.46 57.7637 242.799C57.959 243.137 58.2747 243.443 58.7109 243.717C59.1471 243.984 59.8958 244.306 60.957 244.684C62.0703 245.068 62.9069 245.442 63.4668 245.807C64.0267 246.165 64.4336 246.575 64.6875 247.037C64.9479 247.493 65.0781 248.046 65.0781 248.697ZM74.2969 252.379L74.0527 250.699H73.9746C73.4408 251.383 72.8906 251.868 72.3242 252.154C71.7643 252.434 71.1003 252.574 70.332 252.574C69.2904 252.574 68.4798 252.307 67.9004 251.773C67.321 251.24 67.0312 250.501 67.0312 249.557C67.0312 248.521 67.4609 247.717 68.3203 247.145C69.1862 246.572 70.4362 246.269 72.0703 246.236L74.0918 246.178V245.475C74.0918 244.465 73.8867 243.704 73.4766 243.189C73.0664 242.675 72.4056 242.418 71.4941 242.418C70.5111 242.418 69.4922 242.691 68.4375 243.238L68.0762 242.398C69.2415 241.852 70.3939 241.578 71.5332 241.578C72.6986 241.578 73.5677 241.881 74.1406 242.486C74.7201 243.092 75.0098 244.036 75.0098 245.318V252.379H74.2969ZM70.3906 251.695C71.5234 251.695 72.4154 251.373 73.0664 250.729C73.724 250.077 74.0527 249.176 74.0527 248.023V246.979L72.1973 247.057C70.7064 247.128 69.6419 247.363 69.0039 247.76C68.3724 248.15 68.0566 248.762 68.0566 249.596C68.0566 250.26 68.2585 250.777 68.6621 251.148C69.0723 251.513 69.6484 251.695 70.3906 251.695ZM85.8594 252.379V245.494C85.8594 244.426 85.6348 243.652 85.1855 243.17C84.7363 242.682 84.0397 242.438 83.0957 242.438C81.8262 242.438 80.8952 242.76 80.3027 243.404C79.7168 244.042 79.4238 245.081 79.4238 246.52V252.379H78.457V241.764H79.2773L79.4629 243.219H79.5215C80.2116 242.112 81.4388 241.559 83.2031 241.559C85.612 241.559 86.8164 242.851 86.8164 245.436V252.379H85.8594ZM96.8359 249.615C96.8359 250.566 96.4746 251.298 95.752 251.812C95.0293 252.32 94.0039 252.574 92.6758 252.574C91.2565 252.574 90.1302 252.356 89.2969 251.92V250.875C90.3646 251.409 91.4909 251.676 92.6758 251.676C93.724 251.676 94.5182 251.503 95.0586 251.158C95.6055 250.807 95.8789 250.341 95.8789 249.762C95.8789 249.228 95.6608 248.779 95.2246 248.414C94.7949 248.049 94.0853 247.691 93.0957 247.34C92.0345 246.956 91.2891 246.627 90.8594 246.354C90.4297 246.074 90.1042 245.761 89.8828 245.416C89.668 245.064 89.5605 244.638 89.5605 244.137C89.5605 243.342 89.8926 242.714 90.5566 242.252C91.2272 241.79 92.1615 241.559 93.3594 241.559C94.5052 241.559 95.5924 241.773 96.6211 242.203L96.2598 243.082C95.2181 242.652 94.2513 242.438 93.3594 242.438C92.4935 242.438 91.8066 242.581 91.2988 242.867C90.791 243.154 90.5371 243.551 90.5371 244.059C90.5371 244.612 90.7324 245.055 91.123 245.387C91.5202 245.719 92.2917 246.09 93.4375 246.5C94.3945 246.845 95.0911 247.158 95.5273 247.438C95.9635 247.711 96.2891 248.023 96.5039 248.375C96.7253 248.727 96.8359 249.14 96.8359 249.615ZM105.01 252.379V238.102H106.006V251.441H112.812V252.379H105.01ZM116.006 252.379H115.039V241.764H116.006V252.379ZM114.902 238.814C114.902 238.189 115.107 237.877 115.518 237.877C115.719 237.877 115.876 237.958 115.986 238.121C116.104 238.284 116.162 238.515 116.162 238.814C116.162 239.107 116.104 239.339 115.986 239.508C115.876 239.677 115.719 239.762 115.518 239.762C115.107 239.762 114.902 239.446 114.902 238.814ZM127.852 241.764V242.438L125.654 242.574C126.24 243.303 126.533 244.104 126.533 244.977C126.533 245.999 126.191 246.829 125.508 247.467C124.831 248.098 123.919 248.414 122.773 248.414C122.292 248.414 121.953 248.395 121.758 248.355C121.374 248.557 121.081 248.795 120.879 249.068C120.677 249.342 120.576 249.632 120.576 249.938C120.576 250.276 120.703 250.523 120.957 250.68C121.217 250.836 121.65 250.914 122.256 250.914H124.111C125.264 250.914 126.146 251.148 126.758 251.617C127.37 252.079 127.676 252.766 127.676 253.678C127.676 254.798 127.22 255.66 126.309 256.266C125.404 256.878 124.111 257.184 122.432 257.184C121.097 257.184 120.062 256.926 119.326 256.412C118.597 255.898 118.232 255.182 118.232 254.264C118.232 253.535 118.457 252.929 118.906 252.447C119.362 251.965 119.977 251.637 120.752 251.461C120.433 251.324 120.176 251.132 119.98 250.885C119.792 250.631 119.697 250.341 119.697 250.016C119.697 249.306 120.15 248.681 121.055 248.141C120.436 247.887 119.954 247.49 119.609 246.949C119.264 246.402 119.092 245.777 119.092 245.074C119.092 244.013 119.427 243.163 120.098 242.525C120.775 241.881 121.686 241.559 122.832 241.559C123.529 241.559 124.069 241.627 124.453 241.764H127.852ZM119.258 254.176C119.258 255.634 120.342 256.363 122.51 256.363C125.296 256.363 126.689 255.475 126.689 253.697C126.689 253.059 126.471 252.597 126.035 252.311C125.599 252.024 124.893 251.881 123.916 251.881H122.178C120.231 251.881 119.258 252.646 119.258 254.176ZM120.068 245.074C120.068 245.895 120.316 246.533 120.811 246.988C121.312 247.438 121.979 247.662 122.812 247.662C123.698 247.662 124.375 247.438 124.844 246.988C125.319 246.539 125.557 245.888 125.557 245.035C125.557 244.13 125.312 243.453 124.824 243.004C124.342 242.548 123.665 242.32 122.793 242.32C121.947 242.32 121.279 242.564 120.791 243.053C120.309 243.535 120.068 244.208 120.068 245.074ZM137.441 252.379V245.494C137.441 244.426 137.217 243.652 136.768 243.17C136.318 242.682 135.622 242.438 134.678 242.438C133.408 242.438 132.477 242.76 131.885 243.404C131.299 244.042 131.006 245.081 131.006 246.52V252.379H130.039V237.184H131.006V242.018L130.957 243.375H131.025C131.423 242.737 131.924 242.275 132.529 241.988C133.135 241.702 133.887 241.559 134.785 241.559C137.194 241.559 138.398 242.851 138.398 245.436V252.379H137.441ZM144.639 251.715C145.251 251.715 145.785 251.663 146.24 251.559V252.34C145.771 252.496 145.231 252.574 144.619 252.574C143.682 252.574 142.988 252.324 142.539 251.822C142.096 251.321 141.875 250.533 141.875 249.459V242.604H140.303V242.037L141.875 241.598L142.363 239.195H142.861V241.764H145.977V242.604H142.861V249.322C142.861 250.136 143.005 250.738 143.291 251.129C143.577 251.52 144.027 251.715 144.639 251.715Z" fill="white"/>
<path d="M14.0234 381.6C14.0234 383.865 13.457 385.659 12.3242 386.98C11.1914 388.296 9.62891 388.953 7.63672 388.953C5.65104 388.953 4.0918 388.296 2.95898 386.98C1.82617 385.659 1.25977 383.859 1.25977 381.58C1.25977 379.308 1.82943 377.521 2.96875 376.219C4.11458 374.91 5.67708 374.256 7.65625 374.256C9.64844 374.256 11.2077 374.913 12.334 376.229C13.4603 377.537 14.0234 379.327 14.0234 381.6ZM2.34375 381.6C2.34375 383.644 2.79948 385.226 3.71094 386.346C4.6224 387.459 5.93099 388.016 7.63672 388.016C9.35547 388.016 10.6673 387.462 11.5723 386.355C12.4837 385.249 12.9395 383.663 12.9395 381.6C12.9395 379.542 12.4837 377.967 11.5723 376.873C10.6673 375.773 9.36198 375.223 7.65625 375.223C5.95703 375.223 4.64518 375.776 3.7207 376.883C2.80273 377.99 2.34375 379.562 2.34375 381.6ZM21.6113 388.953C19.9772 388.953 18.7858 388.341 18.0371 387.117H17.9688L17.998 387.938C18.0241 388.419 18.0371 388.947 18.0371 389.52V393.562H17.0703V378.143H17.8906L18.0762 379.656H18.1348C18.8639 378.51 20.0293 377.938 21.6309 377.938C23.0632 377.938 24.1536 378.41 24.9023 379.354C25.6576 380.291 26.0352 381.658 26.0352 383.455C26.0352 385.2 25.638 386.554 24.8438 387.518C24.056 388.475 22.9785 388.953 21.6113 388.953ZM21.5918 388.094C22.679 388.094 23.5189 387.69 24.1113 386.883C24.7103 386.076 25.0098 384.946 25.0098 383.494C25.0098 380.376 23.8835 378.816 21.6309 378.816C20.3939 378.816 19.4857 379.158 18.9062 379.842C18.3268 380.519 18.0371 381.626 18.0371 383.162V383.475C18.0371 385.135 18.3138 386.32 18.8672 387.029C19.4271 387.739 20.3353 388.094 21.5918 388.094ZM33.2715 388.953C31.7285 388.953 30.5241 388.478 29.6582 387.527C28.7988 386.577 28.3691 385.245 28.3691 383.533C28.3691 381.84 28.7858 380.486 29.6191 379.471C30.4525 378.449 31.5755 377.938 32.9883 377.938C34.2383 377.938 35.2246 378.374 35.9473 379.246C36.6699 380.118 37.0312 381.303 37.0312 382.801V383.582H29.3848C29.3978 385.04 29.7363 386.154 30.4004 386.922C31.071 387.69 32.028 388.074 33.2715 388.074C33.877 388.074 34.4076 388.032 34.8633 387.947C35.3255 387.863 35.9082 387.68 36.6113 387.4V388.279C36.0124 388.54 35.459 388.715 34.9512 388.807C34.4434 388.904 33.8835 388.953 33.2715 388.953ZM32.9883 378.797C31.9661 378.797 31.1458 379.135 30.5273 379.812C29.9089 380.483 29.5475 381.453 29.4434 382.723H36.0059C36.0059 381.492 35.7389 380.532 35.2051 379.842C34.6712 379.145 33.9323 378.797 32.9883 378.797ZM47.3633 388.758V381.873C47.3633 380.805 47.1387 380.031 46.6895 379.549C46.2402 379.061 45.5436 378.816 44.5996 378.816C43.3301 378.816 42.3991 379.139 41.8066 379.783C41.2207 380.421 40.9277 381.46 40.9277 382.898V388.758H39.9609V378.143H40.7812L40.9668 379.598H41.0254C41.7155 378.491 42.9427 377.938 44.707 377.938C47.1159 377.938 48.3203 379.23 48.3203 381.814V388.758H47.3633ZM65.0781 385.076C65.0781 386.268 64.6387 387.212 63.7598 387.908C62.8874 388.605 61.7253 388.953 60.2734 388.953C58.5286 388.953 57.1908 388.761 56.2598 388.377V387.381C57.2884 387.817 58.6003 388.035 60.1953 388.035C61.3672 388.035 62.2949 387.768 62.9785 387.234C63.6686 386.694 64.0137 385.988 64.0137 385.115C64.0137 384.575 63.8997 384.129 63.6719 383.777C63.444 383.419 63.0729 383.094 62.5586 382.801C62.0443 382.508 61.2891 382.192 60.293 381.854C58.8346 381.352 57.8255 380.812 57.2656 380.232C56.7122 379.646 56.4355 378.868 56.4355 377.898C56.4355 376.831 56.8522 375.962 57.6855 375.291C58.5254 374.614 59.6029 374.275 60.918 374.275C62.2591 374.275 63.5189 374.529 64.6973 375.037L64.3359 375.896C63.151 375.402 62.0182 375.154 60.9375 375.154C59.8828 375.154 59.043 375.398 58.418 375.887C57.793 376.375 57.4805 377.039 57.4805 377.879C57.4805 378.406 57.5749 378.839 57.7637 379.178C57.959 379.516 58.2747 379.822 58.7109 380.096C59.1471 380.363 59.8958 380.685 60.957 381.062C62.0703 381.447 62.9069 381.821 63.4668 382.186C64.0267 382.544 64.4336 382.954 64.6875 383.416C64.9479 383.872 65.0781 384.425 65.0781 385.076ZM74.2969 388.758L74.0527 387.078H73.9746C73.4408 387.762 72.8906 388.247 72.3242 388.533C71.7643 388.813 71.1003 388.953 70.332 388.953C69.2904 388.953 68.4798 388.686 67.9004 388.152C67.321 387.618 67.0312 386.88 67.0312 385.936C67.0312 384.9 67.4609 384.096 68.3203 383.523C69.1862 382.951 70.4362 382.648 72.0703 382.615L74.0918 382.557V381.854C74.0918 380.844 73.8867 380.083 73.4766 379.568C73.0664 379.054 72.4056 378.797 71.4941 378.797C70.5111 378.797 69.4922 379.07 68.4375 379.617L68.0762 378.777C69.2415 378.23 70.3939 377.957 71.5332 377.957C72.6986 377.957 73.5677 378.26 74.1406 378.865C74.7201 379.471 75.0098 380.415 75.0098 381.697V388.758H74.2969ZM70.3906 388.074C71.5234 388.074 72.4154 387.752 73.0664 387.107C73.724 386.456 74.0527 385.555 74.0527 384.402V383.357L72.1973 383.436C70.7064 383.507 69.6419 383.742 69.0039 384.139C68.3724 384.529 68.0566 385.141 68.0566 385.975C68.0566 386.639 68.2585 387.156 68.6621 387.527C69.0723 387.892 69.6484 388.074 70.3906 388.074ZM85.8594 388.758V381.873C85.8594 380.805 85.6348 380.031 85.1855 379.549C84.7363 379.061 84.0397 378.816 83.0957 378.816C81.8262 378.816 80.8952 379.139 80.3027 379.783C79.7168 380.421 79.4238 381.46 79.4238 382.898V388.758H78.457V378.143H79.2773L79.4629 379.598H79.5215C80.2116 378.491 81.4388 377.938 83.2031 377.938C85.612 377.938 86.8164 379.23 86.8164 381.814V388.758H85.8594ZM96.8359 385.994C96.8359 386.945 96.4746 387.677 95.752 388.191C95.0293 388.699 94.0039 388.953 92.6758 388.953C91.2565 388.953 90.1302 388.735 89.2969 388.299V387.254C90.3646 387.788 91.4909 388.055 92.6758 388.055C93.724 388.055 94.5182 387.882 95.0586 387.537C95.6055 387.186 95.8789 386.72 95.8789 386.141C95.8789 385.607 95.6608 385.158 95.2246 384.793C94.7949 384.428 94.0853 384.07 93.0957 383.719C92.0345 383.335 91.2891 383.006 90.8594 382.732C90.4297 382.452 90.1042 382.14 89.8828 381.795C89.668 381.443 89.5605 381.017 89.5605 380.516C89.5605 379.721 89.8926 379.093 90.5566 378.631C91.2272 378.169 92.1615 377.938 93.3594 377.938C94.5052 377.938 95.5924 378.152 96.6211 378.582L96.2598 379.461C95.2181 379.031 94.2513 378.816 93.3594 378.816C92.4935 378.816 91.8066 378.96 91.2988 379.246C90.791 379.533 90.5371 379.93 90.5371 380.438C90.5371 380.991 90.7324 381.434 91.123 381.766C91.5202 382.098 92.2917 382.469 93.4375 382.879C94.3945 383.224 95.0911 383.536 95.5273 383.816C95.9635 384.09 96.2891 384.402 96.5039 384.754C96.7253 385.105 96.8359 385.519 96.8359 385.994ZM106.006 382.537V388.758H105.01V374.48H108.408C110.179 374.48 111.488 374.809 112.334 375.467C113.18 376.118 113.604 377.101 113.604 378.416C113.604 379.373 113.35 380.18 112.842 380.838C112.34 381.495 111.576 381.967 110.547 382.254L114.424 388.758H113.232L109.551 382.537H106.006ZM106.006 381.678H108.73C109.935 381.678 110.869 381.411 111.533 380.877C112.197 380.337 112.529 379.542 112.529 378.494C112.529 377.407 112.204 376.616 111.553 376.121C110.902 375.626 109.84 375.379 108.369 375.379H106.006V381.678ZM120.947 388.953C119.404 388.953 118.2 388.478 117.334 387.527C116.475 386.577 116.045 385.245 116.045 383.533C116.045 381.84 116.462 380.486 117.295 379.471C118.128 378.449 119.251 377.938 120.664 377.938C121.914 377.938 122.9 378.374 123.623 379.246C124.346 380.118 124.707 381.303 124.707 382.801V383.582H117.061C117.074 385.04 117.412 386.154 118.076 386.922C118.747 387.69 119.704 388.074 120.947 388.074C121.553 388.074 122.083 388.032 122.539 387.947C123.001 387.863 123.584 387.68 124.287 387.4V388.279C123.688 388.54 123.135 388.715 122.627 388.807C122.119 388.904 121.559 388.953 120.947 388.953ZM120.664 378.797C119.642 378.797 118.822 379.135 118.203 379.812C117.585 380.483 117.223 381.453 117.119 382.723H123.682C123.682 381.492 123.415 380.532 122.881 379.842C122.347 379.145 121.608 378.797 120.664 378.797ZM135.918 378.143V378.816L133.721 378.953C134.307 379.682 134.6 380.483 134.6 381.355C134.6 382.378 134.258 383.208 133.574 383.846C132.897 384.477 131.986 384.793 130.84 384.793C130.358 384.793 130.02 384.773 129.824 384.734C129.44 384.936 129.147 385.174 128.945 385.447C128.743 385.721 128.643 386.01 128.643 386.316C128.643 386.655 128.77 386.902 129.023 387.059C129.284 387.215 129.717 387.293 130.322 387.293H132.178C133.33 387.293 134.212 387.527 134.824 387.996C135.436 388.458 135.742 389.145 135.742 390.057C135.742 391.176 135.286 392.039 134.375 392.645C133.47 393.257 132.178 393.562 130.498 393.562C129.163 393.562 128.128 393.305 127.393 392.791C126.663 392.277 126.299 391.561 126.299 390.643C126.299 389.913 126.523 389.308 126.973 388.826C127.428 388.344 128.044 388.016 128.818 387.84C128.499 387.703 128.242 387.511 128.047 387.264C127.858 387.01 127.764 386.72 127.764 386.395C127.764 385.685 128.216 385.06 129.121 384.52C128.503 384.266 128.021 383.868 127.676 383.328C127.331 382.781 127.158 382.156 127.158 381.453C127.158 380.392 127.493 379.542 128.164 378.904C128.841 378.26 129.753 377.938 130.898 377.938C131.595 377.938 132.135 378.006 132.52 378.143H135.918ZM127.324 390.555C127.324 392.013 128.408 392.742 130.576 392.742C133.363 392.742 134.756 391.854 134.756 390.076C134.756 389.438 134.538 388.976 134.102 388.689C133.665 388.403 132.959 388.26 131.982 388.26H130.244C128.298 388.26 127.324 389.025 127.324 390.555ZM128.135 381.453C128.135 382.273 128.382 382.911 128.877 383.367C129.378 383.816 130.046 384.041 130.879 384.041C131.764 384.041 132.441 383.816 132.91 383.367C133.385 382.918 133.623 382.267 133.623 381.414C133.623 380.509 133.379 379.832 132.891 379.383C132.409 378.927 131.732 378.699 130.859 378.699C130.013 378.699 129.346 378.943 128.857 379.432C128.376 379.913 128.135 380.587 128.135 381.453ZM138.945 378.143V385.018C138.945 386.085 139.17 386.863 139.619 387.352C140.068 387.833 140.765 388.074 141.709 388.074C142.972 388.074 143.9 387.755 144.492 387.117C145.091 386.479 145.391 385.441 145.391 384.002V378.143H146.348V388.758H145.527L145.352 387.293H145.293C144.603 388.4 143.376 388.953 141.611 388.953C139.196 388.953 137.988 387.661 137.988 385.076V378.143H138.945ZM150.869 388.758H149.902V373.562H150.869V388.758ZM160.879 388.758L160.635 387.078H160.557C160.023 387.762 159.473 388.247 158.906 388.533C158.346 388.813 157.682 388.953 156.914 388.953C155.872 388.953 155.062 388.686 154.482 388.152C153.903 387.618 153.613 386.88 153.613 385.936C153.613 384.9 154.043 384.096 154.902 383.523C155.768 382.951 157.018 382.648 158.652 382.615L160.674 382.557V381.854C160.674 380.844 160.469 380.083 160.059 379.568C159.648 379.054 158.988 378.797 158.076 378.797C157.093 378.797 156.074 379.07 155.02 379.617L154.658 378.777C155.824 378.23 156.976 377.957 158.115 377.957C159.281 377.957 160.15 378.26 160.723 378.865C161.302 379.471 161.592 380.415 161.592 381.697V388.758H160.879ZM156.973 388.074C158.105 388.074 158.997 387.752 159.648 387.107C160.306 386.456 160.635 385.555 160.635 384.402V383.357L158.779 383.436C157.288 383.507 156.224 383.742 155.586 384.139C154.954 384.529 154.639 385.141 154.639 385.975C154.639 386.639 154.84 387.156 155.244 387.527C155.654 387.892 156.23 388.074 156.973 388.074ZM169.219 377.938C169.668 377.938 170.15 377.983 170.664 378.074L170.479 379.002C170.036 378.891 169.577 378.836 169.102 378.836C168.197 378.836 167.454 379.22 166.875 379.988C166.296 380.757 166.006 381.727 166.006 382.898V388.758H165.039V378.143H165.859L165.957 380.057H166.025C166.462 379.275 166.927 378.729 167.422 378.416C167.917 378.097 168.516 377.938 169.219 377.938Z" fill="white"/>
<path d="M14.0234 445.701C14.0234 447.967 13.457 449.76 12.3242 451.082C11.1914 452.397 9.62891 453.055 7.63672 453.055C5.65104 453.055 4.0918 452.397 2.95898 451.082C1.82617 449.76 1.25977 447.96 1.25977 445.682C1.25977 443.41 1.82943 441.622 2.96875 440.32C4.11458 439.012 5.67708 438.357 7.65625 438.357C9.64844 438.357 11.2077 439.015 12.334 440.33C13.4603 441.639 14.0234 443.429 14.0234 445.701ZM2.34375 445.701C2.34375 447.745 2.79948 449.327 3.71094 450.447C4.6224 451.561 5.93099 452.117 7.63672 452.117C9.35547 452.117 10.6673 451.564 11.5723 450.457C12.4837 449.35 12.9395 447.765 12.9395 445.701C12.9395 443.644 12.4837 442.068 11.5723 440.975C10.6673 439.874 9.36198 439.324 7.65625 439.324C5.95703 439.324 4.64518 439.878 3.7207 440.984C2.80273 442.091 2.34375 443.663 2.34375 445.701ZM21.6113 453.055C19.9772 453.055 18.7858 452.443 18.0371 451.219H17.9688L17.998 452.039C18.0241 452.521 18.0371 453.048 18.0371 453.621V457.664H17.0703V442.244H17.8906L18.0762 443.758H18.1348C18.8639 442.612 20.0293 442.039 21.6309 442.039C23.0632 442.039 24.1536 442.511 24.9023 443.455C25.6576 444.393 26.0352 445.76 26.0352 447.557C26.0352 449.301 25.638 450.656 24.8438 451.619C24.056 452.576 22.9785 453.055 21.6113 453.055ZM21.5918 452.195C22.679 452.195 23.5189 451.792 24.1113 450.984C24.7103 450.177 25.0098 449.048 25.0098 447.596C25.0098 444.477 23.8835 442.918 21.6309 442.918C20.3939 442.918 19.4857 443.26 18.9062 443.943C18.3268 444.62 18.0371 445.727 18.0371 447.264V447.576C18.0371 449.236 18.3138 450.421 18.8672 451.131C19.4271 451.84 20.3353 452.195 21.5918 452.195ZM33.2715 453.055C31.7285 453.055 30.5241 452.579 29.6582 451.629C28.7988 450.678 28.3691 449.347 28.3691 447.635C28.3691 445.942 28.7858 444.588 29.6191 443.572C30.4525 442.55 31.5755 442.039 32.9883 442.039C34.2383 442.039 35.2246 442.475 35.9473 443.348C36.6699 444.22 37.0312 445.405 37.0312 446.902V447.684H29.3848C29.3978 449.142 29.7363 450.255 30.4004 451.023C31.071 451.792 32.028 452.176 33.2715 452.176C33.877 452.176 34.4076 452.133 34.8633 452.049C35.3255 451.964 35.9082 451.782 36.6113 451.502V452.381C36.0124 452.641 35.459 452.817 34.9512 452.908C34.4434 453.006 33.8835 453.055 33.2715 453.055ZM32.9883 442.898C31.9661 442.898 31.1458 443.237 30.5273 443.914C29.9089 444.585 29.5475 445.555 29.4434 446.824H36.0059C36.0059 445.594 35.7389 444.633 35.2051 443.943C34.6712 443.247 33.9323 442.898 32.9883 442.898ZM47.3633 452.859V445.975C47.3633 444.907 47.1387 444.132 46.6895 443.65C46.2402 443.162 45.5436 442.918 44.5996 442.918C43.3301 442.918 42.3991 443.24 41.8066 443.885C41.2207 444.523 40.9277 445.561 40.9277 447V452.859H39.9609V442.244H40.7812L40.9668 443.699H41.0254C41.7155 442.592 42.9427 442.039 44.707 442.039C47.1159 442.039 48.3203 443.331 48.3203 445.916V452.859H47.3633ZM65.0781 449.178C65.0781 450.369 64.6387 451.313 63.7598 452.01C62.8874 452.706 61.7253 453.055 60.2734 453.055C58.5286 453.055 57.1908 452.863 56.2598 452.479V451.482C57.2884 451.919 58.6003 452.137 60.1953 452.137C61.3672 452.137 62.2949 451.87 62.9785 451.336C63.6686 450.796 64.0137 450.089 64.0137 449.217C64.0137 448.676 63.8997 448.23 63.6719 447.879C63.444 447.521 63.0729 447.195 62.5586 446.902C62.0443 446.609 61.2891 446.294 60.293 445.955C58.8346 445.454 57.8255 444.913 57.2656 444.334C56.7122 443.748 56.4355 442.97 56.4355 442C56.4355 440.932 56.8522 440.063 57.6855 439.393C58.5254 438.715 59.6029 438.377 60.918 438.377C62.2591 438.377 63.5189 438.631 64.6973 439.139L64.3359 439.998C63.151 439.503 62.0182 439.256 60.9375 439.256C59.8828 439.256 59.043 439.5 58.418 439.988C57.793 440.477 57.4805 441.141 57.4805 441.98C57.4805 442.508 57.5749 442.941 57.7637 443.279C57.959 443.618 58.2747 443.924 58.7109 444.197C59.1471 444.464 59.8958 444.786 60.957 445.164C62.0703 445.548 62.9069 445.923 63.4668 446.287C64.0267 446.645 64.4336 447.055 64.6875 447.518C64.9479 447.973 65.0781 448.527 65.0781 449.178ZM74.2969 452.859L74.0527 451.18H73.9746C73.4408 451.863 72.8906 452.348 72.3242 452.635C71.7643 452.915 71.1003 453.055 70.332 453.055C69.2904 453.055 68.4798 452.788 67.9004 452.254C67.321 451.72 67.0312 450.981 67.0312 450.037C67.0312 449.002 67.4609 448.198 68.3203 447.625C69.1862 447.052 70.4362 446.749 72.0703 446.717L74.0918 446.658V445.955C74.0918 444.946 73.8867 444.184 73.4766 443.67C73.0664 443.156 72.4056 442.898 71.4941 442.898C70.5111 442.898 69.4922 443.172 68.4375 443.719L68.0762 442.879C69.2415 442.332 70.3939 442.059 71.5332 442.059C72.6986 442.059 73.5677 442.361 74.1406 442.967C74.7201 443.572 75.0098 444.516 75.0098 445.799V452.859H74.2969ZM70.3906 452.176C71.5234 452.176 72.4154 451.854 73.0664 451.209C73.724 450.558 74.0527 449.656 74.0527 448.504V447.459L72.1973 447.537C70.7064 447.609 69.6419 447.843 69.0039 448.24C68.3724 448.631 68.0566 449.243 68.0566 450.076C68.0566 450.74 68.2585 451.258 68.6621 451.629C69.0723 451.993 69.6484 452.176 70.3906 452.176ZM85.8594 452.859V445.975C85.8594 444.907 85.6348 444.132 85.1855 443.65C84.7363 443.162 84.0397 442.918 83.0957 442.918C81.8262 442.918 80.8952 443.24 80.3027 443.885C79.7168 444.523 79.4238 445.561 79.4238 447V452.859H78.457V442.244H79.2773L79.4629 443.699H79.5215C80.2116 442.592 81.4388 442.039 83.2031 442.039C85.612 442.039 86.8164 443.331 86.8164 445.916V452.859H85.8594ZM96.8359 450.096C96.8359 451.046 96.4746 451.779 95.752 452.293C95.0293 452.801 94.0039 453.055 92.6758 453.055C91.2565 453.055 90.1302 452.837 89.2969 452.4V451.355C90.3646 451.889 91.4909 452.156 92.6758 452.156C93.724 452.156 94.5182 451.984 95.0586 451.639C95.6055 451.287 95.8789 450.822 95.8789 450.242C95.8789 449.708 95.6608 449.259 95.2246 448.895C94.7949 448.53 94.0853 448.172 93.0957 447.82C92.0345 447.436 91.2891 447.107 90.8594 446.834C90.4297 446.554 90.1042 446.242 89.8828 445.896C89.668 445.545 89.5605 445.118 89.5605 444.617C89.5605 443.823 89.8926 443.195 90.5566 442.732C91.2272 442.27 92.1615 442.039 93.3594 442.039C94.5052 442.039 95.5924 442.254 96.6211 442.684L96.2598 443.562C95.2181 443.133 94.2513 442.918 93.3594 442.918C92.4935 442.918 91.8066 443.061 91.2988 443.348C90.791 443.634 90.5371 444.031 90.5371 444.539C90.5371 445.092 90.7324 445.535 91.123 445.867C91.5202 446.199 92.2917 446.57 93.4375 446.98C94.3945 447.326 95.0911 447.638 95.5273 447.918C95.9635 448.191 96.2891 448.504 96.5039 448.855C96.7253 449.207 96.8359 449.62 96.8359 450.096ZM112.891 449.178C112.891 450.369 112.451 451.313 111.572 452.01C110.7 452.706 109.538 453.055 108.086 453.055C106.341 453.055 105.003 452.863 104.072 452.479V451.482C105.101 451.919 106.413 452.137 108.008 452.137C109.18 452.137 110.107 451.87 110.791 451.336C111.481 450.796 111.826 450.089 111.826 449.217C111.826 448.676 111.712 448.23 111.484 447.879C111.257 447.521 110.885 447.195 110.371 446.902C109.857 446.609 109.102 446.294 108.105 445.955C106.647 445.454 105.638 444.913 105.078 444.334C104.525 443.748 104.248 442.97 104.248 442C104.248 440.932 104.665 440.063 105.498 439.393C106.338 438.715 107.415 438.377 108.73 438.377C110.072 438.377 111.331 438.631 112.51 439.139L112.148 439.998C110.964 439.503 109.831 439.256 108.75 439.256C107.695 439.256 106.855 439.5 106.23 439.988C105.605 440.477 105.293 441.141 105.293 441.98C105.293 442.508 105.387 442.941 105.576 443.279C105.771 443.618 106.087 443.924 106.523 444.197C106.96 444.464 107.708 444.786 108.77 445.164C109.883 445.548 110.719 445.923 111.279 446.287C111.839 446.645 112.246 447.055 112.5 447.518C112.76 447.973 112.891 448.527 112.891 449.178ZM119.951 453.055C118.408 453.055 117.204 452.579 116.338 451.629C115.479 450.678 115.049 449.347 115.049 447.635C115.049 445.942 115.465 444.588 116.299 443.572C117.132 442.55 118.255 442.039 119.668 442.039C120.918 442.039 121.904 442.475 122.627 443.348C123.35 444.22 123.711 445.405 123.711 446.902V447.684H116.064C116.077 449.142 116.416 450.255 117.08 451.023C117.751 451.792 118.708 452.176 119.951 452.176C120.557 452.176 121.087 452.133 121.543 452.049C122.005 451.964 122.588 451.782 123.291 451.502V452.381C122.692 452.641 122.139 452.817 121.631 452.908C121.123 453.006 120.563 453.055 119.951 453.055ZM119.668 442.898C118.646 442.898 117.826 443.237 117.207 443.914C116.589 444.585 116.227 445.555 116.123 446.824H122.686C122.686 445.594 122.419 444.633 121.885 443.943C121.351 443.247 120.612 442.898 119.668 442.898ZM139.902 452.859V445.896C139.902 444.861 139.701 444.106 139.297 443.631C138.893 443.156 138.275 442.918 137.441 442.918C136.354 442.918 135.55 443.217 135.029 443.816C134.508 444.415 134.248 445.356 134.248 446.639V452.859H133.262V445.604C133.262 443.813 132.441 442.918 130.801 442.918C129.688 442.918 128.877 443.243 128.369 443.895C127.861 444.539 127.607 445.574 127.607 447V452.859H126.641V442.244H127.441L127.646 443.699H127.705C127.998 443.172 128.415 442.765 128.955 442.479C129.495 442.186 130.091 442.039 130.742 442.039C132.415 442.039 133.49 442.667 133.965 443.924H134.004C134.349 443.318 134.811 442.853 135.391 442.527C135.977 442.202 136.641 442.039 137.383 442.039C138.542 442.039 139.411 442.348 139.99 442.967C140.57 443.585 140.859 444.568 140.859 445.916V452.859H139.902ZM145.264 452.859H144.297V442.244H145.264V452.859ZM144.16 439.295C144.16 438.67 144.365 438.357 144.775 438.357C144.977 438.357 145.133 438.439 145.244 438.602C145.361 438.764 145.42 438.995 145.42 439.295C145.42 439.588 145.361 439.819 145.244 439.988C145.133 440.158 144.977 440.242 144.775 440.242C144.365 440.242 144.16 439.926 144.16 439.295ZM153.311 442.039C154.795 442.039 155.911 442.508 156.66 443.445C157.415 444.376 157.793 445.74 157.793 447.537C157.793 449.301 157.396 450.662 156.602 451.619C155.814 452.576 154.704 453.055 153.271 453.055C152.516 453.055 151.836 452.898 151.23 452.586C150.625 452.273 150.146 451.831 149.795 451.258H149.707L149.434 452.859H148.828V437.664H149.795V441.482C149.795 442.055 149.782 442.583 149.756 443.064L149.727 443.895H149.795C150.199 443.257 150.684 442.788 151.25 442.488C151.823 442.189 152.51 442.039 153.311 442.039ZM153.291 442.918C152.041 442.918 151.146 443.276 150.605 443.992C150.065 444.708 149.795 445.89 149.795 447.537V447.703C149.795 449.305 150.075 450.454 150.635 451.15C151.201 451.847 152.08 452.195 153.271 452.195C154.43 452.195 155.303 451.792 155.889 450.984C156.475 450.171 156.768 449.015 156.768 447.518C156.768 444.451 155.609 442.918 153.291 442.918ZM169.521 447.537C169.521 449.269 169.102 450.623 168.262 451.6C167.422 452.57 166.263 453.055 164.785 453.055C163.854 453.055 163.034 452.83 162.324 452.381C161.615 451.932 161.071 451.287 160.693 450.447C160.316 449.607 160.127 448.637 160.127 447.537C160.127 445.805 160.547 444.458 161.387 443.494C162.227 442.524 163.379 442.039 164.844 442.039C166.302 442.039 167.445 442.531 168.271 443.514C169.105 444.49 169.521 445.831 169.521 447.537ZM161.143 447.537C161.143 448.995 161.462 450.135 162.1 450.955C162.744 451.769 163.652 452.176 164.824 452.176C165.996 452.176 166.901 451.769 167.539 450.955C168.184 450.135 168.506 448.995 168.506 447.537C168.506 446.072 168.18 444.936 167.529 444.129C166.885 443.322 165.977 442.918 164.805 442.918C163.633 442.918 162.728 443.322 162.09 444.129C161.458 444.93 161.143 446.066 161.143 447.537ZM173.428 452.859H172.461V437.664H173.428V452.859ZM180.879 442.039C181.647 442.039 182.311 442.179 182.871 442.459C183.431 442.739 183.932 443.217 184.375 443.895H184.434C184.395 443.074 184.375 442.27 184.375 441.482V437.664H185.332V452.859H184.697L184.453 451.238H184.375C183.568 452.449 182.409 453.055 180.898 453.055C179.434 453.055 178.314 452.599 177.539 451.688C176.764 450.776 176.377 449.448 176.377 447.703C176.377 445.867 176.761 444.464 177.529 443.494C178.298 442.524 179.414 442.039 180.879 442.039ZM180.879 442.918C179.72 442.918 178.848 443.325 178.262 444.139C177.682 444.952 177.393 446.134 177.393 447.684C177.393 450.691 178.561 452.195 180.898 452.195C182.096 452.195 182.975 451.847 183.535 451.15C184.095 450.454 184.375 449.305 184.375 447.703V447.537C184.375 445.896 184.098 444.718 183.545 444.002C182.998 443.279 182.109 442.918 180.879 442.918Z" fill="white"/>
<path d="M2.72949 12H1.2251V2.71973H6.46191V4.00195H2.72949V6.90283H6.22705V8.19141H2.72949V12ZM17.3833 7.34717C17.3833 8.85791 17.0046 10.0322 16.2471 10.8701C15.4938 11.708 14.4253 12.127 13.0415 12.127C11.6408 12.127 10.5638 11.7122 9.81055 10.8828C9.06152 10.0492 8.68701 8.86637 8.68701 7.33447C8.68701 5.80257 9.06364 4.62614 9.81689 3.80518C10.5744 2.98421 11.6535 2.57373 13.0542 2.57373C14.4338 2.57373 15.5002 2.99056 16.2534 3.82422C17.0067 4.65788 17.3833 5.83219 17.3833 7.34717ZM10.2993 7.34717C10.2993 8.48975 10.5299 9.35726 10.9912 9.94971C11.4525 10.5379 12.1359 10.832 13.0415 10.832C13.9429 10.832 14.6221 10.54 15.0791 9.95605C15.5404 9.37207 15.771 8.50244 15.771 7.34717C15.771 6.20882 15.5425 5.34554 15.0854 4.75732C14.6326 4.16911 13.9556 3.875 13.0542 3.875C12.1444 3.875 11.4567 4.16911 10.9912 4.75732C10.5299 5.34554 10.2993 6.20882 10.2993 7.34717ZM28.1079 12H26.248L21.6841 4.60498H21.6333L21.665 5.01758C21.7243 5.80469 21.7539 6.52409 21.7539 7.17578V12H20.3765V2.71973H22.2173L26.7686 10.0767H26.8066C26.7982 9.97933 26.7812 9.62598 26.7559 9.0166C26.7305 8.40299 26.7178 7.9248 26.7178 7.58203V2.71973H28.1079V12ZM34.7637 12H33.2466V4.021H30.5171V2.71973H37.4932V4.021H34.7637V12Z" fill="#A4A8B9"/>
<path d="M14.0234 317.037C14.0234 319.303 13.457 321.096 12.3242 322.418C11.1914 323.733 9.62891 324.391 7.63672 324.391C5.65104 324.391 4.0918 323.733 2.95898 322.418C1.82617 321.096 1.25977 319.296 1.25977 317.018C1.25977 314.745 1.82943 312.958 2.96875 311.656C4.11458 310.348 5.67708 309.693 7.65625 309.693C9.64844 309.693 11.2077 310.351 12.334 311.666C13.4603 312.975 14.0234 314.765 14.0234 317.037ZM2.34375 317.037C2.34375 319.081 2.79948 320.663 3.71094 321.783C4.6224 322.896 5.93099 323.453 7.63672 323.453C9.35547 323.453 10.6673 322.9 11.5723 321.793C12.4837 320.686 12.9395 319.101 12.9395 317.037C12.9395 314.98 12.4837 313.404 11.5723 312.311C10.6673 311.21 9.36198 310.66 7.65625 310.66C5.95703 310.66 4.64518 311.214 3.7207 312.32C2.80273 313.427 2.34375 314.999 2.34375 317.037ZM21.6113 324.391C19.9772 324.391 18.7858 323.779 18.0371 322.555H17.9688L17.998 323.375C18.0241 323.857 18.0371 324.384 18.0371 324.957V329H17.0703V313.58H17.8906L18.0762 315.094H18.1348C18.8639 313.948 20.0293 313.375 21.6309 313.375C23.0632 313.375 24.1536 313.847 24.9023 314.791C25.6576 315.729 26.0352 317.096 26.0352 318.893C26.0352 320.637 25.638 321.992 24.8438 322.955C24.056 323.912 22.9785 324.391 21.6113 324.391ZM21.5918 323.531C22.679 323.531 23.5189 323.128 24.1113 322.32C24.7103 321.513 25.0098 320.383 25.0098 318.932C25.0098 315.813 23.8835 314.254 21.6309 314.254C20.3939 314.254 19.4857 314.596 18.9062 315.279C18.3268 315.956 18.0371 317.063 18.0371 318.6V318.912C18.0371 320.572 18.3138 321.757 18.8672 322.467C19.4271 323.176 20.3353 323.531 21.5918 323.531ZM33.2715 324.391C31.7285 324.391 30.5241 323.915 29.6582 322.965C28.7988 322.014 28.3691 320.683 28.3691 318.971C28.3691 317.278 28.7858 315.924 29.6191 314.908C30.4525 313.886 31.5755 313.375 32.9883 313.375C34.2383 313.375 35.2246 313.811 35.9473 314.684C36.6699 315.556 37.0312 316.741 37.0312 318.238V319.02H29.3848C29.3978 320.478 29.7363 321.591 30.4004 322.359C31.071 323.128 32.028 323.512 33.2715 323.512C33.877 323.512 34.4076 323.469 34.8633 323.385C35.3255 323.3 35.9082 323.118 36.6113 322.838V323.717C36.0124 323.977 35.459 324.153 34.9512 324.244C34.4434 324.342 33.8835 324.391 33.2715 324.391ZM32.9883 314.234C31.9661 314.234 31.1458 314.573 30.5273 315.25C29.9089 315.921 29.5475 316.891 29.4434 318.16H36.0059C36.0059 316.93 35.7389 315.969 35.2051 315.279C34.6712 314.583 33.9323 314.234 32.9883 314.234ZM47.3633 324.195V317.311C47.3633 316.243 47.1387 315.468 46.6895 314.986C46.2402 314.498 45.5436 314.254 44.5996 314.254C43.3301 314.254 42.3991 314.576 41.8066 315.221C41.2207 315.859 40.9277 316.897 40.9277 318.336V324.195H39.9609V313.58H40.7812L40.9668 315.035H41.0254C41.7155 313.928 42.9427 313.375 44.707 313.375C47.1159 313.375 48.3203 314.667 48.3203 317.252V324.195H47.3633ZM65.0781 320.514C65.0781 321.705 64.6387 322.649 63.7598 323.346C62.8874 324.042 61.7253 324.391 60.2734 324.391C58.5286 324.391 57.1908 324.199 56.2598 323.814V322.818C57.2884 323.255 58.6003 323.473 60.1953 323.473C61.3672 323.473 62.2949 323.206 62.9785 322.672C63.6686 322.132 64.0137 321.425 64.0137 320.553C64.0137 320.012 63.8997 319.566 63.6719 319.215C63.444 318.857 63.0729 318.531 62.5586 318.238C62.0443 317.945 61.2891 317.63 60.293 317.291C58.8346 316.79 57.8255 316.249 57.2656 315.67C56.7122 315.084 56.4355 314.306 56.4355 313.336C56.4355 312.268 56.8522 311.399 57.6855 310.729C58.5254 310.051 59.6029 309.713 60.918 309.713C62.2591 309.713 63.5189 309.967 64.6973 310.475L64.3359 311.334C63.151 310.839 62.0182 310.592 60.9375 310.592C59.8828 310.592 59.043 310.836 58.418 311.324C57.793 311.812 57.4805 312.477 57.4805 313.316C57.4805 313.844 57.5749 314.277 57.7637 314.615C57.959 314.954 58.2747 315.26 58.7109 315.533C59.1471 315.8 59.8958 316.122 60.957 316.5C62.0703 316.884 62.9069 317.258 63.4668 317.623C64.0267 317.981 64.4336 318.391 64.6875 318.854C64.9479 319.309 65.0781 319.863 65.0781 320.514ZM74.2969 324.195L74.0527 322.516H73.9746C73.4408 323.199 72.8906 323.684 72.3242 323.971C71.7643 324.251 71.1003 324.391 70.332 324.391C69.2904 324.391 68.4798 324.124 67.9004 323.59C67.321 323.056 67.0312 322.317 67.0312 321.373C67.0312 320.338 67.4609 319.534 68.3203 318.961C69.1862 318.388 70.4362 318.085 72.0703 318.053L74.0918 317.994V317.291C74.0918 316.282 73.8867 315.52 73.4766 315.006C73.0664 314.492 72.4056 314.234 71.4941 314.234C70.5111 314.234 69.4922 314.508 68.4375 315.055L68.0762 314.215C69.2415 313.668 70.3939 313.395 71.5332 313.395C72.6986 313.395 73.5677 313.697 74.1406 314.303C74.7201 314.908 75.0098 315.852 75.0098 317.135V324.195H74.2969ZM70.3906 323.512C71.5234 323.512 72.4154 323.189 73.0664 322.545C73.724 321.894 74.0527 320.992 74.0527 319.84V318.795L72.1973 318.873C70.7064 318.945 69.6419 319.179 69.0039 319.576C68.3724 319.967 68.0566 320.579 68.0566 321.412C68.0566 322.076 68.2585 322.594 68.6621 322.965C69.0723 323.329 69.6484 323.512 70.3906 323.512ZM85.8594 324.195V317.311C85.8594 316.243 85.6348 315.468 85.1855 314.986C84.7363 314.498 84.0397 314.254 83.0957 314.254C81.8262 314.254 80.8952 314.576 80.3027 315.221C79.7168 315.859 79.4238 316.897 79.4238 318.336V324.195H78.457V313.58H79.2773L79.4629 315.035H79.5215C80.2116 313.928 81.4388 313.375 83.2031 313.375C85.612 313.375 86.8164 314.667 86.8164 317.252V324.195H85.8594ZM96.8359 321.432C96.8359 322.382 96.4746 323.115 95.752 323.629C95.0293 324.137 94.0039 324.391 92.6758 324.391C91.2565 324.391 90.1302 324.173 89.2969 323.736V322.691C90.3646 323.225 91.4909 323.492 92.6758 323.492C93.724 323.492 94.5182 323.32 95.0586 322.975C95.6055 322.623 95.8789 322.158 95.8789 321.578C95.8789 321.044 95.6608 320.595 95.2246 320.23C94.7949 319.866 94.0853 319.508 93.0957 319.156C92.0345 318.772 91.2891 318.443 90.8594 318.17C90.4297 317.89 90.1042 317.577 89.8828 317.232C89.668 316.881 89.5605 316.454 89.5605 315.953C89.5605 315.159 89.8926 314.531 90.5566 314.068C91.2272 313.606 92.1615 313.375 93.3594 313.375C94.5052 313.375 95.5924 313.59 96.6211 314.02L96.2598 314.898C95.2181 314.469 94.2513 314.254 93.3594 314.254C92.4935 314.254 91.8066 314.397 91.2988 314.684C90.791 314.97 90.5371 315.367 90.5371 315.875C90.5371 316.428 90.7324 316.871 91.123 317.203C91.5202 317.535 92.2917 317.906 93.4375 318.316C94.3945 318.661 95.0911 318.974 95.5273 319.254C95.9635 319.527 96.2891 319.84 96.5039 320.191C96.7253 320.543 96.8359 320.956 96.8359 321.432ZM112.891 320.514C112.891 321.705 112.451 322.649 111.572 323.346C110.7 324.042 109.538 324.391 108.086 324.391C106.341 324.391 105.003 324.199 104.072 323.814V322.818C105.101 323.255 106.413 323.473 108.008 323.473C109.18 323.473 110.107 323.206 110.791 322.672C111.481 322.132 111.826 321.425 111.826 320.553C111.826 320.012 111.712 319.566 111.484 319.215C111.257 318.857 110.885 318.531 110.371 318.238C109.857 317.945 109.102 317.63 108.105 317.291C106.647 316.79 105.638 316.249 105.078 315.67C104.525 315.084 104.248 314.306 104.248 313.336C104.248 312.268 104.665 311.399 105.498 310.729C106.338 310.051 107.415 309.713 108.73 309.713C110.072 309.713 111.331 309.967 112.51 310.475L112.148 311.334C110.964 310.839 109.831 310.592 108.75 310.592C107.695 310.592 106.855 310.836 106.23 311.324C105.605 311.812 105.293 312.477 105.293 313.316C105.293 313.844 105.387 314.277 105.576 314.615C105.771 314.954 106.087 315.26 106.523 315.533C106.96 315.8 107.708 316.122 108.77 316.5C109.883 316.884 110.719 317.258 111.279 317.623C111.839 317.981 112.246 318.391 112.5 318.854C112.76 319.309 112.891 319.863 112.891 320.514ZM119.951 324.391C118.408 324.391 117.204 323.915 116.338 322.965C115.479 322.014 115.049 320.683 115.049 318.971C115.049 317.278 115.465 315.924 116.299 314.908C117.132 313.886 118.255 313.375 119.668 313.375C120.918 313.375 121.904 313.811 122.627 314.684C123.35 315.556 123.711 316.741 123.711 318.238V319.02H116.064C116.077 320.478 116.416 321.591 117.08 322.359C117.751 323.128 118.708 323.512 119.951 323.512C120.557 323.512 121.087 323.469 121.543 323.385C122.005 323.3 122.588 323.118 123.291 322.838V323.717C122.692 323.977 122.139 324.153 121.631 324.244C121.123 324.342 120.563 324.391 119.951 324.391ZM119.668 314.234C118.646 314.234 117.826 314.573 117.207 315.25C116.589 315.921 116.227 316.891 116.123 318.16H122.686C122.686 316.93 122.419 315.969 121.885 315.279C121.351 314.583 120.612 314.234 119.668 314.234ZM139.902 324.195V317.232C139.902 316.197 139.701 315.442 139.297 314.967C138.893 314.492 138.275 314.254 137.441 314.254C136.354 314.254 135.55 314.553 135.029 315.152C134.508 315.751 134.248 316.692 134.248 317.975V324.195H133.262V316.939C133.262 315.149 132.441 314.254 130.801 314.254C129.688 314.254 128.877 314.579 128.369 315.23C127.861 315.875 127.607 316.91 127.607 318.336V324.195H126.641V313.58H127.441L127.646 315.035H127.705C127.998 314.508 128.415 314.101 128.955 313.814C129.495 313.521 130.091 313.375 130.742 313.375C132.415 313.375 133.49 314.003 133.965 315.26H134.004C134.349 314.654 134.811 314.189 135.391 313.863C135.977 313.538 136.641 313.375 137.383 313.375C138.542 313.375 139.411 313.684 139.99 314.303C140.57 314.921 140.859 315.904 140.859 317.252V324.195H139.902ZM145.264 324.195H144.297V313.58H145.264V324.195ZM144.16 310.631C144.16 310.006 144.365 309.693 144.775 309.693C144.977 309.693 145.133 309.775 145.244 309.938C145.361 310.1 145.42 310.331 145.42 310.631C145.42 310.924 145.361 311.155 145.244 311.324C145.133 311.493 144.977 311.578 144.775 311.578C144.365 311.578 144.16 311.262 144.16 310.631ZM153.311 313.375C154.795 313.375 155.911 313.844 156.66 314.781C157.415 315.712 157.793 317.076 157.793 318.873C157.793 320.637 157.396 321.998 156.602 322.955C155.814 323.912 154.704 324.391 153.271 324.391C152.516 324.391 151.836 324.234 151.23 323.922C150.625 323.609 150.146 323.167 149.795 322.594H149.707L149.434 324.195H148.828V309H149.795V312.818C149.795 313.391 149.782 313.919 149.756 314.4L149.727 315.23H149.795C150.199 314.592 150.684 314.124 151.25 313.824C151.823 313.525 152.51 313.375 153.311 313.375ZM153.291 314.254C152.041 314.254 151.146 314.612 150.605 315.328C150.065 316.044 149.795 317.226 149.795 318.873V319.039C149.795 320.641 150.075 321.79 150.635 322.486C151.201 323.183 152.08 323.531 153.271 323.531C154.43 323.531 155.303 323.128 155.889 322.32C156.475 321.507 156.768 320.351 156.768 318.854C156.768 315.787 155.609 314.254 153.291 314.254ZM161.709 324.195H160.742V309H161.709V324.195ZM174.053 318.873C174.053 320.605 173.633 321.959 172.793 322.936C171.953 323.906 170.794 324.391 169.316 324.391C168.385 324.391 167.565 324.166 166.855 323.717C166.146 323.268 165.602 322.623 165.225 321.783C164.847 320.943 164.658 319.973 164.658 318.873C164.658 317.141 165.078 315.794 165.918 314.83C166.758 313.86 167.91 313.375 169.375 313.375C170.833 313.375 171.976 313.867 172.803 314.85C173.636 315.826 174.053 317.167 174.053 318.873ZM165.674 318.873C165.674 320.331 165.993 321.471 166.631 322.291C167.275 323.105 168.184 323.512 169.355 323.512C170.527 323.512 171.432 323.105 172.07 322.291C172.715 321.471 173.037 320.331 173.037 318.873C173.037 317.408 172.712 316.272 172.061 315.465C171.416 314.658 170.508 314.254 169.336 314.254C168.164 314.254 167.259 314.658 166.621 315.465C165.99 316.266 165.674 317.402 165.674 318.873ZM180.879 313.375C181.647 313.375 182.311 313.515 182.871 313.795C183.431 314.075 183.932 314.553 184.375 315.23H184.434C184.395 314.41 184.375 313.606 184.375 312.818V309H185.332V324.195H184.697L184.453 322.574H184.375C183.568 323.785 182.409 324.391 180.898 324.391C179.434 324.391 178.314 323.935 177.539 323.023C176.764 322.112 176.377 320.784 176.377 319.039C176.377 317.203 176.761 315.8 177.529 314.83C178.298 313.86 179.414 313.375 180.879 313.375ZM180.879 314.254C179.72 314.254 178.848 314.661 178.262 315.475C177.682 316.288 177.393 317.47 177.393 319.02C177.393 322.027 178.561 323.531 180.898 323.531C182.096 323.531 182.975 323.183 183.535 322.486C184.095 321.79 184.375 320.641 184.375 319.039V318.873C184.375 317.232 184.098 316.054 183.545 315.338C182.998 314.615 182.109 314.254 180.879 314.254Z" fill="white"/>
</svg>
