<svg width="221" height="86" viewBox="0 0 221 86" fill="none" xmlns="http://www.w3.org/2000/svg">
<path d="M12.8242 43H9.50391V17.3945H0.460938V14.4453H21.8672V17.3945H12.8242V43ZM22.2969 21.5938H25.7734L30.4609 33.8008C31.4896 36.5872 32.1276 38.599 32.375 39.8359H32.5312C32.7005 39.1719 33.0521 38.0391 33.5859 36.4375C34.1328 34.8229 35.9036 29.875 38.8984 21.5938H42.375L33.1758 45.9688C32.2643 48.3776 31.1966 50.0833 29.9727 51.0859C28.7617 52.1016 27.2708 52.6094 25.5 52.6094C24.5104 52.6094 23.5339 52.4987 22.5703 52.2773V49.6797C23.2865 49.8359 24.0872 49.9141 24.9727 49.9141C27.1992 49.9141 28.7878 48.6641 29.7383 46.1641L30.9297 43.1172L22.2969 21.5938ZM55.8125 43.3906C54.4193 43.3906 53.1432 43.1367 51.9844 42.6289C50.8385 42.1081 49.875 41.3138 49.0938 40.2461H48.8594C49.0156 41.4961 49.0938 42.681 49.0938 43.8008V52.6094H45.8516V21.5938H48.4883L48.9375 24.5234H49.0938C49.9271 23.3516 50.8971 22.5052 52.0039 21.9844C53.1107 21.4635 54.3802 21.2031 55.8125 21.2031C58.651 21.2031 60.8385 22.1732 62.375 24.1133C63.9245 26.0534 64.6992 28.7747 64.6992 32.2773C64.6992 35.793 63.9115 38.5273 62.3359 40.4805C60.7734 42.4206 58.599 43.3906 55.8125 43.3906ZM55.3438 23.957C53.1562 23.957 51.5742 24.5625 50.5977 25.7734C49.6211 26.9844 49.1198 28.9115 49.0938 31.5547V32.2773C49.0938 35.2852 49.5951 37.4401 50.5977 38.7422C51.6003 40.0312 53.2083 40.6758 55.4219 40.6758C57.2708 40.6758 58.7161 39.9271 59.7578 38.4297C60.8125 36.9323 61.3398 34.8685 61.3398 32.2383C61.3398 29.569 60.8125 27.5247 59.7578 26.1055C58.7161 24.6732 57.2448 23.957 55.3438 23.957ZM88.8594 32.2773C88.8594 35.7669 87.9805 38.4948 86.2227 40.4609C84.4648 42.4141 82.0365 43.3906 78.9375 43.3906C77.0234 43.3906 75.3242 42.9414 73.8398 42.043C72.3555 41.1445 71.2096 39.8555 70.4023 38.1758C69.5951 36.4961 69.1914 34.5299 69.1914 32.2773C69.1914 28.7878 70.0638 26.0729 71.8086 24.1328C73.5534 22.1797 75.9753 21.2031 79.0742 21.2031C82.069 21.2031 84.4453 22.1992 86.2031 24.1914C87.974 26.1836 88.8594 28.8789 88.8594 32.2773ZM72.5508 32.2773C72.5508 35.0117 73.0977 37.0951 74.1914 38.5273C75.2852 39.9596 76.8932 40.6758 79.0156 40.6758C81.138 40.6758 82.7461 39.9661 83.8398 38.5469C84.9466 37.1146 85.5 35.0247 85.5 32.2773C85.5 29.556 84.9466 27.4922 83.8398 26.0859C82.7461 24.6667 81.125 23.957 78.9766 23.957C76.8542 23.957 75.2526 24.6536 74.1719 26.0469C73.0911 27.4401 72.5508 29.5169 72.5508 32.2773ZM112.082 21.5938V23.6445L108.117 24.1133C108.482 24.569 108.807 25.168 109.094 25.9102C109.38 26.6393 109.523 27.4661 109.523 28.3906C109.523 30.487 108.807 32.1602 107.375 33.4102C105.943 34.6602 103.977 35.2852 101.477 35.2852C100.839 35.2852 100.24 35.2331 99.6797 35.1289C98.2995 35.8581 97.6094 36.776 97.6094 37.8828C97.6094 38.4688 97.8503 38.9049 98.332 39.1914C98.8138 39.4648 99.6406 39.6016 100.812 39.6016H104.602C106.919 39.6016 108.697 40.0898 109.934 41.0664C111.184 42.043 111.809 43.4622 111.809 45.3242C111.809 47.694 110.858 49.4974 108.957 50.7344C107.056 51.9844 104.283 52.6094 100.637 52.6094C97.8372 52.6094 95.6758 52.0885 94.1523 51.0469C92.6419 50.0052 91.8867 48.5339 91.8867 46.6328C91.8867 45.3307 92.3034 44.2044 93.1367 43.2539C93.9701 42.3034 95.1419 41.6589 96.6523 41.3203C96.1055 41.0729 95.6432 40.6888 95.2656 40.168C94.901 39.6471 94.7188 39.0417 94.7188 38.3516C94.7188 37.5703 94.9271 36.8867 95.3438 36.3008C95.7604 35.7148 96.418 35.1484 97.3164 34.6016C96.2096 34.1458 95.3047 33.3711 94.6016 32.2773C93.9115 31.1836 93.5664 29.9336 93.5664 28.5273C93.5664 26.1836 94.2695 24.3802 95.6758 23.1172C97.082 21.8411 99.0742 21.2031 101.652 21.2031C102.772 21.2031 103.781 21.3333 104.68 21.5938H112.082ZM95.0117 46.5938C95.0117 47.7526 95.5 48.6315 96.4766 49.2305C97.4531 49.8294 98.8529 50.1289 100.676 50.1289C103.397 50.1289 105.409 49.7188 106.711 48.8984C108.026 48.0911 108.684 46.9909 108.684 45.5977C108.684 44.4388 108.326 43.6315 107.609 43.1758C106.893 42.7331 105.546 42.5117 103.566 42.5117H99.6797C98.2083 42.5117 97.0625 42.8633 96.2422 43.5664C95.4219 44.2695 95.0117 45.2786 95.0117 46.5938ZM96.7695 28.4492C96.7695 29.9466 97.1927 31.0794 98.0391 31.8477C98.8854 32.6159 100.064 33 101.574 33C104.738 33 106.32 31.4635 106.32 28.3906C106.32 25.1745 104.719 23.5664 101.516 23.5664C99.9922 23.5664 98.8203 23.9766 98 24.7969C97.1797 25.6172 96.7695 26.8346 96.7695 28.4492ZM126.242 21.2031C127.193 21.2031 128.046 21.2812 128.801 21.4375L128.352 24.4453C127.466 24.25 126.685 24.1523 126.008 24.1523C124.276 24.1523 122.792 24.8555 121.555 26.2617C120.331 27.668 119.719 29.4193 119.719 31.5156V43H116.477V21.5938H119.152L119.523 25.5586H119.68C120.474 24.1654 121.431 23.0911 122.551 22.3359C123.671 21.5807 124.901 21.2031 126.242 21.2031ZM145.969 43L145.324 39.9531H145.168C144.1 41.2943 143.033 42.2057 141.965 42.6875C140.91 43.1562 139.589 43.3906 138 43.3906C135.878 43.3906 134.211 42.8438 133 41.75C131.802 40.6562 131.203 39.1003 131.203 37.082C131.203 32.7591 134.66 30.4935 141.574 30.2852L145.207 30.168V28.8398C145.207 27.1602 144.842 25.9232 144.113 25.1289C143.397 24.3216 142.245 23.918 140.656 23.918C138.872 23.918 136.854 24.4648 134.602 25.5586L133.605 23.0781C134.66 22.5052 135.812 22.056 137.062 21.7305C138.326 21.4049 139.589 21.2422 140.852 21.2422C143.404 21.2422 145.292 21.8086 146.516 22.9414C147.753 24.0742 148.371 25.8906 148.371 28.3906V43H145.969ZM138.645 40.7148C140.663 40.7148 142.245 40.1615 143.391 39.0547C144.549 37.9479 145.129 36.3984 145.129 34.4062V32.4727L141.887 32.6094C139.309 32.7005 137.447 33.1042 136.301 33.8203C135.168 34.5234 134.602 35.6237 134.602 37.1211C134.602 38.293 134.953 39.1849 135.656 39.7969C136.372 40.4089 137.368 40.7148 138.645 40.7148ZM165.031 43.3906C163.638 43.3906 162.362 43.1367 161.203 42.6289C160.057 42.1081 159.094 41.3138 158.312 40.2461H158.078C158.234 41.4961 158.312 42.681 158.312 43.8008V52.6094H155.07V21.5938H157.707L158.156 24.5234H158.312C159.146 23.3516 160.116 22.5052 161.223 21.9844C162.329 21.4635 163.599 21.2031 165.031 21.2031C167.87 21.2031 170.057 22.1732 171.594 24.1133C173.143 26.0534 173.918 28.7747 173.918 32.2773C173.918 35.793 173.13 38.5273 171.555 40.4805C169.992 42.4206 167.818 43.3906 165.031 43.3906ZM164.562 23.957C162.375 23.957 160.793 24.5625 159.816 25.7734C158.84 26.9844 158.339 28.9115 158.312 31.5547V32.2773C158.312 35.2852 158.814 37.4401 159.816 38.7422C160.819 40.0312 162.427 40.6758 164.641 40.6758C166.49 40.6758 167.935 39.9271 168.977 38.4297C170.031 36.9323 170.559 34.8685 170.559 32.2383C170.559 29.569 170.031 27.5247 168.977 26.1055C167.935 24.6732 166.464 23.957 164.562 23.957ZM194.25 43V29.1523C194.25 27.4076 193.853 26.1055 193.059 25.2461C192.264 24.3867 191.021 23.957 189.328 23.957C187.076 23.957 185.428 24.569 184.387 25.793C183.358 27.0169 182.844 29.0221 182.844 31.8086V43H179.602V12.6094H182.844V21.8086C182.844 22.9154 182.792 23.8333 182.688 24.5625H182.883C183.521 23.5339 184.426 22.7266 185.598 22.1406C186.783 21.5417 188.13 21.2422 189.641 21.2422C192.258 21.2422 194.217 21.8672 195.52 23.1172C196.835 24.3542 197.492 26.3268 197.492 29.0352V43H194.25ZM200.773 21.5938H204.25L208.938 33.8008C209.966 36.5872 210.604 38.599 210.852 39.8359H211.008C211.177 39.1719 211.529 38.0391 212.062 36.4375C212.609 34.8229 214.38 29.875 217.375 21.5938H220.852L211.652 45.9688C210.741 48.3776 209.673 50.0833 208.449 51.0859C207.238 52.1016 205.747 52.6094 203.977 52.6094C202.987 52.6094 202.01 52.4987 201.047 52.2773V49.6797C201.763 49.8359 202.564 49.9141 203.449 49.9141C205.676 49.9141 207.264 48.6641 208.215 46.1641L209.406 43.1172L200.773 21.5938Z" fill="white"/>
<path d="M3.09961 80H2.10352V65.7227H9.92578V66.6406H3.09961V72.6953H9.54492V73.623H3.09961V80ZM21.1777 74.6777C21.1777 76.4095 20.7578 77.7637 19.918 78.7402C19.0781 79.7103 17.9193 80.1953 16.4414 80.1953C15.5104 80.1953 14.6901 79.9707 13.9805 79.5215C13.2708 79.0723 12.7272 78.4277 12.3496 77.5879C11.972 76.748 11.7832 75.778 11.7832 74.6777C11.7832 72.946 12.2031 71.5983 13.043 70.6348C13.8828 69.6647 15.0352 69.1797 16.5 69.1797C17.9583 69.1797 19.1009 69.6712 19.9277 70.6543C20.7611 71.6309 21.1777 72.972 21.1777 74.6777ZM12.7988 74.6777C12.7988 76.1361 13.1178 77.2754 13.7559 78.0957C14.4004 78.9095 15.3086 79.3164 16.4805 79.3164C17.6523 79.3164 18.5573 78.9095 19.1953 78.0957C19.8398 77.2754 20.1621 76.1361 20.1621 74.6777C20.1621 73.2129 19.8366 72.0768 19.1855 71.2695C18.541 70.4622 17.6328 70.0586 16.4609 70.0586C15.2891 70.0586 14.3841 70.4622 13.7461 71.2695C13.1146 72.0703 12.7988 73.2064 12.7988 74.6777ZM32.0195 80V73.1152C32.0195 72.0475 31.7949 71.2728 31.3457 70.791C30.8965 70.3027 30.1999 70.0586 29.2559 70.0586C27.9863 70.0586 27.0553 70.3809 26.4629 71.0254C25.877 71.6634 25.584 72.7018 25.584 74.1406V80H24.6172V69.3848H25.4375L25.623 70.8398H25.6816C26.3717 69.7331 27.599 69.1797 29.3633 69.1797C31.7721 69.1797 32.9766 70.472 32.9766 73.0566V80H32.0195ZM39.7168 79.3359C40.3288 79.3359 40.8626 79.2839 41.3184 79.1797V79.9609C40.8496 80.1172 40.3092 80.1953 39.6973 80.1953C38.7598 80.1953 38.0664 79.9447 37.6172 79.4434C37.1745 78.9421 36.9531 78.1543 36.9531 77.0801V70.2246H35.3809V69.6582L36.9531 69.2188L37.4414 66.8164H37.9395V69.3848H41.0547V70.2246H37.9395V76.9434C37.9395 77.7572 38.0827 78.3594 38.3691 78.75C38.6556 79.1406 39.1048 79.3359 39.7168 79.3359ZM50.6953 77.2363C50.6953 78.1868 50.334 78.9193 49.6113 79.4336C48.8887 79.9414 47.8633 80.1953 46.5352 80.1953C45.1159 80.1953 43.9896 79.9772 43.1562 79.541V78.4961C44.224 79.0299 45.3503 79.2969 46.5352 79.2969C47.5833 79.2969 48.3776 79.1243 48.918 78.7793C49.4648 78.4277 49.7383 77.9622 49.7383 77.3828C49.7383 76.849 49.5202 76.3997 49.084 76.0352C48.6543 75.6706 47.9447 75.3125 46.9551 74.9609C45.8939 74.5768 45.1484 74.248 44.7188 73.9746C44.2891 73.6947 43.9635 73.3822 43.7422 73.0371C43.5273 72.6855 43.4199 72.2591 43.4199 71.7578C43.4199 70.9635 43.752 70.3353 44.416 69.873C45.0866 69.4108 46.0208 69.1797 47.2188 69.1797C48.3646 69.1797 49.4518 69.3945 50.4805 69.8242L50.1191 70.7031C49.0775 70.2734 48.1107 70.0586 47.2188 70.0586C46.3529 70.0586 45.666 70.2018 45.1582 70.4883C44.6504 70.7747 44.3965 71.1719 44.3965 71.6797C44.3965 72.2331 44.5918 72.6758 44.9824 73.0078C45.3796 73.3398 46.151 73.7109 47.2969 74.1211C48.2539 74.4661 48.9505 74.7786 49.3867 75.0586C49.8229 75.332 50.1484 75.6445 50.3633 75.9961C50.5846 76.3477 50.6953 76.7611 50.6953 77.2363ZM66.0703 80L65.8262 78.3203H65.748C65.2142 79.0039 64.6641 79.4889 64.0977 79.7754C63.5378 80.0553 62.8737 80.1953 62.1055 80.1953C61.0638 80.1953 60.2533 79.9284 59.6738 79.3945C59.0944 78.8607 58.8047 78.1217 58.8047 77.1777C58.8047 76.1426 59.2344 75.3385 60.0938 74.7656C60.9596 74.1927 62.2096 73.89 63.8438 73.8574L65.8652 73.7988V73.0957C65.8652 72.0866 65.6602 71.3249 65.25 70.8105C64.8398 70.2962 64.179 70.0391 63.2676 70.0391C62.2845 70.0391 61.2656 70.3125 60.2109 70.8594L59.8496 70.0195C61.015 69.4727 62.1673 69.1992 63.3066 69.1992C64.472 69.1992 65.3411 69.502 65.9141 70.1074C66.4935 70.7129 66.7832 71.6569 66.7832 72.9395V80H66.0703ZM62.1641 79.3164C63.2969 79.3164 64.1888 78.9941 64.8398 78.3496C65.4974 77.6986 65.8262 76.7969 65.8262 75.6445V74.5996L63.9707 74.6777C62.4798 74.7493 61.4154 74.9837 60.7773 75.3809C60.1458 75.7715 59.8301 76.3835 59.8301 77.2168C59.8301 77.8809 60.0319 78.3984 60.4355 78.7695C60.8457 79.1341 61.4219 79.3164 62.1641 79.3164ZM78.1328 80V73.1152C78.1328 72.0475 77.9082 71.2728 77.459 70.791C77.0098 70.3027 76.3132 70.0586 75.3691 70.0586C74.0996 70.0586 73.1686 70.3809 72.5762 71.0254C71.9902 71.6634 71.6973 72.7018 71.6973 74.1406V80H70.7305V69.3848H71.5508L71.7363 70.8398H71.7949C72.485 69.7331 73.7122 69.1797 75.4766 69.1797C77.8854 69.1797 79.0898 70.472 79.0898 73.0566V80H78.1328ZM86.9141 69.1797C87.6823 69.1797 88.3464 69.3197 88.9062 69.5996C89.4661 69.8796 89.9674 70.3581 90.4102 71.0352H90.4688C90.4297 70.2148 90.4102 69.4108 90.4102 68.623V64.8047H91.3672V80H90.7324L90.4883 78.3789H90.4102C89.6029 79.5898 88.444 80.1953 86.9336 80.1953C85.4688 80.1953 84.349 79.7396 83.5742 78.8281C82.7995 77.9167 82.4121 76.5885 82.4121 74.8438C82.4121 73.0078 82.7962 71.6048 83.5645 70.6348C84.3327 69.6647 85.4492 69.1797 86.9141 69.1797ZM86.9141 70.0586C85.7552 70.0586 84.8828 70.4655 84.2969 71.2793C83.7174 72.0931 83.4277 73.2747 83.4277 74.8242C83.4277 77.832 84.5964 79.3359 86.9336 79.3359C88.1315 79.3359 89.0104 78.9876 89.5703 78.291C90.1302 77.5944 90.4102 76.4453 90.4102 74.8438V74.6777C90.4102 73.0371 90.1335 71.8587 89.5801 71.1426C89.0332 70.4199 88.1445 70.0586 86.9141 70.0586ZM107.719 77.2363C107.719 78.1868 107.357 78.9193 106.635 79.4336C105.912 79.9414 104.887 80.1953 103.559 80.1953C102.139 80.1953 101.013 79.9772 100.18 79.541V78.4961C101.247 79.0299 102.374 79.2969 103.559 79.2969C104.607 79.2969 105.401 79.1243 105.941 78.7793C106.488 78.4277 106.762 77.9622 106.762 77.3828C106.762 76.849 106.544 76.3997 106.107 76.0352C105.678 75.6706 104.968 75.3125 103.979 74.9609C102.917 74.5768 102.172 74.248 101.742 73.9746C101.312 73.6947 100.987 73.3822 100.766 73.0371C100.551 72.6855 100.443 72.2591 100.443 71.7578C100.443 70.9635 100.775 70.3353 101.439 69.873C102.11 69.4108 103.044 69.1797 104.242 69.1797C105.388 69.1797 106.475 69.3945 107.504 69.8242L107.143 70.7031C106.101 70.2734 105.134 70.0586 104.242 70.0586C103.376 70.0586 102.689 70.2018 102.182 70.4883C101.674 70.7747 101.42 71.1719 101.42 71.6797C101.42 72.2331 101.615 72.6758 102.006 73.0078C102.403 73.3398 103.174 73.7109 104.32 74.1211C105.277 74.4661 105.974 74.7786 106.41 75.0586C106.846 75.332 107.172 75.6445 107.387 75.9961C107.608 76.3477 107.719 76.7611 107.719 77.2363ZM111.92 80H110.953V69.3848H111.92V80ZM110.816 66.4355C110.816 65.8105 111.021 65.498 111.432 65.498C111.633 65.498 111.79 65.5794 111.9 65.7422C112.018 65.9049 112.076 66.1361 112.076 66.4355C112.076 66.7285 112.018 66.9596 111.9 67.1289C111.79 67.2982 111.633 67.3828 111.432 67.3828C111.021 67.3828 110.816 67.0671 110.816 66.4355ZM122.586 80H115.008V79.3848L121.307 70.2441H115.467V69.3848H122.566V70L116.229 79.1406H122.586V80ZM129.99 80.1953C128.447 80.1953 127.243 79.7201 126.377 78.7695C125.518 77.819 125.088 76.4876 125.088 74.7754C125.088 73.0827 125.505 71.7285 126.338 70.7129C127.171 69.6908 128.294 69.1797 129.707 69.1797C130.957 69.1797 131.943 69.6159 132.666 70.4883C133.389 71.3607 133.75 72.5456 133.75 74.043V74.8242H126.104C126.117 76.2826 126.455 77.3958 127.119 78.1641C127.79 78.9323 128.747 79.3164 129.99 79.3164C130.596 79.3164 131.126 79.2741 131.582 79.1895C132.044 79.1048 132.627 78.9225 133.33 78.6426V79.5215C132.731 79.7819 132.178 79.9577 131.67 80.0488C131.162 80.1465 130.602 80.1953 129.99 80.1953ZM129.707 70.0391C128.685 70.0391 127.865 70.3776 127.246 71.0547C126.628 71.7253 126.266 72.6953 126.162 73.9648H132.725C132.725 72.7344 132.458 71.7741 131.924 71.084C131.39 70.3874 130.651 70.0391 129.707 70.0391ZM143.762 77.2363C143.762 78.1868 143.4 78.9193 142.678 79.4336C141.955 79.9414 140.93 80.1953 139.602 80.1953C138.182 80.1953 137.056 79.9772 136.223 79.541V78.4961C137.29 79.0299 138.417 79.2969 139.602 79.2969C140.65 79.2969 141.444 79.1243 141.984 78.7793C142.531 78.4277 142.805 77.9622 142.805 77.3828C142.805 76.849 142.587 76.3997 142.15 76.0352C141.721 75.6706 141.011 75.3125 140.021 74.9609C138.96 74.5768 138.215 74.248 137.785 73.9746C137.355 73.6947 137.03 73.3822 136.809 73.0371C136.594 72.6855 136.486 72.2591 136.486 71.7578C136.486 70.9635 136.818 70.3353 137.482 69.873C138.153 69.4108 139.087 69.1797 140.285 69.1797C141.431 69.1797 142.518 69.3945 143.547 69.8242L143.186 70.7031C142.144 70.2734 141.177 70.0586 140.285 70.0586C139.419 70.0586 138.732 70.2018 138.225 70.4883C137.717 70.7747 137.463 71.1719 137.463 71.6797C137.463 72.2331 137.658 72.6758 138.049 73.0078C138.446 73.3398 139.217 73.7109 140.363 74.1211C141.32 74.4661 142.017 74.7786 142.453 75.0586C142.889 75.332 143.215 75.6445 143.43 75.9961C143.651 76.3477 143.762 76.7611 143.762 77.2363ZM153.531 69.3848V76.2598C153.531 77.3275 153.756 78.1055 154.205 78.5938C154.654 79.0755 155.351 79.3164 156.295 79.3164C157.558 79.3164 158.486 78.9974 159.078 78.3594C159.677 77.7214 159.977 76.6829 159.977 75.2441V69.3848H160.934V80H160.113L159.938 78.5352H159.879C159.189 79.6419 157.962 80.1953 156.197 80.1953C153.782 80.1953 152.574 78.903 152.574 76.3184V69.3848H153.531ZM171.57 77.2363C171.57 78.1868 171.209 78.9193 170.486 79.4336C169.764 79.9414 168.738 80.1953 167.41 80.1953C165.991 80.1953 164.865 79.9772 164.031 79.541V78.4961C165.099 79.0299 166.225 79.2969 167.41 79.2969C168.458 79.2969 169.253 79.1243 169.793 78.7793C170.34 78.4277 170.613 77.9622 170.613 77.3828C170.613 76.849 170.395 76.3997 169.959 76.0352C169.529 75.6706 168.82 75.3125 167.83 74.9609C166.769 74.5768 166.023 74.248 165.594 73.9746C165.164 73.6947 164.839 73.3822 164.617 73.0371C164.402 72.6855 164.295 72.2591 164.295 71.7578C164.295 70.9635 164.627 70.3353 165.291 69.873C165.962 69.4108 166.896 69.1797 168.094 69.1797C169.24 69.1797 170.327 69.3945 171.355 69.8242L170.994 70.7031C169.952 70.2734 168.986 70.0586 168.094 70.0586C167.228 70.0586 166.541 70.2018 166.033 70.4883C165.525 70.7747 165.271 71.1719 165.271 71.6797C165.271 72.2331 165.467 72.6758 165.857 73.0078C166.255 73.3398 167.026 73.7109 168.172 74.1211C169.129 74.4661 169.826 74.7786 170.262 75.0586C170.698 75.332 171.023 75.6445 171.238 75.9961C171.46 76.3477 171.57 76.7611 171.57 77.2363ZM179.092 80.1953C177.549 80.1953 176.344 79.7201 175.479 78.7695C174.619 77.819 174.189 76.4876 174.189 74.7754C174.189 73.0827 174.606 71.7285 175.439 70.7129C176.273 69.6908 177.396 69.1797 178.809 69.1797C180.059 69.1797 181.045 69.6159 181.768 70.4883C182.49 71.3607 182.852 72.5456 182.852 74.043V74.8242H175.205C175.218 76.2826 175.557 77.3958 176.221 78.1641C176.891 78.9323 177.848 79.3164 179.092 79.3164C179.697 79.3164 180.228 79.2741 180.684 79.1895C181.146 79.1048 181.729 78.9225 182.432 78.6426V79.5215C181.833 79.7819 181.279 79.9577 180.771 80.0488C180.264 80.1465 179.704 80.1953 179.092 80.1953ZM178.809 70.0391C177.786 70.0391 176.966 70.3776 176.348 71.0547C175.729 71.7253 175.368 72.6953 175.264 73.9648H181.826C181.826 72.7344 181.559 71.7741 181.025 71.084C180.492 70.3874 179.753 70.0391 178.809 70.0391ZM190.168 69.1797C190.936 69.1797 191.6 69.3197 192.16 69.5996C192.72 69.8796 193.221 70.3581 193.664 71.0352H193.723C193.684 70.2148 193.664 69.4108 193.664 68.623V64.8047H194.621V80H193.986L193.742 78.3789H193.664C192.857 79.5898 191.698 80.1953 190.188 80.1953C188.723 80.1953 187.603 79.7396 186.828 78.8281C186.053 77.9167 185.666 76.5885 185.666 74.8438C185.666 73.0078 186.05 71.6048 186.818 70.6348C187.587 69.6647 188.703 69.1797 190.168 69.1797ZM190.168 70.0586C189.009 70.0586 188.137 70.4655 187.551 71.2793C186.971 72.0931 186.682 73.2747 186.682 74.8242C186.682 77.832 187.85 79.3359 190.188 79.3359C191.385 79.3359 192.264 78.9876 192.824 78.291C193.384 77.5944 193.664 76.4453 193.664 74.8438V74.6777C193.664 73.0371 193.387 71.8587 192.834 71.1426C192.287 70.4199 191.398 70.0586 190.168 70.0586Z" fill="#A4A8B9"/>
</svg>
