<svg width="297" height="457" viewBox="0 0 297 457" fill="none" xmlns="http://www.w3.org/2000/svg">
<path d="M6.47461 12H1.2251V2.71973H6.47461V4.00195H2.74219V6.52832H6.23975V7.79785H2.74219V10.7114H6.47461V12ZM16.3232 12H14.5776L12.2544 8.2041L9.91211 12H8.28711L11.3657 7.18848L8.48389 2.71973H10.1724L12.3179 6.22998L14.4634 2.71973H16.1011L13.2002 7.21387L16.3232 12ZM24.3311 12L23.4043 9.42285H19.856L18.9482 12H17.3486L20.8208 2.68164H22.4712L25.9434 12H24.3311ZM23.0044 8.11523L22.1348 5.58887C22.0713 5.4196 21.9824 5.15299 21.8682 4.78906C21.7581 4.42513 21.682 4.15853 21.6396 3.98926C21.5254 4.50977 21.3582 5.07894 21.1382 5.69678L20.3003 8.11523H23.0044ZM32.1802 12L29.4888 4.24951H29.438C29.5099 5.40055 29.5459 6.47965 29.5459 7.48682V12H28.1685V2.71973H30.3076L32.8848 10.1021H32.9229L35.5762 2.71973H37.7217V12H36.2617V7.41064C36.2617 6.94938 36.2723 6.34847 36.2935 5.60791C36.3188 4.86735 36.34 4.41878 36.3569 4.26221H36.3062L33.5195 12H32.1802ZM47.3101 5.52539C47.3101 6.49447 46.9927 7.23714 46.3579 7.75342C45.7231 8.26969 44.8197 8.52783 43.6475 8.52783H42.6826V12H41.1655V2.71973H43.8379C44.9974 2.71973 45.8649 2.95671 46.4404 3.43066C47.0202 3.90462 47.3101 4.60286 47.3101 5.52539ZM42.6826 7.25195H43.4888C44.2674 7.25195 44.8387 7.11654 45.2026 6.8457C45.5666 6.57487 45.7485 6.15169 45.7485 5.57617C45.7485 5.04297 45.5856 4.64518 45.2598 4.38281C44.9339 4.12044 44.4261 3.98926 43.7363 3.98926H42.6826V7.25195ZM50.1636 12V2.71973H51.6807V10.6987H55.6099V12H50.1636ZM63.459 12H58.2095V2.71973H63.459V4.00195H59.7266V6.52832H63.2241V7.79785H59.7266V10.7114H63.459V12Z" fill="#A4A8B9"/>
<path d="M11.4062 47.2305C14.0104 47.2305 16.0742 47.8359 17.5977 49.0469C19.1211 50.2578 19.8828 51.931 19.8828 54.0664C19.8828 55.4727 19.4466 56.7552 18.5742 57.9141C17.7018 59.0729 16.3086 60.1276 14.3945 61.0781C16.7122 62.1849 18.3594 63.3503 19.3359 64.5742C20.3125 65.7852 20.8008 67.1914 20.8008 68.793C20.8008 71.1628 19.974 73.0573 18.3203 74.4766C16.6667 75.8828 14.401 76.5859 11.5234 76.5859C8.47656 76.5859 6.13281 75.9219 4.49219 74.5938C2.85156 73.2526 2.03125 71.3581 2.03125 68.9102C2.03125 65.6419 4.02344 63.0964 8.00781 61.2734C6.21094 60.2578 4.92188 59.1641 4.14062 57.9922C3.35938 56.8073 2.96875 55.4857 2.96875 54.0273C2.96875 51.957 3.73047 50.3099 5.25391 49.0859C6.79036 47.849 8.84115 47.2305 11.4062 47.2305ZM5.23438 68.9883C5.23438 70.5508 5.77474 71.7682 6.85547 72.6406C7.94922 73.513 9.47917 73.9492 11.4453 73.9492C13.3854 73.9492 14.8958 73.4935 15.9766 72.582C17.0573 71.6706 17.5977 70.4206 17.5977 68.832C17.5977 67.569 17.0898 66.4492 16.0742 65.4727C15.0586 64.4831 13.2878 63.526 10.7617 62.6016C8.82161 63.4349 7.41536 64.3594 6.54297 65.375C5.67057 66.3776 5.23438 67.582 5.23438 68.9883ZM11.3672 49.8672C9.73958 49.8672 8.46354 50.2578 7.53906 51.0391C6.61458 51.8203 6.15234 52.862 6.15234 54.1641C6.15234 55.362 6.53646 56.3906 7.30469 57.25C8.07292 58.1094 9.49219 58.9688 11.5625 59.8281C13.4245 59.0469 14.7396 58.207 15.5078 57.3086C16.2891 56.4102 16.6797 55.362 16.6797 54.1641C16.6797 52.849 16.2044 51.8073 15.2539 51.0391C14.3164 50.2578 13.0208 49.8672 11.3672 49.8672ZM34.2969 47.2305C36.901 47.2305 38.9648 47.8359 40.4883 49.0469C42.0117 50.2578 42.7734 51.931 42.7734 54.0664C42.7734 55.4727 42.3372 56.7552 41.4648 57.9141C40.5924 59.0729 39.1992 60.1276 37.2852 61.0781C39.6029 62.1849 41.25 63.3503 42.2266 64.5742C43.2031 65.7852 43.6914 67.1914 43.6914 68.793C43.6914 71.1628 42.8646 73.0573 41.2109 74.4766C39.5573 75.8828 37.2917 76.5859 34.4141 76.5859C31.3672 76.5859 29.0234 75.9219 27.3828 74.5938C25.7422 73.2526 24.9219 71.3581 24.9219 68.9102C24.9219 65.6419 26.9141 63.0964 30.8984 61.2734C29.1016 60.2578 27.8125 59.1641 27.0312 57.9922C26.25 56.8073 25.8594 55.4857 25.8594 54.0273C25.8594 51.957 26.6211 50.3099 28.1445 49.0859C29.681 47.849 31.7318 47.2305 34.2969 47.2305ZM28.125 68.9883C28.125 70.5508 28.6654 71.7682 29.7461 72.6406C30.8398 73.513 32.3698 73.9492 34.3359 73.9492C36.276 73.9492 37.7865 73.4935 38.8672 72.582C39.9479 71.6706 40.4883 70.4206 40.4883 68.832C40.4883 67.569 39.9805 66.4492 38.9648 65.4727C37.9492 64.4831 36.1784 63.526 33.6523 62.6016C31.7122 63.4349 30.306 64.3594 29.4336 65.375C28.5612 66.3776 28.125 67.582 28.125 68.9883ZM34.2578 49.8672C32.6302 49.8672 31.3542 50.2578 30.4297 51.0391C29.5052 51.8203 29.043 52.862 29.043 54.1641C29.043 55.362 29.4271 56.3906 30.1953 57.25C30.9635 58.1094 32.3828 58.9688 34.4531 59.8281C36.3151 59.0469 37.6302 58.207 38.3984 57.3086C39.1797 56.4102 39.5703 55.362 39.5703 54.1641C39.5703 52.849 39.0951 51.8073 38.1445 51.0391C37.207 50.2578 35.9115 49.8672 34.2578 49.8672ZM48.75 74.125C48.75 73.2526 48.9453 72.5951 49.3359 72.1523C49.7396 71.6966 50.3125 71.4688 51.0547 71.4688C51.8099 71.4688 52.3958 71.6966 52.8125 72.1523C53.2422 72.5951 53.457 73.2526 53.457 74.125C53.457 74.9714 53.2422 75.6224 52.8125 76.0781C52.3828 76.5339 51.7969 76.7617 51.0547 76.7617C50.3906 76.7617 49.8372 76.5599 49.3945 76.1562C48.9648 75.7396 48.75 75.0625 48.75 74.125ZM67.3242 58.7539C70.332 58.7539 72.6953 59.5026 74.4141 61C76.1458 62.4844 77.0117 64.5221 77.0117 67.1133C77.0117 70.069 76.0677 72.3867 74.1797 74.0664C72.3047 75.7461 69.7135 76.5859 66.4062 76.5859C63.1901 76.5859 60.7357 76.0716 59.043 75.043V71.918C59.9544 72.5039 61.0872 72.9661 62.4414 73.3047C63.7956 73.6302 65.1302 73.793 66.4453 73.793C68.737 73.793 70.5143 73.2526 71.7773 72.1719C73.0534 71.0911 73.6914 69.5286 73.6914 67.4844C73.6914 63.5 71.25 61.5078 66.3672 61.5078C65.1302 61.5078 63.4766 61.6966 61.4062 62.0742L59.7266 61L60.8008 47.6406H75V50.6289H63.5742L62.8516 59.2031C64.349 58.9036 65.8398 58.7539 67.3242 58.7539ZM84.0625 56.1562C84.0625 58.3698 84.3034 60.0299 84.7852 61.1367C85.2669 62.2435 86.0482 62.7969 87.1289 62.7969C89.2643 62.7969 90.332 60.5833 90.332 56.1562C90.332 51.7552 89.2643 49.5547 87.1289 49.5547C86.0482 49.5547 85.2669 50.1016 84.7852 51.1953C84.3034 52.2891 84.0625 53.9427 84.0625 56.1562ZM93.0078 56.1562C93.0078 59.125 92.5065 61.3711 91.5039 62.8945C90.5143 64.4049 89.056 65.1602 87.1289 65.1602C85.306 65.1602 83.8867 64.3854 82.8711 62.8359C81.8685 61.2865 81.3672 59.0599 81.3672 56.1562C81.3672 53.2005 81.849 50.974 82.8125 49.4766C83.7891 47.9792 85.2279 47.2305 87.1289 47.2305C89.0169 47.2305 90.4688 48.0052 91.4844 49.5547C92.5 51.1042 93.0078 53.3047 93.0078 56.1562ZM101.25 67.6016C101.25 69.8281 101.491 71.4948 101.973 72.6016C102.454 73.6953 103.242 74.2422 104.336 74.2422C105.43 74.2422 106.237 73.7018 106.758 72.6211C107.279 71.5273 107.539 69.8542 107.539 67.6016C107.539 65.375 107.279 63.7279 106.758 62.6602C106.237 61.5794 105.43 61.0391 104.336 61.0391C103.242 61.0391 102.454 61.5794 101.973 62.6602C101.491 63.7279 101.25 65.375 101.25 67.6016ZM110.215 67.6016C110.215 70.5573 109.714 72.7969 108.711 74.3203C107.721 75.8307 106.263 76.5859 104.336 76.5859C102.487 76.5859 101.061 75.8112 100.059 74.2617C99.069 72.7122 98.5742 70.4922 98.5742 67.6016C98.5742 64.6458 99.056 62.4193 100.02 60.9219C100.996 59.4245 102.435 58.6758 104.336 58.6758C106.185 58.6758 107.624 59.444 108.652 60.9805C109.694 62.5039 110.215 64.7109 110.215 67.6016ZM105.176 47.6406L89.3359 76.1953H86.4648L102.305 47.6406H105.176Z" fill="white"/>
<path d="M18.1406 157.258C18.1406 159.643 17.3594 161.471 15.7969 162.742C14.2344 164.013 12.0104 164.648 9.125 164.648H6.75V173.195H3.01562V150.352H9.59375C12.4479 150.352 14.5833 150.935 16 152.102C17.4271 153.268 18.1406 154.987 18.1406 157.258ZM6.75 161.508H8.73438C10.651 161.508 12.0573 161.174 12.9531 160.508C13.849 159.841 14.2969 158.799 14.2969 157.383C14.2969 156.07 13.8958 155.091 13.0938 154.445C12.2917 153.799 11.0417 153.477 9.34375 153.477H6.75V161.508ZM31.0781 155.602C31.8177 155.602 32.4271 155.654 32.9062 155.758L32.5469 159.18C32.026 159.055 31.4844 158.992 30.9219 158.992C29.4531 158.992 28.2604 159.471 27.3438 160.43C26.4375 161.388 25.9844 162.633 25.9844 164.164V173.195H22.3125V155.914H25.1875L25.6719 158.961H25.8594C26.4323 157.93 27.1771 157.112 28.0938 156.508C29.0208 155.904 30.0156 155.602 31.0781 155.602ZM51.4531 164.523C51.4531 167.346 50.7292 169.549 49.2812 171.133C47.8333 172.716 45.8177 173.508 43.2344 173.508C41.6198 173.508 40.1927 173.143 38.9531 172.414C37.7135 171.685 36.7604 170.638 36.0938 169.273C35.4271 167.909 35.0938 166.326 35.0938 164.523C35.0938 161.721 35.8125 159.534 37.25 157.961C38.6875 156.388 40.7135 155.602 43.3281 155.602C45.8281 155.602 47.8073 156.409 49.2656 158.023C50.724 159.628 51.4531 161.794 51.4531 164.523ZM38.875 164.523C38.875 168.513 40.349 170.508 43.2969 170.508C46.2135 170.508 47.6719 168.513 47.6719 164.523C47.6719 160.576 46.2031 158.602 43.2656 158.602C41.724 158.602 40.6042 159.112 39.9062 160.133C39.2188 161.154 38.875 162.617 38.875 164.523ZM62.6562 173.508C60.0417 173.508 58.0521 172.747 56.6875 171.227C55.3333 169.695 54.6562 167.503 54.6562 164.648C54.6562 161.742 55.3646 159.508 56.7812 157.945C58.2083 156.383 60.2656 155.602 62.9531 155.602C64.776 155.602 66.4167 155.94 67.875 156.617L66.7656 159.57C65.2135 158.966 63.9323 158.664 62.9219 158.664C59.9323 158.664 58.4375 160.648 58.4375 164.617C58.4375 166.555 58.8073 168.013 59.5469 168.992C60.2969 169.961 61.3906 170.445 62.8281 170.445C64.4635 170.445 66.0104 170.039 67.4688 169.227V172.43C66.8125 172.815 66.1094 173.091 65.3594 173.258C64.6198 173.424 63.7188 173.508 62.6562 173.508ZM79.0781 173.508C76.3906 173.508 74.2865 172.727 72.7656 171.164C71.2552 169.591 70.5 167.43 70.5 164.68C70.5 161.857 71.2031 159.638 72.6094 158.023C74.0156 156.409 75.9479 155.602 78.4062 155.602C80.6875 155.602 82.4896 156.294 83.8125 157.68C85.1354 159.065 85.7969 160.971 85.7969 163.398V165.383H74.2812C74.3333 167.06 74.7865 168.352 75.6406 169.258C76.4948 170.154 77.6979 170.602 79.25 170.602C80.2708 170.602 81.2188 170.508 82.0938 170.32C82.9792 170.122 83.9271 169.799 84.9375 169.352V172.336C84.0417 172.763 83.1354 173.065 82.2188 173.242C81.3021 173.419 80.2552 173.508 79.0781 173.508ZM78.4062 158.383C77.2396 158.383 76.3021 158.753 75.5938 159.492C74.8958 160.232 74.4792 161.31 74.3438 162.727H82.1875C82.1667 161.299 81.8229 160.221 81.1562 159.492C80.4896 158.753 79.5729 158.383 78.4062 158.383ZM101.578 168.273C101.578 169.961 100.964 171.258 99.7344 172.164C98.5052 173.06 96.7448 173.508 94.4531 173.508C92.151 173.508 90.3021 173.159 88.9062 172.461V169.289C90.9375 170.227 92.8281 170.695 94.5781 170.695C96.8385 170.695 97.9688 170.013 97.9688 168.648C97.9688 168.211 97.8438 167.846 97.5938 167.555C97.3438 167.263 96.9323 166.961 96.3594 166.648C95.7865 166.336 94.9896 165.982 93.9688 165.586C91.9792 164.815 90.6302 164.044 89.9219 163.273C89.224 162.503 88.875 161.503 88.875 160.273C88.875 158.794 89.4688 157.648 90.6562 156.836C91.8542 156.013 93.4792 155.602 95.5312 155.602C97.5625 155.602 99.4844 156.013 101.297 156.836L100.109 159.602C98.2448 158.831 96.6771 158.445 95.4062 158.445C93.4688 158.445 92.5 158.997 92.5 160.102C92.5 160.643 92.75 161.102 93.25 161.477C93.7604 161.852 94.8646 162.367 96.5625 163.023C97.9896 163.576 99.026 164.081 99.6719 164.539C100.318 164.997 100.797 165.529 101.109 166.133C101.422 166.727 101.578 167.44 101.578 168.273ZM117.172 168.273C117.172 169.961 116.557 171.258 115.328 172.164C114.099 173.06 112.339 173.508 110.047 173.508C107.745 173.508 105.896 173.159 104.5 172.461V169.289C106.531 170.227 108.422 170.695 110.172 170.695C112.432 170.695 113.562 170.013 113.562 168.648C113.562 168.211 113.438 167.846 113.188 167.555C112.938 167.263 112.526 166.961 111.953 166.648C111.38 166.336 110.583 165.982 109.562 165.586C107.573 164.815 106.224 164.044 105.516 163.273C104.818 162.503 104.469 161.503 104.469 160.273C104.469 158.794 105.062 157.648 106.25 156.836C107.448 156.013 109.073 155.602 111.125 155.602C113.156 155.602 115.078 156.013 116.891 156.836L115.703 159.602C113.839 158.831 112.271 158.445 111 158.445C109.062 158.445 108.094 158.997 108.094 160.102C108.094 160.643 108.344 161.102 108.844 161.477C109.354 161.852 110.458 162.367 112.156 163.023C113.583 163.576 114.62 164.081 115.266 164.539C115.911 164.997 116.391 165.529 116.703 166.133C117.016 166.727 117.172 167.44 117.172 168.273ZM148.438 161.555C148.438 165.326 147.391 168.211 145.297 170.211C143.203 172.201 140.188 173.195 136.25 173.195H129.859V150.352H136.922C140.557 150.352 143.385 151.331 145.406 153.289C147.427 155.247 148.438 158.003 148.438 161.555ZM144.5 161.68C144.5 156.211 141.943 153.477 136.828 153.477H133.594V170.055H136.25C141.75 170.055 144.5 167.263 144.5 161.68ZM163.781 173.195L163.047 170.789H162.922C162.089 171.841 161.25 172.56 160.406 172.945C159.562 173.32 158.479 173.508 157.156 173.508C155.458 173.508 154.13 173.049 153.172 172.133C152.224 171.216 151.75 169.919 151.75 168.242C151.75 166.461 152.411 165.117 153.734 164.211C155.057 163.305 157.073 162.81 159.781 162.727L162.766 162.633V161.711C162.766 160.607 162.505 159.784 161.984 159.242C161.474 158.69 160.677 158.414 159.594 158.414C158.708 158.414 157.859 158.544 157.047 158.805C156.234 159.065 155.453 159.372 154.703 159.727L153.516 157.102C154.453 156.612 155.479 156.242 156.594 155.992C157.708 155.732 158.76 155.602 159.75 155.602C161.948 155.602 163.604 156.081 164.719 157.039C165.844 157.997 166.406 159.503 166.406 161.555V173.195H163.781ZM158.312 170.695C159.646 170.695 160.714 170.326 161.516 169.586C162.328 168.836 162.734 167.789 162.734 166.445V164.945L160.516 165.039C158.786 165.102 157.526 165.393 156.734 165.914C155.953 166.424 155.562 167.211 155.562 168.273C155.562 169.044 155.792 169.643 156.25 170.07C156.708 170.487 157.396 170.695 158.312 170.695ZM183.141 168.273C183.141 169.961 182.526 171.258 181.297 172.164C180.068 173.06 178.307 173.508 176.016 173.508C173.714 173.508 171.865 173.159 170.469 172.461V169.289C172.5 170.227 174.391 170.695 176.141 170.695C178.401 170.695 179.531 170.013 179.531 168.648C179.531 168.211 179.406 167.846 179.156 167.555C178.906 167.263 178.495 166.961 177.922 166.648C177.349 166.336 176.552 165.982 175.531 165.586C173.542 164.815 172.193 164.044 171.484 163.273C170.786 162.503 170.438 161.503 170.438 160.273C170.438 158.794 171.031 157.648 172.219 156.836C173.417 156.013 175.042 155.602 177.094 155.602C179.125 155.602 181.047 156.013 182.859 156.836L181.672 159.602C179.807 158.831 178.24 158.445 176.969 158.445C175.031 158.445 174.062 158.997 174.062 160.102C174.062 160.643 174.312 161.102 174.812 161.477C175.323 161.852 176.427 162.367 178.125 163.023C179.552 163.576 180.589 164.081 181.234 164.539C181.88 164.997 182.359 165.529 182.672 166.133C182.984 166.727 183.141 167.44 183.141 168.273ZM202.328 173.195H198.641V162.57C198.641 161.237 198.37 160.242 197.828 159.586C197.297 158.93 196.448 158.602 195.281 158.602C193.74 158.602 192.604 159.065 191.875 159.992C191.156 160.909 190.797 162.451 190.797 164.617V173.195H187.125V148.883H190.797V155.055C190.797 156.044 190.734 157.102 190.609 158.227H190.844C191.344 157.393 192.036 156.747 192.922 156.289C193.818 155.831 194.859 155.602 196.047 155.602C200.234 155.602 202.328 157.711 202.328 161.93V173.195ZM216.266 155.602C218.422 155.602 220.099 156.383 221.297 157.945C222.505 159.508 223.109 161.701 223.109 164.523C223.109 167.357 222.5 169.565 221.281 171.148C220.062 172.721 218.37 173.508 216.203 173.508C214.016 173.508 212.318 172.721 211.109 171.148H210.859L210.188 173.195H207.438V148.883H211.109V154.664C211.109 155.091 211.089 155.727 211.047 156.57C211.005 157.414 210.974 157.951 210.953 158.18H211.109C212.276 156.461 213.995 155.602 216.266 155.602ZM215.312 158.602C213.833 158.602 212.766 159.039 212.109 159.914C211.464 160.779 211.13 162.232 211.109 164.273V164.523C211.109 166.628 211.443 168.154 212.109 169.102C212.776 170.039 213.865 170.508 215.375 170.508C216.677 170.508 217.661 169.992 218.328 168.961C219.005 167.93 219.344 166.44 219.344 164.492C219.344 160.565 218 158.602 215.312 158.602ZM242.703 164.523C242.703 167.346 241.979 169.549 240.531 171.133C239.083 172.716 237.068 173.508 234.484 173.508C232.87 173.508 231.443 173.143 230.203 172.414C228.964 171.685 228.01 170.638 227.344 169.273C226.677 167.909 226.344 166.326 226.344 164.523C226.344 161.721 227.062 159.534 228.5 157.961C229.938 156.388 231.964 155.602 234.578 155.602C237.078 155.602 239.057 156.409 240.516 158.023C241.974 159.628 242.703 161.794 242.703 164.523ZM230.125 164.523C230.125 168.513 231.599 170.508 234.547 170.508C237.464 170.508 238.922 168.513 238.922 164.523C238.922 160.576 237.453 158.602 234.516 158.602C232.974 158.602 231.854 159.112 231.156 160.133C230.469 161.154 230.125 162.617 230.125 164.523ZM257.75 173.195L257.016 170.789H256.891C256.057 171.841 255.219 172.56 254.375 172.945C253.531 173.32 252.448 173.508 251.125 173.508C249.427 173.508 248.099 173.049 247.141 172.133C246.193 171.216 245.719 169.919 245.719 168.242C245.719 166.461 246.38 165.117 247.703 164.211C249.026 163.305 251.042 162.81 253.75 162.727L256.734 162.633V161.711C256.734 160.607 256.474 159.784 255.953 159.242C255.443 158.69 254.646 158.414 253.562 158.414C252.677 158.414 251.828 158.544 251.016 158.805C250.203 159.065 249.422 159.372 248.672 159.727L247.484 157.102C248.422 156.612 249.448 156.242 250.562 155.992C251.677 155.732 252.729 155.602 253.719 155.602C255.917 155.602 257.573 156.081 258.688 157.039C259.812 157.997 260.375 159.503 260.375 161.555V173.195H257.75ZM252.281 170.695C253.615 170.695 254.682 170.326 255.484 169.586C256.297 168.836 256.703 167.789 256.703 166.445V164.945L254.484 165.039C252.755 165.102 251.495 165.393 250.703 165.914C249.922 166.424 249.531 167.211 249.531 168.273C249.531 169.044 249.76 169.643 250.219 170.07C250.677 170.487 251.365 170.695 252.281 170.695ZM274.266 155.602C275.005 155.602 275.615 155.654 276.094 155.758L275.734 159.18C275.214 159.055 274.672 158.992 274.109 158.992C272.641 158.992 271.448 159.471 270.531 160.43C269.625 161.388 269.172 162.633 269.172 164.164V173.195H265.5V155.914H268.375L268.859 158.961H269.047C269.62 157.93 270.365 157.112 271.281 156.508C272.208 155.904 273.203 155.602 274.266 155.602ZM285.141 173.508C282.984 173.508 281.302 172.727 280.094 171.164C278.885 169.602 278.281 167.409 278.281 164.586C278.281 161.753 278.891 159.549 280.109 157.977C281.339 156.393 283.036 155.602 285.203 155.602C287.474 155.602 289.203 156.44 290.391 158.117H290.578C290.401 156.878 290.312 155.898 290.312 155.18V148.883H294V173.195H291.125L290.484 170.93H290.312C289.135 172.648 287.411 173.508 285.141 173.508ZM286.125 170.539C287.635 170.539 288.734 170.117 289.422 169.273C290.109 168.419 290.464 167.039 290.484 165.133V164.617C290.484 162.44 290.13 160.893 289.422 159.977C288.714 159.06 287.604 158.602 286.094 158.602C284.802 158.602 283.807 159.128 283.109 160.18C282.411 161.221 282.062 162.711 282.062 164.648C282.062 166.565 282.401 168.029 283.078 169.039C283.755 170.039 284.771 170.539 286.125 170.539Z" fill="white"/>
<path d="M8.30078 252.195L2.97852 239.012H2.90039C2.95247 239.819 2.97852 240.646 2.97852 241.492V252.195H2.02148V237.918H3.56445L8.62305 250.477H8.68164L13.7402 237.918H15.2441V252.195H14.2383V241.375C14.2383 240.62 14.2773 239.839 14.3555 239.031H14.2773L8.93555 252.195H8.30078ZM23.8301 252.391C22.2871 252.391 21.0827 251.915 20.2168 250.965C19.3574 250.014 18.9277 248.683 18.9277 246.971C18.9277 245.278 19.3444 243.924 20.1777 242.908C21.0111 241.886 22.1341 241.375 23.5469 241.375C24.7969 241.375 25.7832 241.811 26.5059 242.684C27.2285 243.556 27.5898 244.741 27.5898 246.238V247.02H19.9434C19.9564 248.478 20.2949 249.591 20.959 250.359C21.6296 251.128 22.5866 251.512 23.8301 251.512C24.4355 251.512 24.9661 251.469 25.4219 251.385C25.8841 251.3 26.4668 251.118 27.1699 250.838V251.717C26.571 251.977 26.0176 252.153 25.5098 252.244C25.002 252.342 24.4421 252.391 23.8301 252.391ZM23.5469 242.234C22.5247 242.234 21.7044 242.573 21.0859 243.25C20.4674 243.921 20.1061 244.891 20.002 246.16H26.5645C26.5645 244.93 26.2975 243.969 25.7637 243.279C25.2298 242.583 24.4909 242.234 23.5469 242.234ZM33.627 246.736L29.9258 241.58H31.0391L34.2031 246.053L37.3379 241.58H38.4023L34.7598 246.736L38.666 252.195H37.543L34.2031 247.459L30.8438 252.195H29.7793L33.627 246.736ZM42.4473 252.195H41.4805V241.58H42.4473V252.195ZM41.3438 238.631C41.3438 238.006 41.5488 237.693 41.959 237.693C42.1608 237.693 42.3171 237.775 42.4277 237.938C42.5449 238.1 42.6035 238.331 42.6035 238.631C42.6035 238.924 42.5449 239.155 42.4277 239.324C42.3171 239.493 42.1608 239.578 41.959 239.578C41.5488 239.578 41.3438 239.262 41.3438 238.631ZM50.75 252.391C49.2331 252.391 48.0449 251.912 47.1855 250.955C46.3262 249.998 45.8965 248.663 45.8965 246.951C45.8965 245.193 46.3424 243.826 47.2344 242.85C48.1263 241.867 49.347 241.375 50.8965 241.375C51.8145 241.375 52.6934 241.535 53.5332 241.854L53.2695 242.713C52.3516 242.407 51.554 242.254 50.877 242.254C49.5749 242.254 48.5885 242.658 47.918 243.465C47.2474 244.266 46.9121 245.421 46.9121 246.932C46.9121 248.364 47.2474 249.487 47.918 250.301C48.5885 251.108 49.526 251.512 50.7305 251.512C51.694 251.512 52.5892 251.339 53.416 250.994V251.893C52.7389 252.225 51.8503 252.391 50.75 252.391ZM65.3027 246.873C65.3027 248.605 64.8828 249.959 64.043 250.936C63.2031 251.906 62.0443 252.391 60.5664 252.391C59.6354 252.391 58.8151 252.166 58.1055 251.717C57.3958 251.268 56.8522 250.623 56.4746 249.783C56.097 248.943 55.9082 247.973 55.9082 246.873C55.9082 245.141 56.3281 243.794 57.168 242.83C58.0078 241.86 59.1602 241.375 60.625 241.375C62.0833 241.375 63.2259 241.867 64.0527 242.85C64.8861 243.826 65.3027 245.167 65.3027 246.873ZM56.9238 246.873C56.9238 248.331 57.2428 249.471 57.8809 250.291C58.5254 251.105 59.4336 251.512 60.6055 251.512C61.7773 251.512 62.6823 251.105 63.3203 250.291C63.9648 249.471 64.2871 248.331 64.2871 246.873C64.2871 245.408 63.9616 244.272 63.3105 243.465C62.666 242.658 61.7578 242.254 60.5859 242.254C59.4141 242.254 58.5091 242.658 57.8711 243.465C57.2396 244.266 56.9238 245.402 56.9238 246.873ZM69.8457 249.871L69.9629 250.076C69.4746 251.801 68.9082 253.367 68.2637 254.773H67.6289C68.1302 252.983 68.4883 251.349 68.7031 249.871H69.8457ZM86.3535 247.156H80.5527L78.5605 252.195H77.457L83.1992 237.859H83.834L89.459 252.195H88.3359L86.3535 247.156ZM80.9141 246.258H86.0215L84.0781 241.111C83.9154 240.708 83.7201 240.148 83.4922 239.432C83.3164 240.057 83.1243 240.623 82.916 241.131L80.9141 246.258ZM98.3281 249.432C98.3281 250.382 97.9668 251.115 97.2441 251.629C96.5215 252.137 95.4961 252.391 94.168 252.391C92.7487 252.391 91.6224 252.173 90.7891 251.736V250.691C91.8568 251.225 92.9831 251.492 94.168 251.492C95.2161 251.492 96.0104 251.32 96.5508 250.975C97.0977 250.623 97.3711 250.158 97.3711 249.578C97.3711 249.044 97.153 248.595 96.7168 248.23C96.2871 247.866 95.5775 247.508 94.5879 247.156C93.5267 246.772 92.7812 246.443 92.3516 246.17C91.9219 245.89 91.5964 245.577 91.375 245.232C91.1602 244.881 91.0527 244.454 91.0527 243.953C91.0527 243.159 91.3848 242.531 92.0488 242.068C92.7194 241.606 93.6536 241.375 94.8516 241.375C95.9974 241.375 97.0846 241.59 98.1133 242.02L97.752 242.898C96.7103 242.469 95.7435 242.254 94.8516 242.254C93.9857 242.254 93.2988 242.397 92.791 242.684C92.2832 242.97 92.0293 243.367 92.0293 243.875C92.0293 244.428 92.2246 244.871 92.6152 245.203C93.0124 245.535 93.7839 245.906 94.9297 246.316C95.8867 246.661 96.5833 246.974 97.0195 247.254C97.4557 247.527 97.7812 247.84 97.9961 248.191C98.2174 248.543 98.3281 248.956 98.3281 249.432ZM102.529 252.195H101.562V241.58H102.529V252.195ZM101.426 238.631C101.426 238.006 101.631 237.693 102.041 237.693C102.243 237.693 102.399 237.775 102.51 237.938C102.627 238.1 102.686 238.331 102.686 238.631C102.686 238.924 102.627 239.155 102.51 239.324C102.399 239.493 102.243 239.578 102.041 239.578C101.631 239.578 101.426 239.262 101.426 238.631ZM113.039 252.195L112.795 250.516H112.717C112.183 251.199 111.633 251.684 111.066 251.971C110.507 252.251 109.842 252.391 109.074 252.391C108.033 252.391 107.222 252.124 106.643 251.59C106.063 251.056 105.773 250.317 105.773 249.373C105.773 248.338 106.203 247.534 107.062 246.961C107.928 246.388 109.178 246.085 110.812 246.053L112.834 245.994V245.291C112.834 244.282 112.629 243.52 112.219 243.006C111.809 242.492 111.148 242.234 110.236 242.234C109.253 242.234 108.234 242.508 107.18 243.055L106.818 242.215C107.984 241.668 109.136 241.395 110.275 241.395C111.441 241.395 112.31 241.697 112.883 242.303C113.462 242.908 113.752 243.852 113.752 245.135V252.195H113.039ZM109.133 251.512C110.266 251.512 111.158 251.189 111.809 250.545C112.466 249.894 112.795 248.992 112.795 247.84V246.795L110.939 246.873C109.449 246.945 108.384 247.179 107.746 247.576C107.115 247.967 106.799 248.579 106.799 249.412C106.799 250.076 107.001 250.594 107.404 250.965C107.814 251.329 108.391 251.512 109.133 251.512ZM118.803 249.871L118.92 250.076C118.432 251.801 117.865 253.367 117.221 254.773H116.586C117.087 252.983 117.445 251.349 117.66 249.871H118.803ZM136.238 252.195H128.436V237.918H136.238V238.836H129.432V244.236H135.857V245.154H129.432V251.277H136.238V252.195ZM140.566 241.58V248.455C140.566 249.523 140.791 250.301 141.24 250.789C141.689 251.271 142.386 251.512 143.33 251.512C144.593 251.512 145.521 251.193 146.113 250.555C146.712 249.917 147.012 248.878 147.012 247.439V241.58H147.969V252.195H147.148L146.973 250.73H146.914C146.224 251.837 144.997 252.391 143.232 252.391C140.817 252.391 139.609 251.098 139.609 248.514V241.58H140.566ZM156.203 241.375C156.652 241.375 157.134 241.421 157.648 241.512L157.463 242.439C157.02 242.329 156.561 242.273 156.086 242.273C155.181 242.273 154.439 242.658 153.859 243.426C153.28 244.194 152.99 245.164 152.99 246.336V252.195H152.023V241.58H152.844L152.941 243.494H153.01C153.446 242.713 153.911 242.166 154.406 241.854C154.901 241.535 155.5 241.375 156.203 241.375ZM169.096 246.873C169.096 248.605 168.676 249.959 167.836 250.936C166.996 251.906 165.837 252.391 164.359 252.391C163.428 252.391 162.608 252.166 161.898 251.717C161.189 251.268 160.645 250.623 160.268 249.783C159.89 248.943 159.701 247.973 159.701 246.873C159.701 245.141 160.121 243.794 160.961 242.83C161.801 241.86 162.953 241.375 164.418 241.375C165.876 241.375 167.019 241.867 167.846 242.85C168.679 243.826 169.096 245.167 169.096 246.873ZM160.717 246.873C160.717 248.331 161.036 249.471 161.674 250.291C162.318 251.105 163.227 251.512 164.398 251.512C165.57 251.512 166.475 251.105 167.113 250.291C167.758 249.471 168.08 248.331 168.08 246.873C168.08 245.408 167.755 244.272 167.104 243.465C166.459 242.658 165.551 242.254 164.379 242.254C163.207 242.254 162.302 242.658 161.664 243.465C161.033 244.266 160.717 245.402 160.717 246.873ZM177.076 252.391C175.442 252.391 174.251 251.779 173.502 250.555H173.434L173.463 251.375C173.489 251.857 173.502 252.384 173.502 252.957V257H172.535V241.58H173.355L173.541 243.094H173.6C174.329 241.948 175.494 241.375 177.096 241.375C178.528 241.375 179.618 241.847 180.367 242.791C181.122 243.729 181.5 245.096 181.5 246.893C181.5 248.637 181.103 249.992 180.309 250.955C179.521 251.912 178.443 252.391 177.076 252.391ZM177.057 251.531C178.144 251.531 178.984 251.128 179.576 250.32C180.175 249.513 180.475 248.383 180.475 246.932C180.475 243.813 179.348 242.254 177.096 242.254C175.859 242.254 174.951 242.596 174.371 243.279C173.792 243.956 173.502 245.063 173.502 246.6V246.912C173.502 248.572 173.779 249.757 174.332 250.467C174.892 251.176 175.8 251.531 177.057 251.531ZM189.236 252.391C187.693 252.391 186.489 251.915 185.623 250.965C184.764 250.014 184.334 248.683 184.334 246.971C184.334 245.278 184.751 243.924 185.584 242.908C186.417 241.886 187.54 241.375 188.953 241.375C190.203 241.375 191.189 241.811 191.912 242.684C192.635 243.556 192.996 244.741 192.996 246.238V247.02H185.35C185.363 248.478 185.701 249.591 186.365 250.359C187.036 251.128 187.993 251.512 189.236 251.512C189.842 251.512 190.372 251.469 190.828 251.385C191.29 251.3 191.873 251.118 192.576 250.838V251.717C191.977 251.977 191.424 252.153 190.916 252.244C190.408 252.342 189.848 252.391 189.236 252.391ZM188.953 242.234C187.931 242.234 187.111 242.573 186.492 243.25C185.874 243.921 185.512 244.891 185.408 246.16H191.971C191.971 244.93 191.704 243.969 191.17 243.279C190.636 242.583 189.897 242.234 188.953 242.234Z" fill="white"/>
<path d="M1.37402 389.195V379.201H2.53613V388.143H6.94531V389.195H1.37402ZM13.084 389.195L12.8584 388.129H12.8037C12.43 388.598 12.0563 388.917 11.6826 389.086C11.3135 389.25 10.8509 389.332 10.2949 389.332C9.55208 389.332 8.96875 389.141 8.54492 388.758C8.12565 388.375 7.91602 387.83 7.91602 387.124C7.91602 385.611 9.12598 384.818 11.5459 384.745L12.8174 384.704V384.239C12.8174 383.651 12.6898 383.218 12.4346 382.94C12.1839 382.658 11.7806 382.517 11.2246 382.517C10.6003 382.517 9.89388 382.708 9.10547 383.091L8.75684 382.223C9.12598 382.022 9.5293 381.865 9.9668 381.751C10.4089 381.637 10.8509 381.58 11.293 381.58C12.1862 381.58 12.847 381.778 13.2754 382.175C13.7083 382.571 13.9248 383.207 13.9248 384.082V389.195H13.084ZM10.5205 388.396C11.2269 388.396 11.7806 388.202 12.1816 387.814C12.5872 387.427 12.79 386.885 12.79 386.188V385.511L11.6553 385.559C10.7529 385.59 10.1012 385.732 9.7002 385.982C9.30371 386.229 9.10547 386.614 9.10547 387.138C9.10547 387.548 9.22852 387.86 9.47461 388.074C9.72526 388.288 10.0739 388.396 10.5205 388.396ZM21.1025 387.151C21.1025 387.849 20.8428 388.386 20.3232 388.765C19.8037 389.143 19.0745 389.332 18.1357 389.332C17.1423 389.332 16.3675 389.175 15.8115 388.86V387.808C16.1715 387.99 16.5566 388.133 16.9668 388.238C17.3815 388.343 17.7803 388.396 18.1631 388.396C18.7555 388.396 19.2113 388.302 19.5303 388.115C19.8493 387.924 20.0088 387.634 20.0088 387.247C20.0088 386.955 19.8812 386.707 19.626 386.502C19.3753 386.292 18.8831 386.046 18.1494 385.764C17.4521 385.504 16.9554 385.278 16.6592 385.087C16.3675 384.891 16.1488 384.67 16.0029 384.424C15.8617 384.178 15.791 383.884 15.791 383.542C15.791 382.931 16.0394 382.451 16.5361 382.1C17.0329 381.744 17.7142 381.566 18.5801 381.566C19.3867 381.566 20.1751 381.73 20.9453 382.059L20.542 382.981C19.79 382.672 19.1087 382.517 18.498 382.517C17.9603 382.517 17.5547 382.601 17.2812 382.77C17.0078 382.938 16.8711 383.171 16.8711 383.467C16.8711 383.667 16.9212 383.838 17.0215 383.979C17.1263 384.121 17.2926 384.255 17.5205 384.383C17.7484 384.51 18.1859 384.695 18.833 384.937C19.7217 385.26 20.321 385.586 20.6309 385.914C20.9453 386.242 21.1025 386.655 21.1025 387.151ZM25.375 388.396C25.5755 388.396 25.7692 388.382 25.9561 388.354C26.1429 388.323 26.291 388.291 26.4004 388.259V389.127C26.2773 389.186 26.0951 389.234 25.8535 389.271C25.6165 389.312 25.4023 389.332 25.2109 389.332C23.7617 389.332 23.0371 388.569 23.0371 387.042V382.585H21.9639V382.038L23.0371 381.566L23.5156 379.967H24.1719V381.703H26.3457V382.585H24.1719V386.994C24.1719 387.445 24.279 387.792 24.4932 388.033C24.7074 388.275 25.0013 388.396 25.375 388.396ZM32.2861 389.195L36.4287 380.247H30.9805V379.201H37.6318V380.11L33.5439 389.195H32.2861ZM48.2891 388.19H48.2275C47.7035 388.951 46.9196 389.332 45.876 389.332C44.8962 389.332 44.1328 388.997 43.5859 388.327C43.0436 387.657 42.7725 386.705 42.7725 385.47C42.7725 384.235 43.0459 383.275 43.5928 382.592C44.1396 381.908 44.9007 381.566 45.876 381.566C46.8923 381.566 47.6715 381.936 48.2139 382.674H48.3027L48.2549 382.134L48.2275 381.607V378.559H49.3623V389.195H48.4395L48.2891 388.19ZM46.0195 388.382C46.7943 388.382 47.3548 388.172 47.7012 387.753C48.0521 387.329 48.2275 386.648 48.2275 385.709V385.47C48.2275 384.408 48.0498 383.651 47.6943 383.2C47.3434 382.744 46.7806 382.517 46.0059 382.517C45.3405 382.517 44.8301 382.776 44.4746 383.296C44.1237 383.811 43.9482 384.54 43.9482 385.483C43.9482 386.44 44.1237 387.163 44.4746 387.65C44.8255 388.138 45.3405 388.382 46.0195 388.382ZM56.3828 389.195L56.1572 388.129H56.1025C55.7288 388.598 55.3551 388.917 54.9814 389.086C54.6123 389.25 54.1497 389.332 53.5938 389.332C52.8509 389.332 52.2676 389.141 51.8438 388.758C51.4245 388.375 51.2148 387.83 51.2148 387.124C51.2148 385.611 52.4248 384.818 54.8447 384.745L56.1162 384.704V384.239C56.1162 383.651 55.9886 383.218 55.7334 382.94C55.4827 382.658 55.0794 382.517 54.5234 382.517C53.8991 382.517 53.1927 382.708 52.4043 383.091L52.0557 382.223C52.4248 382.022 52.8281 381.865 53.2656 381.751C53.7077 381.637 54.1497 381.58 54.5918 381.58C55.485 381.58 56.1458 381.778 56.5742 382.175C57.0072 382.571 57.2236 383.207 57.2236 384.082V389.195H56.3828ZM53.8193 388.396C54.5257 388.396 55.0794 388.202 55.4805 387.814C55.8861 387.427 56.0889 386.885 56.0889 386.188V385.511L54.9541 385.559C54.0518 385.59 53.4001 385.732 52.999 385.982C52.6025 386.229 52.4043 386.614 52.4043 387.138C52.4043 387.548 52.5273 387.86 52.7734 388.074C53.0241 388.288 53.3727 388.396 53.8193 388.396ZM58.3789 381.703H59.5957L61.2363 385.976C61.5964 386.951 61.8197 387.655 61.9062 388.088H61.9609C62.0202 387.855 62.1432 387.459 62.3301 386.898C62.5215 386.333 63.1413 384.602 64.1895 381.703H65.4062L62.1865 390.234C61.8675 391.077 61.4938 391.674 61.0654 392.025C60.6416 392.381 60.1198 392.559 59.5 392.559C59.1536 392.559 58.8118 392.52 58.4746 392.442V391.533C58.7253 391.588 59.0055 391.615 59.3154 391.615C60.0947 391.615 60.6507 391.178 60.9834 390.303L61.4004 389.236L58.3789 381.703ZM71.4561 387.151C71.4561 387.849 71.1963 388.386 70.6768 388.765C70.1572 389.143 69.4281 389.332 68.4893 389.332C67.4958 389.332 66.721 389.175 66.165 388.86V387.808C66.5251 387.99 66.9102 388.133 67.3203 388.238C67.735 388.343 68.1338 388.396 68.5166 388.396C69.109 388.396 69.5648 388.302 69.8838 388.115C70.2028 387.924 70.3623 387.634 70.3623 387.247C70.3623 386.955 70.2347 386.707 69.9795 386.502C69.7288 386.292 69.2367 386.046 68.5029 385.764C67.8057 385.504 67.3089 385.278 67.0127 385.087C66.721 384.891 66.5023 384.67 66.3564 384.424C66.2152 384.178 66.1445 383.884 66.1445 383.542C66.1445 382.931 66.3929 382.451 66.8896 382.1C67.3864 381.744 68.0677 381.566 68.9336 381.566C69.7402 381.566 70.5286 381.73 71.2988 382.059L70.8955 382.981C70.1436 382.672 69.4622 382.517 68.8516 382.517C68.3138 382.517 67.9082 382.601 67.6348 382.77C67.3613 382.938 67.2246 383.171 67.2246 383.467C67.2246 383.667 67.2747 383.838 67.375 383.979C67.4798 384.121 67.6462 384.255 67.874 384.383C68.1019 384.51 68.5394 384.695 69.1865 384.937C70.0752 385.26 70.6745 385.586 70.9844 385.914C71.2988 386.242 71.4561 386.655 71.4561 387.151ZM74.498 387.568L74.6006 387.726C74.4821 388.181 74.3112 388.71 74.0879 389.312C73.8646 389.918 73.6322 390.48 73.3906 391H72.5361C72.6592 390.526 72.7936 389.94 72.9395 389.243C73.0898 388.546 73.1947 387.988 73.2539 387.568H74.498ZM84.8271 380.097C83.7288 380.097 82.8607 380.464 82.2227 381.197C81.5892 381.926 81.2725 382.927 81.2725 384.198C81.2725 385.506 81.5778 386.518 82.1885 387.233C82.8037 387.944 83.6787 388.3 84.8135 388.3C85.5107 388.3 86.306 388.174 87.1992 387.924V388.942C86.5065 389.202 85.652 389.332 84.6357 389.332C83.1637 389.332 82.0267 388.885 81.2246 387.992C80.4271 387.099 80.0283 385.83 80.0283 384.185C80.0283 383.155 80.2197 382.252 80.6025 381.478C80.9899 380.703 81.5459 380.106 82.2705 379.687C82.9997 379.267 83.8564 379.058 84.8408 379.058C85.889 379.058 86.805 379.249 87.5889 379.632L87.0967 380.63C86.3402 380.274 85.5837 380.097 84.8271 380.097ZM90.2754 381.703V386.563C90.2754 387.174 90.4144 387.63 90.6924 387.931C90.9704 388.231 91.4056 388.382 91.998 388.382C92.7819 388.382 93.3538 388.168 93.7139 387.739C94.0785 387.311 94.2607 386.611 94.2607 385.641V381.703H95.3955V389.195H94.459L94.2949 388.19H94.2334C94.001 388.56 93.6774 388.842 93.2627 389.038C92.8525 389.234 92.3831 389.332 91.8545 389.332C90.943 389.332 90.2594 389.116 89.8037 388.683C89.3525 388.25 89.127 387.557 89.127 386.604V381.703H90.2754ZM101.227 381.566C101.559 381.566 101.858 381.594 102.122 381.648L101.965 382.701C101.655 382.633 101.382 382.599 101.145 382.599C100.538 382.599 100.019 382.845 99.5859 383.337C99.1576 383.829 98.9434 384.442 98.9434 385.176V389.195H97.8086V381.703H98.7451L98.875 383.091H98.9297C99.2077 382.603 99.5426 382.227 99.9346 381.963C100.326 381.699 100.757 381.566 101.227 381.566ZM106.941 381.566C107.274 381.566 107.573 381.594 107.837 381.648L107.68 382.701C107.37 382.633 107.096 382.599 106.859 382.599C106.253 382.599 105.734 382.845 105.301 383.337C104.872 383.829 104.658 384.442 104.658 385.176V389.195H103.523V381.703H104.46L104.59 383.091H104.645C104.923 382.603 105.257 382.227 105.649 381.963C106.041 381.699 106.472 381.566 106.941 381.566ZM112.403 389.332C111.296 389.332 110.421 388.995 109.778 388.32C109.14 387.646 108.821 386.709 108.821 385.511C108.821 384.303 109.118 383.344 109.71 382.633C110.307 381.922 111.107 381.566 112.109 381.566C113.048 381.566 113.791 381.876 114.338 382.496C114.885 383.111 115.158 383.925 115.158 384.937V385.654H109.997C110.02 386.534 110.241 387.201 110.66 387.657C111.084 388.113 111.679 388.341 112.444 388.341C113.251 388.341 114.049 388.172 114.837 387.835V388.847C114.436 389.02 114.055 389.143 113.695 389.216C113.34 389.293 112.909 389.332 112.403 389.332ZM112.096 382.517C111.494 382.517 111.013 382.713 110.653 383.104C110.298 383.496 110.088 384.039 110.024 384.731H113.941C113.941 384.016 113.782 383.469 113.463 383.091C113.144 382.708 112.688 382.517 112.096 382.517ZM122.227 389.195V384.349C122.227 383.738 122.088 383.282 121.81 382.981C121.532 382.681 121.096 382.53 120.504 382.53C119.72 382.53 119.146 382.742 118.781 383.166C118.417 383.59 118.234 384.289 118.234 385.265V389.195H117.1V381.703H118.022L118.207 382.729H118.262C118.494 382.359 118.82 382.075 119.239 381.874C119.659 381.669 120.126 381.566 120.641 381.566C121.543 381.566 122.222 381.785 122.678 382.223C123.133 382.656 123.361 383.351 123.361 384.308V389.195H122.227ZM128.119 388.396C128.32 388.396 128.513 388.382 128.7 388.354C128.887 388.323 129.035 388.291 129.145 388.259V389.127C129.021 389.186 128.839 389.234 128.598 389.271C128.361 389.312 128.146 389.332 127.955 389.332C126.506 389.332 125.781 388.569 125.781 387.042V382.585H124.708V382.038L125.781 381.566L126.26 379.967H126.916V381.703H129.09V382.585H126.916V386.994C126.916 387.445 127.023 387.792 127.237 388.033C127.451 388.275 127.745 388.396 128.119 388.396ZM138.879 389.195L135.488 380.336H135.434C135.497 381.038 135.529 381.872 135.529 382.838V389.195H134.456V379.201H136.206L139.371 387.445H139.426L142.618 379.201H144.354V389.195H143.192V382.756C143.192 382.018 143.224 381.215 143.288 380.35H143.233L139.815 389.195H138.879ZM153.398 385.442C153.398 386.664 153.091 387.618 152.476 388.307C151.86 388.99 151.01 389.332 149.926 389.332C149.256 389.332 148.661 389.175 148.142 388.86C147.622 388.546 147.221 388.095 146.938 387.507C146.656 386.919 146.515 386.231 146.515 385.442C146.515 384.221 146.82 383.271 147.431 382.592C148.041 381.908 148.889 381.566 149.974 381.566C151.022 381.566 151.854 381.915 152.469 382.612C153.089 383.31 153.398 384.253 153.398 385.442ZM147.69 385.442C147.69 386.399 147.882 387.129 148.265 387.63C148.647 388.131 149.21 388.382 149.953 388.382C150.696 388.382 151.259 388.133 151.642 387.637C152.029 387.135 152.223 386.404 152.223 385.442C152.223 384.49 152.029 383.768 151.642 383.275C151.259 382.779 150.691 382.53 149.939 382.53C149.197 382.53 148.636 382.774 148.258 383.262C147.88 383.749 147.69 384.476 147.69 385.442ZM160.521 389.195V384.349C160.521 383.738 160.382 383.282 160.104 382.981C159.826 382.681 159.391 382.53 158.799 382.53C158.015 382.53 157.441 382.742 157.076 383.166C156.712 383.59 156.529 384.289 156.529 385.265V389.195H155.395V381.703H156.317L156.502 382.729H156.557C156.789 382.359 157.115 382.075 157.534 381.874C157.953 381.669 158.421 381.566 158.936 381.566C159.838 381.566 160.517 381.785 160.973 382.223C161.428 382.656 161.656 383.351 161.656 384.308V389.195H160.521ZM166.414 388.396C166.615 388.396 166.808 388.382 166.995 388.354C167.182 388.323 167.33 388.291 167.439 388.259V389.127C167.316 389.186 167.134 389.234 166.893 389.271C166.656 389.312 166.441 389.332 166.25 389.332C164.801 389.332 164.076 388.569 164.076 387.042V382.585H163.003V382.038L164.076 381.566L164.555 379.967H165.211V381.703H167.385V382.585H165.211V386.994C165.211 387.445 165.318 387.792 165.532 388.033C165.746 388.275 166.04 388.396 166.414 388.396ZM174.07 389.195V384.349C174.07 383.738 173.931 383.282 173.653 382.981C173.375 382.681 172.94 382.53 172.348 382.53C171.559 382.53 170.983 382.744 170.618 383.173C170.258 383.601 170.078 384.303 170.078 385.278V389.195H168.943V378.559H170.078V381.778C170.078 382.166 170.06 382.487 170.023 382.742H170.092C170.315 382.382 170.632 382.1 171.042 381.895C171.457 381.685 171.928 381.58 172.457 381.58C173.373 381.58 174.059 381.799 174.515 382.236C174.975 382.669 175.205 383.36 175.205 384.308V389.195H174.07Z" fill="white"/>
<path d="M8.42969 327.195L7.60156 324.477H3.4375L2.60938 327.195H0L4.03125 315.727H6.99219L11.0391 327.195H8.42969ZM7.02344 322.445C6.25781 319.982 5.82552 318.589 5.72656 318.266C5.63281 317.943 5.5651 317.688 5.52344 317.5C5.35156 318.167 4.85938 319.815 4.04688 322.445H7.02344ZM17.1737 327.352C16.1477 327.352 15.343 326.979 14.7597 326.234H14.6347C14.718 326.964 14.7597 327.385 14.7597 327.5V331.039H12.3769V318.461H14.3144L14.6503 319.594H14.7597C15.317 318.729 16.1425 318.297 17.2362 318.297C18.2675 318.297 19.0748 318.695 19.6581 319.492C20.2415 320.289 20.5331 321.396 20.5331 322.812C20.5331 323.745 20.3951 324.555 20.1191 325.242C19.8482 325.93 19.4602 326.453 18.955 326.812C18.4498 327.172 17.856 327.352 17.1737 327.352ZM16.4706 320.203C15.8821 320.203 15.4524 320.385 15.1816 320.75C14.9107 321.109 14.7701 321.706 14.7597 322.539V322.797C14.7597 323.734 14.8977 324.406 15.1737 324.812C15.455 325.219 15.8977 325.422 16.5019 325.422C17.5696 325.422 18.1034 324.542 18.1034 322.781C18.1034 321.922 17.9706 321.279 17.705 320.852C17.4446 320.419 17.0331 320.203 16.4706 320.203ZM24.4803 322.812C24.4803 323.677 24.6209 324.331 24.9022 324.773C25.1886 325.216 25.6522 325.438 26.2928 325.438C26.9282 325.438 27.384 325.219 27.66 324.781C27.9412 324.339 28.0819 323.682 28.0819 322.812C28.0819 321.948 27.9412 321.299 27.66 320.867C27.3787 320.435 26.9178 320.219 26.2772 320.219C25.6418 320.219 25.1834 320.435 24.9022 320.867C24.6209 321.294 24.4803 321.943 24.4803 322.812ZM30.5194 322.812C30.5194 324.234 30.1444 325.346 29.3944 326.148C28.6444 326.951 27.6001 327.352 26.2616 327.352C25.423 327.352 24.6834 327.169 24.0428 326.805C23.4022 326.435 22.91 325.906 22.5662 325.219C22.2225 324.531 22.0506 323.729 22.0506 322.812C22.0506 321.385 22.423 320.276 23.1678 319.484C23.9126 318.693 24.9595 318.297 26.3084 318.297C27.147 318.297 27.8866 318.479 28.5272 318.844C29.1678 319.208 29.66 319.732 30.0037 320.414C30.3475 321.096 30.5194 321.896 30.5194 322.812ZM35.3337 327.352C34.3077 327.352 33.5004 326.953 32.9119 326.156C32.3285 325.359 32.0369 324.255 32.0369 322.844C32.0369 321.411 32.3337 320.297 32.9275 319.5C33.5265 318.698 34.3494 318.297 35.3962 318.297C36.4952 318.297 37.3337 318.724 37.9119 319.578H37.99C37.8702 318.927 37.8103 318.346 37.8103 317.836V315.039H40.2009V327.195H38.3728L37.9119 326.062H37.8103C37.2686 326.922 36.4431 327.352 35.3337 327.352ZM36.1697 325.453C36.7791 325.453 37.2244 325.276 37.5056 324.922C37.7921 324.568 37.9483 323.966 37.9744 323.117V322.859C37.9744 321.922 37.8285 321.25 37.5369 320.844C37.2504 320.438 36.7817 320.234 36.1306 320.234C35.5994 320.234 35.1853 320.461 34.8884 320.914C34.5968 321.362 34.4509 322.016 34.4509 322.875C34.4509 323.734 34.5994 324.38 34.8962 324.812C35.1931 325.24 35.6176 325.453 36.1697 325.453ZM48.32 327.195L47.8591 326.008H47.7966C47.3955 326.513 46.9815 326.865 46.5544 327.062C46.1325 327.255 45.5804 327.352 44.8981 327.352C44.0596 327.352 43.3981 327.112 42.9137 326.633C42.4346 326.154 42.195 325.471 42.195 324.586C42.195 323.659 42.5179 322.977 43.1637 322.539C43.8148 322.096 44.794 321.852 46.1012 321.805L47.6169 321.758V321.375C47.6169 320.49 47.1637 320.047 46.2575 320.047C45.5596 320.047 44.7393 320.258 43.7966 320.68L43.0075 319.07C44.0127 318.544 45.1273 318.281 46.3512 318.281C47.5231 318.281 48.4216 318.536 49.0466 319.047C49.6716 319.557 49.9841 320.333 49.9841 321.375V327.195H48.32ZM47.6169 323.148L46.695 323.18C46.0023 323.201 45.4867 323.326 45.1481 323.555C44.8096 323.784 44.6403 324.133 44.6403 324.602C44.6403 325.273 45.0257 325.609 45.7966 325.609C46.3486 325.609 46.7887 325.451 47.1169 325.133C47.4502 324.815 47.6169 324.393 47.6169 323.867V323.148ZM56.0719 327.352C53.3531 327.352 51.9938 325.859 51.9938 322.875C51.9938 321.391 52.3635 320.258 53.1031 319.477C53.8427 318.69 54.9026 318.297 56.2828 318.297C57.2932 318.297 58.1995 318.495 59.0016 318.891L58.2984 320.734C57.9234 320.583 57.5745 320.461 57.2516 320.367C56.9286 320.268 56.6057 320.219 56.2828 320.219C55.0432 320.219 54.4234 321.099 54.4234 322.859C54.4234 324.568 55.0432 325.422 56.2828 325.422C56.7411 325.422 57.1656 325.362 57.5563 325.242C57.9469 325.117 58.3375 324.924 58.7281 324.664V326.703C58.3427 326.948 57.9521 327.117 57.5563 327.211C57.1656 327.305 56.6708 327.352 56.0719 327.352ZM66.3862 327.195L65.9253 326.008H65.8628C65.4618 326.513 65.0477 326.865 64.6206 327.062C64.1987 327.255 63.6467 327.352 62.9644 327.352C62.1258 327.352 61.4644 327.112 60.98 326.633C60.5008 326.154 60.2612 325.471 60.2612 324.586C60.2612 323.659 60.5842 322.977 61.23 322.539C61.881 322.096 62.8602 321.852 64.1675 321.805L65.6831 321.758V321.375C65.6831 320.49 65.23 320.047 64.3237 320.047C63.6258 320.047 62.8055 320.258 61.8628 320.68L61.0737 319.07C62.079 318.544 63.1935 318.281 64.4175 318.281C65.5894 318.281 66.4878 318.536 67.1128 319.047C67.7378 319.557 68.0503 320.333 68.0503 321.375V327.195H66.3862ZM65.6831 323.148L64.7612 323.18C64.0685 323.201 63.5529 323.326 63.2144 323.555C62.8758 323.784 62.7066 324.133 62.7066 324.602C62.7066 325.273 63.092 325.609 63.8628 325.609C64.4149 325.609 64.855 325.451 65.1831 325.133C65.5165 324.815 65.6831 324.393 65.6831 323.867V323.148ZM72.9272 325.516C72.6564 326.568 72.198 327.815 71.5522 329.258H69.8334C70.172 327.872 70.435 326.565 70.6225 325.336H72.81L72.9272 325.516ZM86.4778 324.023C86.4778 325.055 86.1054 325.867 85.3606 326.461C84.621 327.055 83.5898 327.352 82.2669 327.352C81.0481 327.352 79.97 327.122 79.0325 326.664V324.414C79.8033 324.758 80.4544 325 80.9856 325.141C81.5221 325.281 82.0117 325.352 82.4544 325.352C82.9856 325.352 83.3919 325.25 83.6731 325.047C83.9596 324.844 84.1028 324.542 84.1028 324.141C84.1028 323.917 84.0403 323.719 83.9153 323.547C83.7903 323.37 83.6054 323.201 83.3606 323.039C83.121 322.878 82.6289 322.62 81.8841 322.266C81.1861 321.938 80.6627 321.622 80.3138 321.32C79.9648 321.018 79.6861 320.667 79.4778 320.266C79.2695 319.865 79.1653 319.396 79.1653 318.859C79.1653 317.849 79.5065 317.055 80.1888 316.477C80.8763 315.898 81.8242 315.609 83.0325 315.609C83.6263 315.609 84.1914 315.68 84.7278 315.82C85.2695 315.961 85.8346 316.159 86.4231 316.414L85.6419 318.297C85.0325 318.047 84.5273 317.872 84.1263 317.773C83.7304 317.674 83.3398 317.625 82.9544 317.625C82.496 317.625 82.1445 317.732 81.8997 317.945C81.6549 318.159 81.5325 318.438 81.5325 318.781C81.5325 318.995 81.582 319.182 81.6809 319.344C81.7799 319.5 81.9361 319.654 82.1497 319.805C82.3684 319.951 82.8815 320.216 83.6888 320.602C84.7565 321.112 85.4882 321.625 85.8841 322.141C86.2799 322.651 86.4778 323.279 86.4778 324.023ZM93.9875 327.195L93.5266 326.008H93.4641C93.063 326.513 92.649 326.865 92.2219 327.062C91.8 327.255 91.2479 327.352 90.5656 327.352C89.7271 327.352 89.0656 327.112 88.5813 326.633C88.1021 326.154 87.8625 325.471 87.8625 324.586C87.8625 323.659 88.1854 322.977 88.8313 322.539C89.4823 322.096 90.4615 321.852 91.7688 321.805L93.2844 321.758V321.375C93.2844 320.49 92.8313 320.047 91.925 320.047C91.2271 320.047 90.4068 320.258 89.4641 320.68L88.675 319.07C89.6802 318.544 90.7948 318.281 92.0188 318.281C93.1906 318.281 94.0891 318.536 94.7141 319.047C95.3391 319.557 95.6516 320.333 95.6516 321.375V327.195H93.9875ZM93.2844 323.148L92.3625 323.18C91.6698 323.201 91.1542 323.326 90.8156 323.555C90.4771 323.784 90.3078 324.133 90.3078 324.602C90.3078 325.273 90.6932 325.609 91.4641 325.609C92.0161 325.609 92.4563 325.451 92.7844 325.133C93.1177 324.815 93.2844 324.393 93.2844 323.867V323.148ZM100.575 327.195H98.1925V315.039H100.575V327.195ZM106.843 325.453C107.259 325.453 107.759 325.362 108.343 325.18V326.953C107.749 327.219 107.02 327.352 106.155 327.352C105.202 327.352 104.507 327.112 104.069 326.633C103.637 326.148 103.421 325.424 103.421 324.461V320.25H102.28V319.242L103.593 318.445L104.28 316.602H105.804V318.461H108.249V320.25H105.804V324.461C105.804 324.799 105.897 325.049 106.085 325.211C106.278 325.372 106.53 325.453 106.843 325.453ZM110.095 316.203C110.095 315.427 110.527 315.039 111.392 315.039C112.256 315.039 112.688 315.427 112.688 316.203C112.688 316.573 112.579 316.862 112.36 317.07C112.147 317.273 111.824 317.375 111.392 317.375C110.527 317.375 110.095 316.984 110.095 316.203ZM112.579 327.195H110.196V318.461H112.579V327.195ZM117.55 327.195H115.167V315.039H117.55V327.195ZM122.52 327.195H120.137V315.039H122.52V327.195ZM127.007 322.812C127.007 323.677 127.147 324.331 127.428 324.773C127.715 325.216 128.178 325.438 128.819 325.438C129.454 325.438 129.91 325.219 130.186 324.781C130.467 324.339 130.608 323.682 130.608 322.812C130.608 321.948 130.467 321.299 130.186 320.867C129.905 320.435 129.444 320.219 128.803 320.219C128.168 320.219 127.71 320.435 127.428 320.867C127.147 321.294 127.007 321.943 127.007 322.812ZM133.046 322.812C133.046 324.234 132.671 325.346 131.921 326.148C131.171 326.951 130.126 327.352 128.788 327.352C127.949 327.352 127.21 327.169 126.569 326.805C125.928 326.435 125.436 325.906 125.092 325.219C124.749 324.531 124.577 323.729 124.577 322.812C124.577 321.385 124.949 320.276 125.694 319.484C126.439 318.693 127.486 318.297 128.835 318.297C129.673 318.297 130.413 318.479 131.053 318.844C131.694 319.208 132.186 319.732 132.53 320.414C132.874 321.096 133.046 321.896 133.046 322.812ZM137.43 325.516C137.159 326.568 136.701 327.815 136.055 329.258H134.337C134.675 327.872 134.938 326.565 135.126 325.336H137.313L137.43 325.516ZM150.981 324.023C150.981 325.055 150.609 325.867 149.864 326.461C149.124 327.055 148.093 327.352 146.77 327.352C145.551 327.352 144.473 327.122 143.536 326.664V324.414C144.306 324.758 144.958 325 145.489 325.141C146.025 325.281 146.515 325.352 146.958 325.352C147.489 325.352 147.895 325.25 148.176 325.047C148.463 324.844 148.606 324.542 148.606 324.141C148.606 323.917 148.543 323.719 148.418 323.547C148.293 323.37 148.109 323.201 147.864 323.039C147.624 322.878 147.132 322.62 146.387 322.266C145.689 321.938 145.166 321.622 144.817 321.32C144.468 321.018 144.189 320.667 143.981 320.266C143.773 319.865 143.668 319.396 143.668 318.859C143.668 317.849 144.01 317.055 144.692 316.477C145.379 315.898 146.327 315.609 147.536 315.609C148.129 315.609 148.694 315.68 149.231 315.82C149.773 315.961 150.338 316.159 150.926 316.414L150.145 318.297C149.536 318.047 149.03 317.872 148.629 317.773C148.234 317.674 147.843 317.625 147.458 317.625C146.999 317.625 146.648 317.732 146.403 317.945C146.158 318.159 146.036 318.438 146.036 318.781C146.036 318.995 146.085 319.182 146.184 319.344C146.283 319.5 146.439 319.654 146.653 319.805C146.872 319.951 147.385 320.216 148.192 320.602C149.26 321.112 149.991 321.625 150.387 322.141C150.783 322.651 150.981 323.279 150.981 324.023ZM158.491 327.195L158.03 326.008H157.967C157.566 326.513 157.152 326.865 156.725 327.062C156.303 327.255 155.751 327.352 155.069 327.352C154.23 327.352 153.569 327.112 153.084 326.633C152.605 326.154 152.366 325.471 152.366 324.586C152.366 323.659 152.689 322.977 153.334 322.539C153.985 322.096 154.965 321.852 156.272 321.805L157.788 321.758V321.375C157.788 320.49 157.334 320.047 156.428 320.047C155.73 320.047 154.91 320.258 153.967 320.68L153.178 319.07C154.183 318.544 155.298 318.281 156.522 318.281C157.694 318.281 158.592 318.536 159.217 319.047C159.842 319.557 160.155 320.333 160.155 321.375V327.195H158.491ZM157.788 323.148L156.866 323.18C156.173 323.201 155.657 323.326 155.319 323.555C154.98 323.784 154.811 324.133 154.811 324.602C154.811 325.273 155.196 325.609 155.967 325.609C156.519 325.609 156.959 325.451 157.288 325.133C157.621 324.815 157.788 324.393 157.788 323.867V323.148ZM170.758 327.195H168.375V322.094C168.375 321.464 168.263 320.992 168.039 320.68C167.815 320.362 167.459 320.203 166.969 320.203C166.302 320.203 165.821 320.427 165.524 320.875C165.227 321.318 165.078 322.055 165.078 323.086V327.195H162.696V318.461H164.516L164.836 319.578H164.969C165.235 319.156 165.599 318.839 166.063 318.625C166.532 318.406 167.063 318.297 167.657 318.297C168.672 318.297 169.443 318.573 169.969 319.125C170.495 319.672 170.758 320.464 170.758 321.5V327.195ZM177.715 327.195V315.773H180.137V325.195H184.77V327.195H177.715ZM192.842 327.195L192.522 326.078H192.397C192.141 326.484 191.779 326.799 191.311 327.023C190.842 327.242 190.308 327.352 189.709 327.352C188.683 327.352 187.91 327.078 187.389 326.531C186.868 325.979 186.607 325.188 186.607 324.156V318.461H188.99V323.562C188.99 324.193 189.102 324.667 189.326 324.984C189.55 325.297 189.907 325.453 190.397 325.453C191.063 325.453 191.545 325.232 191.842 324.789C192.139 324.341 192.287 323.602 192.287 322.57V318.461H194.67V327.195H192.842ZM197.148 316.203C197.148 315.427 197.581 315.039 198.445 315.039C199.31 315.039 199.742 315.427 199.742 316.203C199.742 316.573 199.633 316.862 199.414 317.07C199.201 317.273 198.878 317.375 198.445 317.375C197.581 317.375 197.148 316.984 197.148 316.203ZM199.633 327.195H197.25V318.461H199.633V327.195ZM208.314 324.602C208.314 325.497 208.002 326.18 207.377 326.648C206.757 327.117 205.827 327.352 204.588 327.352C203.952 327.352 203.411 327.307 202.963 327.219C202.515 327.135 202.096 327.01 201.705 326.844V324.875C202.148 325.083 202.645 325.258 203.197 325.398C203.754 325.539 204.244 325.609 204.666 325.609C205.531 325.609 205.963 325.359 205.963 324.859C205.963 324.672 205.906 324.521 205.791 324.406C205.676 324.286 205.478 324.154 205.197 324.008C204.916 323.857 204.541 323.682 204.072 323.484C203.4 323.203 202.906 322.943 202.588 322.703C202.275 322.464 202.046 322.19 201.9 321.883C201.76 321.57 201.689 321.188 201.689 320.734C201.689 319.958 201.989 319.359 202.588 318.938C203.192 318.51 204.046 318.297 205.15 318.297C206.202 318.297 207.226 318.526 208.221 318.984L207.502 320.703C207.064 320.516 206.656 320.362 206.275 320.242C205.895 320.122 205.507 320.062 205.111 320.062C204.408 320.062 204.057 320.253 204.057 320.633C204.057 320.846 204.169 321.031 204.393 321.188C204.622 321.344 205.119 321.576 205.885 321.883C206.567 322.159 207.067 322.417 207.385 322.656C207.702 322.896 207.937 323.172 208.088 323.484C208.239 323.797 208.314 324.169 208.314 324.602ZM217.099 321.148H217.896C218.641 321.148 219.198 321.003 219.568 320.711C219.938 320.414 220.123 319.984 220.123 319.422C220.123 318.854 219.967 318.435 219.654 318.164C219.347 317.893 218.862 317.758 218.201 317.758H217.099V321.148ZM222.568 319.336C222.568 320.565 222.183 321.505 221.412 322.156C220.646 322.807 219.555 323.133 218.138 323.133H217.099V327.195H214.678V315.773H218.326C219.711 315.773 220.763 316.073 221.482 316.672C222.206 317.266 222.568 318.154 222.568 319.336ZM226.515 322.812C226.515 323.677 226.656 324.331 226.937 324.773C227.224 325.216 227.687 325.438 228.328 325.438C228.963 325.438 229.419 325.219 229.695 324.781C229.976 324.339 230.117 323.682 230.117 322.812C230.117 321.948 229.976 321.299 229.695 320.867C229.414 320.435 228.953 320.219 228.312 320.219C227.677 320.219 227.218 320.435 226.937 320.867C226.656 321.294 226.515 321.943 226.515 322.812ZM232.554 322.812C232.554 324.234 232.179 325.346 231.429 326.148C230.679 326.951 229.635 327.352 228.297 327.352C227.458 327.352 226.718 327.169 226.078 326.805C225.437 326.435 224.945 325.906 224.601 325.219C224.258 324.531 224.086 323.729 224.086 322.812C224.086 321.385 224.458 320.276 225.203 319.484C225.948 318.693 226.994 318.297 228.343 318.297C229.182 318.297 229.922 318.479 230.562 318.844C231.203 319.208 231.695 319.732 232.039 320.414C232.383 321.096 232.554 321.896 232.554 322.812ZM238.283 325.453C238.699 325.453 239.199 325.362 239.783 325.18V326.953C239.189 327.219 238.46 327.352 237.595 327.352C236.642 327.352 235.947 327.112 235.509 326.633C235.077 326.148 234.861 325.424 234.861 324.461V320.25H233.72V319.242L235.033 318.445L235.72 316.602H237.244V318.461H239.689V320.25H237.244V324.461C237.244 324.799 237.337 325.049 237.525 325.211C237.718 325.372 237.97 325.453 238.283 325.453ZM243.535 322.812C243.535 323.677 243.675 324.331 243.957 324.773C244.243 325.216 244.707 325.438 245.347 325.438C245.983 325.438 246.438 325.219 246.714 324.781C246.996 324.339 247.136 323.682 247.136 322.812C247.136 321.948 246.996 321.299 246.714 320.867C246.433 320.435 245.972 320.219 245.332 320.219C244.696 320.219 244.238 320.435 243.957 320.867C243.675 321.294 243.535 321.943 243.535 322.812ZM249.574 322.812C249.574 324.234 249.199 325.346 248.449 326.148C247.699 326.951 246.654 327.352 245.316 327.352C244.477 327.352 243.738 327.169 243.097 326.805C242.457 326.435 241.964 325.906 241.621 325.219C241.277 324.531 241.105 323.729 241.105 322.812C241.105 321.385 241.477 320.276 242.222 319.484C242.967 318.693 244.014 318.297 245.363 318.297C246.201 318.297 246.941 318.479 247.582 318.844C248.222 319.208 248.714 319.732 249.058 320.414C249.402 321.096 249.574 321.896 249.574 322.812ZM257.716 324.602C257.716 325.497 257.404 326.18 256.779 326.648C256.159 327.117 255.229 327.352 253.99 327.352C253.354 327.352 252.813 327.307 252.365 327.219C251.917 327.135 251.497 327.01 251.107 326.844V324.875C251.55 325.083 252.047 325.258 252.599 325.398C253.156 325.539 253.646 325.609 254.068 325.609C254.932 325.609 255.365 325.359 255.365 324.859C255.365 324.672 255.307 324.521 255.193 324.406C255.078 324.286 254.88 324.154 254.599 324.008C254.318 323.857 253.943 323.682 253.474 323.484C252.802 323.203 252.307 322.943 251.99 322.703C251.677 322.464 251.448 322.19 251.302 321.883C251.162 321.57 251.091 321.188 251.091 320.734C251.091 319.958 251.391 319.359 251.99 318.938C252.594 318.51 253.448 318.297 254.552 318.297C255.604 318.297 256.628 318.526 257.622 318.984L256.904 320.703C256.466 320.516 256.057 320.362 255.677 320.242C255.297 320.122 254.909 320.062 254.513 320.062C253.81 320.062 253.458 320.253 253.458 320.633C253.458 320.846 253.57 321.031 253.794 321.188C254.024 321.344 254.521 321.576 255.287 321.883C255.969 322.159 256.469 322.417 256.787 322.656C257.104 322.896 257.339 323.172 257.49 323.484C257.641 323.797 257.716 324.169 257.716 324.602ZM262.038 327.195H259.656V318.461H262.038V327.195ZM259.538 317.5V317.289C260.434 316.247 261.046 315.464 261.374 314.938H264.046V315.102C263.775 315.372 263.312 315.776 262.656 316.312C262.005 316.844 261.494 317.24 261.124 317.5H259.538Z" fill="white"/>
<path d="M5.33008 448.385H8.72852V452.826C8.17773 453.006 7.6582 453.131 7.16992 453.201C6.68555 453.275 6.18945 453.312 5.68164 453.312C4.38867 453.312 3.40039 452.934 2.7168 452.176C2.03711 451.414 1.69727 450.322 1.69727 448.9C1.69727 447.518 2.0918 446.439 2.88086 445.666C3.67383 444.893 4.77148 444.506 6.17383 444.506C7.05273 444.506 7.90039 444.682 8.7168 445.033L8.11328 446.486C7.48828 446.174 6.83789 446.018 6.16211 446.018C5.37695 446.018 4.74805 446.281 4.27539 446.809C3.80273 447.336 3.56641 448.045 3.56641 448.936C3.56641 449.865 3.75586 450.576 4.13477 451.068C4.51758 451.557 5.07227 451.801 5.79883 451.801C6.17773 451.801 6.5625 451.762 6.95312 451.684V449.896H5.33008V448.385ZM19.3488 448.9C19.3488 450.318 18.9973 451.408 18.2941 452.17C17.591 452.932 16.5832 453.312 15.2707 453.312C13.9582 453.312 12.9504 452.932 12.2473 452.17C11.5441 451.408 11.1926 450.314 11.1926 448.889C11.1926 447.463 11.5441 446.375 12.2473 445.625C12.9543 444.871 13.966 444.494 15.2824 444.494C16.5988 444.494 17.6047 444.873 18.3 445.631C18.9992 446.389 19.3488 447.479 19.3488 448.9ZM13.0969 448.9C13.0969 449.857 13.2785 450.578 13.6418 451.062C14.0051 451.547 14.548 451.789 15.2707 451.789C16.7199 451.789 17.4445 450.826 17.4445 448.9C17.4445 446.971 16.7238 446.006 15.2824 446.006C14.5598 446.006 14.0148 446.25 13.6477 446.738C13.2805 447.223 13.0969 447.943 13.0969 448.9ZM29.1461 453.195H27.3297V446.141H25.0035V444.629H31.4723V446.141H29.1461V453.195ZM41.366 448.9C41.366 450.318 41.0145 451.408 40.3113 452.17C39.6082 452.932 38.6004 453.312 37.2879 453.312C35.9754 453.312 34.9676 452.932 34.2645 452.17C33.5613 451.408 33.2098 450.314 33.2098 448.889C33.2098 447.463 33.5613 446.375 34.2645 445.625C34.9715 444.871 35.9832 444.494 37.2996 444.494C38.616 444.494 39.6219 444.873 40.3172 445.631C41.0164 446.389 41.366 447.479 41.366 448.9ZM35.1141 448.9C35.1141 449.857 35.2957 450.578 35.659 451.062C36.0223 451.547 36.5652 451.789 37.2879 451.789C38.7371 451.789 39.4617 450.826 39.4617 448.9C39.4617 446.971 38.741 446.006 37.2996 446.006C36.577 446.006 36.032 446.25 35.6648 446.738C35.2977 447.223 35.1141 447.943 35.1141 448.9ZM49.675 448.66H50.2727C50.8312 448.66 51.2492 448.551 51.5266 448.332C51.8039 448.109 51.9426 447.787 51.9426 447.365C51.9426 446.939 51.8254 446.625 51.591 446.422C51.3605 446.219 50.9973 446.117 50.5012 446.117H49.675V448.66ZM53.7766 447.301C53.7766 448.223 53.4875 448.928 52.9094 449.416C52.3352 449.904 51.5168 450.148 50.4543 450.148H49.675V453.195H47.8586V444.629H50.5949C51.634 444.629 52.423 444.854 52.9621 445.303C53.5051 445.748 53.7766 446.414 53.7766 447.301ZM63.9691 448.9C63.9691 450.318 63.6176 451.408 62.9145 452.17C62.2113 452.932 61.2035 453.312 59.891 453.312C58.5785 453.312 57.5707 452.932 56.8676 452.17C56.1645 451.408 55.8129 450.314 55.8129 448.889C55.8129 447.463 56.1645 446.375 56.8676 445.625C57.5746 444.871 58.5863 444.494 59.9027 444.494C61.2191 444.494 62.225 444.873 62.9203 445.631C63.6195 446.389 63.9691 447.479 63.9691 448.9ZM57.7172 448.9C57.7172 449.857 57.8988 450.578 58.2621 451.062C58.6254 451.547 59.1684 451.789 59.891 451.789C61.3402 451.789 62.0648 450.826 62.0648 448.9C62.0648 446.971 61.3441 446.006 59.9027 446.006C59.1801 446.006 58.6352 446.25 58.268 446.738C57.9008 447.223 57.7172 447.943 57.7172 448.9ZM74.8883 453.195H72.8199L71.6598 448.695C71.6168 448.535 71.5426 448.205 71.4371 447.705C71.3355 447.201 71.277 446.863 71.2613 446.691C71.2379 446.902 71.1793 447.242 71.0855 447.711C70.9918 448.176 70.9195 448.508 70.8688 448.707L69.7145 453.195H67.652L65.4664 444.629H67.2535L68.3492 449.305C68.5406 450.168 68.6793 450.916 68.7652 451.549C68.7887 451.326 68.8414 450.982 68.9234 450.518C69.0094 450.049 69.0895 449.686 69.1637 449.428L70.4117 444.629H72.1285L73.3766 449.428C73.4313 449.643 73.4996 449.971 73.5816 450.412C73.6637 450.854 73.7262 451.232 73.7691 451.549C73.8082 451.244 73.8707 450.865 73.9566 450.412C74.0426 449.955 74.1207 449.586 74.191 449.305L75.2809 444.629H77.068L74.8883 453.195ZM83.8797 453.195H78.9461V444.629H83.8797V446.117H80.7625V447.998H83.6629V449.486H80.7625V451.695H83.8797V453.195ZM88.2891 448.432H88.875C89.4492 448.432 89.873 448.336 90.1465 448.145C90.4199 447.953 90.5566 447.652 90.5566 447.242C90.5566 446.836 90.416 446.547 90.1348 446.375C89.8574 446.203 89.4258 446.117 88.8398 446.117H88.2891V448.432ZM88.2891 449.908V453.195H86.4727V444.629H88.9688C90.1328 444.629 90.9941 444.842 91.5527 445.268C92.1113 445.689 92.3906 446.332 92.3906 447.195C92.3906 447.699 92.252 448.148 91.9746 448.543C91.6973 448.934 91.3047 449.24 90.7969 449.463C92.0859 451.389 92.9258 452.633 93.3164 453.195H91.3008L89.2559 449.908H88.2891ZM99.1117 444.629H101.778C102.993 444.629 103.873 444.803 104.42 445.15C104.971 445.494 105.246 446.043 105.246 446.797C105.246 447.309 105.125 447.729 104.883 448.057C104.645 448.385 104.327 448.582 103.928 448.648V448.707C104.471 448.828 104.862 449.055 105.1 449.387C105.342 449.719 105.463 450.16 105.463 450.711C105.463 451.492 105.18 452.102 104.614 452.539C104.051 452.977 103.286 453.195 102.317 453.195H99.1117V444.629ZM100.928 448.021H101.983C102.475 448.021 102.83 447.945 103.049 447.793C103.272 447.641 103.383 447.389 103.383 447.037C103.383 446.709 103.262 446.475 103.02 446.334C102.782 446.189 102.403 446.117 101.883 446.117H100.928V448.021ZM100.928 449.463V451.695H102.112C102.612 451.695 102.981 451.6 103.219 451.408C103.457 451.217 103.577 450.924 103.577 450.529C103.577 449.818 103.069 449.463 102.053 449.463H100.928ZM107.974 453.195V444.629H109.791V453.195H107.974Z" fill="white"/>
</svg>
