<svg width="201" height="201" viewBox="0 0 201 201" fill="none" xmlns="http://www.w3.org/2000/svg">
<path d="M159.582 159.26H40.469C38.7941 159.26 37.4387 157.905 37.4387 156.23V39.6514C37.4387 37.9764 38.7941 36.6211 40.469 36.6211H159.582C161.257 36.6211 162.612 37.9764 162.612 39.6514V156.23C162.612 157.905 161.257 159.26 159.582 159.26ZM43.4993 153.2H156.552V42.6817H43.4993V153.2Z" fill="white"/>
<path d="M159.582 42.6805H40.469C38.7941 42.6805 37.4387 41.3252 37.4387 39.6502V15.6625C37.4387 7.18419 43.9046 0.286133 51.8534 0.286133H148.197C156.146 0.286133 162.612 7.18419 162.612 15.6625V39.6502C162.612 41.3252 161.257 42.6805 159.582 42.6805ZM43.4993 36.62H156.552V15.6625C156.552 10.5255 152.805 6.34669 148.197 6.34669H51.8534C47.2458 6.34669 43.4993 10.5251 43.4993 15.6625V36.62Z" fill="white"/>
<path d="M148.199 200.286H51.8552C43.9068 200.286 37.4406 193.388 37.4406 184.907V156.229C37.4406 154.554 38.7959 153.198 40.4708 153.198H159.584C161.259 153.198 162.614 154.554 162.614 156.229V184.907C162.614 193.388 156.148 200.286 148.199 200.286ZM43.4992 159.26V184.908C43.4992 190.045 47.2456 194.227 51.8533 194.227H148.197C152.805 194.227 156.551 190.045 156.551 184.908V159.26H43.4992Z" fill="white"/>
<path d="M76.7302 24.5156H64.4197C62.7447 24.5156 61.3894 23.1603 61.3894 21.4854C61.3894 19.8104 62.7447 18.4551 64.4197 18.4551H76.7302C78.4052 18.4551 79.7605 19.8104 79.7605 21.4854C79.7605 23.1603 78.4052 24.5156 76.7302 24.5156Z" fill="white"/>
<path d="M135.616 24.5209C135.222 24.5209 134.829 24.4292 134.465 24.2782C134.101 24.1273 133.769 23.9143 133.497 23.6124C133.192 23.3402 132.979 23.0058 132.828 22.6418C132.677 22.2778 132.586 21.8842 132.586 21.4906C132.586 21.097 132.677 20.7035 132.828 20.3394C132.979 19.9459 133.192 19.6115 133.497 19.3392C133.616 19.1883 133.769 19.067 133.95 18.9752C134.101 18.8539 134.284 18.7622 134.465 18.6734C134.648 18.6112 134.829 18.5521 135.042 18.5195C136.042 18.3094 137.072 18.6408 137.767 19.3392C138.043 19.6115 138.282 19.9459 138.436 20.3395C138.587 20.7034 138.646 21.097 138.646 21.4906C138.646 21.8842 138.587 22.2778 138.436 22.6418C138.282 23.0058 138.043 23.3402 137.767 23.6124C137.193 24.1865 136.436 24.5209 135.616 24.5209L135.616 24.5209Z" fill="white"/>
<path d="M80.7793 132.776C80.7142 132.776 80.6491 132.773 80.581 132.77C65.8201 131.817 52.8289 129.713 39.6911 126.147C14.4872 119.379 0.0285645 108.661 0.0285645 96.7377C0.0285645 84.8177 14.4875 74.0992 39.6987 67.3284C41.3204 66.8934 42.9776 67.8522 43.4126 69.468C43.8476 71.0867 42.8888 72.7468 41.2731 73.1818C19.5698 79.0087 6.09037 88.0344 6.09037 96.7377C6.09037 105.441 19.5698 114.469 41.2731 120.296C54.0158 123.756 66.6308 125.795 80.9735 126.721C82.6425 126.83 83.9091 128.272 83.8026 129.941C83.699 131.544 82.3644 132.775 80.7812 132.775L80.7793 132.776Z" fill="white"/>
<path d="M105.143 133.302C103.494 133.302 102.142 131.982 102.112 130.325C102.083 128.653 103.414 127.271 105.089 127.241C124.768 126.889 143.335 124.489 158.778 120.302C180.485 114.472 193.964 105.443 193.964 96.7405C193.964 88.0371 180.485 79.0114 158.785 73.1846C157.169 72.7496 156.21 71.0895 156.645 69.4707C157.08 67.8579 158.743 66.8962 160.359 67.3312C185.566 74.102 200.025 84.8205 200.025 96.7404C200.025 108.66 185.566 119.382 160.359 126.152C144.447 130.467 125.369 132.941 105.196 133.302H105.143L105.143 133.302Z" fill="white"/>
<path d="M118.643 146.801C117.867 146.801 117.092 146.505 116.5 145.913L103 132.413C101.816 131.229 101.816 129.312 103 128.128L116.5 114.628C117.684 113.444 119.602 113.444 120.785 114.628C121.969 115.812 121.969 117.729 120.785 118.913L109.428 130.27L120.785 141.628C121.969 142.812 121.969 144.729 120.785 145.913C120.193 146.504 119.418 146.8 118.643 146.8L118.643 146.801Z" fill="white"/>
<path d="M100.025 187.346C94.1777 187.346 89.4194 182.587 89.4194 176.74C89.4194 170.892 94.1777 166.134 100.025 166.134C105.873 166.134 110.631 170.892 110.631 176.74C110.631 182.587 105.873 187.346 100.025 187.346ZM100.025 172.194C97.5189 172.194 95.48 174.233 95.48 176.74C95.48 179.246 97.5189 181.285 100.025 181.285C102.532 181.285 104.571 179.246 104.571 176.74C104.571 174.233 102.532 172.194 100.025 172.194Z" fill="white"/>
</svg>
